<svg width="125" height="125" viewBox="0 0 125 125" fill="none" xmlns="http://www.w3.org/2000/svg">
<g id="LOGO PLAN B without text">
<circle id="Ellipse 257" cx="62.5" cy="62.5" r="61.75" stroke="#1B263E" stroke-width="1.5"/>
<path id="Vector" d="M99.4235 30.3405L71.85 14.1944C71.602 14.0484 71.3142 13.982 71.0175 14.0042C71.0175 14.0042 39.2147 16.4157 39.1572 16.4201C37.7889 16.5263 37.3633 18.3847 38.5456 19.0794L66.1156 35.221C66.368 35.3714 66.6558 35.4289 66.9481 35.4112L96.8729 33.1458L94.1501 44.9246C91.8696 45.0396 89.841 46.6237 89.3008 48.9511L88.9643 50.4113C87.7111 48.1016 85.6702 46.1901 83.0842 44.5839C83.3676 44.3892 83.5801 44.0927 83.6598 43.7343L85.2407 36.8847L67.1602 38.2608C66.31 38.3272 65.3978 38.1325 64.6671 37.69L49.0182 28.5219L47.6326 34.5307L39.0774 32.4289L37.1331 40.3626C37.1331 40.3626 42.6726 41.5617 42.5265 41.7122C45.5199 42.4644 46.1182 44.4069 45.972 46.0573L42.5265 59.9821C42.6726 59.9821 42.9738 60.1281 43.2704 60.2785C42.9738 60.2785 42.8232 60.1281 42.5265 60.1281L37.5807 79.7431C37.2841 80.6414 36.2297 81.9865 34.1352 81.5396C34.1352 81.69 28.7418 80.1901 28.7418 80.1901L25 88.721L34.7374 91.1148C36.5353 91.5662 38.3335 92.0175 40.1313 92.4644L36.9825 104.894L44.4753 106.69L47.4727 94.4113C49.5717 95.0086 51.5161 95.46 53.4689 95.9069L50.4706 108.186L57.963 109.982L61.1118 97.5529C73.8471 99.9467 83.4384 99.0529 87.4813 87.5263C90.7758 78.2387 87.3307 72.8538 80.5911 69.4113C85.5329 68.0617 89.2787 64.7697 90.1776 58.1812C90.2661 57.6104 90.3153 57.0573 90.3374 56.5219L96.5187 57.9467C97.2847 58.1237 98.0552 57.6458 98.2323 56.8759L99.5214 51.3095C100.057 48.9821 98.9364 46.6679 96.9349 45.5662L100.097 31.8935C100.229 31.3139 99.946 30.6325 99.4279 30.3405H99.4235ZM73.2444 82.137C70.9994 91.4201 55.2662 86.3316 50.32 85.1325L54.3629 68.6635C59.3091 69.8626 75.64 72.4024 73.2444 82.137ZM75.4895 58.0308C73.395 66.4157 60.3586 62.2254 56.1607 61.1768L59.9069 46.2033C64.1048 47.2564 77.7346 49.1989 75.4895 58.0308Z" fill="#F39324"/>
</g>
</svg>
