<svg width="125" height="125" viewBox="0 0 125 125" fill="none" xmlns="http://www.w3.org/2000/svg">
<g id="PILL">
<rect width="125" height="125" fill="none"/>
<g id="Group 41">
<rect id="Rectangle 2" x="49.1254" y="25.1738" width="30.3356" height="73.9689" fill="white"/>
<g id="Group 40">
<g id="Vector">
<path d="M61.7568 66.1111H58.1621V81.6036H62.7824C64.1674 81.6036 65.2035 81.216 65.8802 80.4723C66.5568 79.7286 66.9057 78.4297 66.9057 76.5965V72.197C66.9057 69.903 66.5145 68.3213 65.7004 67.4414C64.8863 66.5615 63.5648 66.1006 61.7568 66.1006V66.1111Z" fill="url(#paint0_radial_4982_28067)"/>
<path d="M64.8863 57.6578C65.6687 56.8512 66.0599 55.479 66.0599 53.5725V50.7547C66.0599 47.3085 64.7066 45.5801 62.0106 45.5382H58.141V58.8833H61.3022C62.8987 58.8833 64.1145 58.4643 64.8969 57.6473L64.8863 57.6578Z" fill="url(#paint1_radial_4982_28067)"/>
<path d="M62 5C48.7524 5 38 15.6426 38 28.7782V97.2218C38 110.347 48.7418 121 62 121C75.2476 121 86 110.357 86 97.2218V28.7782C86 15.6531 75.2581 5 62 5ZM74.8775 76.8479C74.8775 80.7551 73.8414 83.7195 71.7903 85.7622C70.5004 87.0401 68.8405 87.9095 66.8106 88.3914V90.1826C66.8106 91.4605 65.7533 92.508 64.4634 92.508C63.1736 92.508 62.1057 91.4605 62.1057 90.1826V88.8208H58.141V90.1826C58.141 91.4605 57.0837 92.508 55.7938 92.508C54.504 92.508 53.4467 91.4605 53.4467 90.1826V88.8208H52.7172C51.015 88.8208 50.1586 87.9724 50.1586 86.2859V40.8559C50.1586 39.1694 51.015 38.3209 52.7172 38.3209H53.4467V35.8069C53.4467 34.529 54.504 33.4815 55.7938 33.4815C57.0837 33.4815 58.141 34.529 58.141 35.8069V38.3209H62.1057V35.8069C62.1057 34.529 63.163 33.4815 64.4634 33.4815C65.7639 33.4815 66.8106 34.529 66.8106 35.8069V38.5304C66.8106 38.6352 66.7894 38.7295 66.7789 38.8237C68.6502 39.2846 70.1516 40.0598 71.2617 41.1701C73.1436 43.0766 74.1057 45.9991 74.1057 49.9377V51.9489C74.1057 57.1235 72.3612 60.4336 68.9145 61.8478V61.9839C72.9004 63.3247 74.8881 66.8443 74.8881 72.5113V76.8479H74.8775Z" fill="url(#paint2_radial_4982_28067)"/>
</g>
</g>
</g>
</g>
<defs>
<radialGradient id="paint0_radial_4982_28067" cx="0" cy="0" r="1" gradientUnits="userSpaceOnUse" gradientTransform="translate(51.4954 20.251) rotate(85.8135) scale(72.9836 30.1993)">
<stop stop-color="#FF9900"/>
<stop offset="1" stop-color="#FF5C00"/>
</radialGradient>
<radialGradient id="paint1_radial_4982_28067" cx="0" cy="0" r="1" gradientUnits="userSpaceOnUse" gradientTransform="translate(51.4954 20.251) rotate(85.8135) scale(72.9836 30.1993)">
<stop stop-color="#FF9900"/>
<stop offset="1" stop-color="#FF5C00"/>
</radialGradient>
<radialGradient id="paint2_radial_4982_28067" cx="0" cy="0" r="1" gradientUnits="userSpaceOnUse" gradientTransform="translate(51.4954 20.251) rotate(85.8135) scale(72.9836 30.1993)">
<stop stop-color="#FF9900"/>
<stop offset="1" stop-color="#FF5C00"/>
</radialGradient>
</defs>
</svg>
