<svg width="555" height="1345" viewBox="0 0 555 1345" fill="none" xmlns="http://www.w3.org/2000/svg">
<g clip-path="url(#clip0_1_174)">
<rect x="109.185" y="253.397" width="350.859" height="857.656" fill="white"/>
<path d="M274.77 708.572H233.194V888.205H286.632C302.651 888.205 314.635 883.711 322.461 875.088C330.287 866.465 334.322 851.404 334.322 830.149V779.138C334.322 752.539 329.797 734.2 320.382 723.997C310.966 713.795 295.681 708.451 274.77 708.451V708.572Z" fill="#FF5C00"/>
<path d="M310.966 610.558C320.015 601.206 324.539 585.295 324.539 563.19V530.518C324.539 490.559 308.887 470.519 277.705 470.033H232.949V624.768H269.512C287.977 624.768 302.039 619.91 311.088 610.436L310.966 610.558Z" fill="#FF5C00"/>
<path d="M277.582 0C124.362 0 0 123.399 0 275.704V1069.3C0 1221.48 124.239 1345 277.582 1345C430.803 1345 555.165 1221.6 555.165 1069.3V275.704C555.165 123.52 430.926 0 277.582 0ZM426.523 833.064C426.523 878.367 414.539 912.739 390.817 936.423C375.898 951.241 356.7 961.322 333.221 966.909V987.677C333.221 1002.5 320.993 1014.64 306.075 1014.64C291.156 1014.64 278.805 1002.5 278.805 987.677V971.888H232.949V987.677C232.949 1002.5 220.721 1014.64 205.803 1014.64C190.884 1014.64 178.655 1002.5 178.655 987.677V971.888H170.218C150.53 971.888 140.625 962.05 140.625 942.496V415.743C140.625 396.188 150.53 386.35 170.218 386.35H178.655V357.201C178.655 342.383 190.884 330.238 205.803 330.238C220.721 330.238 232.949 342.383 232.949 357.201V386.35H278.805V357.201C278.805 342.383 291.034 330.238 306.075 330.238C321.115 330.238 333.221 342.383 333.221 357.201V388.78C333.221 389.994 332.977 391.087 332.855 392.18C354.499 397.524 371.863 406.512 384.703 419.386C406.469 441.491 417.597 475.377 417.597 521.045V544.364C417.597 604.363 397.42 642.743 357.556 659.14V660.719C403.656 676.265 426.646 717.074 426.646 782.782V833.064H426.523Z" fill="#FF5C00"/>
</g>
<defs>
<clipPath id="clip0_1_174">
<rect width="555" height="1345" fill="white"/>
</clipPath>
</defs>
</svg>
