<svg width="290" height="150" viewBox="0 0 290 150" fill="none" xmlns="http://www.w3.org/2000/svg">
<g clip-path="url(#clip0_1099_25288)">
<path d="M167.108 50.5442C168.809 42.0885 172.325 34.0265 177.55 26.8451C187.093 13.7168 201.183 5.0929 217.217 2.55306C225.648 1.21678 234.071 1.63713 242.249 3.80527C242.683 3.92474 243.108 3.6681 243.219 3.24332C243.33 2.82297 243.082 2.38934 242.657 2.27872C234.257 0.0574807 225.617 -0.37172 216.969 0.995536C200.514 3.60173 186.061 12.4513 176.266 25.9203C170.841 33.3805 167.21 41.761 165.492 50.5486H167.108V50.5442Z" fill="#1B263E"/>
<path d="M277.186 99.1721C277 99.4243 276.818 99.6765 276.623 99.9331C272.895 104.907 268.52 109.225 263.64 112.809C255.723 118.637 246.468 122.513 236.482 124.101C233.175 124.619 229.871 124.88 226.594 124.88C213.536 124.88 200.84 120.783 190.067 112.96C190 112.911 189.93 112.862 189.863 112.809C184.824 109.123 180.445 104.787 176.805 99.9331C175.038 97.588 173.444 95.1234 172.049 92.5615C171.548 91.6721 171.083 90.7694 170.641 89.8579H172.407C172.868 90.7738 173.351 91.6721 173.86 92.5615C175.317 95.1323 176.968 97.6013 178.802 99.9331C182.251 104.345 186.338 108.305 191.006 111.69C191.541 112.075 192.073 112.451 192.613 112.809C205.437 121.522 220.847 124.969 236.243 122.539C245.228 121.119 253.606 117.778 260.908 112.809C266.067 109.3 270.694 104.977 274.622 99.9331C275.06 99.38 275.485 98.8181 275.902 98.2429C285.449 85.119 289.31 69.0659 286.768 53.0438C283.93 35.1058 273.311 19.504 257.644 10.2473C257.268 10.0217 257.144 9.54381 257.37 9.1677C257.582 8.79159 258.074 8.6677 258.45 8.88894C274.52 18.3934 285.409 34.3978 288.327 52.8004C290.926 69.2429 286.972 85.7163 277.186 99.1765V99.1721Z" fill="#1B263E"/>
<path d="M251.923 7.18537C251.817 7.18537 251.706 7.16325 251.6 7.11457C250.595 6.66325 249.576 6.23847 248.549 5.84024C248.142 5.68537 247.938 5.22519 248.097 4.81811C248.257 4.41102 248.708 4.20748 249.12 4.36677C250.174 4.77387 251.219 5.20749 252.251 5.6721C252.649 5.84909 252.827 6.31811 252.649 6.71634C252.517 7.00838 252.229 7.18095 251.928 7.18095L251.923 7.18537Z" fill="#1B263E"/>
<path d="M30.7728 133.721H25.1934L12.5599 114.646V133.721H6.98047V105.885H12.5599L25.1934 125V105.885H30.7728V133.721ZM56.8107 122.212C56.8107 123.009 56.7576 123.725 56.6513 124.363H40.5109C40.6438 125.955 41.2017 127.203 42.1848 128.106C43.1678 129.009 44.3765 129.46 45.8112 129.46C47.8836 129.46 49.3582 128.571 50.2349 126.792H56.2528C55.6151 128.916 54.3929 130.668 52.5863 132.048C50.7796 133.402 48.5611 134.079 45.9308 134.079C43.8055 134.079 41.8925 133.615 40.1921 132.686C38.5183 131.73 37.2031 130.389 36.2467 128.663C35.3168 126.938 34.8518 124.947 34.8518 122.69C34.8518 120.407 35.3168 118.402 36.2467 116.677C37.1766 114.951 38.4784 113.624 40.1523 112.694C41.8261 111.765 43.7523 111.301 45.9308 111.301C48.0297 111.301 49.9028 111.752 51.5501 112.655C53.2239 113.557 54.5125 114.845 55.4158 116.517C56.3457 118.163 56.8107 120.062 56.8107 122.212ZM51.032 120.619C51.0054 119.186 50.4873 118.044 49.4777 117.194C48.4681 116.318 47.2327 115.88 45.7714 115.88C44.3898 115.88 43.221 116.305 42.2645 117.155C41.3346 117.978 40.7634 119.132 40.5508 120.619H51.032ZM67.3793 116.239V126.911C67.3793 127.655 67.552 128.199 67.8974 128.544C68.2694 128.863 68.8804 129.022 69.7306 129.022H72.3211V133.721H68.814C64.1114 133.721 61.76 131.438 61.76 126.871V116.239H59.1297V111.659H61.76V106.203H67.3793V111.659H72.3211V116.239H67.3793ZM106.942 111.659L100.485 133.721H94.4675L90.4423 118.309L86.4171 133.721H80.3595L73.8634 111.659H79.5226L83.4282 128.464L87.6526 111.659H93.5509L97.6956 128.425L101.601 111.659H106.942ZM119.764 134.079C117.639 134.079 115.726 133.615 114.025 132.686C112.325 131.73 110.983 130.389 110 128.663C109.044 126.938 108.565 124.947 108.565 122.69C108.565 120.433 109.057 118.442 110.04 116.717C111.049 114.991 112.418 113.663 114.145 112.734C115.872 111.779 117.798 111.301 119.923 111.301C122.049 111.301 123.975 111.779 125.702 112.734C127.429 113.663 128.784 114.991 129.767 116.717C130.777 118.442 131.282 120.433 131.282 122.69C131.282 124.947 130.764 126.938 129.727 128.663C128.718 130.389 127.336 131.73 125.583 132.686C123.856 133.615 121.916 134.079 119.764 134.079ZM119.764 129.221C120.774 129.221 121.717 128.982 122.594 128.504C123.497 128 124.214 127.256 124.746 126.274C125.277 125.292 125.543 124.097 125.543 122.69C125.543 120.593 124.985 118.986 123.869 117.871C122.78 116.73 121.438 116.159 119.844 116.159C118.25 116.159 116.908 116.73 115.819 117.871C114.756 118.986 114.224 120.593 114.224 122.69C114.224 124.787 114.743 126.407 115.779 127.548C116.841 128.663 118.17 129.221 119.764 129.221ZM140.954 115.084C141.671 113.916 142.601 113 143.744 112.336C144.913 111.672 146.241 111.34 147.729 111.34V117.194H146.254C144.501 117.194 143.172 117.606 142.269 118.429C141.392 119.252 140.954 120.686 140.954 122.73V133.721H135.375V111.659H140.954V115.084ZM164.559 133.721L157.067 124.323V133.721H151.487V104.252H157.067V121.017L164.479 111.659H171.733L162.008 122.73L171.812 133.721H164.559Z" fill="#1B263E"/>
<path d="M264.162 32.8405L236.588 16.6944C236.34 16.5484 236.052 16.482 235.756 16.5042C235.756 16.5042 203.953 18.9157 203.895 18.9201C202.527 19.0263 202.102 20.8847 203.284 21.5794L230.854 37.721C231.106 37.8714 231.394 37.9289 231.686 37.9112L261.611 35.6458L258.888 47.4246C256.608 47.5396 254.579 49.1237 254.039 51.4511L253.703 52.9113C252.449 50.6016 250.408 48.6901 247.822 47.0839C248.106 46.8892 248.318 46.5927 248.398 46.2343L249.979 39.3847L231.898 40.7608C231.048 40.8272 230.136 40.6325 229.405 40.19L213.756 31.0219L212.371 37.0307L203.816 34.9289L201.871 42.8626C201.871 42.8626 207.411 44.0617 207.265 44.2122C210.258 44.9644 210.856 46.9069 210.71 48.5573L207.265 62.4821C207.411 62.4821 207.712 62.6281 208.009 62.7785C207.712 62.7785 207.561 62.6281 207.265 62.6281L202.319 82.2431C202.022 83.1414 200.968 84.4865 198.873 84.0396C198.873 84.19 193.48 82.6901 193.48 82.6901L189.738 91.221L199.476 93.6148C201.274 94.0662 203.072 94.5175 204.87 94.9644L201.721 107.394L209.214 109.19L212.211 96.9113C214.31 97.5086 216.254 97.96 218.207 98.4069L215.209 110.686L222.701 112.482L225.85 100.053C238.585 102.447 248.177 101.553 252.22 90.0263C255.514 80.7387 252.069 75.3538 245.329 71.9113C250.271 70.5617 254.017 67.2697 254.916 60.6812C255.004 60.1104 255.054 59.5573 255.076 59.0219L261.257 60.4467C262.023 60.6237 262.793 60.1458 262.971 59.3759L264.26 53.8095C264.795 51.4821 263.675 49.1679 261.673 48.0662L264.835 34.3935C264.968 33.8139 264.684 33.1325 264.166 32.8405H264.162ZM237.983 84.637C235.738 93.9201 220.005 88.8316 215.058 87.6325L219.101 71.1635C224.047 72.3626 240.378 74.9024 237.983 84.637ZM240.228 60.5308C238.133 68.9157 225.097 64.7254 220.899 63.6768L224.645 48.7033C228.843 49.7564 242.473 51.6989 240.228 60.5308Z" fill="#F39324"/>
<path d="M49.1866 59.6853C49.1866 62.8406 48.4255 65.7986 46.9031 68.5592C45.4369 71.3198 43.097 73.5455 39.883 75.2358C36.7255 76.926 32.7222 77.7712 27.8731 77.7712H17.9775V100.421H6.13672V41.4304H27.8731C32.4402 41.4304 36.3308 42.2192 39.5447 43.7968C42.7587 45.3743 45.1548 47.5437 46.7339 50.3044C48.3688 53.065 49.1866 56.192 49.1866 59.6853ZM27.3656 68.2212C30.6359 68.2212 33.0605 67.4889 34.6392 66.0238C36.218 64.5026 37.0074 62.3898 37.0074 59.6853C37.0074 53.9384 33.7935 51.065 27.3656 51.065H17.9775V68.2212H27.3656ZM69.4342 37.8809V100.421H57.5934V37.8809H69.4342ZM78.0881 76.8415C78.0881 72.1088 79.0185 67.9114 80.8792 64.249C82.7961 60.5867 85.3618 57.7698 88.5757 55.7977C91.8459 53.8256 95.4827 52.8398 99.4862 52.8398C102.982 52.8398 106.027 53.5442 108.621 54.9526C111.271 56.361 113.385 58.1358 114.964 60.2769V53.6004H126.889V100.421H114.964V93.5752C113.441 95.7725 111.327 97.6035 108.621 99.0685C105.97 100.477 102.898 101.181 99.4016 101.181C95.4548 101.181 91.8459 100.167 88.5757 98.1389C85.3618 96.1106 82.7961 93.2654 80.8792 89.603C79.0185 85.8844 78.0881 81.6305 78.0881 76.8415ZM114.964 77.0105C114.964 74.1371 114.4 71.6862 113.272 69.6579C112.144 67.5734 110.622 65.9955 108.705 64.9251C106.788 63.7982 104.73 63.2349 102.531 63.2349C100.332 63.2349 98.3021 63.7703 96.4414 64.8406C94.5807 65.911 93.0583 67.4889 91.8742 69.5734C90.7464 71.6017 90.1827 74.0243 90.1827 76.8415C90.1827 79.6588 90.7464 82.1375 91.8742 84.2787C93.0583 86.3632 94.5807 87.969 96.4414 89.0959C98.3583 90.2229 100.388 90.7862 102.531 90.7862C104.73 90.7862 106.788 90.2508 108.705 89.1805C110.622 88.0535 112.144 86.476 113.272 84.4477C114.4 82.3632 114.964 79.884 114.964 77.0105ZM164.419 52.9243C170.001 52.9243 174.512 54.699 177.951 58.2486C181.391 61.742 183.11 66.6437 183.11 72.9539V100.421H171.27V74.5597C171.27 70.8411 170.339 67.9959 168.479 66.0238C166.618 63.9955 164.081 62.9813 160.867 62.9813C157.596 62.9813 155.003 63.9955 153.086 66.0238C151.225 67.9959 150.294 70.8411 150.294 74.5597V100.421H138.454V53.6004H150.294V59.4318C151.874 57.4035 153.875 55.826 156.299 54.699C158.781 53.5159 161.487 52.9243 164.419 52.9243Z" fill="#1B263E"/>
</g>
<defs>
<clipPath id="clip0_1099_25288">
<rect width="289.157" height="150" fill="white"/>
</clipPath>
</defs>
</svg>
