<svg width="18" height="19" viewBox="0 0 18 19" fill="none" xmlns="http://www.w3.org/2000/svg">
<g id="approved icon" clip-path="url(#clip0_5747_1733)">
<path id="Vector 4" d="M9.79415 1.843L15.0147 3.2761C15.449 3.39531 15.75 3.79009 15.75 4.24042V9.58327C15.75 11.5608 14.7756 13.4114 13.1451 14.5304L9.56584 16.9867C9.2249 17.2207 8.7751 17.2207 8.43416 16.9867L4.85495 14.5304C3.22443 13.4114 2.25 11.5608 2.25 9.58328V4.24042C2.25 3.79009 2.55101 3.39531 2.98528 3.2761L8.20585 1.843C8.72567 1.70031 9.27433 1.70031 9.79415 1.843Z" fill="none" stroke="currentColor" stroke-width="2" stroke-linecap="round"/>
<path id="Line 1" d="M6.75 8.69643L8.19574 10.4003C8.29558 10.518 8.47715 10.518 8.57699 10.4003L11.25 7.25" stroke="currentColor" stroke-width="2" stroke-linecap="round"/>
</g>
<defs>
<clipPath id="clip0_5747_1733">
<rect width="18" height="18" fill="white" transform="translate(0 0.5)"/>
</clipPath>
</defs>
</svg>
