<svg width="60" height="61" viewBox="0 0 60 61" fill="none" xmlns="http://www.w3.org/2000/svg">
<g id="icon exchange 3">
<path id="Vector" d="M12.9943 15.2956H11.0185C10.456 15.2956 10 15.7514 10 16.3136V18.4819C10 19.0441 10.456 19.4998 11.0185 19.4998H12.9943C13.5568 19.4998 14.0128 19.0441 14.0128 18.4819V16.3136C14.0128 15.7514 13.5568 15.2956 12.9943 15.2956Z" fill="#FF5C00"/>
<path id="Vector_2" d="M12.9943 55.2466H11.0185C10.456 55.2466 10 55.7023 10 56.2645V58.4328C10 58.995 10.456 59.4507 11.0185 59.4507H12.9943C13.5568 59.4507 14.0128 58.995 14.0128 58.4328V56.2645C14.0128 55.7023 13.5568 55.2466 12.9943 55.2466Z" fill="#FF5C00"/>
<path id="Vector_3" d="M37.9943 15.2956H36.0185C35.456 15.2956 35 15.7514 35 16.3136V18.4819C35 19.0441 35.456 19.4998 36.0185 19.4998H37.9943C38.5568 19.4998 39.0128 19.0441 39.0128 18.4819V16.3136C39.0128 15.7514 38.5568 15.2956 37.9943 15.2956Z" fill="#FF5C00"/>
<path id="Vector_4" d="M2.99431 15.3447H1.01847C0.455985 15.3447 0 15.8005 0 16.3627V18.5309C0 19.0931 0.455985 19.5489 1.01847 19.5489H2.99431C3.55679 19.5489 4.01278 19.0931 4.01278 18.5309V16.3627C4.01278 15.8005 3.55679 15.3447 2.99431 15.3447Z" fill="#FF5C00"/>
<path id="Vector_5" d="M32.9943 15.2956H31.0185C30.456 15.2956 30 15.7514 30 16.3136V18.4819C30 19.0441 30.456 19.4998 31.0185 19.4998H32.9943C33.5568 19.4998 34.0128 19.0441 34.0128 18.4819V16.3136C34.0128 15.7514 33.5568 15.2956 32.9943 15.2956Z" fill="#FF5C00"/>
<path id="Vector_6" d="M52.9943 10.2956H51.0185C50.456 10.2956 50 10.7514 50 11.3136V13.4819C50 14.0441 50.456 14.4998 51.0185 14.4998H52.9943C53.5568 14.4998 54.0128 14.0441 54.0128 13.4819V11.3136C54.0128 10.7514 53.5568 10.2956 52.9943 10.2956Z" fill="#FF5C00"/>
<path id="Vector_7" d="M57.9943 15.2956H56.0185C55.456 15.2956 55 15.7514 55 16.3136V18.4819C55 19.0441 55.456 19.4998 56.0185 19.4998H57.9943C58.5568 19.4998 59.0128 19.0441 59.0128 18.4819V16.3136C59.0128 15.7514 58.5568 15.2956 57.9943 15.2956Z" fill="#FF5C00"/>
<path id="Vector_8" d="M22.9943 15.2956H21.0185C20.456 15.2956 20 15.7514 20 16.3136V18.4819C20 19.0441 20.456 19.4998 21.0185 19.4998H22.9943C23.5568 19.4998 24.0128 19.0441 24.0128 18.4819V16.3136C24.0128 15.7514 23.5568 15.2956 22.9943 15.2956Z" fill="#FF5C00"/>
<path id="Vector_9" d="M47.9943 15.2956H46.0185C45.456 15.2956 45 15.7514 45 16.3136V18.4819C45 19.0441 45.456 19.4998 46.0185 19.4998H47.9943C48.5568 19.4998 49.0128 19.0441 49.0128 18.4819V16.3136C49.0128 15.7514 48.5568 15.2956 47.9943 15.2956Z" fill="#FF5C00"/>
<path id="Vector_10" d="M12.9943 45.2466H11.0185C10.456 45.2466 10 45.7023 10 46.2645V48.4328C10 48.995 10.456 49.4507 11.0185 49.4507H12.9943C13.5568 49.4507 14.0128 48.995 14.0128 48.4328V46.2645C14.0128 45.7023 13.5568 45.2466 12.9943 45.2466Z" fill="#FF5C00"/>
<path id="Vector_11" d="M7.99431 15.2956H6.01847C5.45598 15.2956 5 15.7514 5 16.3136V18.4819C5 19.0441 5.45598 19.4998 6.01847 19.4998H7.99431C8.55679 19.4998 9.01278 19.0441 9.01278 18.4819V16.3136C9.01278 15.7514 8.55679 15.2956 7.99431 15.2956Z" fill="#FF5C00"/>
<path id="Vector_12" d="M37.9943 45.2466H36.0185C35.456 45.2466 35 45.7023 35 46.2645V48.4328C35 48.995 35.456 49.4507 36.0185 49.4507H37.9943C38.5568 49.4507 39.0128 48.995 39.0128 48.4328V46.2645C39.0128 45.7023 38.5568 45.2466 37.9943 45.2466Z" fill="#FF5C00"/>
<path id="Vector_13" d="M2.99431 45.2956H1.01847C0.455985 45.2956 0 45.7514 0 46.3136V48.4819C0 49.0441 0.455985 49.4998 1.01847 49.4998H2.99431C3.55679 49.4998 4.01278 49.0441 4.01278 48.4819V46.3136C4.01278 45.7514 3.55679 45.2956 2.99431 45.2956Z" fill="#FF5C00"/>
<path id="Vector_14" d="M32.9943 45.2466H31.0185C30.456 45.2466 30 45.7023 30 46.2645V48.4328C30 48.995 30.456 49.4507 31.0185 49.4507H32.9943C33.5568 49.4507 34.0128 48.995 34.0128 48.4328V46.2645C34.0128 45.7023 33.5568 45.2466 32.9943 45.2466Z" fill="#FF5C00"/>
<path id="Vector_15" d="M57.9943 45.2466H56.0185C55.456 45.2466 55 45.7023 55 46.2645V48.4328C55 48.995 55.456 49.4507 56.0185 49.4507H57.9943C58.5568 49.4507 59.0128 48.995 59.0128 48.4328V46.2645C59.0128 45.7023 58.5568 45.2466 57.9943 45.2466Z" fill="#FF5C00"/>
<path id="Vector_16" d="M47.9943 25.2956H46.0185C45.456 25.2956 45 25.7514 45 26.3136V28.4819C45 29.0441 45.456 29.4998 46.0185 29.4998H47.9943C48.5568 29.4998 49.0128 29.0441 49.0128 28.4819V26.3136C49.0128 25.7514 48.5568 25.2956 47.9943 25.2956Z" fill="#FF5C00"/>
<path id="Vector_17" d="M22.9943 45.2466H21.0185C20.456 45.2466 20 45.7023 20 46.2645V48.4328C20 48.995 20.456 49.4507 21.0185 49.4507H22.9943C23.5568 49.4507 24.0128 48.995 24.0128 48.4328V46.2645C24.0128 45.7023 23.5568 45.2466 22.9943 45.2466Z" fill="#FF5C00"/>
<path id="Vector_18" d="M47.9943 5.29562H46.0185C45.456 5.29562 45 5.75138 45 6.31359V8.48185C45 9.04406 45.456 9.49982 46.0185 9.49982H47.9943C48.5568 9.49982 49.0128 9.04406 49.0128 8.48185V6.31359C49.0128 5.75138 48.5568 5.29562 47.9943 5.29562Z" fill="#FF5C00"/>
<path id="Vector_19" d="M47.9943 45.2466H46.0185C45.456 45.2466 45 45.7023 45 46.2645V48.4328C45 48.995 45.456 49.4507 46.0185 49.4507H47.9943C48.5568 49.4507 49.0128 48.995 49.0128 48.4328V46.2645C49.0128 45.7023 48.5568 45.2466 47.9943 45.2466Z" fill="#FF5C00"/>
<path id="Vector_20" d="M12.9943 35.3447H11.0185C10.456 35.3447 10 35.8005 10 36.3627V38.5309C10 39.0931 10.456 39.5489 11.0185 39.5489H12.9943C13.5568 39.5489 14.0128 39.0931 14.0128 38.5309V36.3627C14.0128 35.8005 13.5568 35.3447 12.9943 35.3447Z" fill="#FF5C00"/>
<path id="Vector_21" d="M7.99431 50.2956H6.01847C5.45598 50.2956 5 50.7514 5 51.3136V53.4819C5 54.0441 5.45598 54.4998 6.01847 54.4998H7.99431C8.55679 54.4998 9.01278 54.0441 9.01278 53.4819V51.3136C9.01278 50.7514 8.55679 50.2956 7.99431 50.2956Z" fill="#FF5C00"/>
<path id="Vector_22" d="M18.0256 15.3871H16.0497C15.4872 15.3871 15.0312 15.8428 15.0312 16.405V18.5733C15.0312 19.1355 15.4872 19.5912 16.0497 19.5912H18.0256C18.588 19.5912 19.044 19.1355 19.044 18.5733V16.405C19.044 15.8428 18.588 15.3871 18.0256 15.3871Z" fill="#FF5C00"/>
<path id="Vector_23" d="M43.0256 15.3871H41.0497C40.4872 15.3871 40.0312 15.8428 40.0312 16.405V18.5733C40.0312 19.1355 40.4872 19.5912 41.0497 19.5912H43.0256C43.588 19.5912 44.044 19.1355 44.044 18.5733V16.405C44.044 15.8428 43.588 15.3871 43.0256 15.3871Z" fill="#FF5C00"/>
<path id="Vector_24" d="M28.0256 15.3871H26.0497C25.4872 15.3871 25.0312 15.8428 25.0312 16.405V18.5733C25.0312 19.1355 25.4872 19.5912 26.0497 19.5912H28.0256C28.588 19.5912 29.044 19.1355 29.044 18.5733V16.405C29.044 15.8428 28.588 15.3871 28.0256 15.3871Z" fill="#FF5C00"/>
<path id="Vector_25" d="M53.0256 15.3871H51.0497C50.4872 15.3871 50.0312 15.8428 50.0312 16.405V18.5733C50.0312 19.1355 50.4872 19.5912 51.0497 19.5912H53.0256C53.588 19.5912 54.044 19.1355 54.044 18.5733V16.405C54.044 15.8428 53.588 15.3871 53.0256 15.3871Z" fill="#FF5C00"/>
<path id="Vector_26" d="M18.0256 45.338H16.0497C15.4872 45.338 15.0312 45.7937 15.0312 46.3559V48.5242C15.0312 49.0864 15.4872 49.5422 16.0497 49.5422H18.0256C18.588 49.5422 19.044 49.0864 19.044 48.5242V46.3559C19.044 45.7937 18.588 45.338 18.0256 45.338Z" fill="#FF5C00"/>
<path id="Vector_27" d="M43.0256 45.338H41.0497C40.4872 45.338 40.0312 45.7937 40.0312 46.3559V48.5242C40.0312 49.0864 40.4872 49.5422 41.0497 49.5422H43.0256C43.588 49.5422 44.044 49.0864 44.044 48.5242V46.3559C44.044 45.7937 43.588 45.338 43.0256 45.338Z" fill="#FF5C00"/>
<path id="Vector_28" d="M8.02556 45.3871H6.04972C5.48723 45.3871 5.03125 45.8428 5.03125 46.405V48.5733C5.03125 49.1355 5.48723 49.5912 6.04972 49.5912H8.02556C8.58804 49.5912 9.04403 49.1355 9.04403 48.5733V46.405C9.04403 45.8428 8.58804 45.3871 8.02556 45.3871Z" fill="#FF5C00"/>
<path id="Vector_29" d="M28.0256 45.338H26.0497C25.4872 45.338 25.0312 45.7937 25.0312 46.3559V48.5242C25.0312 49.0864 25.4872 49.5422 26.0497 49.5422H28.0256C28.588 49.5422 29.044 49.0864 29.044 48.5242V46.3559C29.044 45.7937 28.588 45.338 28.0256 45.338Z" fill="#FF5C00"/>
<path id="Vector_30" d="M53.0256 45.338H51.0497C50.4872 45.338 50.0312 45.7937 50.0312 46.3559V48.5242C50.0312 49.0864 50.4872 49.5422 51.0497 49.5422H53.0256C53.588 49.5422 54.044 49.0864 54.044 48.5242V46.3559C54.044 45.7937 53.588 45.338 53.0256 45.338Z" fill="#FF5C00"/>
<path id="Vector_31" d="M8.02556 40.4362H6.04972C5.48723 40.4362 5.03125 40.892 5.03125 41.4542V43.6225C5.03125 44.1847 5.48723 44.6404 6.04972 44.6404H8.02556C8.58804 44.6404 9.04403 44.1847 9.04403 43.6225V41.4542C9.04403 40.892 8.58804 40.4362 8.02556 40.4362Z" fill="#FF5C00"/>
<path id="Vector_32" d="M53.0256 15.4362H51.0497C50.4872 15.4362 50.0312 15.892 50.0312 16.4542V18.6225C50.0312 19.1847 50.4872 19.6404 51.0497 19.6404H53.0256C53.588 19.6404 54.044 19.1847 54.044 18.6225V16.4542C54.044 15.892 53.588 15.4362 53.0256 15.4362Z" fill="#FF5C00"/>
<path id="Vector_33" d="M53.0256 20.4362H51.0497C50.4872 20.4362 50.0312 20.892 50.0312 21.4542V23.6225C50.0312 24.1847 50.4872 24.6404 51.0497 24.6404H53.0256C53.588 24.6404 54.044 24.1847 54.044 23.6225V21.4542C54.044 20.892 53.588 20.4362 53.0256 20.4362Z" fill="#FF5C00"/>
</g>
</svg>
