<svg width="61" height="50" viewBox="0 0 61 50" fill="none" xmlns="http://www.w3.org/2000/svg">
<rect y="5" width="40" height="40" rx="20" fill="url(#paint0_linear_441_16282)"/>
<path d="M8 22.7631C8.60917 17.914 10.8109 13.1897 14.1236 9.35042C17.4393 5.51407 21.9066 2.55991 26.8902 1.10023C29.3733 0.363145 31.9753 -0.0141064 34.5774 0.000403249C37.1794 0.00330518 39.7727 0.418281 42.2558 1.16118C47.2221 2.67598 51.669 5.66207 54.9586 9.52454L52.9251 11.4688C49.5369 8.36086 45.4932 6.09446 41.1709 4.93659C36.8487 3.79032 32.2683 3.76131 27.9374 4.87275C23.5977 5.96967 19.5279 8.20706 16.1107 11.286C12.6732 14.3563 9.94645 18.2942 8.0029 22.7602L8 22.7631Z" fill="#17284F"/>
<path d="M43.2344 13.5399L60.999 23.2555L60.5291 3.00586L43.2344 13.5399Z" fill="#17284F"/>
<path d="M16.2838 38.6594C19.7329 41.6919 23.8115 43.9119 28.1627 44.9624C28.6994 45.1162 29.2534 45.2003 29.7988 45.3164C30.0743 45.3657 30.3499 45.4006 30.6255 45.4412C30.9011 45.4818 31.1767 45.5311 31.4522 45.5544L32.2819 45.6414C32.5604 45.6704 32.8388 45.6733 33.1144 45.6907C33.6714 45.7343 34.2283 45.7169 34.7853 45.7198C37.0131 45.6704 39.2294 45.3512 41.3876 44.7737C43.5516 44.1963 45.6199 43.2821 47.5924 42.1823L48.3263 41.7557C48.4482 41.6832 48.5758 41.6164 48.6947 41.541L49.0457 41.303C49.5128 40.9809 49.9914 40.6733 50.4555 40.3425C50.8965 39.9856 51.349 39.6344 51.8015 39.2804C52.0336 39.1121 52.2367 38.9089 52.4484 38.7174L53.0837 38.1341C53.2926 37.9368 53.5217 37.7569 53.719 37.5479L54.3136 36.9211C54.7082 36.5003 55.1259 36.0912 55.4798 35.6327C55.8453 35.1829 56.234 34.7418 56.585 34.2775L57.609 32.8468C58.9143 30.888 60.0312 28.7725 61 26.5293C60.71 28.9495 60.0544 31.3523 59.0768 33.6477L58.2675 35.3396C58.2036 35.4847 58.1253 35.621 58.0441 35.7516L57.8062 36.155L57.3247 36.9675C57.1594 37.2345 57.0143 37.5189 56.8229 37.7685L56.2717 38.5375L55.7176 39.3065C55.5349 39.5648 55.3173 39.794 55.1143 40.0407L54.4906 40.7604C54.2817 40.9983 54.0816 41.2479 53.8466 41.4655C53.3941 41.9124 52.9416 42.3622 52.4803 42.8033C51.5056 43.6246 50.5339 44.469 49.449 45.1568L48.6512 45.6995L47.8129 46.1783L46.9717 46.6542C46.8295 46.7296 46.6932 46.8167 46.5452 46.8834L46.1043 47.0837C45.5154 47.3477 44.9324 47.6292 44.3348 47.8788C43.7285 48.1023 43.1165 48.3141 42.5044 48.5259C42.2027 48.642 41.8836 48.7088 41.5703 48.7929L40.6275 49.0338C40.3114 49.1063 40.001 49.2108 39.679 49.2572L38.7159 49.4139L37.7528 49.5648L37.5121 49.6025L37.2684 49.62L36.7811 49.6548C36.1342 49.6954 35.4844 49.7622 34.8346 49.7738C32.2384 49.7854 29.6276 49.4778 27.1387 48.7436C22.1377 47.3419 17.6501 44.4168 14.2852 40.624L16.2751 38.6507L16.2838 38.6594Z" fill="#17284F"/>
<path d="M8.83544 47.2576L8 27.0195L25.9387 36.4131L8.83544 47.2576Z" fill="#17284F"/>
<path d="M8.72266 22.5743C9.05794 20.2096 9.76205 17.8673 10.8042 15.6591C11.3183 14.5495 11.933 13.4873 12.6092 12.4587C13.2826 11.4273 14.0426 10.4462 14.8668 9.52103C18.1554 5.8035 22.5924 3.01676 27.4848 1.69187C32.3688 0.341818 37.6804 0.517911 42.4694 2.16145C47.2752 3.77144 51.5054 6.85168 54.5705 10.7369L52.7795 12.3217C49.5468 9.14089 45.6462 6.72869 41.4021 5.48765C37.1746 4.22425 32.6455 4.06493 28.3538 5.10193C24.0621 6.12215 20.0107 8.26322 16.6438 11.2931C13.2658 14.3035 10.5723 18.1748 8.72266 22.5743Z" fill="#F6F1D7"/>
<path d="M44.0859 14.001L59.7718 23.0488L59.7634 4.93359L44.0859 14.001Z" fill="#F6F1D7"/>
<path d="M15.9025 37.2822C16.7436 38.0453 17.5734 38.8111 18.4898 39.468C18.9285 39.8174 19.4007 40.1248 19.8617 40.4463C20.0881 40.6112 20.3367 40.7426 20.5714 40.8935C20.8117 41.036 21.0436 41.1926 21.2895 41.3267C21.7785 41.5951 22.2562 41.883 22.762 42.115C23.0134 42.2352 23.2593 42.3665 23.5108 42.4783L24.2736 42.8082C24.525 42.9256 24.7849 43.0234 25.0447 43.1212L25.8215 43.4147L26.6122 43.6663L27.0062 43.792L27.4057 43.9011L28.2048 44.1191C28.473 44.1834 28.7441 44.2365 29.0123 44.2952C29.5488 44.4237 30.0964 44.4908 30.6384 44.5803C30.9095 44.6306 31.1833 44.6446 31.4571 44.6809C31.7309 44.7061 32.002 44.7536 32.2786 44.7647C32.829 44.7899 33.3766 44.843 33.9271 44.829C36.1232 44.8151 38.3249 44.6026 40.4596 44.0352C44.715 42.906 48.7496 40.7314 52.0382 37.6204L52.6669 37.0474C52.868 36.8489 53.0552 36.6365 53.2536 36.4325L53.8376 35.8091L54.1338 35.4989L54.4048 35.1691L55.4917 33.8358L56.4892 32.4242C56.5702 32.3041 56.6596 32.1895 56.7378 32.0665L56.9613 31.6947L57.4112 30.9484C57.5593 30.6969 57.7213 30.4537 57.8666 30.1993L58.269 29.4195L58.6741 28.6368C58.7412 28.5055 58.8138 28.3741 58.8753 28.2427L59.0541 27.8374C59.2916 27.298 59.5263 26.7501 59.7778 26.2051C59.6912 26.7949 59.5822 27.3818 59.4816 27.9772L59.4034 28.4244C59.3726 28.5726 59.3251 28.7151 59.2888 28.8605L59.0485 29.7325L58.8054 30.6102C58.7104 30.8981 58.6043 31.1804 58.4953 31.4655L58.1712 32.318L58.0091 32.7457C57.9532 32.8882 57.8806 33.0224 57.8163 33.1594L57.0144 34.8113L56.07 36.3933L55.8298 36.7902L55.5615 37.1648L55.0167 37.9139C54.8323 38.1626 54.6562 38.417 54.4662 38.6602L53.8599 39.3646C50.6579 43.1659 46.2489 45.989 41.3984 47.4341C38.9704 48.172 36.4194 48.4459 33.8879 48.4599C33.2537 48.4683 32.6194 48.404 31.988 48.3677C31.6723 48.3509 31.3565 48.2978 31.0436 48.2642C30.7307 48.2223 30.4121 48.1972 30.102 48.1385C29.4789 48.0183 28.853 47.9205 28.2411 47.7555C27.9338 47.6773 27.6264 47.6074 27.3191 47.5235L26.411 47.2496C23.9942 46.4949 21.7254 45.3405 19.6466 43.943C17.579 42.5258 15.7349 40.8124 14.1562 38.9034L15.9081 37.2906L15.9025 37.2822Z" fill="#F6F1D7"/>
<path d="M9.06912 44.7874L8.72266 26.6777L24.5762 35.4293L9.06912 44.7874Z" fill="#F6F1D7"/>
<defs>
<linearGradient id="paint0_linear_441_16282" x1="20" y1="5" x2="20" y2="45" gradientUnits="userSpaceOnUse">
<stop stop-color="#FF5C00"/>
<stop offset="1" stop-color="#FF5C00" stop-opacity="0"/>
</linearGradient>
</defs>
</svg>
