<svg width="60" height="61" viewBox="0 0 60 61" fill="none" xmlns="http://www.w3.org/2000/svg">
<g id="icon merchant" clip-path="url(#clip0_4989_5291)">
<path id="Vector" d="M12.9943 55.2466H11.0185C10.456 55.2466 10 55.7023 10 56.2645V58.4328C10 58.995 10.456 59.4507 11.0185 59.4507H12.9943C13.5568 59.4507 14.0128 58.995 14.0128 58.4328V56.2645C14.0128 55.7023 13.5568 55.2466 12.9943 55.2466Z" fill="#FF5C00"/>
<path id="Vector_2" d="M7.99431 20.2956H6.01847C5.45598 20.2956 5 20.7514 5 21.3136V23.4819C5 24.0441 5.45598 24.4998 6.01847 24.4998H7.99431C8.55679 24.4998 9.01278 24.0441 9.01278 23.4819V21.3136C9.01278 20.7514 8.55679 20.2956 7.99431 20.2956Z" fill="#FF5C00"/>
<path id="Vector_3" d="M37.9943 55.2466H36.0185C35.456 55.2466 35 55.7023 35 56.2645V58.4328C35 58.995 35.456 59.4507 36.0185 59.4507H37.9943C38.5568 59.4507 39.0128 58.995 39.0128 58.4328V56.2645C39.0128 55.7023 38.5568 55.2466 37.9943 55.2466Z" fill="#FF5C00"/>
<path id="Vector_4" d="M2.99431 10.3447H1.01847C0.455985 10.3447 0 10.8005 0 11.3627V13.5309C0 14.0931 0.455985 14.5489 1.01847 14.5489H2.99431C3.55679 14.5489 4.01278 14.0931 4.01278 13.5309V11.3627C4.01278 10.8005 3.55679 10.3447 2.99431 10.3447Z" fill="#FF5C00"/>
<path id="Vector_5" d="M2.99431 55.2956H1.01847C0.455985 55.2956 0 55.7514 0 56.3136V58.4819C0 59.0441 0.455985 59.4998 1.01847 59.4998H2.99431C3.55679 59.4998 4.01278 59.0441 4.01278 58.4819V56.3136C4.01278 55.7514 3.55679 55.2956 2.99431 55.2956Z" fill="#FF5C00"/>
<path id="Vector_6" d="M37.9943 35.2466H36.0185C35.456 35.2466 35 35.7023 35 36.2645V38.4328C35 38.995 35.456 39.4507 36.0185 39.4507H37.9943C38.5568 39.4507 39.0128 38.995 39.0128 38.4328V36.2645C39.0128 35.7023 38.5568 35.2466 37.9943 35.2466Z" fill="#FF5C00"/>
<path id="Vector_7" d="M32.9943 55.2466H31.0185C30.456 55.2466 30 55.7023 30 56.2645V58.4328C30 58.995 30.456 59.4507 31.0185 59.4507H32.9943C33.5568 59.4507 34.0128 58.995 34.0128 58.4328V56.2645C34.0128 55.7023 33.5568 55.2466 32.9943 55.2466Z" fill="#FF5C00"/>
<path id="Vector_8" d="M57.9943 55.2466H56.0185C55.456 55.2466 55 55.7023 55 56.2645V58.4328C55 58.995 55.456 59.4507 56.0185 59.4507H57.9943C58.5568 59.4507 59.0128 58.995 59.0128 58.4328V56.2645C59.0128 55.7023 58.5568 55.2466 57.9943 55.2466Z" fill="#FF5C00"/>
<path id="Vector_9" d="M22.9943 55.2466H21.0185C20.456 55.2466 20 55.7023 20 56.2645V58.4328C20 58.995 20.456 59.4507 21.0185 59.4507H22.9943C23.5568 59.4507 24.0128 58.995 24.0128 58.4328V56.2645C24.0128 55.7023 23.5568 55.2466 22.9943 55.2466Z" fill="#FF5C00"/>
<path id="Vector_10" d="M47.9943 55.2466H46.0185C45.456 55.2466 45 55.7023 45 56.2645V58.4328C45 58.995 45.456 59.4507 46.0185 59.4507H47.9943C48.5568 59.4507 49.0128 58.995 49.0128 58.4328V56.2645C49.0128 55.7023 48.5568 55.2466 47.9943 55.2466Z" fill="#FF5C00"/>
<path id="Vector_11" d="M12.9943 20.2956H11.0185C10.456 20.2956 10 20.7514 10 21.3136V23.4819C10 24.0441 10.456 24.4998 11.0185 24.4998H12.9943C13.5568 24.4998 14.0128 24.0441 14.0128 23.4819V21.3136C14.0128 20.7514 13.5568 20.2956 12.9943 20.2956Z" fill="#FF5C00"/>
<path id="Vector_12" d="M7.99431 30.2956H6.01847C5.45598 30.2956 5 30.7514 5 31.3136V33.4819C5 34.0441 5.45598 34.4998 6.01847 34.4998H7.99431C8.55679 34.4998 9.01278 34.0441 9.01278 33.4819V31.3136C9.01278 30.7514 8.55679 30.2956 7.99431 30.2956Z" fill="#FF5C00"/>
<path id="Vector_13" d="M37.9943 20.2956H36.0185C35.456 20.2956 35 20.7514 35 21.3136V23.4819C35 24.0441 35.456 24.4998 36.0185 24.4998H37.9943C38.5568 24.4998 39.0128 24.0441 39.0128 23.4819V21.3136C39.0128 20.7514 38.5568 20.2956 37.9943 20.2956Z" fill="#FF5C00"/>
<path id="Vector_14" d="M12.9943 0.295624H11.0185C10.456 0.295624 10 0.751382 10 1.31359V3.48185C10 4.04406 10.456 4.49982 11.0185 4.49982H12.9943C13.5568 4.49982 14.0128 4.04406 14.0128 3.48185V1.31359C14.0128 0.751382 13.5568 0.295624 12.9943 0.295624Z" fill="#FF5C00"/>
<path id="Vector_15" d="M7.99431 55.2466H6.01847C5.45598 55.2466 5 55.7023 5 56.2645V58.4328C5 58.995 5.45598 59.4507 6.01847 59.4507H7.99431C8.55679 59.4507 9.01278 58.995 9.01278 58.4328V56.2645C9.01278 55.7023 8.55679 55.2466 7.99431 55.2466Z" fill="#FF5C00"/>
<path id="Vector_16" d="M37.9943 0.295624H36.0185C35.456 0.295624 35 0.751382 35 1.31359V3.48185C35 4.04406 35.456 4.49982 36.0185 4.49982H37.9943C38.5568 4.49982 39.0128 4.04406 39.0128 3.48185V1.31359C39.0128 0.751382 38.5568 0.295624 37.9943 0.295624Z" fill="#FF5C00"/>
<path id="Vector_17" d="M32.9943 20.2956H31.0185C30.456 20.2956 30 20.7514 30 21.3136V23.4819C30 24.0441 30.456 24.4998 31.0185 24.4998H32.9943C33.5568 24.4998 34.0128 24.0441 34.0128 23.4819V21.3136C34.0128 20.7514 33.5568 20.2956 32.9943 20.2956Z" fill="#FF5C00"/>
<path id="Vector_18" d="M32.9943 0.295624H31.0185C30.456 0.295624 30 0.751382 30 1.31359V3.48185C30 4.04406 30.456 4.49982 31.0185 4.49982H32.9943C33.5568 4.49982 34.0128 4.04406 34.0128 3.48185V1.31359C34.0128 0.751382 33.5568 0.295624 32.9943 0.295624Z" fill="#FF5C00"/>
<path id="Vector_19" d="M22.9943 20.2956H21.0185C20.456 20.2956 20 20.7514 20 21.3136V23.4819C20 24.0441 20.456 24.4998 21.0185 24.4998H22.9943C23.5568 24.4998 24.0128 24.0441 24.0128 23.4819V21.3136C24.0128 20.7514 23.5568 20.2956 22.9943 20.2956Z" fill="#FF5C00"/>
<path id="Vector_20" d="M47.9943 20.2956H46.0185C45.456 20.2956 45 20.7514 45 21.3136V23.4819C45 24.0441 45.456 24.4998 46.0185 24.4998H47.9943C48.5568 24.4998 49.0128 24.0441 49.0128 23.4819V21.3136C49.0128 20.7514 48.5568 20.2956 47.9943 20.2956Z" fill="#FF5C00"/>
<path id="Vector_21" d="M22.9943 0.295624H21.0185C20.456 0.295624 20 0.751382 20 1.31359V3.48185C20 4.04406 20.456 4.49982 21.0185 4.49982H22.9943C23.5568 4.49982 24.0128 4.04406 24.0128 3.48185V1.31359C24.0128 0.751382 23.5568 0.295624 22.9943 0.295624Z" fill="#FF5C00"/>
<path id="Vector_22" d="M7.99431 25.3447H6.01847C5.45598 25.3447 5 25.8005 5 26.3627V28.5309C5 29.0931 5.45598 29.5489 6.01847 29.5489H7.99431C8.55679 29.5489 9.01278 29.0931 9.01278 28.5309V26.3627C9.01278 25.8005 8.55679 25.3447 7.99431 25.3447Z" fill="#FF5C00"/>
<path id="Vector_23" d="M2.99431 15.3938H1.01847C0.455985 15.3938 0 15.8495 0 16.4117V18.58C0 19.1422 0.455985 19.598 1.01847 19.598H2.99431C3.55679 19.598 4.01278 19.1422 4.01278 18.58V16.4117C4.01278 15.8495 3.55679 15.3938 2.99431 15.3938Z" fill="#FF5C00"/>
<path id="Vector_24" d="M2.99431 20.2956H1.01847C0.455985 20.2956 0 20.7514 0 21.3136V23.4819C0 24.0441 0.455985 24.4998 1.01847 24.4998H2.99431C3.55679 24.4998 4.01278 24.0441 4.01278 23.4819V21.3136C4.01278 20.7514 3.55679 20.2956 2.99431 20.2956Z" fill="#FF5C00"/>
<path id="Vector_25" d="M7.99431 5.3447H6.01847C5.45598 5.3447 5 5.80045 5 6.36266V8.53092C5 9.09313 5.45598 9.54889 6.01847 9.54889H7.99431C8.55679 9.54889 9.01278 9.09313 9.01278 8.53092V6.36266C9.01278 5.80045 8.55679 5.3447 7.99431 5.3447Z" fill="#FF5C00"/>
<path id="Vector_26" d="M7.99431 50.2956H6.01847C5.45598 50.2956 5 50.7514 5 51.3136V53.4819C5 54.0441 5.45598 54.4998 6.01847 54.4998H7.99431C8.55679 54.4998 9.01278 54.0441 9.01278 53.4819V51.3136C9.01278 50.7514 8.55679 50.2956 7.99431 50.2956Z" fill="#FF5C00"/>
<path id="Vector_27" d="M37.9943 30.2956H36.0185C35.456 30.2956 35 30.7514 35 31.3136V33.4819C35 34.0441 35.456 34.4998 36.0185 34.4998H37.9943C38.5568 34.4998 39.0128 34.0441 39.0128 33.4819V31.3136C39.0128 30.7514 38.5568 30.2956 37.9943 30.2956Z" fill="#FF5C00"/>
<path id="Vector_28" d="M22.9631 30.2956H20.9872C20.4247 30.2956 19.9688 30.7514 19.9688 31.3136V33.4819C19.9688 34.0441 20.4247 34.4998 20.9872 34.4998H22.9631C23.5255 34.4998 23.9815 34.0441 23.9815 33.4819V31.3136C23.9815 30.7514 23.5255 30.2956 22.9631 30.2956Z" fill="#FF5C00"/>
<path id="Vector_29" d="M52.9943 5.29562H51.0185C50.456 5.29562 50 5.75138 50 6.31359V8.48185C50 9.04406 50.456 9.49982 51.0185 9.49982H52.9943C53.5568 9.49982 54.0128 9.04406 54.0128 8.48185V6.31359C54.0128 5.75138 53.5568 5.29562 52.9943 5.29562Z" fill="#FF5C00"/>
<path id="Vector_30" d="M18.0256 55.338H16.0497C15.4872 55.338 15.0312 55.7937 15.0312 56.3559V58.5242C15.0312 59.0864 15.4872 59.5422 16.0497 59.5422H18.0256C18.588 59.5422 19.044 59.0864 19.044 58.5242V56.3559C19.044 55.7937 18.588 55.338 18.0256 55.338Z" fill="#FF5C00"/>
<path id="Vector_31" d="M43.0256 55.338H41.0497C40.4872 55.338 40.0312 55.7937 40.0312 56.3559V58.5242C40.0312 59.0864 40.4872 59.5422 41.0497 59.5422H43.0256C43.588 59.5422 44.044 59.0864 44.044 58.5242V56.3559C44.044 55.7937 43.588 55.338 43.0256 55.338Z" fill="#FF5C00"/>
<path id="Vector_32" d="M17.9943 35.338H16.0185C15.456 35.338 15 35.7937 15 36.3559V38.5242C15 39.0864 15.456 39.5422 16.0185 39.5422H17.9943C18.5568 39.5422 19.0128 39.0864 19.0128 38.5242V36.3559C19.0128 35.7937 18.5568 35.338 17.9943 35.338Z" fill="#FF5C00"/>
<path id="Vector_33" d="M43.0256 35.338H41.0497C40.4872 35.338 40.0312 35.7937 40.0312 36.3559V38.5242C40.0312 39.0864 40.4872 39.5422 41.0497 39.5422H43.0256C43.588 39.5422 44.044 39.0864 44.044 38.5242V36.3559C44.044 35.7937 43.588 35.338 43.0256 35.338Z" fill="#FF5C00"/>
<path id="Vector_34" d="M28.0256 55.338H26.0497C25.4872 55.338 25.0312 55.7937 25.0312 56.3559V58.5242C25.0312 59.0864 25.4872 59.5422 26.0497 59.5422H28.0256C28.588 59.5422 29.044 59.0864 29.044 58.5242V56.3559C29.044 55.7937 28.588 55.338 28.0256 55.338Z" fill="#FF5C00"/>
<path id="Vector_35" d="M58.0256 10.338H56.0497C55.4872 10.338 55.0312 10.7937 55.0312 11.3559V13.5242C55.0312 14.0864 55.4872 14.5422 56.0497 14.5422H58.0256C58.588 14.5422 59.044 14.0864 59.044 13.5242V11.3559C59.044 10.7937 58.588 10.338 58.0256 10.338Z" fill="#FF5C00"/>
<path id="Vector_36" d="M53.0256 55.338H51.0497C50.4872 55.338 50.0312 55.7937 50.0312 56.3559V58.5242C50.0312 59.0864 50.4872 59.5422 51.0497 59.5422H53.0256C53.588 59.5422 54.044 59.0864 54.044 58.5242V56.3559C54.044 55.7937 53.588 55.338 53.0256 55.338Z" fill="#FF5C00"/>
<path id="Vector_37" d="M27.9943 35.338H26.0185C25.456 35.338 25 35.7937 25 36.3559V38.5242C25 39.0864 25.456 39.5422 26.0185 39.5422H27.9943C28.5568 39.5422 29.0128 39.0864 29.0128 38.5242V36.3559C29.0128 35.7937 28.5568 35.338 27.9943 35.338Z" fill="#FF5C00"/>
<path id="Vector_38" d="M53.0256 30.3871H51.0497C50.4872 30.3871 50.0312 30.8428 50.0312 31.405V33.5733C50.0312 34.1355 50.4872 34.5912 51.0497 34.5912H53.0256C53.588 34.5912 54.044 34.1355 54.044 33.5733V31.405C54.044 30.8428 53.588 30.3871 53.0256 30.3871Z" fill="#FF5C00"/>
<path id="Vector_39" d="M18.0256 20.3871H16.0497C15.4872 20.3871 15.0312 20.8428 15.0312 21.405V23.5733C15.0312 24.1355 15.4872 24.5912 16.0497 24.5912H18.0256C18.588 24.5912 19.044 24.1355 19.044 23.5733V21.405C19.044 20.8428 18.588 20.3871 18.0256 20.3871Z" fill="#FF5C00"/>
<path id="Vector_40" d="M43.0256 20.3871H41.0497C40.4872 20.3871 40.0312 20.8428 40.0312 21.405V23.5733C40.0312 24.1355 40.4872 24.5912 41.0497 24.5912H43.0256C43.588 24.5912 44.044 24.1355 44.044 23.5733V21.405C44.044 20.8428 43.588 20.3871 43.0256 20.3871Z" fill="#FF5C00"/>
<path id="Vector_41" d="M18.0256 0.387054H16.0497C15.4872 0.387054 15.0312 0.842812 15.0312 1.40502V3.57328C15.0312 4.13549 15.4872 4.59125 16.0497 4.59125H18.0256C18.588 4.59125 19.044 4.13549 19.044 3.57328V1.40502C19.044 0.842812 18.588 0.387054 18.0256 0.387054Z" fill="#FF5C00"/>
<path id="Vector_42" d="M18.0256 50.3871H16.0497C15.4872 50.3871 15.0312 50.8428 15.0312 51.405V53.5733C15.0312 54.1355 15.4872 54.5912 16.0497 54.5912H18.0256C18.588 54.5912 19.044 54.1355 19.044 53.5733V51.405C19.044 50.8428 18.588 50.3871 18.0256 50.3871Z" fill="#FF5C00"/>
<path id="Vector_43" d="M43.0256 0.387054H41.0497C40.4872 0.387054 40.0312 0.842812 40.0312 1.40502V3.57328C40.0312 4.13549 40.4872 4.59125 41.0497 4.59125H43.0256C43.588 4.59125 44.044 4.13549 44.044 3.57328V1.40502C44.044 0.842812 43.588 0.387054 43.0256 0.387054Z" fill="#FF5C00"/>
<path id="Vector_44" d="M47.9943 0.295624H46.0185C45.456 0.295624 45 0.751382 45 1.31359V3.48185C45 4.04406 45.456 4.49982 46.0185 4.49982H47.9943C48.5568 4.49982 49.0128 4.04406 49.0128 3.48185V1.31359C49.0128 0.751382 48.5568 0.295624 47.9943 0.295624Z" fill="#FF5C00"/>
<path id="Vector_45" d="M8.02556 45.3871H6.04972C5.48723 45.3871 5.03125 45.8428 5.03125 46.405V48.5733C5.03125 49.1355 5.48723 49.5912 6.04972 49.5912H8.02556C8.58804 49.5912 9.04403 49.1355 9.04403 48.5733V46.405C9.04403 45.8428 8.58804 45.3871 8.02556 45.3871Z" fill="#FF5C00"/>
<path id="Vector_46" d="M8.02556 35.3447H6.04972C5.48723 35.3447 5.03125 35.8005 5.03125 36.3627V38.5309C5.03125 39.0931 5.48723 39.5489 6.04972 39.5489H8.02556C8.58804 39.5489 9.04403 39.0931 9.04403 38.5309V36.3627C9.04403 35.8005 8.58804 35.3447 8.02556 35.3447Z" fill="#FF5C00"/>
<path id="Vector_47" d="M28.0256 20.3871H26.0497C25.4872 20.3871 25.0312 20.8428 25.0312 21.405V23.5733C25.0312 24.1355 25.4872 24.5912 26.0497 24.5912H28.0256C28.588 24.5912 29.044 24.1355 29.044 23.5733V21.405C29.044 20.8428 28.588 20.3871 28.0256 20.3871Z" fill="#FF5C00"/>
<path id="Vector_48" d="M53.0256 20.3871H51.0497C50.4872 20.3871 50.0312 20.8428 50.0312 21.405V23.5733C50.0312 24.1355 50.4872 24.5912 51.0497 24.5912H53.0256C53.588 24.5912 54.044 24.1355 54.044 23.5733V21.405C54.044 20.8428 53.588 20.3871 53.0256 20.3871Z" fill="#FF5C00"/>
<path id="Vector_49" d="M28.0256 0.387054H26.0497C25.4872 0.387054 25.0312 0.842812 25.0312 1.40502V3.57328C25.0312 4.13549 25.4872 4.59125 26.0497 4.59125H28.0256C28.588 4.59125 29.044 4.13549 29.044 3.57328V1.40502C29.044 0.842812 28.588 0.387054 28.0256 0.387054Z" fill="#FF5C00"/>
<path id="Vector_50" d="M28.0256 50.3871H26.0497C25.4872 50.3871 25.0312 50.8428 25.0312 51.405V53.5733C25.0312 54.1355 25.4872 54.5912 26.0497 54.5912H28.0256C28.588 54.5912 29.044 54.1355 29.044 53.5733V51.405C29.044 50.8428 28.588 50.3871 28.0256 50.3871Z" fill="#FF5C00"/>
<path id="Vector_51" d="M53.0256 45.338H51.0497C50.4872 45.338 50.0312 45.7937 50.0312 46.3559V48.5242C50.0312 49.0864 50.4872 49.5422 51.0497 49.5422H53.0256C53.588 49.5422 54.044 49.0864 54.044 48.5242V46.3559C54.044 45.7937 53.588 45.338 53.0256 45.338Z" fill="#FF5C00"/>
<path id="Vector_52" d="M17.9943 40.3872H16.0185C15.456 40.3872 15 40.8429 15 41.4051V43.5734C15 44.1356 15.456 44.5914 16.0185 44.5914H17.9943C18.5568 44.5914 19.0128 44.1356 19.0128 43.5734V41.4051C19.0128 40.8429 18.5568 40.3872 17.9943 40.3872Z" fill="#FF5C00"/>
<path id="Vector_53" d="M17.9943 45.3381H16.0185C15.456 45.3381 15 45.7939 15 46.3561V48.5243C15 49.0865 15.456 49.5423 16.0185 49.5423H17.9943C18.5568 49.5423 19.0128 49.0865 19.0128 48.5243V46.3561C19.0128 45.7939 18.5568 45.3381 17.9943 45.3381Z" fill="#FF5C00"/>
<path id="Vector_54" d="M8.02556 40.4362H6.04972C5.48723 40.4362 5.03125 40.892 5.03125 41.4542V43.6225C5.03125 44.1847 5.48723 44.6404 6.04972 44.6404H8.02556C8.58804 44.6404 9.04403 44.1847 9.04403 43.6225V41.4542C9.04403 40.892 8.58804 40.4362 8.02556 40.4362Z" fill="#FF5C00"/>
<path id="Vector_55" d="M58.0256 15.3872H56.0497C55.4872 15.3872 55.0312 15.8429 55.0312 16.4051V18.5734C55.0312 19.1356 55.4872 19.5914 56.0497 19.5914H58.0256C58.588 19.5914 59.044 19.1356 59.044 18.5734V16.4051C59.044 15.8429 58.588 15.3872 58.0256 15.3872Z" fill="#FF5C00"/>
<path id="Vector_56" d="M57.9943 20.2956H56.0185C55.456 20.2956 55 20.7514 55 21.3136V23.4819C55 24.0441 55.456 24.4998 56.0185 24.4998H57.9943C58.5568 24.4998 59.0128 24.0441 59.0128 23.4819V21.3136C59.0128 20.7514 58.5568 20.2956 57.9943 20.2956Z" fill="#FF5C00"/>
<path id="Vector_57" d="M27.9943 40.3872H26.0185C25.456 40.3872 25 40.8429 25 41.4051V43.5734C25 44.1356 25.456 44.5914 26.0185 44.5914H27.9943C28.5568 44.5914 29.0128 44.1356 29.0128 43.5734V41.4051C29.0128 40.8429 28.5568 40.3872 27.9943 40.3872Z" fill="#FF5C00"/>
<path id="Vector_58" d="M53.0256 35.4362H51.0497C50.4872 35.4362 50.0312 35.892 50.0312 36.4542V38.6225C50.0312 39.1847 50.4872 39.6404 51.0497 39.6404H53.0256C53.588 39.6404 54.044 39.1847 54.044 38.6225V36.4542C54.044 35.892 53.588 35.4362 53.0256 35.4362Z" fill="#FF5C00"/>
<path id="Vector_59" d="M27.9943 45.3381H26.0185C25.456 45.3381 25 45.7939 25 46.3561V48.5243C25 49.0865 25.456 49.5423 26.0185 49.5423H27.9943C28.5568 49.5423 29.0128 49.0865 29.0128 48.5243V46.3561C29.0128 45.7939 28.5568 45.3381 27.9943 45.3381Z" fill="#FF5C00"/>
<path id="Vector_60" d="M53.0256 40.3872H51.0497C50.4872 40.3872 50.0312 40.8429 50.0312 41.4051V43.5734C50.0312 44.1356 50.4872 44.5914 51.0497 44.5914H53.0256C53.588 44.5914 54.044 44.1356 54.044 43.5734V41.4051C54.044 40.8429 53.588 40.3872 53.0256 40.3872Z" fill="#FF5C00"/>
<path id="Vector_61" d="M17.9943 30.3872H16.0185C15.456 30.3872 15 30.8429 15 31.4051V33.5734C15 34.1356 15.456 34.5914 16.0185 34.5914H17.9943C18.5568 34.5914 19.0128 34.1356 19.0128 33.5734V31.4051C19.0128 30.8429 18.5568 30.3872 17.9943 30.3872Z" fill="#FF5C00"/>
<path id="Vector_62" d="M43.0256 30.3872H41.0497C40.4872 30.3872 40.0312 30.8429 40.0312 31.4051V33.5734C40.0312 34.1356 40.4872 34.5914 41.0497 34.5914H43.0256C43.588 34.5914 44.044 34.1356 44.044 33.5734V31.4051C44.044 30.8429 43.588 30.3872 43.0256 30.3872Z" fill="#FF5C00"/>
<path id="Vector_63" d="M27.9943 30.3872H26.0185C25.456 30.3872 25 30.8429 25 31.4051V33.5734C25 34.1356 25.456 34.5914 26.0185 34.5914H27.9943C28.5568 34.5914 29.0128 34.1356 29.0128 33.5734V31.4051C29.0128 30.8429 28.5568 30.3872 27.9943 30.3872Z" fill="#FF5C00"/>
<path id="Vector_64" d="M53.0256 25.4362H51.0497C50.4872 25.4362 50.0312 25.892 50.0312 26.4542V28.6225C50.0312 29.1847 50.4872 29.6404 51.0497 29.6404H53.0256C53.588 29.6404 54.044 29.1847 54.044 28.6225V26.4542C54.044 25.892 53.588 25.4362 53.0256 25.4362Z" fill="#FF5C00"/>
<path id="Vector_65" d="M53.0256 50.3872H51.0497C50.4872 50.3872 50.0312 50.8429 50.0312 51.4051V53.5734C50.0312 54.1356 50.4872 54.5914 51.0497 54.5914H53.0256C53.588 54.5914 54.044 54.1356 54.044 53.5734V51.4051C54.044 50.8429 53.588 50.3872 53.0256 50.3872Z" fill="#FF5C00"/>
</g>
<defs>
<clipPath id="clip0_4989_5291">
<rect width="60" height="60" fill="white" transform="translate(0 0.295624)"/>
</clipPath>
</defs>
</svg>
