<svg width="60" height="60" viewBox="0 0 60 60" fill="none" xmlns="http://www.w3.org/2000/svg">
<rect width="60" height="60" fill="none"/>
<g id="pixel icons">
<g id="icon mining" clip-path="url(#clip0_4057_5359)">
<g id="Group 40123">
<path id="Vector" d="M3.007 30.2956H1.03117C0.46868 30.2956 0.0126953 30.7514 0.0126953 31.3136V33.4819C0.0126953 34.0441 0.46868 34.4998 1.03117 34.4998H3.007C3.56949 34.4998 4.02547 34.0441 4.02547 33.4819V31.3136C4.02547 30.7514 3.56949 30.2956 3.007 30.2956Z" fill="#FF5C00"/>
<path id="Vector_2" d="M58.007 30.2956H56.0312C55.4687 30.2956 55.0127 30.7514 55.0127 31.3136V33.4819C55.0127 34.0441 55.4687 34.4998 56.0312 34.4998H58.007C58.5695 34.4998 59.0255 34.0441 59.0255 33.4819V31.3136C59.0255 30.7514 58.5695 30.2956 58.007 30.2956Z" fill="#FF5C00"/>
<path id="Vector_3" d="M43.007 55.2468H41.0312C40.4687 55.2468 40.0127 55.7026 40.0127 56.2648V58.433C40.0127 58.9952 40.4687 59.451 41.0312 59.451H43.007C43.5695 59.451 44.0255 58.9952 44.0255 58.433V56.2648C44.0255 55.7026 43.5695 55.2468 43.007 55.2468Z" fill="#FF5C00"/>
<path id="Vector_4" d="M13.007 55.2468H11.0312C10.4687 55.2468 10.0127 55.7026 10.0127 56.2648V58.433C10.0127 58.9952 10.4687 59.451 11.0312 59.451H13.007C13.5695 59.451 14.0255 58.9952 14.0255 58.433V56.2648C14.0255 55.7026 13.5695 55.2468 13.007 55.2468Z" fill="#FF5C00"/>
<path id="Vector_5" d="M33.007 55.2956H31.0312C30.4687 55.2956 30.0127 55.7514 30.0127 56.3136V58.4819C30.0127 59.0441 30.4687 59.4998 31.0312 59.4998H33.007C33.5695 59.4998 34.0255 59.0441 34.0255 58.4819V56.3136C34.0255 55.7514 33.5695 55.2956 33.007 55.2956Z" fill="#FF5C00"/>
<path id="Vector_6" d="M3.007 45.2468H1.03117C0.46868 45.2468 0.0126953 45.7026 0.0126953 46.2648V48.433C0.0126953 48.9952 0.46868 49.451 1.03117 49.451H3.007C3.56949 49.451 4.02547 48.9952 4.02547 48.433V46.2648C4.02547 45.7026 3.56949 45.2468 3.007 45.2468Z" fill="#FF5C00"/>
<path id="Vector_7" d="M58.007 45.2468H56.0312C55.4687 45.2468 55.0127 45.7026 55.0127 46.2648V48.433C55.0127 48.9952 55.4687 49.451 56.0312 49.451H58.007C58.5695 49.451 59.0255 48.9952 59.0255 48.433V46.2648C59.0255 45.7026 58.5695 45.2468 58.007 45.2468Z" fill="#FF5C00"/>
<path id="Vector_8" d="M28.007 55.2956H26.0312C25.4687 55.2956 25.0127 55.7514 25.0127 56.3136V58.4819C25.0127 59.0441 25.4687 59.4998 26.0312 59.4998H28.007C28.5695 59.4998 29.0255 59.0441 29.0255 58.4819V56.3136C29.0255 55.7514 28.5695 55.2956 28.007 55.2956Z" fill="#FF5C00"/>
<path id="Vector_9" d="M3.007 35.3445H1.03117C0.46868 35.3445 0.0126953 35.8002 0.0126953 36.3624V38.5307C0.0126953 39.0929 0.46868 39.5486 1.03117 39.5486H3.007C3.56949 39.5486 4.02547 39.0929 4.02547 38.5307V36.3624C4.02547 35.8002 3.56949 35.3445 3.007 35.3445Z" fill="#FF5C00"/>
<path id="Vector_10" d="M58.007 35.3445H56.0312C55.4687 35.3445 55.0127 35.8002 55.0127 36.3624V38.5307C55.0127 39.0929 55.4687 39.5486 56.0312 39.5486H58.007C58.5695 39.5486 59.0255 39.0929 59.0255 38.5307V36.3624C59.0255 35.8002 58.5695 35.3445 58.007 35.3445Z" fill="#FF5C00"/>
<path id="Vector_11" d="M3.007 40.2956H1.03117C0.46868 40.2956 0.0126953 40.7514 0.0126953 41.3136V43.4819C0.0126953 44.0441 0.46868 44.4998 1.03117 44.4998H3.007C3.56949 44.4998 4.02547 44.0441 4.02547 43.4819V41.3136C4.02547 40.7514 3.56949 40.2956 3.007 40.2956Z" fill="#FF5C00"/>
<path id="Vector_12" d="M58.007 40.2956H56.0312C55.4687 40.2956 55.0127 40.7514 55.0127 41.3136V43.4819C55.0127 44.0441 55.4687 44.4998 56.0312 44.4998H58.007C58.5695 44.4998 59.0255 44.0441 59.0255 43.4819V41.3136C59.0255 40.7514 58.5695 40.2956 58.007 40.2956Z" fill="#FF5C00"/>
<path id="Vector_13" d="M3.007 25.3445H1.03117C0.46868 25.3445 0.0126953 25.8002 0.0126953 26.3624V28.5307C0.0126953 29.0929 0.46868 29.5486 1.03117 29.5486H3.007C3.56949 29.5486 4.02547 29.0929 4.02547 28.5307V26.3624C4.02547 25.8002 3.56949 25.3445 3.007 25.3445Z" fill="#FF5C00"/>
<path id="Vector_14" d="M3.007 15.3445H1.03117C0.46868 15.3445 0.0126953 15.8002 0.0126953 16.3624V18.5307C0.0126953 19.0929 0.46868 19.5486 1.03117 19.5486H3.007C3.56949 19.5486 4.02547 19.0929 4.02547 18.5307V16.3624C4.02547 15.8002 3.56949 15.3445 3.007 15.3445Z" fill="#FF5C00"/>
<path id="Vector_15" d="M3.007 10.2956H1.03117C0.46868 10.2956 0.0126953 10.7514 0.0126953 11.3136V13.4819C0.0126953 14.0441 0.46868 14.4998 1.03117 14.4998H3.007C3.56949 14.4998 4.02547 14.0441 4.02547 13.4819V11.3136C4.02547 10.7514 3.56949 10.2956 3.007 10.2956Z" fill="#FF5C00"/>
<path id="Vector_16" d="M3.007 5.29562H1.03117C0.46868 5.29562 0.0126953 5.75138 0.0126953 6.31359V8.48185C0.0126953 9.04406 0.46868 9.49982 1.03117 9.49982H3.007C3.56949 9.49982 4.02547 9.04406 4.02547 8.48185V6.31359C4.02547 5.75138 3.56949 5.29562 3.007 5.29562Z" fill="#FF5C00"/>
<path id="Vector_17" d="M8.007 5.29562H6.03117C5.46868 5.29562 5.0127 5.75138 5.0127 6.31359V8.48185C5.0127 9.04406 5.46868 9.49982 6.03117 9.49982H8.007C8.56949 9.49982 9.02547 9.04406 9.02547 8.48185V6.31359C9.02547 5.75138 8.56949 5.29562 8.007 5.29562Z" fill="#FF5C00"/>
<path id="Vector_18" d="M13.007 10.2956H11.0312C10.4687 10.2956 10.0127 10.7514 10.0127 11.3136V13.4819C10.0127 14.0441 10.4687 14.4998 11.0312 14.4998H13.007C13.5695 14.4998 14.0255 14.0441 14.0255 13.4819V11.3136C14.0255 10.7514 13.5695 10.2956 13.007 10.2956Z" fill="#FF5C00"/>
<path id="Vector_19" d="M8.007 50.2956H6.03117C5.46868 50.2956 5.0127 50.7514 5.0127 51.3136V53.4819C5.0127 54.0441 5.46868 54.4998 6.03117 54.4998H8.007C8.56949 54.4998 9.02547 54.0441 9.02547 53.4819V51.3136C9.02547 50.7514 8.56949 50.2956 8.007 50.2956Z" fill="#FF5C00"/>
<path id="Vector_20" d="M13.007 45.2956H11.0312C10.4687 45.2956 10.0127 45.7514 10.0127 46.3136V48.4819C10.0127 49.0441 10.4687 49.4998 11.0312 49.4998H13.007C13.5695 49.4998 14.0255 49.0441 14.0255 48.4819V46.3136C14.0255 45.7514 13.5695 45.2956 13.007 45.2956Z" fill="#FF5C00"/>
<path id="Vector_21" d="M53.007 5.29562H51.0312C50.4687 5.29562 50.0127 5.75138 50.0127 6.31359V8.48185C50.0127 9.04406 50.4687 9.49982 51.0312 9.49982H53.007C53.5695 9.49982 54.0255 9.04406 54.0255 8.48185V6.31359C54.0255 5.75138 53.5695 5.29562 53.007 5.29562Z" fill="#FF5C00"/>
<path id="Vector_22" d="M48.007 10.2956H46.0312C45.4687 10.2956 45.0127 10.7514 45.0127 11.3136V13.4819C45.0127 14.0441 45.4687 14.4998 46.0312 14.4998H48.007C48.5695 14.4998 49.0255 14.0441 49.0255 13.4819V11.3136C49.0255 10.7514 48.5695 10.2956 48.007 10.2956Z" fill="#FF5C00"/>
<path id="Vector_23" d="M48.007 45.2956H46.0312C45.4687 45.2956 45.0127 45.7514 45.0127 46.3136V48.4819C45.0127 49.0441 45.4687 49.4998 46.0312 49.4998H48.007C48.5695 49.4998 49.0255 49.0441 49.0255 48.4819V46.3136C49.0255 45.7514 48.5695 45.2956 48.007 45.2956Z" fill="#FF5C00"/>
<path id="Vector_24" d="M53.007 50.2956H51.0312C50.4687 50.2956 50.0127 50.7514 50.0127 51.3136V53.4819C50.0127 54.0441 50.4687 54.4998 51.0312 54.4998H53.007C53.5695 54.4998 54.0255 54.0441 54.0255 53.4819V51.3136C54.0255 50.7514 53.5695 50.2956 53.007 50.2956Z" fill="#FF5C00"/>
<path id="Vector_25" d="M13.007 20.2956H11.0312C10.4687 20.2956 10.0127 20.7514 10.0127 21.3136V23.4819C10.0127 24.0441 10.4687 24.4998 11.0312 24.4998H13.007C13.5695 24.4998 14.0255 24.0441 14.0255 23.4819V21.3136C14.0255 20.7514 13.5695 20.2956 13.007 20.2956Z" fill="#FF5C00"/>
<path id="Vector_26" d="M23.007 30.3445H21.0312C20.4687 30.3445 20.0127 30.8002 20.0127 31.3624V33.5307C20.0127 34.0929 20.4687 34.5486 21.0312 34.5486H23.007C23.5695 34.5486 24.0255 34.0929 24.0255 33.5307V31.3624C24.0255 30.8002 23.5695 30.3445 23.007 30.3445Z" fill="#FF5C00"/>
<path id="Vector_27" d="M23.007 45.3445H21.0312C20.4687 45.3445 20.0127 45.8002 20.0127 46.3624V48.5307C20.0127 49.0929 20.4687 49.5486 21.0312 49.5486H23.007C23.5695 49.5486 24.0255 49.0929 24.0255 48.5307V46.3624C24.0255 45.8002 23.5695 45.3445 23.007 45.3445Z" fill="#FF5C00"/>
<path id="Vector_28" d="M23.007 0.295624H21.0312C20.4687 0.295624 20.0127 0.751382 20.0127 1.31359V3.48185C20.0127 4.04406 20.4687 4.49982 21.0312 4.49982H23.007C23.5695 4.49982 24.0255 4.04406 24.0255 3.48185V1.31359C24.0255 0.751382 23.5695 0.295624 23.007 0.295624Z" fill="#FF5C00"/>
<path id="Vector_29" d="M48.007 20.2956H46.0312C45.4687 20.2956 45.0127 20.7514 45.0127 21.3136V23.4819C45.0127 24.0441 45.4687 24.4998 46.0312 24.4998H48.007C48.5695 24.4998 49.0255 24.0441 49.0255 23.4819V21.3136C49.0255 20.7514 48.5695 20.2956 48.007 20.2956Z" fill="#FF5C00"/>
<path id="Vector_30" d="M43.007 15.2956H41.0312C40.4687 15.2956 40.0127 15.7514 40.0127 16.3136V18.4819C40.0127 19.0441 40.4687 19.4998 41.0312 19.4998H43.007C43.5695 19.4998 44.0255 19.0441 44.0255 18.4819V16.3136C44.0255 15.7514 43.5695 15.2956 43.007 15.2956Z" fill="#FF5C00"/>
<path id="Vector_31" d="M43.007 40.2956H41.0312C40.4687 40.2956 40.0127 40.7514 40.0127 41.3136V43.4819C40.0127 44.0441 40.4687 44.4998 41.0312 44.4998H43.007C43.5695 44.4998 44.0255 44.0441 44.0255 43.4819V41.3136C44.0255 40.7514 43.5695 40.2956 43.007 40.2956Z" fill="#FF5C00"/>
<path id="Vector_32" d="M38.007 0.295624H36.0312C35.4687 0.295624 35.0127 0.751382 35.0127 1.31359V3.48185C35.0127 4.04406 35.4687 4.49982 36.0312 4.49982H38.007C38.5695 4.49982 39.0255 4.04406 39.0255 3.48185V1.31359C39.0255 0.751382 38.5695 0.295624 38.007 0.295624Z" fill="#FF5C00"/>
<path id="Vector_33" d="M13.007 30.3445H11.0312C10.4687 30.3445 10.0127 30.8002 10.0127 31.3624V33.5307C10.0127 34.0929 10.4687 34.5486 11.0312 34.5486H13.007C13.5695 34.5486 14.0255 34.0929 14.0255 33.5307V31.3624C14.0255 30.8002 13.5695 30.3445 13.007 30.3445Z" fill="#FF5C00"/>
<path id="Vector_34" d="M13.007 25.2956H11.0312C10.4687 25.2956 10.0127 25.7514 10.0127 26.3136V28.4819C10.0127 29.0441 10.4687 29.4998 11.0312 29.4998H13.007C13.5695 29.4998 14.0255 29.0441 14.0255 28.4819V26.3136C14.0255 25.7514 13.5695 25.2956 13.007 25.2956Z" fill="#FF5C00"/>
<path id="Vector_35" d="M8.007 0.295624H6.03117C5.46868 0.295624 5.0127 0.751382 5.0127 1.31359V3.48185C5.0127 4.04406 5.46868 4.49982 6.03117 4.49982H8.007C8.56949 4.49982 9.02547 4.04406 9.02547 3.48185V1.31359C9.02547 0.751382 8.56949 0.295624 8.007 0.295624Z" fill="#FF5C00"/>
<path id="Vector_36" d="M13.007 0.295624H11.0312C10.4687 0.295624 10.0127 0.751382 10.0127 1.31359V3.48185C10.0127 4.04406 10.4687 4.49982 11.0312 4.49982H13.007C13.5695 4.49982 14.0255 4.04406 14.0255 3.48185V1.31359C14.0255 0.751382 13.5695 0.295624 13.007 0.295624Z" fill="#FF5C00"/>
<path id="Vector_37" d="M18.007 15.2956H16.0312C15.4687 15.2956 15.0127 15.7514 15.0127 16.3136V18.4819C15.0127 19.0441 15.4687 19.4998 16.0312 19.4998H18.007C18.5695 19.4998 19.0255 19.0441 19.0255 18.4819V16.3136C19.0255 15.7514 18.5695 15.2956 18.007 15.2956Z" fill="#FF5C00"/>
<path id="Vector_38" d="M23.007 10.2956H21.0312C20.4687 10.2956 20.0127 10.7514 20.0127 11.3136V13.4819C20.0127 14.0441 20.4687 14.4998 21.0312 14.4998H23.007C23.5695 14.4998 24.0255 14.0441 24.0255 13.4819V11.3136C24.0255 10.7514 23.5695 10.2956 23.007 10.2956Z" fill="#FF5C00"/>
<path id="Vector_39" d="M28.007 10.2956H26.0312C25.4687 10.2956 25.0127 10.7514 25.0127 11.3136V13.4819C25.0127 14.0441 25.4687 14.4998 26.0312 14.4998H28.007C28.5695 14.4998 29.0255 14.0441 29.0255 13.4819V11.3136C29.0255 10.7514 28.5695 10.2956 28.007 10.2956Z" fill="#FF5C00"/>
<path id="Vector_40" d="M28.007 45.3445H26.0312C25.4687 45.3445 25.0127 45.8002 25.0127 46.3624V48.5307C25.0127 49.0929 25.4687 49.5486 26.0312 49.5486H28.007C28.5695 49.5486 29.0255 49.0929 29.0255 48.5307V46.3624C29.0255 45.8002 28.5695 45.3445 28.007 45.3445Z" fill="#FF5C00"/>
<path id="Vector_41" d="M23.007 25.2956H21.0312C20.4687 25.2956 20.0127 25.7514 20.0127 26.3136V28.4819C20.0127 29.0441 20.4687 29.4998 21.0312 29.4998H23.007C23.5695 29.4998 24.0255 29.0441 24.0255 28.4819V26.3136C24.0255 25.7514 23.5695 25.2956 23.007 25.2956Z" fill="#FF5C00"/>
<path id="Vector_42" d="M33.007 10.2956H31.0312C30.4687 10.2956 30.0127 10.7514 30.0127 11.3136V13.4819C30.0127 14.0441 30.4687 14.4998 31.0312 14.4998H33.007C33.5695 14.4998 34.0255 14.0441 34.0255 13.4819V11.3136C34.0255 10.7514 33.5695 10.2956 33.007 10.2956Z" fill="#FF5C00"/>
<path id="Vector_43" d="M38.007 10.2956H36.0312C35.4687 10.2956 35.0127 10.7514 35.0127 11.3136V13.4819C35.0127 14.0441 35.4687 14.4998 36.0312 14.4998H38.007C38.5695 14.4998 39.0255 14.0441 39.0255 13.4819V11.3136C39.0255 10.7514 38.5695 10.2956 38.007 10.2956Z" fill="#FF5C00"/>
<path id="Vector_44" d="M38.007 45.2956H36.0312C35.4687 45.2956 35.0127 45.7514 35.0127 46.3136V48.4819C35.0127 49.0441 35.4687 49.4998 36.0312 49.4998H38.007C38.5695 49.4998 39.0255 49.0441 39.0255 48.4819V46.3136C39.0255 45.7514 38.5695 45.2956 38.007 45.2956Z" fill="#FF5C00"/>
<path id="Vector_45" d="M28.007 35.2956H26.0312C25.4687 35.2956 25.0127 35.7514 25.0127 36.3136V38.4819C25.0127 39.0441 25.4687 39.4998 26.0312 39.4998H28.007C28.5695 39.4998 29.0255 39.0441 29.0255 38.4819V36.3136C29.0255 35.7514 28.5695 35.2956 28.007 35.2956Z" fill="#FF5C00"/>
<path id="Vector_46" d="M33.007 35.2956H31.0312C30.4687 35.2956 30.0127 35.7514 30.0127 36.3136V38.4819C30.0127 39.0441 30.4687 39.4998 31.0312 39.4998H33.007C33.5695 39.4998 34.0255 39.0441 34.0255 38.4819V36.3136C34.0255 35.7514 33.5695 35.2956 33.007 35.2956Z" fill="#FF5C00"/>
<path id="Vector_47" d="M28.007 0.295624H26.0312C25.4687 0.295624 25.0127 0.751382 25.0127 1.31359V3.48185C25.0127 4.04406 25.4687 4.49982 26.0312 4.49982H28.007C28.5695 4.49982 29.0255 4.04406 29.0255 3.48185V1.31359C29.0255 0.751382 28.5695 0.295624 28.007 0.295624Z" fill="#FF5C00"/>
<path id="Vector_48" d="M48.007 30.2956H46.0312C45.4687 30.2956 45.0127 30.7514 45.0127 31.3136V33.4819C45.0127 34.0441 45.4687 34.4998 46.0312 34.4998H48.007C48.5695 34.4998 49.0255 34.0441 49.0255 33.4819V31.3136C49.0255 30.7514 48.5695 30.2956 48.007 30.2956Z" fill="#FF5C00"/>
<path id="Vector_49" d="M48.007 25.2956H46.0312C45.4687 25.2956 45.0127 25.7514 45.0127 26.3136V28.4819C45.0127 29.0441 45.4687 29.4998 46.0312 29.4998H48.007C48.5695 29.4998 49.0255 29.0441 49.0255 28.4819V26.3136C49.0255 25.7514 48.5695 25.2956 48.007 25.2956Z" fill="#FF5C00"/>
<path id="Vector_50" d="M48.007 35.2956H46.0312C45.4687 35.2956 45.0127 35.7514 45.0127 36.3136V38.4819C45.0127 39.0441 45.4687 39.4998 46.0312 39.4998H48.007C48.5695 39.4998 49.0255 39.0441 49.0255 38.4819V36.3136C49.0255 35.7514 48.5695 35.2956 48.007 35.2956Z" fill="#FF5C00"/>
<path id="Vector_51" d="M43.007 0.295624H41.0312C40.4687 0.295624 40.0127 0.751382 40.0127 1.31359V3.48185C40.0127 4.04406 40.4687 4.49982 41.0312 4.49982H43.007C43.5695 4.49982 44.0255 4.04406 44.0255 3.48185V1.31359C44.0255 0.751382 43.5695 0.295624 43.007 0.295624Z" fill="#FF5C00"/>
<path id="Vector_52" d="M18.007 40.2956H16.0312C15.4687 40.2956 15.0127 40.7514 15.0127 41.3136V43.4819C15.0127 44.0441 15.4687 44.4998 16.0312 44.4998H18.007C18.5695 44.4998 19.0255 44.0441 19.0255 43.4819V41.3136C19.0255 40.7514 18.5695 40.2956 18.007 40.2956Z" fill="#FF5C00"/>
<path id="Vector_53" d="M13.007 35.2956H11.0312C10.4687 35.2956 10.0127 35.7514 10.0127 36.3136V38.4819C10.0127 39.0441 10.4687 39.4998 11.0312 39.4998H13.007C13.5695 39.4998 14.0255 39.0441 14.0255 38.4819V36.3136C14.0255 35.7514 13.5695 35.2956 13.007 35.2956Z" fill="#FF5C00"/>
<path id="Vector_54" d="M18.007 0.295624H16.0312C15.4687 0.295624 15.0127 0.751382 15.0127 1.31359V3.48185C15.0127 4.04406 15.4687 4.49982 16.0312 4.49982H18.007C18.5695 4.49982 19.0255 4.04406 19.0255 3.48185V1.31359C19.0255 0.751382 18.5695 0.295624 18.007 0.295624Z" fill="#FF5C00"/>
<path id="Vector_55" d="M38.007 30.3445H36.0312C35.4687 30.3445 35.0127 30.8002 35.0127 31.3624V33.5307C35.0127 34.0929 35.4687 34.5486 36.0312 34.5486H38.007C38.5695 34.5486 39.0255 34.0929 39.0255 33.5307V31.3624C39.0255 30.8002 38.5695 30.3445 38.007 30.3445Z" fill="#FF5C00"/>
<path id="Vector_56" d="M38.007 25.2956H36.0312C35.4687 25.2956 35.0127 25.7514 35.0127 26.3136V28.4819C35.0127 29.0441 35.4687 29.4998 36.0312 29.4998H38.007C38.5695 29.4998 39.0255 29.0441 39.0255 28.4819V26.3136C39.0255 25.7514 38.5695 25.2956 38.007 25.2956Z" fill="#FF5C00"/>
<path id="Vector_57" d="M28.007 20.2956H26.0312C25.4687 20.2956 25.0127 20.7514 25.0127 21.3136V23.4819C25.0127 24.0441 25.4687 24.4998 26.0312 24.4998H28.007C28.5695 24.4998 29.0255 24.0441 29.0255 23.4819V21.3136C29.0255 20.7514 28.5695 20.2956 28.007 20.2956Z" fill="#FF5C00"/>
<path id="Vector_58" d="M33.007 20.2956H31.0312C30.4687 20.2956 30.0127 20.7514 30.0127 21.3136V23.4819C30.0127 24.0441 30.4687 24.4998 31.0312 24.4998H33.007C33.5695 24.4998 34.0255 24.0441 34.0255 23.4819V21.3136C34.0255 20.7514 33.5695 20.2956 33.007 20.2956Z" fill="#FF5C00"/>
<path id="Vector_59" d="M33.007 45.2956H31.0312C30.4687 45.2956 30.0127 45.7514 30.0127 46.3136V48.4819C30.0127 49.0441 30.4687 49.4998 31.0312 49.4998H33.007C33.5695 49.4998 34.0255 49.0441 34.0255 48.4819V46.3136C34.0255 45.7514 33.5695 45.2956 33.007 45.2956Z" fill="#FF5C00"/>
<path id="Vector_60" d="M33.007 0.295624H31.0312C30.4687 0.295624 30.0127 0.751382 30.0127 1.31359V3.48185C30.0127 4.04406 30.4687 4.49982 31.0312 4.49982H33.007C33.5695 4.49982 34.0255 4.04406 34.0255 3.48185V1.31359C34.0255 0.751382 33.5695 0.295624 33.007 0.295624Z" fill="#FF5C00"/>
<path id="Vector_61" d="M48.007 0.295624H46.0312C45.4687 0.295624 45.0127 0.751382 45.0127 1.31359V3.48185C45.0127 4.04406 45.4687 4.49982 46.0312 4.49982H48.007C48.5695 4.49982 49.0255 4.04406 49.0255 3.48185V1.31359C49.0255 0.751382 48.5695 0.295624 48.007 0.295624Z" fill="#FF5C00"/>
<path id="Vector_62" d="M53.007 0.295624H51.0312C50.4687 0.295624 50.0127 0.751382 50.0127 1.31359V3.48185C50.0127 4.04406 50.4687 4.49982 51.0312 4.49982H53.007C53.5695 4.49982 54.0255 4.04406 54.0255 3.48185V1.31359C54.0255 0.751382 53.5695 0.295624 53.007 0.295624Z" fill="#FF5C00"/>
<path id="Vector_63" d="M58.007 15.3445H56.0312C55.4687 15.3445 55.0127 15.8002 55.0127 16.3624V18.5307C55.0127 19.0929 55.4687 19.5486 56.0312 19.5486H58.007C58.5695 19.5486 59.0255 19.0929 59.0255 18.5307V16.3624C59.0255 15.8002 58.5695 15.3445 58.007 15.3445Z" fill="#FF5C00"/>
<path id="Vector_64" d="M58.007 10.2956H56.0312C55.4687 10.2956 55.0127 10.7514 55.0127 11.3136V13.4819C55.0127 14.0441 55.4687 14.4998 56.0312 14.4998H58.007C58.5695 14.4998 59.0255 14.0441 59.0255 13.4819V11.3136C59.0255 10.7514 58.5695 10.2956 58.007 10.2956Z" fill="#FF5C00"/>
<path id="Vector_65" d="M58.007 5.29562H56.0312C55.4687 5.29562 55.0127 5.75138 55.0127 6.31359V8.48185C55.0127 9.04406 55.4687 9.49982 56.0312 9.49982H58.007C58.5695 9.49982 59.0255 9.04406 59.0255 8.48185V6.31359C59.0255 5.75138 58.5695 5.29562 58.007 5.29562Z" fill="#FF5C00"/>
<path id="Vector_66" d="M3.007 20.2956H1.03117C0.46868 20.2956 0.0126953 20.7514 0.0126953 21.3136V23.4819C0.0126953 24.0441 0.46868 24.4998 1.03117 24.4998H3.007C3.56949 24.4998 4.02547 24.0441 4.02547 23.4819V21.3136C4.02547 20.7514 3.56949 20.2956 3.007 20.2956Z" fill="#FF5C00"/>
<path id="Vector_67" d="M58.007 25.3445H56.0312C55.4687 25.3445 55.0127 25.8002 55.0127 26.3624V28.5307C55.0127 29.0929 55.4687 29.5486 56.0312 29.5486H58.007C58.5695 29.5486 59.0255 29.0929 59.0255 28.5307V26.3624C59.0255 25.8002 58.5695 25.3445 58.007 25.3445Z" fill="#FF5C00"/>
<path id="Vector_68" d="M58.007 20.2956H56.0312C55.4687 20.2956 55.0127 20.7514 55.0127 21.3136V23.4819C55.0127 24.0441 55.4687 24.4998 56.0312 24.4998H58.007C58.5695 24.4998 59.0255 24.0441 59.0255 23.4819V21.3136C59.0255 20.7514 58.5695 20.2956 58.007 20.2956Z" fill="#FF5C00"/>
<path id="Vector_69" d="M58.007 50.2956H56.0312C55.4687 50.2956 55.0127 50.7514 55.0127 51.3136V53.4819C55.0127 54.0441 55.4687 54.4998 56.0312 54.4998H58.007C58.5695 54.4998 59.0255 54.0441 59.0255 53.4819V51.3136C59.0255 50.7514 58.5695 50.2956 58.007 50.2956Z" fill="#FF5C00"/>
<path id="Vector_70" d="M53.007 55.2956H51.0312C50.4687 55.2956 50.0127 55.7514 50.0127 56.3136V58.4819C50.0127 59.0441 50.4687 59.4998 51.0312 59.4998H53.007C53.5695 59.4998 54.0255 59.0441 54.0255 58.4819V56.3136C54.0255 55.7514 53.5695 55.2956 53.007 55.2956Z" fill="#FF5C00"/>
<path id="Vector_71" d="M23.007 55.2956H21.0312C20.4687 55.2956 20.0127 55.7514 20.0127 56.3136V58.4819C20.0127 59.0441 20.4687 59.4998 21.0312 59.4998H23.007C23.5695 59.4998 24.0255 59.0441 24.0255 58.4819V56.3136C24.0255 55.7514 23.5695 55.2956 23.007 55.2956Z" fill="#FF5C00"/>
<path id="Vector_72" d="M48.0383 55.3381H46.0624C45.4999 55.3381 45.0439 55.7939 45.0439 56.3561V58.5243C45.0439 59.0865 45.4999 59.5423 46.0624 59.5423H48.0383C48.6007 59.5423 49.0567 59.0865 49.0567 58.5243V56.3561C49.0567 55.7939 48.6007 55.3381 48.0383 55.3381Z" fill="#FF5C00"/>
<path id="Vector_73" d="M18.0383 55.3381H16.0624C15.4999 55.3381 15.0439 55.7939 15.0439 56.3561V58.5243C15.0439 59.0865 15.4999 59.5423 16.0624 59.5423H18.0383C18.6007 59.5423 19.0567 59.0865 19.0567 58.5243V56.3561C19.0567 55.7939 18.6007 55.3381 18.0383 55.3381Z" fill="#FF5C00"/>
<path id="Vector_74" d="M38.007 55.2956H36.0312C35.4687 55.2956 35.0127 55.7514 35.0127 56.3136V58.4819C35.0127 59.0441 35.4687 59.4998 36.0312 59.4998H38.007C38.5695 59.4998 39.0255 59.0441 39.0255 58.4819V56.3136C39.0255 55.7514 38.5695 55.2956 38.007 55.2956Z" fill="#FF5C00"/>
<path id="Vector_75" d="M8.007 55.2956H6.03117C5.46868 55.2956 5.0127 55.7514 5.0127 56.3136V58.4819C5.0127 59.0441 5.46868 59.4998 6.03117 59.4998H8.007C8.56949 59.4998 9.02547 59.0441 9.02547 58.4819V56.3136C9.02547 55.7514 8.56949 55.2956 8.007 55.2956Z" fill="#FF5C00"/>
<path id="Vector_76" d="M3.007 50.2956H1.03117C0.46868 50.2956 0.0126953 50.7514 0.0126953 51.3136V53.4819C0.0126953 54.0441 0.46868 54.4998 1.03117 54.4998H3.007C3.56949 54.4998 4.02547 54.0441 4.02547 53.4819V51.3136C4.02547 50.7514 3.56949 50.2956 3.007 50.2956Z" fill="#FF5C00"/>
</g>
</g>
</g>
<defs>
<clipPath id="clip0_4057_5359">
<rect width="60" height="60" fill="white" transform="translate(0.0126953 0.295624)"/>
</clipPath>
</defs>
</svg>
