<svg width="61" height="61" viewBox="0 0 61 61" fill="none" xmlns="http://www.w3.org/2000/svg">
<g id="icon node">
<path id="Vector" d="M41.007 53.2468H39.0312C38.4687 53.2468 38.0127 53.7026 38.0127 54.2648V56.433C38.0127 56.9952 38.4687 57.451 39.0312 57.451H41.007C41.5695 57.451 42.0255 56.9952 42.0255 56.433V54.2648C42.0255 53.7026 41.5695 53.2468 41.007 53.2468Z" fill="#FF5C00"/>
<path id="Vector_2" d="M11.007 53.2468H9.03117C8.46868 53.2468 8.0127 53.7026 8.0127 54.2648V56.433C8.0127 56.9952 8.46868 57.451 9.03117 57.451H11.007C11.5695 57.451 12.0255 56.9952 12.0255 56.433V54.2648C12.0255 53.7026 11.5695 53.2468 11.007 53.2468Z" fill="#FF5C00"/>
<path id="Vector_3" d="M11.007 13.2468H9.03117C8.46868 13.2468 8.0127 13.7026 8.0127 14.2648V16.433C8.0127 16.9952 8.46868 17.451 9.03117 17.451H11.007C11.5695 17.451 12.0255 16.9952 12.0255 16.433V14.2648C12.0255 13.7026 11.5695 13.2468 11.007 13.2468Z" fill="#FF5C00"/>
<path id="Vector_4" d="M36.007 18.3445H34.0312C33.4687 18.3445 33.0127 18.8002 33.0127 19.3624V21.5307C33.0127 22.0929 33.4687 22.5486 34.0312 22.5486H36.007C36.5695 22.5486 37.0255 22.0929 37.0255 21.5307V19.3624C37.0255 18.8002 36.5695 18.3445 36.007 18.3445Z" fill="#FF5C00"/>
<path id="Vector_5" d="M26.007 18.2956H24.0312C23.4687 18.2956 23.0127 18.7514 23.0127 19.3136V21.4819C23.0127 22.0441 23.4687 22.4998 24.0312 22.4998H26.007C26.5695 22.4998 27.0255 22.0441 27.0255 21.4819V19.3136C27.0255 18.7514 26.5695 18.2956 26.007 18.2956Z" fill="#FF5C00"/>
<path id="Vector_6" d="M36.007 28.3445H34.0312C33.4687 28.3445 33.0127 28.8002 33.0127 29.3624V31.5307C33.0127 32.0929 33.4687 32.5486 34.0312 32.5486H36.007C36.5695 32.5486 37.0255 32.0929 37.0255 31.5307V29.3624C37.0255 28.8002 36.5695 28.3445 36.007 28.3445Z" fill="#FF5C00"/>
<path id="Vector_7" d="M46.007 13.3445H44.0312C43.4687 13.3445 43.0127 13.8002 43.0127 14.3624V16.5307C43.0127 17.0929 43.4687 17.5486 44.0312 17.5486H46.007C46.5695 17.5486 47.0255 17.0929 47.0255 16.5307V14.3624C47.0255 13.8002 46.5695 13.3445 46.007 13.3445Z" fill="#FF5C00"/>
<path id="Vector_8" d="M51.007 13.3445H49.0312C48.4687 13.3445 48.0127 13.8002 48.0127 14.3624V16.5307C48.0127 17.0929 48.4687 17.5486 49.0312 17.5486H51.007C51.5695 17.5486 52.0255 17.0929 52.0255 16.5307V14.3624C52.0255 13.8002 51.5695 13.3445 51.007 13.3445Z" fill="#FF5C00"/>
<path id="Vector_9" d="M46.007 28.3445H44.0312C43.4687 28.3445 43.0127 28.8002 43.0127 29.3624V31.5307C43.0127 32.0929 43.4687 32.5486 44.0312 32.5486H46.007C46.5695 32.5486 47.0255 32.0929 47.0255 31.5307V29.3624C47.0255 28.8002 46.5695 28.3445 46.007 28.3445Z" fill="#FF5C00"/>
<path id="Vector_10" d="M6.007 28.3445H4.03117C3.46868 28.3445 3.0127 28.8002 3.0127 29.3624V31.5307C3.0127 32.0929 3.46868 32.5486 4.03117 32.5486H6.007C6.56949 32.5486 7.02547 32.0929 7.02547 31.5307V29.3624C7.02547 28.8002 6.56949 28.3445 6.007 28.3445Z" fill="#FF5C00"/>
<path id="Vector_11" d="M46.007 43.2956H44.0312C43.4687 43.2956 43.0127 43.7514 43.0127 44.3136V46.4819C43.0127 47.0441 43.4687 47.4998 44.0312 47.4998H46.007C46.5695 47.4998 47.0255 47.0441 47.0255 46.4819V44.3136C47.0255 43.7514 46.5695 43.2956 46.007 43.2956Z" fill="#FF5C00"/>
<path id="Vector_12" d="M16.007 43.2956H14.0312C13.4687 43.2956 13.0127 43.7514 13.0127 44.3136V46.4819C13.0127 47.0441 13.4687 47.4998 14.0312 47.4998H16.007C16.5695 47.4998 17.0255 47.0441 17.0255 46.4819V44.3136C17.0255 43.7514 16.5695 43.2956 16.007 43.2956Z" fill="#FF5C00"/>
<path id="Vector_13" d="M16.007 3.29562H14.0312C13.4687 3.29562 13.0127 3.75138 13.0127 4.31359V6.48185C13.0127 7.04406 13.4687 7.49982 14.0312 7.49982H16.007C16.5695 7.49982 17.0255 7.04406 17.0255 6.48185V4.31359C17.0255 3.75138 16.5695 3.29562 16.007 3.29562Z" fill="#FF5C00"/>
<path id="Vector_14" d="M51.007 43.2956H49.0312C48.4687 43.2956 48.0127 43.7514 48.0127 44.3136V46.4819C48.0127 47.0441 48.4687 47.4998 49.0312 47.4998H51.007C51.5695 47.4998 52.0255 47.0441 52.0255 46.4819V44.3136C52.0255 43.7514 51.5695 43.2956 51.007 43.2956Z" fill="#FF5C00"/>
<path id="Vector_15" d="M21.007 43.2956H19.0312C18.4687 43.2956 18.0127 43.7514 18.0127 44.3136V46.4819C18.0127 47.0441 18.4687 47.4998 19.0312 47.4998H21.007C21.5695 47.4998 22.0255 47.0441 22.0255 46.4819V44.3136C22.0255 43.7514 21.5695 43.2956 21.007 43.2956Z" fill="#FF5C00"/>
<path id="Vector_16" d="M21.007 3.29562H19.0312C18.4687 3.29562 18.0127 3.75138 18.0127 4.31359V6.48185C18.0127 7.04406 18.4687 7.49982 19.0312 7.49982H21.007C21.5695 7.49982 22.0255 7.04406 22.0255 6.48185V4.31359C22.0255 3.75138 21.5695 3.29562 21.007 3.29562Z" fill="#FF5C00"/>
<path id="Vector_17" d="M41.007 48.2468H39.0312C38.4687 48.2468 38.0127 48.7026 38.0127 49.2648V51.433C38.0127 51.9952 38.4687 52.451 39.0312 52.451H41.007C41.5695 52.451 42.0255 51.9952 42.0255 51.433V49.2648C42.0255 48.7026 41.5695 48.2468 41.007 48.2468Z" fill="#FF5C00"/>
<path id="Vector_18" d="M11.007 48.2468H9.03117C8.46868 48.2468 8.0127 48.7026 8.0127 49.2648V51.433C8.0127 51.9952 8.46868 52.451 9.03117 52.451H11.007C11.5695 52.451 12.0255 51.9952 12.0255 51.433V49.2648C12.0255 48.7026 11.5695 48.2468 11.007 48.2468Z" fill="#FF5C00"/>
<path id="Vector_19" d="M11.007 8.2468H9.03117C8.46868 8.2468 8.0127 8.70255 8.0127 9.26476V11.433C8.0127 11.9952 8.46868 12.451 9.03117 12.451H11.007C11.5695 12.451 12.0255 11.9952 12.0255 11.433V9.26476C12.0255 8.70255 11.5695 8.2468 11.007 8.2468Z" fill="#FF5C00"/>
<path id="Vector_20" d="M41.007 8.29562H39.0312C38.4687 8.29562 38.0127 8.75138 38.0127 9.31359V11.4819C38.0127 12.0441 38.4687 12.4998 39.0312 12.4998H41.007C41.5695 12.4998 42.0255 12.0441 42.0255 11.4819V9.31359C42.0255 8.75138 41.5695 8.29562 41.007 8.29562Z" fill="#FF5C00"/>
<path id="Vector_21" d="M51.007 23.2956H49.0312C48.4687 23.2956 48.0127 23.7514 48.0127 24.3136V26.4819C48.0127 27.0441 48.4687 27.4998 49.0312 27.4998H51.007C51.5695 27.4998 52.0255 27.0441 52.0255 26.4819V24.3136C52.0255 23.7514 51.5695 23.2956 51.007 23.2956Z" fill="#FF5C00"/>
<path id="Vector_22" d="M11.007 23.2956H9.03117C8.46868 23.2956 8.0127 23.7514 8.0127 24.3136V26.4819C8.0127 27.0441 8.46868 27.4998 9.03117 27.4998H11.007C11.5695 27.4998 12.0255 27.0441 12.0255 26.4819V24.3136C12.0255 23.7514 11.5695 23.2956 11.007 23.2956Z" fill="#FF5C00"/>
<path id="Vector_23" d="M56.007 23.2956H54.0312C53.4687 23.2956 53.0127 23.7514 53.0127 24.3136V26.4819C53.0127 27.0441 53.4687 27.4998 54.0312 27.4998H56.007C56.5695 27.4998 57.0255 27.0441 57.0255 26.4819V24.3136C57.0255 23.7514 56.5695 23.2956 56.007 23.2956Z" fill="#FF5C00"/>
<path id="Vector_24" d="M16.007 23.2956H14.0312C13.4687 23.2956 13.0127 23.7514 13.0127 24.3136V26.4819C13.0127 27.0441 13.4687 27.4998 14.0312 27.4998H16.007C16.5695 27.4998 17.0255 27.0441 17.0255 26.4819V24.3136C17.0255 23.7514 16.5695 23.2956 16.007 23.2956Z" fill="#FF5C00"/>
<path id="Vector_25" d="M46.007 3.29562H44.0312C43.4687 3.29562 43.0127 3.75138 43.0127 4.31359V6.48185C43.0127 7.04406 43.4687 7.49982 44.0312 7.49982H46.007C46.5695 7.49982 47.0255 7.04406 47.0255 6.48185V4.31359C47.0255 3.75138 46.5695 3.29562 46.007 3.29562Z" fill="#FF5C00"/>
<path id="Vector_26" d="M51.007 3.29562H49.0312C48.4687 3.29562 48.0127 3.75138 48.0127 4.31359V6.48185C48.0127 7.04406 48.4687 7.49982 49.0312 7.49982H51.007C51.5695 7.49982 52.0255 7.04406 52.0255 6.48185V4.31359C52.0255 3.75138 51.5695 3.29562 51.007 3.29562Z" fill="#FF5C00"/>
<path id="Vector_27" d="M51.007 33.2956H49.0312C48.4687 33.2956 48.0127 33.7514 48.0127 34.3136V36.4819C48.0127 37.0441 48.4687 37.4998 49.0312 37.4998H51.007C51.5695 37.4998 52.0255 37.0441 52.0255 36.4819V34.3136C52.0255 33.7514 51.5695 33.2956 51.007 33.2956Z" fill="#FF5C00"/>
<path id="Vector_28" d="M11.007 33.2956H9.03117C8.46868 33.2956 8.0127 33.7514 8.0127 34.3136V36.4819C8.0127 37.0441 8.46868 37.4998 9.03117 37.4998H11.007C11.5695 37.4998 12.0255 37.0441 12.0255 36.4819V34.3136C12.0255 33.7514 11.5695 33.2956 11.007 33.2956Z" fill="#FF5C00"/>
<path id="Vector_29" d="M56.007 33.2956H54.0312C53.4687 33.2956 53.0127 33.7514 53.0127 34.3136V36.4819C53.0127 37.0441 53.4687 37.4998 54.0312 37.4998H56.007C56.5695 37.4998 57.0255 37.0441 57.0255 36.4819V34.3136C57.0255 33.7514 56.5695 33.2956 56.007 33.2956Z" fill="#FF5C00"/>
<path id="Vector_30" d="M16.007 33.2956H14.0312C13.4687 33.2956 13.0127 33.7514 13.0127 34.3136V36.4819C13.0127 37.0441 13.4687 37.4998 14.0312 37.4998H16.007C16.5695 37.4998 17.0255 37.0441 17.0255 36.4819V34.3136C17.0255 33.7514 16.5695 33.2956 16.007 33.2956Z" fill="#FF5C00"/>
<path id="Vector_31" d="M26.007 38.2956H24.0312C23.4687 38.2956 23.0127 38.7514 23.0127 39.3136V41.4819C23.0127 42.0441 23.4687 42.4998 24.0312 42.4998H26.007C26.5695 42.4998 27.0255 42.0441 27.0255 41.4819V39.3136C27.0255 38.7514 26.5695 38.2956 26.007 38.2956Z" fill="#FF5C00"/>
<path id="Vector_32" d="M41.007 28.2956H39.0312C38.4687 28.2956 38.0127 28.7514 38.0127 29.3136V31.4819C38.0127 32.0441 38.4687 32.4998 39.0312 32.4998H41.007C41.5695 32.4998 42.0255 32.0441 42.0255 31.4819V29.3136C42.0255 28.7514 41.5695 28.2956 41.007 28.2956Z" fill="#FF5C00"/>
<path id="Vector_33" d="M36.007 38.2956H34.0312C33.4687 38.2956 33.0127 38.7514 33.0127 39.3136V41.4819C33.0127 42.0441 33.4687 42.4998 34.0312 42.4998H36.007C36.5695 42.4998 37.0255 42.0441 37.0255 41.4819V39.3136C37.0255 38.7514 36.5695 38.2956 36.007 38.2956Z" fill="#FF5C00"/>
<path id="Vector_34" d="M51.007 28.3445H49.0312C48.4687 28.3445 48.0127 28.8002 48.0127 29.3624V31.5307C48.0127 32.0929 48.4687 32.5486 49.0312 32.5486H51.007C51.5695 32.5486 52.0255 32.0929 52.0255 31.5307V29.3624C52.0255 28.8002 51.5695 28.3445 51.007 28.3445Z" fill="#FF5C00"/>
<path id="Vector_35" d="M11.007 28.3445H9.03117C8.46868 28.3445 8.0127 28.8002 8.0127 29.3624V31.5307C8.0127 32.0929 8.46868 32.5486 9.03117 32.5486H11.007C11.5695 32.5486 12.0255 32.0929 12.0255 31.5307V29.3624C12.0255 28.8002 11.5695 28.3445 11.007 28.3445Z" fill="#FF5C00"/>
<path id="Vector_36" d="M56.007 28.3445H54.0312C53.4687 28.3445 53.0127 28.8002 53.0127 29.3624V31.5307C53.0127 32.0929 53.4687 32.5486 54.0312 32.5486H56.007C56.5695 32.5486 57.0255 32.0929 57.0255 31.5307V29.3624C57.0255 28.8002 56.5695 28.3445 56.007 28.3445Z" fill="#FF5C00"/>
<path id="Vector_37" d="M16.007 28.3445H14.0312C13.4687 28.3445 13.0127 28.8002 13.0127 29.3624V31.5307C13.0127 32.0929 13.4687 32.5486 14.0312 32.5486H16.007C16.5695 32.5486 17.0255 32.0929 17.0255 31.5307V29.3624C17.0255 28.8002 16.5695 28.3445 16.007 28.3445Z" fill="#FF5C00"/>
<path id="Vector_38" d="M46.007 48.2468H44.0312C43.4687 48.2468 43.0127 48.7026 43.0127 49.2648V51.433C43.0127 51.9952 43.4687 52.451 44.0312 52.451H46.007C46.5695 52.451 47.0255 51.9952 47.0255 51.433V49.2648C47.0255 48.7026 46.5695 48.2468 46.007 48.2468Z" fill="#FF5C00"/>
<path id="Vector_39" d="M16.007 48.2468H14.0312C13.4687 48.2468 13.0127 48.7026 13.0127 49.2648V51.433C13.0127 51.9952 13.4687 52.451 14.0312 52.451H16.007C16.5695 52.451 17.0255 51.9952 17.0255 51.433V49.2648C17.0255 48.7026 16.5695 48.2468 16.007 48.2468Z" fill="#FF5C00"/>
<path id="Vector_40" d="M16.007 8.2468H14.0312C13.4687 8.2468 13.0127 8.70255 13.0127 9.26476V11.433C13.0127 11.9952 13.4687 12.451 14.0312 12.451H16.007C16.5695 12.451 17.0255 11.9952 17.0255 11.433V9.26476C17.0255 8.70255 16.5695 8.2468 16.007 8.2468Z" fill="#FF5C00"/>
<path id="Vector_41" d="M51.007 48.2468H49.0312C48.4687 48.2468 48.0127 48.7026 48.0127 49.2648V51.433C48.0127 51.9952 48.4687 52.451 49.0312 52.451H51.007C51.5695 52.451 52.0255 51.9952 52.0255 51.433V49.2648C52.0255 48.7026 51.5695 48.2468 51.007 48.2468Z" fill="#FF5C00"/>
<path id="Vector_42" d="M21.007 48.2468H19.0312C18.4687 48.2468 18.0127 48.7026 18.0127 49.2648V51.433C18.0127 51.9952 18.4687 52.451 19.0312 52.451H21.007C21.5695 52.451 22.0255 51.9952 22.0255 51.433V49.2648C22.0255 48.7026 21.5695 48.2468 21.007 48.2468Z" fill="#FF5C00"/>
<path id="Vector_43" d="M21.007 8.2468H19.0312C18.4687 8.2468 18.0127 8.70255 18.0127 9.26476V11.433C18.0127 11.9952 18.4687 12.451 19.0312 12.451H21.007C21.5695 12.451 22.0255 11.9952 22.0255 11.433V9.26476C22.0255 8.70255 21.5695 8.2468 21.007 8.2468Z" fill="#FF5C00"/>
<path id="Vector_44" d="M46.007 8.29562H44.0312C43.4687 8.29562 43.0127 8.75138 43.0127 9.31359V11.4819C43.0127 12.0441 43.4687 12.4998 44.0312 12.4998H46.007C46.5695 12.4998 47.0255 12.0441 47.0255 11.4819V9.31359C47.0255 8.75138 46.5695 8.29562 46.007 8.29562Z" fill="#FF5C00"/>
<path id="Vector_45" d="M51.007 8.29562H49.0312C48.4687 8.29562 48.0127 8.75138 48.0127 9.31359V11.4819C48.0127 12.0441 48.4687 12.4998 49.0312 12.4998H51.007C51.5695 12.4998 52.0255 12.0441 52.0255 11.4819V9.31359C52.0255 8.75138 51.5695 8.29562 51.007 8.29562Z" fill="#FF5C00"/>
<path id="Vector_46" d="M31.007 28.3445H29.0312C28.4687 28.3445 28.0127 28.8002 28.0127 29.3624V31.5307C28.0127 32.0929 28.4687 32.5486 29.0312 32.5486H31.007C31.5695 32.5486 32.0255 32.0929 32.0255 31.5307V29.3624C32.0255 28.8002 31.5695 28.3445 31.007 28.3445Z" fill="#FF5C00"/>
<path id="Vector_47" d="M26.007 28.2956H24.0312C23.4687 28.2956 23.0127 28.7514 23.0127 29.3136V31.4819C23.0127 32.0441 23.4687 32.4998 24.0312 32.4998H26.007C26.5695 32.4998 27.0255 32.0441 27.0255 31.4819V29.3136C27.0255 28.7514 26.5695 28.2956 26.007 28.2956Z" fill="#FF5C00"/>
<path id="Vector_48" d="M21.007 28.2956H19.0312C18.4687 28.2956 18.0127 28.7514 18.0127 29.3136V31.4819C18.0127 32.0441 18.4687 32.4998 19.0312 32.4998H21.007C21.5695 32.4998 22.0255 32.0441 22.0255 31.4819V29.3136C22.0255 28.7514 21.5695 28.2956 21.007 28.2956Z" fill="#FF5C00"/>
<path id="Vector_49" d="M31.007 33.2956H29.0312C28.4687 33.2956 28.0127 33.7514 28.0127 34.3136V36.4819C28.0127 37.0441 28.4687 37.4998 29.0312 37.4998H31.007C31.5695 37.4998 32.0255 37.0441 32.0255 36.4819V34.3136C32.0255 33.7514 31.5695 33.2956 31.007 33.2956Z" fill="#FF5C00"/>
<path id="Vector_50" d="M31.007 23.2956H29.0312C28.4687 23.2956 28.0127 23.7514 28.0127 24.3136V26.4819C28.0127 27.0441 28.4687 27.4998 29.0312 27.4998H31.007C31.5695 27.4998 32.0255 27.0441 32.0255 26.4819V24.3136C32.0255 23.7514 31.5695 23.2956 31.007 23.2956Z" fill="#FF5C00"/>
<path id="Vector_51" d="M41.007 43.2956H39.0312C38.4687 43.2956 38.0127 43.7514 38.0127 44.3136V46.4819C38.0127 47.0441 38.4687 47.4998 39.0312 47.4998H41.007C41.5695 47.4998 42.0255 47.0441 42.0255 46.4819V44.3136C42.0255 43.7514 41.5695 43.2956 41.007 43.2956Z" fill="#FF5C00"/>
<path id="Vector_52" d="M11.007 43.2956H9.03117C8.46868 43.2956 8.0127 43.7514 8.0127 44.3136V46.4819C8.0127 47.0441 8.46868 47.4998 9.03117 47.4998H11.007C11.5695 47.4998 12.0255 47.0441 12.0255 46.4819V44.3136C12.0255 43.7514 11.5695 43.2956 11.007 43.2956Z" fill="#FF5C00"/>
<path id="Vector_53" d="M11.007 3.29562H9.03117C8.46868 3.29562 8.0127 3.75138 8.0127 4.31359V6.48185C8.0127 7.04406 8.46868 7.49982 9.03117 7.49982H11.007C11.5695 7.49982 12.0255 7.04406 12.0255 6.48185V4.31359C12.0255 3.75138 11.5695 3.29562 11.007 3.29562Z" fill="#FF5C00"/>
<path id="Vector_54" d="M41.007 13.2956H39.0312C38.4687 13.2956 38.0127 13.7514 38.0127 14.3136V16.4819C38.0127 17.0441 38.4687 17.4998 39.0312 17.4998H41.007C41.5695 17.4998 42.0255 17.0441 42.0255 16.4819V14.3136C42.0255 13.7514 41.5695 13.2956 41.007 13.2956Z" fill="#FF5C00"/>
<path id="Vector_55" d="M46.007 23.2956H44.0312C43.4687 23.2956 43.0127 23.7514 43.0127 24.3136V26.4819C43.0127 27.0441 43.4687 27.4998 44.0312 27.4998H46.007C46.5695 27.4998 47.0255 27.0441 47.0255 26.4819V24.3136C47.0255 23.7514 46.5695 23.2956 46.007 23.2956Z" fill="#FF5C00"/>
<path id="Vector_56" d="M6.007 23.2956H4.03117C3.46868 23.2956 3.0127 23.7514 3.0127 24.3136V26.4819C3.0127 27.0441 3.46868 27.4998 4.03117 27.4998H6.007C6.56949 27.4998 7.02547 27.0441 7.02547 26.4819V24.3136C7.02547 23.7514 6.56949 23.2956 6.007 23.2956Z" fill="#FF5C00"/>
<path id="Vector_57" d="M41.007 3.29562H39.0312C38.4687 3.29562 38.0127 3.75138 38.0127 4.31359V6.48185C38.0127 7.04406 38.4687 7.49982 39.0312 7.49982H41.007C41.5695 7.49982 42.0255 7.04406 42.0255 6.48185V4.31359C42.0255 3.75138 41.5695 3.29562 41.007 3.29562Z" fill="#FF5C00"/>
<path id="Vector_58" d="M46.007 33.2956H44.0312C43.4687 33.2956 43.0127 33.7514 43.0127 34.3136V36.4819C43.0127 37.0441 43.4687 37.4998 44.0312 37.4998H46.007C46.5695 37.4998 47.0255 37.0441 47.0255 36.4819V34.3136C47.0255 33.7514 46.5695 33.2956 46.007 33.2956Z" fill="#FF5C00"/>
<path id="Vector_59" d="M6.007 33.2956H4.03117C3.46868 33.2956 3.0127 33.7514 3.0127 34.3136V36.4819C3.0127 37.0441 3.46868 37.4998 4.03117 37.4998H6.007C6.56949 37.4998 7.02547 37.0441 7.02547 36.4819V34.3136C7.02547 33.7514 6.56949 33.2956 6.007 33.2956Z" fill="#FF5C00"/>
<path id="Vector_60" d="M46.007 53.2468H44.0312C43.4687 53.2468 43.0127 53.7026 43.0127 54.2648V56.433C43.0127 56.9952 43.4687 57.451 44.0312 57.451H46.007C46.5695 57.451 47.0255 56.9952 47.0255 56.433V54.2648C47.0255 53.7026 46.5695 53.2468 46.007 53.2468Z" fill="#FF5C00"/>
<path id="Vector_61" d="M16.007 53.2468H14.0312C13.4687 53.2468 13.0127 53.7026 13.0127 54.2648V56.433C13.0127 56.9952 13.4687 57.451 14.0312 57.451H16.007C16.5695 57.451 17.0255 56.9952 17.0255 56.433V54.2648C17.0255 53.7026 16.5695 53.2468 16.007 53.2468Z" fill="#FF5C00"/>
<path id="Vector_62" d="M16.007 13.2468H14.0312C13.4687 13.2468 13.0127 13.7026 13.0127 14.2648V16.433C13.0127 16.9952 13.4687 17.451 14.0312 17.451H16.007C16.5695 17.451 17.0255 16.9952 17.0255 16.433V14.2648C17.0255 13.7026 16.5695 13.2468 16.007 13.2468Z" fill="#FF5C00"/>
<path id="Vector_63" d="M51.007 53.2468H49.0312C48.4687 53.2468 48.0127 53.7026 48.0127 54.2648V56.433C48.0127 56.9952 48.4687 57.451 49.0312 57.451H51.007C51.5695 57.451 52.0255 56.9952 52.0255 56.433V54.2648C52.0255 53.7026 51.5695 53.2468 51.007 53.2468Z" fill="#FF5C00"/>
<path id="Vector_64" d="M21.007 53.2468H19.0312C18.4687 53.2468 18.0127 53.7026 18.0127 54.2648V56.433C18.0127 56.9952 18.4687 57.451 19.0312 57.451H21.007C21.5695 57.451 22.0255 56.9952 22.0255 56.433V54.2648C22.0255 53.7026 21.5695 53.2468 21.007 53.2468Z" fill="#FF5C00"/>
<path id="Vector_65" d="M21.007 13.2468H19.0312C18.4687 13.2468 18.0127 13.7026 18.0127 14.2648V16.433C18.0127 16.9952 18.4687 17.451 19.0312 17.451H21.007C21.5695 17.451 22.0255 16.9952 22.0255 16.433V14.2648C22.0255 13.7026 21.5695 13.2468 21.007 13.2468Z" fill="#FF5C00"/>
</g>
</svg>
