<svg width="60" height="60" viewBox="0 0 60 60" fill="none" xmlns="http://www.w3.org/2000/svg">
<g id="Group 40125">
<path id="Vector" d="M12.9943 55.2466H11.0185C10.456 55.2466 10 55.7023 10 56.2645V58.4328C10 58.995 10.456 59.4507 11.0185 59.4507H12.9943C13.5568 59.4507 14.0128 58.995 14.0128 58.4328V56.2645C14.0128 55.7023 13.5568 55.2466 12.9943 55.2466Z" fill="#FF5C00"/>
<path id="Vector_2" d="M2.99431 10.3447H1.01847C0.455985 10.3447 0 10.8005 0 11.3627V13.5309C0 14.0931 0.455985 14.5489 1.01847 14.5489H2.99431C3.55679 14.5489 4.01278 14.0931 4.01278 13.5309V11.3627C4.01278 10.8005 3.55679 10.3447 2.99431 10.3447Z" fill="#FF5C00"/>
<path id="Vector_3" d="M7.99431 10.2956H6.01847C5.45598 10.2956 5 10.7514 5 11.3136V13.4819C5 14.0441 5.45598 14.4998 6.01847 14.4998H7.99431C8.55679 14.4998 9.01278 14.0441 9.01278 13.4819V11.3136C9.01278 10.7514 8.55679 10.2956 7.99431 10.2956Z" fill="#FF5C00"/>
<path id="Vector_4" d="M57.9943 30.2956H56.0185C55.456 30.2956 55 30.7514 55 31.3136V33.4819C55 34.0441 55.456 34.4998 56.0185 34.4998H57.9943C58.5568 34.4998 59.0128 34.0441 59.0128 33.4819V31.3136C59.0128 30.7514 58.5568 30.2956 57.9943 30.2956Z" fill="#FF5C00"/>
<path id="Vector_5" d="M47.9943 55.2466H46.0185C45.456 55.2466 45 55.7023 45 56.2645V58.4328C45 58.995 45.456 59.4507 46.0185 59.4507H47.9943C48.5568 59.4507 49.0128 58.995 49.0128 58.4328V56.2645C49.0128 55.7023 48.5568 55.2466 47.9943 55.2466Z" fill="#FF5C00"/>
<path id="Vector_6" d="M47.9943 50.2956H46.0185C45.456 50.2956 45 50.7514 45 51.3136V53.4819C45 54.0441 45.456 54.4998 46.0185 54.4998H47.9943C48.5568 54.4998 49.0128 54.0441 49.0128 53.4819V51.3136C49.0128 50.7514 48.5568 50.2956 47.9943 50.2956Z" fill="#FF5C00"/>
<path id="Vector_7" d="M42.9943 50.2956H41.0185C40.456 50.2956 40 50.7514 40 51.3136V53.4819C40 54.0441 40.456 54.4998 41.0185 54.4998H42.9943C43.5568 54.4998 44.0128 54.0441 44.0128 53.4819V51.3136C44.0128 50.7514 43.5568 50.2956 42.9943 50.2956Z" fill="#FF5C00"/>
<path id="Vector_8" d="M42.9943 45.2956H41.0185C40.456 45.2956 40 45.7514 40 46.3136V48.4819C40 49.0441 40.456 49.4998 41.0185 49.4998H42.9943C43.5568 49.4998 44.0128 49.0441 44.0128 48.4819V46.3136C44.0128 45.7514 43.5568 45.2956 42.9943 45.2956Z" fill="#FF5C00"/>
<path id="Vector_9" d="M37.9943 45.2956H36.0185C35.456 45.2956 35 45.7514 35 46.3136V48.4819C35 49.0441 35.456 49.4998 36.0185 49.4998H37.9943C38.5568 49.4998 39.0128 49.0441 39.0128 48.4819V46.3136C39.0128 45.7514 38.5568 45.2956 37.9943 45.2956Z" fill="#FF5C00"/>
<path id="Vector_10" d="M12.9943 15.2956H11.0185C10.456 15.2956 10 15.7514 10 16.3136V18.4819C10 19.0441 10.456 19.4998 11.0185 19.4998H12.9943C13.5568 19.4998 14.0128 19.0441 14.0128 18.4819V16.3136C14.0128 15.7514 13.5568 15.2956 12.9943 15.2956Z" fill="#FF5C00"/>
<path id="Vector_11" d="M17.9943 15.2956H16.0185C15.456 15.2956 15 15.7514 15 16.3136V18.4819C15 19.0441 15.456 19.4998 16.0185 19.4998H17.9943C18.5568 19.4998 19.0128 19.0441 19.0128 18.4819V16.3136C19.0128 15.7514 18.5568 15.2956 17.9943 15.2956Z" fill="#FF5C00"/>
<path id="Vector_12" d="M17.9943 20.2956H16.0185C15.456 20.2956 15 20.7514 15 21.3136V23.4819C15 24.0441 15.456 24.4998 16.0185 24.4998H17.9943C18.5568 24.4998 19.0128 24.0441 19.0128 23.4819V21.3136C19.0128 20.7514 18.5568 20.2956 17.9943 20.2956Z" fill="#FF5C00"/>
<path id="Vector_13" d="M12.9943 20.2956H11.0185C10.456 20.2956 10 20.7514 10 21.3136V23.4819C10 24.0441 10.456 24.4998 11.0185 24.4998H12.9943C13.5568 24.4998 14.0128 24.0441 14.0128 23.4819V21.3136C14.0128 20.7514 13.5568 20.2956 12.9943 20.2956Z" fill="#FF5C00"/>
<path id="Vector_14" d="M37.9943 20.2956H36.0185C35.456 20.2956 35 20.7514 35 21.3136V23.4819C35 24.0441 35.456 24.4998 36.0185 24.4998H37.9943C38.5568 24.4998 39.0128 24.0441 39.0128 23.4819V21.3136C39.0128 20.7514 38.5568 20.2956 37.9943 20.2956Z" fill="#FF5C00"/>
<path id="Vector_15" d="M12.9943 5.29562H11.0185C10.456 5.29562 10 5.75138 10 6.31359V8.48185C10 9.04406 10.456 9.49982 11.0185 9.49982H12.9943C13.5568 9.49982 14.0128 9.04406 14.0128 8.48185V6.31359C14.0128 5.75138 13.5568 5.29562 12.9943 5.29562Z" fill="#FF5C00"/>
<path id="Vector_16" d="M7.99431 55.2466H6.01847C5.45598 55.2466 5 55.7023 5 56.2645V58.4328C5 58.995 5.45598 59.4507 6.01847 59.4507H7.99431C8.55679 59.4507 9.01278 58.995 9.01278 58.4328V56.2645C9.01278 55.7023 8.55679 55.2466 7.99431 55.2466Z" fill="#FF5C00"/>
<path id="Vector_17" d="M37.9943 0.295624H36.0185C35.456 0.295624 35 0.751382 35 1.31359V3.48185C35 4.04406 35.456 4.49982 36.0185 4.49982H37.9943C38.5568 4.49982 39.0128 4.04406 39.0128 3.48185V1.31359C39.0128 0.751382 38.5568 0.295624 37.9943 0.295624Z" fill="#FF5C00"/>
<path id="Vector_18" d="M2.99431 0.344696H1.01847C0.455985 0.344696 0 0.800454 0 1.36266V3.53092C0 4.09313 0.455985 4.54889 1.01847 4.54889H2.99431C3.55679 4.54889 4.01278 4.09313 4.01278 3.53092V1.36266C4.01278 0.800454 3.55679 0.344696 2.99431 0.344696Z" fill="#FF5C00"/>
<path id="Vector_19" d="M2.99431 45.2956H1.01847C0.455985 45.2956 0 45.7514 0 46.3136V48.4819C0 49.0441 0.455985 49.4998 1.01847 49.4998H2.99431C3.55679 49.4998 4.01278 49.0441 4.01278 48.4819V46.3136C4.01278 45.7514 3.55679 45.2956 2.99431 45.2956Z" fill="#FF5C00"/>
<path id="Vector_20" d="M57.9943 20.2956H56.0185C55.456 20.2956 55 20.7514 55 21.3136V23.4819C55 24.0441 55.456 24.4998 56.0185 24.4998H57.9943C58.5568 24.4998 59.0128 24.0441 59.0128 23.4819V21.3136C59.0128 20.7514 58.5568 20.2956 57.9943 20.2956Z" fill="#FF5C00"/>
<path id="Vector_21" d="M32.9631 5.29562H30.9872C30.4247 5.29562 29.9688 5.75138 29.9688 6.31359V8.48185C29.9688 9.04406 30.4247 9.49982 30.9872 9.49982H32.9631C33.5255 9.49982 33.9815 9.04406 33.9815 8.48185V6.31359C33.9815 5.75138 33.5255 5.29562 32.9631 5.29562Z" fill="#FF5C00"/>
<path id="Vector_22" d="M32.9943 45.2466H31.0185C30.456 45.2466 30 45.7023 30 46.2645V48.4328C30 48.995 30.456 49.4507 31.0185 49.4507H32.9943C33.5568 49.4507 34.0128 48.995 34.0128 48.4328V46.2645C34.0128 45.7023 33.5568 45.2466 32.9943 45.2466Z" fill="#FF5C00"/>
<path id="Vector_23" d="M22.9943 20.2956H21.0185C20.456 20.2956 20 20.7514 20 21.3136V23.4819C20 24.0441 20.456 24.4998 21.0185 24.4998H22.9943C23.5568 24.4998 24.0128 24.0441 24.0128 23.4819V21.3136C24.0128 20.7514 23.5568 20.2956 22.9943 20.2956Z" fill="#FF5C00"/>
<path id="Vector_24" d="M47.9943 20.2956H46.0185C45.456 20.2956 45 20.7514 45 21.3136V23.4819C45 24.0441 45.456 24.4998 46.0185 24.4998H47.9943C48.5568 24.4998 49.0128 24.0441 49.0128 23.4819V21.3136C49.0128 20.7514 48.5568 20.2956 47.9943 20.2956Z" fill="#FF5C00"/>
<path id="Vector_25" d="M22.9943 45.2466H21.0185C20.456 45.2466 20 45.7023 20 46.2645V48.4328C20 48.995 20.456 49.4507 21.0185 49.4507H22.9943C23.5568 49.4507 24.0128 48.995 24.0128 48.4328V46.2645C24.0128 45.7023 23.5568 45.2466 22.9943 45.2466Z" fill="#FF5C00"/>
<path id="Vector_26" d="M47.9943 45.2466H46.0185C45.456 45.2466 45 45.7023 45 46.2645V48.4328C45 48.995 45.456 49.4507 46.0185 49.4507H47.9943C48.5568 49.4507 49.0128 48.995 49.0128 48.4328V46.2645C49.0128 45.7023 48.5568 45.2466 47.9943 45.2466Z" fill="#FF5C00"/>
<path id="Vector_27" d="M52.9943 45.2956H51.0185C50.456 45.2956 50 45.7514 50 46.3136V48.4819C50 49.0441 50.456 49.4998 51.0185 49.4998H52.9943C53.5568 49.4998 54.0128 49.0441 54.0128 48.4819V46.3136C54.0128 45.7514 53.5568 45.2956 52.9943 45.2956Z" fill="#FF5C00"/>
<path id="Vector_28" d="M57.9943 45.2956H56.0185C55.456 45.2956 55 45.7514 55 46.3136V48.4819C55 49.0441 55.456 49.4998 56.0185 49.4998H57.9943C58.5568 49.4998 59.0128 49.0441 59.0128 48.4819V46.3136C59.0128 45.7514 58.5568 45.2956 57.9943 45.2956Z" fill="#FF5C00"/>
<path id="Vector_29" d="M57.9943 50.2956H56.0185C55.456 50.2956 55 50.7514 55 51.3136V53.4819C55 54.0441 55.456 54.4998 56.0185 54.4998H57.9943C58.5568 54.4998 59.0128 54.0441 59.0128 53.4819V51.3136C59.0128 50.7514 58.5568 50.2956 57.9943 50.2956Z" fill="#FF5C00"/>
<path id="Vector_30" d="M57.9943 55.2956H56.0185C55.456 55.2956 55 55.7514 55 56.3136V58.4819C55 59.0441 55.456 59.4998 56.0185 59.4998H57.9943C58.5568 59.4998 59.0128 59.0441 59.0128 58.4819V56.3136C59.0128 55.7514 58.5568 55.2956 57.9943 55.2956Z" fill="#FF5C00"/>
<path id="Vector_31" d="M37.9943 15.3447H36.0185C35.456 15.3447 35 15.8005 35 16.3627V18.5309C35 19.0931 35.456 19.5489 36.0185 19.5489H37.9943C38.5568 19.5489 39.0128 19.0931 39.0128 18.5309V16.3627C39.0128 15.8005 38.5568 15.3447 37.9943 15.3447Z" fill="#FF5C00"/>
<path id="Vector_32" d="M12.9943 35.3447H11.0185C10.456 35.3447 10 35.8005 10 36.3627V38.5309C10 39.0931 10.456 39.5489 11.0185 39.5489H12.9943C13.5568 39.5489 14.0128 39.0931 14.0128 38.5309V36.3627C14.0128 35.8005 13.5568 35.3447 12.9943 35.3447Z" fill="#FF5C00"/>
<path id="Vector_33" d="M37.9943 40.2956H36.0185C35.456 40.2956 35 40.7514 35 41.3136V43.4819C35 44.0441 35.456 44.4998 36.0185 44.4998H37.9943C38.5568 44.4998 39.0128 44.0441 39.0128 43.4819V41.3136C39.0128 40.7514 38.5568 40.2956 37.9943 40.2956Z" fill="#FF5C00"/>
<path id="Vector_34" d="M57.9943 15.3447H56.0185C55.456 15.3447 55 15.8005 55 16.3627V18.5309C55 19.0931 55.456 19.5489 56.0185 19.5489H57.9943C58.5568 19.5489 59.0128 19.0931 59.0128 18.5309V16.3627C59.0128 15.8005 58.5568 15.3447 57.9943 15.3447Z" fill="#FF5C00"/>
<path id="Vector_35" d="M32.9943 40.2956H31.0185C30.456 40.2956 30 40.7514 30 41.3136V43.4819C30 44.0441 30.456 44.4998 31.0185 44.4998H32.9943C33.5568 44.4998 34.0128 44.0441 34.0128 43.4819V41.3136C34.0128 40.7514 33.5568 40.2956 32.9943 40.2956Z" fill="#FF5C00"/>
<path id="Vector_36" d="M22.9943 15.3447H21.0185C20.456 15.3447 20 15.8005 20 16.3627V18.5309C20 19.0931 20.456 19.5489 21.0185 19.5489H22.9943C23.5568 19.5489 24.0128 19.0931 24.0128 18.5309V16.3627C24.0128 15.8005 23.5568 15.3447 22.9943 15.3447Z" fill="#FF5C00"/>
<path id="Vector_37" d="M47.9943 40.2956H46.0185C45.456 40.2956 45 40.7514 45 41.3136V43.4819C45 44.0441 45.456 44.4998 46.0185 44.4998H47.9943C48.5568 44.4998 49.0128 44.0441 49.0128 43.4819V41.3136C49.0128 40.7514 48.5568 40.2956 47.9943 40.2956Z" fill="#FF5C00"/>
<path id="Vector_38" d="M7.99431 15.3447H6.01847C5.45598 15.3447 5 15.8005 5 16.3627V18.5309C5 19.0931 5.45598 19.5489 6.01847 19.5489H7.99431C8.55679 19.5489 9.01278 19.0931 9.01278 18.5309V16.3627C9.01278 15.8005 8.55679 15.3447 7.99431 15.3447Z" fill="#FF5C00"/>
<path id="Vector_39" d="M12.9943 10.2956H11.0185C10.456 10.2956 10 10.7514 10 11.3136V13.4819C10 14.0441 10.456 14.4998 11.0185 14.4998H12.9943C13.5568 14.4998 14.0128 14.0441 14.0128 13.4819V11.3136C14.0128 10.7514 13.5568 10.2956 12.9943 10.2956Z" fill="#FF5C00"/>
<path id="Vector_40" d="M37.9943 50.2956H36.0185C35.456 50.2956 35 50.7514 35 51.3136V53.4819C35 54.0441 35.456 54.4998 36.0185 54.4998H37.9943C38.5568 54.4998 39.0128 54.0441 39.0128 53.4819V51.3136C39.0128 50.7514 38.5568 50.2956 37.9943 50.2956Z" fill="#FF5C00"/>
<path id="Vector_41" d="M2.99431 5.39377H1.01847C0.455985 5.39377 0 5.84953 0 6.41173V8.58C0 9.1422 0.455985 9.59796 1.01847 9.59796H2.99431C3.55679 9.59796 4.01278 9.1422 4.01278 8.58V6.41173C4.01278 5.84953 3.55679 5.39377 2.99431 5.39377Z" fill="#FF5C00"/>
<path id="Vector_42" d="M7.99431 5.29562H6.01847C5.45598 5.29562 5 5.75138 5 6.31359V8.48185C5 9.04406 5.45598 9.49982 6.01847 9.49982H7.99431C8.55679 9.49982 9.01278 9.04406 9.01278 8.48185V6.31359C9.01278 5.75138 8.55679 5.29562 7.99431 5.29562Z" fill="#FF5C00"/>
<path id="Vector_43" d="M2.99431 50.3447H1.01847C0.455985 50.3447 0 50.8005 0 51.3627V53.5309C0 54.0931 0.455985 54.5489 1.01847 54.5489H2.99431C3.55679 54.5489 4.01278 54.0931 4.01278 53.5309V51.3627C4.01278 50.8005 3.55679 50.3447 2.99431 50.3447Z" fill="#FF5C00"/>
<path id="Vector_44" d="M57.9943 25.3447H56.0185C55.456 25.3447 55 25.8005 55 26.3627V28.5309C55 29.0931 55.456 29.5489 56.0185 29.5489H57.9943C58.5568 29.5489 59.0128 29.0931 59.0128 28.5309V26.3627C59.0128 25.8005 58.5568 25.3447 57.9943 25.3447Z" fill="#FF5C00"/>
<path id="Vector_45" d="M22.9943 25.3447H21.0185C20.456 25.3447 20 25.8005 20 26.3627V28.5309C20 29.0931 20.456 29.5489 21.0185 29.5489H22.9943C23.5568 29.5489 24.0128 29.0931 24.0128 28.5309V26.3627C24.0128 25.8005 23.5568 25.3447 22.9943 25.3447Z" fill="#FF5C00"/>
<path id="Vector_46" d="M47.9943 5.3447H46.0185C45.456 5.3447 45 5.80045 45 6.36266V8.53092C45 9.09313 45.456 9.54889 46.0185 9.54889H47.9943C48.5568 9.54889 49.0128 9.09313 49.0128 8.53092V6.36266C49.0128 5.80045 48.5568 5.3447 47.9943 5.3447Z" fill="#FF5C00"/>
<path id="Vector_47" d="M18.0256 10.3871H16.0497C15.4872 10.3871 15.0312 10.8428 15.0312 11.405V13.5733C15.0312 14.1355 15.4872 14.5912 16.0497 14.5912H18.0256C18.588 14.5912 19.044 14.1355 19.044 13.5733V11.405C19.044 10.8428 18.588 10.3871 18.0256 10.3871Z" fill="#FF5C00"/>
<path id="Vector_48" d="M43.0256 10.3871H41.0497C40.4872 10.3871 40.0312 10.8428 40.0312 11.405V13.5733C40.0312 14.1355 40.4872 14.5912 41.0497 14.5912H43.0256C43.588 14.5912 44.044 14.1355 44.044 13.5733V11.405C44.044 10.8428 43.588 10.3871 43.0256 10.3871Z" fill="#FF5C00"/>
<path id="Vector_49" d="M43.0256 55.338H41.0497C40.4872 55.338 40.0312 55.7937 40.0312 56.3559V58.5242C40.0312 59.0864 40.4872 59.5422 41.0497 59.5422H43.0256C43.588 59.5422 44.044 59.0864 44.044 58.5242V56.3559C44.044 55.7937 43.588 55.338 43.0256 55.338Z" fill="#FF5C00"/>
<path id="Vector_50" d="M18.0256 30.3871H16.0497C15.4872 30.3871 15.0312 30.8428 15.0312 31.405V33.5733C15.0312 34.1355 15.4872 34.5912 16.0497 34.5912H18.0256C18.588 34.5912 19.044 34.1355 19.044 33.5733V31.405C19.044 30.8428 18.588 30.3871 18.0256 30.3871Z" fill="#FF5C00"/>
<path id="Vector_51" d="M53.0256 55.338H51.0497C50.4872 55.338 50.0312 55.7937 50.0312 56.3559V58.5242C50.0312 59.0864 50.4872 59.5422 51.0497 59.5422H53.0256C53.588 59.5422 54.044 59.0864 54.044 58.5242V56.3559C54.044 55.7937 53.588 55.338 53.0256 55.338Z" fill="#FF5C00"/>
<path id="Vector_52" d="M43.0256 0.387054H41.0497C40.4872 0.387054 40.0312 0.842812 40.0312 1.40502V3.57328C40.0312 4.13549 40.4872 4.59125 41.0497 4.59125H43.0256C43.588 4.59125 44.044 4.13549 44.044 3.57328V1.40502C44.044 0.842812 43.588 0.387054 43.0256 0.387054Z" fill="#FF5C00"/>
<path id="Vector_53" d="M8.02556 0.436127H6.04972C5.48723 0.436127 5.03125 0.891885 5.03125 1.45409V3.62236C5.03125 4.18456 5.48723 4.64032 6.04972 4.64032H8.02556C8.58804 4.64032 9.04403 4.18456 9.04403 3.62236V1.45409C9.04403 0.891885 8.58804 0.436127 8.02556 0.436127Z" fill="#FF5C00"/>
<path id="Vector_54" d="M42.9943 40.2956H41.0185C40.456 40.2956 40 40.7514 40 41.3136V43.4819C40 44.0441 40.456 44.4998 41.0185 44.4998H42.9943C43.5568 44.4998 44.0128 44.0441 44.0128 43.4819V41.3136C44.0128 40.7514 43.5568 40.2956 42.9943 40.2956Z" fill="#FF5C00"/>
<path id="Vector_55" d="M8.02556 40.4362H6.04972C5.48723 40.4362 5.03125 40.892 5.03125 41.4542V43.6225C5.03125 44.1847 5.48723 44.6404 6.04972 44.6404H8.02556C8.58804 44.6404 9.04403 44.1847 9.04403 43.6225V41.4542C9.04403 40.892 8.58804 40.4362 8.02556 40.4362Z" fill="#FF5C00"/>
<path id="Vector_56" d="M53.0256 15.4362H51.0497C50.4872 15.4362 50.0312 15.892 50.0312 16.4542V18.6225C50.0312 19.1847 50.4872 19.6404 51.0497 19.6404H53.0256C53.588 19.6404 54.044 19.1847 54.044 18.6225V16.4542C54.044 15.892 53.588 15.4362 53.0256 15.4362Z" fill="#FF5C00"/>
<path id="Vector_57" d="M52.9943 35.2956H51.0185C50.456 35.2956 50 35.7514 50 36.3136V38.4819C50 39.0441 50.456 39.4998 51.0185 39.4998H52.9943C53.5568 39.4998 54.0128 39.0441 54.0128 38.4819V36.3136C54.0128 35.7514 53.5568 35.2956 52.9943 35.2956Z" fill="#FF5C00"/>
<path id="Vector_58" d="M28.0256 40.3872H26.0497C25.4872 40.3872 25.0312 40.8429 25.0312 41.4051V43.5734C25.0312 44.1356 25.4872 44.5914 26.0497 44.5914H28.0256C28.588 44.5914 29.044 44.1356 29.044 43.5734V41.4051C29.044 40.8429 28.588 40.3872 28.0256 40.3872Z" fill="#FF5C00"/>
<path id="Vector_59" d="M18.0256 25.4362H16.0497C15.4872 25.4362 15.0312 25.892 15.0312 26.4542V28.6225C15.0312 29.1847 15.4872 29.6404 16.0497 29.6404H18.0256C18.588 29.6404 19.044 29.1847 19.044 28.6225V26.4542C19.044 25.892 18.588 25.4362 18.0256 25.4362Z" fill="#FF5C00"/>
<path id="Vector_60" d="M43.0256 25.4362H41.0497C40.4872 25.4362 40.0312 25.892 40.0312 26.4542V28.6225C40.0312 29.1847 40.4872 29.6404 41.0497 29.6404H43.0256C43.588 29.6404 44.044 29.1847 44.044 28.6225V26.4542C44.044 25.892 43.588 25.4362 43.0256 25.4362Z" fill="#FF5C00"/>
<path id="Vector_61" d="M18.0256 50.3872H16.0497C15.4872 50.3872 15.0312 50.8429 15.0312 51.4051V53.5734C15.0312 54.1356 15.4872 54.5914 16.0497 54.5914H18.0256C18.588 54.5914 19.044 54.1356 19.044 53.5734V51.4051C19.044 50.8429 18.588 50.3872 18.0256 50.3872Z" fill="#FF5C00"/>
<path id="Vector_62" d="M27.9943 10.4362H26.0185C25.456 10.4362 25 10.892 25 11.4542V13.6225C25 14.1847 25.456 14.6404 26.0185 14.6404H27.9943C28.5568 14.6404 29.0128 14.1847 29.0128 13.6225V11.4542C29.0128 10.892 28.5568 10.4362 27.9943 10.4362Z" fill="#FF5C00"/>
<path id="Vector_63" d="M53.0256 50.3872H51.0497C50.4872 50.3872 50.0312 50.8429 50.0312 51.4051V53.5734C50.0312 54.1356 50.4872 54.5914 51.0497 54.5914H53.0256C53.588 54.5914 54.044 54.1356 54.044 53.5734V51.4051C54.044 50.8429 53.588 50.3872 53.0256 50.3872Z" fill="#FF5C00"/>
</g>
</svg>
