<svg width="90" height="54" viewBox="0 0 90 54" fill="none" xmlns="http://www.w3.org/2000/svg">
<path d="M40 27C40 15.9543 31.0457 7 20 7C8.9543 7 0 15.9543 0 27C0 38.0457 8.9543 47 20 47C31.0457 47 40 38.0457 40 27Z" fill="url(#paint0_linear_2957_34494)"/>
<path d="M89.1393 36.0917C89.2737 35.9677 88.9584 35.9212 88.6999 35.9832L80.569 37.9423C78.2326 38.5057 76.1184 38.3454 75.7566 37.6114L75.2035 36.5001C74.8365 35.7661 76.444 34.7116 78.6926 34.1688L86.3894 32.3131C86.7357 32.2304 86.8546 32.0805 86.6426 32.0392C83.6859 31.3517 78.9562 31.5791 74.0249 32.768C69.962 33.745 66.6124 35.1923 64.55 36.6913C63.3352 37.5597 61.4227 38.3868 59.1741 38.9296L16.188 49.2781C12.9005 50.0689 10.7243 51.537 11.2257 52.5398C11.7374 53.5684 14.7407 53.7597 18.023 52.9688L60.3992 42.765C62.7356 42.2016 65.1599 42.0155 66.9122 42.2274C69.9051 42.5996 74.0249 42.3101 78.2584 41.2867C83.4482 40.0357 87.5576 37.9836 89.1341 36.0866L89.1393 36.0917Z" fill="#1B263E"/>
<path d="M59.7737 41.4934L58.7399 41.7002L57.7526 33.9931C59.4997 33.6312 60.885 33.3314 61.2831 33.2229C61.2831 33.2229 61.2831 33.2229 61.2882 33.2229C61.2882 33.2229 61.3037 33.2229 61.3141 33.2125H61.3192C61.3296 33.2125 61.3451 33.2022 61.3606 33.2022V33.1505C62.503 30.8348 73.3115 26.6581 78.6874 29.9353C80.419 30.9898 81.4373 28.2296 78.3876 27.144C72.8618 25.1746 60.487 27.5731 60.487 27.5731C58.9466 27.7953 47.5385 30.1059 46.8665 30.3385C46.5615 30.4419 45.3054 31.2069 43.9718 32.0547L40.5757 32.7422C40.555 32.6905 36.854 32.2821 36.7661 32.3028L32.2845 33.2074C32.1966 33.2281 32.1346 33.3263 32.1449 33.4297L32.8427 38.883C32.8531 38.9864 32.941 39.0536 33.0288 39.0381L37.5104 38.1335C37.5983 38.118 41.0254 36.2623 41.0202 36.2106L44.468 35.5128C45.9257 35.7868 47.2852 36.009 47.5953 35.9935C47.8331 35.978 49.327 35.6989 51.2344 35.3267L52.2217 43.0338L51.1878 43.2406" fill="#1B263E"/>
<path d="M59.9598 41.4521L58.926 41.6588L52.4181 42.9718L51.3792 43.1785L51.7048 53.8062C54.5995 53.496 59.7531 52.457 62.3066 51.6662L59.9547 41.4469L59.9598 41.4521Z" fill="#1B263E"/>
<path d="M55.9486 9.88962C55.8866 9.64667 55.5402 9.61566 55.4007 9.77073L51.038 14.6607C49.787 16.0667 47.6677 16.1339 46.2617 14.883L44.1321 12.9807C42.7261 11.7298 42.6072 9.56397 43.8116 8.20967L47.9417 3.58333C48.1278 3.37657 48.014 3.0871 47.7608 3.05092C44.1166 2.32208 40.2346 3.53164 37.5932 6.49353C35.4118 8.93851 34.5537 12.0968 34.9259 15.1362C35.1275 16.9041 34.6364 18.7081 33.4321 20.0572L10.3676 45.9078C8.60493 47.8824 8.82721 50.8805 10.7501 52.5966C11.541 53.2996 12.4869 53.6976 13.4484 53.7907C14.8957 53.9354 16.3844 53.3978 17.4389 52.2141L40.1725 26.7305C41.4235 25.3245 43.305 24.575 45.1866 24.668C48.4017 24.8283 51.6427 23.6084 53.9171 21.06C56.7033 17.9379 57.3391 13.5597 55.9434 9.88962H55.9486Z" fill="#727272"/>
<path d="M55.9486 9.07291C55.8866 8.82996 55.5402 8.79895 55.4007 8.95402L51.038 13.844C49.787 15.25 47.6677 15.3172 46.2617 14.0662L44.1321 12.164C42.7261 10.9131 42.6072 8.74725 43.8116 7.39295L47.9417 2.76662C48.1278 2.55986 48.014 2.27039 47.7608 2.23421C44.1166 1.50537 40.2346 2.71493 37.5932 5.67682C35.4118 8.12179 34.5537 11.2801 34.9259 14.3195C35.1275 16.0874 34.6364 17.8914 33.4321 19.2405L10.3676 45.0911C8.60493 47.0657 8.82721 50.0638 10.7501 51.7799C12.7247 53.5425 15.6762 53.3771 17.4389 51.3974L40.1725 25.9138C41.4235 24.5078 43.305 23.7583 45.1866 23.8513C48.4017 24.0116 51.6427 22.7917 53.9171 20.2433C56.7033 17.1212 57.3391 12.743 55.9434 9.07291H55.9486Z" fill="#E2E2E1"/>
<path d="M40.7256 30.5194L40.1105 31.0674L27.8753 17.4055C28.8988 16.4595 29.6948 15.6842 29.886 15.4257C29.886 15.4257 29.886 15.4257 29.886 15.4206C29.886 15.4206 29.8912 15.4102 29.8964 15.3999V15.3947C29.9016 15.3895 29.9119 15.374 29.9171 15.3689L29.8344 15.2758C27.4514 10.9286 30.925 1.60359 40.5447 6.57625C43.641 8.17866 40.4827 3.05093 36.1665 1.61909C28.3457 -0.980956 20.8505 5.41837 20.8505 5.41837C19.8063 6.08001 13.04 12.1537 12.7815 12.6861C12.6678 12.9239 12.6678 14.5056 12.7299 16.2528L10.7139 18.0568C10.6157 17.9637 6.71821 17.8604 6.66652 17.9069L4.01478 20.2847C3.96309 20.3364 4.05096 20.5224 4.21637 20.7034L12.8746 30.3695C13.04 30.5505 13.2157 30.6642 13.2674 30.6125L15.9295 28.2295C15.9812 28.183 16.3069 24.2804 16.2242 24.1873L18.2711 22.3471C19.9769 22.5952 21.5173 22.7658 21.7602 22.6779C21.9515 22.6107 22.8664 21.8561 24.0191 20.8636L36.2544 34.5255L35.6392 35.0734" fill="#727272"/>
<path d="M40.8394 30.4161L40.2242 30.964L36.3629 34.4273L35.7478 34.9752L51.6996 53.9923C53.8241 52.9481 56.8842 50.2033 57.9955 48.3528L40.8445 30.4109L40.8394 30.4161Z" fill="#727272"/>
<path d="M40.7669 29.5218L40.1518 30.0697L27.9166 16.4078C28.9401 15.4619 29.7361 14.6865 29.9274 14.4281C29.9274 14.4281 29.9274 14.4281 29.9274 14.4229C29.9274 14.4229 29.9325 14.4126 29.9377 14.4022V14.3971C29.9429 14.3919 29.9532 14.3764 29.9584 14.3712L29.8757 14.2782C27.4927 9.93098 30.9663 0.605952 40.586 5.57861C43.6823 7.18103 40.524 2.0533 36.2078 0.621459C28.387 -1.97859 20.8918 4.42074 20.8918 4.42074C19.8476 5.08238 13.0813 11.1561 12.8228 11.6885C12.7091 11.9262 12.7091 13.508 12.7712 15.2551L10.7552 17.0591C10.657 16.9661 6.75951 16.8627 6.70782 16.9092L4.05091 19.287C3.99922 19.3387 4.0871 19.5248 4.25251 19.7057L12.9107 29.3719C13.0761 29.5528 13.2519 29.6665 13.3036 29.6149L15.9657 27.2319C16.0173 27.1854 16.343 23.2827 16.2603 23.1897L18.3072 21.3495C20.013 21.5976 21.5534 21.7682 21.7964 21.6803C21.9876 21.6131 22.9026 20.8584 24.0553 19.866L36.2905 33.5279L35.6754 34.0758" fill="#C7C6C6"/>
<path d="M40.8806 29.4184L40.2655 29.9664L36.4042 33.4296L35.7891 33.9776L51.7409 52.9946C53.8654 51.9505 56.9255 49.2057 58.0368 47.3552L40.8858 29.4133L40.8806 29.4184Z" fill="#E41815"/>
<defs>
<linearGradient id="paint0_linear_2957_34494" x1="20" y1="7" x2="20" y2="47" gradientUnits="userSpaceOnUse">
<stop stop-color="#FF5C00"/>
<stop offset="1" stop-color="#FF5C00" stop-opacity="0"/>
</linearGradient>
</defs>
</svg>
