<svg width="81" height="50" viewBox="0 0 81 50" fill="none" xmlns="http://www.w3.org/2000/svg">
<rect y="5" width="40" height="40" rx="20" fill="url(#paint0_linear_441_16286)"/>
<path d="M74.1756 30.9876C74.5706 30.5933 77.4136 26.9844 78.7125 25.8043C80.0113 24.6243 80.2237 24.1672 80.3943 23.7728C80.5649 23.3785 79.5444 23.3367 79.5444 23.3367C76.2196 23.6832 59.8827 22.8706 59.7271 22.8647C59.5834 22.8497 44.1653 21.2215 42.0974 20.4627C42.0974 20.4627 41.1487 20.3552 40.4754 20.7077C39.802 21.0602 39.0209 21.4785 37.6563 22.6496C36.2916 23.8236 31.1563 27.2563 30.6625 27.6416C30.1687 28.03 27.0743 30.5754 25.8144 32.4246C24.5545 34.2739 21.3793 39.7679 21.5708 40.8195C21.7623 41.8711 23.9589 47.3382 24.6053 47.8759C25.2518 48.4107 26.8438 49.4444 29.2829 49.7252H29.2888C31.9224 49.8357 35.4148 49.1934 37.0727 48.8349C38.7336 48.4764 51.9851 44.1923 54.3343 43.3379C56.6836 42.4835 65.473 37.4197 68.2741 35.6899C71.0722 33.9572 73.7806 31.382 74.1756 30.9876ZM38.8204 32.1109C36.1031 31.8211 34.4093 31.1699 35.0407 30.656C35.6692 30.1422 38.3835 29.9629 41.1008 30.2527C43.8182 30.5425 45.512 31.1938 44.8805 31.7076C44.2491 32.2215 41.5378 32.4007 38.8204 32.1109ZM58.4373 33.6166C55.5493 33.4762 53.646 32.9415 54.1877 32.4216C54.7294 31.9018 57.5065 31.5941 60.3944 31.7345C63.2824 31.8749 65.1857 32.4097 64.644 32.9295C64.1023 33.4493 61.3252 33.757 58.4373 33.6166Z" fill="#1E2734"/>
<path d="M51.754 13.3256C51.7032 12.6205 50.554 6.296 50.521 4.18385C50.4881 2.07169 50.2008 1.28598 49.9495 0.613797C49.6981 -0.0583885 48.7075 0.00136134 48.7075 0.00136134C45.9992 0.999183 30.0543 1.72813 29.9047 1.73709C29.7551 1.73112 13.8102 0.999183 11.1019 0.00136134C11.1049 0.00136134 10.1143 -0.055401 9.86291 0.613797C9.61153 1.28299 9.32423 2.07169 9.29131 4.18385C9.25839 6.296 8.10922 12.6235 8.05834 13.3256C8.00747 14.0306 7.81594 18.6284 8.58804 21.8489C9.36014 25.0664 12.1792 34.5517 13.4571 36.2605C14.7349 37.9694 22.4889 46.7347 23.6471 47.5383C24.8052 48.3419 27.3579 49.8476 29.9047 50H29.9107C32.4574 49.8476 35.0101 48.3419 36.1683 47.5383C37.3265 46.7347 45.0834 37.9694 46.3583 36.2605C47.6331 34.5517 50.4552 25.0664 51.2273 21.8489C51.9994 18.6313 51.8079 14.0306 51.757 13.3256H51.754ZM20.2684 19.671C17.4553 19.5366 15.2078 18.6732 15.2527 17.7471C15.2976 16.8179 17.6139 16.1756 20.43 16.3131C23.243 16.4475 25.4905 17.3109 25.4456 18.237C25.4007 19.1631 23.0844 19.8084 20.2684 19.671ZM39.969 19.671C37.1559 19.8054 34.8366 19.1631 34.7917 18.237C34.7468 17.3109 36.9913 16.4475 39.8074 16.3131C42.6205 16.1786 44.9398 16.8209 44.9846 17.7471C45.0295 18.6732 42.7851 19.5366 39.969 19.671Z" fill="#D9D9D9"/>
<defs>
<linearGradient id="paint0_linear_441_16286" x1="20" y1="5" x2="20" y2="45" gradientUnits="userSpaceOnUse">
<stop stop-color="#FF5C00"/>
<stop offset="1" stop-color="#FF5C00" stop-opacity="0"/>
</linearGradient>
</defs>
</svg>
