<svg width="55" height="50" viewBox="0 0 55 50" fill="none" xmlns="http://www.w3.org/2000/svg">
<g id="Group 40125">
<path id="Vector" d="M12.9943 15.2956H11.0185C10.456 15.2956 10 15.7514 10 16.3136V18.4819C10 19.0441 10.456 19.4998 11.0185 19.4998H12.9943C13.5568 19.4998 14.0128 19.0441 14.0128 18.4819V16.3136C14.0128 15.7514 13.5568 15.2956 12.9943 15.2956Z" fill="#FF5C00"/>
<path id="Vector_2" d="M7.99431 15.2956H6.01847C5.45598 15.2956 5 15.7514 5 16.3136V18.4819C5 19.0441 5.45598 19.4998 6.01847 19.4998H7.99431C8.55679 19.4998 9.01278 19.0441 9.01278 18.4819V16.3136C9.01278 15.7514 8.55679 15.2956 7.99431 15.2956Z" fill="#FF5C00"/>
<path id="Vector_3" d="M2.99431 15.2956H1.01847C0.455985 15.2956 0 15.7514 0 16.3136V18.4819C0 19.0441 0.455985 19.4998 1.01847 19.4998H2.99431C3.55679 19.4998 4.01278 19.0441 4.01278 18.4819V16.3136C4.01278 15.7514 3.55679 15.2956 2.99431 15.2956Z" fill="#FF5C00"/>
<path id="Vector_4" d="M37.9943 10.2956H36.0185C35.456 10.2956 35 10.7514 35 11.3136V13.4819C35 14.0441 35.456 14.4998 36.0185 14.4998H37.9943C38.5568 14.4998 39.0128 14.0441 39.0128 13.4819V11.3136C39.0128 10.7514 38.5568 10.2956 37.9943 10.2956Z" fill="#FF5C00"/>
<path id="Vector_5" d="M32.9943 10.2956H31.0185C30.456 10.2956 30 10.7514 30 11.3136V13.4819C30 14.0441 30.456 14.4998 31.0185 14.4998H32.9943C33.5568 14.4998 34.0128 14.0441 34.0128 13.4819V11.3136C34.0128 10.7514 33.5568 10.2956 32.9943 10.2956Z" fill="#FF5C00"/>
<path id="Vector_6" d="M32.9943 35.2956H31.0185C30.456 35.2956 30 35.7514 30 36.3136V38.4819C30 39.0441 30.456 39.4998 31.0185 39.4998H32.9943C33.5568 39.4998 34.0128 39.0441 34.0128 38.4819V36.3136C34.0128 35.7514 33.5568 35.2956 32.9943 35.2956Z" fill="#FF5C00"/>
<path id="Vector_7" d="M32.9943 40.2956H31.0185C30.456 40.2956 30 40.7514 30 41.3136V43.4819C30 44.0441 30.456 44.4998 31.0185 44.4998H32.9943C33.5568 44.4998 34.0128 44.0441 34.0128 43.4819V41.3136C34.0128 40.7514 33.5568 40.2956 32.9943 40.2956Z" fill="#FF5C00"/>
<path id="Vector_8" d="M32.9943 45.2956H31.0185C30.456 45.2956 30 45.7514 30 46.3136V48.4819C30 49.0441 30.456 49.4998 31.0185 49.4998H32.9943C33.5568 49.4998 34.0128 49.0441 34.0128 48.4819V46.3136C34.0128 45.7514 33.5568 45.2956 32.9943 45.2956Z" fill="#FF5C00"/>
<path id="Vector_9" d="M37.9943 45.2956H36.0185C35.456 45.2956 35 45.7514 35 46.3136V48.4819C35 49.0441 35.456 49.4998 36.0185 49.4998H37.9943C38.5568 49.4998 39.0128 49.0441 39.0128 48.4819V46.3136C39.0128 45.7514 38.5568 45.2956 37.9943 45.2956Z" fill="#FF5C00"/>
<path id="Vector_10" d="M42.9943 45.2956H41.0185C40.456 45.2956 40 45.7514 40 46.3136V48.4819C40 49.0441 40.456 49.4998 41.0185 49.4998H42.9943C43.5568 49.4998 44.0128 49.0441 44.0128 48.4819V46.3136C44.0128 45.7514 43.5568 45.2956 42.9943 45.2956Z" fill="#FF5C00"/>
<path id="Vector_11" d="M22.9943 10.2956H21.0185C20.456 10.2956 20 10.7514 20 11.3136V13.4819C20 14.0441 20.456 14.4998 21.0185 14.4998H22.9943C23.5568 14.4998 24.0128 14.0441 24.0128 13.4819V11.3136C24.0128 10.7514 23.5568 10.2956 22.9943 10.2956Z" fill="#FF5C00"/>
<path id="Vector_12" d="M22.9943 35.2956H21.0185C20.456 35.2956 20 35.7514 20 36.3136V38.4819C20 39.0441 20.456 39.4998 21.0185 39.4998H22.9943C23.5568 39.4998 24.0128 39.0441 24.0128 38.4819V36.3136C24.0128 35.7514 23.5568 35.2956 22.9943 35.2956Z" fill="#FF5C00"/>
<path id="Vector_13" d="M47.9943 35.2956H46.0185C45.456 35.2956 45 35.7514 45 36.3136V38.4819C45 39.0441 45.456 39.4998 46.0185 39.4998H47.9943C48.5568 39.4998 49.0128 39.0441 49.0128 38.4819V36.3136C49.0128 35.7514 48.5568 35.2956 47.9943 35.2956Z" fill="#FF5C00"/>
<path id="Vector_14" d="M2.99431 35.2956H1.01847C0.455985 35.2956 0 35.7514 0 36.3136V38.4819C0 39.0441 0.455985 39.4998 1.01847 39.4998H2.99431C3.55679 39.4998 4.01278 39.0441 4.01278 38.4819V36.3136C4.01278 35.7514 3.55679 35.2956 2.99431 35.2956Z" fill="#FF5C00"/>
<path id="Vector_15" d="M37.9943 0.295624H36.0185C35.456 0.295624 35 0.751382 35 1.31359V3.48185C35 4.04406 35.456 4.49982 36.0185 4.49982H37.9943C38.5568 4.49982 39.0128 4.04406 39.0128 3.48185V1.31359C39.0128 0.751382 38.5568 0.295624 37.9943 0.295624Z" fill="#FF5C00"/>
<path id="Vector_16" d="M32.9943 0.295624H31.0185C30.456 0.295624 30 0.751382 30 1.31359V3.48185C30 4.04406 30.456 4.49982 31.0185 4.49982H32.9943C33.5568 4.49982 34.0128 4.04406 34.0128 3.48185V1.31359C34.0128 0.751382 33.5568 0.295624 32.9943 0.295624Z" fill="#FF5C00"/>
<path id="Vector_17" d="M22.9943 0.295624H21.0185C20.456 0.295624 20 0.751382 20 1.31359V3.48185C20 4.04406 20.456 4.49982 21.0185 4.49982H22.9943C23.5568 4.49982 24.0128 4.04406 24.0128 3.48185V1.31359C24.0128 0.751382 23.5568 0.295624 22.9943 0.295624Z" fill="#FF5C00"/>
<path id="Vector_18" d="M17.9943 0.295624H16.0185C15.456 0.295624 15 0.751382 15 1.31359V3.48185C15 4.04406 15.456 4.49982 16.0185 4.49982H17.9943C18.5568 4.49982 19.0128 4.04406 19.0128 3.48185V1.31359C19.0128 0.751382 18.5568 0.295624 17.9943 0.295624Z" fill="#FF5C00"/>
<path id="Vector_19" d="M37.9943 15.3447H36.0185C35.456 15.3447 35 15.8005 35 16.3627V18.5309C35 19.0931 35.456 19.5489 36.0185 19.5489H37.9943C38.5568 19.5489 39.0128 19.0931 39.0128 18.5309V16.3627C39.0128 15.8005 38.5568 15.3447 37.9943 15.3447Z" fill="#FF5C00"/>
<path id="Vector_20" d="M12.9943 45.2956H11.0185C10.456 45.2956 10 45.7514 10 46.3136V48.4819C10 49.0441 10.456 49.4998 11.0185 49.4998H12.9943C13.5568 49.4998 14.0128 49.0441 14.0128 48.4819V46.3136C14.0128 45.7514 13.5568 45.2956 12.9943 45.2956Z" fill="#FF5C00"/>
<path id="Vector_21" d="M7.99431 45.2956H6.01847C5.45598 45.2956 5 45.7514 5 46.3136V48.4819C5 49.0441 5.45598 49.4998 6.01847 49.4998H7.99431C8.55679 49.4998 9.01278 49.0441 9.01278 48.4819V46.3136C9.01278 45.7514 8.55679 45.2956 7.99431 45.2956Z" fill="#FF5C00"/>
<path id="Vector_22" d="M2.99431 40.2956H1.01847C0.455985 40.2956 0 40.7514 0 41.3136V43.4819C0 44.0441 0.455985 44.4998 1.01847 44.4998H2.99431C3.55679 44.4998 4.01278 44.0441 4.01278 43.4819V41.3136C4.01278 40.7514 3.55679 40.2956 2.99431 40.2956Z" fill="#FF5C00"/>
<path id="Vector_23" d="M52.9943 40.2956H51.0185C50.456 40.2956 50 40.7514 50 41.3136V43.4819C50 44.0441 50.456 44.4998 51.0185 44.4998H52.9943C53.5568 44.4998 54.0128 44.0441 54.0128 43.4819V41.3136C54.0128 40.7514 53.5568 40.2956 52.9943 40.2956Z" fill="#FF5C00"/>
<path id="Vector_24" d="M47.9943 45.2956H46.0185C45.456 45.2956 45 45.7514 45 46.3136V48.4819C45 49.0441 45.456 49.4998 46.0185 49.4998H47.9943C48.5568 49.4998 49.0128 49.0441 49.0128 48.4819V46.3136C49.0128 45.7514 48.5568 45.2956 47.9943 45.2956Z" fill="#FF5C00"/>
<path id="Vector_25" d="M32.9943 15.3447H31.0185C30.456 15.3447 30 15.8005 30 16.3627V18.5309C30 19.0931 30.456 19.5489 31.0185 19.5489H32.9943C33.5568 19.5489 34.0128 19.0931 34.0128 18.5309V16.3627C34.0128 15.8005 33.5568 15.3447 32.9943 15.3447Z" fill="#FF5C00"/>
<path id="Vector_26" d="M22.9943 15.3447H21.0185C20.456 15.3447 20 15.8005 20 16.3627V18.5309C20 19.0931 20.456 19.5489 21.0185 19.5489H22.9943C23.5568 19.5489 24.0128 19.0931 24.0128 18.5309V16.3627C24.0128 15.8005 23.5568 15.3447 22.9943 15.3447Z" fill="#FF5C00"/>
<path id="Vector_27" d="M22.9943 40.3447H21.0185C20.456 40.3447 20 40.8005 20 41.3627V43.5309C20 44.0931 20.456 44.5489 21.0185 44.5489H22.9943C23.5568 44.5489 24.0128 44.0931 24.0128 43.5309V41.3627C24.0128 40.8005 23.5568 40.3447 22.9943 40.3447Z" fill="#FF5C00"/>
<path id="Vector_28" d="M47.9943 40.3447H46.0185C45.456 40.3447 45 40.8005 45 41.3627V43.5309C45 44.0931 45.456 44.5489 46.0185 44.5489H47.9943C48.5568 44.5489 49.0128 44.0931 49.0128 43.5309V41.3627C49.0128 40.8005 48.5568 40.3447 47.9943 40.3447Z" fill="#FF5C00"/>
<path id="Vector_29" d="M22.9943 45.2956H21.0185C20.456 45.2956 20 45.7514 20 46.3136V48.4819C20 49.0441 20.456 49.4998 21.0185 49.4998H22.9943C23.5568 49.4998 24.0128 49.0441 24.0128 48.4819V46.3136C24.0128 45.7514 23.5568 45.2956 22.9943 45.2956Z" fill="#FF5C00"/>
<path id="Vector_30" d="M12.9943 30.3447H11.0185C10.456 30.3447 10 30.8005 10 31.3627V33.5309C10 34.0931 10.456 34.5489 11.0185 34.5489H12.9943C13.5568 34.5489 14.0128 34.0931 14.0128 33.5309V31.3627C14.0128 30.8005 13.5568 30.3447 12.9943 30.3447Z" fill="#FF5C00"/>
<path id="Vector_31" d="M7.99431 30.2956H6.01847C5.45598 30.2956 5 30.7514 5 31.3136V33.4819C5 34.0441 5.45598 34.4998 6.01847 34.4998H7.99431C8.55679 34.4998 9.01278 34.0441 9.01278 33.4819V31.3136C9.01278 30.7514 8.55679 30.2956 7.99431 30.2956Z" fill="#FF5C00"/>
<path id="Vector_32" d="M7.99431 35.2956H6.01847C5.45598 35.2956 5 35.7514 5 36.3136V38.4819C5 39.0441 5.45598 39.4998 6.01847 39.4998H7.99431C8.55679 39.4998 9.01278 39.0441 9.01278 38.4819V36.3136C9.01278 35.7514 8.55679 35.2956 7.99431 35.2956Z" fill="#FF5C00"/>
<path id="Vector_33" d="M7.99431 40.2956H6.01847C5.45598 40.2956 5 40.7514 5 41.3136V43.4819C5 44.0441 5.45598 44.4998 6.01847 44.4998H7.99431C8.55679 44.4998 9.01278 44.0441 9.01278 43.4819V41.3136C9.01278 40.7514 8.55679 40.2956 7.99431 40.2956Z" fill="#FF5C00"/>
<path id="Vector_34" d="M37.9943 30.3447H36.0185C35.456 30.3447 35 30.8005 35 31.3627V33.5309C35 34.0931 35.456 34.5489 36.0185 34.5489H37.9943C38.5568 34.5489 39.0128 34.0931 39.0128 33.5309V31.3627C39.0128 30.8005 38.5568 30.3447 37.9943 30.3447Z" fill="#FF5C00"/>
<path id="Vector_35" d="M37.9943 5.3447H36.0185C35.456 5.3447 35 5.80045 35 6.36266V8.53092C35 9.09313 35.456 9.54889 36.0185 9.54889H37.9943C38.5568 9.54889 39.0128 9.09313 39.0128 8.53092V6.36266C39.0128 5.80045 38.5568 5.3447 37.9943 5.3447Z" fill="#FF5C00"/>
<path id="Vector_36" d="M32.9943 30.3447H31.0185C30.456 30.3447 30 30.8005 30 31.3627V33.5309C30 34.0931 30.456 34.5489 31.0185 34.5489H32.9943C33.5568 34.5489 34.0128 34.0931 34.0128 33.5309V31.3627C34.0128 30.8005 33.5568 30.3447 32.9943 30.3447Z" fill="#FF5C00"/>
<path id="Vector_37" d="M32.9943 5.3447H31.0185C30.456 5.3447 30 5.80045 30 6.36266V8.53092C30 9.09313 30.456 9.54889 31.0185 9.54889H32.9943C33.5568 9.54889 34.0128 9.09313 34.0128 8.53092V6.36266C34.0128 5.80045 33.5568 5.3447 32.9943 5.3447Z" fill="#FF5C00"/>
<path id="Vector_38" d="M22.9943 30.3447H21.0185C20.456 30.3447 20 30.8005 20 31.3627V33.5309C20 34.0931 20.456 34.5489 21.0185 34.5489H22.9943C23.5568 34.5489 24.0128 34.0931 24.0128 33.5309V31.3627C24.0128 30.8005 23.5568 30.3447 22.9943 30.3447Z" fill="#FF5C00"/>
<path id="Vector_39" d="M22.9943 5.3447H21.0185C20.456 5.3447 20 5.80045 20 6.36266V8.53092C20 9.09313 20.456 9.54889 21.0185 9.54889H22.9943C23.5568 9.54889 24.0128 9.09313 24.0128 8.53092V6.36266C24.0128 5.80045 23.5568 5.3447 22.9943 5.3447Z" fill="#FF5C00"/>
<path id="Vector_40" d="M18.0256 15.3871H16.0497C15.4872 15.3871 15.0312 15.8428 15.0312 16.405V18.5733C15.0312 19.1355 15.4872 19.5912 16.0497 19.5912H18.0256C18.588 19.5912 19.044 19.1355 19.044 18.5733V16.405C19.044 15.8428 18.588 15.3871 18.0256 15.3871Z" fill="#FF5C00"/>
<path id="Vector_41" d="M18.0256 10.3871H16.0497C15.4872 10.3871 15.0312 10.8428 15.0312 11.405V13.5733C15.0312 14.1355 15.4872 14.5912 16.0497 14.5912H18.0256C18.588 14.5912 19.044 14.1355 19.044 13.5733V11.405C19.044 10.8428 18.588 10.3871 18.0256 10.3871Z" fill="#FF5C00"/>
<path id="Vector_42" d="M12.9943 10.2956H11.0185C10.456 10.2956 10 10.7514 10 11.3136V13.4819C10 14.0441 10.456 14.4998 11.0185 14.4998H12.9943C13.5568 14.4998 14.0128 14.0441 14.0128 13.4819V11.3136C14.0128 10.7514 13.5568 10.2956 12.9943 10.2956Z" fill="#FF5C00"/>
<path id="Vector_43" d="M43.0256 10.3871H41.0497C40.4872 10.3871 40.0312 10.8428 40.0312 11.405V13.5733C40.0312 14.1355 40.4872 14.5912 41.0497 14.5912H43.0256C43.588 14.5912 44.044 14.1355 44.044 13.5733V11.405C44.044 10.8428 43.588 10.3871 43.0256 10.3871Z" fill="#FF5C00"/>
<path id="Vector_44" d="M42.9943 15.2956H41.0185C40.456 15.2956 40 15.7514 40 16.3136V18.4819C40 19.0441 40.456 19.4998 41.0185 19.4998H42.9943C43.5568 19.4998 44.0128 19.0441 44.0128 18.4819V16.3136C44.0128 15.7514 43.5568 15.2956 42.9943 15.2956Z" fill="#FF5C00"/>
<path id="Vector_45" d="M47.9943 15.2956H46.0185C45.456 15.2956 45 15.7514 45 16.3136V18.4819C45 19.0441 45.456 19.4998 46.0185 19.4998H47.9943C48.5568 19.4998 49.0128 19.0441 49.0128 18.4819V16.3136C49.0128 15.7514 48.5568 15.2956 47.9943 15.2956Z" fill="#FF5C00"/>
<path id="Vector_46" d="M52.9943 15.2956H51.0185C50.456 15.2956 50 15.7514 50 16.3136V18.4819C50 19.0441 50.456 19.4998 51.0185 19.4998H52.9943C53.5568 19.4998 54.0128 19.0441 54.0128 18.4819V16.3136C54.0128 15.7514 53.5568 15.2956 52.9943 15.2956Z" fill="#FF5C00"/>
<path id="Vector_47" d="M28.0256 10.3871H26.0497C25.4872 10.3871 25.0312 10.8428 25.0312 11.405V13.5733C25.0312 14.1355 25.4872 14.5912 26.0497 14.5912H28.0256C28.588 14.5912 29.044 14.1355 29.044 13.5733V11.405C29.044 10.8428 28.588 10.3871 28.0256 10.3871Z" fill="#FF5C00"/>
<path id="Vector_48" d="M28.0256 35.3871H26.0497C25.4872 35.3871 25.0312 35.8428 25.0312 36.405V38.5733C25.0312 39.1355 25.4872 39.5912 26.0497 39.5912H28.0256C28.588 39.5912 29.044 39.1355 29.044 38.5733V36.405C29.044 35.8428 28.588 35.3871 28.0256 35.3871Z" fill="#FF5C00"/>
<path id="Vector_49" d="M28.0256 0.387054H26.0497C25.4872 0.387054 25.0312 0.842812 25.0312 1.40502V3.57328C25.0312 4.13549 25.4872 4.59125 26.0497 4.59125H28.0256C28.588 4.59125 29.044 4.13549 29.044 3.57328V1.40502C29.044 0.842812 28.588 0.387054 28.0256 0.387054Z" fill="#FF5C00"/>
<path id="Vector_50" d="M18.0256 45.3872H16.0497C15.4872 45.3872 15.0312 45.8429 15.0312 46.4051V48.5734C15.0312 49.1356 15.4872 49.5914 16.0497 49.5914H18.0256C18.588 49.5914 19.044 49.1356 19.044 48.5734V46.4051C19.044 45.8429 18.588 45.3872 18.0256 45.3872Z" fill="#FF5C00"/>
<path id="Vector_51" d="M28.0256 15.4362H26.0497C25.4872 15.4362 25.0312 15.892 25.0312 16.4542V18.6225C25.0312 19.1847 25.4872 19.6404 26.0497 19.6404H28.0256C28.588 19.6404 29.044 19.1847 29.044 18.6225V16.4542C29.044 15.892 28.588 15.4362 28.0256 15.4362Z" fill="#FF5C00"/>
<path id="Vector_52" d="M28.0256 40.4362H26.0497C25.4872 40.4362 25.0312 40.892 25.0312 41.4542V43.6225C25.0312 44.1847 25.4872 44.6404 26.0497 44.6404H28.0256C28.588 44.6404 29.044 44.1847 29.044 43.6225V41.4542C29.044 40.892 28.588 40.4362 28.0256 40.4362Z" fill="#FF5C00"/>
<path id="Vector_53" d="M18.0256 30.4362H16.0497C15.4872 30.4362 15.0312 30.892 15.0312 31.4542V33.6225C15.0312 34.1847 15.4872 34.6404 16.0497 34.6404H18.0256C18.588 34.6404 19.044 34.1847 19.044 33.6225V31.4542C19.044 30.892 18.588 30.4362 18.0256 30.4362Z" fill="#FF5C00"/>
<path id="Vector_54" d="M43.0256 30.4362H41.0497C40.4872 30.4362 40.0312 30.892 40.0312 31.4542V33.6225C40.0312 34.1847 40.4872 34.6404 41.0497 34.6404H43.0256C43.588 34.6404 44.044 34.1847 44.044 33.6225V31.4542C44.044 30.892 43.588 30.4362 43.0256 30.4362Z" fill="#FF5C00"/>
<path id="Vector_55" d="M47.9943 30.2956H46.0185C45.456 30.2956 45 30.7514 45 31.3136V33.4819C45 34.0441 45.456 34.4998 46.0185 34.4998H47.9943C48.5568 34.4998 49.0128 34.0441 49.0128 33.4819V31.3136C49.0128 30.7514 48.5568 30.2956 47.9943 30.2956Z" fill="#FF5C00"/>
<path id="Vector_56" d="M52.9943 35.2956H51.0185C50.456 35.2956 50 35.7514 50 36.3136V38.4819C50 39.0441 50.456 39.4998 51.0185 39.4998H52.9943C53.5568 39.4998 54.0128 39.0441 54.0128 38.4819V36.3136C54.0128 35.7514 53.5568 35.2956 52.9943 35.2956Z" fill="#FF5C00"/>
<path id="Vector_57" d="M18.0256 5.43625H16.0497C15.4872 5.43625 15.0312 5.89201 15.0312 6.45421V8.62248C15.0312 9.18468 15.4872 9.64044 16.0497 9.64044H18.0256C18.588 9.64044 19.044 9.18468 19.044 8.62248V6.45421C19.044 5.89201 18.588 5.43625 18.0256 5.43625Z" fill="#FF5C00"/>
<path id="Vector_58" d="M12.9943 5.29562H11.0185C10.456 5.29562 10 5.75138 10 6.31359V8.48185C10 9.04406 10.456 9.49982 11.0185 9.49982H12.9943C13.5568 9.49982 14.0128 9.04406 14.0128 8.48185V6.31359C14.0128 5.75138 13.5568 5.29562 12.9943 5.29562Z" fill="#FF5C00"/>
<path id="Vector_59" d="M43.0256 5.43625H41.0497C40.4872 5.43625 40.0312 5.89201 40.0312 6.45421V8.62248C40.0312 9.18468 40.4872 9.64044 41.0497 9.64044H43.0256C43.588 9.64044 44.044 9.18468 44.044 8.62248V6.45421C44.044 5.89201 43.588 5.43625 43.0256 5.43625Z" fill="#FF5C00"/>
<path id="Vector_60" d="M28.0256 5.43625H26.0497C25.4872 5.43625 25.0312 5.89201 25.0312 6.45421V8.62248C25.0312 9.18468 25.4872 9.64044 26.0497 9.64044H28.0256C28.588 9.64044 29.044 9.18468 29.044 8.62248V6.45421C29.044 5.89201 28.588 5.43625 28.0256 5.43625Z" fill="#FF5C00"/>
</g>
</svg>
