<svg width="60" height="61" viewBox="0 0 60 61" fill="none" xmlns="http://www.w3.org/2000/svg">
<g id="icon wallet">
<path id="Vector" d="M47.9943 18.2956H46.0185C45.456 18.2956 45 18.7514 45 19.3136V21.4819C45 22.0441 45.456 22.4998 46.0185 22.4998H47.9943C48.5568 22.4998 49.0128 22.0441 49.0128 21.4819V19.3136C49.0128 18.7514 48.5568 18.2956 47.9943 18.2956Z" fill="#FF5C00"/>
<path id="Vector_2" d="M2.99431 23.2956H1.01847C0.455985 23.2956 0 23.7514 0 24.3136V26.4819C0 27.0441 0.455985 27.4998 1.01847 27.4998H2.99431C3.55679 27.4998 4.01278 27.0441 4.01278 26.4819V24.3136C4.01278 23.7514 3.55679 23.2956 2.99431 23.2956Z" fill="#FF5C00"/>
<path id="Vector_3" d="M57.9943 23.2956H56.0185C55.456 23.2956 55 23.7514 55 24.3136V26.4819C55 27.0441 55.456 27.4998 56.0185 27.4998H57.9943C58.5568 27.4998 59.0128 27.0441 59.0128 26.4819V24.3136C59.0128 23.7514 58.5568 23.2956 57.9943 23.2956Z" fill="#FF5C00"/>
<path id="Vector_4" d="M42.9943 18.2956H41.0185C40.456 18.2956 40 18.7514 40 19.3136V21.4819C40 22.0441 40.456 22.4998 41.0185 22.4998H42.9943C43.5568 22.4998 44.0128 22.0441 44.0128 21.4819V19.3136C44.0128 18.7514 43.5568 18.2956 42.9943 18.2956Z" fill="#FF5C00"/>
<path id="Vector_5" d="M42.9943 43.2956H41.0185C40.456 43.2956 40 43.7514 40 44.3136V46.4819C40 47.0441 40.456 47.4998 41.0185 47.4998H42.9943C43.5568 47.4998 44.0128 47.0441 44.0128 46.4819V44.3136C44.0128 43.7514 43.5568 43.2956 42.9943 43.2956Z" fill="#FF5C00"/>
<path id="Vector_6" d="M42.9943 53.2956H41.0185C40.456 53.2956 40 53.7514 40 54.3136V56.4819C40 57.0441 40.456 57.4998 41.0185 57.4998H42.9943C43.5568 57.4998 44.0128 57.0441 44.0128 56.4819V54.3136C44.0128 53.7514 43.5568 53.2956 42.9943 53.2956Z" fill="#FF5C00"/>
<path id="Vector_7" d="M12.9943 43.2956H11.0185C10.456 43.2956 10 43.7514 10 44.3136V46.4819C10 47.0441 10.456 47.4998 11.0185 47.4998H12.9943C13.5568 47.4998 14.0128 47.0441 14.0128 46.4819V44.3136C14.0128 43.7514 13.5568 43.2956 12.9943 43.2956Z" fill="#FF5C00"/>
<path id="Vector_8" d="M12.9943 53.2956H11.0185C10.456 53.2956 10 53.7514 10 54.3136V56.4819C10 57.0441 10.456 57.4998 11.0185 57.4998H12.9943C13.5568 57.4998 14.0128 57.0441 14.0128 56.4819V54.3136C14.0128 53.7514 13.5568 53.2956 12.9943 53.2956Z" fill="#FF5C00"/>
<path id="Vector_9" d="M32.9943 43.3445H31.0185C30.456 43.3445 30 43.8002 30 44.3624V46.5307C30 47.0929 30.456 47.5486 31.0185 47.5486H32.9943C33.5568 47.5486 34.0128 47.0929 34.0128 46.5307V44.3624C34.0128 43.8002 33.5568 43.3445 32.9943 43.3445Z" fill="#FF5C00"/>
<path id="Vector_10" d="M32.9943 53.3445H31.0185C30.456 53.3445 30 53.8002 30 54.3624V56.5307C30 57.0929 30.456 57.5486 31.0185 57.5486H32.9943C33.5568 57.5486 34.0128 57.0929 34.0128 56.5307V54.3624C34.0128 53.8002 33.5568 53.3445 32.9943 53.3445Z" fill="#FF5C00"/>
<path id="Vector_11" d="M2.99431 38.2468H1.01847C0.455985 38.2468 0 38.7026 0 39.2648V41.433C0 41.9952 0.455985 42.451 1.01847 42.451H2.99431C3.55679 42.451 4.01278 41.9952 4.01278 41.433V39.2648C4.01278 38.7026 3.55679 38.2468 2.99431 38.2468Z" fill="#FF5C00"/>
<path id="Vector_12" d="M57.9943 38.2468H56.0185C55.456 38.2468 55 38.7026 55 39.2648V41.433C55 41.9952 55.456 42.451 56.0185 42.451H57.9943C58.5568 42.451 59.0128 41.9952 59.0128 41.433V39.2648C59.0128 38.7026 58.5568 38.2468 57.9943 38.2468Z" fill="#FF5C00"/>
<path id="Vector_13" d="M27.9943 43.3445H26.0185C25.456 43.3445 25 43.8002 25 44.3624V46.5307C25 47.0929 25.456 47.5486 26.0185 47.5486H27.9943C28.5568 47.5486 29.0128 47.0929 29.0128 46.5307V44.3624C29.0128 43.8002 28.5568 43.3445 27.9943 43.3445Z" fill="#FF5C00"/>
<path id="Vector_14" d="M27.9943 53.3445H26.0185C25.456 53.3445 25 53.8002 25 54.3624V56.5307C25 57.0929 25.456 57.5486 26.0185 57.5486H27.9943C28.5568 57.5486 29.0128 57.0929 29.0128 56.5307V54.3624C29.0128 53.8002 28.5568 53.3445 27.9943 53.3445Z" fill="#FF5C00"/>
<path id="Vector_15" d="M2.99431 28.3445H1.01847C0.455985 28.3445 0 28.8002 0 29.3624V31.5307C0 32.0929 0.455985 32.5486 1.01847 32.5486H2.99431C3.55679 32.5486 4.01278 32.0929 4.01278 31.5307V29.3624C4.01278 28.8002 3.55679 28.3445 2.99431 28.3445Z" fill="#FF5C00"/>
<path id="Vector_16" d="M57.9943 28.3445H56.0185C55.456 28.3445 55 28.8002 55 29.3624V31.5307C55 32.0929 55.456 32.5486 56.0185 32.5486H57.9943C58.5568 32.5486 59.0128 32.0929 59.0128 31.5307V29.3624C59.0128 28.8002 58.5568 28.3445 57.9943 28.3445Z" fill="#FF5C00"/>
<path id="Vector_17" d="M47.9943 28.2956H46.0185C45.456 28.2956 45 28.7514 45 29.3136V31.4819C45 32.0441 45.456 32.4998 46.0185 32.4998H47.9943C48.5568 32.4998 49.0128 32.0441 49.0128 31.4819V29.3136C49.0128 28.7514 48.5568 28.2956 47.9943 28.2956Z" fill="#FF5C00"/>
<path id="Vector_18" d="M52.9943 28.2956H51.0185C50.456 28.2956 50 28.7514 50 29.3136V31.4819C50 32.0441 50.456 32.4998 51.0185 32.4998H52.9943C53.5568 32.4998 54.0128 32.0441 54.0128 31.4819V29.3136C54.0128 28.7514 53.5568 28.2956 52.9943 28.2956Z" fill="#FF5C00"/>
<path id="Vector_19" d="M2.99431 33.2956H1.01847C0.455985 33.2956 0 33.7514 0 34.3136V36.4819C0 37.0441 0.455985 37.4998 1.01847 37.4998H2.99431C3.55679 37.4998 4.01278 37.0441 4.01278 36.4819V34.3136C4.01278 33.7514 3.55679 33.2956 2.99431 33.2956Z" fill="#FF5C00"/>
<path id="Vector_20" d="M57.9943 33.2956H56.0185C55.456 33.2956 55 33.7514 55 34.3136V36.4819C55 37.0441 55.456 37.4998 56.0185 37.4998H57.9943C58.5568 37.4998 59.0128 37.0441 59.0128 36.4819V34.3136C59.0128 33.7514 58.5568 33.2956 57.9943 33.2956Z" fill="#FF5C00"/>
<path id="Vector_21" d="M42.9943 28.2956H41.0185C40.456 28.2956 40 28.7514 40 29.3136V31.4819C40 32.0441 40.456 32.4998 41.0185 32.4998H42.9943C43.5568 32.4998 44.0128 32.0441 44.0128 31.4819V29.3136C44.0128 28.7514 43.5568 28.2956 42.9943 28.2956Z" fill="#FF5C00"/>
<path id="Vector_22" d="M2.99431 18.3445H1.01847C0.455985 18.3445 0 18.8002 0 19.3624V21.5307C0 22.0929 0.455985 22.5486 1.01847 22.5486H2.99431C3.55679 22.5486 4.01278 22.0929 4.01278 21.5307V19.3624C4.01278 18.8002 3.55679 18.3445 2.99431 18.3445Z" fill="#FF5C00"/>
<path id="Vector_23" d="M52.9943 18.2956H51.0185C50.456 18.2956 50 18.7514 50 19.3136V21.4819C50 22.0441 50.456 22.4998 51.0185 22.4998H52.9943C53.5568 22.4998 54.0128 22.0441 54.0128 21.4819V19.3136C54.0128 18.7514 53.5568 18.2956 52.9943 18.2956Z" fill="#FF5C00"/>
<path id="Vector_24" d="M2.99431 8.29562H1.01847C0.455985 8.29562 0 8.75138 0 9.31359V11.4819C0 12.0441 0.455985 12.4998 1.01847 12.4998H2.99431C3.55679 12.4998 4.01278 12.0441 4.01278 11.4819V9.31359C4.01278 8.75138 3.55679 8.29562 2.99431 8.29562Z" fill="#FF5C00"/>
<path id="Vector_25" d="M7.99431 3.29562H6.01847C5.45598 3.29562 5 3.75138 5 4.31359V6.48185C5 7.04406 5.45598 7.49982 6.01847 7.49982H7.99431C8.55679 7.49982 9.01278 7.04406 9.01278 6.48185V4.31359C9.01278 3.75138 8.55679 3.29562 7.99431 3.29562Z" fill="#FF5C00"/>
<path id="Vector_26" d="M22.9943 3.29562H21.0185C20.456 3.29562 20 3.75138 20 4.31359V6.48185C20 7.04406 20.456 7.49982 21.0185 7.49982H22.9943C23.5568 7.49982 24.0128 7.04406 24.0128 6.48185V4.31359C24.0128 3.75138 23.5568 3.29562 22.9943 3.29562Z" fill="#FF5C00"/>
<path id="Vector_27" d="M37.9943 3.29562H36.0185C35.456 3.29562 35 3.75138 35 4.31359V6.48185C35 7.04406 35.456 7.49982 36.0185 7.49982H37.9943C38.5568 7.49982 39.0128 7.04406 39.0128 6.48185V4.31359C39.0128 3.75138 38.5568 3.29562 37.9943 3.29562Z" fill="#FF5C00"/>
<path id="Vector_28" d="M12.9943 3.29562H11.0185C10.456 3.29562 10 3.75138 10 4.31359V6.48185C10 7.04406 10.456 7.49982 11.0185 7.49982H12.9943C13.5568 7.49982 14.0128 7.04406 14.0128 6.48185V4.31359C14.0128 3.75138 13.5568 3.29562 12.9943 3.29562Z" fill="#FF5C00"/>
<path id="Vector_29" d="M27.9943 3.29562H26.0185C25.456 3.29562 25 3.75138 25 4.31359V6.48185C25 7.04406 25.456 7.49982 26.0185 7.49982H27.9943C28.5568 7.49982 29.0128 7.04406 29.0128 6.48185V4.31359C29.0128 3.75138 28.5568 3.29562 27.9943 3.29562Z" fill="#FF5C00"/>
<path id="Vector_30" d="M42.9943 3.29562H41.0185C40.456 3.29562 40 3.75138 40 4.31359V6.48185C40 7.04406 40.456 7.49982 41.0185 7.49982H42.9943C43.5568 7.49982 44.0128 7.04406 44.0128 6.48185V4.31359C44.0128 3.75138 43.5568 3.29562 42.9943 3.29562Z" fill="#FF5C00"/>
<path id="Vector_31" d="M37.9943 23.2956H36.0185C35.456 23.2956 35 23.7514 35 24.3136V26.4819C35 27.0441 35.456 27.4998 36.0185 27.4998H37.9943C38.5568 27.4998 39.0128 27.0441 39.0128 26.4819V24.3136C39.0128 23.7514 38.5568 23.2956 37.9943 23.2956Z" fill="#FF5C00"/>
<path id="Vector_32" d="M17.9943 3.29562H16.0185C15.456 3.29562 15 3.75138 15 4.31359V6.48185C15 7.04406 15.456 7.49982 16.0185 7.49982H17.9943C18.5568 7.49982 19.0128 7.04406 19.0128 6.48185V4.31359C19.0128 3.75138 18.5568 3.29562 17.9943 3.29562Z" fill="#FF5C00"/>
<path id="Vector_33" d="M32.9943 3.29562H31.0185C30.456 3.29562 30 3.75138 30 4.31359V6.48185C30 7.04406 30.456 7.49982 31.0185 7.49982H32.9943C33.5568 7.49982 34.0128 7.04406 34.0128 6.48185V4.31359C34.0128 3.75138 33.5568 3.29562 32.9943 3.29562Z" fill="#FF5C00"/>
<path id="Vector_34" d="M47.9943 3.29562H46.0185C45.456 3.29562 45 3.75138 45 4.31359V6.48185C45 7.04406 45.456 7.49982 46.0185 7.49982H47.9943C48.5568 7.49982 49.0128 7.04406 49.0128 6.48185V4.31359C49.0128 3.75138 48.5568 3.29562 47.9943 3.29562Z" fill="#FF5C00"/>
<path id="Vector_35" d="M57.9943 8.29562H56.0185C55.456 8.29562 55 8.75138 55 9.31359V11.4819C55 12.0441 55.456 12.4998 56.0185 12.4998H57.9943C58.5568 12.4998 59.0128 12.0441 59.0128 11.4819V9.31359C59.0128 8.75138 58.5568 8.29562 57.9943 8.29562Z" fill="#FF5C00"/>
<path id="Vector_36" d="M52.9943 3.29562H51.0185C50.456 3.29562 50 3.75138 50 4.31359V6.48185C50 7.04406 50.456 7.49982 51.0185 7.49982H52.9943C53.5568 7.49982 54.0128 7.04406 54.0128 6.48185V4.31359C54.0128 3.75138 53.5568 3.29562 52.9943 3.29562Z" fill="#FF5C00"/>
<path id="Vector_37" d="M2.99431 13.2956H1.01847C0.455985 13.2956 0 13.7514 0 14.3136V16.4819C0 17.0441 0.455985 17.4998 1.01847 17.4998H2.99431C3.55679 17.4998 4.01278 17.0441 4.01278 16.4819V14.3136C4.01278 13.7514 3.55679 13.2956 2.99431 13.2956Z" fill="#FF5C00"/>
<path id="Vector_38" d="M57.9943 18.3445H56.0185C55.456 18.3445 55 18.8002 55 19.3624V21.5307C55 22.0929 55.456 22.5486 56.0185 22.5486H57.9943C58.5568 22.5486 59.0128 22.0929 59.0128 21.5307V19.3624C59.0128 18.8002 58.5568 18.3445 57.9943 18.3445Z" fill="#FF5C00"/>
<path id="Vector_39" d="M57.9943 13.2956H56.0185C55.456 13.2956 55 13.7514 55 14.3136V16.4819C55 17.0441 55.456 17.4998 56.0185 17.4998H57.9943C58.5568 17.4998 59.0128 17.0441 59.0128 16.4819V14.3136C59.0128 13.7514 58.5568 13.2956 57.9943 13.2956Z" fill="#FF5C00"/>
<path id="Vector_40" d="M57.9943 43.2956H56.0185C55.456 43.2956 55 43.7514 55 44.3136V46.4819C55 47.0441 55.456 47.4998 56.0185 47.4998H57.9943C58.5568 47.4998 59.0128 47.0441 59.0128 46.4819V44.3136C59.0128 43.7514 58.5568 43.2956 57.9943 43.2956Z" fill="#FF5C00"/>
<path id="Vector_41" d="M52.9943 43.3445H51.0185C50.456 43.3445 50 43.8002 50 44.3624V46.5307C50 47.0929 50.456 47.5486 51.0185 47.5486H52.9943C53.5568 47.5486 54.0128 47.0929 54.0128 46.5307V44.3624C54.0128 43.8002 53.5568 43.3445 52.9943 43.3445Z" fill="#FF5C00"/>
<path id="Vector_42" d="M57.9943 48.2956H56.0185C55.456 48.2956 55 48.7514 55 49.3136V51.4819C55 52.0441 55.456 52.4998 56.0185 52.4998H57.9943C58.5568 52.4998 59.0128 52.0441 59.0128 51.4819V49.3136C59.0128 48.7514 58.5568 48.2956 57.9943 48.2956Z" fill="#FF5C00"/>
<path id="Vector_43" d="M52.9943 53.3445H51.0185C50.456 53.3445 50 53.8002 50 54.3624V56.5307C50 57.0929 50.456 57.5486 51.0185 57.5486H52.9943C53.5568 57.5486 54.0128 57.0929 54.0128 56.5307V54.3624C54.0128 53.8002 53.5568 53.3445 52.9943 53.3445Z" fill="#FF5C00"/>
<path id="Vector_44" d="M22.9943 43.3445H21.0185C20.456 43.3445 20 43.8002 20 44.3624V46.5307C20 47.0929 20.456 47.5486 21.0185 47.5486H22.9943C23.5568 47.5486 24.0128 47.0929 24.0128 46.5307V44.3624C24.0128 43.8002 23.5568 43.3445 22.9943 43.3445Z" fill="#FF5C00"/>
<path id="Vector_45" d="M22.9943 53.3445H21.0185C20.456 53.3445 20 53.8002 20 54.3624V56.5307C20 57.0929 20.456 57.5486 21.0185 57.5486H22.9943C23.5568 57.5486 24.0128 57.0929 24.0128 56.5307V54.3624C24.0128 53.8002 23.5568 53.3445 22.9943 53.3445Z" fill="#FF5C00"/>
<path id="Vector_46" d="M48.0256 43.3869H46.0497C45.4872 43.3869 45.0312 43.8427 45.0312 44.4049V46.5732C45.0312 47.1354 45.4872 47.5911 46.0497 47.5911H48.0256C48.588 47.5911 49.044 47.1354 49.044 46.5732V44.4049C49.044 43.8427 48.588 43.3869 48.0256 43.3869Z" fill="#FF5C00"/>
<path id="Vector_47" d="M48.0256 53.3869H46.0497C45.4872 53.3869 45.0312 53.8427 45.0312 54.4049V56.5732C45.0312 57.1354 45.4872 57.5911 46.0497 57.5911H48.0256C48.588 57.5911 49.044 57.1354 49.044 56.5732V54.4049C49.044 53.8427 48.588 53.3869 48.0256 53.3869Z" fill="#FF5C00"/>
<path id="Vector_48" d="M18.0256 43.3869H16.0497C15.4872 43.3869 15.0312 43.8427 15.0312 44.4049V46.5732C15.0312 47.1354 15.4872 47.5911 16.0497 47.5911H18.0256C18.588 47.5911 19.044 47.1354 19.044 46.5732V44.4049C19.044 43.8427 18.588 43.3869 18.0256 43.3869Z" fill="#FF5C00"/>
<path id="Vector_49" d="M18.0256 53.3869H16.0497C15.4872 53.3869 15.0312 53.8427 15.0312 54.4049V56.5732C15.0312 57.1354 15.4872 57.5911 16.0497 57.5911H18.0256C18.588 57.5911 19.044 57.1354 19.044 56.5732V54.4049C19.044 53.8427 18.588 53.3869 18.0256 53.3869Z" fill="#FF5C00"/>
<path id="Vector_50" d="M37.9943 43.3445H36.0185C35.456 43.3445 35 43.8002 35 44.3624V46.5307C35 47.0929 35.456 47.5486 36.0185 47.5486H37.9943C38.5568 47.5486 39.0128 47.0929 39.0128 46.5307V44.3624C39.0128 43.8002 38.5568 43.3445 37.9943 43.3445Z" fill="#FF5C00"/>
<path id="Vector_51" d="M37.9943 53.3445H36.0185C35.456 53.3445 35 53.8002 35 54.3624V56.5307C35 57.0929 35.456 57.5486 36.0185 57.5486H37.9943C38.5568 57.5486 39.0128 57.0929 39.0128 56.5307V54.3624C39.0128 53.8002 38.5568 53.3445 37.9943 53.3445Z" fill="#FF5C00"/>
<path id="Vector_52" d="M7.99431 43.3445H6.01847C5.45598 43.3445 5 43.8002 5 44.3624V46.5307C5 47.0929 5.45598 47.5486 6.01847 47.5486H7.99431C8.55679 47.5486 9.01278 47.0929 9.01278 46.5307V44.3624C9.01278 43.8002 8.55679 43.3445 7.99431 43.3445Z" fill="#FF5C00"/>
<path id="Vector_53" d="M2.99431 48.2956H1.01847C0.455985 48.2956 0 48.7514 0 49.3136V51.4819C0 52.0441 0.455985 52.4998 1.01847 52.4998H2.99431C3.55679 52.4998 4.01278 52.0441 4.01278 51.4819V49.3136C4.01278 48.7514 3.55679 48.2956 2.99431 48.2956Z" fill="#FF5C00"/>
<path id="Vector_54" d="M7.99431 53.3445H6.01847C5.45598 53.3445 5 53.8002 5 54.3624V56.5307C5 57.0929 5.45598 57.5486 6.01847 57.5486H7.99431C8.55679 57.5486 9.01278 57.0929 9.01278 56.5307V54.3624C9.01278 53.8002 8.55679 53.3445 7.99431 53.3445Z" fill="#FF5C00"/>
<path id="Vector_55" d="M2.99431 43.2956H1.01847C0.455985 43.2956 0 43.7514 0 44.3136V46.4819C0 47.0441 0.455985 47.4998 1.01847 47.4998H2.99431C3.55679 47.4998 4.01278 47.0441 4.01278 46.4819V44.3136C4.01278 43.7514 3.55679 43.2956 2.99431 43.2956Z" fill="#FF5C00"/>
</g>
</svg>
