<svg width="58" height="77" viewBox="0 0 58 77" fill="none" xmlns="http://www.w3.org/2000/svg">
<g clip-path="url(#clip0_1001_74463)">
<path d="M56.1756 2.12409C55.8467 1.6257 55.0859 0.503979 53.7322 0.126329C51.787 -0.416983 49.9675 0.956037 49.7148 1.15258C48.7776 1.88121 48.3103 2.75584 47.7062 4.1766C46.5586 6.87631 45.9841 8.22546 45.5888 10.4942C44.1533 18.7393 46.4499 21.4867 44.3396 24.5332C42.8588 26.6714 40.997 26.3737 35.6528 28.3125C33.2362 29.19 29.4447 31.345 21.8632 35.6564C12.6004 40.9238 7.19412 44.494 3.40405 43.2164C2.93541 43.0592 1.35445 42.4428 0.798295 43.055C0.285895 43.6165 0.890047 44.9418 1.39539 46.0242C2.60228 48.606 4.18324 50.2893 4.76198 50.8831C6.73112 52.9048 8.72991 54.2539 9.64743 54.7705C11.5502 55.8417 16.1534 57.4604 27.3457 53.5281C37.0841 50.1082 48.3767 46.1407 53.7308 35.2773C54.6765 33.3568 55.4105 29.569 56.88 21.995C57.0522 21.1049 59.6255 7.36206 56.1742 2.12409H56.1756Z" fill="#A72032"/>
<path d="M47.5509 4.54157C45.2119 4.83499 42.736 5.23791 37.636 4.1218C33.829 3.28788 33.7598 2.53258 27.4572 1.36734C22.9627 0.537634 21.0613 0.767875 19.6399 1.85309C18.186 2.96358 17.7569 4.56825 17.6849 4.85043C17.2374 6.62918 17.8288 8.29702 19.8022 11.7352C23.1434 17.553 23.9635 17.1529 25.0137 20.0772C25.4471 21.2845 26.5792 24.894 25.3398 28.8249C24.9276 30.1334 24.4477 31.6524 23.0601 32.4695C22.1483 33.0058 20.8383 33.2444 16.4639 31.9023C10.7061 30.1362 10.4407 28.9457 8.32051 29.1478C4.10133 29.5507 1.61132 34.6048 1.31772 35.2225C0.954943 35.9834 -1.35156 40.8283 1.15539 44.456C2.44133 46.3176 4.39635 46.9901 5.30822 47.2905C10.236 48.9134 15.1328 46.1196 17.1979 44.9418C19.5538 43.5982 18.8551 43.4691 25.1789 38.3813C30.5316 34.0741 32.1972 33.229 34.299 33.0352C35.3916 32.9356 37.8124 32.7123 40.2432 33.9267C42.146 34.8758 42.8489 36.1028 44.8039 36.2755C45.1653 36.3077 46.7477 36.4074 48.0618 35.4654C49.2702 34.5978 49.7176 33.2318 50.1792 30.2822C50.94 25.4303 50.6958 23.5182 50.206 20.9139C50.151 20.6177 49.3774 16.3891 47.8035 12.3655C47.054 10.4492 46.6997 8.38968 47.1655 6.30769C47.3561 5.45692 47.5974 4.53455 47.5523 4.54017L47.5509 4.54157Z" fill="#D62D3B"/>
<path d="M56.7731 3.39228C57.6299 3.44141 58.0477 10.4385 57.9941 15.5417C57.9348 21.2696 57.7569 30.2125 53.5152 40.6491C51.3541 45.9671 49.3891 50.6449 44.5573 54.823C40.3551 58.4563 36.0978 59.884 34.6227 60.3305C33.3212 60.725 28.3624 62.1162 22.0005 61.0591C19.6657 60.6716 14.8184 59.5667 10.1108 56.1188C7.19167 53.9806 5.28323 51.6403 5.46956 51.4213C5.68412 51.1686 8.24188 53.464 12.3919 54.5801C13.898 54.9844 17.6839 55.0883 20.6171 53.9315C24.1178 52.5514 26.653 48.3903 27.1315 47.7838C29.5058 44.7808 29.9052 44.2445 32.5872 41.6206C33.7447 40.4877 35.2297 39.818 37.9625 39.4333C40.6501 39.0557 41.7511 39.5597 43.7443 39.1905C47.5146 38.4927 50.0229 35.9545 50.6666 35.303C54.5146 31.4086 54.6261 25.7326 54.739 20.0763C54.8195 16.0022 54.2788 12.8995 55.3911 7.44114C55.6353 6.23799 56.2226 3.35999 56.7759 3.39087L56.7731 3.39228Z" fill="#7A1428"/>
<path d="M26.5601 61.4492V66.6324L11.0879 75.0152V77.0003H12.961V75.8252L26.3159 69.7098H29.8321L42.3993 75.623V77.0003H45.1688V74.9351L29.1659 66.6324V61.4492H26.5601Z" fill="#A93031"/>
<path d="M26.805 69.7109V73.333H26.3984V74.7734H29.8328V73.3765H29.3303L29.3712 69.7109H26.805Z" fill="#7A1428"/>
</g>
<defs>
<clipPath id="clip0_1001_74463">
<rect width="58" height="77" fill="white"/>
</clipPath>
</defs>
</svg>
