<svg width="503" height="93" viewBox="0 0 503 93" fill="none" xmlns="http://www.w3.org/2000/svg">
<g clip-path="url(#clip0_1022_6351)">
<rect x="173.194" y="18.3799" width="23.2154" height="56.6087" fill="white"/>
<path d="M0.368408 77.5108V16.7147C0.368408 14.4485 1.51206 13.3237 3.79094 13.3237H16.1608C26.8153 13.3237 32.1467 18.8809 32.1467 30.0537V36.7023C32.1467 47.8251 26.8237 53.3823 16.1608 53.3823H11.0733V77.5108C11.0733 79.7687 9.92964 80.9018 7.6928 80.9018H3.79094C1.50365 80.9018 0.368408 79.7687 0.368408 77.5108ZM16.1104 43.7176C17.8679 43.7176 19.205 43.2427 20.0543 42.2595C20.9036 41.2764 21.3409 39.6184 21.3409 37.3105V29.2955C21.3409 26.9876 20.912 25.3379 20.0543 24.3965C19.1965 23.455 17.9099 22.9801 16.1524 22.9801H11.0649V43.7676L16.1104 43.7176Z" fill="white"/>
<path d="M37.949 77.5108V16.7147C37.949 14.4485 39.0926 13.3237 41.3715 13.3237H45.2734C47.5523 13.3237 48.6959 14.4568 48.6539 16.7147V71.2371H62.8738C65.1611 71.2371 66.2963 72.3702 66.2963 74.6281V77.5025C66.2963 79.7604 65.1527 80.8935 62.8738 80.8935H41.3715C39.0842 80.8935 37.949 79.7604 37.949 77.5025V77.5108Z" fill="white"/>
<path d="M72.435 80.9018C70.2907 80.9018 69.2479 79.9603 69.2984 78.0274C69.2984 77.8357 69.3488 77.5525 69.3909 77.1276L79.6164 16.4314C79.9528 14.3568 81.1385 13.3237 83.2324 13.3237H91.507C93.6009 13.3237 94.7866 14.3651 95.0725 16.4314L105.298 77.1276C105.349 77.5025 105.391 77.7858 105.441 78.0274C105.441 79.9603 104.348 80.9018 102.203 80.9018H98.4025C96.1657 80.9018 94.9295 79.8687 94.6941 77.7941L93.2645 67.4712V67.6628H80.6592L79.2296 77.7941C78.9942 79.8687 77.758 80.9018 75.5212 80.9018H72.4266H72.435ZM91.9359 58.5146L86.9408 25.1047H86.7474L81.8953 58.5146H91.9359Z" fill="white"/>
<path d="M110.865 77.5108V16.7147C110.865 14.4485 112.009 13.3237 114.287 13.3237H121.275C123.369 13.3237 124.656 14.3152 125.076 16.2481L134.73 53.8072H134.924V16.7147C134.924 14.4485 136.067 13.3237 138.346 13.3237H141.054C143.333 13.3237 144.476 14.4568 144.476 16.7147V77.5108C144.476 79.7687 143.333 80.9018 141.054 80.9018H136.488C134.394 80.9018 133.107 79.9603 132.678 78.0274L120.594 31.5617H120.401V77.5108C120.401 79.7687 119.257 80.9018 116.978 80.9018H114.271C111.983 80.9018 110.848 79.7687 110.848 77.5108H110.865Z" fill="white"/>
<path d="M222.892 77.5108V16.7147C222.892 14.4485 224.036 13.3237 226.314 13.3237H233.302C235.396 13.3237 236.683 14.3152 237.112 16.2481L246.766 53.8072H246.959V16.7147C246.959 14.4485 248.103 13.3237 250.381 13.3237H253.089C255.368 13.3237 256.512 14.4568 256.512 16.7147V77.5108C256.512 79.7687 255.368 80.9018 253.089 80.9018H248.523C246.429 80.9018 245.143 79.9603 244.714 78.0274L232.63 31.5617H232.436V77.5108C232.436 79.7687 231.293 80.9018 229.014 80.9018H226.306C224.019 80.9018 222.883 79.7687 222.883 77.5108H222.892Z" fill="white"/>
<path d="M264.467 77.5108V16.7147C264.467 14.4485 265.611 13.3237 267.889 13.3237H290.291C292.57 13.3237 293.714 14.4568 293.672 16.7147V19.6391C293.672 21.897 292.528 23.0301 290.291 22.9884H275.163V40.8515H286.482C288.761 40.8515 289.905 41.9846 289.863 44.2425V47.1169C289.863 49.3748 288.719 50.5079 286.482 50.5079H275.163V71.2454H290.291C292.57 71.2454 293.714 72.3785 293.672 74.6364V77.5108C293.672 79.7687 292.528 80.9018 290.291 80.9018H267.889C265.611 80.9018 264.467 79.7687 264.467 77.5108Z" fill="white"/>
<path d="M308.178 77.5108V22.9801H300.374C298.095 22.9801 296.951 21.847 296.994 19.6308V16.7063C296.994 14.4401 298.137 13.3154 300.374 13.3154H326.678C328.965 13.3154 330.1 14.4485 330.1 16.7063V19.6308C330.1 21.8886 328.957 23.0217 326.678 22.9801H318.874V77.5108C318.874 79.7687 317.731 80.9018 315.494 80.9018H311.592C309.313 80.9018 308.169 79.7687 308.169 77.5108H308.178Z" fill="white"/>
<path d="M339.62 77.6941L333.388 17.6978L333.296 16.4231C333.296 14.3485 334.347 13.3154 336.483 13.3154H340.006C342.151 13.3154 343.336 14.3985 343.53 16.523L348.096 65.2549H348.289L353.192 16.523C353.385 14.3985 354.521 13.3154 356.665 13.3154H361.946C364.09 13.3154 365.276 14.3985 365.469 16.523L370.322 65.2549H370.515L375.081 16.523C375.274 14.3985 376.46 13.3154 378.605 13.3154H381.026C383.162 13.3154 384.264 14.3568 384.264 16.4231L384.171 17.6978L377.94 77.6941C377.747 79.8187 376.561 80.9018 374.417 80.9018H367.521C365.284 80.9018 364.099 79.8187 363.905 77.6941L359.339 35.3276H359.146L354.529 77.6941C354.336 79.8187 353.15 80.9018 350.964 80.9018H343.16C341.024 80.9018 339.83 79.8187 339.636 77.6941H339.62Z" fill="white"/>
<path d="M405.22 81.8433C399.989 81.8433 395.995 80.3852 393.186 77.4108C390.377 74.4364 388.998 70.2456 388.998 64.83V29.2955C388.998 23.8799 390.377 19.6807 393.186 16.7147C395.995 13.7486 400.04 12.2822 405.27 12.2822C410.501 12.2822 414.545 13.7403 417.354 16.7147C420.163 19.6807 421.584 23.8799 421.584 29.2955V64.83C421.584 70.2456 420.205 74.4448 417.396 77.4108C414.587 80.3769 410.543 81.8433 405.312 81.8433H405.22ZM410.786 65.5382V28.6873C410.786 24.2548 408.928 22.0386 405.22 22.0386C401.511 22.0386 399.653 24.2548 399.653 28.6873V65.5382C399.653 70.0123 401.511 72.2285 405.22 72.2285C408.928 72.2285 410.786 70.0123 410.786 65.5382Z" fill="white"/>
<path d="M432.188 80.9018C429.909 80.9018 428.765 79.7687 428.765 77.5108V16.7147C428.765 14.4485 429.909 13.3237 432.188 13.3237H444.65C450.167 13.3237 454.211 14.5984 456.734 17.1396C459.257 19.6807 460.535 23.5966 460.535 28.8706V33.0197C460.535 40.0433 458.206 44.4758 453.497 46.3587V46.5504C458.256 48.0084 460.628 52.7741 460.628 60.8308V72.7034C460.628 74.8197 460.72 76.336 460.913 77.2275C461.056 77.8441 461.107 78.2607 461.107 78.5023C461.107 80.102 460.106 80.9018 458.155 80.9018H453.875C451.596 80.9018 450.352 79.9603 450.209 78.0274C450.015 76.8526 449.923 75.0613 449.872 72.6118V60.2643C449.872 57.1982 449.393 55.032 448.401 53.8072C447.4 52.5825 445.693 51.9659 443.212 51.9659H439.504V77.5108C439.504 79.7687 438.36 80.9018 436.123 80.9018H432.179H432.188ZM443.414 42.3012C445.558 42.3012 447.173 41.7346 448.216 40.6515C449.258 39.5684 449.788 37.7271 449.788 35.136V29.9537C449.788 25.3379 447.98 23.0301 444.364 22.9801H439.462V42.3012H443.414Z" fill="white"/>
<path d="M468.053 77.5108V16.7147C468.053 14.4485 469.197 13.3237 471.475 13.3237H475.377C477.665 13.3237 478.8 14.4568 478.758 16.7147V41.8346L491.557 15.8648C492.414 14.2152 493.743 13.3653 495.551 13.3237H498.83C500.832 13.3237 501.824 14.0819 501.875 15.5899C501.875 16.1065 501.681 16.673 501.353 17.2896L490.362 38.1687L502.345 76.7693C502.539 77.3358 502.631 77.9024 502.631 78.419C502.631 80.0686 501.631 80.9185 499.638 80.9185H495.408C493.407 80.9185 492.128 79.977 491.557 78.1357L483.046 50.7995L478.766 59.3728V77.5191C478.766 79.777 477.623 80.9101 475.386 80.9101H471.484C469.205 80.9101 468.061 79.777 468.061 77.5191L468.053 77.5108Z" fill="white"/>
<path d="M184.672 48.9741H181.813V61.2966H185.488C186.59 61.2966 187.414 60.9884 187.952 60.3968C188.49 59.8053 188.768 58.7721 188.768 57.3141V53.8148C188.768 51.9902 188.456 50.7321 187.809 50.0322C187.161 49.3324 186.11 48.9658 184.672 48.9658V48.9741Z" fill="#FF5C00"/>
<path d="M187.161 42.2505C187.784 41.6089 188.095 40.5175 188.095 39.0011V36.7599C188.095 34.0188 187.018 32.644 184.874 32.6107H181.796V43.2253H184.311C185.58 43.2253 186.548 42.892 187.17 42.2421L187.161 42.2505Z" fill="#FF5C00"/>
<path d="M184.866 0.367188C174.329 0.367188 165.777 8.83216 165.777 19.2801V73.7191C165.777 84.1587 174.321 92.632 184.866 92.632C195.402 92.632 203.954 84.167 203.954 73.7191V19.2801C203.954 8.84049 195.411 0.367188 184.866 0.367188ZM195.108 57.514C195.108 60.6218 194.284 62.9796 192.653 64.6043C191.627 65.6208 190.306 66.3123 188.692 66.6955V68.1203C188.692 69.1367 187.851 69.9699 186.825 69.9699C185.799 69.9699 184.95 69.1367 184.95 68.1203V67.0371H181.796V68.1203C181.796 69.1367 180.955 69.9699 179.93 69.9699C178.904 69.9699 178.063 69.1367 178.063 68.1203V67.0371H177.482C176.129 67.0371 175.447 66.3623 175.447 65.0209V28.8865C175.447 27.5451 176.129 26.8702 177.482 26.8702H178.063V24.8706C178.063 23.8541 178.904 23.021 179.93 23.021C180.955 23.021 181.796 23.8541 181.796 24.8706V26.8702H184.95V24.8706C184.95 23.8541 185.791 23.021 186.825 23.021C187.859 23.021 188.692 23.8541 188.692 24.8706V27.0368C188.692 27.1201 188.675 27.1951 188.667 27.2701C190.155 27.6367 191.349 28.2533 192.232 29.1364C193.729 30.6528 194.494 32.9773 194.494 36.11V37.7097C194.494 41.8255 193.107 44.4583 190.365 45.5831V45.6914C193.536 46.7579 195.116 49.5573 195.116 54.0647V57.514H195.108Z" fill="#FF5C00"/>
</g>
<defs>
<clipPath id="clip0_1022_6351">
<rect width="503" height="93" fill="white"/>
</clipPath>
</defs>
</svg>
