<svg width="249" height="46" viewBox="0 0 249 46" fill="none" xmlns="http://www.w3.org/2000/svg">
<path d="M0 38.3384V8.12375C0 6.99748 0.56697 6.43848 1.69674 6.43848H7.82919C13.1112 6.43848 15.7543 9.20032 15.7543 14.753V18.0573C15.7543 23.5851 13.1154 26.3469 7.82919 26.3469H5.30701V38.3384C5.30701 39.4605 4.74004 40.0236 3.63111 40.0236H1.69674C0.562802 40.0236 0 39.4605 0 38.3384ZM7.80418 21.5437C8.67548 21.5437 9.33833 21.3077 9.75939 20.8191C10.1805 20.3305 10.3972 19.5065 10.3972 18.3595V14.3762C10.3972 13.2292 10.1846 12.4094 9.75939 11.9415C9.33416 11.4736 8.69632 11.2375 7.82502 11.2375H5.30284V21.5686L7.80418 21.5437Z" fill="white"/>
<path d="M18.6308 38.3384V8.12375C18.6308 6.99748 19.1978 6.43848 20.3276 6.43848H22.2619C23.3917 6.43848 23.9587 7.00162 23.9378 8.12375V35.2204H30.9874C32.1214 35.2204 32.6842 35.7836 32.6842 36.9057V38.3342C32.6842 39.4563 32.1172 40.0195 30.9874 40.0195H20.3276C19.1936 40.0195 18.6308 39.4563 18.6308 38.3342V38.3384Z" fill="white"/>
<path d="M35.7275 40.0236C34.6644 40.0236 34.1475 39.5557 34.1725 38.5951C34.1725 38.4998 34.1975 38.3591 34.2183 38.1479L39.2877 7.98296C39.4545 6.95193 40.0423 6.43848 41.0803 6.43848H45.1825C46.2206 6.43848 46.8084 6.95607 46.9501 7.98296L52.0195 38.1479C52.0445 38.3342 52.0654 38.475 52.0904 38.5951C52.0904 39.5557 51.5484 40.0236 50.4854 40.0236H48.601C47.4921 40.0236 46.8793 39.5102 46.7625 38.4791L46.0538 33.3488V33.4441H39.8046L39.0959 38.4791C38.9792 39.5102 38.3664 40.0236 37.2575 40.0236H35.7233H35.7275ZM45.3951 28.8976L42.9188 12.2934H42.8229L40.4175 28.8976H45.3951Z" fill="white"/>
<path d="M54.7793 38.3384V8.12375C54.7793 6.99748 55.3463 6.43848 56.4761 6.43848H59.9404C60.9785 6.43848 61.6163 6.93123 61.8248 7.89187L66.6107 26.5581H66.7065V8.12375C66.7065 6.99748 67.2735 6.43848 68.4033 6.43848H69.7457C70.8754 6.43848 71.4424 7.00162 71.4424 8.12375V38.3384C71.4424 39.4605 70.8754 40.0236 69.7457 40.0236H67.482C66.4439 40.0236 65.8061 39.5557 65.5935 38.5951L59.6027 15.5025H59.5069V38.3384C59.5069 39.4605 58.9399 40.0236 57.8101 40.0236H56.4677C55.3338 40.0236 54.771 39.4605 54.771 38.3384H54.7793Z" fill="white"/>
<path d="M110.317 38.3384V8.12375C110.317 6.99748 110.884 6.43848 112.014 6.43848H115.479C116.517 6.43848 117.154 6.93123 117.367 7.89187L122.153 26.5581H122.249V8.12375C122.249 6.99748 122.816 6.43848 123.946 6.43848H125.288C126.418 6.43848 126.985 7.00162 126.985 8.12375V38.3384C126.985 39.4605 126.418 40.0236 125.288 40.0236H123.024C121.986 40.0236 121.348 39.5557 121.136 38.5951L115.145 15.5025H115.049V38.3384C115.049 39.4605 114.482 40.0236 113.352 40.0236H112.01C110.876 40.0236 110.313 39.4605 110.313 38.3384H110.317Z" fill="white"/>
<path d="M130.928 38.3384V8.12375C130.928 6.99748 131.495 6.43848 132.625 6.43848H143.731C144.861 6.43848 145.428 7.00162 145.407 8.12375V9.57713C145.407 10.6993 144.84 11.2624 143.731 11.2417H136.231V20.1193H141.843C142.972 20.1193 143.539 20.6825 143.519 21.8046V23.2331C143.519 24.3552 142.952 24.9184 141.843 24.9184H136.231V35.2246H143.731C144.861 35.2246 145.428 35.7877 145.407 36.9098V38.3384C145.407 39.4605 144.84 40.0236 143.731 40.0236H132.625C131.495 40.0236 130.928 39.4605 130.928 38.3384Z" fill="white"/>
<path d="M152.598 38.3384V11.2375H148.73C147.6 11.2375 147.033 10.6744 147.054 9.57299V8.1196C147.054 6.99334 147.621 6.43434 148.73 6.43434H161.77C162.904 6.43434 163.467 6.99748 163.467 8.1196V9.57299C163.467 10.6951 162.9 11.2582 161.77 11.2375H157.901V38.3384C157.901 39.4605 157.334 40.0236 156.225 40.0236H154.291C153.161 40.0236 152.594 39.4605 152.594 38.3384H152.598Z" fill="white"/>
<path d="M168.186 38.4295L165.097 8.61235L165.051 7.97882C165.051 6.94779 165.572 6.43434 166.631 6.43434H168.378C169.441 6.43434 170.029 6.97263 170.124 8.02851L172.388 32.2474H172.484L174.915 8.02851C175.01 6.97263 175.573 6.43434 176.636 6.43434H179.254C180.317 6.43434 180.905 6.97263 181.001 8.02851L183.407 32.2474H183.502L185.766 8.02851C185.862 6.97263 186.45 6.43434 187.513 6.43434H188.714C189.772 6.43434 190.319 6.95193 190.319 7.97882L190.273 8.61235L187.184 38.4295C187.088 39.4853 186.5 40.0236 185.437 40.0236H182.018C180.909 40.0236 180.322 39.4853 180.226 38.4295L177.962 17.374H177.866L175.577 38.4295C175.481 39.4853 174.894 40.0236 173.81 40.0236H169.941C168.882 40.0236 168.29 39.4853 168.194 38.4295H168.186Z" fill="white"/>
<path d="M200.707 40.4915C198.114 40.4915 196.134 39.7669 194.742 38.2887C193.349 36.8104 192.666 34.7277 192.666 32.0362V14.3762C192.666 11.6847 193.349 9.59783 194.742 8.12375C196.134 6.64966 198.139 5.9209 200.732 5.9209C203.326 5.9209 205.331 6.64552 206.723 8.12375C208.116 9.59783 208.82 11.6847 208.82 14.3762V32.0362C208.82 34.7277 208.136 36.8146 206.744 38.2887C205.352 39.7628 203.346 40.4915 200.753 40.4915H200.707ZM203.467 32.3882V14.0739C203.467 11.8711 202.546 10.7696 200.707 10.7696C198.869 10.7696 197.948 11.8711 197.948 14.0739V32.3882C197.948 34.6117 198.869 35.7132 200.707 35.7132C202.546 35.7132 203.467 34.6117 203.467 32.3882Z" fill="white"/>
<path d="M214.077 40.0236C212.947 40.0236 212.38 39.4605 212.38 38.3384V8.12375C212.38 6.99748 212.947 6.43848 214.077 6.43848H220.255C222.99 6.43848 224.995 7.07201 226.246 8.33492C227.497 9.59783 228.13 11.544 228.13 14.165V16.2271C228.13 19.7177 226.976 21.9205 224.641 22.8563V22.9516C227.001 23.6762 228.176 26.0447 228.176 30.0487V35.9492C228.176 37.0009 228.222 37.7545 228.318 38.1976C228.389 38.504 228.414 38.711 228.414 38.8311C228.414 39.6261 227.918 40.0236 226.951 40.0236H224.829C223.699 40.0236 223.082 39.5557 223.011 38.5951C222.915 38.0112 222.869 37.121 222.844 35.9036V29.7671C222.844 28.2434 222.607 27.1668 222.115 26.5581C221.619 25.9494 220.772 25.643 219.543 25.643H217.704V38.3384C217.704 39.4605 217.137 40.0236 216.028 40.0236H214.073H214.077ZM219.643 20.8398C220.706 20.8398 221.506 20.5582 222.023 20.0199C222.54 19.4817 222.803 18.5666 222.803 17.2788V14.7033C222.803 12.4094 221.906 11.2624 220.114 11.2375H217.683V20.8398H219.643Z" fill="white"/>
<path d="M231.857 38.3384V8.12375C231.857 6.99748 232.424 6.43848 233.554 6.43848H235.489C236.623 6.43848 237.185 7.00162 237.164 8.12375V20.6079L243.51 7.7014C243.935 6.88154 244.593 6.45919 245.49 6.43848H247.116C248.108 6.43848 248.6 6.81529 248.625 7.56475C248.625 7.82148 248.529 8.10304 248.366 8.40945L242.918 18.786L248.858 37.9698C248.954 38.2514 249 38.533 249 38.7897C249 39.6095 248.504 40.0319 247.516 40.0319H245.419C244.427 40.0319 243.793 39.564 243.51 38.6489L239.291 25.0633L237.169 29.3241V38.3425C237.169 39.4646 236.602 40.0278 235.493 40.0278H233.558C232.429 40.0278 231.862 39.4646 231.862 38.3425L231.857 38.3384Z" fill="white"/>
<path d="M91.3714 24.1568H89.954V30.2809H91.7758C92.3219 30.2809 92.7305 30.1277 92.9973 29.8337C93.2641 29.5397 93.4017 29.0262 93.4017 28.3016V26.5625C93.4017 25.6557 93.2474 25.0305 92.9264 24.6827C92.6054 24.3348 92.0843 24.1526 91.3714 24.1526V24.1568Z" fill="#010205"/>
<path d="M92.6054 20.8152C92.9139 20.4964 93.0682 19.954 93.0682 19.2004V18.0865C93.0682 16.7242 92.5345 16.041 91.4715 16.0245H89.9457V21.2997H91.1922C91.8217 21.2997 92.3011 21.1341 92.6096 20.8111L92.6054 20.8152Z" fill="#010205"/>
<path d="M91.4673 0C86.2437 0 82.0039 4.20694 82.0039 9.39937V36.4546C82.0039 41.6429 86.2395 45.854 91.4673 45.854C96.6909 45.854 100.931 41.6471 100.931 36.4546V9.39937C100.931 4.21108 96.6951 0 91.4673 0ZM96.545 28.401C96.545 29.9455 96.1365 31.1173 95.3277 31.9247C94.8191 32.4299 94.1646 32.7736 93.3642 32.964V33.6721C93.3642 34.1773 92.9473 34.5913 92.4387 34.5913C91.9301 34.5913 91.509 34.1773 91.509 33.6721V33.1338H89.9457V33.6721C89.9457 34.1773 89.5288 34.5913 89.0202 34.5913C88.5116 34.5913 88.0947 34.1773 88.0947 33.6721V33.1338H87.807C87.1358 33.1338 86.7981 32.7984 86.7981 32.1318V14.1736C86.7981 13.5069 87.1358 13.1715 87.807 13.1715H88.0947V12.1778C88.0947 11.6726 88.5116 11.2585 89.0202 11.2585C89.5288 11.2585 89.9457 11.6726 89.9457 12.1778V13.1715H91.509V12.1778C91.509 11.6726 91.9259 11.2585 92.4387 11.2585C92.9514 11.2585 93.3642 11.6726 93.3642 12.1778V13.2543C93.3642 13.2958 93.3558 13.333 93.3517 13.3703C94.0895 13.5525 94.6815 13.8589 95.1193 14.2978C95.8613 15.0514 96.2407 16.2067 96.2407 17.7636V18.5586C96.2407 20.6041 95.5528 21.9125 94.1938 22.4715V22.5254C95.7654 23.0554 96.5492 24.4466 96.5492 26.6867V28.401H96.545Z" fill="#010205"/>
</svg>
