<svg width="249" height="46" viewBox="0 0 249 46" fill="none" xmlns="http://www.w3.org/2000/svg">
<path d="M0 38.3387V8.12405C0 6.99778 0.56697 6.43879 1.69674 6.43879H7.82919C13.1112 6.43879 15.7543 9.20063 15.7543 14.7533V18.0576C15.7543 23.5854 13.1154 26.3472 7.82919 26.3472H5.30701V38.3387C5.30701 39.4608 4.74004 40.0239 3.63111 40.0239H1.69674C0.562802 40.0239 0 39.4608 0 38.3387ZM7.80418 21.544C8.67548 21.544 9.33833 21.308 9.75939 20.8194C10.1805 20.3308 10.3972 19.5068 10.3972 18.3598V14.3765C10.3972 13.2295 10.1846 12.4097 9.75939 11.9418C9.33416 11.4739 8.69632 11.2378 7.82502 11.2378H5.30284V21.5689L7.80418 21.544Z" fill="white"/>
<path d="M18.6308 38.3387V8.12405C18.6308 6.99778 19.1978 6.43879 20.3276 6.43879H22.2619C23.3917 6.43879 23.9587 7.00192 23.9378 8.12405V35.2207H30.9874C32.1214 35.2207 32.6842 35.7839 32.6842 36.906V38.3345C32.6842 39.4567 32.1172 40.0198 30.9874 40.0198H20.3276C19.1936 40.0198 18.6308 39.4567 18.6308 38.3345V38.3387Z" fill="white"/>
<path d="M35.7275 40.0239C34.6644 40.0239 34.1475 39.556 34.1725 38.5954C34.1725 38.5001 34.1975 38.3594 34.2183 38.1482L39.2877 7.98327C39.4545 6.95224 40.0423 6.43879 41.0803 6.43879H45.1825C46.2206 6.43879 46.8084 6.95638 46.9501 7.98327L52.0195 38.1482C52.0445 38.3345 52.0654 38.4753 52.0904 38.5954C52.0904 39.556 51.5484 40.0239 50.4854 40.0239H48.601C47.4921 40.0239 46.8793 39.5105 46.7625 38.4795L46.0538 33.3491V33.4444H39.8046L39.0959 38.4795C38.9792 39.5105 38.3664 40.0239 37.2575 40.0239H35.7233H35.7275ZM45.3951 28.8979L42.9188 12.2937H42.8229L40.4175 28.8979H45.3951Z" fill="white"/>
<path d="M54.7793 38.3387V8.12405C54.7793 6.99778 55.3463 6.43879 56.4761 6.43879H59.9404C60.9785 6.43879 61.6163 6.93153 61.8248 7.89217L66.6107 26.5584H66.7065V8.12405C66.7065 6.99778 67.2735 6.43879 68.4033 6.43879H69.7457C70.8754 6.43879 71.4424 7.00192 71.4424 8.12405V38.3387C71.4424 39.4608 70.8754 40.0239 69.7457 40.0239H67.482C66.4439 40.0239 65.8061 39.556 65.5935 38.5954L59.6027 15.5028H59.5069V38.3387C59.5069 39.4608 58.9399 40.0239 57.8101 40.0239H56.4677C55.3338 40.0239 54.771 39.4608 54.771 38.3387H54.7793Z" fill="white"/>
<path d="M110.317 38.3387V8.12405C110.317 6.99778 110.884 6.43879 112.014 6.43879H115.479C116.517 6.43879 117.154 6.93153 117.367 7.89217L122.153 26.5584H122.249V8.12405C122.249 6.99778 122.816 6.43879 123.946 6.43879H125.288C126.418 6.43879 126.985 7.00192 126.985 8.12405V38.3387C126.985 39.4608 126.418 40.0239 125.288 40.0239H123.024C121.986 40.0239 121.348 39.556 121.136 38.5954L115.145 15.5028H115.049V38.3387C115.049 39.4608 114.482 40.0239 113.352 40.0239H112.01C110.876 40.0239 110.313 39.4608 110.313 38.3387H110.317Z" fill="white"/>
<path d="M130.928 38.3387V8.12405C130.928 6.99778 131.495 6.43879 132.625 6.43879H143.731C144.861 6.43879 145.428 7.00192 145.407 8.12405V9.57743C145.407 10.6996 144.84 11.2627 143.731 11.242H136.231V20.1196H141.843C142.972 20.1196 143.539 20.6828 143.519 21.8049V23.2334C143.519 24.3556 142.952 24.9187 141.843 24.9187H136.231V35.2249H143.731C144.861 35.2249 145.428 35.788 145.407 36.9101V38.3387C145.407 39.4608 144.84 40.0239 143.731 40.0239H132.625C131.495 40.0239 130.928 39.4608 130.928 38.3387Z" fill="white"/>
<path d="M152.598 38.3387V11.2378H148.73C147.6 11.2378 147.033 10.6747 147.054 9.57329V8.11991C147.054 6.99364 147.621 6.43465 148.73 6.43465H161.77C162.904 6.43465 163.467 6.99778 163.467 8.11991V9.57329C163.467 10.6954 162.9 11.2586 161.77 11.2378H157.901V38.3387C157.901 39.4608 157.334 40.0239 156.225 40.0239H154.291C153.161 40.0239 152.594 39.4608 152.594 38.3387H152.598Z" fill="white"/>
<path d="M168.186 38.4298L165.097 8.61265L165.051 7.97913C165.051 6.94809 165.572 6.43465 166.631 6.43465H168.378C169.441 6.43465 170.029 6.97294 170.124 8.02881L172.388 32.2477H172.484L174.915 8.02881C175.01 6.97294 175.573 6.43465 176.636 6.43465H179.254C180.317 6.43465 180.905 6.97294 181.001 8.02881L183.407 32.2477H183.502L185.766 8.02881C185.862 6.97294 186.45 6.43465 187.513 6.43465H188.714C189.772 6.43465 190.319 6.95224 190.319 7.97913L190.273 8.61265L187.184 38.4298C187.088 39.4856 186.5 40.0239 185.437 40.0239H182.018C180.909 40.0239 180.322 39.4856 180.226 38.4298L177.962 17.3744H177.866L175.577 38.4298C175.481 39.4856 174.894 40.0239 173.81 40.0239H169.941C168.882 40.0239 168.29 39.4856 168.194 38.4298H168.186Z" fill="white"/>
<path d="M200.707 40.4918C198.114 40.4918 196.134 39.7672 194.742 38.289C193.349 36.8108 192.666 34.728 192.666 32.0365V14.3765C192.666 11.685 193.349 9.59814 194.742 8.12405C196.134 6.64997 198.139 5.9212 200.732 5.9212C203.326 5.9212 205.331 6.64582 206.723 8.12405C208.116 9.59814 208.82 11.685 208.82 14.3765V32.0365C208.82 34.728 208.136 36.8149 206.744 38.289C205.352 39.7631 203.346 40.4918 200.753 40.4918H200.707ZM203.467 32.3885V14.0742C203.467 11.8714 202.546 10.77 200.707 10.77C198.869 10.77 197.948 11.8714 197.948 14.0742V32.3885C197.948 34.612 198.869 35.7135 200.707 35.7135C202.546 35.7135 203.467 34.612 203.467 32.3885Z" fill="white"/>
<path d="M214.077 40.0239C212.947 40.0239 212.38 39.4608 212.38 38.3387V8.12405C212.38 6.99778 212.947 6.43879 214.077 6.43879H220.255C222.99 6.43879 224.995 7.07232 226.246 8.33523C227.497 9.59814 228.13 11.5443 228.13 14.1653V16.2274C228.13 19.718 226.976 21.9208 224.641 22.8566V22.9519C227.001 23.6765 228.176 26.045 228.176 30.049V35.9495C228.176 37.0012 228.222 37.7548 228.318 38.1979C228.389 38.5043 228.414 38.7113 228.414 38.8314C228.414 39.6264 227.918 40.0239 226.951 40.0239H224.829C223.699 40.0239 223.082 39.556 223.011 38.5954C222.915 38.0116 222.869 37.1213 222.844 35.9039V29.7674C222.844 28.2437 222.607 27.1671 222.115 26.5584C221.619 25.9497 220.772 25.6433 219.543 25.6433H217.704V38.3387C217.704 39.4608 217.137 40.0239 216.028 40.0239H214.073H214.077ZM219.643 20.8401C220.706 20.8401 221.506 20.5585 222.023 20.0203C222.54 19.482 222.803 18.5669 222.803 17.2791V14.7036C222.803 12.4097 221.906 11.2627 220.114 11.2378H217.683V20.8401H219.643Z" fill="white"/>
<path d="M231.857 38.3387V8.12405C231.857 6.99778 232.424 6.43879 233.554 6.43879H235.489C236.623 6.43879 237.185 7.00192 237.164 8.12405V20.6082L243.51 7.7017C243.935 6.88184 244.593 6.45949 245.49 6.43879H247.116C248.108 6.43879 248.6 6.81559 248.625 7.56506C248.625 7.82178 248.529 8.10335 248.366 8.40976L242.918 18.7863L248.858 37.9701C248.954 38.2517 249 38.5333 249 38.79C249 39.6099 248.504 40.0322 247.516 40.0322H245.419C244.427 40.0322 243.793 39.5643 243.51 38.6492L239.291 25.0636L237.169 29.3244V38.3428C237.169 39.4649 236.602 40.0281 235.493 40.0281H233.558C232.429 40.0281 231.862 39.4649 231.862 38.3428L231.857 38.3387Z" fill="white"/>
<path d="M91.3714 24.1568H89.954V30.2809H91.7758C92.3219 30.2809 92.7305 30.1277 92.9973 29.8337C93.2641 29.5397 93.4017 29.0262 93.4017 28.3016V26.5625C93.4017 25.6557 93.2474 25.0305 92.9264 24.6827C92.6054 24.3348 92.0843 24.1526 91.3714 24.1526V24.1568Z" fill="#FF5C00"/>
<path d="M92.6054 20.8152C92.9139 20.4964 93.0682 19.954 93.0682 19.2004V18.0865C93.0682 16.7242 92.5345 16.041 91.4715 16.0245H89.9457V21.2997H91.1922C91.8217 21.2997 92.3011 21.1341 92.6096 20.8111L92.6054 20.8152Z" fill="#FF5C00"/>
<path d="M91.4673 0C86.2437 0 82.0039 4.20694 82.0039 9.39937V36.4546C82.0039 41.6429 86.2395 45.854 91.4673 45.854C96.6909 45.854 100.931 41.6471 100.931 36.4546V9.39937C100.931 4.21108 96.6951 0 91.4673 0ZM96.545 28.401C96.545 29.9455 96.1365 31.1173 95.3277 31.9247C94.8191 32.4299 94.1646 32.7736 93.3642 32.964V33.6721C93.3642 34.1773 92.9473 34.5913 92.4387 34.5913C91.9301 34.5913 91.509 34.1773 91.509 33.6721V33.1338H89.9457V33.6721C89.9457 34.1773 89.5288 34.5913 89.0202 34.5913C88.5116 34.5913 88.0947 34.1773 88.0947 33.6721V33.1338H87.807C87.1358 33.1338 86.7981 32.7984 86.7981 32.1318V14.1736C86.7981 13.5069 87.1358 13.1715 87.807 13.1715H88.0947V12.1778C88.0947 11.6726 88.5116 11.2585 89.0202 11.2585C89.5288 11.2585 89.9457 11.6726 89.9457 12.1778V13.1715H91.509V12.1778C91.509 11.6726 91.9259 11.2585 92.4387 11.2585C92.9514 11.2585 93.3642 11.6726 93.3642 12.1778V13.2543C93.3642 13.2958 93.3558 13.333 93.3517 13.3703C94.0895 13.5525 94.6815 13.8589 95.1193 14.2978C95.8613 15.0514 96.2407 16.2067 96.2407 17.7636V18.5586C96.2407 20.6041 95.5528 21.9125 94.1938 22.4715V22.5254C95.7654 23.0554 96.5492 24.4466 96.5492 26.6867V28.401H96.545Z" fill="#FF5C00"/>
</svg>
