<svg width="238" height="45" viewBox="0 0 238 45" fill="none" xmlns="http://www.w3.org/2000/svg">
<path d="M0.754456 37.3416V8.64514C0.754456 7.57546 1.29294 7.04456 2.36594 7.04456H8.19027C13.2069 7.04456 15.7171 9.66763 15.7171 14.9413V18.0795C15.7171 23.3296 13.2108 25.9527 8.19027 25.9527H5.79481V37.3416C5.79481 38.4073 5.25633 38.9422 4.20312 38.9422H2.36594C1.28898 38.9422 0.754456 38.4073 0.754456 37.3416ZM8.16651 21.3908C8.99403 21.3908 9.62358 21.1667 10.0235 20.7026C10.4234 20.2386 10.6293 19.456 10.6293 18.3666V14.5834C10.6293 13.4941 10.4273 12.7154 10.0235 12.271C9.61962 11.8266 9.01383 11.6025 8.18631 11.6025H5.79085V21.4144L8.16651 21.3908Z" fill="black"/>
<path d="M18.4492 37.3416V8.64514C18.4492 7.57546 18.9876 7.04456 20.0606 7.04456H21.8978C22.9708 7.04456 23.5093 7.5794 23.4895 8.64514V34.3803H30.1849C31.2619 34.3803 31.7964 34.9152 31.7964 35.9809V37.3377C31.7964 38.4034 31.2579 38.9383 30.1849 38.9383H20.0606C18.9837 38.9383 18.4492 38.4034 18.4492 37.3377V37.3416Z" fill="black"/>
<path d="M34.6868 38.9422C33.6771 38.9422 33.1862 38.4978 33.2099 37.5854C33.2099 37.495 33.2337 37.3613 33.2535 37.1607L38.0681 8.51143C38.2265 7.53221 38.7848 7.04456 39.7707 7.04456H43.6668C44.6527 7.04456 45.2109 7.53614 45.3456 8.51143L50.1602 37.1607C50.184 37.3377 50.2038 37.4714 50.2275 37.5854C50.2275 38.4978 49.7128 38.9422 48.7032 38.9422H46.9135C45.8603 38.9422 45.2783 38.4545 45.1674 37.4753L44.4943 32.6028V32.6932H38.5591L37.886 37.4753C37.7751 38.4545 37.1931 38.9422 36.1399 38.9422H34.6828H34.6868ZM43.8687 28.3752L41.5168 12.6053H41.4257L39.1411 28.3752H43.8687Z" fill="black"/>
<path d="M52.7814 37.3416V8.64514C52.7814 7.57546 53.3199 7.04456 54.3929 7.04456H57.6832C58.669 7.04456 59.2748 7.51254 59.4728 8.42491L64.0182 26.1532H64.1093V8.64514C64.1093 7.57546 64.6478 7.04456 65.7208 7.04456H66.9957C68.0687 7.04456 68.6072 7.5794 68.6072 8.64514V37.3416C68.6072 38.4073 68.0687 38.9422 66.9957 38.9422H64.8458C63.8599 38.9422 63.2541 38.4978 63.0521 37.5854L57.3624 15.6531H57.2714V37.3416C57.2714 38.4073 56.7329 38.9422 55.6599 38.9422H54.3849C53.308 38.9422 52.7735 38.4073 52.7735 37.3416H52.7814Z" fill="black"/>
<path d="M105.529 37.3416V8.64514C105.529 7.57546 106.067 7.04456 107.14 7.04456H110.431C111.417 7.04456 112.022 7.51254 112.224 8.42491L116.77 26.1532H116.861V8.64514C116.861 7.57546 117.399 7.04456 118.472 7.04456H119.747C120.82 7.04456 121.359 7.5794 121.359 8.64514V37.3416C121.359 38.4073 120.82 38.9422 119.747 38.9422H117.597C116.611 38.9422 116.006 38.4978 115.804 37.5854L110.114 15.6531H110.023V37.3416C110.023 38.4073 109.484 38.9422 108.411 38.9422H107.136C106.059 38.9422 105.525 38.4073 105.525 37.3416H105.529Z" fill="black"/>
<path d="M125.104 37.3416V8.64514C125.104 7.57546 125.643 7.04456 126.716 7.04456H137.264C138.337 7.04456 138.875 7.5794 138.855 8.64514V10.0255C138.855 11.0912 138.317 11.6261 137.264 11.6064H130.141V20.038H135.47C136.543 20.038 137.082 20.5728 137.062 21.6386V22.9953C137.062 24.0611 136.523 24.5959 135.47 24.5959H130.141V34.3843H137.264C138.337 34.3843 138.875 34.9191 138.855 35.9848V37.3416C138.855 38.4073 138.317 38.9422 137.264 38.9422H126.716C125.643 38.9422 125.104 38.4073 125.104 37.3416Z" fill="black"/>
<path d="M145.685 37.3416V11.6025H142.011C140.938 11.6025 140.4 11.0676 140.419 10.0216V8.64121C140.419 7.57153 140.958 7.04063 142.011 7.04063H154.396C155.473 7.04063 156.008 7.57546 156.008 8.64121V10.0216C156.008 11.0873 155.469 11.6221 154.396 11.6025H150.722V37.3416C150.722 38.4073 150.183 38.9422 149.13 38.9422H147.293C146.22 38.9422 145.682 38.4073 145.682 37.3416H145.685Z" fill="black"/>
<path d="M160.49 37.4281L157.556 9.10919L157.512 8.5075C157.512 7.52827 158.007 7.04063 159.013 7.04063H160.672C161.682 7.04063 162.24 7.55187 162.331 8.55469L164.481 31.5567H164.572L166.88 8.55469C166.971 7.55187 167.506 7.04063 168.516 7.04063H171.002C172.012 7.04063 172.57 7.55187 172.661 8.55469L174.946 31.5567H175.037L177.187 8.55469C177.278 7.55187 177.836 7.04063 178.846 7.04063H179.986C180.992 7.04063 181.51 7.53221 181.51 8.5075L181.467 9.10919L178.533 37.4281C178.442 38.4309 177.884 38.9422 176.874 38.9422H173.627C172.574 38.9422 172.016 38.4309 171.925 37.4281L169.775 17.4307H169.684L167.51 37.4281C167.419 38.4309 166.861 38.9422 165.831 38.9422H162.157C161.151 38.9422 160.589 38.4309 160.498 37.4281H160.49Z" fill="black"/>
<path d="M191.377 39.3866C188.915 39.3866 187.034 38.6984 185.711 37.2944C184.389 35.8905 183.74 33.9123 183.74 31.3561V14.5834C183.74 12.0272 184.389 10.0452 185.711 8.64514C187.034 7.24512 188.938 6.55298 191.401 6.55298C193.864 6.55298 195.768 7.24119 197.091 8.64514C198.413 10.0452 199.082 12.0272 199.082 14.5834V31.3561C199.082 33.9123 198.433 35.8944 197.111 37.2944C195.788 38.6944 193.884 39.3866 191.421 39.3866H191.377ZM193.998 31.6904V14.2963C193.998 12.2042 193.123 11.1581 191.377 11.1581C189.631 11.1581 188.756 12.2042 188.756 14.2963V31.6904C188.756 33.8022 189.631 34.8483 191.377 34.8483C193.123 34.8483 193.998 33.8022 193.998 31.6904Z" fill="black"/>
<path d="M204.075 38.9422C203.002 38.9422 202.464 38.4073 202.464 37.3416V8.64514C202.464 7.57546 203.002 7.04456 204.075 7.04456H209.943C212.54 7.04456 214.445 7.64625 215.633 8.84571C216.821 10.0452 217.422 11.8935 217.422 14.3829V16.3413C217.422 19.6565 216.326 21.7487 214.108 22.6375V22.7279C216.349 23.4161 217.466 25.6656 217.466 29.4685V35.0725C217.466 36.0714 217.51 36.7871 217.601 37.2079C217.668 37.4989 217.692 37.6955 217.692 37.8096C217.692 38.5647 217.221 38.9422 216.302 38.9422H214.287C213.214 38.9422 212.628 38.4978 212.56 37.5854C212.469 37.0309 212.426 36.1854 212.402 35.0292V29.201C212.402 27.7538 212.176 26.7313 211.709 26.1532C211.238 25.5752 210.434 25.2841 209.266 25.2841H207.52V37.3416C207.52 38.4073 206.981 38.9422 205.928 38.9422H204.071H204.075ZM209.361 20.7223C210.371 20.7223 211.131 20.4549 211.622 19.9436C212.113 19.4324 212.362 18.5633 212.362 17.3402V14.8941C212.362 12.7154 211.511 11.6261 209.808 11.6025H207.5V20.7223H209.361Z" fill="black"/>
<path d="M220.962 37.3416V8.64514C220.962 7.57546 221.501 7.04456 222.574 7.04456H224.411C225.488 7.04456 226.022 7.5794 226.003 8.64514V20.502L232.029 8.24401C232.433 7.46535 233.058 7.06422 233.91 7.04456H235.454C236.396 7.04456 236.863 7.40243 236.887 8.11424C236.887 8.35806 236.796 8.62548 236.642 8.91649L231.467 18.7717L237.109 36.9916C237.2 37.259 237.243 37.5264 237.243 37.7703C237.243 38.5489 236.772 38.9501 235.834 38.9501H233.842C232.9 38.9501 232.298 38.5057 232.029 37.6366L228.022 24.7336L226.006 28.7803V37.3455C226.006 38.4113 225.468 38.9461 224.415 38.9461H222.578C221.505 38.9461 220.966 38.4113 220.966 37.3455L220.962 37.3416Z" fill="black"/>
<path d="M87.5344 23.8726H86.1882V29.689H87.9185C88.4372 29.689 88.8252 29.5434 89.0786 29.2642C89.332 28.985 89.4627 28.4974 89.4627 27.8092V26.1574C89.4627 25.2962 89.3161 24.7024 89.0113 24.372C88.7064 24.0417 88.2115 23.8687 87.5344 23.8687V23.8726Z" fill="#FF5C00"/>
<path d="M88.7064 20.6989C88.9994 20.3961 89.1459 19.881 89.1459 19.1652V18.1073C89.1459 16.8135 88.6391 16.1646 87.6294 16.1489H86.1803V21.1591H87.3642C87.962 21.1591 88.4174 21.0018 88.7104 20.695L88.7064 20.6989Z" fill="#FF5C00"/>
<path d="M87.6255 0.929565C82.6643 0.929565 78.6376 4.92513 78.6376 9.85666V35.5525C78.6376 40.4801 82.6603 44.4796 87.6255 44.4796C92.5866 44.4796 96.6134 40.4841 96.6134 35.5525V9.85666C96.6134 4.92906 92.5906 0.929565 87.6255 0.929565ZM92.4481 27.9035C92.4481 29.3704 92.06 30.4833 91.2919 31.2502C90.8089 31.73 90.1872 32.0564 89.427 32.2373V32.9098C89.427 33.3896 89.0311 33.7828 88.548 33.7828C88.065 33.7828 87.6651 33.3896 87.6651 32.9098V32.3985H86.1803V32.9098C86.1803 33.3896 85.7843 33.7828 85.3013 33.7828C84.8182 33.7828 84.4223 33.3896 84.4223 32.9098V32.3985H84.1491C83.5116 32.3985 83.1909 32.08 83.1909 31.4468V14.391C83.1909 13.7578 83.5116 13.4393 84.1491 13.4393H84.4223V12.4955C84.4223 12.0157 84.8182 11.6224 85.3013 11.6224C85.7843 11.6224 86.1803 12.0157 86.1803 12.4955V13.4393H87.6651V12.4955C87.6651 12.0157 88.061 11.6224 88.548 11.6224C89.035 11.6224 89.427 12.0157 89.427 12.4955V13.5179C89.427 13.5573 89.4191 13.5927 89.4151 13.6281C90.116 13.8011 90.6782 14.0921 91.0939 14.509C91.7987 15.2247 92.159 16.3219 92.159 17.8006V18.5557C92.159 20.4984 91.5057 21.7411 90.2149 22.272V22.3231C91.7077 22.8265 92.452 24.1479 92.452 26.2754V27.9035H92.4481Z" fill="#FF5C00"/>
</svg>
