<svg width="247" height="127" viewBox="0 0 247 127" fill="currentColor" stroke="currentColor" xmlns="http://www.w3.org/2000/svg">
<path d="M243.637 82.1548C232.8 57.8799 206.596 35.502 187.508 40.5657C178.791 42.8786 170.599 51.9917 168.458 50.0582C167.186 48.9127 168.67 46.089 169.094 45.0748C173.515 34.5389 162.524 10.0743 146.864 2.61013C118.029 -11.1435 76.0037 33.2255 80.5343 47.9641C80.9874 49.4453 81.7912 52.1741 81.5501 52.6557C77.7063 60.3314 72.2257 29.2855 57.1139 23.1566C38.4652 15.5903 4.9312 33.065 0.510173 55.0781C-4.66352 80.8341 30.5001 110.399 61.2353 120.599C93.9289 131.456 133.908 124.488 170.102 118.184C182.466 116.032 192.507 113.507 207.845 114.799C229.994 116.666 238.712 112.041 243.411 105.124C246.312 100.855 247.963 91.8078 243.652 82.1548H243.637Z" fill="currentColor" stroke="currentColor" />
</svg>
