<svg width="69" height="89" viewBox="0 0 69 89" fill="none" xmlns="http://www.w3.org/2000/svg">
<g clip-path="url(#clip0_915_91495)">
<path d="M-12.4762 85.8862C-12.2069 85.9606 -11.6373 86.1042 -10.8995 86.1109C-10.519 86.1153 -10.0489 86.1101 -9.64571 85.9771C-8.80731 85.6997 -8.77133 84.9665 -7.86436 83.3959C-6.93293 81.7846 -6.04215 80.9442 -6.26344 80.141C-6.4355 79.5161 -6.72225 79.2178 -6.72225 79.2178C-6.97067 78.9564 -7.21494 78.8737 -7.19567 78.7314C-7.16873 78.5347 -6.69313 78.582 -6.35709 78.2632C-6.14744 78.0631 -6.08681 77.8103 -6.0421 77.4797C-5.94692 76.7508 -5.90035 76.3861 -6.07457 75.5121C-6.42587 73.7443 -5.64581 71.9985 -5.4088 71.4689C-5.03842 70.6396 -4.83896 69.7366 -4.3718 68.9526C-4.28278 68.8036 -4.13784 68.5704 -4.21484 68.3206C-4.33235 67.9392 -4.84281 67.9071 -5.85781 67.383C-6.4219 67.0903 -6.78817 66.8291 -7.07858 66.6223C-7.312 66.4558 -8.24739 65.7873 -8.1499 65.627C-8.08251 65.5148 -7.54323 65.6958 -7.41628 65.7402C-6.72139 65.9728 -6.62892 66.2318 -5.95812 66.503C-5.8023 66.5654 -5.37505 66.7262 -4.81596 66.75C-4.47126 66.7629 -4.12901 66.7775 -3.98968 66.599C-3.7995 66.3525 -4.13483 65.9318 -4.30952 65.4993C-4.66797 64.6135 -4.26353 63.904 -3.83267 62.5024C-3.53016 61.5151 -3.41418 60.4813 -3.17937 59.4774C-2.55771 56.8412 -2.76864 56.3722 -2.06533 51.9905C-1.47457 48.3153 -1.17956 46.4798 -0.931678 46.0679C-0.931678 46.0679 0.1041 44.3533 -0.137217 42.8068C-0.179362 42.5419 -0.263519 42.3081 -0.456224 42.1296C-0.824843 41.7865 -1.42351 41.792 -2.06723 41.798C-2.73453 41.804 -3.16997 41.914 -3.59413 41.6531C-3.61922 41.6378 -3.8196 41.5138 -3.79628 41.4558C-3.76619 41.384 -3.4001 41.4802 -3.10742 41.5201C-2.18373 41.6483 -2.00298 41.2286 -0.686213 41.1255C-0.158115 41.0836 0.162284 41.1243 0.264658 40.937C0.36421 40.7534 0.174626 40.4984 0.0718724 40.3319C-0.230915 39.8377 -0.206431 39.2869 -0.155757 38.1876C-0.0844476 36.6419 0.637401 34.2338 1.32359 32.6876C1.42404 32.4635 1.6398 31.9922 1.41393 31.6534C1.27908 31.4511 1.0688 31.4174 0.219021 30.9274C0.155058 30.8901 -0.203607 30.6817 -0.181963 30.6449C-0.15562 30.5939 0.470064 30.9963 1.13853 30.8533C1.13853 30.8533 1.35023 30.8079 1.556 30.6886C2.42452 30.185 2.37459 27.4125 2.39536 26.3958C2.42566 24.9348 2.72847 23.8746 3.15188 22.028C3.70009 19.6443 4.28102 18.2421 3.6055 17.6055C3.21743 17.2396 2.45181 17.1614 2.4777 17.0417C2.49327 16.9674 2.77693 17.0336 3.04772 16.8745C3.37371 16.6825 3.47378 16.2826 3.51939 16.0893C3.86194 14.6311 2.85179 11.7666 3.7097 11.049C4.13112 10.6963 4.75168 11.0677 5.1769 10.5635C5.47388 10.2119 5.43018 9.73025 5.41868 9.55666C5.25985 7.04318 7.79163 3.21249 6.61534 2.26474C6.28791 2.00195 5.75073 2.02287 5.75698 1.86964C5.76302 1.70565 6.37251 1.77067 6.80183 1.39797C7.24904 1.0092 7.25476 0.360625 7.26477 -0.501565C7.2732 -1.42621 7.28116 -2.08724 6.87985 -2.85433C6.77952 -3.04611 6.29284 -3.93366 5.27372 -4.43497C4.08387 -5.02285 2.84006 -4.75433 2.43626 -4.67717C1.86392 -4.56826 -0.616681 -4.8768 -5.57788 -5.49388C-10.7048 -6.13017 -19.9683 -7.97643 -22.6751 -7.53042C-23.4304 -7.40522 -24.2384 -7.27241 -24.7653 -6.63218C-25.1219 -6.19919 -25.3575 -5.52351 -25.6556 -5.56876C-25.741 -5.58205 -25.7935 -5.64727 -25.8762 -5.75867C-26.1251 -6.08875 -26.174 -6.4942 -26.1639 -6.90615C-26.1513 -7.47416 -26.0418 -7.49941 -26.0249 -7.92514C-25.9886 -8.88549 -26.5188 -9.60296 -26.6023 -9.71022C-26.7511 -9.90646 -27.0354 -10.2772 -27.5157 -10.4647C-28.2597 -10.7577 -29.0252 -10.4329 -29.1813 -10.3753C-31.7759 -9.41162 -51.682 -12.7035 -54.5955 -9.16688C-55.4649 -8.11255 -55.7743 -7.18221 -55.7743 -7.18221C-56.1064 -6.18523 -55.8745 -5.85607 -56.3105 -4.71062C-56.6042 -3.93825 -56.9202 -3.54079 -56.742 -3.3178C-56.4769 -2.98265 -55.4367 -3.44016 -55.393 -3.31435C-55.3624 -3.22306 -55.8874 -2.94911 -56.3084 -2.72926C-56.7978 -2.4746 -56.9028 -2.45068 -57.0168 -2.37694C-57.763 -1.8985 -57.5115 -0.182985 -57.4752 0.0786938C-57.16 2.41458 -58.6362 3.19857 -59.3946 7.88543C-60.0414 11.8828 -59.1146 12.2195 -59.9999 15.2241C-60.4498 16.7551 -60.9445 17.5255 -60.8278 18.9787C-60.7452 20.0162 -60.3894 20.9166 -60.9201 21.8156C-61.1943 22.2784 -61.6553 22.6604 -61.5181 22.9682C-61.4586 23.1012 -61.3061 23.1823 -60.9107 23.258C-60.1052 23.412 -59.4146 23.3244 -58.5302 23.2076C-57.4767 23.0676 -57.1311 23.0164 -57.1022 23.1052C-57.0628 23.2195 -57.5654 23.4761 -57.759 23.5869C-59.9253 24.8359 -59.678 28.7696 -60.6181 31.4491C-60.7096 31.707 -60.8937 32.1926 -60.7276 32.72C-60.5505 33.2815 -60.1072 33.4602 -60.1827 33.6888C-60.2825 33.9923 -61.0831 33.7277 -62.0223 34.077C-62.8489 34.3844 -63.4746 35.0496 -63.7578 35.7167C-64.04 36.3776 -63.9616 36.9877 -63.9384 37.2149C-63.7048 39.4803 -64.6475 44.3097 -65.9188 47.519C-66.2447 48.3391 -67.1129 50.3713 -66.3611 51.4632C-66.2931 51.5613 -66.1504 51.7436 -65.9937 51.9198C-65.1379 52.8868 -64.2665 53.2929 -64.3032 53.3656C-64.3587 53.4713 -66.1513 52.4251 -66.5206 52.8451C-66.6312 52.971 -66.5407 53.1459 -66.5199 53.5056C-66.4773 54.2658 -66.8085 54.8192 -66.9695 55.1653C-67.7228 56.798 -66.7672 58.3512 -67.8009 60.6C-67.8009 60.6 -68.9021 62.9975 -68.9091 63.9138C-68.9092 63.9974 -68.9009 64.1297 -68.8111 64.2017C-68.6054 64.3674 -68.1836 64.0363 -67.671 63.8672C-66.8166 63.5841 -65.8862 63.8057 -65.8627 63.9836C-65.8372 64.1748 -66.8703 64.1898 -67.7281 64.8474C-68.5887 65.5089 -68.8275 66.4755 -69.1848 68.0983C-69.9002 71.3372 -70.2571 72.9579 -70.2198 73.1661C-69.0572 79.5998 -28.0857 79.0265 -20.6789 82.9816C-18.2895 84.2577 -16.3503 84.8008 -12.4717 85.8849L-12.4762 85.8862Z" fill="#F8F5C2"/>
<path d="M-23.4956 -9.68207C-24.1741 -9.54302 -24.5122 -8.66717 -24.6002 -8.4408C-24.6688 -8.26238 -24.9113 -7.60726 -24.6944 -6.81557C-24.6442 -6.63071 -24.4575 -6.03958 -23.7799 -5.44987C-22.5711 -4.39762 -20.9698 -4.36791 -19.8423 -4.21793C-19.0369 -4.11109 -17.5634 -3.45698 -14.6135 -2.15255C-7.77188 0.875074 -0.422763 5.04271 -0.0402612 4.44287C0.0372935 4.32181 -0.25139 4.14105 -0.485472 3.36127C-0.651617 2.81031 -0.869425 2.08278 -0.613895 1.415C-0.305154 0.606745 0.419846 0.613303 0.932834 -0.507528C1.06037 -0.786791 1.10316 -0.976306 1.05205 -1.16777C0.987108 -1.41318 0.79483 -1.54652 0.0862879 -2.02391C-0.61263 -2.49527 -0.705462 -2.55063 -0.689493 -2.60348C-0.642707 -2.75583 0.277754 -2.82332 1.03676 -2.41185C1.28278 -2.27953 1.38586 -2.1623 1.55722 -2.19782C1.91313 -2.27077 2.21205 -2.91786 2.05316 -3.39034C1.92586 -3.76492 1.55766 -3.885 1.6028 -3.99262C1.66373 -4.14027 2.36 -3.8559 3.18733 -3.90591C4.02578 -3.95819 4.8914 -4.35073 4.87265 -4.60281C4.84643 -4.96773 2.96619 -5.1014 2.21247 -5.16246C-3.23049 -5.60282 -8.53955 -7.06953 -13.9204 -7.99607C-19.719 -8.99375 -22.6175 -9.49136 -22.7235 -9.54481C-22.802 -9.58471 -23.1258 -9.76108 -23.4994 -9.6849L-23.4956 -9.68207Z" fill="#B58753"/>
<path d="M3.39799 10.6062C3.18352 10.5246 2.52576 11.5099 2.16386 12.5058C2.1005 12.6788 1.97497 13.4215 1.71938 14.9082C1.69014 15.0702 1.5783 15.7489 1.69184 15.7844C1.7871 15.8145 1.88444 15.3347 2.26688 15.1979C2.66533 15.0554 3.12688 15.3703 3.17047 15.4018C3.44993 15.598 3.49428 15.8033 3.57043 15.7849C3.72557 15.7443 3.55288 14.8855 3.49974 13.5188C3.45519 12.4131 3.43461 11.8627 3.44527 11.4358C3.45976 10.881 3.49213 10.6425 3.39592 10.6058L3.39799 10.6062Z" fill="#B58753"/>
<path d="M65.4762 19.7416L61.8438 17.5469L59.3477 21.683L62.9802 23.8778L65.4762 19.7416Z" fill="#F8F5C2"/>
<path d="M24.0754 12.0808C20.8888 12.5859 19.1718 12.7347 18.4065 14.3867C18.1608 14.9169 18.3803 15.5525 18.2743 16.1273C17.8792 18.2684 17.7782 19.2193 17.6943 19.933C15.5168 38.3634 14.4271 47.5785 14.4696 50.3089C14.5321 54.4001 14.7986 60.3032 12.8602 67.1953C11.892 70.6352 13.9269 68.8801 13.3792 68.7105C8.97945 67.3329 7.65922 71.5839 8.02663 72.9066C8.41618 74.3083 9.81494 75.0561 10.5528 75.4187C15.6202 77.903 24.738 79.4293 27.619 79.9408C32.6938 80.8422 36.9404 81.8812 38.9921 82.406C44.7009 83.8656 48.4396 84.3841 48.4724 84.9024C48.5125 85.5464 49.8652 86.0865 51.7518 85.8054C52.9625 85.6252 53.4136 85.2265 54.1188 84.2754C55.0054 83.0784 55.2906 81.6527 55.3088 80.8285C55.4345 75.0069 58.6055 59.901 59.1588 49.6586C59.8236 37.3397 56.6079 33.0587 60.1717 25.4459C60.4338 24.8844 62.3436 18.8982 63.9798 20.182C64.6214 20.6859 64.1037 22.5091 63.4006 22.678C62.9527 22.7858 62.884 21.8729 62.5456 21.8611C62.4839 21.8586 62.4454 22.7242 62.7111 22.9137C63.5823 23.5341 64.6397 22.9339 64.8563 22.5056C65.5368 21.1685 64.6455 18.3577 64.3993 17.6808C61.2426 9.03896 28.6602 11.3542 24.0796 12.0815L24.0754 12.0808Z" fill="#B58753"/>
<path d="M57.2586 50.011C57.9234 37.6921 55.6953 32.8883 59.2592 25.2756C59.5212 24.714 62.2701 18.7915 64.1919 19.5844C64.9516 19.8974 65.3887 21.9015 63.6583 22.884C63.3313 23.0694 62.9214 22.9075 62.7702 22.5586C62.619 22.2097 62.7955 21.8728 62.5426 21.8615C62.3874 21.8549 61.8374 22.5874 62.4306 23.3956C62.7555 23.838 63.0881 23.9774 63.3457 23.9982C65.7472 24.1874 66.4296 19.5297 66.1366 18.4948C63.0944 7.75981 35.9119 9.75731 23.3307 9.43877C20.6267 9.37075 18.7812 12.5921 18.0159 14.2441C17.7703 14.7743 17.4715 15.385 17.3656 15.9597C16.9704 18.1009 16.8694 19.0517 16.7855 19.7655C14.6081 38.1959 13.5183 47.4109 13.5609 50.1414C13.6233 54.2325 13.8899 60.1357 11.9514 67.0278C11.9343 67.0869 11.9196 67.1443 11.9054 67.1996C11.745 67.8031 11.2181 68.2418 10.5964 68.2796C7.69343 68.448 6.80856 71.6284 7.11748 72.7411C7.50704 74.1428 8.90579 74.8906 9.64363 75.2532C14.7111 77.7376 23.8289 79.2638 26.7098 79.7754C31.7846 80.6767 36.0313 81.7158 38.083 82.2406C43.7917 83.7001 46.9122 84.8424 47.4025 85.0102C49.4372 85.7121 48.956 85.9211 50.843 85.6379C52.0537 85.4577 53.2279 84.78 53.8426 83.7483C54.6049 82.4688 54.4452 81.0872 54.4 80.6609C53.9915 76.7067 56.709 60.2562 57.2624 50.0138L57.2586 50.011Z" fill="#F8F5C2"/>
<path d="M53.3441 82.8434C52.6197 83.3558 51.2648 83.5871 50.4745 83.4079C49.1083 83.0969 47.9821 81.6223 48.4468 80.2354C48.6689 79.5745 49.136 79.0285 49.8609 78.9407C51.2479 78.7688 51.6466 80.8432 51.7729 80.4522C51.8609 80.1787 51.6296 78.1495 50.1321 77.937C49.2153 77.8058 47.3812 78.1049 46.6525 80.456C45.9717 82.6485 47.5517 85.4657 49.7436 85.7951C51.2704 86.0236 53.1964 84.8835 53.9413 83.7595C54.9481 82.2411 54.3845 79.8454 54.3595 80.0789C54.2307 81.2433 54.0902 82.3178 53.3441 82.8434Z" fill="#B58753"/>
<path d="M49.7187 77.7142C49.6935 77.8297 45.0158 76.7107 37.4831 75.505C28.5682 74.0775 26.4498 74.2546 21.55 72.5616C17.7756 71.2563 14.3628 69.5381 14.371 69.516C14.3778 69.5022 16.0886 70.2656 18.2115 71.0605C18.7733 71.2713 22.2484 72.5612 26.4813 73.5699C32.5973 75.028 33.5525 74.2936 41.068 75.6656C45.7815 76.5273 49.7423 77.607 49.7207 77.7146L49.7187 77.7142Z" fill="#B58753"/>
<path d="M8.56801 69.0518C10.3483 67.5681 12.409 68.2446 13.9532 69.4088C14.4208 69.7613 14.8723 70.2265 14.848 70.2543C14.8234 70.2842 14.2859 69.8441 13.6832 69.433C10.936 67.552 8.49963 69.1102 8.57009 69.0522L8.56801 69.0518Z" fill="#B58753"/>
<path d="M51.3732 80.4816C50.869 80.3198 49.0787 79.9966 48.6525 79.9604C48.604 79.9559 49.4021 79.8663 49.5036 79.8739C50.5833 79.9681 51.4422 80.5027 51.3736 80.4795L51.3732 80.4816Z" fill="#B58753"/>
<path d="M62.6265 21.871C62.6083 21.8527 62.4314 21.7414 62.4193 21.7371C62.1814 21.6427 61.9427 21.3273 61.8184 21.3992C61.7681 21.4287 61.7932 21.5147 61.7867 21.5392C61.6569 22.0089 60.9278 22.6298 61.272 22.8592C61.7773 23.1927 61.9773 23.3188 62.4965 23.5991C62.5842 23.6471 62.3536 23.4296 62.2968 22.9134C62.2679 22.6466 62.2302 22.1553 62.4112 21.9479C62.5408 21.7998 62.712 21.955 62.6244 21.8706L62.6265 21.871Z" fill="#B58753"/>
<g clip-path="url(#clip1_915_91495)">
<path d="M31.1274 47.3755C29.6438 46.9066 28.8286 47.9294 26.9059 47.7288C25.9489 47.6282 25.2916 47.2856 25.2383 47.3886C25.1837 47.4913 25.786 47.9418 26.5221 48.2259C28.0008 48.7957 29.0055 48.2993 31.2718 48.6973C32.1834 48.857 32.2344 48.9748 32.2321 49.0188C32.2261 49.1024 31.9998 49.1614 31.8145 49.2073C30.921 49.4308 30.1013 49.2564 29.9671 49.2262C29.4654 49.1144 29.201 48.9686 29.1447 49.0433C29.0838 49.1235 29.303 49.4019 29.5694 49.5915C30.2077 50.0433 30.7604 49.7253 32.0504 50.0258C32.6949 50.1752 32.848 50.3229 32.9955 50.215C33.3579 49.9495 32.9992 48.6518 32.0865 47.8984C31.6704 47.5555 31.245 47.4133 31.1287 47.3758L31.1274 47.3755Z" fill="#A2D5CE"/>
<path d="M33.7608 48.1527C33.9838 48.0247 38.807 44.163 38.6428 42.8585C38.3573 40.6048 37.784 39.5708 37.3283 38.1463C32.6793 23.6077 22.7945 19.4531 22.7945 19.4531C17.2303 15.9306 11.1582 14.9003 6.83147 14.9202C6.45357 14.9224 6.98644 15.7168 7.22663 16.1355C8.81891 18.8996 13.6394 24.3093 15.7663 27.2657C16.399 28.1457 19.3366 32.7073 20.7326 35.7058C23.3375 41.2975 22.3998 47.0771 23.6734 47.6564C24.9965 48.2587 27.3379 48.6955 31.5378 49.0232C32.9432 49.133 33.5334 48.2809 33.7582 48.152L33.7608 48.1527Z" fill="#A2D5CE"/>
<path d="M32.4922 46.763C33.4049 46.0388 34.3338 45.4602 35.0651 44.585C35.7985 43.7078 36.2283 42.8739 37.0156 42.0195C35.8113 42.1757 34.9138 43.1724 34.2211 43.9919C33.5413 44.8395 32.6633 45.676 32.4922 46.763Z" fill="white"/>
<path d="M32.2655 45.3592C33.1834 44.669 34.4942 43.7473 35.3113 42.97C36.2764 42.0835 37.0448 41.1405 37.873 40.1289C37.1987 40.3098 36.6024 40.6652 36.0621 41.0453C34.7186 42.0425 32.6954 43.8087 32.2672 45.3583L32.2655 45.3592Z" fill="white"/>
<path d="M32.1421 44.7194C33.0706 44.5991 33.6647 43.8633 33.5018 43.0202C32.5463 43.051 31.8855 43.8838 32.1421 44.7194Z" fill="white"/>
<path d="M32.0632 43.946C32.9325 42.8675 33.6844 41.8247 34.5814 40.8004C35.4686 39.7763 36.4292 38.759 37.0664 37.5508C34.5916 38.9507 32.2673 41.1893 32.0632 43.946Z" fill="white"/>
<path d="M31.4333 42.4248C33.1757 39.7828 33.5218 35.8846 32.9496 32.9619C32.417 34.5216 32.2104 36.1 31.9812 37.6871C31.7769 39.2792 31.5606 40.8119 31.432 42.4245L31.4333 42.4248Z" fill="white"/>
<path d="M30.6589 39.9894C31.0524 39.1921 31.2709 38.3569 31.4942 37.553C31.7157 36.7421 31.9373 35.9142 32.0717 35.0917C32.2101 34.261 32.3298 33.4609 32.4515 32.6259C32.5603 31.7877 32.6566 31.0026 32.9418 30.1817C32.2797 30.8125 31.922 31.6817 31.6469 32.4934C31.3735 33.2963 31.1509 34.1436 31.0072 34.969C30.8619 35.8032 30.6992 36.6186 30.6358 37.4592C30.5727 38.3117 30.5867 39.1392 30.6589 39.9894Z" fill="white"/>
<path d="M29.5312 36.7021C29.9644 35.5534 30.1736 34.2887 30.4171 33.1166C30.6608 31.9236 31.0172 30.7947 31.2309 29.5744C31.367 28.7588 31.4431 27.9096 31.2788 27.091C30.9877 27.8921 30.7003 28.6456 30.4053 29.4129C29.9652 30.5652 29.5387 31.789 29.4035 33.0174C29.2758 34.257 29.3202 35.4852 29.5312 36.7021Z" fill="white"/>
<path d="M30.1488 38.1588C31.3619 37.1782 31.723 35.2408 30.9121 34.0194C30.5208 34.6993 30.3555 35.3411 30.2156 36.0523C30.0964 36.7647 30.0213 37.4176 30.1484 38.16L30.1488 38.1588Z" fill="white"/>
<path d="M23.2281 26.1016C24.4807 24.8363 24.3364 22.3408 23.5522 20.9506C23.16 21.8059 23.0957 22.6698 23.0676 23.5469C23.0533 24.4288 23.1304 25.203 23.2285 26.1004L23.2281 26.1016Z" fill="white"/>
<path d="M25.9802 29.9161C27.2005 28.4697 27.6848 25.8537 27.4416 24.1059C27.3979 23.8184 27.3318 23.5225 27.2125 23.2551C26.9896 23.8233 26.8128 24.3587 26.6599 24.9067C26.2055 26.5661 25.9651 28.2106 25.9798 29.9173L25.9802 29.9161Z" fill="white"/>
<path d="M31.0667 40.9236C32.085 40.0455 32.402 38.4231 31.7568 37.3368C30.9439 38.3196 30.6671 39.7872 31.0667 40.9236Z" fill="white"/>
<path d="M28.8344 35.0955C28.8057 34.521 28.9572 33.7591 29.04 33.1907C29.1287 32.5556 29.1981 31.9196 29.2266 31.2758C29.2737 29.9764 29.2043 28.62 28.5902 27.4381C28.4579 28.1067 28.382 28.7371 28.3049 29.3712C28.148 30.8692 27.8142 33.9204 28.8348 35.0943L28.8344 35.0955Z" fill="white"/>
<path d="M25.4719 29.312C25.7553 28.2863 25.9065 27.3567 26.2033 26.3697C26.3984 25.6857 26.5905 24.9735 26.5307 24.264C26.4412 23.205 25.9585 22.2138 25.2774 21.3896C25.3024 22.0942 25.4227 22.7496 25.4751 23.3904C25.5039 23.8536 25.5313 24.3125 25.4636 24.7747C25.4083 25.2624 25.2782 25.7101 25.1984 26.2203C25.0198 27.2596 25.0937 28.3395 25.4719 29.312Z" fill="white"/>
<path d="M22.8702 25.5341C23.0542 23.3264 22.1024 20.4684 20.6142 18.7944C20.6845 20.8729 21.6731 23.8123 22.8702 25.5341Z" fill="white"/>
<path d="M19.7052 22.138C19.7572 20.3671 18.3433 19.0185 17.0765 17.917C16.6619 17.5535 16.2587 17.1812 15.7797 16.8092C15.8548 17.3916 16.092 17.9261 16.3953 18.4145C16.9918 19.364 17.8389 20.0837 18.5833 20.8952C18.9525 21.2851 19.2942 21.7021 19.7052 22.138Z" fill="white"/>
<path d="M31.5415 46.9726C31.3851 45.991 30.3179 45.3699 29.2676 45.6583C29.5889 46.5718 30.4926 47.0884 31.5415 46.9726Z" fill="white"/>
<path d="M15.9437 19.7601C15.7856 19.1579 15.5895 18.5356 15.2138 18.0209C14.8334 17.5076 14.2493 16.9006 13.4907 16.9212C13.748 17.508 13.9123 18.0712 14.3002 18.5916C14.6797 19.1033 15.2141 19.6793 15.945 19.7604L15.9437 19.7601Z" fill="white"/>
<path d="M31.874 48.154C30.1935 46.4849 27.1306 45.3629 24.6063 45.5045C25.724 46.179 26.9005 46.6314 28.1208 47.0871C29.3498 47.5214 30.5454 47.9341 31.8753 48.1544L31.874 48.154Z" fill="white"/>
<path d="M31.5382 44.9947C30.736 43.5253 29.1172 42.5806 27.573 41.8657C26.0016 41.1688 24.4052 40.5166 22.6552 40.2616C23.9544 41.3255 25.5001 42.1102 27.0786 42.7617C28.6511 43.4223 30.147 44.0279 31.5395 44.995L31.5382 44.9947Z" fill="white"/>
<path d="M30.395 42.3935C30.4097 42.0043 30.0789 41.6831 29.8245 41.4337C29.3041 40.9568 28.6763 40.6099 27.9647 40.4185C27.606 40.3273 27.2305 40.2646 26.8026 40.3025C27.2031 40.9257 27.7503 41.3281 28.3859 41.6849C28.6874 41.8493 29.0075 41.9883 29.3481 42.0998C29.7133 42.2254 30.028 42.24 30.3937 42.3932L30.395 42.3935Z" fill="white"/>
<path d="M29.9 38.9555C27.8559 37.3616 24.9096 35.465 22.0928 35.506C23.3373 36.2364 24.5196 36.8776 25.7939 37.533C27.0721 38.1645 28.4092 38.7795 29.9004 38.9543L29.9 38.9555Z" fill="white"/>
<path d="M28.6069 36.7801C28.5026 36.5387 28.3956 36.2928 28.2307 36.0897C27.7453 35.4973 27.0427 35.0986 26.1717 35.1693C26.3722 36.1412 27.5192 37.0053 28.6069 36.7801Z" fill="white"/>
<path d="M27.7632 35.076C27.3672 34.0898 25.6597 33.6976 24.624 34.1246C25.3383 35.045 26.5893 35.2622 27.7632 35.076Z" fill="white"/>
<path d="M27.5074 33.8996C27.4053 33.5736 27.1721 33.3362 26.9318 33.1113C26.2255 32.4969 25.3145 32.1788 24.3287 32.1377C24.6823 33.29 26.2697 33.9438 27.5091 33.8987L27.5074 33.8996Z" fill="white"/>
<path d="M22.3657 25.8801C22.2366 25.6704 22.028 25.5047 21.8342 25.3493C21.2625 24.9119 20.6066 24.5774 19.932 24.3063C19.0296 23.9341 18.0565 23.7326 17.0743 23.5824C17.3107 24.008 17.7591 24.3093 18.168 24.5783C19.4114 25.3451 20.8557 25.7647 22.3653 25.8813L22.3657 25.8801Z" fill="white"/>
<path d="M14.6372 19.0246C14.5081 18.815 14.2995 18.6493 14.1057 18.4939C13.534 18.0564 12.8781 17.722 12.2035 17.4509C11.3011 17.0787 10.328 16.8771 9.34575 16.7269C9.58218 17.1525 10.0306 17.4538 10.4395 17.7229C11.6829 18.4896 13.1272 18.9092 14.6368 19.0258L14.6372 19.0246Z" fill="white"/>
<path d="M18.1328 21.2472C17.6838 20.2108 16.0016 19.7032 14.8313 19.813C15.0692 20.3949 15.6614 20.7721 16.2477 21.0063C16.8417 21.2424 17.4714 21.2912 18.1328 21.2472Z" fill="white"/>
<path d="M27.1509 34.0335C25.6559 32.684 22.9601 31.9004 20.8342 32.21C22.441 33.1858 25.1922 33.9757 27.1509 34.0335Z" fill="white"/>
<path d="M28.6106 36.974C27.5898 35.3809 25.4801 34.7948 23.6183 34.4196C22.9931 34.3039 22.372 34.2049 21.6958 34.1443C22.1647 34.5871 22.735 34.8972 23.3101 35.1639C25.0479 35.928 26.8243 36.2945 28.6106 36.974Z" fill="white"/>
<path d="M26.6659 33.0365C25.2576 31.0004 22.2098 29.5417 19.5377 29.6312C20.6823 30.3297 21.8505 30.852 23.0435 31.433C24.2474 31.9946 25.3829 32.5715 26.6659 33.0365Z" fill="white"/>
<path d="M26.2104 31.734C24.7627 30.221 23.0181 29.0032 21.1768 27.9298C19.3203 26.8762 17.3618 25.9656 15.2313 25.4239C16.936 26.6722 18.747 27.7195 20.5772 28.7848C22.4215 29.8288 24.2384 30.8671 26.2117 31.7343L26.2104 31.734Z" fill="white"/>
<path d="M25.0231 29.4577C24.3227 28.4059 22.8347 27.6699 21.4671 27.7126C22.0677 28.8517 23.6324 29.6137 25.0231 29.4577Z" fill="white"/>
<path d="M20.6446 24.4782C19.422 23.3211 17.9036 22.4975 16.3051 21.8514C14.6945 21.2284 12.9897 20.7792 11.202 20.7504C12.7118 21.5417 14.2667 22.1387 15.844 22.773C17.4317 23.3849 18.9725 24.0111 20.6446 24.4782Z" fill="white"/>
<path d="M33.6243 49.1303C34.6275 47.9549 35.8689 48.3937 37.3897 47.2136C38.1463 46.6265 38.5182 45.9914 38.6198 46.0513C38.7218 46.11 38.4532 46.8081 37.9835 47.434C37.0376 48.6921 35.92 48.7997 34.2141 50.3257C33.5286 50.9387 33.5485 51.0656 33.5743 51.1009C33.6242 51.1686 33.8481 51.0998 34.0293 51.0411C34.9066 50.7624 35.5074 50.1842 35.6049 50.0872C35.9694 49.7292 36.1159 49.4678 36.2042 49.5007C36.2986 49.5365 36.2631 49.8877 36.1399 50.1878C35.842 50.9059 35.203 50.9255 34.2716 51.8572C33.8059 52.3231 33.7558 52.5278 33.573 52.5128C33.1222 52.478 32.7276 51.1909 33.0954 50.074C33.2631 49.5651 33.5468 49.222 33.6247 49.1291L33.6243 49.1303Z" fill="#A2D5CE"/>
<path d="M32.9315 50.9914C32.5463 50.7061 31.8973 50.9197 30.5858 50.7277C30.1878 50.6697 29.1957 50.5197 28.0604 50.1314C27.4902 49.9367 27.1436 49.7687 27.1062 49.8207C27.0566 49.888 27.5531 50.3405 28.2328 50.6338C28.6757 50.8237 29.335 50.9586 30.6528 51.2268C30.6593 51.2284 30.6657 51.2301 30.667 51.2304C31.944 51.4909 31.7498 51.3983 32.2605 51.5701C32.3109 51.5868 32.4358 51.6565 32.5462 51.7318C32.6557 51.8055 32.7614 51.9437 32.7182 52.0048C32.628 52.1338 31.8765 51.8825 31.5755 51.7823C30.9838 51.5847 30.6753 51.412 30.6213 51.4716C30.5762 51.5217 30.7305 51.7234 30.9354 51.8711C31.3975 52.2061 31.7905 52.0322 32.3862 52.3539C32.657 52.5014 32.9157 52.7217 32.8705 52.7967C32.8174 52.8867 32.3293 52.7927 32.0064 52.691C31.7455 52.6089 31.6278 52.5345 31.5991 52.5652C31.5493 52.6167 31.8302 52.92 32.17 53.1452C32.3747 53.2811 33.0482 53.3043 33.2443 53.5271C33.4069 53.7125 33.2494 52.8865 33.1637 52.4835C33.0269 51.8435 33.3579 51.312 32.9281 50.9931L32.9315 50.9914Z" fill="#A2D5CE"/>
<path d="M32.8527 48.5756C33.1919 51.8202 33.4596 55.0689 33.6417 58.326C33.7011 59.4074 33.7463 60.4891 33.7576 61.5636L34.9232 61.167C34.8125 60.8703 34.5341 60.679 34.2007 60.6165L34.2728 60.7999C33.8522 56.7198 33.1786 52.6867 32.8527 48.5756ZM32.8527 48.5756C33.1913 52.6493 33.1917 56.7902 33.463 60.8887L33.5351 61.0721C33.5241 61.1662 33.5271 61.2522 33.5364 61.3318C33.5693 61.5563 33.6836 61.7478 33.8738 61.8852L35.0943 62.7602C35.0185 60.1419 34.7481 57.5226 34.3127 54.9557C33.9504 52.8043 33.4998 50.6606 32.8535 48.5772L32.8527 48.5756Z" fill="#0D0F1A"/>
<path d="M33.7987 60.9488C34.1917 56.6367 34.1597 52.3214 33.4477 48.0716C32.9759 45.4142 32.2983 42.8132 31.4427 40.2573C29.889 35.6507 27.6517 31.2397 24.6256 27.3421C22.6273 24.7407 20.3319 22.2916 17.5604 20.3674C15.7241 19.0897 13.6948 18.0536 11.5209 17.3267C13.4731 18.3916 15.2856 19.624 16.9223 21.0553C23.2488 26.7654 27.4247 34.5827 30.0772 42.369C30.6634 44.0979 31.1973 45.8855 31.6705 47.6498C32.812 51.9722 33.297 56.4931 33.7961 60.9481L33.7987 60.9488Z" fill="#0D0F1A"/>
</g>
</g>
<defs>
<clipPath id="clip0_915_91495">
<rect width="54.0061" height="79.1468" fill="white" transform="translate(14.9043 0.992188) rotate(10.235)"/>
</clipPath>
<clipPath id="clip1_915_91495">
<rect width="42.3995" height="40.4694" fill="white" transform="matrix(-0.969165 -0.246413 -0.322373 0.946613 48.1387 24.4492)"/>
</clipPath>
</defs>
</svg>
