<svg width="60" height="60" viewBox="0 0 60 60" fill="none" xmlns="http://www.w3.org/2000/svg">
<path d="M3.10124 18.311H1.1254C0.562919 18.311 0.106934 18.7668 0.106934 19.329V21.4973C0.106934 22.0595 0.562919 22.5152 1.1254 22.5152H3.10124C3.66373 22.5152 4.11971 22.0595 4.11971 21.4973V19.329C4.11971 18.7668 3.66373 18.311 3.10124 18.311Z" fill="#FF5C00"/>
<path d="M3.10124 8.31104H1.1254C0.562919 8.31104 0.106934 8.76679 0.106934 9.329V11.4973C0.106934 12.0595 0.562919 12.5152 1.1254 12.5152H3.10124C3.66373 12.5152 4.11971 12.0595 4.11971 11.4973V9.329C4.11971 8.76679 3.66373 8.31104 3.10124 8.31104Z" fill="#FF5C00"/>
<path d="M18.07 38.2617H16.0942C15.5317 38.2617 15.0757 38.7175 15.0757 39.2797V41.4479C15.0757 42.0102 15.5317 42.4659 16.0942 42.4659H18.07C18.6325 42.4659 19.0885 42.0102 19.0885 41.4479V39.2797C19.0885 38.7175 18.6325 38.2617 18.07 38.2617Z" fill="#FF5C00"/>
<path d="M33.1012 48.311H31.1254C30.5629 48.311 30.1069 48.7668 30.1069 49.329V51.4973C30.1069 52.0595 30.5629 52.5152 31.1254 52.5152H33.1012C33.6637 52.5152 34.1197 52.0595 34.1197 51.4973V49.329C34.1197 48.7668 33.6637 48.311 33.1012 48.311Z" fill="#FF5C00"/>
<path d="M18.1012 18.2617H16.1254C15.5629 18.2617 15.1069 18.7175 15.1069 19.2797V21.4479C15.1069 22.0102 15.5629 22.4659 16.1254 22.4659H18.1012C18.6637 22.4659 19.1197 22.0102 19.1197 21.4479V19.2797C19.1197 18.7175 18.6637 18.2617 18.1012 18.2617Z" fill="#FF5C00"/>
<path d="M33.07 38.2617H31.0942C30.5317 38.2617 30.0757 38.7175 30.0757 39.2797V41.4479C30.0757 42.0102 30.5317 42.4659 31.0942 42.4659H33.07C33.6325 42.4659 34.0885 42.0102 34.0885 41.4479V39.2797C34.0885 38.7175 33.6325 38.2617 33.07 38.2617Z" fill="#FF5C00"/>
<path d="M48.1012 48.311H46.1254C45.5629 48.311 45.1069 48.7668 45.1069 49.329V51.4973C45.1069 52.0595 45.5629 52.5152 46.1254 52.5152H48.1012C48.6637 52.5152 49.1197 52.0595 49.1197 51.4973V49.329C49.1197 48.7668 48.6637 48.311 48.1012 48.311Z" fill="#FF5C00"/>
<path d="M18.1012 28.2617H16.1254C15.5629 28.2617 15.1069 28.7175 15.1069 29.2797V31.4479C15.1069 32.0102 15.5629 32.4659 16.1254 32.4659H18.1012C18.6637 32.4659 19.1197 32.0102 19.1197 31.4479V29.2797C19.1197 28.7175 18.6637 28.2617 18.1012 28.2617Z" fill="#FF5C00"/>
<path d="M48.07 38.2129H46.0942C45.5317 38.2129 45.0757 38.6686 45.0757 39.2309V41.3991C45.0757 41.9613 45.5317 42.4171 46.0942 42.4171H48.07C48.6325 42.4171 49.0885 41.9613 49.0885 41.3991V39.2309C49.0885 38.6686 48.6325 38.2129 48.07 38.2129Z" fill="#FF5C00"/>
<path d="M58.07 48.311H56.0942C55.5317 48.311 55.0757 48.7668 55.0757 49.329V51.4973C55.0757 52.0595 55.5317 52.5152 56.0942 52.5152H58.07C58.6325 52.5152 59.0885 52.0595 59.0885 51.4973V49.329C59.0885 48.7668 58.6325 48.311 58.07 48.311Z" fill="#FF5C00"/>
<path d="M3.10124 28.2617H1.1254C0.562919 28.2617 0.106934 28.7175 0.106934 29.2797V31.4479C0.106934 32.0102 0.562919 32.4659 1.1254 32.4659H3.10124C3.66373 32.4659 4.11971 32.0102 4.11971 31.4479V29.2797C4.11971 28.7175 3.66373 28.2617 3.10124 28.2617Z" fill="#FF5C00"/>
<path d="M18.1012 23.311H16.1254C15.5629 23.311 15.1069 23.7668 15.1069 24.329V26.4973C15.1069 27.0595 15.5629 27.5152 16.1254 27.5152H18.1012C18.6637 27.5152 19.1197 27.0595 19.1197 26.4973V24.329C19.1197 23.7668 18.6637 23.311 18.1012 23.311Z" fill="#FF5C00"/>
<path d="M23.07 43.311H21.0942C20.5317 43.311 20.0757 43.7668 20.0757 44.329V46.4973C20.0757 47.0595 20.5317 47.5152 21.0942 47.5152H23.07C23.6325 47.5152 24.0885 47.0595 24.0885 46.4973V44.329C24.0885 43.7668 23.6325 43.311 23.07 43.311Z" fill="#FF5C00"/>
<path d="M33.07 53.4092H31.0942C30.5317 53.4092 30.0757 53.8649 30.0757 54.4271V56.5954C30.0757 57.1576 30.5317 57.6134 31.0942 57.6134H33.07C33.6325 57.6134 34.0885 57.1576 34.0885 56.5954V54.4271C34.0885 53.8649 33.6325 53.4092 33.07 53.4092Z" fill="#FF5C00"/>
<path d="M48.07 33.2617H46.0942C45.5317 33.2617 45.0757 33.7175 45.0757 34.2797V36.4479C45.0757 37.0102 45.5317 37.4659 46.0942 37.4659H48.07C48.6325 37.4659 49.0885 37.0102 49.0885 36.4479V34.2797C49.0885 33.7175 48.6325 33.2617 48.07 33.2617Z" fill="#FF5C00"/>
<path d="M13.1012 23.311H11.1254C10.5629 23.311 10.1069 23.7668 10.1069 24.329V26.4973C10.1069 27.0595 10.5629 27.5152 11.1254 27.5152H13.1012C13.6637 27.5152 14.1197 27.0595 14.1197 26.4973V24.329C14.1197 23.7668 13.6637 23.311 13.1012 23.311Z" fill="#FF5C00"/>
<path d="M18.07 43.311H16.0942C15.5317 43.311 15.0757 43.7668 15.0757 44.329V46.4973C15.0757 47.0595 15.5317 47.5152 16.0942 47.5152H18.07C18.6325 47.5152 19.0885 47.0595 19.0885 46.4973V44.329C19.0885 43.7668 18.6325 43.311 18.07 43.311Z" fill="#FF5C00"/>
<path d="M28.07 53.4092H26.0942C25.5317 53.4092 25.0757 53.8649 25.0757 54.4271V56.5954C25.0757 57.1576 25.5317 57.6134 26.0942 57.6134H28.07C28.6325 57.6134 29.0885 57.1576 29.0885 56.5954V54.4271C29.0885 53.8649 28.6325 53.4092 28.07 53.4092Z" fill="#FF5C00"/>
<path d="M43.07 43.311H41.0942C40.5317 43.311 40.0757 43.7668 40.0757 44.329V46.4973C40.0757 47.0595 40.5317 47.5152 41.0942 47.5152H43.07C43.6325 47.5152 44.0885 47.0595 44.0885 46.4973V44.329C44.0885 43.7668 43.6325 43.311 43.07 43.311Z" fill="#FF5C00"/>
<path d="M53.1012 43.3604H51.1254C50.5629 43.3604 50.1069 43.8161 50.1069 44.3783V46.5466C50.1069 47.1088 50.5629 47.5645 51.1254 47.5645H53.1012C53.6637 47.5645 54.1197 47.1088 54.1197 46.5466V44.3783C54.1197 43.8161 53.6637 43.3604 53.1012 43.3604Z" fill="#FF5C00"/>
<path d="M53.07 53.4092H51.0942C50.5317 53.4092 50.0757 53.8649 50.0757 54.4271V56.5954C50.0757 57.1576 50.5317 57.6134 51.0942 57.6134H53.07C53.6325 57.6134 54.0885 57.1576 54.0885 56.5954V54.4271C54.0885 53.8649 53.6325 53.4092 53.07 53.4092Z" fill="#FF5C00"/>
<path d="M3.10124 23.311H1.1254C0.562919 23.311 0.106934 23.7668 0.106934 24.329V26.4973C0.106934 27.0595 0.562919 27.5152 1.1254 27.5152H3.10124C3.66373 27.5152 4.11971 27.0595 4.11971 26.4973V24.329C4.11971 23.7668 3.66373 23.311 3.10124 23.311Z" fill="#FF5C00"/>
<path d="M28.1012 23.311H26.1254C25.5629 23.311 25.1069 23.7668 25.1069 24.329V26.4973C25.1069 27.0595 25.5629 27.5152 26.1254 27.5152H28.1012C28.6637 27.5152 29.1197 27.0595 29.1197 26.4973V24.329C29.1197 23.7668 28.6637 23.311 28.1012 23.311Z" fill="#FF5C00"/>
<path d="M8.06999 43.311H6.09415C5.53167 43.311 5.07568 43.7668 5.07568 44.329V46.4973C5.07568 47.0595 5.53167 47.5152 6.09415 47.5152H8.06999C8.63248 47.5152 9.08846 47.0595 9.08846 46.4973V44.329C9.08846 43.7668 8.63248 43.311 8.06999 43.311Z" fill="#FF5C00"/>
<path d="M18.07 53.4092H16.0942C15.5317 53.4092 15.0757 53.8649 15.0757 54.4271V56.5954C15.0757 57.1576 15.5317 57.6134 16.0942 57.6134H18.07C18.6325 57.6134 19.0885 57.1576 19.0885 56.5954V54.4271C19.0885 53.8649 18.6325 53.4092 18.07 53.4092Z" fill="#FF5C00"/>
<path d="M3.06999 53.311H1.09415C0.531669 53.311 0.0756836 53.7668 0.0756836 54.329V56.4973C0.0756836 57.0595 0.531669 57.5152 1.09415 57.5152H3.06999C3.63248 57.5152 4.08846 57.0595 4.08846 56.4973V54.329C4.08846 53.7668 3.63248 53.311 3.06999 53.311Z" fill="#FF5C00"/>
<path d="M33.07 43.311H31.0942C30.5317 43.311 30.0757 43.7668 30.0757 44.329V46.4973C30.0757 47.0595 30.5317 47.5152 31.0942 47.5152H33.07C33.6325 47.5152 34.0885 47.0595 34.0885 46.4973V44.329C34.0885 43.7668 33.6325 43.311 33.07 43.311Z" fill="#FF5C00"/>
<path d="M43.07 53.4092H41.0942C40.5317 53.4092 40.0757 53.8649 40.0757 54.4271V56.5954C40.0757 57.1576 40.5317 57.6134 41.0942 57.6134H43.07C43.6325 57.6134 44.0885 57.1576 44.0885 56.5954V54.4271C44.0885 53.8649 43.6325 53.4092 43.07 53.4092Z" fill="#FF5C00"/>
<path d="M23.07 33.311H21.0942C20.5317 33.311 20.0757 33.7668 20.0757 34.329V36.4973C20.0757 37.0595 20.5317 37.5152 21.0942 37.5152H23.07C23.6325 37.5152 24.0885 37.0595 24.0885 36.4973V34.329C24.0885 33.7668 23.6325 33.311 23.07 33.311Z" fill="#FF5C00"/>
<path d="M48.07 43.2617H46.0942C45.5317 43.2617 45.0757 43.7175 45.0757 44.2797V46.4479C45.0757 47.0102 45.5317 47.4659 46.0942 47.4659H48.07C48.6325 47.4659 49.0885 47.0102 49.0885 46.4479V44.2797C49.0885 43.7175 48.6325 43.2617 48.07 43.2617Z" fill="#FF5C00"/>
<path d="M58.1012 43.311H56.1254C55.5629 43.311 55.1069 43.7668 55.1069 44.329V46.4973C55.1069 47.0595 55.5629 47.5152 56.1254 47.5152H58.1012C58.6637 47.5152 59.1197 47.0595 59.1197 46.4973V44.329C59.1197 43.7668 58.6637 43.311 58.1012 43.311Z" fill="#FF5C00"/>
<path d="M58.07 53.3604H56.0942C55.5317 53.3604 55.0757 53.8161 55.0757 54.3783V56.5466C55.0757 57.1088 55.5317 57.5645 56.0942 57.5645H58.07C58.6325 57.5645 59.0885 57.1088 59.0885 56.5466V54.3783C59.0885 53.8161 58.6325 53.3604 58.07 53.3604Z" fill="#FF5C00"/>
<path d="M8.10124 13.311H6.1254C5.56292 13.311 5.10693 13.7668 5.10693 14.329V16.4973C5.10693 17.0595 5.56292 17.5152 6.1254 17.5152H8.10124C8.66373 17.5152 9.11971 17.0595 9.11971 16.4973V14.329C9.11971 13.7668 8.66373 13.311 8.10124 13.311Z" fill="#FF5C00"/>
<path d="M8.10124 3.31104H6.1254C5.56292 3.31104 5.10693 3.76679 5.10693 4.329V6.49726C5.10693 7.05947 5.56292 7.51523 6.1254 7.51523H8.10124C8.66373 7.51523 9.11971 7.05947 9.11971 6.49726V4.329C9.11971 3.76679 8.66373 3.31104 8.10124 3.31104Z" fill="#FF5C00"/>
<path d="M18.07 33.311H16.0942C15.5317 33.311 15.0757 33.7668 15.0757 34.329V36.4973C15.0757 37.0595 15.5317 37.5152 16.0942 37.5152H18.07C18.6325 37.5152 19.0885 37.0595 19.0885 36.4973V34.329C19.0885 33.7668 18.6325 33.311 18.07 33.311Z" fill="#FF5C00"/>
<path d="M43.07 33.311H41.0942C40.5317 33.311 40.0757 33.7668 40.0757 34.329V36.4973C40.0757 37.0595 40.5317 37.5152 41.0942 37.5152H43.07C43.6325 37.5152 44.0885 37.0595 44.0885 36.4973V34.329C44.0885 33.7668 43.6325 33.311 43.07 33.311Z" fill="#FF5C00"/>
<path d="M8.06999 33.311H6.09415C5.53167 33.311 5.07568 33.7668 5.07568 34.329V36.4973C5.07568 37.0595 5.53167 37.5152 6.09415 37.5152H8.06999C8.63248 37.5152 9.08846 37.0595 9.08846 36.4973V34.329C9.08846 33.7668 8.63248 33.311 8.06999 33.311Z" fill="#FF5C00"/>
<path d="M33.07 33.311H31.0942C30.5317 33.311 30.0757 33.7668 30.0757 34.329V36.4973C30.0757 37.0595 30.5317 37.5152 31.0942 37.5152H33.07C33.6325 37.5152 34.0885 37.0595 34.0885 36.4973V34.329C34.0885 33.7668 33.6325 33.311 33.07 33.311Z" fill="#FF5C00"/>
<path d="M18.1012 13.311H16.1254C15.5629 13.311 15.1069 13.7668 15.1069 14.329V16.4973C15.1069 17.0595 15.5629 17.5152 16.1254 17.5152H18.1012C18.6637 17.5152 19.1197 17.0595 19.1197 16.4973V14.329C19.1197 13.7668 18.6637 13.311 18.1012 13.311Z" fill="#FF5C00"/>
<path d="M3.10124 38.311H1.1254C0.562919 38.311 0.106934 38.7668 0.106934 39.329V41.4973C0.106934 42.0595 0.562919 42.5152 1.1254 42.5152H3.10124C3.66373 42.5152 4.11971 42.0595 4.11971 41.4973V39.329C4.11971 38.7668 3.66373 38.311 3.10124 38.311Z" fill="#FF5C00"/>
<path d="M18.1012 48.311H16.1254C15.5629 48.311 15.1069 48.7668 15.1069 49.329V51.4973C15.1069 52.0595 15.5629 52.5152 16.1254 52.5152H18.1012C18.6637 52.5152 19.1197 52.0595 19.1197 51.4973V49.329C19.1197 48.7668 18.6637 48.311 18.1012 48.311Z" fill="#FF5C00"/>
<path d="M3.10124 48.311H1.1254C0.562919 48.311 0.106934 48.7668 0.106934 49.329V51.4973C0.106934 52.0595 0.562919 52.5152 1.1254 52.5152H3.10124C3.66373 52.5152 4.11971 52.0595 4.11971 51.4973V49.329C4.11971 48.7668 3.66373 48.311 3.10124 48.311Z" fill="#FF5C00"/>
<path d="M33.1325 28.3535H31.1567C30.5942 28.3535 30.1382 28.8093 30.1382 29.3715V31.5397C30.1382 32.102 30.5942 32.5577 31.1567 32.5577H33.1325C33.695 32.5577 34.151 32.102 34.151 31.5397V29.3715C34.151 28.8093 33.695 28.3535 33.1325 28.3535Z" fill="#FF5C00"/>
<path d="M23.1325 23.4023H21.1567C20.5942 23.4023 20.1382 23.8581 20.1382 24.4203V26.5886C20.1382 27.1508 20.5942 27.6065 21.1567 27.6065H23.1325C23.695 27.6065 24.151 27.1508 24.151 26.5886V24.4203C24.151 23.8581 23.695 23.4023 23.1325 23.4023Z" fill="#FF5C00"/>
<path d="M3.10124 43.4023H1.1254C0.562919 43.4023 0.106934 43.8581 0.106934 44.4203V46.5886C0.106934 47.1508 0.562919 47.6065 1.1254 47.6065H3.10124C3.66373 47.6065 4.11971 47.1508 4.11971 46.5886V44.4203C4.11971 43.8581 3.66373 43.4023 3.10124 43.4023Z" fill="#FF5C00"/>
<path d="M13.1012 53.501H11.1254C10.5629 53.501 10.1069 53.9567 10.1069 54.5189V56.6872C10.1069 57.2494 10.5629 57.7052 11.1254 57.7052H13.1012C13.6637 57.7052 14.1197 57.2494 14.1197 56.6872V54.5189C14.1197 53.9567 13.6637 53.501 13.1012 53.501Z" fill="#FF5C00"/>
<path d="M28.1012 43.4023H26.1254C25.5629 43.4023 25.1069 43.8581 25.1069 44.4203V46.5886C25.1069 47.1508 25.5629 47.6065 26.1254 47.6065H28.1012C28.6637 47.6065 29.1197 47.1508 29.1197 46.5886V44.4203C29.1197 43.8581 28.6637 43.4023 28.1012 43.4023Z" fill="#FF5C00"/>
<path d="M38.1012 53.501H36.1254C35.5629 53.501 35.1069 53.9567 35.1069 54.5189V56.6872C35.1069 57.2494 35.5629 57.7052 36.1254 57.7052H38.1012C38.6637 57.7052 39.1197 57.2494 39.1197 56.6872V54.5189C39.1197 53.9567 38.6637 53.501 38.1012 53.501Z" fill="#FF5C00"/>
<path d="M8.13249 23.4023H6.15665C5.59417 23.4023 5.13818 23.8581 5.13818 24.4203V26.5886C5.13818 27.1508 5.59417 27.6065 6.15665 27.6065H8.13249C8.69498 27.6065 9.15096 27.1508 9.15096 26.5886V24.4203C9.15096 23.8581 8.69498 23.4023 8.13249 23.4023Z" fill="#FF5C00"/>
<path d="M33.1325 23.4023H31.1567C30.5942 23.4023 30.1382 23.8581 30.1382 24.4203V26.5886C30.1382 27.1508 30.5942 27.6065 31.1567 27.6065H33.1325C33.695 27.6065 34.151 27.1508 34.151 26.5886V24.4203C34.151 23.8581 33.695 23.4023 33.1325 23.4023Z" fill="#FF5C00"/>
<path d="M13.1012 43.4023H11.1254C10.5629 43.4023 10.1069 43.8581 10.1069 44.4203V46.5886C10.1069 47.1508 10.5629 47.6065 11.1254 47.6065H13.1012C13.6637 47.6065 14.1197 47.1508 14.1197 46.5886V44.4203C14.1197 43.8581 13.6637 43.4023 13.1012 43.4023Z" fill="#FF5C00"/>
<path d="M23.1012 53.501H21.1254C20.5629 53.501 20.1069 53.9567 20.1069 54.5189V56.6872C20.1069 57.2494 20.5629 57.7052 21.1254 57.7052H23.1012C23.6637 57.7052 24.1197 57.2494 24.1197 56.6872V54.5189C24.1197 53.9567 23.6637 53.501 23.1012 53.501Z" fill="#FF5C00"/>
<path d="M8.10124 53.4023H6.1254C5.56292 53.4023 5.10693 53.8581 5.10693 54.4203V56.5886C5.10693 57.1508 5.56292 57.6065 6.1254 57.6065H8.10124C8.66373 57.6065 9.11971 57.1508 9.11971 56.5886V54.4203C9.11971 53.8581 8.66373 53.4023 8.10124 53.4023Z" fill="#FF5C00"/>
<path d="M38.1012 43.4023H36.1254C35.5629 43.4023 35.1069 43.8581 35.1069 44.4203V46.5886C35.1069 47.1508 35.5629 47.6065 36.1254 47.6065H38.1012C38.6637 47.6065 39.1197 47.1508 39.1197 46.5886V44.4203C39.1197 43.8581 38.6637 43.4023 38.1012 43.4023Z" fill="#FF5C00"/>
<path d="M48.1012 53.501H46.1254C45.5629 53.501 45.1069 53.9567 45.1069 54.5189V56.6872C45.1069 57.2494 45.5629 57.7052 46.1254 57.7052H48.1012C48.6637 57.7052 49.1197 57.2494 49.1197 56.6872V54.5189C49.1197 53.9567 48.6637 53.501 48.1012 53.501Z" fill="#FF5C00"/>
<path d="M3.10124 33.4023H1.1254C0.562919 33.4023 0.106934 33.8581 0.106934 34.4203V36.5886C0.106934 37.1508 0.562919 37.6065 1.1254 37.6065H3.10124C3.66373 37.6065 4.11971 37.1508 4.11971 36.5886V34.4203C4.11971 33.8581 3.66373 33.4023 3.10124 33.4023Z" fill="#FF5C00"/>
<path d="M28.1012 33.4023H26.1254C25.5629 33.4023 25.1069 33.8581 25.1069 34.4203V36.5886C25.1069 37.1508 25.5629 37.6065 26.1254 37.6065H28.1012C28.6637 37.6065 29.1197 37.1508 29.1197 36.5886V34.4203C29.1197 33.8581 28.6637 33.4023 28.1012 33.4023Z" fill="#FF5C00"/>
<path d="M13.1325 13.4023H11.1567C10.5942 13.4023 10.1382 13.8581 10.1382 14.4203V16.5886C10.1382 17.1508 10.5942 17.6065 11.1567 17.6065H13.1325C13.695 17.6065 14.151 17.1508 14.151 16.5886V14.4203C14.151 13.8581 13.695 13.4023 13.1325 13.4023Z" fill="#FF5C00"/>
<path d="M13.1012 8.31104H11.1254C10.5629 8.31104 10.1069 8.76679 10.1069 9.329V11.4973C10.1069 12.0595 10.5629 12.5152 11.1254 12.5152H13.1012C13.6637 12.5152 14.1197 12.0595 14.1197 11.4973V9.329C14.1197 8.76679 13.6637 8.31104 13.1012 8.31104Z" fill="#FF5C00"/>
<path d="M13.1012 3.31104H11.1254C10.5629 3.31104 10.1069 3.76679 10.1069 4.329V6.49726C10.1069 7.05947 10.5629 7.51523 11.1254 7.51523H13.1012C13.6637 7.51523 14.1197 7.05947 14.1197 6.49726V4.329C14.1197 3.76679 13.6637 3.31104 13.1012 3.31104Z" fill="#FF5C00"/>
<path d="M3.10124 13.311H1.1254C0.562919 13.311 0.106934 13.7668 0.106934 14.329V16.4973C0.106934 17.0595 0.562919 17.5152 1.1254 17.5152H3.10124C3.66373 17.5152 4.11971 17.0595 4.11971 16.4973V14.329C4.11971 13.7668 3.66373 13.311 3.10124 13.311Z" fill="#FF5C00"/>
<path d="M3.10124 3.31104H1.1254C0.562919 3.31104 0.106934 3.76679 0.106934 4.329V6.49726C0.106934 7.05947 0.562919 7.51523 1.1254 7.51523H3.10124C3.66373 7.51523 4.11971 7.05947 4.11971 6.49726V4.329C4.11971 3.76679 3.66373 3.31104 3.10124 3.31104Z" fill="#FF5C00"/>
<path d="M13.1012 33.4023H11.1254C10.5629 33.4023 10.1069 33.8581 10.1069 34.4203V36.5886C10.1069 37.1508 10.5629 37.6065 11.1254 37.6065H13.1012C13.6637 37.6065 14.1197 37.1508 14.1197 36.5886V34.4203C14.1197 33.8581 13.6637 33.4023 13.1012 33.4023Z" fill="#FF5C00"/>
<path d="M38.1012 33.4023H36.1254C35.5629 33.4023 35.1069 33.8581 35.1069 34.4203V36.5886C35.1069 37.1508 35.5629 37.6065 36.1254 37.6065H38.1012C38.6637 37.6065 39.1197 37.1508 39.1197 36.5886V34.4203C39.1197 33.8581 38.6637 33.4023 38.1012 33.4023Z" fill="#FF5C00"/>
</svg>
