<svg width="61" height="61" viewBox="0 0 61 61" fill="none" xmlns="http://www.w3.org/2000/svg">
<path d="M28.0387 30.311H26.0629C25.5004 30.311 25.0444 30.7668 25.0444 31.329V33.4973C25.0444 34.0595 25.5004 34.5152 26.0629 34.5152H28.0387C28.6012 34.5152 29.0572 34.0595 29.0572 33.4973V31.329C29.0572 30.7668 28.6012 30.311 28.0387 30.311Z" fill="#FF5C00"/>
<path d="M28.0387 50.311H26.0629C25.5004 50.311 25.0444 50.7668 25.0444 51.329V53.4973C25.0444 54.0595 25.5004 54.5152 26.0629 54.5152H28.0387C28.6012 54.5152 29.0572 54.0595 29.0572 53.4973V51.329C29.0572 50.7668 28.6012 50.311 28.0387 50.311Z" fill="#FF5C00"/>
<path d="M23.0387 30.311H21.0629C20.5004 30.311 20.0444 30.7668 20.0444 31.329V33.4973C20.0444 34.0595 20.5004 34.5152 21.0629 34.5152H23.0387C23.6012 34.5152 24.0572 34.0595 24.0572 33.4973V31.329C24.0572 30.7668 23.6012 30.311 23.0387 30.311Z" fill="#FF5C00"/>
<path d="M48.0387 30.311H46.0629C45.5004 30.311 45.0444 30.7668 45.0444 31.329V33.4973C45.0444 34.0595 45.5004 34.5152 46.0629 34.5152H48.0387C48.6012 34.5152 49.0572 34.0595 49.0572 33.4973V31.329C49.0572 30.7668 48.6012 30.311 48.0387 30.311Z" fill="#FF5C00"/>
<path d="M13.0387 30.311H11.0629C10.5004 30.311 10.0444 30.7668 10.0444 31.329V33.4973C10.0444 34.0595 10.5004 34.5152 11.0629 34.5152H13.0387C13.6012 34.5152 14.0572 34.0595 14.0572 33.4973V31.329C14.0572 30.7668 13.6012 30.311 13.0387 30.311Z" fill="#FF5C00"/>
<path d="M38.0387 30.311H36.0629C35.5004 30.311 35.0444 30.7668 35.0444 31.329V33.4973C35.0444 34.0595 35.5004 34.5152 36.0629 34.5152H38.0387C38.6012 34.5152 39.0572 34.0595 39.0572 33.4973V31.329C39.0572 30.7668 38.6012 30.311 38.0387 30.311Z" fill="#FF5C00"/>
<path d="M28.0387 40.311H26.0629C25.5004 40.311 25.0444 40.7668 25.0444 41.329V43.4973C25.0444 44.0595 25.5004 44.5152 26.0629 44.5152H28.0387C28.6012 44.5152 29.0572 44.0595 29.0572 43.4973V41.329C29.0572 40.7668 28.6012 40.311 28.0387 40.311Z" fill="#FF5C00"/>
<path d="M53.0387 20.311H51.0629C50.5004 20.311 50.0444 20.7668 50.0444 21.329V23.4973C50.0444 24.0595 50.5004 24.5152 51.0629 24.5152H53.0387C53.6012 24.5152 54.0572 24.0595 54.0572 23.4973V21.329C54.0572 20.7668 53.6012 20.311 53.0387 20.311Z" fill="#FF5C00"/>
<path d="M53.0387 25.311H51.0629C50.5004 25.311 50.0444 25.7668 50.0444 26.329V28.4973C50.0444 29.0595 50.5004 29.5152 51.0629 29.5152H53.0387C53.6012 29.5152 54.0572 29.0595 54.0572 28.4973V26.329C54.0572 25.7668 53.6012 25.311 53.0387 25.311Z" fill="#FF5C00"/>
<path d="M28.0387 0.311035H26.0629C25.5004 0.311035 25.0444 0.766793 25.0444 1.329V3.49726C25.0444 4.05947 25.5004 4.51523 26.0629 4.51523H28.0387C28.6012 4.51523 29.0572 4.05947 29.0572 3.49726V1.329C29.0572 0.766793 28.6012 0.311035 28.0387 0.311035Z" fill="#FF5C00"/>
<path d="M23.0387 40.311H21.0629C20.5004 40.311 20.0444 40.7668 20.0444 41.329V43.4973C20.0444 44.0595 20.5004 44.5152 21.0629 44.5152H23.0387C23.6012 44.5152 24.0572 44.0595 24.0572 43.4973V41.329C24.0572 40.7668 23.6012 40.311 23.0387 40.311Z" fill="#FF5C00"/>
<path d="M48.0387 20.311H46.0629C45.5004 20.311 45.0444 20.7668 45.0444 21.329V23.4973C45.0444 24.0595 45.5004 24.5152 46.0629 24.5152H48.0387C48.6012 24.5152 49.0572 24.0595 49.0572 23.4973V21.329C49.0572 20.7668 48.6012 20.311 48.0387 20.311Z" fill="#FF5C00"/>
<path d="M23.0387 0.311035H21.0629C20.5004 0.311035 20.0444 0.766793 20.0444 1.329V3.49726C20.0444 4.05947 20.5004 4.51523 21.0629 4.51523H23.0387C23.6012 4.51523 24.0572 4.05947 24.0572 3.49726V1.329C24.0572 0.766793 23.6012 0.311035 23.0387 0.311035Z" fill="#FF5C00"/>
<path d="M38.0387 40.311H36.0629C35.5004 40.311 35.0444 40.7668 35.0444 41.329V43.4973C35.0444 44.0595 35.5004 44.5152 36.0629 44.5152H38.0387C38.6012 44.5152 39.0572 44.0595 39.0572 43.4973V41.329C39.0572 40.7668 38.6012 40.311 38.0387 40.311Z" fill="#FF5C00"/>
<path d="M13.0387 20.311H11.0629C10.5004 20.311 10.0444 20.7668 10.0444 21.329V23.4973C10.0444 24.0595 10.5004 24.5152 11.0629 24.5152H13.0387C13.6012 24.5152 14.0572 24.0595 14.0572 23.4973V21.329C14.0572 20.7668 13.6012 20.311 13.0387 20.311Z" fill="#FF5C00"/>
<path d="M38.0387 0.311035H36.0629C35.5004 0.311035 35.0444 0.766793 35.0444 1.329V3.49726C35.0444 4.05947 35.5004 4.51523 36.0629 4.51523H38.0387C38.6012 4.51523 39.0572 4.05947 39.0572 3.49726V1.329C39.0572 0.766793 38.6012 0.311035 38.0387 0.311035Z" fill="#FF5C00"/>
<path d="M28.0387 55.3604H26.0629C25.5004 55.3604 25.0444 55.8161 25.0444 56.3783V58.5466C25.0444 59.1088 25.5004 59.5645 26.0629 59.5645H28.0387C28.6012 59.5645 29.0572 59.1088 29.0572 58.5466V56.3783C29.0572 55.8161 28.6012 55.3604 28.0387 55.3604Z" fill="#FF5C00"/>
<path d="M48.0387 35.3604H46.0629C45.5004 35.3604 45.0444 35.8161 45.0444 36.3783V38.5466C45.0444 39.1088 45.5004 39.5645 46.0629 39.5645H48.0387C48.6012 39.5645 49.0572 39.1088 49.0572 38.5466V36.3783C49.0572 35.8161 48.6012 35.3604 48.0387 35.3604Z" fill="#FF5C00"/>
<path d="M23.0387 55.3604H21.0629C20.5004 55.3604 20.0444 55.8161 20.0444 56.3783V58.5466C20.0444 59.1088 20.5004 59.5645 21.0629 59.5645H23.0387C23.6012 59.5645 24.0572 59.1088 24.0572 58.5466V56.3783C24.0572 55.8161 23.6012 55.3604 23.0387 55.3604Z" fill="#FF5C00"/>
<path d="M13.0387 35.3604H11.0629C10.5004 35.3604 10.0444 35.8161 10.0444 36.3783V38.5466C10.0444 39.1088 10.5004 39.5645 11.0629 39.5645H13.0387C13.6012 39.5645 14.0572 39.1088 14.0572 38.5466V36.3783C14.0572 35.8161 13.6012 35.3604 13.0387 35.3604Z" fill="#FF5C00"/>
<path d="M38.0387 55.3604H36.0629C35.5004 55.3604 35.0444 55.8161 35.0444 56.3783V58.5466C35.0444 59.1088 35.5004 59.5645 36.0629 59.5645H38.0387C38.6012 59.5645 39.0572 59.1088 39.0572 58.5466V56.3783C39.0572 55.8161 38.6012 55.3604 38.0387 55.3604Z" fill="#FF5C00"/>
<path d="M28.0387 45.3604H26.0629C25.5004 45.3604 25.0444 45.8161 25.0444 46.3783V48.5466C25.0444 49.1088 25.5004 49.5645 26.0629 49.5645H28.0387C28.6012 49.5645 29.0572 49.1088 29.0572 48.5466V46.3783C29.0572 45.8161 28.6012 45.3604 28.0387 45.3604Z" fill="#FF5C00"/>
<path d="M48.0387 25.3604H46.0629C45.5004 25.3604 45.0444 25.8161 45.0444 26.3783V28.5466C45.0444 29.1088 45.5004 29.5645 46.0629 29.5645H48.0387C48.6012 29.5645 49.0572 29.1088 49.0572 28.5466V26.3783C49.0572 25.8161 48.6012 25.3604 48.0387 25.3604Z" fill="#FF5C00"/>
<path d="M13.0387 25.3604H11.0629C10.5004 25.3604 10.0444 25.8161 10.0444 26.3783V28.5466C10.0444 29.1088 10.5004 29.5645 11.0629 29.5645H13.0387C13.6012 29.5645 14.0572 29.1088 14.0572 28.5466V26.3783C14.0572 25.8161 13.6012 25.3604 13.0387 25.3604Z" fill="#FF5C00"/>
<path d="M33.07 30.4023H31.0942C30.5317 30.4023 30.0757 30.8581 30.0757 31.4203V33.5886C30.0757 34.1508 30.5317 34.6065 31.0942 34.6065H33.07C33.6325 34.6065 34.0885 34.1508 34.0885 33.5886V31.4203C34.0885 30.8581 33.6325 30.4023 33.07 30.4023Z" fill="#FF5C00"/>
<path d="M33.07 50.4023H31.0942C30.5317 50.4023 30.0757 50.8581 30.0757 51.4203V53.5886C30.0757 54.1508 30.5317 54.6065 31.0942 54.6065H33.07C33.6325 54.6065 34.0885 54.1508 34.0885 53.5886V51.4203C34.0885 50.8581 33.6325 50.4023 33.07 50.4023Z" fill="#FF5C00"/>
<path d="M18.07 30.4023H16.0942C15.5317 30.4023 15.0757 30.8581 15.0757 31.4203V33.5886C15.0757 34.1508 15.5317 34.6065 16.0942 34.6065H18.07C18.6325 34.6065 19.0885 34.1508 19.0885 33.5886V31.4203C19.0885 30.8581 18.6325 30.4023 18.07 30.4023Z" fill="#FF5C00"/>
<path d="M18.0387 35.4023H16.0629C15.5004 35.4023 15.0444 35.8581 15.0444 36.4203V38.5886C15.0444 39.1508 15.5004 39.6065 16.0629 39.6065H18.0387C18.6012 39.6065 19.0572 39.1508 19.0572 38.5886V36.4203C19.0572 35.8581 18.6012 35.4023 18.0387 35.4023Z" fill="#FF5C00"/>
<path d="M43.07 30.4023H41.0942C40.5317 30.4023 40.0757 30.8581 40.0757 31.4203V33.5886C40.0757 34.1508 40.5317 34.6065 41.0942 34.6065H43.07C43.6325 34.6065 44.0885 34.1508 44.0885 33.5886V31.4203C44.0885 30.8581 43.6325 30.4023 43.07 30.4023Z" fill="#FF5C00"/>
<path d="M43.0387 35.4023H41.0629C40.5004 35.4023 40.0444 35.8581 40.0444 36.4203V38.5886C40.0444 39.1508 40.5004 39.6065 41.0629 39.6065H43.0387C43.6012 39.6065 44.0572 39.1508 44.0572 38.5886V36.4203C44.0572 35.8581 43.6012 35.4023 43.0387 35.4023Z" fill="#FF5C00"/>
<path d="M18.07 10.4023H16.0942C15.5317 10.4023 15.0757 10.8581 15.0757 11.4203V13.5886C15.0757 14.1508 15.5317 14.6065 16.0942 14.6065H18.07C18.6325 14.6065 19.0885 14.1508 19.0885 13.5886V11.4203C19.0885 10.8581 18.6325 10.4023 18.07 10.4023Z" fill="#FF5C00"/>
<path d="M43.07 10.4023H41.0942C40.5317 10.4023 40.0757 10.8581 40.0757 11.4203V13.5886C40.0757 14.1508 40.5317 14.6065 41.0942 14.6065H43.07C43.6325 14.6065 44.0885 14.1508 44.0885 13.5886V11.4203C44.0885 10.8581 43.6325 10.4023 43.07 10.4023Z" fill="#FF5C00"/>
<path d="M33.07 40.4023H31.0942C30.5317 40.4023 30.0757 40.8581 30.0757 41.4203V43.5886C30.0757 44.1508 30.5317 44.6065 31.0942 44.6065H33.07C33.6325 44.6065 34.0885 44.1508 34.0885 43.5886V41.4203C34.0885 40.8581 33.6325 40.4023 33.07 40.4023Z" fill="#FF5C00"/>
<path d="M8.06999 20.4023H6.09415C5.53167 20.4023 5.07568 20.8581 5.07568 21.4203V23.5886C5.07568 24.1508 5.53167 24.6065 6.09415 24.6065H8.06999C8.63248 24.6065 9.08846 24.1508 9.08846 23.5886V21.4203C9.08846 20.8581 8.63248 20.4023 8.06999 20.4023Z" fill="#FF5C00"/>
<path d="M8.03874 25.311H6.0629C5.50042 25.311 5.04443 25.7668 5.04443 26.329V28.4973C5.04443 29.0595 5.50042 29.5152 6.0629 29.5152H8.03874C8.60123 29.5152 9.05721 29.0595 9.05721 28.4973V26.329C9.05721 25.7668 8.60123 25.311 8.03874 25.311Z" fill="#FF5C00"/>
<path d="M33.07 0.402344H31.0942C30.5317 0.402344 30.0757 0.858102 30.0757 1.42031V3.58857C30.0757 4.15078 30.5317 4.60654 31.0942 4.60654H33.07C33.6325 4.60654 34.0885 4.15078 34.0885 3.58857V1.42031C34.0885 0.858102 33.6325 0.402344 33.07 0.402344Z" fill="#FF5C00"/>
<path d="M18.07 40.4023H16.0942C15.5317 40.4023 15.0757 40.8581 15.0757 41.4203V43.5886C15.0757 44.1508 15.5317 44.6065 16.0942 44.6065H18.07C18.6325 44.6065 19.0885 44.1508 19.0885 43.5886V41.4203C19.0885 40.8581 18.6325 40.4023 18.07 40.4023Z" fill="#FF5C00"/>
<path d="M43.07 40.4023H41.0942C40.5317 40.4023 40.0757 40.8581 40.0757 41.4203V43.5886C40.0757 44.1508 40.5317 44.6065 41.0942 44.6065H43.07C43.6325 44.6065 44.0885 44.1508 44.0885 43.5886V41.4203C44.0885 40.8581 43.6325 40.4023 43.07 40.4023Z" fill="#FF5C00"/>
<path d="M18.07 20.4023H16.0942C15.5317 20.4023 15.0757 20.8581 15.0757 21.4203V23.5886C15.0757 24.1508 15.5317 24.6065 16.0942 24.6065H18.07C18.6325 24.6065 19.0885 24.1508 19.0885 23.5886V21.4203C19.0885 20.8581 18.6325 20.4023 18.07 20.4023Z" fill="#FF5C00"/>
<path d="M43.07 20.4023H41.0942C40.5317 20.4023 40.0757 20.8581 40.0757 21.4203V23.5886C40.0757 24.1508 40.5317 24.6065 41.0942 24.6065H43.07C43.6325 24.6065 44.0885 24.1508 44.0885 23.5886V21.4203C44.0885 20.8581 43.6325 20.4023 43.07 20.4023Z" fill="#FF5C00"/>
<path d="M33.07 55.4517H31.0942C30.5317 55.4517 30.0757 55.9074 30.0757 56.4696V58.6379C30.0757 59.2001 30.5317 59.6559 31.0942 59.6559H33.07C33.6325 59.6559 34.0885 59.2001 34.0885 58.6379V56.4696C34.0885 55.9074 33.6325 55.4517 33.07 55.4517Z" fill="#FF5C00"/>
<path d="M18.07 55.4517H16.0942C15.5317 55.4517 15.0757 55.9074 15.0757 56.4696V58.6379C15.0757 59.2001 15.5317 59.6559 16.0942 59.6559H18.07C18.6325 59.6559 19.0885 59.2001 19.0885 58.6379V56.4696C19.0885 55.9074 18.6325 55.4517 18.07 55.4517Z" fill="#FF5C00"/>
<path d="M43.07 55.4517H41.0942C40.5317 55.4517 40.0757 55.9074 40.0757 56.4696V58.6379C40.0757 59.2001 40.5317 59.6559 41.0942 59.6559H43.07C43.6325 59.6559 44.0885 59.2001 44.0885 58.6379V56.4696C44.0885 55.9074 43.6325 55.4517 43.07 55.4517Z" fill="#FF5C00"/>
<path d="M18.07 15.4517H16.0942C15.5317 15.4517 15.0757 15.9074 15.0757 16.4696V18.6379C15.0757 19.2001 15.5317 19.6559 16.0942 19.6559H18.07C18.6325 19.6559 19.0885 19.2001 19.0885 18.6379V16.4696C19.0885 15.9074 18.6325 15.4517 18.07 15.4517Z" fill="#FF5C00"/>
<path d="M43.07 15.4517H41.0942C40.5317 15.4517 40.0757 15.9074 40.0757 16.4696V18.6379C40.0757 19.2001 40.5317 19.6559 41.0942 19.6559H43.07C43.6325 19.6559 44.0885 19.2001 44.0885 18.6379V16.4696C44.0885 15.9074 43.6325 15.4517 43.07 15.4517Z" fill="#FF5C00"/>
<path d="M33.07 45.4517H31.0942C30.5317 45.4517 30.0757 45.9074 30.0757 46.4696V48.6379C30.0757 49.2001 30.5317 49.6559 31.0942 49.6559H33.07C33.6325 49.6559 34.0885 49.2001 34.0885 48.6379V46.4696C34.0885 45.9074 33.6325 45.4517 33.07 45.4517Z" fill="#FF5C00"/>
<path d="M18.07 25.4517H16.0942C15.5317 25.4517 15.0757 25.9074 15.0757 26.4696V28.6379C15.0757 29.2001 15.5317 29.6559 16.0942 29.6559H18.07C18.6325 29.6559 19.0885 29.2001 19.0885 28.6379V26.4696C19.0885 25.9074 18.6325 25.4517 18.07 25.4517Z" fill="#FF5C00"/>
<path d="M43.07 25.4517H41.0942C40.5317 25.4517 40.0757 25.9074 40.0757 26.4696V28.6379C40.0757 29.2001 40.5317 29.6559 41.0942 29.6559H43.07C43.6325 29.6559 44.0885 29.2001 44.0885 28.6379V26.4696C44.0885 25.9074 43.6325 25.4517 43.07 25.4517Z" fill="#FF5C00"/>
<path d="M18.07 5.45166H16.0942C15.5317 5.45166 15.0757 5.90742 15.0757 6.46962V8.63789C15.0757 9.20009 15.5317 9.65585 16.0942 9.65585H18.07C18.6325 9.65585 19.0885 9.20009 19.0885 8.63789V6.46962C19.0885 5.90742 18.6325 5.45166 18.07 5.45166Z" fill="#FF5C00"/>
<path d="M43.07 5.45166H41.0942C40.5317 5.45166 40.0757 5.90742 40.0757 6.46962V8.63789C40.0757 9.20009 40.5317 9.65585 41.0942 9.65585H43.07C43.6325 9.65585 44.0885 9.20009 44.0885 8.63789V6.46962C44.0885 5.90742 43.6325 5.45166 43.07 5.45166Z" fill="#FF5C00"/>
</svg>
