<svg width="96" height="57" viewBox="0 0 96 57" fill="none" xmlns="http://www.w3.org/2000/svg">
<g clip-path="url(#clip0_915_91596)">
<path d="M65.1391 14.9993C67.2703 9.46441 64.827 3.11898 59.682 0.826361C54.5369 -1.46626 48.6384 1.16211 46.5072 6.69698C44.3761 12.2319 46.8193 18.5773 51.9644 20.8699C57.1094 23.1625 63.008 20.5342 65.1391 14.9993Z" fill="#010101"/>
<path d="M66.7389 21.6914H24.7393C19.574 21.6914 15.3867 26.1959 15.3867 31.7526V43.9729C15.3867 49.5295 19.574 54.0341 24.7393 54.0341H66.7389C71.9042 54.0341 76.0915 49.5295 76.0915 43.9729V31.7526C76.0915 26.1959 71.9042 21.6914 66.7389 21.6914Z" fill="#010101"/>
<path d="M52.3497 49.0039H36.6403C35.7668 49.0039 35.0586 49.7657 35.0586 50.7055V57.3635C35.0586 58.3032 35.7668 59.0651 36.6403 59.0651H52.3497C53.2233 59.0651 53.9315 58.3032 53.9315 57.3635V50.7055C53.9315 49.7657 53.2233 49.0039 52.3497 49.0039Z" fill="#010101"/>
<path d="M52.4641 26.3516H21.8571C20.9836 26.3516 20.2754 27.1134 20.2754 28.0531V39.3421C20.2754 40.2819 20.9836 41.0437 21.8571 41.0437H52.4641C53.3377 41.0437 54.0458 40.2819 54.0458 39.3421V28.0531C54.0458 27.1134 53.3377 26.3516 52.4641 26.3516Z" fill="white"/>
<path d="M50.5905 28.668H38.401C37.7987 28.668 37.3105 29.1932 37.3105 29.841V37.5561C37.3105 38.2039 37.7987 38.7291 38.401 38.7291H50.5905C51.1927 38.7291 51.6809 38.2039 51.6809 37.5561V29.841C51.6809 29.1932 51.1927 28.668 50.5905 28.668Z" fill="#010101"/>
<path d="M43.7309 14.9993C45.8621 9.46442 43.4188 3.11898 38.2738 0.826366C33.1287 -1.46625 27.2302 1.16211 25.099 6.69698C22.9679 12.2319 25.4111 18.5773 30.5562 20.8699C35.7012 23.1625 41.5998 20.5342 43.7309 14.9993Z" fill="#010101"/>
<path d="M35.7014 10.846C35.7014 11.613 35.1233 12.235 34.4103 12.235C33.6973 12.235 33.1191 11.613 33.1191 10.846C33.1191 10.079 33.6973 9.45703 34.4103 9.45703C35.1233 9.45703 35.7014 10.079 35.7014 10.846Z" fill="white"/>
<path d="M57.1116 10.846C57.1116 11.613 56.5334 12.235 55.8204 12.235C55.1075 12.235 54.5293 11.613 54.5293 10.846C54.5293 10.079 55.1075 9.45703 55.8204 9.45703C56.5334 9.45703 57.1116 10.079 57.1116 10.846Z" fill="white"/>
<path d="M38.4443 18.9536C42.6047 16.5588 44.1728 10.9892 41.9466 6.51359C39.7205 2.03794 34.5432 0.351078 30.3827 2.74587C26.2223 5.14067 24.6542 10.7103 26.8804 15.1859C29.1065 19.6616 34.2838 21.3484 38.4443 18.9536Z" stroke="white" stroke-miterlimit="10"/>
<path d="M60.8164 18.3086C64.6444 15.3407 65.5111 9.59645 62.7523 5.4784C59.9935 1.36035 54.6538 0.427922 50.8258 3.39577C46.9978 6.36362 46.131 12.1079 48.8898 16.2259C51.6487 20.344 56.9883 21.2764 60.8164 18.3086Z" stroke="white" stroke-miterlimit="10"/>
<path d="M83.3474 31.6758H76.7988C76.4083 31.6758 76.0918 32.0163 76.0918 32.4363V43.2903C76.0918 43.7103 76.4083 44.0508 76.7988 44.0508H83.3474C83.7378 44.0508 84.0543 43.7103 84.0543 43.2903V32.4363C84.0543 32.0163 83.7378 31.6758 83.3474 31.6758Z" fill="#010101"/>
<path d="M84.9115 33.6992H84.8575C84.4141 33.6992 84.0547 34.0859 84.0547 34.5629V41.1629C84.0547 41.6399 84.4141 42.0266 84.8575 42.0266H84.9115C85.3549 42.0266 85.7143 41.6399 85.7143 41.1629V34.5629C85.7143 34.0859 85.3549 33.6992 84.9115 33.6992Z" fill="#010101"/>
<path d="M26.3508 30.0092C26.3508 30.7891 25.7636 31.4207 25.0387 31.4207C24.3137 31.4207 23.7266 30.7891 23.7266 30.0092C23.7266 29.2293 24.3137 28.5977 25.0387 28.5977C25.7636 28.5977 26.3508 29.2293 26.3508 30.0092Z" fill="#010101"/>
<path d="M26.3508 33.7006C26.3508 34.4805 25.7636 35.1121 25.0387 35.1121C24.3137 35.1121 23.7266 34.4805 23.7266 33.7006C23.7266 32.9207 24.3137 32.2891 25.0387 32.2891C25.7636 32.2891 26.3508 32.9207 26.3508 33.7006Z" fill="#010101"/>
<path d="M26.3508 37.3842C26.3508 38.1641 25.7636 38.7957 25.0387 38.7957C24.3137 38.7957 23.7266 38.1641 23.7266 37.3842C23.7266 36.6043 24.3137 35.9727 25.0387 35.9727C25.7636 35.9727 26.3508 36.6043 26.3508 37.3842Z" fill="#010101"/>
<path d="M45.0483 57.6936L23.1678 155.724C22.8203 157.277 21.3763 158.247 19.9564 157.88C18.5274 157.512 17.6587 155.943 18.0062 154.39L39.8867 56.3594L45.0483 57.6936Z" fill="#010101"/>
<path d="M49.3962 56.1367L66.978 155.894C67.2566 157.473 66.3099 159.007 64.875 159.301C63.4311 159.594 62.0381 158.54 61.7595 156.961L44.1777 57.2034L49.3932 56.1399L49.3962 56.1367Z" fill="#010101"/>
<path d="M78.6655 31.6445H78.1113V44.0453H78.6655V31.6445Z" fill="white"/>
<path d="M82.189 31.6445H81.6348V44.0453H82.189V31.6445Z" fill="white"/>
</g>
<defs>
<clipPath id="clip0_915_91596">
<rect width="96" height="57" fill="white"/>
</clipPath>
</defs>
</svg>
