<svg width="60" height="60" viewBox="0 0 60 60" fill="none" xmlns="http://www.w3.org/2000/svg">
<path d="M53.0387 20.4092H51.0629C50.5004 20.4092 50.0444 20.8649 50.0444 21.4271V23.5954C50.0444 24.1576 50.5004 24.6134 51.0629 24.6134H53.0387C53.6012 24.6134 54.0572 24.1576 54.0572 23.5954V21.4271C54.0572 20.8649 53.6012 20.4092 53.0387 20.4092Z" fill="#FF5C00"/>
<path d="M53.0387 40.4092H51.0629C50.5004 40.4092 50.0444 40.8649 50.0444 41.4271V43.5954C50.0444 44.1576 50.5004 44.6134 51.0629 44.6134H53.0387C53.6012 44.6134 54.0572 44.1576 54.0572 43.5954V41.4271C54.0572 40.8649 53.6012 40.4092 53.0387 40.4092Z" fill="#FF5C00"/>
<path d="M53.0387 0.40918H51.0629C50.5004 0.40918 50.0444 0.864938 50.0444 1.42714V3.59541C50.0444 4.15761 50.5004 4.61337 51.0629 4.61337H53.0387C53.6012 4.61337 54.0572 4.15761 54.0572 3.59541V1.42714C54.0572 0.864938 53.6012 0.40918 53.0387 0.40918Z" fill="#FF5C00"/>
<path d="M18.0075 0.360352H16.0317C15.4692 0.360352 15.0132 0.81611 15.0132 1.37832V3.54658C15.0132 4.10879 15.4692 4.56454 16.0317 4.56454H18.0075C18.57 4.56454 19.026 4.10879 19.026 3.54658V1.37832C19.026 0.81611 18.57 0.360352 18.0075 0.360352Z" fill="#FF5C00"/>
<path d="M28.0387 20.3604H26.0629C25.5004 20.3604 25.0444 20.8161 25.0444 21.3783V23.5466C25.0444 24.1088 25.5004 24.5645 26.0629 24.5645H28.0387C28.6012 24.5645 29.0572 24.1088 29.0572 23.5466V21.3783C29.0572 20.8161 28.6012 20.3604 28.0387 20.3604Z" fill="#FF5C00"/>
<path d="M53.0387 30.4092H51.0629C50.5004 30.4092 50.0444 30.8649 50.0444 31.4271V33.5954C50.0444 34.1576 50.5004 34.6134 51.0629 34.6134H53.0387C53.6012 34.6134 54.0572 34.1576 54.0572 33.5954V31.4271C54.0572 30.8649 53.6012 30.4092 53.0387 30.4092Z" fill="#FF5C00"/>
<path d="M48.0387 55.4092H46.0629C45.5004 55.4092 45.0444 55.8649 45.0444 56.4271V58.5954C45.0444 59.1576 45.5004 59.6134 46.0629 59.6134H48.0387C48.6012 59.6134 49.0572 59.1576 49.0572 58.5954V56.4271C49.0572 55.8649 48.6012 55.4092 48.0387 55.4092Z" fill="#FF5C00"/>
<path d="M53.0387 50.3604H51.0629C50.5004 50.3604 50.0444 50.8161 50.0444 51.3783V53.5466C50.0444 54.1088 50.5004 54.5645 51.0629 54.5645H53.0387C53.6012 54.5645 54.0572 54.1088 54.0572 53.5466V51.3783C54.0572 50.8161 53.6012 50.3604 53.0387 50.3604Z" fill="#FF5C00"/>
<path d="M53.0387 10.4092H51.0629C50.5004 10.4092 50.0444 10.8649 50.0444 11.4271V13.5954C50.0444 14.1576 50.5004 14.6134 51.0629 14.6134H53.0387C53.6012 14.6134 54.0572 14.1576 54.0572 13.5954V11.4271C54.0572 10.8649 53.6012 10.4092 53.0387 10.4092Z" fill="#FF5C00"/>
<path d="M13.0075 55.4092H11.0317C10.4692 55.4092 10.0132 55.8649 10.0132 56.4271V58.5954C10.0132 59.1576 10.4692 59.6134 11.0317 59.6134H13.0075C13.57 59.6134 14.026 59.1576 14.026 58.5954V56.4271C14.026 55.8649 13.57 55.4092 13.0075 55.4092Z" fill="#FF5C00"/>
<path d="M38.07 25.4092H36.0942C35.5317 25.4092 35.0757 25.8649 35.0757 26.4271V28.5954C35.0757 29.1576 35.5317 29.6134 36.0942 29.6134H38.07C38.6325 29.6134 39.0885 29.1576 39.0885 28.5954V26.4271C39.0885 25.8649 38.6325 25.4092 38.07 25.4092Z" fill="#FF5C00"/>
<path d="M43.07 25.4092H41.0942C40.5317 25.4092 40.0757 25.8649 40.0757 26.4271V28.5954C40.0757 29.1576 40.5317 29.6134 41.0942 29.6134H43.07C43.6325 29.6134 44.0885 29.1576 44.0885 28.5954V26.4271C44.0885 25.8649 43.6325 25.4092 43.07 25.4092Z" fill="#FF5C00"/>
<path d="M33.0387 30.4092H31.0629C30.5004 30.4092 30.0444 30.8649 30.0444 31.4271V33.5954C30.0444 34.1576 30.5004 34.6134 31.0629 34.6134H33.0387C33.6012 34.6134 34.0572 34.1576 34.0572 33.5954V31.4271C34.0572 30.8649 33.6012 30.4092 33.0387 30.4092Z" fill="#FF5C00"/>
<path d="M38.07 30.4092H36.0942C35.5317 30.4092 35.0757 30.8649 35.0757 31.4271V33.5954C35.0757 34.1576 35.5317 34.6134 36.0942 34.6134H38.07C38.6325 34.6134 39.0885 34.1576 39.0885 33.5954V31.4271C39.0885 30.8649 38.6325 30.4092 38.07 30.4092Z" fill="#FF5C00"/>
<path d="M28.0075 45.4092H26.0317C25.4692 45.4092 25.0132 45.8649 25.0132 46.4271V48.5954C25.0132 49.1576 25.4692 49.6134 26.0317 49.6134H28.0075C28.57 49.6134 29.026 49.1576 29.026 48.5954V46.4271C29.026 45.8649 28.57 45.4092 28.0075 45.4092Z" fill="#FF5C00"/>
<path d="M27.9762 45.3604H26.0004C25.4379 45.3604 24.9819 45.8161 24.9819 46.3783V48.5466C24.9819 49.1088 25.4379 49.5645 26.0004 49.5645H27.9762C28.5387 49.5645 28.9947 49.1088 28.9947 48.5466V46.3783C28.9947 45.8161 28.5387 45.3604 27.9762 45.3604Z" fill="#FF5C00"/>
<path d="M53.0387 25.4585H51.0629C50.5004 25.4585 50.0444 25.9143 50.0444 26.4765V28.6447C50.0444 29.2069 50.5004 29.6627 51.0629 29.6627H53.0387C53.6012 29.6627 54.0572 29.2069 54.0572 28.6447V26.4765C54.0572 25.9143 53.6012 25.4585 53.0387 25.4585Z" fill="#FF5C00"/>
<path d="M23.0075 45.4092H21.0317C20.4692 45.4092 20.0132 45.8649 20.0132 46.4271V48.5954C20.0132 49.1576 20.4692 49.6134 21.0317 49.6134H23.0075C23.57 49.6134 24.026 49.1576 24.026 48.5954V46.4271C24.026 45.8649 23.57 45.4092 23.0075 45.4092Z" fill="#FF5C00"/>
<path d="M22.9762 45.3604H21.0004C20.4379 45.3604 19.9819 45.8161 19.9819 46.3783V48.5466C19.9819 49.1088 20.4379 49.5645 21.0004 49.5645H22.9762C23.5387 49.5645 23.9947 49.1088 23.9947 48.5466V46.3783C23.9947 45.8161 23.5387 45.3604 22.9762 45.3604Z" fill="#FF5C00"/>
<path d="M48.0075 45.4092H46.0317C45.4692 45.4092 45.0132 45.8649 45.0132 46.4271V48.5954C45.0132 49.1576 45.4692 49.6134 46.0317 49.6134H48.0075C48.57 49.6134 49.026 49.1576 49.026 48.5954V46.4271C49.026 45.8649 48.57 45.4092 48.0075 45.4092Z" fill="#FF5C00"/>
<path d="M53.0387 45.4092H51.0629C50.5004 45.4092 50.0444 45.8649 50.0444 46.4271V48.5954C50.0444 49.1576 50.5004 49.6134 51.0629 49.6134H53.0387C53.6012 49.6134 54.0572 49.1576 54.0572 48.5954V46.4271C54.0572 45.8649 53.6012 45.4092 53.0387 45.4092Z" fill="#FF5C00"/>
<path d="M53.0387 5.4585H51.0629C50.5004 5.4585 50.0444 5.91425 50.0444 6.47646V8.64472C50.0444 9.20693 50.5004 9.66269 51.0629 9.66269H53.0387C53.6012 9.66269 54.0572 9.20693 54.0572 8.64472V6.47646C54.0572 5.91425 53.6012 5.4585 53.0387 5.4585Z" fill="#FF5C00"/>
<path d="M38.0075 45.4092H36.0317C35.4692 45.4092 35.0132 45.8649 35.0132 46.4271V48.5954C35.0132 49.1576 35.4692 49.6134 36.0317 49.6134H38.0075C38.57 49.6134 39.026 49.1576 39.026 48.5954V46.4271C39.026 45.8649 38.57 45.4092 38.0075 45.4092Z" fill="#FF5C00"/>
<path d="M37.9762 45.3604H36.0004C35.4379 45.3604 34.9819 45.8161 34.9819 46.3783V48.5466C34.9819 49.1088 35.4379 49.5645 36.0004 49.5645H37.9762C38.5387 49.5645 38.9947 49.1088 38.9947 48.5466V46.3783C38.9947 45.8161 38.5387 45.3604 37.9762 45.3604Z" fill="#FF5C00"/>
<path d="M38.0387 15.4092H36.0629C35.5004 15.4092 35.0444 15.8649 35.0444 16.4271V18.5954C35.0444 19.1576 35.5004 19.6134 36.0629 19.6134H38.0387C38.6012 19.6134 39.0572 19.1576 39.0572 18.5954V16.4271C39.0572 15.8649 38.6012 15.4092 38.0387 15.4092Z" fill="#FF5C00"/>
<path d="M28.0075 55.4585H26.0317C25.4692 55.4585 25.0132 55.9143 25.0132 56.4765V58.6447C25.0132 59.2069 25.4692 59.6627 26.0317 59.6627H28.0075C28.57 59.6627 29.026 59.2069 29.026 58.6447V56.4765C29.026 55.9143 28.57 55.4585 28.0075 55.4585Z" fill="#FF5C00"/>
<path d="M28.0387 0.40918H26.0629C25.5004 0.40918 25.0444 0.864938 25.0444 1.42714V3.59541C25.0444 4.15761 25.5004 4.61337 26.0629 4.61337H28.0387C28.6012 4.61337 29.0572 4.15761 29.0572 3.59541V1.42714C29.0572 0.864938 28.6012 0.40918 28.0387 0.40918Z" fill="#FF5C00"/>
<path d="M53.0387 35.4585H51.0629C50.5004 35.4585 50.0444 35.9143 50.0444 36.4765V38.6447C50.0444 39.2069 50.5004 39.6627 51.0629 39.6627H53.0387C53.6012 39.6627 54.0572 39.2069 54.0572 38.6447V36.4765C54.0572 35.9143 53.6012 35.4585 53.0387 35.4585Z" fill="#FF5C00"/>
<path d="M23.0075 55.4585H21.0317C20.4692 55.4585 20.0132 55.9143 20.0132 56.4765V58.6447C20.0132 59.2069 20.4692 59.6627 21.0317 59.6627H23.0075C23.57 59.6627 24.026 59.2069 24.026 58.6447V56.4765C24.026 55.9143 23.57 55.4585 23.0075 55.4585Z" fill="#FF5C00"/>
<path d="M53.0387 15.4585H51.0629C50.5004 15.4585 50.0444 15.9143 50.0444 16.4765V18.6447C50.0444 19.2069 50.5004 19.6627 51.0629 19.6627H53.0387C53.6012 19.6627 54.0572 19.2069 54.0572 18.6447V16.4765C54.0572 15.9143 53.6012 15.4585 53.0387 15.4585Z" fill="#FF5C00"/>
<path d="M23.0387 0.40918H21.0629C20.5004 0.40918 20.0444 0.864938 20.0444 1.42714V3.59541C20.0444 4.15761 20.5004 4.61337 21.0629 4.61337H23.0387C23.6012 4.61337 24.0572 4.15761 24.0572 3.59541V1.42714C24.0572 0.864938 23.6012 0.40918 23.0387 0.40918Z" fill="#FF5C00"/>
<path d="M48.0387 0.40918H46.0629C45.5004 0.40918 45.0444 0.864938 45.0444 1.42714V3.59541C45.0444 4.15761 45.5004 4.61337 46.0629 4.61337H48.0387C48.6012 4.61337 49.0572 4.15761 49.0572 3.59541V1.42714C49.0572 0.864938 48.6012 0.40918 48.0387 0.40918Z" fill="#FF5C00"/>
<path d="M38.0075 55.4585H36.0317C35.4692 55.4585 35.0132 55.9143 35.0132 56.4765V58.6447C35.0132 59.2069 35.4692 59.6627 36.0317 59.6627H38.0075C38.57 59.6627 39.026 59.2069 39.026 58.6447V56.4765C39.026 55.9143 38.57 55.4585 38.0075 55.4585Z" fill="#FF5C00"/>
<path d="M38.0387 0.40918H36.0629C35.5004 0.40918 35.0444 0.864938 35.0444 1.42714V3.59541C35.0444 4.15761 35.5004 4.61337 36.0629 4.61337H38.0387C38.6012 4.61337 39.0572 4.15761 39.0572 3.59541V1.42714C39.0572 0.864938 38.6012 0.40918 38.0387 0.40918Z" fill="#FF5C00"/>
<path d="M8.03874 20.4517H6.0629C5.50042 20.4517 5.04443 20.9074 5.04443 21.4696V23.6379C5.04443 24.2001 5.50042 24.6559 6.0629 24.6559H8.03874C8.60123 24.6559 9.05721 24.2001 9.05721 23.6379V21.4696C9.05721 20.9074 8.60123 20.4517 8.03874 20.4517Z" fill="#FF5C00"/>
<path d="M8.03874 40.4517H6.0629C5.50042 40.4517 5.04443 40.9074 5.04443 41.4696V43.6379C5.04443 44.2001 5.50042 44.6559 6.0629 44.6559H8.03874C8.60123 44.6559 9.05721 44.2001 9.05721 43.6379V41.4696C9.05721 40.9074 8.60123 40.4517 8.03874 40.4517Z" fill="#FF5C00"/>
<path d="M13.0387 5.40918H11.0629C10.5004 5.40918 10.0444 5.86494 10.0444 6.42714V8.59541C10.0444 9.15761 10.5004 9.61337 11.0629 9.61337H13.0387C13.6012 9.61337 14.0572 9.15761 14.0572 8.59541V6.42714C14.0572 5.86494 13.6012 5.40918 13.0387 5.40918Z" fill="#FF5C00"/>
<path d="M18.0387 20.4517H16.0629C15.5004 20.4517 15.0444 20.9074 15.0444 21.4696V23.6379C15.0444 24.2001 15.5004 24.6559 16.0629 24.6559H18.0387C18.6012 24.6559 19.0572 24.2001 19.0572 23.6379V21.4696C19.0572 20.9074 18.6012 20.4517 18.0387 20.4517Z" fill="#FF5C00"/>
<path d="M18.0387 40.4517H16.0629C15.5004 40.4517 15.0444 40.9074 15.0444 41.4696V43.6379C15.0444 44.2001 15.5004 44.6559 16.0629 44.6559H18.0387C18.6012 44.6559 19.0572 44.2001 19.0572 43.6379V41.4696C19.0572 40.9074 18.6012 40.4517 18.0387 40.4517Z" fill="#FF5C00"/>
<path d="M8.03874 30.4517H6.0629C5.50042 30.4517 5.04443 30.9074 5.04443 31.4696V33.6379C5.04443 34.2001 5.50042 34.6559 6.0629 34.6559H8.03874C8.60123 34.6559 9.05721 34.2001 9.05721 33.6379V31.4696C9.05721 30.9074 8.60123 30.4517 8.03874 30.4517Z" fill="#FF5C00"/>
<path d="M8.03874 50.4517H6.0629C5.50042 50.4517 5.04443 50.9074 5.04443 51.4696V53.6379C5.04443 54.2001 5.50042 54.6559 6.0629 54.6559H8.03874C8.60123 54.6559 9.05721 54.2001 9.05721 53.6379V51.4696C9.05721 50.9074 8.60123 50.4517 8.03874 50.4517Z" fill="#FF5C00"/>
<path d="M8.03874 10.4517H6.0629C5.50042 10.4517 5.04443 10.9074 5.04443 11.4696V13.6379C5.04443 14.2001 5.50042 14.6559 6.0629 14.6559H8.03874C8.60123 14.6559 9.05721 14.2001 9.05721 13.6379V11.4696C9.05721 10.9074 8.60123 10.4517 8.03874 10.4517Z" fill="#FF5C00"/>
<path d="M28.07 25.501H26.0942C25.5317 25.501 25.0757 25.9567 25.0757 26.5189V28.6872C25.0757 29.2494 25.5317 29.7052 26.0942 29.7052H28.07C28.6325 29.7052 29.0885 29.2494 29.0885 28.6872V26.5189C29.0885 25.9567 28.6325 25.501 28.07 25.501Z" fill="#FF5C00"/>
<path d="M18.0387 30.4517H16.0629C15.5004 30.4517 15.0444 30.9074 15.0444 31.4696V33.6379C15.0444 34.2001 15.5004 34.6559 16.0629 34.6559H18.0387C18.6012 34.6559 19.0572 34.2001 19.0572 33.6379V31.4696C19.0572 30.9074 18.6012 30.4517 18.0387 30.4517Z" fill="#FF5C00"/>
<path d="M18.0387 10.4517H16.0629C15.5004 10.4517 15.0444 10.9074 15.0444 11.4696V13.6379C15.0444 14.2001 15.5004 14.6559 16.0629 14.6559H18.0387C18.6012 14.6559 19.0572 14.2001 19.0572 13.6379V11.4696C19.0572 10.9074 18.6012 10.4517 18.0387 10.4517Z" fill="#FF5C00"/>
<path d="M8.03874 25.501H6.0629C5.50042 25.501 5.04443 25.9567 5.04443 26.5189V28.6872C5.04443 29.2494 5.50042 29.7052 6.0629 29.7052H8.03874C8.60123 29.7052 9.05721 29.2494 9.05721 28.6872V26.5189C9.05721 25.9567 8.60123 25.501 8.03874 25.501Z" fill="#FF5C00"/>
<path d="M8.03874 45.501H6.0629C5.50042 45.501 5.04443 45.9567 5.04443 46.5189V48.6872C5.04443 49.2494 5.50042 49.7052 6.0629 49.7052H8.03874C8.60123 49.7052 9.05721 49.2494 9.05721 48.6872V46.5189C9.05721 45.9567 8.60123 45.501 8.03874 45.501Z" fill="#FF5C00"/>
<path d="M33.0387 45.501H31.0629C30.5004 45.501 30.0444 45.9567 30.0444 46.5189V48.6872C30.0444 49.2494 30.5004 49.7052 31.0629 49.7052H33.0387C33.6012 49.7052 34.0572 49.2494 34.0572 48.6872V46.5189C34.0572 45.9567 33.6012 45.501 33.0387 45.501Z" fill="#FF5C00"/>
<path d="M33.0075 45.4521H31.0317C30.4692 45.4521 30.0132 45.9079 30.0132 46.4701V48.6384C30.0132 49.2006 30.4692 49.6563 31.0317 49.6563H33.0075C33.57 49.6563 34.026 49.2006 34.026 48.6384V46.4701C34.026 45.9079 33.57 45.4521 33.0075 45.4521Z" fill="#FF5C00"/>
<path d="M33.07 15.501H31.0942C30.5317 15.501 30.0757 15.9567 30.0757 16.5189V18.6872C30.0757 19.2494 30.5317 19.7052 31.0942 19.7052H33.07C33.6325 19.7052 34.0885 19.2494 34.0885 18.6872V16.5189C34.0885 15.9567 33.6325 15.501 33.07 15.501Z" fill="#FF5C00"/>
<path d="M18.0387 25.501H16.0629C15.5004 25.501 15.0444 25.9567 15.0444 26.5189V28.6872C15.0444 29.2494 15.5004 29.7052 16.0629 29.7052H18.0387C18.6012 29.7052 19.0572 29.2494 19.0572 28.6872V26.5189C19.0572 25.9567 18.6012 25.501 18.0387 25.501Z" fill="#FF5C00"/>
<path d="M18.0387 45.501H16.0629C15.5004 45.501 15.0444 45.9567 15.0444 46.5189V48.6872C15.0444 49.2494 15.5004 49.7052 16.0629 49.7052H18.0387C18.6012 49.7052 19.0572 49.2494 19.0572 48.6872V46.5189C19.0572 45.9567 18.6012 45.501 18.0387 45.501Z" fill="#FF5C00"/>
<path d="M18.0075 45.4521H16.0317C15.4692 45.4521 15.0132 45.9079 15.0132 46.4701V48.6384C15.0132 49.2006 15.4692 49.6563 16.0317 49.6563H18.0075C18.57 49.6563 19.026 49.2006 19.026 48.6384V46.4701C19.026 45.9079 18.57 45.4521 18.0075 45.4521Z" fill="#FF5C00"/>
<path d="M43.0387 45.501H41.0629C40.5004 45.501 40.0444 45.9567 40.0444 46.5189V48.6872C40.0444 49.2494 40.5004 49.7052 41.0629 49.7052H43.0387C43.6012 49.7052 44.0572 49.2494 44.0572 48.6872V46.5189C44.0572 45.9567 43.6012 45.501 43.0387 45.501Z" fill="#FF5C00"/>
<path d="M43.0075 45.4521H41.0317C40.4692 45.4521 40.0132 45.9079 40.0132 46.4701V48.6384C40.0132 49.2006 40.4692 49.6563 41.0317 49.6563H43.0075C43.57 49.6563 44.026 49.2006 44.026 48.6384V46.4701C44.026 45.9079 43.57 45.4521 43.0075 45.4521Z" fill="#FF5C00"/>
<path d="M18.0387 5.50098H16.0629C15.5004 5.50098 15.0444 5.95673 15.0444 6.51894V8.68721C15.0444 9.24941 15.5004 9.70517 16.0629 9.70517H18.0387C18.6012 9.70517 19.0572 9.24941 19.0572 8.68721V6.51894C19.0572 5.95673 18.6012 5.50098 18.0387 5.50098Z" fill="#FF5C00"/>
<path d="M8.03874 35.501H6.0629C5.50042 35.501 5.04443 35.9567 5.04443 36.5189V38.6872C5.04443 39.2494 5.50042 39.7052 6.0629 39.7052H8.03874C8.60123 39.7052 9.05721 39.2494 9.05721 38.6872V36.5189C9.05721 35.9567 8.60123 35.501 8.03874 35.501Z" fill="#FF5C00"/>
<path d="M33.0387 55.5498H31.0629C30.5004 55.5498 30.0444 56.0056 30.0444 56.5678V58.736C30.0444 59.2982 30.5004 59.754 31.0629 59.754H33.0387C33.6012 59.754 34.0572 59.2982 34.0572 58.736V56.5678C34.0572 56.0056 33.6012 55.5498 33.0387 55.5498Z" fill="#FF5C00"/>
<path d="M8.03874 15.501H6.0629C5.50042 15.501 5.04443 15.9567 5.04443 16.5189V18.6872C5.04443 19.2494 5.50042 19.7052 6.0629 19.7052H8.03874C8.60123 19.7052 9.05721 19.2494 9.05721 18.6872V16.5189C9.05721 15.9567 8.60123 15.501 8.03874 15.501Z" fill="#FF5C00"/>
<path d="M33.07 0.500977H31.0942C30.5317 0.500977 30.0757 0.956735 30.0757 1.51894V3.68721C30.0757 4.24941 30.5317 4.70517 31.0942 4.70517H33.07C33.6325 4.70517 34.0885 4.24941 34.0885 3.68721V1.51894C34.0885 0.956735 33.6325 0.500977 33.07 0.500977Z" fill="#FF5C00"/>
<path d="M18.0387 35.501H16.0629C15.5004 35.501 15.0444 35.9567 15.0444 36.5189V38.6872C15.0444 39.2494 15.5004 39.7052 16.0629 39.7052H18.0387C18.6012 39.7052 19.0572 39.2494 19.0572 38.6872V36.5189C19.0572 35.9567 18.6012 35.501 18.0387 35.501Z" fill="#FF5C00"/>
<path d="M18.0387 55.5498H16.0629C15.5004 55.5498 15.0444 56.0056 15.0444 56.5678V58.736C15.0444 59.2982 15.5004 59.754 16.0629 59.754H18.0387C18.6012 59.754 19.0572 59.2982 19.0572 58.736V56.5678C19.0572 56.0056 18.6012 55.5498 18.0387 55.5498Z" fill="#FF5C00"/>
<path d="M43.0387 55.5498H41.0629C40.5004 55.5498 40.0444 56.0056 40.0444 56.5678V58.736C40.0444 59.2982 40.5004 59.754 41.0629 59.754H43.0387C43.6012 59.754 44.0572 59.2982 44.0572 58.736V56.5678C44.0572 56.0056 43.6012 55.5498 43.0387 55.5498Z" fill="#FF5C00"/>
<path d="M18.0387 15.501H16.0629C15.5004 15.501 15.0444 15.9567 15.0444 16.5189V18.6872C15.0444 19.2494 15.5004 19.7052 16.0629 19.7052H18.0387C18.6012 19.7052 19.0572 19.2494 19.0572 18.6872V16.5189C19.0572 15.9567 18.6012 15.501 18.0387 15.501Z" fill="#FF5C00"/>
<path d="M43.07 0.500977H41.0942C40.5317 0.500977 40.0757 0.956735 40.0757 1.51894V3.68721C40.0757 4.24941 40.5317 4.70517 41.0942 4.70517H43.07C43.6325 4.70517 44.0885 4.24941 44.0885 3.68721V1.51894C44.0885 0.956735 43.6325 0.500977 43.07 0.500977Z" fill="#FF5C00"/>
</svg>
