<svg width="60" height="60" viewBox="0 0 60 60" fill="none" xmlns="http://www.w3.org/2000/svg">
<path d="M6.99486 30.4521H5.27706C4.78804 30.4521 4.3916 30.8484 4.3916 31.3372V33.2223C4.3916 33.7111 4.78804 34.1073 5.27706 34.1073H6.99486C7.48389 34.1073 7.88033 33.7111 7.88033 33.2223V31.3372C7.88033 30.8484 7.48389 30.4521 6.99486 30.4521Z" fill="#FF5C00"/>
<path d="M2.6477 30.4946H0.929897C0.440869 30.4946 0.0444336 30.8909 0.0444336 31.3797V33.2647C0.0444336 33.7535 0.440869 34.1498 0.929897 34.1498H2.6477C3.13672 34.1498 3.53316 33.7535 3.53316 33.2647V31.3797C3.53316 30.8909 3.13672 30.4946 2.6477 30.4946Z" fill="#FF5C00"/>
<path d="M11.3415 47.8828H9.62374C9.13472 47.8828 8.73828 48.2791 8.73828 48.7678V50.6529C8.73828 51.1417 9.13472 51.538 9.62374 51.538H11.3415C11.8306 51.538 12.227 51.1417 12.227 50.6529V48.7678C12.227 48.2791 11.8306 47.8828 11.3415 47.8828Z" fill="#FF5C00"/>
<path d="M6.99486 56.5767H5.27706C4.78804 56.5767 4.3916 56.9729 4.3916 57.4617V59.3468C4.3916 59.8356 4.78804 60.2318 5.27706 60.2318H6.99486C7.48389 60.2318 7.88033 59.8356 7.88033 59.3468V57.4617C7.88033 56.9729 7.48389 56.5767 6.99486 56.5767Z" fill="#FF5C00"/>
<path d="M2.6477 47.8828H0.929897C0.440869 47.8828 0.0444336 48.2791 0.0444336 48.7678V50.6529C0.0444336 51.1417 0.440869 51.538 0.929897 51.538H2.6477C3.13672 51.538 3.53316 51.1417 3.53316 50.6529V48.7678C3.53316 48.2791 3.13672 47.8828 2.6477 47.8828Z" fill="#FF5C00"/>
<path d="M2.6477 52.2725H0.929897C0.440869 52.2725 0.0444336 52.6687 0.0444336 53.1575V55.0426C0.0444336 55.5314 0.440869 55.9276 0.929897 55.9276H2.6477C3.13672 55.9276 3.53316 55.5314 3.53316 55.0426V53.1575C3.53316 52.6687 3.13672 52.2725 2.6477 52.2725Z" fill="#FF5C00"/>
<path d="M2.6477 56.6191H0.929897C0.440869 56.6191 0.0444336 57.0154 0.0444336 57.5042V59.3893C0.0444336 59.878 0.440869 60.2743 0.929897 60.2743H2.6477C3.13672 60.2743 3.53316 59.878 3.53316 59.3893V57.5042C3.53316 57.0154 3.13672 56.6191 2.6477 56.6191Z" fill="#FF5C00"/>
<path d="M6.99486 13.064H5.27706C4.78804 13.064 4.3916 13.4602 4.3916 13.949V15.8341C4.3916 16.3229 4.78804 16.7191 5.27706 16.7191H6.99486C7.48389 16.7191 7.88033 16.3229 7.88033 15.8341V13.949C7.88033 13.4602 7.48389 13.064 6.99486 13.064Z" fill="#FF5C00"/>
<path d="M2.6477 13.1064H0.929897C0.440869 13.1064 0.0444336 13.5027 0.0444336 13.9915V15.8766C0.0444336 16.3653 0.440869 16.7616 0.929897 16.7616H2.6477C3.13672 16.7616 3.53316 16.3653 3.53316 15.8766V13.9915C3.53316 13.5027 3.13672 13.1064 2.6477 13.1064Z" fill="#FF5C00"/>
<path d="M28.7297 13.064H27.0119C26.5229 13.064 26.1265 13.4602 26.1265 13.949V15.8341C26.1265 16.3229 26.5229 16.7191 27.0119 16.7191H28.7297C29.2188 16.7191 29.6152 16.3229 29.6152 15.8341V13.949C29.6152 13.4602 29.2188 13.064 28.7297 13.064Z" fill="#FF5C00"/>
<path d="M50.4651 13.064H48.7473C48.2583 13.064 47.8618 13.4602 47.8618 13.949V15.8341C47.8618 16.3229 48.2583 16.7191 48.7473 16.7191H50.4651C50.9541 16.7191 51.3505 16.3229 51.3505 15.8341V13.949C51.3505 13.4602 50.9541 13.064 50.4651 13.064Z" fill="#FF5C00"/>
<path d="M46.1179 13.064H44.4001C43.9111 13.064 43.5146 13.4602 43.5146 13.949V15.8341C43.5146 16.3229 43.9111 16.7191 44.4001 16.7191H46.1179C46.6069 16.7191 47.0034 16.3229 47.0034 15.8341V13.949C47.0034 13.4602 46.6069 13.064 46.1179 13.064Z" fill="#FF5C00"/>
<path d="M15.6887 30.4521H13.9709C13.4819 30.4521 13.0854 30.8484 13.0854 31.3372V33.2223C13.0854 33.7111 13.4819 34.1073 13.9709 34.1073H15.6887C16.1777 34.1073 16.5742 33.7111 16.5742 33.2223V31.3372C16.5742 30.8484 16.1777 30.4521 15.6887 30.4521Z" fill="#FF5C00"/>
<path d="M59.1589 30.4521H57.4411C56.9521 30.4521 56.5557 30.8484 56.5557 31.3372V33.2223C56.5557 33.7111 56.9521 34.1073 57.4411 34.1073H59.1589C59.648 34.1073 60.0444 33.7111 60.0444 33.2223V31.3372C60.0444 30.8484 59.648 30.4521 59.1589 30.4521Z" fill="#FF5C00"/>
<path d="M59.1589 47.8398H57.4411C56.9521 47.8398 56.5557 48.2361 56.5557 48.7249V50.61C56.5557 51.0987 56.9521 51.495 57.4411 51.495H59.1589C59.648 51.495 60.0444 51.0987 60.0444 50.61V48.7249C60.0444 48.2361 59.648 47.8398 59.1589 47.8398Z" fill="#FF5C00"/>
<path d="M15.6887 13.064H13.9709C13.4819 13.064 13.0854 13.4602 13.0854 13.949V15.8341C13.0854 16.3229 13.4819 16.7191 13.9709 16.7191H15.6887C16.1777 16.7191 16.5742 16.3229 16.5742 15.8341V13.949C16.5742 13.4602 16.1777 13.064 15.6887 13.064Z" fill="#FF5C00"/>
<path d="M37.4241 13.064H35.7063C35.2172 13.064 34.8208 13.4602 34.8208 13.949V15.8341C34.8208 16.3229 35.2172 16.7191 35.7063 16.7191H37.4241C37.9131 16.7191 38.3095 16.3229 38.3095 15.8341V13.949C38.3095 13.4602 37.9131 13.064 37.4241 13.064Z" fill="#FF5C00"/>
<path d="M59.1589 13.064H57.4411C56.9521 13.064 56.5557 13.4602 56.5557 13.949V15.8341C56.5557 16.3229 56.9521 16.7191 57.4411 16.7191H59.1589C59.648 16.7191 60.0444 16.3229 60.0444 15.8341V13.949C60.0444 13.4602 59.648 13.064 59.1589 13.064Z" fill="#FF5C00"/>
<path d="M6.99486 39.146H5.27706C4.78804 39.146 4.3916 39.5422 4.3916 40.031V41.9161C4.3916 42.4049 4.78804 42.8011 5.27706 42.8011H6.99486C7.48389 42.8011 7.88033 42.4049 7.88033 41.9161V40.031C7.88033 39.5422 7.48389 39.146 6.99486 39.146Z" fill="#FF5C00"/>
<path d="M2.6477 39.1885H0.929897C0.440869 39.1885 0.0444336 39.5847 0.0444336 40.0735V41.9586C0.0444336 42.4474 0.440869 42.8436 0.929897 42.8436H2.6477C3.13672 42.8436 3.53316 42.4474 3.53316 41.9586V40.0735C3.53316 39.5847 3.13672 39.1885 2.6477 39.1885Z" fill="#FF5C00"/>
<path d="M50.4651 56.5342H48.7473C48.2583 56.5342 47.8618 56.9304 47.8618 57.4192V59.3043C47.8618 59.7931 48.2583 60.1893 48.7473 60.1893H50.4651C50.9541 60.1893 51.3505 59.7931 51.3505 59.3043V57.4192C51.3505 56.9304 50.9541 56.5342 50.4651 56.5342Z" fill="#FF5C00"/>
<path d="M6.99486 21.7578H5.27706C4.78804 21.7578 4.3916 22.1541 4.3916 22.6428V24.5279C4.3916 25.0167 4.78804 25.413 5.27706 25.413H6.99486C7.48389 25.413 7.88033 25.0167 7.88033 24.5279V22.6428C7.88033 22.1541 7.48389 21.7578 6.99486 21.7578Z" fill="#FF5C00"/>
<path d="M2.6477 21.8003H0.929897C0.440869 21.8003 0.0444336 22.1965 0.0444336 22.6853V24.5704C0.0444336 25.0592 0.440869 25.4554 0.929897 25.4554H2.6477C3.13672 25.4554 3.53316 25.0592 3.53316 24.5704V22.6853C3.53316 22.1965 3.13672 21.8003 2.6477 21.8003Z" fill="#FF5C00"/>
<path d="M50.4651 21.7578H48.7473C48.2583 21.7578 47.8618 22.1541 47.8618 22.6428V24.5279C47.8618 25.0167 48.2583 25.413 48.7473 25.413H50.4651C50.9541 25.413 51.3505 25.0167 51.3505 24.5279V22.6428C51.3505 22.1541 50.9541 21.7578 50.4651 21.7578Z" fill="#FF5C00"/>
<path d="M46.1179 56.5342H44.4001C43.9111 56.5342 43.5146 56.9304 43.5146 57.4192V59.3043C43.5146 59.7931 43.9111 60.1893 44.4001 60.1893H46.1179C46.6069 60.1893 47.0034 59.7931 47.0034 59.3043V57.4192C47.0034 56.9304 46.6069 56.5342 46.1179 56.5342Z" fill="#FF5C00"/>
<path d="M46.1179 21.7578H44.4001C43.9111 21.7578 43.5146 22.1541 43.5146 22.6428V24.5279C43.5146 25.0167 43.9111 25.413 44.4001 25.413H46.1179C46.6069 25.413 47.0034 25.0167 47.0034 24.5279V22.6428C47.0034 22.1541 46.6069 21.7578 46.1179 21.7578Z" fill="#FF5C00"/>
<path d="M15.6887 39.146H13.9709C13.4819 39.146 13.0854 39.5422 13.0854 40.031V41.9161C13.0854 42.4049 13.4819 42.8011 13.9709 42.8011H15.6887C16.1777 42.8011 16.5742 42.4049 16.5742 41.9161V40.031C16.5742 39.5422 16.1777 39.146 15.6887 39.146Z" fill="#FF5C00"/>
<path d="M59.1589 39.146H57.4411C56.9521 39.146 56.5557 39.5422 56.5557 40.031V41.9161C56.5557 42.4049 56.9521 42.8011 57.4411 42.8011H59.1589C59.648 42.8011 60.0444 42.4049 60.0444 41.9161V40.031C60.0444 39.5422 59.648 39.146 59.1589 39.146Z" fill="#FF5C00"/>
<path d="M37.4241 56.5342H35.7063C35.2172 56.5342 34.8208 56.9304 34.8208 57.4192V59.3043C34.8208 59.7931 35.2172 60.1893 35.7063 60.1893H37.4241C37.9131 60.1893 38.3095 59.7931 38.3095 59.3043V57.4192C38.3095 56.9304 37.9131 56.5342 37.4241 56.5342Z" fill="#FF5C00"/>
<path d="M59.1589 56.5342H57.4411C56.9521 56.5342 56.5557 56.9304 56.5557 57.4192V59.3043C56.5557 59.7931 56.9521 60.1893 57.4411 60.1893H59.1589C59.648 60.1893 60.0444 59.7931 60.0444 59.3043V57.4192C60.0444 56.9304 59.648 56.5342 59.1589 56.5342Z" fill="#FF5C00"/>
<path d="M15.6887 21.7578H13.9709C13.4819 21.7578 13.0854 22.1541 13.0854 22.6428V24.5279C13.0854 25.0167 13.4819 25.413 13.9709 25.413H15.6887C16.1777 25.413 16.5742 25.0167 16.5742 24.5279V22.6428C16.5742 22.1541 16.1777 21.7578 15.6887 21.7578Z" fill="#FF5C00"/>
<path d="M59.1589 21.7578H57.4411C56.9521 21.7578 56.5557 22.1541 56.5557 22.6428V24.5279C56.5557 25.0167 56.9521 25.413 57.4411 25.413H59.1589C59.648 25.413 60.0444 25.0167 60.0444 24.5279V22.6428C60.0444 22.1541 59.648 21.7578 59.1589 21.7578Z" fill="#FF5C00"/>
<path d="M15.6887 4.36963H13.9709C13.4819 4.36963 13.0854 4.76587 13.0854 5.25465V7.13975C13.0854 7.62853 13.4819 8.02477 13.9709 8.02477H15.6887C16.1777 8.02477 16.5742 7.62853 16.5742 7.13975V5.25465C16.5742 4.76587 16.1777 4.36963 15.6887 4.36963Z" fill="#FF5C00"/>
<path d="M6.99486 34.8418H5.27706C4.78804 34.8418 4.3916 35.238 4.3916 35.7268V37.6119C4.3916 38.1007 4.78804 38.4969 5.27706 38.4969H6.99486C7.48389 38.4969 7.88033 38.1007 7.88033 37.6119V35.7268C7.88033 35.238 7.48389 34.8418 6.99486 34.8418Z" fill="#FF5C00"/>
<path d="M2.6477 34.8843H0.929897C0.440869 34.8843 0.0444336 35.2805 0.0444336 35.7693V37.6544C0.0444336 38.1432 0.440869 38.5394 0.929897 38.5394H2.6477C3.13672 38.5394 3.53316 38.1432 3.53316 37.6544V35.7693C3.53316 35.2805 3.13672 34.8843 2.6477 34.8843Z" fill="#FF5C00"/>
<path d="M28.7297 56.5767H27.0119C26.5229 56.5767 26.1265 56.9729 26.1265 57.4617V59.3468C26.1265 59.8356 26.5229 60.2318 27.0119 60.2318H28.7297C29.2188 60.2318 29.6152 59.8356 29.6152 59.3468V57.4617C29.6152 56.9729 29.2188 56.5767 28.7297 56.5767Z" fill="#FF5C00"/>
<path d="M6.99486 17.4536H5.27706C4.78804 17.4536 4.3916 17.8499 4.3916 18.3386V20.2237C4.3916 20.7125 4.78804 21.1088 5.27706 21.1088H6.99486C7.48389 21.1088 7.88033 20.7125 7.88033 20.2237V18.3386C7.88033 17.8499 7.48389 17.4536 6.99486 17.4536Z" fill="#FF5C00"/>
<path d="M2.6477 17.4961H0.929897C0.440869 17.4961 0.0444336 17.8923 0.0444336 18.3811V20.2662C0.0444336 20.755 0.440869 21.1512 0.929897 21.1512H2.6477C3.13672 21.1512 3.53316 20.755 3.53316 20.2662V18.3811C3.53316 17.8923 3.13672 17.4961 2.6477 17.4961Z" fill="#FF5C00"/>
<path d="M24.3826 52.2295H22.6648C22.1757 52.2295 21.7793 52.6257 21.7793 53.1145V54.9996C21.7793 55.4884 22.1757 55.8846 22.6648 55.8846H24.3826C24.8716 55.8846 25.268 55.4884 25.268 54.9996V53.1145C25.268 52.6257 24.8716 52.2295 24.3826 52.2295Z" fill="#FF5C00"/>
<path d="M24.3826 56.5767H22.6648C22.1757 56.5767 21.7793 56.9729 21.7793 57.4617V59.3468C21.7793 59.8356 22.1757 60.2318 22.6648 60.2318H24.3826C24.8716 60.2318 25.268 59.8356 25.268 59.3468V57.4617C25.268 56.9729 24.8716 56.5767 24.3826 56.5767Z" fill="#FF5C00"/>
<path d="M15.6887 34.8418H13.9709C13.4819 34.8418 13.0854 35.238 13.0854 35.7268V37.6119C13.0854 38.1007 13.4819 38.4969 13.9709 38.4969H15.6887C16.1777 38.4969 16.5742 38.1007 16.5742 37.6119V35.7268C16.5742 35.238 16.1777 34.8418 15.6887 34.8418Z" fill="#FF5C00"/>
<path d="M59.1589 34.8418H57.4411C56.9521 34.8418 56.5557 35.238 56.5557 35.7268V37.6119C56.5557 38.1007 56.9521 38.4969 57.4411 38.4969H59.1589C59.648 38.4969 60.0444 38.1007 60.0444 37.6119V35.7268C60.0444 35.238 59.648 34.8418 59.1589 34.8418Z" fill="#FF5C00"/>
<path d="M59.1589 52.2295H57.4411C56.9521 52.2295 56.5557 52.6257 56.5557 53.1145V54.9996C56.5557 55.4884 56.9521 55.8846 57.4411 55.8846H59.1589C59.648 55.8846 60.0444 55.4884 60.0444 54.9996V53.1145C60.0444 52.6257 59.648 52.2295 59.1589 52.2295Z" fill="#FF5C00"/>
<path d="M15.6887 17.4536H13.9709C13.4819 17.4536 13.0854 17.8499 13.0854 18.3386V20.2237C13.0854 20.7125 13.4819 21.1088 13.9709 21.1088H15.6887C16.1777 21.1088 16.5742 20.7125 16.5742 20.2237V18.3386C16.5742 17.8499 16.1777 17.4536 15.6887 17.4536Z" fill="#FF5C00"/>
<path d="M59.1589 17.4536H57.4411C56.9521 17.4536 56.5557 17.8499 56.5557 18.3386V20.2237C56.5557 20.7125 56.9521 21.1088 57.4411 21.1088H59.1589C59.648 21.1088 60.0444 20.7125 60.0444 20.2237V18.3386C60.0444 17.8499 59.648 17.4536 59.1589 17.4536Z" fill="#FF5C00"/>
<path d="M15.6887 0.0654297H13.9709C13.4819 0.0654297 13.0854 0.461668 13.0854 0.950452V2.83555C13.0854 3.32433 13.4819 3.72057 13.9709 3.72057H15.6887C16.1777 3.72057 16.5742 3.32433 16.5742 2.83555V0.950452C16.5742 0.461668 16.1777 0.0654297 15.6887 0.0654297Z" fill="#FF5C00"/>
<path d="M6.99486 43.5356H5.27706C4.78804 43.5356 4.3916 43.9319 4.3916 44.4207V46.3058C4.3916 46.7946 4.78804 47.1908 5.27706 47.1908H6.99486C7.48389 47.1908 7.88033 46.7946 7.88033 46.3058V44.4207C7.88033 43.9319 7.48389 43.5356 6.99486 43.5356Z" fill="#FF5C00"/>
<path d="M2.6477 43.5781H0.929897C0.440869 43.5781 0.0444336 43.9744 0.0444336 44.4631V46.3482C0.0444336 46.837 0.440869 47.2333 0.929897 47.2333H2.6477C3.13672 47.2333 3.53316 46.837 3.53316 46.3482V44.4631C3.53316 43.9744 3.13672 43.5781 2.6477 43.5781Z" fill="#FF5C00"/>
<path d="M6.99486 26.1475H5.27706C4.78804 26.1475 4.3916 26.5437 4.3916 27.0325V28.9176C4.3916 29.4064 4.78804 29.8026 5.27706 29.8026H6.99486C7.48389 29.8026 7.88033 29.4064 7.88033 28.9176V27.0325C7.88033 26.5437 7.48389 26.1475 6.99486 26.1475Z" fill="#FF5C00"/>
<path d="M2.6477 26.1904H0.929897C0.440869 26.1904 0.0444336 26.5867 0.0444336 27.0755V28.9605C0.0444336 29.4493 0.440869 29.8456 0.929897 29.8456H2.6477C3.13672 29.8456 3.53316 29.4493 3.53316 28.9605V27.0755C3.53316 26.5867 3.13672 26.1904 2.6477 26.1904Z" fill="#FF5C00"/>
<path d="M50.4651 26.1475H48.7473C48.2583 26.1475 47.8618 26.5437 47.8618 27.0325V28.9176C47.8618 29.4064 48.2583 29.8026 48.7473 29.8026H50.4651C50.9541 29.8026 51.3505 29.4064 51.3505 28.9176V27.0325C51.3505 26.5437 50.9541 26.1475 50.4651 26.1475Z" fill="#FF5C00"/>
<path d="M46.1179 26.1475H44.4001C43.9111 26.1475 43.5146 26.5437 43.5146 27.0325V28.9176C43.5146 29.4064 43.9111 29.8026 44.4001 29.8026H46.1179C46.6069 29.8026 47.0034 29.4064 47.0034 28.9176V27.0325C47.0034 26.5437 46.6069 26.1475 46.1179 26.1475Z" fill="#FF5C00"/>
<path d="M24.3826 8.75928H22.6648C22.1757 8.75928 21.7793 9.15552 21.7793 9.6443V11.5294C21.7793 12.0182 22.1757 12.4144 22.6648 12.4144H24.3826C24.8716 12.4144 25.268 12.0182 25.268 11.5294V9.6443C25.268 9.15552 24.8716 8.75928 24.3826 8.75928Z" fill="#FF5C00"/>
<path d="M15.6887 43.5356H13.9709C13.4819 43.5356 13.0854 43.9319 13.0854 44.4207V46.3058C13.0854 46.7946 13.4819 47.1908 13.9709 47.1908H15.6887C16.1777 47.1908 16.5742 46.7946 16.5742 46.3058V44.4207C16.5742 43.9319 16.1777 43.5356 15.6887 43.5356Z" fill="#FF5C00"/>
<path d="M59.1589 43.5356H57.4411C56.9521 43.5356 56.5557 43.9319 56.5557 44.4207V46.3058C56.5557 46.7946 56.9521 47.1908 57.4411 47.1908H59.1589C59.648 47.1908 60.0444 46.7946 60.0444 46.3058V44.4207C60.0444 43.9319 59.648 43.5356 59.1589 43.5356Z" fill="#FF5C00"/>
<path d="M15.6887 26.1475H13.9709C13.4819 26.1475 13.0854 26.5437 13.0854 27.0325V28.9176C13.0854 29.4064 13.4819 29.8026 13.9709 29.8026H15.6887C16.1777 29.8026 16.5742 29.4064 16.5742 28.9176V27.0325C16.5742 26.5437 16.1777 26.1475 15.6887 26.1475Z" fill="#FF5C00"/>
<path d="M59.1589 26.1475H57.4411C56.9521 26.1475 56.5557 26.5437 56.5557 27.0325V28.9176C56.5557 29.4064 56.9521 29.8026 57.4411 29.8026H59.1589C59.648 29.8026 60.0444 29.4064 60.0444 28.9176V27.0325C60.0444 26.5437 59.648 26.1475 59.1589 26.1475Z" fill="#FF5C00"/>
<path d="M15.6887 8.75928H13.9709C13.4819 8.75928 13.0854 9.15552 13.0854 9.6443V11.5294C13.0854 12.0182 13.4819 12.4144 13.9709 12.4144H15.6887C16.1777 12.4144 16.5742 12.0182 16.5742 11.5294V9.6443C16.5742 9.15552 16.1777 8.75928 15.6887 8.75928Z" fill="#FF5C00"/>
<path d="M33.1042 30.5312H31.3864C30.8974 30.5312 30.501 30.9275 30.501 31.4163V33.3014C30.501 33.7902 30.8974 34.1864 31.3864 34.1864H33.1042C33.5933 34.1864 33.9897 33.7902 33.9897 33.3014V31.4163C33.9897 30.9275 33.5933 30.5312 33.1042 30.5312Z" fill="#FF5C00"/>
<path d="M15.6887 52.2295H13.9709C13.4819 52.2295 13.0854 52.6257 13.0854 53.1145V54.9996C13.0854 55.4884 13.4819 55.8846 13.9709 55.8846H15.6887C16.1777 55.8846 16.5742 55.4884 16.5742 54.9996V53.1145C16.5742 52.6257 16.1777 52.2295 15.6887 52.2295Z" fill="#FF5C00"/>
<path d="M11.3689 56.6562H9.65109C9.16206 56.6562 8.76562 57.0525 8.76562 57.5413V59.4264C8.76562 59.9152 9.16206 60.3114 9.65109 60.3114H11.3689C11.8579 60.3114 12.2544 59.9152 12.2544 59.4264V57.5413C12.2544 57.0525 11.8579 56.6562 11.3689 56.6562Z" fill="#FF5C00"/>
<path d="M33.1042 47.9194H31.3864C30.8974 47.9194 30.501 48.3157 30.501 48.8045V50.6896C30.501 51.1783 30.8974 51.5746 31.3864 51.5746H33.1042C33.5933 51.5746 33.9897 51.1783 33.9897 50.6896V48.8045C33.9897 48.3157 33.5933 47.9194 33.1042 47.9194Z" fill="#FF5C00"/>
<path d="M33.1042 13.1436H31.3864C30.8974 13.1436 30.501 13.5398 30.501 14.0286V15.9137C30.501 16.4025 30.8974 16.7987 31.3864 16.7987H33.1042C33.5933 16.7987 33.9897 16.4025 33.9897 15.9137V14.0286C33.9897 13.5398 33.5933 13.1436 33.1042 13.1436Z" fill="#FF5C00"/>
<path d="M54.8391 13.1436H53.1213C52.6323 13.1436 52.2358 13.5398 52.2358 14.0286V15.9137C52.2358 16.4025 52.6323 16.7987 53.1213 16.7987H54.8391C55.3281 16.7987 55.7246 16.4025 55.7246 15.9137V14.0286C55.7246 13.5398 55.3281 13.1436 54.8391 13.1436Z" fill="#FF5C00"/>
<path d="M20.0627 47.9194H18.3449C17.8559 47.9194 17.4595 48.3157 17.4595 48.8045V50.6896C17.4595 51.1783 17.8559 51.5746 18.3449 51.5746H20.0627C20.5518 51.5746 20.9482 51.1783 20.9482 50.6896V48.8045C20.9482 48.3157 20.5518 47.9194 20.0627 47.9194Z" fill="#FF5C00"/>
<path d="M20.0627 56.6562H18.3449C17.8559 56.6562 17.4595 57.0525 17.4595 57.5413V59.4264C17.4595 59.9152 17.8559 60.3114 18.3449 60.3114H20.0627C20.5518 60.3114 20.9482 59.9152 20.9482 59.4264V57.5413C20.9482 57.0525 20.5518 56.6562 20.0627 56.6562Z" fill="#FF5C00"/>
<path d="M15.6887 56.6191H13.9709C13.4819 56.6191 13.0854 57.0154 13.0854 57.5042V59.3893C13.0854 59.878 13.4819 60.2743 13.9709 60.2743H15.6887C16.1777 60.2743 16.5742 59.878 16.5742 59.3893V57.5042C16.5742 57.0154 16.1777 56.6191 15.6887 56.6191Z" fill="#FF5C00"/>
<path d="M41.7981 13.1436H40.0803C39.5913 13.1436 39.1948 13.5398 39.1948 14.0286V15.9137C39.1948 16.4025 39.5913 16.7987 40.0803 16.7987H41.7981C42.2871 16.7987 42.6836 16.4025 42.6836 15.9137V14.0286C42.6836 13.5398 42.2871 13.1436 41.7981 13.1436Z" fill="#FF5C00"/>
<path d="M33.1042 39.2256H31.3864C30.8974 39.2256 30.501 39.6218 30.501 40.1106V41.9957C30.501 42.4845 30.8974 42.8807 31.3864 42.8807H33.1042C33.5933 42.8807 33.9897 42.4845 33.9897 41.9957V40.1106C33.9897 39.6218 33.5933 39.2256 33.1042 39.2256Z" fill="#FF5C00"/>
<path d="M33.1042 56.6138H31.3864C30.8974 56.6138 30.501 57.01 30.501 57.4988V59.3839C30.501 59.8727 30.8974 60.2689 31.3864 60.2689H33.1042C33.5933 60.2689 33.9897 59.8727 33.9897 59.3839V57.4988C33.9897 57.01 33.5933 56.6138 33.1042 56.6138Z" fill="#FF5C00"/>
<path d="M54.8391 56.6138H53.1213C52.6323 56.6138 52.2358 57.01 52.2358 57.4988V59.3839C52.2358 59.8727 52.6323 60.2689 53.1213 60.2689H54.8391C55.3281 60.2689 55.7246 59.8727 55.7246 59.3839V57.4988C55.7246 57.01 55.3281 56.6138 54.8391 56.6138Z" fill="#FF5C00"/>
<path d="M33.1042 21.8374H31.3864C30.8974 21.8374 30.501 22.2336 30.501 22.7224V24.6075C30.501 25.0963 30.8974 25.4925 31.3864 25.4925H33.1042C33.5933 25.4925 33.9897 25.0963 33.9897 24.6075V22.7224C33.9897 22.2336 33.5933 21.8374 33.1042 21.8374Z" fill="#FF5C00"/>
<path d="M41.7981 56.6138H40.0803C39.5913 56.6138 39.1948 57.01 39.1948 57.4988V59.3839C39.1948 59.8727 39.5913 60.2689 40.0803 60.2689H41.7981C42.2871 60.2689 42.6836 59.8727 42.6836 59.3839V57.4988C42.6836 57.01 42.2871 56.6138 41.7981 56.6138Z" fill="#FF5C00"/>
<path d="M41.7981 21.8374H40.0803C39.5913 21.8374 39.1948 22.2336 39.1948 22.7224V24.6075C39.1948 25.0963 39.5913 25.4925 40.0803 25.4925H41.7981C42.2871 25.4925 42.6836 25.0963 42.6836 24.6075V22.7224C42.6836 22.2336 42.2871 21.8374 41.7981 21.8374Z" fill="#FF5C00"/>
<path d="M20.0627 4.44922H18.3449C17.8559 4.44922 17.4595 4.84546 17.4595 5.33424V7.21934C17.4595 7.70812 17.8559 8.10436 18.3449 8.10436H20.0627C20.5518 8.10436 20.9482 7.70812 20.9482 7.21934V5.33424C20.9482 4.84546 20.5518 4.44922 20.0627 4.44922Z" fill="#FF5C00"/>
<path d="M33.1042 34.9214H31.3864C30.8974 34.9214 30.501 35.3176 30.501 35.8064V37.6915C30.501 38.1803 30.8974 38.5765 31.3864 38.5765H33.1042C33.5933 38.5765 33.9897 38.1803 33.9897 37.6915V35.8064C33.9897 35.3176 33.5933 34.9214 33.1042 34.9214Z" fill="#FF5C00"/>
<path d="M33.1042 52.3091H31.3864C30.8974 52.3091 30.501 52.7053 30.501 53.1941V55.0792C30.501 55.568 30.8974 55.9642 31.3864 55.9642H33.1042C33.5933 55.9642 33.9897 55.568 33.9897 55.0792V53.1941C33.9897 52.7053 33.5933 52.3091 33.1042 52.3091Z" fill="#FF5C00"/>
<path d="M33.1042 17.5332H31.3864C30.8974 17.5332 30.501 17.9294 30.501 18.4182V20.3033C30.501 20.7921 30.8974 21.1883 31.3864 21.1883H33.1042C33.5933 21.1883 33.9897 20.7921 33.9897 20.3033V18.4182C33.9897 17.9294 33.5933 17.5332 33.1042 17.5332Z" fill="#FF5C00"/>
<path d="M33.1042 43.6152H31.3864C30.8974 43.6152 30.501 44.0115 30.501 44.5003V46.3854C30.501 46.8741 30.8974 47.2704 31.3864 47.2704H33.1042C33.5933 47.2704 33.9897 46.8741 33.9897 46.3854V44.5003C33.9897 44.0115 33.5933 43.6152 33.1042 43.6152Z" fill="#FF5C00"/>
<path d="M33.1042 26.2271H31.3864C30.8974 26.2271 30.501 26.6233 30.501 27.1121V28.9972C30.501 29.486 30.8974 29.8822 31.3864 29.8822H33.1042C33.5933 29.8822 33.9897 29.486 33.9897 28.9972V27.1121C33.9897 26.6233 33.5933 26.2271 33.1042 26.2271Z" fill="#FF5C00"/>
<path d="M11.3689 8.83887H9.65109C9.16206 8.83887 8.76562 9.23511 8.76562 9.72389V11.609C8.76562 12.0978 9.16206 12.494 9.65109 12.494H11.3689C11.8579 12.494 12.2544 12.0978 12.2544 11.609V9.72389C12.2544 9.23511 11.8579 8.83887 11.3689 8.83887Z" fill="#FF5C00"/>
<path d="M6.99486 8.75928H5.27706C4.78804 8.75928 4.3916 9.15552 4.3916 9.6443V11.5294C4.3916 12.0182 4.78804 12.4144 5.27706 12.4144H6.99486C7.48389 12.4144 7.88033 12.0182 7.88033 11.5294V9.6443C7.88033 9.15552 7.48389 8.75928 6.99486 8.75928Z" fill="#FF5C00"/>
<path d="M41.7981 26.2271H40.0803C39.5913 26.2271 39.1948 26.6233 39.1948 27.1121V28.9972C39.1948 29.486 39.5913 29.8822 40.0803 29.8822H41.7981C42.2871 29.8822 42.6836 29.486 42.6836 28.9972V27.1121C42.6836 26.6233 42.2871 26.2271 41.7981 26.2271Z" fill="#FF5C00"/>
</svg>
