<svg width="102" height="91" viewBox="0 0 102 91" fill="none" xmlns="http://www.w3.org/2000/svg">
<g clip-path="url(#clip0_915_91558)">
<path d="M24.5945 10.667C35.4502 11.3797 37.7432 11.218 54.8481 14.507C60.0917 15.5137 73.9302 17.661 88.9436 20.7657C89.8122 20.9473 90.7257 21.1424 91.6568 21.863C96.9044 25.8928 91.076 37.3971 87.9994 61.8054C86.9501 70.1221 87.1464 73.5306 85.5219 75.4532C79.6878 82.3517 68.7694 72.4122 43.8999 71.8661C25.8595 71.4686 15.1454 72.6656 9.56539 66.9897C7.38878 64.7773 9.97923 53.9286 10.3348 52.624C14.7066 36.6426 11.4307 49.9444 14.3396 37.4949C17.0751 25.8344 12.8478 19.751 18.6839 12.846C20.6754 10.4916 24.0183 10.6299 24.5945 10.667Z" fill="#B58753"/>
<path d="M22.6939 11.9515C33.5496 12.6642 35.8426 12.5025 52.9474 15.7915C58.1911 16.7982 72.0296 18.9455 87.0429 22.0502C87.9116 22.2318 88.8251 22.4269 89.7561 23.1475C95.0038 27.1773 89.1753 38.6816 86.0987 63.0899C85.0494 71.4066 85.2457 74.8151 83.6213 76.7377C77.7872 83.6362 66.8687 73.6967 41.9993 73.1506C23.9589 72.7531 15.1484 72.6598 9.57284 66.9924C7.39624 64.78 8.73854 56.886 8.98311 55.5552C10.016 49.9561 11.6734 42.0139 12.4389 38.7794C15.213 27.1304 10.9408 21.0336 16.7833 14.1305C18.7747 11.7761 22.1176 11.9144 22.6939 11.9515Z" fill="#F8F5C2"/>
<path d="M16.7383 16.7539C18.5421 19.6743 21.1194 21.9497 23.6926 24.1454C27.6473 27.332 31.5526 30.6606 35.4458 33.9357C39.3503 37.1501 44.023 39.7605 46.7065 44.2271C46.2007 43.5341 45.6536 42.8856 45.0775 42.2642C43.3053 40.4294 41.2507 38.9305 39.1695 37.4737C36.3779 35.5404 33.6875 33.4093 31.13 31.1613C26.1766 26.5924 20.0949 22.8261 16.7447 16.7558L16.7383 16.7539Z" fill="#B58753"/>
<path d="M53.9362 45.4655C60.3934 43.493 66.3143 40.2053 72.0322 36.6146C77.802 33.0608 83.666 29.7062 89.5493 26.3574C84.6939 29.6362 77.4126 34.0346 72.3734 37.18C66.6471 40.7754 60.5579 44.0411 53.9362 45.4655Z" fill="#B58753"/>
<path d="M48.7148 37.2606C48.5289 37.2976 48.3706 37.3357 48.3011 37.3577C47.0691 37.6659 43.4233 39.24 42.2905 43.2341C41.3994 46.374 42.3329 50.0531 44.5627 51.5972C47.1211 53.3752 51.9406 52.7155 52.1105 53.643C52.1065 53.656 52.1155 53.673 52.1199 53.6814C52.2096 54.2927 52.0025 54.751 51.8585 55.1854C51.6331 55.8448 51.4161 56.4997 51.6687 56.7535C51.8408 56.9262 52.2349 56.8945 52.4465 56.7013C52.7473 56.4207 52.5473 55.8976 52.5394 55.2466C52.5241 54.3868 52.8477 53.7496 53.1973 53.0489C53.8906 51.6672 55.2221 51.2604 56.1225 50.6819C58.5376 49.1313 60.1424 44.9151 58.9629 41.6613C57.8359 38.5586 54.4877 37.1999 52.8204 37.0001C52.2391 36.933 50.6323 36.8582 48.7296 37.2579L48.7148 37.2606Z" fill="#83171B"/>
<path d="M49.9125 40.3125C51.9789 40.9311 52.958 37.6607 50.8916 37.0421C48.8252 36.4235 47.8461 39.6939 49.9125 40.3125Z" fill="#83171B"/>
<path d="M49.5072 38.9804C53.5356 36.6656 58.4062 38.7081 58.8127 43.6334C58.8708 45.9386 57.8597 48.3584 56.0402 49.7879C55.5371 50.2074 54.811 50.4604 54.1796 50.2572C54.76 49.9534 54.993 49.5955 55.2473 49.073C55.4313 48.6221 55.6952 47.9741 55.8185 47.562C55.9746 47.0172 56.0864 46.06 56.1758 45.481C56.2717 44.9039 56.2028 44.363 56.1778 43.7925C56.1768 43.7494 56.1687 43.6829 56.1592 43.6444C55.3359 40.205 52.7072 39.5962 49.5033 38.9934L49.5072 38.9804Z" fill="#D6263C"/>
</g>
<defs>
<clipPath id="clip0_915_91558">
<rect width="85" height="69" fill="white" transform="translate(19.7891) rotate(16.666)"/>
</clipPath>
</defs>
</svg>
