<svg width="61" height="61" viewBox="0 0 61 61" fill="none" xmlns="http://www.w3.org/2000/svg">
<path d="M58.0387 20.2197H56.0629C55.5004 20.2197 55.0444 20.6755 55.0444 21.2377V23.406C55.0444 23.9682 55.5004 24.4239 56.0629 24.4239H58.0387C58.6012 24.4239 59.0572 23.9682 59.0572 23.406V21.2377C59.0572 20.6755 58.6012 20.2197 58.0387 20.2197Z" fill="#FF5C00"/>
<path d="M53.0387 40.2197H51.0629C50.5004 40.2197 50.0444 40.6755 50.0444 41.2377V43.406C50.0444 43.9682 50.5004 44.4239 51.0629 44.4239H53.0387C53.6012 44.4239 54.0572 43.9682 54.0572 43.406V41.2377C54.0572 40.6755 53.6012 40.2197 53.0387 40.2197Z" fill="#FF5C00"/>
<path d="M43.0387 20.2197H41.0629C40.5004 20.2197 40.0444 20.6755 40.0444 21.2377V23.406C40.0444 23.9682 40.5004 24.4239 41.0629 24.4239H43.0387C43.6012 24.4239 44.0572 23.9682 44.0572 23.406V21.2377C44.0572 20.6755 43.6012 20.2197 43.0387 20.2197Z" fill="#FF5C00"/>
<path d="M58.0387 30.2197H56.0629C55.5004 30.2197 55.0444 30.6755 55.0444 31.2377V33.406C55.0444 33.9682 55.5004 34.4239 56.0629 34.4239H58.0387C58.6012 34.4239 59.0572 33.9682 59.0572 33.406V31.2377C59.0572 30.6755 58.6012 30.2197 58.0387 30.2197Z" fill="#FF5C00"/>
<path d="M58.0387 25.2686H56.0629C55.5004 25.2686 55.0444 25.7243 55.0444 26.2865V28.4548C55.0444 29.017 55.5004 29.4727 56.0629 29.4727H58.0387C58.6012 29.4727 59.0572 29.017 59.0572 28.4548V26.2865C59.0572 25.7243 58.6012 25.2686 58.0387 25.2686Z" fill="#FF5C00"/>
<path d="M58.0387 35.2686H56.0629C55.5004 35.2686 55.0444 35.7243 55.0444 36.2865V38.4548C55.0444 39.017 55.5004 39.4727 56.0629 39.4727H58.0387C58.6012 39.4727 59.0572 39.017 59.0572 38.4548V36.2865C59.0572 35.7243 58.6012 35.2686 58.0387 35.2686Z" fill="#FF5C00"/>
<path d="M53.0387 15.2686H51.0629C50.5004 15.2686 50.0444 15.7243 50.0444 16.2865V18.4548C50.0444 19.017 50.5004 19.4727 51.0629 19.4727H53.0387C53.6012 19.4727 54.0572 19.017 54.0572 18.4548V16.2865C54.0572 15.7243 53.6012 15.2686 53.0387 15.2686Z" fill="#FF5C00"/>
<path d="M43.0387 35.2686H41.0629C40.5004 35.2686 40.0444 35.7243 40.0444 36.2865V38.4548C40.0444 39.017 40.5004 39.4727 41.0629 39.4727H43.0387C43.6012 39.4727 44.0572 39.017 44.0572 38.4548V36.2865C44.0572 35.7243 43.6012 35.2686 43.0387 35.2686Z" fill="#FF5C00"/>
<path d="M48.07 30.311H46.0942C45.5317 30.311 45.0757 30.7668 45.0757 31.329V33.4973C45.0757 34.0595 45.5317 34.5152 46.0942 34.5152H48.07C48.6325 34.5152 49.0885 34.0595 49.0885 33.4973V31.329C49.0885 30.7668 48.6325 30.311 48.07 30.311Z" fill="#FF5C00"/>
<path d="M48.07 10.311H46.0942C45.5317 10.311 45.0757 10.7668 45.0757 11.329V13.4973C45.0757 14.0595 45.5317 14.5152 46.0942 14.5152H48.07C48.6325 14.5152 49.0885 14.0595 49.0885 13.4973V11.329C49.0885 10.7668 48.6325 10.311 48.07 10.311Z" fill="#FF5C00"/>
<path d="M48.07 45.3604H46.0942C45.5317 45.3604 45.0757 45.8161 45.0757 46.3783V48.5466C45.0757 49.1088 45.5317 49.5645 46.0942 49.5645H48.07C48.6325 49.5645 49.0885 49.1088 49.0885 48.5466V46.3783C49.0885 45.8161 48.6325 45.3604 48.07 45.3604Z" fill="#FF5C00"/>
<path d="M48.07 25.3604H46.0942C45.5317 25.3604 45.0757 25.8161 45.0757 26.3783V28.5466C45.0757 29.1088 45.5317 29.5645 46.0942 29.5645H48.07C48.6325 29.5645 49.0885 29.1088 49.0885 28.5466V26.3783C49.0885 25.8161 48.6325 25.3604 48.07 25.3604Z" fill="#FF5C00"/>
<path d="M3.03874 35.3604H1.0629C0.500419 35.3604 0.0444336 35.8161 0.0444336 36.3783V38.5466C0.0444336 39.1088 0.500419 39.5645 1.0629 39.5645H3.03874C3.60123 39.5645 4.05721 39.1088 4.05721 38.5466V36.3783C4.05721 35.8161 3.60123 35.3604 3.03874 35.3604Z" fill="#FF5C00"/>
<path d="M3.03874 10.2617H1.0629C0.500419 10.2617 0.0444336 10.7175 0.0444336 11.2797V13.4479C0.0444336 14.0102 0.500419 14.4659 1.0629 14.4659H3.03874C3.60123 14.4659 4.05721 14.0102 4.05721 13.4479V11.2797C4.05721 10.7175 3.60123 10.2617 3.03874 10.2617Z" fill="#FF5C00"/>
<path d="M33.0387 35.311H31.0629C30.5004 35.311 30.0444 35.7668 30.0444 36.329V38.4973C30.0444 39.0595 30.5004 39.5152 31.0629 39.5152H33.0387C33.6012 39.5152 34.0572 39.0595 34.0572 38.4973V36.329C34.0572 35.7668 33.6012 35.311 33.0387 35.311Z" fill="#FF5C00"/>
<path d="M33.0387 15.311H31.0629C30.5004 15.311 30.0444 15.7668 30.0444 16.329V18.4973C30.0444 19.0595 30.5004 19.5152 31.0629 19.5152H33.0387C33.6012 19.5152 34.0572 19.0595 34.0572 18.4973V16.329C34.0572 15.7668 33.6012 15.311 33.0387 15.311Z" fill="#FF5C00"/>
<path d="M28.0387 20.311H26.0629C25.5004 20.311 25.0444 20.7668 25.0444 21.329V23.4973C25.0444 24.0595 25.5004 24.5152 26.0629 24.5152H28.0387C28.6012 24.5152 29.0572 24.0595 29.0572 23.4973V21.329C29.0572 20.7668 28.6012 20.311 28.0387 20.311Z" fill="#FF5C00"/>
<path d="M28.0075 45.311H26.0317C25.4692 45.311 25.0132 45.7668 25.0132 46.329V48.4973C25.0132 49.0595 25.4692 49.5152 26.0317 49.5152H28.0075C28.57 49.5152 29.026 49.0595 29.026 48.4973V46.329C29.026 45.7668 28.57 45.311 28.0075 45.311Z" fill="#FF5C00"/>
<path d="M3.03874 15.311H1.0629C0.500419 15.311 0.0444336 15.7668 0.0444336 16.329V18.4973C0.0444336 19.0595 0.500419 19.5152 1.0629 19.5152H3.03874C3.60123 19.5152 4.05721 19.0595 4.05721 18.4973V16.329C4.05721 15.7668 3.60123 15.311 3.03874 15.311Z" fill="#FF5C00"/>
<path d="M8.03874 20.311H6.0629C5.50042 20.311 5.04443 20.7668 5.04443 21.329V23.4973C5.04443 24.0595 5.50042 24.5152 6.0629 24.5152H8.03874C8.60123 24.5152 9.05721 24.0595 9.05721 23.4973V21.329C9.05721 20.7668 8.60123 20.311 8.03874 20.311Z" fill="#FF5C00"/>
<path d="M13.0387 20.311H11.0629C10.5004 20.311 10.0444 20.7668 10.0444 21.329V23.4973C10.0444 24.0595 10.5004 24.5152 11.0629 24.5152H13.0387C13.6012 24.5152 14.0572 24.0595 14.0572 23.4973V21.329C14.0572 20.7668 13.6012 20.311 13.0387 20.311Z" fill="#FF5C00"/>
<path d="M13.0387 30.311H11.0629C10.5004 30.311 10.0444 30.7668 10.0444 31.329V33.4973C10.0444 34.0595 10.5004 34.5152 11.0629 34.5152H13.0387C13.6012 34.5152 14.0572 34.0595 14.0572 33.4973V31.329C14.0572 30.7668 13.6012 30.311 13.0387 30.311Z" fill="#FF5C00"/>
<path d="M23.0387 20.311H21.0629C20.5004 20.311 20.0444 20.7668 20.0444 21.329V23.4973C20.0444 24.0595 20.5004 24.5152 21.0629 24.5152H23.0387C23.6012 24.5152 24.0572 24.0595 24.0572 23.4973V21.329C24.0572 20.7668 23.6012 20.311 23.0387 20.311Z" fill="#FF5C00"/>
<path d="M23.0387 30.311H21.0629C20.5004 30.311 20.0444 30.7668 20.0444 31.329V33.4973C20.0444 34.0595 20.5004 34.5152 21.0629 34.5152H23.0387C23.6012 34.5152 24.0572 34.0595 24.0572 33.4973V31.329C24.0572 30.7668 23.6012 30.311 23.0387 30.311Z" fill="#FF5C00"/>
<path d="M3.03874 25.3604H1.0629C0.500419 25.3604 0.0444336 25.8161 0.0444336 26.3783V28.5466C0.0444336 29.1088 0.500419 29.5645 1.0629 29.5645H3.03874C3.60123 29.5645 4.05721 29.1088 4.05721 28.5466V26.3783C4.05721 25.8161 3.60123 25.3604 3.03874 25.3604Z" fill="#FF5C00"/>
<path d="M8.03874 30.311H6.0629C5.50042 30.311 5.04443 30.7668 5.04443 31.329V33.4973C5.04443 34.0595 5.50042 34.5152 6.0629 34.5152H8.03874C8.60123 34.5152 9.05721 34.0595 9.05721 33.4973V31.329C9.05721 30.7668 8.60123 30.311 8.03874 30.311Z" fill="#FF5C00"/>
<path d="M33.0387 25.311H31.0629C30.5004 25.311 30.0444 25.7668 30.0444 26.329V28.4973C30.0444 29.0595 30.5004 29.5152 31.0629 29.5152H33.0387C33.6012 29.5152 34.0572 29.0595 34.0572 28.4973V26.329C34.0572 25.7668 33.6012 25.311 33.0387 25.311Z" fill="#FF5C00"/>
<path d="M28.0387 30.311H26.0629C25.5004 30.311 25.0444 30.7668 25.0444 31.329V33.4973C25.0444 34.0595 25.5004 34.5152 26.0629 34.5152H28.0387C28.6012 34.5152 29.0572 34.0595 29.0572 33.4973V31.329C29.0572 30.7668 28.6012 30.311 28.0387 30.311Z" fill="#FF5C00"/>
<path d="M33.0387 10.311H31.0629C30.5004 10.311 30.0444 10.7668 30.0444 11.329V13.4973C30.0444 14.0595 30.5004 14.5152 31.0629 14.5152H33.0387C33.6012 14.5152 34.0572 14.0595 34.0572 13.4973V11.329C34.0572 10.7668 33.6012 10.311 33.0387 10.311Z" fill="#FF5C00"/>
<path d="M18.0075 0.311035H16.0317C15.4692 0.311035 15.0132 0.766793 15.0132 1.329V3.49726C15.0132 4.05947 15.4692 4.51523 16.0317 4.51523H18.0075C18.57 4.51523 19.026 4.05947 19.026 3.49726V1.329C19.026 0.766793 18.57 0.311035 18.0075 0.311035Z" fill="#FF5C00"/>
<path d="M13.0075 0.311035H11.0317C10.4692 0.311035 10.0132 0.766793 10.0132 1.329V3.49726C10.0132 4.05947 10.4692 4.51523 11.0317 4.51523H13.0075C13.57 4.51523 14.026 4.05947 14.026 3.49726V1.329C14.026 0.766793 13.57 0.311035 13.0075 0.311035Z" fill="#FF5C00"/>
<path d="M3.03874 40.4092H1.0629C0.500419 40.4092 0.0444336 40.8649 0.0444336 41.4271V43.5954C0.0444336 44.1576 0.500419 44.6134 1.0629 44.6134H3.03874C3.60123 44.6134 4.05721 44.1576 4.05721 43.5954V41.4271C4.05721 40.8649 3.60123 40.4092 3.03874 40.4092Z" fill="#FF5C00"/>
<path d="M33.0387 40.3604H31.0629C30.5004 40.3604 30.0444 40.8161 30.0444 41.3783V43.5466C30.0444 44.1088 30.5004 44.5645 31.0629 44.5645H33.0387C33.6012 44.5645 34.0572 44.1088 34.0572 43.5466V41.3783C34.0572 40.8161 33.6012 40.3604 33.0387 40.3604Z" fill="#FF5C00"/>
<path d="M3.03874 20.4092H1.0629C0.500419 20.4092 0.0444336 20.8649 0.0444336 21.4271V23.5954C0.0444336 24.1576 0.500419 24.6134 1.0629 24.6134H3.03874C3.60123 24.6134 4.05721 24.1576 4.05721 23.5954V21.4271C4.05721 20.8649 3.60123 20.4092 3.03874 20.4092Z" fill="#FF5C00"/>
<path d="M33.0387 20.3604H31.0629C30.5004 20.3604 30.0444 20.8161 30.0444 21.3783V23.5466C30.0444 24.1088 30.5004 24.5645 31.0629 24.5645H33.0387C33.6012 24.5645 34.0572 24.1088 34.0572 23.5466V21.3783C34.0572 20.8161 33.6012 20.3604 33.0387 20.3604Z" fill="#FF5C00"/>
<path d="M28.0387 5.36035H26.0629C25.5004 5.36035 25.0444 5.81611 25.0444 6.37832V8.54658C25.0444 9.10879 25.5004 9.56454 26.0629 9.56454H28.0387C28.6012 9.56454 29.0572 9.10879 29.0572 8.54658V6.37832C29.0572 5.81611 28.6012 5.36035 28.0387 5.36035Z" fill="#FF5C00"/>
<path d="M18.0387 55.311H16.0629C15.5004 55.311 15.0444 55.7668 15.0444 56.329V58.4973C15.0444 59.0595 15.5004 59.5152 16.0629 59.5152H18.0387C18.6012 59.5152 19.0572 59.0595 19.0572 58.4973V56.329C19.0572 55.7668 18.6012 55.311 18.0387 55.311Z" fill="#FF5C00"/>
<path d="M3.03874 30.4092H1.0629C0.500419 30.4092 0.0444336 30.8649 0.0444336 31.4271V33.5954C0.0444336 34.1576 0.500419 34.6134 1.0629 34.6134H3.03874C3.60123 34.6134 4.05721 34.1576 4.05721 33.5954V31.4271C4.05721 30.8649 3.60123 30.4092 3.03874 30.4092Z" fill="#FF5C00"/>
<path d="M33.0387 30.3604H31.0629C30.5004 30.3604 30.0444 30.8161 30.0444 31.3783V33.5466C30.0444 34.1088 30.5004 34.5645 31.0629 34.5645H33.0387C33.6012 34.5645 34.0572 34.1088 34.0572 33.5466V31.3783C34.0572 30.8161 33.6012 30.3604 33.0387 30.3604Z" fill="#FF5C00"/>
<path d="M13.0387 45.4023H11.0629C10.5004 45.4023 10.0444 45.8581 10.0444 46.4203V48.5886C10.0444 49.1508 10.5004 49.6065 11.0629 49.6065H13.0387C13.6012 49.6065 14.0572 49.1508 14.0572 48.5886V46.4203C14.0572 45.8581 13.6012 45.4023 13.0387 45.4023Z" fill="#FF5C00"/>
<path d="M13.0387 55.311H11.0629C10.5004 55.311 10.0444 55.7668 10.0444 56.329V58.4973C10.0444 59.0595 10.5004 59.5152 11.0629 59.5152H13.0387C13.6012 59.5152 14.0572 59.0595 14.0572 58.4973V56.329C14.0572 55.7668 13.6012 55.311 13.0387 55.311Z" fill="#FF5C00"/>
<path d="M8.03874 45.311H6.0629C5.50042 45.311 5.04443 45.7668 5.04443 46.329V48.4973C5.04443 49.0595 5.50042 49.5152 6.0629 49.5152H8.03874C8.60123 49.5152 9.05721 49.0595 9.05721 48.4973V46.329C9.05721 45.7668 8.60123 45.311 8.03874 45.311Z" fill="#FF5C00"/>
<path d="M18.0075 45.311H16.0317C15.4692 45.311 15.0132 45.7668 15.0132 46.329V48.4973C15.0132 49.0595 15.4692 49.5152 16.0317 49.5152H18.0075C18.57 49.5152 19.026 49.0595 19.026 48.4973V46.329C19.026 45.7668 18.57 45.311 18.0075 45.311Z" fill="#FF5C00"/>
<path d="M18.0387 50.311H16.0629C15.5004 50.311 15.0444 50.7668 15.0444 51.329V53.4973C15.0444 54.0595 15.5004 54.5152 16.0629 54.5152H18.0387C18.6012 54.5152 19.0572 54.0595 19.0572 53.4973V51.329C19.0572 50.7668 18.6012 50.311 18.0387 50.311Z" fill="#FF5C00"/>
<path d="M23.0075 45.311H21.0317C20.4692 45.311 20.0132 45.7668 20.0132 46.329V48.4973C20.0132 49.0595 20.4692 49.5152 21.0317 49.5152H23.0075C23.57 49.5152 24.026 49.0595 24.026 48.4973V46.329C24.026 45.7668 23.57 45.311 23.0075 45.311Z" fill="#FF5C00"/>
<path d="M23.0387 55.311H21.0629C20.5004 55.311 20.0444 55.7668 20.0444 56.329V58.4973C20.0444 59.0595 20.5004 59.5152 21.0629 59.5152H23.0387C23.6012 59.5152 24.0572 59.0595 24.0572 58.4973V56.329C24.0572 55.7668 23.6012 55.311 23.0387 55.311Z" fill="#FF5C00"/>
<path d="M23.0387 0.402344H21.0629C20.5004 0.402344 20.0444 0.858102 20.0444 1.42031V3.58857C20.0444 4.15078 20.5004 4.60654 21.0629 4.60654H23.0387C23.6012 4.60654 24.0572 4.15078 24.0572 3.58857V1.42031C24.0572 0.858102 23.6012 0.402344 23.0387 0.402344Z" fill="#FF5C00"/>
<path d="M8.03874 5.45166H6.0629C5.50042 5.45166 5.04443 5.90742 5.04443 6.46962V8.63789C5.04443 9.20009 5.50042 9.65585 6.0629 9.65585H8.03874C8.60123 9.65585 9.05721 9.20009 9.05721 8.63789V6.46962C9.05721 5.90742 8.60123 5.45166 8.03874 5.45166Z" fill="#FF5C00"/>
</svg>
