<svg width="512" height="562" viewBox="0 0 512 562" fill="none" xmlns="http://www.w3.org/2000/svg">
<ellipse cx="216" cy="281" rx="296" ry="281" fill="#20376C"/>
<ellipse cx="254" cy="477.5" rx="144" ry="20.5" fill="#1B263E"/>
<path d="M144.913 168.161C146.276 166.082 149.436 161.403 155.049 159.829C163.119 157.564 170.672 163.289 171.717 164.11C175.606 167.146 177.547 170.799 180.049 176.722C184.815 187.984 187.198 193.615 188.834 203.079C194.789 237.474 185.263 248.935 194.017 261.647C200.158 270.569 207.886 269.325 230.055 277.413C240.085 281.072 255.814 290.063 287.273 308.051C325.707 330.021 348.137 344.916 363.86 339.584C365.801 338.924 372.359 336.361 374.674 338.906C376.796 341.251 374.294 346.777 372.198 351.294C367.189 362.064 360.631 369.089 358.229 371.565C350.06 379.996 341.766 385.627 337.958 387.786C330.062 392.253 310.96 399.004 264.525 382.603C224.119 368.336 177.261 351.785 155.049 306.464C151.122 298.456 148.074 282.652 141.982 251.051C141.267 247.336 130.59 190.006 144.913 168.154V168.161Z" fill="#A72032"/>
<path d="M180.702 178.246C190.408 179.472 200.674 181.152 221.842 176.498C237.639 173.02 237.926 169.865 264.077 165.012C282.724 161.547 290.614 162.511 296.512 167.041C302.548 171.67 304.327 178.371 304.62 179.541C306.474 186.957 304.022 193.92 295.834 208.262C281.971 232.534 278.568 230.86 274.212 243.061C272.414 248.095 267.717 263.152 272.862 279.554C274.573 285.017 276.558 291.351 282.326 294.76C286.109 297 291.547 297.99 309.697 292.396C333.583 285.029 334.691 280.064 343.482 280.91C360.991 282.59 371.32 303.676 372.539 306.252C374.045 309.426 383.614 329.635 373.217 344.773C367.879 352.538 359.772 355.344 355.982 356.601C335.537 363.371 315.222 351.717 306.654 346.801C296.879 341.195 299.779 340.66 273.54 319.431C251.328 301.461 244.421 297.934 235.698 297.131C231.162 296.714 221.126 295.787 211.034 300.845C203.138 304.809 200.22 309.923 192.113 310.645C190.613 310.782 184.049 311.199 178.598 307.267C173.59 303.652 171.729 297.946 169.813 285.645C166.658 265.405 167.673 257.428 169.701 246.564C169.931 245.326 173.136 227.687 179.669 210.906C182.78 202.911 184.248 194.318 182.313 185.632C181.523 182.079 180.521 178.234 180.708 178.259L180.702 178.246Z" fill="#D62D3B"/>
<path d="M142.435 173.456C138.883 173.661 137.147 202.849 137.364 224.141C137.613 248.04 138.348 285.341 155.95 328.883C164.916 351.064 173.066 370.583 193.114 388.011C210.554 403.167 228.212 409.122 234.335 410.989C239.736 412.631 260.312 418.442 286.706 414.031C296.393 412.413 316.503 407.809 336.034 393.417C348.148 384.495 356.069 374.739 355.291 373.818C354.401 372.767 343.793 382.342 326.57 386.996C320.317 388.689 304.613 389.118 292.442 384.296C277.914 378.541 267.399 361.175 265.414 358.649C255.564 346.118 253.903 343.884 242.778 332.933C237.975 328.204 231.815 325.411 220.478 323.812C209.328 322.237 204.762 324.34 196.486 322.797C180.838 319.885 170.435 309.296 167.765 306.577C151.8 290.331 151.333 266.656 150.872 243.056C150.536 226.057 152.783 213.115 148.172 190.349C147.158 185.334 144.725 173.325 142.429 173.456H142.435Z" fill="#7A1428"/>
<path d="M267.791 415.648V437.276L331.99 472.244V480.526H324.219V475.623L268.805 450.112H254.221L202.074 474.783V480.526H190.588V471.908L256.984 437.276V415.648H267.791Z" fill="#A93031"/>
<path d="M266.783 450.113V465.227H268.469V471.231H254.22V465.407H256.305L256.137 450.113H266.783Z" fill="#7A1428"/>
<path d="M185.574 135.798C174.499 127.156 166.933 126.048 157.133 123.199C149.057 120.853 135.07 119.21 114.263 122.458C79.924 127.828 71.1447 121.836 63.4107 118.762C50.9231 113.797 39.9101 105.148 40.9429 102.796C41.6958 101.079 48.5214 103.587 61.0463 105.459C72.9989 107.245 76.5641 106.43 108.937 106.791C127.224 106.996 136.37 107.096 138.946 107.531C145.846 108.689 167.518 113.063 182.258 128.668C184.597 131.144 190.44 137.795 189.5 138.866C188.897 139.556 186.688 136.669 185.568 135.792L185.574 135.798Z" fill="#665243"/>
<path d="M173.466 151.218C166.946 150.64 163.063 149.414 157.358 149.962C148.043 150.851 139.581 150.895 123.728 159.127C104.445 169.132 108.067 171.869 96.9728 175.683C81.7101 180.935 67.0075 178.465 56.6167 176.716C46.7485 175.061 41.2358 172.703 39.027 171.689C28.6051 166.923 22.2275 157.017 23.6523 153.657C24.455 151.766 28.5366 154.105 31.6912 154.305C74.9654 157.017 69.994 160.06 82.7803 160.16C94.5151 160.253 90.1223 155.804 117.518 148.923C128.966 146.048 136.433 145.432 151.372 144.194C151.372 144.194 171.78 142.501 176.652 148.481C176.963 148.867 177.897 150.011 177.542 150.845C177.001 152.108 175.395 151.386 173.473 151.218H173.466Z" fill="#665243"/>
<path d="M178.878 172.247C179.743 183.627 179.127 189.022 179.301 202.885C179.438 213.848 176.19 222.465 172.874 231.263C168.979 241.604 167.523 240.534 163.783 249.886C160.828 257.29 156.982 275.172 163.267 291.866C165.855 298.741 173.365 309.904 180.278 309.997C181.64 310.016 178.623 306.407 186.842 285.582C192.212 271.968 200.568 249.998 197.706 218.172C197.295 213.636 193.755 176.765 182.63 175.153C182.424 175.122 178.704 169.902 178.878 172.235V172.247Z" fill="#665243"/>
<path d="M244.173 160.326C238.455 153.152 237.043 147.876 222.869 143.62C211.171 140.105 210.779 143.62 197.302 137.118C191.914 134.517 189.332 133.833 184.41 129.042C170.031 115.061 154.731 106.5 148.528 103.476C148.528 103.476 119.384 89.2645 80.801 97.6456C75.5745 98.7842 66.7952 101.317 53.8907 101.684C45.5656 101.92 41.1418 101.093 40.8867 102.132C40.3765 104.21 56.8089 112.516 75.8732 114.688C94.2966 116.791 96.3126 111.017 117.586 111.546C137.117 112.037 150.388 117.276 161.986 121.862C171.562 125.645 186.999 131.898 186.657 139.352C186.526 142.139 184.236 144.062 183.969 144.286C178.462 148.778 168.6 142.992 156.61 139.352C156.61 139.352 140.813 134.561 121.176 135.762C117.374 135.992 115.75 136.347 82.6054 145.63C58.7004 152.325 55.7947 153.19 49.4171 153.706C32.8602 155.044 22.9237 151.597 22.0588 154.154C21.0819 157.041 32.4372 165.148 45.379 168.956C62.3029 173.934 77.2358 170.176 92.0256 166.262C115.756 159.984 119.147 153.737 142.71 149.668C167.53 145.381 173.198 150.682 175.003 153.258C176.732 155.734 176.172 157.514 177.697 166.262C179.314 175.577 180.92 179.098 182.631 185.998C185.082 195.879 187.123 212.218 182.332 227.86C179.414 237.392 178.543 237.137 174.256 249.239C167.306 268.876 168.059 297.454 173.59 307.409C174.436 308.927 178.923 313.594 188.007 313.376C197.887 313.139 200.077 305.598 211.327 300.372C224.798 294.113 242.008 296.888 253.469 304.254C257.532 306.868 260.711 309.375 270.841 317.122C282.824 326.293 285.444 329.292 290.751 333.927C294.111 336.858 291.205 329.92 299.238 324.588C306.773 319.586 313.281 320.295 313.592 317.414C313.835 315.162 310.12 312.275 306.418 311.584C298.56 310.122 289.376 318.31 289.376 318.31C289.376 318.31 284.038 317.47 281.754 315.616C277.61 312.256 282.563 304.802 280.41 294.088C279.863 291.35 279.452 282.608 273.796 278.053C264.737 270.761 256.611 273.505 255.18 273.903C249.325 275.54 241.367 284.219 240.154 282.988C238.268 281.071 239.146 274.463 244.416 267.513C254.172 254.64 257.389 253.8 260.114 245.537C263.455 235.401 258.801 230.306 263.816 224.121C267.207 219.933 273.137 217.078 275.924 216.499C281.735 215.292 285.438 216.157 286.24 214.259C286.999 212.455 285.624 209.555 282.613 208.037C278.17 205.797 272.732 210.999 263.81 211.229C260.139 211.322 259.604 211.527 255.852 209.997C248.46 206.985 245.822 202.026 238.586 199.345C233.291 197.385 230.814 195.898 230.173 194.075C229.545 192.264 232.98 190.192 236.675 188.693C242.344 186.397 249.567 185.326 252.71 178.04C254.775 173.243 245.467 161.925 244.185 160.326H244.173Z" fill="#B28452"/>
<path d="M243.016 177.027C246.712 179.479 248.777 180.848 251.266 180.238C252.187 180.014 252.567 179.665 252.766 179.41C253.394 178.614 253.388 177.569 252.511 177.015C250.874 175.982 250.874 175.646 246.544 174.651C245.809 174.483 244.509 174.626 243.383 175.161C243.227 175.235 242.369 175.64 242.375 176.2C242.375 176.592 242.804 176.884 243.016 177.027Z" fill="#6A5544"/>
<path d="M184.883 168.485C186.108 168 188.466 174.931 194.825 181.041C198.671 184.737 202.478 186.697 205.011 187.972C208.707 189.833 215.259 192.826 219.11 192.539C219.826 192.49 221.356 192.465 221.68 192.851C221.68 192.851 220.305 193.952 218.363 194.481C216.547 194.978 214.904 195.308 212.894 195.184C205.241 194.711 199.038 192.322 196.493 190.704C191.447 187.487 189.269 183.331 188.261 181.775C187.004 179.828 184.752 175.927 184.515 170.812C184.422 168.79 184.733 168.547 184.883 168.491V168.485Z" fill="white"/>
<path d="M206.367 164.241C204.892 167.675 207.499 171.446 208.047 172.186C208.433 172.715 210.915 175.988 214.829 176.28C215.974 176.367 218.208 175.901 222.221 174.408C225.382 173.232 226.414 172.522 226.962 171.67C228.53 169.243 226.309 165.392 226.047 164.944C223.739 161.043 219.01 159.288 215.109 159.412C214.25 159.437 210.548 159.556 207.867 162.194C207.394 162.66 206.79 163.264 206.367 164.241Z" fill="white"/>
<path d="M206.368 164.241C204.893 167.675 207.5 171.446 208.048 172.186C208.434 172.715 212.03 174.967 213.722 174.725C215.048 174.538 216.379 174.078 217.86 173.026C219.024 172.192 219.167 171.309 219.428 170.326C219.733 169.175 219.335 167.457 219.136 166.984C218.177 164.72 216.13 162.349 214.836 161.602C214.096 161.173 210.555 159.562 207.874 162.194C207.401 162.66 206.797 163.264 206.374 164.241H206.368Z" fill="#1A1933"/>
<path d="M227.511 172.697C227.965 173.027 228.5 173.008 229.123 172.983C229.863 172.958 230.666 172.927 230.859 172.491C231.064 172.031 230.473 171.365 229.938 170.768C229.272 170.015 228.594 169.642 228.052 169.349C227.486 169.044 227.2 168.889 226.957 168.945C225.925 169.181 225.545 171.788 226.142 172.143C226.31 172.243 226.503 172.124 226.901 172.28C227.206 172.398 227.325 172.554 227.511 172.697Z" fill="#6A5544"/>
<g clip-path="url(#clip0_1001_76197)">
<path d="M328.527 207.476L293.842 181.168C293.486 180.898 293.032 180.818 292.609 180.942C292.188 181.071 291.845 181.391 291.69 181.807L266.115 250.209C265.886 250.823 266.097 251.511 266.629 251.877L300.928 275.67C301.075 275.771 301.239 275.842 301.411 275.881C301.646 275.935 301.893 275.926 302.129 275.853C302.537 275.723 302.868 275.417 303.025 275.016L328.988 209.129C329.222 208.531 329.036 207.854 328.533 207.475L328.527 207.476Z" fill="#7A2E36"/>
<path d="M272.768 190.021C272.768 190.021 274.697 188.64 276.387 188.297C276.387 188.297 321.398 206.52 323.854 208.352L298.134 275.813L249.803 259.566L272.768 190.021Z" fill="#FFF8C6"/>
<path d="M324.797 209.501C324.638 209.149 324.348 208.883 323.989 208.75L270.869 189.899C270.184 189.675 269.363 190.019 269.09 190.744L243.515 259.146C243.379 259.513 243.395 259.919 243.566 260.271C243.734 260.619 244.038 260.883 244.406 261L297.142 277.341C297.176 277.351 297.21 277.359 297.245 277.367C297.914 277.519 298.601 277.159 298.859 276.501L324.82 210.611C324.96 210.251 324.954 209.852 324.797 209.501Z" fill="#6F2626"/>
<path d="M329.635 207.902C329.355 207.604 328.926 207.498 328.537 207.633L324.227 209.129C323.935 209.229 323.703 209.453 323.59 209.743L296.913 276.965C296.759 277.35 296.84 277.788 297.122 278.089C297.267 278.244 297.452 278.35 297.65 278.395C297.838 278.438 298.032 278.428 298.221 278.364L302.534 276.868C302.826 276.768 303.057 276.545 303.171 276.255L329.846 209.032C330 208.647 329.919 208.209 329.637 207.905L329.635 207.902Z" fill="#532222"/>
</g>
<defs>
<clipPath id="clip0_1001_76197">
<rect width="73.1167" height="94.0928" fill="white" transform="translate(262.834 174) rotate(12.7922)"/>
</clipPath>
</defs>
</svg>
