<svg width="61" height="61" viewBox="0 0 61 61" fill="none" xmlns="http://www.w3.org/2000/svg">
<path d="M2.85104 46.9707H0.99906C0.471834 46.9707 0.0444336 47.396 0.0444336 47.9207V49.9441C0.0444336 50.4687 0.471834 50.894 0.99906 50.894H2.85104C3.37826 50.894 3.80566 50.4687 3.80566 49.9441V47.9207C3.80566 47.396 3.37826 46.9707 2.85104 46.9707Z" fill="#FF5C00"/>
<path d="M26.2837 9.64307H24.4317C23.9045 9.64307 23.4771 10.0684 23.4771 10.593V12.6164C23.4771 13.1411 23.9045 13.5664 24.4317 13.5664H26.2837C26.8109 13.5664 27.2383 13.1411 27.2383 12.6164V10.593C27.2383 10.0684 26.8109 9.64307 26.2837 9.64307Z" fill="#FF5C00"/>
<path d="M21.5971 28.3066H19.7452C19.2179 28.3066 18.7905 28.7319 18.7905 29.2566V31.28C18.7905 31.8046 19.2179 32.23 19.7452 32.23H21.5971C22.1244 32.23 22.5518 31.8046 22.5518 31.28V29.2566C22.5518 28.7319 22.1244 28.3066 21.5971 28.3066Z" fill="#FF5C00"/>
<path d="M21.5971 46.9707H19.7452C19.2179 46.9707 18.7905 47.396 18.7905 47.9207V49.9441C18.7905 50.4687 19.2179 50.894 19.7452 50.894H21.5971C22.1244 50.894 22.5518 50.4687 22.5518 49.9441V47.9207C22.5518 47.396 22.1244 46.9707 21.5971 46.9707Z" fill="#FF5C00"/>
<path d="M45.0302 9.64307H43.1783C42.651 9.64307 42.2236 10.0684 42.2236 10.593V12.6164C42.2236 13.1411 42.651 13.5664 43.1783 13.5664H45.0302C45.5575 13.5664 45.9849 13.1411 45.9849 12.6164V10.593C45.9849 10.0684 45.5575 9.64307 45.0302 9.64307Z" fill="#FF5C00"/>
<path d="M59.0898 28.3066H57.2378C56.7106 28.3066 56.2832 28.7319 56.2832 29.2566V31.28C56.2832 31.8046 56.7106 32.23 57.2378 32.23H59.0898C59.617 32.23 60.0444 31.8046 60.0444 31.28V29.2566C60.0444 28.7319 59.617 28.3066 59.0898 28.3066Z" fill="#FF5C00"/>
<path d="M49.7168 37.6387H47.8648C47.3376 37.6387 46.9102 38.064 46.9102 38.5886V40.612C46.9102 41.1367 47.3376 41.562 47.8648 41.562H49.7168C50.244 41.562 50.6714 41.1367 50.6714 40.612V38.5886C50.6714 38.064 50.244 37.6387 49.7168 37.6387Z" fill="#FF5C00"/>
<path d="M26.2837 18.9746H24.4317C23.9045 18.9746 23.4771 19.3999 23.4771 19.9246V21.948C23.4771 22.4726 23.9045 22.8979 24.4317 22.8979H26.2837C26.8109 22.8979 27.2383 22.4726 27.2383 21.948V19.9246C27.2383 19.3999 26.8109 18.9746 26.2837 18.9746Z" fill="#FF5C00"/>
<path d="M49.7168 18.9746H47.8648C47.3376 18.9746 46.9102 19.3999 46.9102 19.9246V21.948C46.9102 22.4726 47.3376 22.8979 47.8648 22.8979H49.7168C50.244 22.8979 50.6714 22.4726 50.6714 21.948V19.9246C50.6714 19.3999 50.244 18.9746 49.7168 18.9746Z" fill="#FF5C00"/>
<path d="M45.0302 37.6387H43.1783C42.651 37.6387 42.2236 38.064 42.2236 38.5886V40.612C42.2236 41.1367 42.651 41.562 43.1783 41.562H45.0302C45.5575 41.562 45.9849 41.1367 45.9849 40.612V38.5886C45.9849 38.064 45.5575 37.6387 45.0302 37.6387Z" fill="#FF5C00"/>
<path d="M45.0302 0.311035H43.1783C42.651 0.311035 42.2236 0.736344 42.2236 1.26099V3.28439C42.2236 3.80904 42.651 4.23434 43.1783 4.23434H45.0302C45.5575 4.23434 45.9849 3.80904 45.9849 3.28439V1.26099C45.9849 0.736344 45.5575 0.311035 45.0302 0.311035Z" fill="#FF5C00"/>
<path d="M12.2241 37.6387H10.3721C9.84488 37.6387 9.41748 38.064 9.41748 38.5886V40.612C9.41748 41.1367 9.84488 41.562 10.3721 41.562H12.2241C12.7513 41.562 13.1787 41.1367 13.1787 40.612V38.5886C13.1787 38.064 12.7513 37.6387 12.2241 37.6387Z" fill="#FF5C00"/>
<path d="M35.6572 37.6387H33.8052C33.278 37.6387 32.8506 38.064 32.8506 38.5886V40.612C32.8506 41.1367 33.278 41.562 33.8052 41.562H35.6572C36.1844 41.562 36.6118 41.1367 36.6118 40.612V38.5886C36.6118 38.064 36.1844 37.6387 35.6572 37.6387Z" fill="#FF5C00"/>
<path d="M12.2241 56.3022H10.3721C9.84488 56.3022 9.41748 56.7276 9.41748 57.2522V59.2756C9.41748 59.8002 9.84488 60.2256 10.3721 60.2256H12.2241C12.7513 60.2256 13.1787 59.8002 13.1787 59.2756V57.2522C13.1787 56.7276 12.7513 56.3022 12.2241 56.3022Z" fill="#FF5C00"/>
<path d="M59.0898 18.9746H57.2378C56.7106 18.9746 56.2832 19.3999 56.2832 19.9246V21.948C56.2832 22.4726 56.7106 22.8979 57.2378 22.8979H59.0898C59.617 22.8979 60.0444 22.4726 60.0444 21.948V19.9246C60.0444 19.3999 59.617 18.9746 59.0898 18.9746Z" fill="#FF5C00"/>
<path d="M35.6572 0.311035H33.8052C33.278 0.311035 32.8506 0.736344 32.8506 1.26099V3.28439C32.8506 3.80904 33.278 4.23434 33.8052 4.23434H35.6572C36.1844 4.23434 36.6118 3.80904 36.6118 3.28439V1.26099C36.6118 0.736344 36.1844 0.311035 35.6572 0.311035Z" fill="#FF5C00"/>
<path d="M2.85104 51.6821H0.99906C0.471834 51.6821 0.0444336 52.1074 0.0444336 52.6321V54.6555C0.0444336 55.1801 0.471834 55.6054 0.99906 55.6054H2.85104C3.37826 55.6054 3.80566 55.1801 3.80566 54.6555V52.6321C3.80566 52.1074 3.37826 51.6821 2.85104 51.6821Z" fill="#FF5C00"/>
<path d="M26.2837 14.3545H24.4317C23.9045 14.3545 23.4771 14.7798 23.4771 15.3044V17.3278C23.4771 17.8525 23.9045 18.2778 24.4317 18.2778H26.2837C26.8109 18.2778 27.2383 17.8525 27.2383 17.3278V15.3044C27.2383 14.7798 26.8109 14.3545 26.2837 14.3545Z" fill="#FF5C00"/>
<path d="M59.0898 14.3545H57.2378C56.7106 14.3545 56.2832 14.7798 56.2832 15.3044V17.3278C56.2832 17.8525 56.7106 18.2778 57.2378 18.2778H59.0898C59.617 18.2778 60.0444 17.8525 60.0444 17.3278V15.3044C60.0444 14.7798 59.617 14.3545 59.0898 14.3545Z" fill="#FF5C00"/>
<path d="M26.2837 42.3506H24.4317C23.9045 42.3506 23.4771 42.7759 23.4771 43.3005V45.3239C23.4771 45.8486 23.9045 46.2739 24.4317 46.2739H26.2837C26.8109 46.2739 27.2383 45.8486 27.2383 45.3239V43.3005C27.2383 42.7759 26.8109 42.3506 26.2837 42.3506Z" fill="#FF5C00"/>
<path d="M26.2837 23.6865H24.4317C23.9045 23.6865 23.4771 24.1118 23.4771 24.6365V26.6599C23.4771 27.1845 23.9045 27.6098 24.4317 27.6098H26.2837C26.8109 27.6098 27.2383 27.1845 27.2383 26.6599V24.6365C27.2383 24.1118 26.8109 23.6865 26.2837 23.6865Z" fill="#FF5C00"/>
<path d="M49.7168 5.02295H47.8648C47.3376 5.02295 46.9102 5.44826 46.9102 5.9729V7.9963C46.9102 8.52095 47.3376 8.94626 47.8648 8.94626H49.7168C50.244 8.94626 50.6714 8.52095 50.6714 7.9963V5.9729C50.6714 5.44826 50.244 5.02295 49.7168 5.02295Z" fill="#FF5C00"/>
<path d="M45.0302 23.6865H43.1783C42.651 23.6865 42.2236 24.1118 42.2236 24.6365V26.6599C42.2236 27.1845 42.651 27.6098 43.1783 27.6098H45.0302C45.5575 27.6098 45.9849 27.1845 45.9849 26.6599V24.6365C45.9849 24.1118 45.5575 23.6865 45.0302 23.6865Z" fill="#FF5C00"/>
<path d="M59.0898 23.6865H57.2378C56.7106 23.6865 56.2832 24.1118 56.2832 24.6365V26.6599C56.2832 27.1845 56.7106 27.6098 57.2378 27.6098H59.0898C59.617 27.6098 60.0444 27.1845 60.0444 26.6599V24.6365C60.0444 24.1118 59.617 23.6865 59.0898 23.6865Z" fill="#FF5C00"/>
<path d="M30.9995 37.7241H29.1475C28.6203 37.7241 28.1929 38.1494 28.1929 38.6741V40.6975C28.1929 41.2221 28.6203 41.6474 29.1475 41.6474H30.9995C31.5267 41.6474 31.9541 41.2221 31.9541 40.6975V38.6741C31.9541 38.1494 31.5267 37.7241 30.9995 37.7241Z" fill="#FF5C00"/>
<path d="M7.56686 56.3877H5.71488C5.18765 56.3877 4.76025 56.813 4.76025 57.3376V59.3611C4.76025 59.8857 5.18765 60.311 5.71488 60.311H7.56686C8.09408 60.311 8.52148 59.8857 8.52148 59.3611V57.3376C8.52148 56.813 8.09408 56.3877 7.56686 56.3877Z" fill="#FF5C00"/>
<path d="M40.373 37.7241H38.521C37.9938 37.7241 37.5664 38.1494 37.5664 38.6741V40.6975C37.5664 41.2221 37.9938 41.6474 38.521 41.6474H40.373C40.9002 41.6474 41.3276 41.2221 41.3276 40.6975V38.6741C41.3276 38.1494 40.9002 37.7241 40.373 37.7241Z" fill="#FF5C00"/>
<path d="M40.373 19.0601H38.521C37.9938 19.0601 37.5664 19.4854 37.5664 20.01V22.0334C37.5664 22.5581 37.9938 22.9834 38.521 22.9834H40.373C40.9002 22.9834 41.3276 22.5581 41.3276 22.0334V20.01C41.3276 19.4854 40.9002 19.0601 40.373 19.0601Z" fill="#FF5C00"/>
<path d="M40.373 0.396484H38.521C37.9938 0.396484 37.5664 0.821793 37.5664 1.34644V3.36984C37.5664 3.89448 37.9938 4.31979 38.521 4.31979H40.373C40.9002 4.31979 41.3276 3.89448 41.3276 3.36984V1.34644C41.3276 0.821793 40.9002 0.396484 40.373 0.396484Z" fill="#FF5C00"/>
<path d="M54.4326 33.104H52.5806C52.0534 33.104 51.626 33.5293 51.626 34.054V36.0774C51.626 36.602 52.0534 37.0273 52.5806 37.0273H54.4326C54.9598 37.0273 55.3872 36.602 55.3872 36.0774V34.054C55.3872 33.5293 54.9598 33.104 54.4326 33.104Z" fill="#FF5C00"/>
<path d="M54.4326 14.4399H52.5806C52.0534 14.4399 51.626 14.8653 51.626 15.3899V17.4133C51.626 17.9379 52.0534 18.3633 52.5806 18.3633H54.4326C54.9598 18.3633 55.3872 17.9379 55.3872 17.4133V15.3899C55.3872 14.8653 54.9598 14.4399 54.4326 14.4399Z" fill="#FF5C00"/>
<path d="M16.9399 33.104H15.0879C14.5607 33.104 14.1333 33.5293 14.1333 34.054V36.0774C14.1333 36.602 14.5607 37.0273 15.0879 37.0273H16.9399C17.4671 37.0273 17.8945 36.602 17.8945 36.0774V34.054C17.8945 33.5293 17.4671 33.104 16.9399 33.104Z" fill="#FF5C00"/>
<path d="M16.9399 51.7676H15.0879C14.5607 51.7676 14.1333 52.1929 14.1333 52.7175V54.7409C14.1333 55.2656 14.5607 55.6909 15.0879 55.6909H16.9399C17.4671 55.6909 17.8945 55.2656 17.8945 54.7409V52.7175C17.8945 52.1929 17.4671 51.7676 16.9399 51.7676Z" fill="#FF5C00"/>
<path d="M40.373 14.4399H38.521C37.9938 14.4399 37.5664 14.8653 37.5664 15.3899V17.4133C37.5664 17.9379 37.9938 18.3633 38.521 18.3633H40.373C40.9002 18.3633 41.3276 17.9379 41.3276 17.4133V15.3899C41.3276 14.8653 40.9002 14.4399 40.373 14.4399Z" fill="#FF5C00"/>
<path d="M7.56686 42.4355H5.71488C5.18765 42.4355 4.76025 42.8609 4.76025 43.3855V45.4089C4.76025 45.9335 5.18765 46.3589 5.71488 46.3589H7.56686C8.09408 46.3589 8.52148 45.9335 8.52148 45.4089V43.3855C8.52148 42.8609 8.09408 42.4355 7.56686 42.4355Z" fill="#FF5C00"/>
<path d="M30.9995 5.1084H29.1475C28.6203 5.1084 28.1929 5.53371 28.1929 6.05835V8.08175C28.1929 8.6064 28.6203 9.03171 29.1475 9.03171H30.9995C31.5267 9.03171 31.9541 8.6064 31.9541 8.08175V6.05835C31.9541 5.53371 31.5267 5.1084 30.9995 5.1084Z" fill="#FF5C00"/>
</svg>
