<svg width="96" height="58" viewBox="0 0 96 58" fill="none" xmlns="http://www.w3.org/2000/svg">
<g clip-path="url(#clip0_915_91617)">
<path d="M65.1391 15.2621C67.2703 9.63011 64.827 3.17336 59.682 0.840516C54.5369 -1.49232 48.6384 1.18215 46.5072 6.81413C44.3761 12.4461 46.8193 18.9029 51.9644 21.2357C57.1094 23.5685 63.008 20.8941 65.1391 15.2621Z" fill="#010101"/>
<path d="M66.7389 22.0703H24.7393C19.574 22.0703 15.3867 26.6539 15.3867 32.308V44.7427C15.3867 50.3968 19.574 54.9804 24.7393 54.9804H66.7389C71.9042 54.9804 76.0915 50.3968 76.0915 44.7427V32.308C76.0915 26.6539 71.9042 22.0703 66.7389 22.0703Z" fill="#010101"/>
<path d="M52.3497 49.8633H36.6403C35.7668 49.8633 35.0586 50.6385 35.0586 51.5947V58.3695C35.0586 59.3258 35.7668 60.1009 36.6403 60.1009H52.3497C53.2233 60.1009 53.9315 59.3258 53.9315 58.3695V51.5947C53.9315 50.6385 53.2233 49.8633 52.3497 49.8633Z" fill="#010101"/>
<path d="M52.4641 26.8125H21.8571C20.9836 26.8125 20.2754 27.5877 20.2754 28.5439V40.031C20.2754 40.9872 20.9836 41.7624 21.8571 41.7624H52.4641C53.3377 41.7624 54.0458 40.9872 54.0458 40.031V28.5439C54.0458 27.5877 53.3377 26.8125 52.4641 26.8125Z" fill="white"/>
<path d="M50.5905 29.1719H38.401C37.7987 29.1719 37.3105 29.7063 37.3105 30.3655V38.2159C37.3105 38.8751 37.7987 39.4095 38.401 39.4095H50.5905C51.1927 39.4095 51.6809 38.8751 51.6809 38.2159V30.3655C51.6809 29.7063 51.1927 29.1719 50.5905 29.1719Z" fill="#010101"/>
<path d="M43.7309 15.2621C45.8621 9.63012 43.4188 3.17336 38.2738 0.840522C33.1287 -1.49232 27.2302 1.18216 25.099 6.81413C22.9679 12.4461 25.4111 18.9029 30.5562 21.2357C35.7012 23.5685 41.5998 20.8941 43.7309 15.2621Z" fill="#010101"/>
<path d="M35.7014 11.0383C35.7014 11.8188 35.1233 12.4517 34.4103 12.4517C33.6973 12.4517 33.1191 11.8188 33.1191 11.0383C33.1191 10.2579 33.6973 9.625 34.4103 9.625C35.1233 9.625 35.7014 10.2579 35.7014 11.0383Z" fill="white"/>
<path d="M57.1116 11.0383C57.1116 11.8188 56.5334 12.4517 55.8204 12.4517C55.1075 12.4517 54.5293 11.8188 54.5293 11.0383C54.5293 10.2579 55.1075 9.625 55.8204 9.625C56.5334 9.625 57.1116 10.2579 57.1116 11.0383Z" fill="white"/>
<path d="M38.4443 19.2869C42.6047 16.8501 44.1728 11.1828 41.9466 6.62862C39.7205 2.07445 34.5432 0.35799 30.3827 2.7948C26.2223 5.23161 24.6542 10.8989 26.8804 15.4531C29.1065 20.0073 34.2838 21.7237 38.4443 19.2869Z" stroke="white" stroke-miterlimit="10"/>
<path d="M60.8164 18.6283C64.6444 15.6083 65.5111 9.7633 62.7523 5.573C59.9935 1.3827 54.6538 0.433922 50.8258 3.45384C46.9978 6.47375 46.131 12.3188 48.8898 16.5091C51.6487 20.6994 56.9883 21.6482 60.8164 18.6283Z" stroke="white" stroke-miterlimit="10"/>
<path d="M83.3474 32.2305H76.7988C76.4083 32.2305 76.0918 32.577 76.0918 33.0044V44.0487C76.0918 44.4761 76.4083 44.8226 76.7988 44.8226H83.3474C83.7378 44.8226 84.0543 44.4761 84.0543 44.0487V33.0044C84.0543 32.577 83.7378 32.2305 83.3474 32.2305Z" fill="#010101"/>
<path d="M84.9115 34.2891H84.8575C84.4141 34.2891 84.0547 34.6825 84.0547 35.1679V41.8837C84.0547 42.3691 84.4141 42.7625 84.8575 42.7625H84.9115C85.3549 42.7625 85.7143 42.3691 85.7143 41.8837V35.1679C85.7143 34.6825 85.3549 34.2891 84.9115 34.2891Z" fill="#010101"/>
<path d="M26.3508 30.5379C26.3508 31.3314 25.7636 31.9741 25.0387 31.9741C24.3137 31.9741 23.7266 31.3314 23.7266 30.5379C23.7266 29.7443 24.3137 29.1016 25.0387 29.1016C25.7636 29.1016 26.3508 29.7443 26.3508 30.5379Z" fill="#010101"/>
<path d="M26.3508 34.2918C26.3508 35.0853 25.7636 35.728 25.0387 35.728C24.3137 35.728 23.7266 35.0853 23.7266 34.2918C23.7266 33.4982 24.3137 32.8555 25.0387 32.8555C25.7636 32.8555 26.3508 33.4982 26.3508 34.2918Z" fill="#010101"/>
<path d="M26.3508 38.0418C26.3508 38.8353 25.7636 39.478 25.0387 39.478C24.3137 39.478 23.7266 38.8353 23.7266 38.0418C23.7266 37.2482 24.3137 36.6055 25.0387 36.6055C25.7636 36.6055 26.3508 37.2482 26.3508 38.0418Z" fill="#010101"/>
<path d="M45.0483 58.7092L23.1678 158.459C22.8203 160.04 21.3763 161.027 19.9564 160.653C18.5274 160.279 17.6587 158.682 18.0062 157.102L39.8867 57.3516L45.0483 58.7092Z" fill="#010101"/>
<path d="M49.3962 57.125L66.978 158.633C67.2566 160.239 66.3099 161.8 64.875 162.099C63.4311 162.397 62.0381 161.325 61.7595 159.718L44.1777 58.2104L49.3932 57.1283L49.3962 57.125Z" fill="#010101"/>
<path d="M78.6655 32.2031H78.1113V44.8215H78.6655V32.2031Z" fill="white"/>
<path d="M82.189 32.2031H81.6348V44.8215H82.189V32.2031Z" fill="white"/>
</g>
<defs>
<clipPath id="clip0_915_91617">
<rect width="96" height="58" fill="white"/>
</clipPath>
</defs>
</svg>
