<svg width="60" height="62" viewBox="0 0 60 62" fill="none" xmlns="http://www.w3.org/2000/svg">
<g id="ICON WORLD">
<path id="Vector" d="M2.8066 28.9868H0.954626C0.427401 28.9868 0 29.414 0 29.941V31.9733C0 32.5003 0.427401 32.9275 0.954626 32.9275H2.8066C3.33383 32.9275 3.76123 32.5003 3.76123 31.9733V29.941C3.76123 29.414 3.33383 28.9868 2.8066 28.9868Z" fill="#FF5C00"/>
<path id="Vector_2" d="M16.8663 28.9408H15.0143C14.4871 28.9408 14.0597 29.368 14.0597 29.895V31.9273C14.0597 32.4543 14.4871 32.8815 15.0143 32.8815H16.8663C17.3935 32.8815 17.8209 32.4543 17.8209 31.9273V29.895C17.8209 29.368 17.3935 28.9408 16.8663 28.9408Z" fill="#FF5C00"/>
<path id="Vector_3" d="M44.9857 28.9408H43.1337C42.6065 28.9408 42.1791 29.368 42.1791 29.895V31.9273C42.1791 32.4543 42.6065 32.8815 43.1337 32.8815H44.9857C45.5129 32.8815 45.9403 32.4543 45.9403 31.9273V29.895C45.9403 29.368 45.5129 28.9408 44.9857 28.9408Z" fill="#FF5C00"/>
<path id="Vector_4" d="M54.3588 47.6013H52.5068C51.9796 47.6013 51.5522 48.0285 51.5522 48.5554V50.5878C51.5522 51.1147 51.9796 51.5419 52.5068 51.5419H54.3588C54.886 51.5419 55.3134 51.1147 55.3134 50.5878V48.5554C55.3134 48.0285 54.886 47.6013 54.3588 47.6013Z" fill="#FF5C00"/>
<path id="Vector_5" d="M40.2991 47.6013H38.4471C37.9199 47.6013 37.4925 48.0285 37.4925 48.5554V50.5878C37.4925 51.1147 37.9199 51.5419 38.4471 51.5419H40.2991C40.8264 51.5419 41.2538 51.1147 41.2538 50.5878V48.5554C41.2538 48.0285 40.8264 47.6013 40.2991 47.6013Z" fill="#FF5C00"/>
<path id="Vector_6" d="M40.2991 10.2406H38.4471C37.9199 10.2406 37.4925 10.6678 37.4925 11.1947V13.2271C37.4925 13.754 37.9199 14.1812 38.4471 14.1812H40.2991C40.8264 14.1812 41.2538 13.754 41.2538 13.2271V11.1947C41.2538 10.6678 40.8264 10.2406 40.2991 10.2406Z" fill="#FF5C00"/>
<path id="Vector_7" d="M54.3295 10.1549H52.4775C51.9503 10.1549 51.5229 10.5821 51.5229 11.109V13.1414C51.5229 13.6683 51.9503 14.0955 52.4775 14.0955H54.3295C54.8567 14.0955 55.2841 13.6683 55.2841 13.1414V11.109C55.2841 10.5821 54.8567 10.1549 54.3295 10.1549Z" fill="#FF5C00"/>
<path id="Vector_8" d="M59.0454 28.9868H57.1934C56.6662 28.9868 56.2388 29.414 56.2388 29.941V31.9733C56.2388 32.5003 56.6662 32.9275 57.1934 32.9275H59.0454C59.5726 32.9275 60 32.5003 60 31.9733V29.941C60 29.414 59.5726 28.9868 59.0454 28.9868Z" fill="#FF5C00"/>
<path id="Vector_9" d="M7.46389 47.6013H5.61191C5.08469 47.6013 4.65729 48.0285 4.65729 48.5554V50.5878C4.65729 51.1147 5.08469 51.5419 5.61191 51.5419H7.46389C7.99112 51.5419 8.41852 51.1147 8.41852 50.5878V48.5554C8.41852 48.0285 7.99112 47.6013 7.46389 47.6013Z" fill="#FF5C00"/>
<path id="Vector_10" d="M21.5236 47.6013H19.6716C19.1444 47.6013 18.717 48.0285 18.717 48.5554V50.5878C18.717 51.1147 19.1444 51.5419 19.6716 51.5419H21.5236C22.0508 51.5419 22.4782 51.1147 22.4782 50.5878V48.5554C22.4782 48.0285 22.0508 47.6013 21.5236 47.6013Z" fill="#FF5C00"/>
<path id="Vector_11" d="M21.5236 10.1088H19.6716C19.1444 10.1088 18.717 10.5359 18.717 11.0629V13.0953C18.717 13.6222 19.1444 14.0494 19.6716 14.0494H21.5236C22.0508 14.0494 22.4782 13.6222 22.4782 13.0953V11.0629C22.4782 10.5359 22.0508 10.1088 21.5236 10.1088Z" fill="#FF5C00"/>
<path id="Vector_12" d="M7.46389 10.1088H5.61191C5.08469 10.1088 4.65729 10.5359 4.65729 11.0629V13.0953C4.65729 13.6222 5.08469 14.0494 5.61191 14.0494H7.46389C7.99112 14.0494 8.41852 13.6222 8.41852 13.0953V11.0629C8.41852 10.5359 7.99112 10.1088 7.46389 10.1088Z" fill="#FF5C00"/>
<path id="Vector_13" d="M26.2394 57.1062H24.3875C23.8602 57.1062 23.4328 57.5334 23.4328 58.0604V60.0927C23.4328 60.6197 23.8602 61.0469 24.3875 61.0469H26.2394C26.7667 61.0469 27.1941 60.6197 27.1941 60.0927V58.0604C27.1941 57.5334 26.7667 57.1062 26.2394 57.1062Z" fill="#FF5C00"/>
<path id="Vector_14" d="M21.5528 57.1062H19.7009C19.1736 57.1062 18.7462 57.5334 18.7462 58.0604V60.0927C18.7462 60.6197 19.1736 61.0469 19.7009 61.0469H21.5528C22.0801 61.0469 22.5075 60.6197 22.5075 60.0927V58.0604C22.5075 57.5334 22.0801 57.1062 21.5528 57.1062Z" fill="#FF5C00"/>
<path id="Vector_15" d="M35.6125 57.1062H33.7606C33.2333 57.1062 32.8059 57.5334 32.8059 58.0604V60.0927C32.8059 60.6197 33.2333 61.0469 33.7606 61.0469H35.6125C36.1398 61.0469 36.5672 60.6197 36.5672 60.0927V58.0604C36.5672 57.5334 36.1398 57.1062 35.6125 57.1062Z" fill="#FF5C00"/>
<path id="Vector_16" d="M40.2991 57.1062H38.4471C37.9199 57.1062 37.4925 57.5334 37.4925 58.0604V60.0927C37.4925 60.6197 37.9199 61.0469 38.4471 61.0469H40.2991C40.8264 61.0469 41.2538 60.6197 41.2538 60.0927V58.0604C41.2538 57.5334 40.8264 57.1062 40.2991 57.1062Z" fill="#FF5C00"/>
<path id="Vector_17" d="M26.2394 0.867443H24.3875C23.8602 0.867443 23.4328 1.29463 23.4328 1.82159V3.85394C23.4328 4.3809 23.8602 4.80809 24.3875 4.80809H26.2394C26.7667 4.80809 27.1941 4.3809 27.1941 3.85394V1.82159C27.1941 1.29463 26.7667 0.867443 26.2394 0.867443Z" fill="#FF5C00"/>
<path id="Vector_18" d="M44.9857 38.36H43.1337C42.6065 38.36 42.1791 38.7871 42.1791 39.3141V41.3465C42.1791 41.8734 42.6065 42.3006 43.1337 42.3006H44.9857C45.5129 42.3006 45.9403 41.8734 45.9403 41.3465V39.3141C45.9403 38.7871 45.5129 38.36 44.9857 38.36Z" fill="#FF5C00"/>
<path id="Vector_19" d="M44.9857 19.6137H43.1337C42.6065 19.6137 42.1791 20.0409 42.1791 20.5679V22.6002C42.1791 23.1272 42.6065 23.5543 43.1337 23.5543H44.9857C45.5129 23.5543 45.9403 23.1272 45.9403 22.6002V20.5679C45.9403 20.0409 45.5129 19.6137 44.9857 19.6137Z" fill="#FF5C00"/>
<path id="Vector_20" d="M21.5528 0.867443H19.7009C19.1736 0.867443 18.7462 1.29463 18.7462 1.82159V3.85394C18.7462 4.3809 19.1736 4.80809 19.7009 4.80809H21.5528C22.0801 4.80809 22.5075 4.3809 22.5075 3.85394V1.82159C22.5075 1.29463 22.0801 0.867443 21.5528 0.867443Z" fill="#FF5C00"/>
<path id="Vector_21" d="M35.6125 0.867443H33.7606C33.2333 0.867443 32.8059 1.29463 32.8059 1.82159V3.85394C32.8059 4.3809 33.2333 4.80809 33.7606 4.80809H35.6125C36.1398 4.80809 36.5672 4.3809 36.5672 3.85394V1.82159C36.5672 1.29463 36.1398 0.867443 35.6125 0.867443Z" fill="#FF5C00"/>
<path id="Vector_22" d="M2.8066 33.7194H0.954626C0.427401 33.7194 0 34.1466 0 34.6735V36.7059C0 37.2328 0.427401 37.66 0.954626 37.66H2.8066C3.33383 37.66 3.76123 37.2328 3.76123 36.7059V34.6735C3.76123 34.1466 3.33383 33.7194 2.8066 33.7194Z" fill="#FF5C00"/>
<path id="Vector_23" d="M16.8663 33.6734H15.0143C14.4871 33.6734 14.0597 34.1006 14.0597 34.6275V36.6599C14.0597 37.1868 14.4871 37.614 15.0143 37.614H16.8663C17.3935 37.614 17.8209 37.1868 17.8209 36.6599V34.6275C17.8209 34.1006 17.3935 33.6734 16.8663 33.6734Z" fill="#FF5C00"/>
<path id="Vector_24" d="M44.9857 33.6734H43.1337C42.6065 33.6734 42.1791 34.1006 42.1791 34.6275V36.6599C42.1791 37.1868 42.6065 37.614 43.1337 37.614H44.9857C45.5129 37.614 45.9403 37.1868 45.9403 36.6599V34.6275C45.9403 34.1006 45.5129 33.6734 44.9857 33.6734Z" fill="#FF5C00"/>
<path id="Vector_25" d="M49.6722 52.3338H47.8203C47.293 52.3338 46.8656 52.761 46.8656 53.288V55.3203C46.8656 55.8473 47.293 56.2745 47.8203 56.2745H49.6722C50.1995 56.2745 50.6269 55.8473 50.6269 55.3203V53.288C50.6269 52.761 50.1995 52.3338 49.6722 52.3338Z" fill="#FF5C00"/>
<path id="Vector_26" d="M35.6125 52.3338H33.7606C33.2333 52.3338 32.8059 52.761 32.8059 53.288V55.3203C32.8059 55.8473 33.2333 56.2745 33.7606 56.2745H35.6125C36.1398 56.2745 36.5672 55.8473 36.5672 55.3203V53.288C36.5672 52.761 36.1398 52.3338 35.6125 52.3338Z" fill="#FF5C00"/>
<path id="Vector_27" d="M59.0454 33.7194H57.1934C56.6662 33.7194 56.2388 34.1466 56.2388 34.6735V36.7059C56.2388 37.2328 56.6662 37.66 57.1934 37.66H59.0454C59.5726 37.66 60 37.2328 60 36.7059V34.6735C60 34.1466 59.5726 33.7194 59.0454 33.7194Z" fill="#FF5C00"/>
<path id="Vector_28" d="M2.8066 24.3463H0.954626C0.427401 24.3463 0 24.7734 0 25.3004V27.3328C0 27.8597 0.427401 28.2869 0.954626 28.2869H2.8066C3.33383 28.2869 3.76123 27.8597 3.76123 27.3328V25.3004C3.76123 24.7734 3.33383 24.3463 2.8066 24.3463Z" fill="#FF5C00"/>
<path id="Vector_29" d="M16.8663 24.3003H15.0143C14.4871 24.3003 14.0597 24.7275 14.0597 25.2544V27.2868C14.0597 27.8137 14.4871 28.2409 15.0143 28.2409H16.8663C17.3935 28.2409 17.8209 27.8137 17.8209 27.2868V25.2544C17.8209 24.7275 17.3935 24.3003 16.8663 24.3003Z" fill="#FF5C00"/>
<path id="Vector_30" d="M44.9857 24.3003H43.1337C42.6065 24.3003 42.1791 24.7275 42.1791 25.2544V27.2868C42.1791 27.8137 42.6065 28.2409 43.1337 28.2409H44.9857C45.5129 28.2409 45.9403 27.8137 45.9403 27.2868V25.2544C45.9403 24.7275 45.5129 24.3003 44.9857 24.3003Z" fill="#FF5C00"/>
<path id="Vector_31" d="M35.6125 5.6H33.7606C33.2333 5.6 32.8059 6.02719 32.8059 6.55415V8.5865C32.8059 9.11346 33.2333 9.54065 33.7606 9.54065H35.6125C36.1398 9.54065 36.5672 9.11346 36.5672 8.5865V6.55415C36.5672 6.02719 36.1398 5.6 35.6125 5.6Z" fill="#FF5C00"/>
<path id="Vector_32" d="M49.643 5.51431H47.791C47.2638 5.51431 46.8364 5.94149 46.8364 6.46846V8.5008C46.8364 9.02776 47.2638 9.45495 47.791 9.45495H49.643C50.1702 9.45495 50.5976 9.02776 50.5976 8.5008V6.46846C50.5976 5.94149 50.1702 5.51431 49.643 5.51431Z" fill="#FF5C00"/>
<path id="Vector_33" d="M59.0454 24.3463H57.1934C56.6662 24.3463 56.2388 24.7734 56.2388 25.3004V27.3328C56.2388 27.8597 56.6662 28.2869 57.1934 28.2869H59.0454C59.5726 28.2869 60 27.8597 60 27.3328V25.3004C60 24.7734 59.5726 24.3463 59.0454 24.3463Z" fill="#FF5C00"/>
<path id="Vector_34" d="M30.9553 29.0725H29.1033C28.5761 29.0725 28.1487 29.4997 28.1487 30.0267V32.059C28.1487 32.586 28.5761 33.0132 29.1033 33.0132H30.9553C31.4825 33.0132 31.9099 32.586 31.9099 32.059V30.0267C31.9099 29.4997 31.4825 29.0725 30.9553 29.0725Z" fill="#FF5C00"/>
<path id="Vector_35" d="M30.9553 47.8188H29.1033C28.5761 47.8188 28.1487 48.246 28.1487 48.7729V50.8053C28.1487 51.3322 28.5761 51.7594 29.1033 51.7594H30.9553C31.4825 51.7594 31.9099 51.3322 31.9099 50.8053V48.7729C31.9099 48.246 31.4825 47.8188 30.9553 47.8188Z" fill="#FF5C00"/>
<path id="Vector_36" d="M30.9553 10.3263H29.1033C28.5761 10.3263 28.1487 10.7535 28.1487 11.2804V13.3128C28.1487 13.8397 28.5761 14.2669 29.1033 14.2669H30.9553C31.4825 14.2669 31.9099 13.8397 31.9099 13.3128V11.2804C31.9099 10.7535 31.4825 10.3263 30.9553 10.3263Z" fill="#FF5C00"/>
<path id="Vector_37" d="M2.8066 38.36H0.954626C0.427401 38.36 0 38.7871 0 39.3141V41.3465C0 41.8734 0.427401 42.3006 0.954626 42.3006H2.8066C3.33383 42.3006 3.76123 41.8734 3.76123 41.3465V39.3141C3.76123 38.7871 3.33383 38.36 2.8066 38.36Z" fill="#FF5C00"/>
<path id="Vector_38" d="M2.8066 43.0465H0.954626C0.427401 43.0465 0 43.4737 0 44.0007V46.033C0 46.56 0.427401 46.9872 0.954626 46.9872H2.8066C3.33383 46.9872 3.76123 46.56 3.76123 46.033V44.0007C3.76123 43.4737 3.33383 43.0465 2.8066 43.0465Z" fill="#FF5C00"/>
<path id="Vector_39" d="M2.8066 14.9271H0.954626C0.427401 14.9271 0 15.3543 0 15.8813V17.9136C0 18.4406 0.427401 18.8678 0.954626 18.8678H2.8066C3.33383 18.8678 3.76123 18.4406 3.76123 17.9136V15.8813C3.76123 15.3543 3.33383 14.9271 2.8066 14.9271Z" fill="#FF5C00"/>
<path id="Vector_40" d="M59.0454 14.9271H57.1934C56.6662 14.9271 56.2388 15.3543 56.2388 15.8813V17.9136C56.2388 18.4406 56.6662 18.8678 57.1934 18.8678H59.0454C59.5726 18.8678 60 18.4406 60 17.9136V15.8813C60 15.3543 59.5726 14.9271 59.0454 14.9271Z" fill="#FF5C00"/>
<path id="Vector_41" d="M59.0454 43.0465H57.1934C56.6662 43.0465 56.2388 43.4737 56.2388 44.0007V46.033C56.2388 46.56 56.6662 46.9872 57.1934 46.9872H59.0454C59.5726 46.9872 60 46.56 60 46.033V44.0007C60 43.4737 59.5726 43.0465 59.0454 43.0465Z" fill="#FF5C00"/>
<path id="Vector_42" d="M7.49316 38.36H5.64118C5.11395 38.36 4.68655 38.7871 4.68655 39.3141V41.3465C4.68655 41.8734 5.11395 42.3006 5.64118 42.3006H7.49316C8.02038 42.3006 8.44778 41.8734 8.44778 41.3465V39.3141C8.44778 38.7871 8.02038 38.36 7.49316 38.36Z" fill="#FF5C00"/>
<path id="Vector_43" d="M7.49316 19.6137H5.64118C5.11395 19.6137 4.68655 20.0409 4.68655 20.5679V22.6002C4.68655 23.1272 5.11395 23.5543 5.64118 23.5543H7.49316C8.02038 23.5543 8.44778 23.1272 8.44778 22.6002V20.5679C8.44778 20.0409 8.02038 19.6137 7.49316 19.6137Z" fill="#FF5C00"/>
<path id="Vector_44" d="M21.5528 38.36H19.7009C19.1736 38.36 18.7462 38.7871 18.7462 39.3141V41.3465C18.7462 41.8734 19.1736 42.3006 19.7009 42.3006H21.5528C22.0801 42.3006 22.5075 41.8734 22.5075 41.3465V39.3141C22.5075 38.7871 22.0801 38.36 21.5528 38.36Z" fill="#FF5C00"/>
<path id="Vector_45" d="M21.5528 19.6137H19.7009C19.1736 19.6137 18.7462 20.0409 18.7462 20.5679V22.6002C18.7462 23.1272 19.1736 23.5543 19.7009 23.5543H21.5528C22.0801 23.5543 22.5075 23.1272 22.5075 22.6002V20.5679C22.5075 20.0409 22.0801 19.6137 21.5528 19.6137Z" fill="#FF5C00"/>
<path id="Vector_46" d="M35.6125 38.36H33.7606C33.2333 38.36 32.8059 38.7871 32.8059 39.3141V41.3465C32.8059 41.8734 33.2333 42.3006 33.7606 42.3006H35.6125C36.1398 42.3006 36.5672 41.8734 36.5672 41.3465V39.3141C36.5672 38.7871 36.1398 38.36 35.6125 38.36Z" fill="#FF5C00"/>
<path id="Vector_47" d="M35.6125 19.6137H33.7606C33.2333 19.6137 32.8059 20.0409 32.8059 20.5679V22.6002C32.8059 23.1272 33.2333 23.5543 33.7606 23.5543H35.6125C36.1398 23.5543 36.5672 23.1272 36.5672 22.6002V20.5679C36.5672 20.0409 36.1398 19.6137 35.6125 19.6137Z" fill="#FF5C00"/>
<path id="Vector_48" d="M49.6722 38.36H47.8203C47.293 38.36 46.8656 38.7871 46.8656 39.3141V41.3465C46.8656 41.8734 47.293 42.3006 47.8203 42.3006H49.6722C50.1995 42.3006 50.6269 41.8734 50.6269 41.3465V39.3141C50.6269 38.7871 50.1995 38.36 49.6722 38.36Z" fill="#FF5C00"/>
<path id="Vector_49" d="M49.6722 19.6137H47.8203C47.293 19.6137 46.8656 20.0409 46.8656 20.5679V22.6002C46.8656 23.1272 47.293 23.5543 47.8203 23.5543H49.6722C50.1995 23.5543 50.6269 23.1272 50.6269 22.6002V20.5679C50.6269 20.0409 50.1995 19.6137 49.6722 19.6137Z" fill="#FF5C00"/>
<path id="Vector_50" d="M12.1797 38.36H10.3278C9.80054 38.36 9.37314 38.7871 9.37314 39.3141V41.3465C9.37314 41.8734 9.80054 42.3006 10.3278 42.3006H12.1797C12.707 42.3006 13.1344 41.8734 13.1344 41.3465V39.3141C13.1344 38.7871 12.707 38.36 12.1797 38.36Z" fill="#FF5C00"/>
<path id="Vector_51" d="M12.1797 19.6137H10.3278C9.80054 19.6137 9.37314 20.0409 9.37314 20.5679V22.6002C9.37314 23.1272 9.80054 23.5543 10.3278 23.5543H12.1797C12.707 23.5543 13.1344 23.1272 13.1344 22.6002V20.5679C13.1344 20.0409 12.707 19.6137 12.1797 19.6137Z" fill="#FF5C00"/>
<path id="Vector_52" d="M26.2394 38.36H24.3875C23.8602 38.36 23.4328 38.7871 23.4328 39.3141V41.3465C23.4328 41.8734 23.8602 42.3006 24.3875 42.3006H26.2394C26.7667 42.3006 27.1941 41.8734 27.1941 41.3465V39.3141C27.1941 38.7871 26.7667 38.36 26.2394 38.36Z" fill="#FF5C00"/>
<path id="Vector_53" d="M26.2394 19.6137H24.3875C23.8602 19.6137 23.4328 20.0409 23.4328 20.5679V22.6002C23.4328 23.1272 23.8602 23.5543 24.3875 23.5543H26.2394C26.7667 23.5543 27.1941 23.1272 27.1941 22.6002V20.5679C27.1941 20.0409 26.7667 19.6137 26.2394 19.6137Z" fill="#FF5C00"/>
<path id="Vector_54" d="M40.2991 38.36H38.4471C37.9199 38.36 37.4925 38.7871 37.4925 39.3141V41.3465C37.4925 41.8734 37.9199 42.3006 38.4471 42.3006H40.2991C40.8264 42.3006 41.2538 41.8734 41.2538 41.3465V39.3141C41.2538 38.7871 40.8264 38.36 40.2991 38.36Z" fill="#FF5C00"/>
<path id="Vector_55" d="M40.2991 19.6137H38.4471C37.9199 19.6137 37.4925 20.0409 37.4925 20.5679V22.6002C37.4925 23.1272 37.9199 23.5543 38.4471 23.5543H40.2991C40.8264 23.5543 41.2538 23.1272 41.2538 22.6002V20.5679C41.2538 20.0409 40.8264 19.6137 40.2991 19.6137Z" fill="#FF5C00"/>
<path id="Vector_56" d="M54.3588 38.36H52.5068C51.9796 38.36 51.5522 38.7871 51.5522 39.3141V41.3465C51.5522 41.8734 51.9796 42.3006 52.5068 42.3006H54.3588C54.886 42.3006 55.3134 41.8734 55.3134 41.3465V39.3141C55.3134 38.7871 54.886 38.36 54.3588 38.36Z" fill="#FF5C00"/>
<path id="Vector_57" d="M54.3588 19.6137H52.5068C51.9796 19.6137 51.5522 20.0409 51.5522 20.5679V22.6002C51.5522 23.1272 51.9796 23.5543 52.5068 23.5543H54.3588C54.886 23.5543 55.3134 23.1272 55.3134 22.6002V20.5679C55.3134 20.0409 54.886 19.6137 54.3588 19.6137Z" fill="#FF5C00"/>
<path id="Vector_58" d="M30.9553 38.4457H29.1033C28.5761 38.4457 28.1487 38.8728 28.1487 39.3998V41.4321C28.1487 41.9591 28.5761 42.3863 29.1033 42.3863H30.9553C31.4825 42.3863 31.9099 41.9591 31.9099 41.4321V39.3998C31.9099 38.8728 31.4825 38.4457 30.9553 38.4457Z" fill="#FF5C00"/>
<path id="Vector_59" d="M30.9553 57.1919H29.1033C28.5761 57.1919 28.1487 57.6191 28.1487 58.1461V60.1784C28.1487 60.7054 28.5761 61.1326 29.1033 61.1326H30.9553C31.4825 61.1326 31.9099 60.7054 31.9099 60.1784V58.1461C31.9099 57.6191 31.4825 57.1919 30.9553 57.1919Z" fill="#FF5C00"/>
<path id="Vector_60" d="M2.8066 19.6137H0.954626C0.427401 19.6137 0 20.0409 0 20.5679V22.6002C0 23.1272 0.427401 23.5543 0.954626 23.5543H2.8066C3.33383 23.5543 3.76123 23.1272 3.76123 22.6002V20.5679C3.76123 20.0409 3.33383 19.6137 2.8066 19.6137Z" fill="#FF5C00"/>
<path id="Vector_61" d="M30.9553 19.6994H29.1033C28.5761 19.6994 28.1487 20.1266 28.1487 20.6536V22.6859C28.1487 23.2129 28.5761 23.64 29.1033 23.64H30.9553C31.4825 23.64 31.9099 23.2129 31.9099 22.6859V20.6536C31.9099 20.1266 31.4825 19.6994 30.9553 19.6994Z" fill="#FF5C00"/>
<path id="Vector_62" d="M59.0454 19.6137H57.1934C56.6662 19.6137 56.2388 20.0409 56.2388 20.5679V22.6002C56.2388 23.1272 56.6662 23.5543 57.1934 23.5543H59.0454C59.5726 23.5543 60 23.1272 60 22.6002V20.5679C60 20.0409 59.5726 19.6137 59.0454 19.6137Z" fill="#FF5C00"/>
<path id="Vector_63" d="M59.0454 38.36H57.1934C56.6662 38.36 56.2388 38.7871 56.2388 39.3141V41.3465C56.2388 41.8734 56.6662 42.3006 57.1934 42.3006H59.0454C59.5726 42.3006 60 41.8734 60 41.3465V39.3141C60 38.7871 59.5726 38.36 59.0454 38.36Z" fill="#FF5C00"/>
<path id="Vector_64" d="M30.9553 0.953142H29.1033C28.5761 0.953142 28.1487 1.38033 28.1487 1.90729V3.93964C28.1487 4.4666 28.5761 4.89379 29.1033 4.89379H30.9553C31.4825 4.89379 31.9099 4.4666 31.9099 3.93964V1.90729C31.9099 1.38033 31.4825 0.953142 30.9553 0.953142Z" fill="#FF5C00"/>
<path id="Vector_65" d="M16.8956 38.4457H15.0436C14.5164 38.4457 14.089 38.8728 14.089 39.3998V41.4321C14.089 41.9591 14.5164 42.3863 15.0436 42.3863H16.8956C17.4228 42.3863 17.8502 41.9591 17.8502 41.4321V39.3998C17.8502 38.8728 17.4228 38.4457 16.8956 38.4457Z" fill="#FF5C00"/>
<path id="Vector_66" d="M16.8956 19.6994H15.0436C14.5164 19.6994 14.089 20.1266 14.089 20.6536V22.6859C14.089 23.2129 14.5164 23.64 15.0436 23.64H16.8956C17.4228 23.64 17.8502 23.2129 17.8502 22.6859V20.6536C17.8502 20.1266 17.4228 19.6994 16.8956 19.6994Z" fill="#FF5C00"/>
<path id="Vector_67" d="M40.3284 0.953142H38.4764C37.9492 0.953142 37.5218 1.38033 37.5218 1.90729V3.93964C37.5218 4.4666 37.9492 4.89379 38.4764 4.89379H40.3284C40.8556 4.89379 41.283 4.4666 41.283 3.93964V1.90729C41.283 1.38033 40.8556 0.953142 40.3284 0.953142Z" fill="#FF5C00"/>
<path id="Vector_68" d="M30.9553 33.8052H29.1033C28.5761 33.8052 28.1487 34.2324 28.1487 34.7594V36.7917C28.1487 37.3187 28.5761 37.7458 29.1033 37.7458H30.9553C31.4825 37.7458 31.9099 37.3187 31.9099 36.7917V34.7594C31.9099 34.2324 31.4825 33.8052 30.9553 33.8052Z" fill="#FF5C00"/>
<path id="Vector_69" d="M30.9553 52.5515H29.1033C28.5761 52.5515 28.1487 52.9786 28.1487 53.5056V55.538C28.1487 56.0649 28.5761 56.4921 29.1033 56.4921H30.9553C31.4825 56.4921 31.9099 56.0649 31.9099 55.538V53.5056C31.9099 52.9786 31.4825 52.5515 30.9553 52.5515Z" fill="#FF5C00"/>
<path id="Vector_70" d="M16.8663 14.9271H15.0143C14.4871 14.9271 14.0597 15.3543 14.0597 15.8813V17.9136C14.0597 18.4406 14.4871 18.8678 15.0143 18.8678H16.8663C17.3935 18.8678 17.8209 18.4406 17.8209 17.9136V15.8813C17.8209 15.3543 17.3935 14.9271 16.8663 14.9271Z" fill="#FF5C00"/>
<path id="Vector_71" d="M30.9553 15.0589H29.1033C28.5761 15.0589 28.1487 15.4861 28.1487 16.0131V18.0454C28.1487 18.5724 28.5761 18.9996 29.1033 18.9996H30.9553C31.4825 18.9996 31.9099 18.5724 31.9099 18.0454V16.0131C31.9099 15.4861 31.4825 15.0589 30.9553 15.0589Z" fill="#FF5C00"/>
<path id="Vector_72" d="M45.015 15.0589H43.163C42.6358 15.0589 42.2084 15.4861 42.2084 16.0131V18.0454C42.2084 18.5724 42.6358 18.9996 43.163 18.9996H45.015C45.5422 18.9996 45.9696 18.5724 45.9696 18.0454V16.0131C45.9696 15.4861 45.5422 15.0589 45.015 15.0589Z" fill="#FF5C00"/>
<path id="Vector_73" d="M12.1797 52.4197H10.3278C9.80054 52.4197 9.37314 52.8468 9.37314 53.3738V55.4061C9.37314 55.9331 9.80054 56.3603 10.3278 56.3603H12.1797C12.707 56.3603 13.1344 55.9331 13.1344 55.4061V53.3738C13.1344 52.8468 12.707 52.4197 12.1797 52.4197Z" fill="#FF5C00"/>
<path id="Vector_74" d="M26.2394 52.4197H24.3875C23.8602 52.4197 23.4328 52.8468 23.4328 53.3738V55.4061C23.4328 55.9331 23.8602 56.3603 24.3875 56.3603H26.2394C26.7667 56.3603 27.1941 55.9331 27.1941 55.4061V53.3738C27.1941 52.8468 26.7667 52.4197 26.2394 52.4197Z" fill="#FF5C00"/>
<path id="Vector_75" d="M16.8663 43.0465H15.0143C14.4871 43.0465 14.0597 43.4737 14.0597 44.0007V46.033C14.0597 46.56 14.4871 46.9872 15.0143 46.9872H16.8663C17.3935 46.9872 17.8209 46.56 17.8209 46.033V44.0007C17.8209 43.4737 17.3935 43.0465 16.8663 43.0465Z" fill="#FF5C00"/>
<path id="Vector_76" d="M30.9553 43.1783H29.1033C28.5761 43.1783 28.1487 43.6055 28.1487 44.1325V46.1648C28.1487 46.6918 28.5761 47.119 29.1033 47.119H30.9553C31.4825 47.119 31.9099 46.6918 31.9099 46.1648V44.1325C31.9099 43.6055 31.4825 43.1783 30.9553 43.1783Z" fill="#FF5C00"/>
<path id="Vector_77" d="M45.015 43.0465H43.163C42.6358 43.0465 42.2084 43.4737 42.2084 44.0007V46.033C42.2084 46.56 42.6358 46.9872 43.163 46.9872H45.015C45.5422 46.9872 45.9696 46.56 45.9696 46.033V44.0007C45.9696 43.4737 45.5422 43.0465 45.015 43.0465Z" fill="#FF5C00"/>
<path id="Vector_78" d="M30.9553 24.4321H29.1033C28.5761 24.4321 28.1487 24.8593 28.1487 25.3862V27.4186C28.1487 27.9455 28.5761 28.3727 29.1033 28.3727H30.9553C31.4825 28.3727 31.9099 27.9455 31.9099 27.4186V25.3862C31.9099 24.8593 31.4825 24.4321 30.9553 24.4321Z" fill="#FF5C00"/>
<path id="Vector_79" d="M30.9553 5.68582H29.1033C28.5761 5.68582 28.1487 6.11301 28.1487 6.63997V8.67231C28.1487 9.19927 28.5761 9.62646 29.1033 9.62646H30.9553C31.4825 9.62646 31.9099 9.19927 31.9099 8.67231V6.63997C31.9099 6.11301 31.4825 5.68582 30.9553 5.68582Z" fill="#FF5C00"/>
<path id="Vector_80" d="M26.2394 5.55401H24.3875C23.8602 5.55401 23.4328 5.9812 23.4328 6.50816V8.5405C23.4328 9.06746 23.8602 9.49465 24.3875 9.49465H26.2394C26.7667 9.49465 27.1941 9.06746 27.1941 8.5405V6.50816C27.1941 5.9812 26.7667 5.55401 26.2394 5.55401Z" fill="#FF5C00"/>
<path id="Vector_81" d="M12.1797 5.55401H10.3278C9.80054 5.55401 9.37314 5.9812 9.37314 6.50816V8.5405C9.37314 9.06746 9.80054 9.49465 10.3278 9.49465H12.1797C12.707 9.49465 13.1344 9.06746 13.1344 8.5405V6.50816C13.1344 5.9812 12.707 5.55401 12.1797 5.55401Z" fill="#FF5C00"/>
</g>
</svg>
