<svg width="844" height="582" viewBox="0 0 844 582" fill="none" xmlns="http://www.w3.org/2000/svg">
<g clip-path="url(#clip0_1534_74059)">
<path d="M192.43 581.029C298.706 581.029 384.86 565.641 384.86 546.659C384.86 527.677 298.706 512.289 192.43 512.289C86.1538 512.289 0 527.677 0 546.659C0 565.641 86.1538 581.029 192.43 581.029Z" fill="#4F3A2C"/>
<path opacity="0.39" d="M727.481 208.22C791.457 208.22 843.321 161.608 843.321 104.11C843.321 46.6116 791.457 0 727.481 0C663.504 0 611.641 46.6116 611.641 104.11C611.641 161.608 663.504 208.22 727.481 208.22Z" fill="#FFF8C6"/>
<path opacity="0.39" d="M843.311 104.11C843.311 46.61 791.451 0 727.481 0C699.761 0 674.331 8.75 654.391 23.34L654.361 23.36C647.091 28.68 640.561 34.78 634.911 41.52C499.491 167.92 364.071 294.32 228.641 420.72C233.851 430.58 239.061 440.45 244.271 450.31C415.511 368.4 586.751 286.48 757.991 204.57C774.991 200.41 790.441 192.86 803.371 182.77C827.831 163.68 843.301 135.52 843.301 104.12L843.311 104.11Z" fill="#FFF8C6"/>
<path d="M82.613 413.93L88.963 400.81C88.963 400.81 102.903 376.53 116.163 363.91L123.653 368.15C123.653 368.15 99.623 395.17 94.383 404.42L86.903 417.62C86.903 417.62 72.573 445.28 68.673 459.79L66.293 459.88C66.293 459.88 74.983 427.41 82.623 413.93H82.613Z" fill="#F39200"/>
<path d="M208.223 472.86C209.693 473.69 210.202 475.55 209.372 477.02L208.372 478.79C207.542 480.26 205.673 480.77 204.213 479.94L91.8725 416.29C91.8725 416.29 91.8325 416.3 91.8125 416.31L95.9225 409.23L208.232 472.87L208.223 472.86Z" fill="#725741"/>
<path d="M95.8913 409.21L95.9212 409.23L91.8112 416.31C90.9912 416.64 90.0513 416.61 89.2213 416.16L89.0713 416.42L89.0312 416.44L94.4212 407.01C95.2512 407.5 95.7612 408.32 95.8812 409.21H95.8913Z" fill="#6F6966"/>
<path d="M94.3238 404.471L95.0138 405.941L94.4138 407.001L94.4338 407.011L89.0338 416.441L86.8438 417.671L94.3238 404.471Z" fill="#959290"/>
<path d="M88.9047 400.859L82.5547 413.979L81.6847 411.889L81.6147 411.849C81.6147 411.849 81.5747 411.819 81.5547 411.809L87.3047 401.539L88.9147 400.869L88.9047 400.859Z" fill="#959290"/>
<path d="M75.4641 403.48L76.4641 401.71C77.2941 400.24 79.1541 399.73 80.6241 400.56L84.0741 402.51L79.9941 409.55L76.6141 407.64C75.1441 406.81 74.6341 404.95 75.4641 403.48Z" fill="#725741"/>
<path d="M84.0922 402.529C84.8922 402.189 85.8222 402.189 86.6522 402.609L87.2522 401.549L87.2922 401.529L81.5422 411.799C80.7222 411.309 80.2122 410.489 80.0822 409.609L79.9922 409.559L84.0722 402.519H84.0922V402.529Z" fill="#6F6966"/>
<path d="M210.444 443.114L193.712 451.925C190.941 453.384 189.877 456.811 191.335 459.579C192.793 462.347 196.22 463.409 198.991 461.95L215.723 453.139C218.494 451.68 219.558 448.253 218.101 445.485C216.643 442.716 213.215 441.655 210.444 443.114Z" fill="#3C3C3B"/>
<path d="M215.09 440.83L217.66 445.71L220.22 450.58L243.12 452.54L234.77 436.69L226.43 420.85L215.09 440.83Z" fill="#3C3C3B"/>
<path d="M213.281 441.251L211.573 442.151C210.713 442.604 210.383 443.668 210.836 444.528L214.782 452.022C215.235 452.883 216.299 453.213 217.159 452.76L218.867 451.86C219.727 451.408 220.057 450.343 219.604 449.483L215.658 441.989C215.205 441.129 214.141 440.799 213.281 441.251Z" fill="#1D1D1B"/>
<path d="M228.622 420.725C228.321 420.153 227.616 419.933 227.046 420.233C226.477 420.532 226.26 421.239 226.561 421.811L242.411 451.912C242.713 452.484 243.418 452.705 243.987 452.405C244.557 452.105 244.774 451.399 244.473 450.827L228.622 420.725Z" fill="#1D1D1B"/>
<path d="M170.821 546.661C172.841 546.661 169.731 540.201 169.171 539.501C167.011 536.791 163.781 534.831 160.301 534.491C158.011 534.271 155.611 534.811 153.331 534.991C149.681 535.271 143.561 535.221 147.131 530.111C150.921 524.691 156.361 520.451 159.731 514.791C166.081 504.111 159.101 490.841 145.361 494.381C144.371 494.631 143.411 495.031 142.391 495.061C141.371 495.091 140.241 494.661 139.861 493.741C139.611 493.141 139.731 492.451 139.941 491.831C140.631 489.781 142.101 488.221 143.921 487.101C150.301 483.201 157.511 480.161 164.701 477.771C172.111 475.311 179.751 473.471 186.921 470.301C189.691 469.071 192.451 467.591 194.381 465.251C196.201 463.031 197.141 460.101 196.941 457.241C196.891 456.501 196.741 455.711 196.231 455.161C195.631 454.521 194.641 454.371 193.781 454.541C192.921 454.711 192.131 455.141 191.341 455.531C186.471 457.881 180.711 458.321 175.541 456.741C174.681 456.481 173.821 456.151 173.151 455.551C170.571 453.231 170.161 449.581 169.791 446.311C169.401 442.751 167.461 439.011 165.271 436.151C163.481 433.811 160.921 432.181 159.221 429.761C156.751 426.261 157.931 422.891 160.061 419.171C163.681 412.821 174.801 403.991 170.701 396.771C167.541 391.211 164.971 388.031 158.131 387.111C152.291 386.321 145.811 387.901 141.931 392.471C135.761 399.751 133.561 409.301 128.641 417.291C127.781 418.681 126.891 420.011 125.941 421.251C116.541 433.451 101.591 439.051 90.1206 449.151C78.7705 459.141 72.0105 473.351 70.0005 488.021C68.5505 498.591 70.2205 508.991 73.5005 519.071C74.3405 521.651 78.7905 529.211 76.0305 531.161C73.3805 533.031 66.7205 528.041 65.2005 526.301C64.8705 525.921 64.5205 525.501 64.0305 525.381C62.6305 525.021 62.0005 527.061 62.1505 528.471C62.7405 534.121 64.6405 538.111 69.4305 541.601C73.5905 544.631 78.8405 545.821 83.9005 546.371L170.831 546.651L170.821 546.661Z" fill="#B9874B"/>
<mask id="mask0_1534_74059" style="mask-type:luminance" maskUnits="userSpaceOnUse" x="62" y="386" width="135" height="161">
<path d="M170.821 546.661C172.841 546.661 169.731 540.201 169.171 539.501C167.011 536.791 163.781 534.831 160.301 534.491C158.011 534.271 155.611 534.811 153.331 534.991C149.681 535.271 143.561 535.221 147.131 530.111C150.921 524.691 156.361 520.451 159.731 514.791C166.081 504.111 159.101 490.841 145.361 494.381C144.371 494.631 143.411 495.031 142.391 495.061C141.371 495.091 140.241 494.661 139.861 493.741C139.611 493.141 139.731 492.451 139.941 491.831C140.631 489.781 142.101 488.221 143.921 487.101C150.301 483.201 157.511 480.161 164.701 477.771C172.111 475.311 179.751 473.471 186.921 470.301C189.691 469.071 192.451 467.591 194.381 465.251C196.201 463.031 197.141 460.101 196.941 457.241C196.891 456.501 196.741 455.711 196.231 455.161C195.631 454.521 194.641 454.371 193.781 454.541C192.921 454.711 192.131 455.141 191.341 455.531C186.471 457.881 180.711 458.321 175.541 456.741C174.681 456.481 173.821 456.151 173.151 455.551C170.571 453.231 170.161 449.581 169.791 446.311C169.401 442.751 167.461 439.011 165.271 436.151C163.481 433.811 160.921 432.181 159.221 429.761C156.751 426.261 157.931 422.891 160.061 419.171C163.681 412.821 174.801 403.991 170.701 396.771C167.541 391.211 164.971 388.031 158.131 387.111C152.291 386.321 145.811 387.901 141.931 392.471C135.761 399.751 133.561 409.301 128.641 417.291C127.781 418.681 126.891 420.011 125.941 421.251C116.541 433.451 101.591 439.051 90.1206 449.151C78.7705 459.141 72.0105 473.351 70.0005 488.021C68.5505 498.591 70.2205 508.991 73.5005 519.071C74.3405 521.651 78.7905 529.211 76.0305 531.161C73.3805 533.031 66.7205 528.041 65.2005 526.301C64.8705 525.921 64.5205 525.501 64.0305 525.381C62.6305 525.021 62.0005 527.061 62.1505 528.471C62.7405 534.121 64.6405 538.111 69.4305 541.601C73.5905 544.631 78.8405 545.821 83.9005 546.371L170.831 546.651L170.821 546.661Z" fill="white"/>
</mask>
<g mask="url(#mask0_1534_74059)">
<path d="M63.8719 436.16C65.7619 435.69 67.7019 435.46 69.6619 435.55C74.4119 435.78 79.1719 438.13 81.5219 442.16C57.4419 461.54 55.0619 494.87 60.4619 522.75C61.6519 528.88 59.2319 532.18 53.7519 527.88C49.8019 524.78 47.5819 520.95 45.4019 516.54C39.7319 505.04 37.3119 492.04 38.2219 479.31C39.2819 464.49 42.4019 448.03 56.2119 439.47C58.5719 438.01 61.1719 436.83 63.8719 436.15V436.16Z" fill="#725741"/>
<path d="M87.6237 549.911C86.6537 550.551 85.6837 551.111 84.9837 551.581C83.4037 552.661 81.6637 553.791 79.7337 553.721C78.5937 553.681 77.5237 553.221 76.4837 552.751C73.1037 551.231 69.8537 549.631 66.8637 547.511C63.9237 545.421 61.1137 544.111 59.3037 540.811C55.5937 534.021 58.1737 527.941 62.3337 522.081C62.6437 521.641 62.9837 521.201 63.4737 520.971C63.9637 520.741 64.6537 520.831 64.9137 521.301C65.0737 521.591 65.0437 521.941 65.0237 522.271C64.5837 528.741 65.8637 535.001 70.5637 539.881C74.9337 544.421 80.3637 545.851 86.4537 546.401C87.7537 546.521 89.0737 546.811 90.3937 546.971C90.5237 546.991 90.6637 547.011 90.7337 547.121C90.8037 547.241 90.7437 547.391 90.6737 547.511C90.0337 548.651 88.6737 549.211 87.6137 549.911H87.6237Z" fill="white"/>
</g>
<path d="M161.251 376.6C157.921 369.41 155.831 362.29 151.961 355.35C147.741 347.78 143.331 340.19 137.331 333.81C130.911 326.99 122.471 322.28 113.751 318.65C105.021 315.02 95.8814 312.47 87.0714 309.03C85.2514 309.09 82.0714 307.34 80.3614 306.68C77.8714 305.72 75.8014 304.64 73.6414 303.09C76.5514 310.83 79.3814 318.44 84.7914 324.99C90.5414 331.96 98.0414 337.44 106.641 340.58C114.501 343.45 122.121 347.48 129.811 350.86C136.491 353.8 142.141 358.99 146.501 364.66C150.531 369.91 154.971 376.59 155.361 383.29C155.631 387.86 151.271 384.76 148.991 383.09C142.891 378.61 138.701 372.22 133.251 367.08C127.891 362.02 121.601 358 114.921 354.81C101.551 348.42 86.8814 345.23 72.4814 341.91C66.7914 340.6 61.2514 338.73 55.8714 336.49C53.1614 335.36 50.4914 334.71 48.0314 333.19C46.8314 332.45 40.9114 329.59 40.6914 328.27C41.2514 331.71 42.5314 334.9 43.7114 338.16C50.4714 356.73 66.2114 369.38 86.1614 371.82C96.6814 373.11 107.071 371.46 117.571 371.86C125.381 372.16 134.911 373.33 139.561 380.32C145.771 389.66 143.131 401.29 145.581 411.63C147.451 419.51 152.581 426.89 160.091 430.55C167.991 434.41 184.351 436.8 186.961 425.39C188.141 420.24 187.081 414.98 186.411 409.84C186.161 407.91 185.961 405.96 185.361 404.11C183.911 399.62 180.001 394.57 176.341 391.57C173.051 388.87 169.161 386.89 166.061 383.97C164.001 382.03 162.531 379.34 161.241 376.56L161.251 376.6Z" fill="url(#paint0_linear_1534_74059)"/>
<mask id="mask1_1534_74059" style="mask-type:luminance" maskUnits="userSpaceOnUse" x="40" y="303" width="148" height="131">
<path d="M161.251 376.6C157.921 369.41 155.831 362.29 151.961 355.35C147.741 347.78 143.331 340.19 137.331 333.81C130.911 326.99 122.471 322.28 113.751 318.65C105.021 315.02 95.8814 312.47 87.0714 309.03C85.2514 309.09 82.0714 307.34 80.3614 306.68C77.8714 305.72 75.8014 304.64 73.6414 303.09C76.5514 310.83 79.3814 318.44 84.7914 324.99C90.5414 331.96 98.0414 337.44 106.641 340.58C114.501 343.45 122.121 347.48 129.811 350.86C136.491 353.8 142.141 358.99 146.501 364.66C150.531 369.91 154.971 376.59 155.361 383.29C155.631 387.86 151.271 384.76 148.991 383.09C142.891 378.61 138.701 372.22 133.251 367.08C127.891 362.02 121.601 358 114.921 354.81C101.551 348.42 86.8814 345.23 72.4814 341.91C66.7914 340.6 61.2514 338.73 55.8714 336.49C53.1614 335.36 50.4914 334.71 48.0314 333.19C46.8314 332.45 40.9114 329.59 40.6914 328.27C41.2514 331.71 42.5314 334.9 43.7114 338.16C50.4714 356.73 66.2114 369.38 86.1614 371.82C96.6814 373.11 107.071 371.46 117.571 371.86C125.381 372.16 134.911 373.33 139.561 380.32C145.771 389.66 143.131 401.29 145.581 411.63C147.451 419.51 152.581 426.89 160.091 430.55C167.991 434.41 184.351 436.8 186.961 425.39C188.141 420.24 187.081 414.98 186.411 409.84C186.161 407.91 185.961 405.96 185.361 404.11C183.911 399.62 180.001 394.57 176.341 391.57C173.051 388.87 169.161 386.89 166.061 383.97C164.001 382.03 162.531 379.34 161.241 376.56L161.251 376.6Z" fill="white"/>
</mask>
<g mask="url(#mask1_1534_74059)">
<path d="M65.0617 286.94L63.7917 287.82C58.4417 291.52 55.0217 297.76 50.4317 302.46C46.8417 306.13 43.4317 309.58 41.5217 314.45C40.0017 318.32 39.5617 321.87 40.1917 325.33C40.6617 327.95 41.7517 330.52 43.4417 333.14C46.5217 337.89 49.1217 342.69 53.4417 346.53C63.3717 355.33 75.8318 361.37 89.0118 363.78C97.4118 365.31 106.002 366.37 114.452 367.56C119.702 368.3 126.512 368.74 131.172 371.27C137.582 374.76 142.172 380.17 143.562 387.35C144.252 390.93 144.072 394.67 143.052 398.18C142.172 401.21 142.052 404.24 140.982 407.24C140.322 409.11 139.482 410.9 138.542 412.65C137.702 414.22 137.472 415.87 136.272 417.3C133.872 420.14 130.512 422.26 127.962 424.99C124.872 428.31 117.612 433.72 112.652 432.62C109.842 432 108.382 428.27 106.222 426.62C97.6017 419.99 87.3717 415 78.4618 408.65C69.9217 402.57 61.4718 395.78 56.5818 386.63C51.0718 376.32 50.6518 364.07 45.8118 353.45C42.4218 346 36.9517 339.56 33.8717 331.99C32.1117 327.68 32.9417 323.6 33.7717 319.22C34.2017 316.94 34.6417 314.64 35.4817 312.47C37.0717 308.37 40.5617 306.05 42.6017 302.41C44.4417 299.13 44.5417 296.14 47.7917 293.44C52.0817 289.87 57.6917 287.84 62.3617 284.7C64.2017 283.46 66.1818 282.18 68.4118 282.08C68.8218 282.06 69.2718 282.11 69.5418 282.4C70.1118 283.03 69.3317 283.95 68.6317 284.44C67.5317 285.2 65.5617 286.06 65.1418 287.3C64.7418 288.48 65.7517 291.27 65.9517 292.52C66.4717 295.92 67.0018 299.31 67.7817 302.66C70.1818 312.93 75.2417 322.89 83.5917 329.54C87.2917 332.48 91.5317 334.7 95.7717 336.83C106.872 342.4 117.592 348.63 128.612 354.26C134.412 357.23 138.292 362.75 141.432 368.19C144.622 373.72 146.762 380.94 153.162 383.72C155.942 384.93 155.362 381.31 155.262 379.79C155.022 376.03 153.362 372.61 151.862 369.2C150.282 365.59 148.332 362.12 146.002 358.92C136.652 346.05 122.022 338.78 107.902 331.98C101.542 328.91 95.2518 325.59 89.6918 321.29C85.4218 317.98 81.5718 314.07 78.7218 309.52C76.3818 305.78 72.2518 302.39 71.6418 297.83C71.3317 295.49 71.7217 293.24 70.9217 290.9C70.1217 288.54 67.2017 284.5 64.7817 283.52C63.2017 282.88 60.9417 283.66 60.7817 285.32" fill="#725741"/>
</g>
<path d="M162.222 407.361C163.512 407.081 165.022 407.361 166.302 408.211C169.792 410.511 171.872 415.811 172.872 419.651C171.752 417.771 169.522 416.581 167.292 416.671C165.482 416.751 163.612 416.971 161.982 416.021C160.312 415.041 159.152 413.321 159.152 411.361C159.152 409.071 160.502 407.721 162.222 407.351V407.361Z" fill="white"/>
<mask id="mask2_1534_74059" style="mask-type:luminance" maskUnits="userSpaceOnUse" x="159" y="407" width="14" height="13">
<path d="M162.222 407.361C163.512 407.081 165.022 407.361 166.302 408.211C169.792 410.511 171.872 415.811 172.872 419.651C171.752 417.771 169.522 416.581 167.292 416.671C165.482 416.751 163.612 416.971 161.982 416.021C160.312 415.041 159.152 413.321 159.152 411.361C159.152 409.071 160.502 407.721 162.222 407.351V407.361Z" fill="white"/>
</mask>
<g mask="url(#mask2_1534_74059)">
<path d="M169.388 418.079C171.945 418.01 173.962 415.931 173.895 413.436C173.827 410.94 171.7 408.974 169.144 409.043C166.588 409.112 164.57 411.191 164.638 413.686C164.705 416.182 166.832 418.149 169.388 418.079Z" fill="#1C1A37"/>
<path d="M170.082 414.372C169.862 415.352 169.312 415.992 168.362 416.322C167.832 416.502 167.302 416.662 166.762 416.802C166.682 416.822 166.592 416.842 166.532 416.912C166.482 416.962 166.462 417.032 166.442 417.092C166.352 417.402 166.212 417.832 166.442 418.132C166.602 418.352 166.852 418.302 167.092 418.282C167.942 418.212 168.752 418.382 169.532 418.722C170.552 419.172 171.442 419.872 172.242 420.632C172.542 420.912 172.982 421.232 173.322 420.992C173.472 420.892 173.542 420.712 173.592 420.542C174.142 418.782 174.122 416.862 173.532 415.122C173.142 413.982 172.512 412.922 171.692 412.022C171.322 411.612 170.982 411.152 170.502 410.862C170.112 410.622 169.592 410.722 169.522 411.252C169.502 411.362 169.532 411.482 169.572 411.582C169.642 411.792 169.762 411.982 169.852 412.182C170.172 412.892 170.262 413.652 170.092 414.372H170.082Z" fill="#725741"/>
</g>
<path d="M143.54 391.5C143.54 391.5 146.53 395.13 146.99 400.35C147.35 404.48 145.4 410.17 148.08 417.5C150.49 424.08 156.48 428.06 162.49 431.61C162.49 431.61 160.38 430.56 156.66 429.1C152.94 427.64 144.97 422.81 142.56 414.27C140.15 405.72 143.95 398.18 143.54 391.5Z" fill="white"/>
<path d="M178.372 424.649L178.332 424.619C179.542 424.649 180.542 424.999 181.572 425.569C183.112 426.429 185.972 428.089 184.522 430.099C183.352 428.859 182.102 427.699 180.772 426.619C179.972 425.969 179.162 425.329 178.382 424.659L178.372 424.649Z" fill="#725741"/>
<path d="M157.22 370.57C156.67 370.72 156.12 370.88 155.57 371.07C156.12 370.88 156.66 370.72 157.22 370.57Z" fill="#E41815"/>
<path d="M145.723 372.59C145.233 372.89 144.763 373.21 144.293 373.54C144.763 373.2 145.243 372.89 145.723 372.59Z" fill="#E41815"/>
<path d="M131.094 400.059L132.164 397.059C132.184 396.999 132.204 396.929 132.204 396.859C132.374 393.159 133.144 389.579 134.504 386.199C136.454 381.339 139.534 377.169 143.424 374.159C143.704 373.939 144.004 373.739 144.294 373.529C144.004 373.739 143.714 373.939 143.434 374.159C139.544 377.169 136.464 381.339 134.514 386.199C133.164 389.569 132.384 393.159 132.214 396.859C132.214 396.929 132.194 396.999 132.174 397.059L131.104 400.059H131.094Z" fill="#E41815"/>
<path d="M158.644 403.389C151.974 404.119 143.774 404.559 134.004 404.289C143.774 404.549 151.974 404.119 158.644 403.389Z" fill="#E41815"/>
<path d="M145.721 372.59C145.981 372.43 146.251 372.25 146.511 372.1C146.241 372.25 145.981 372.43 145.711 372.59H145.721Z" fill="#E41815"/>
<path d="M134.002 404.3C143.772 404.56 151.972 404.13 158.642 403.4C165.222 402.68 171.712 403.66 178.332 403.36C181.252 403.229 184.202 402.77 186.932 401.71C187.922 401.32 193.762 398.91 191.352 397.39C191.052 397.21 190.752 397.03 190.462 396.84C186.552 394.24 184.992 391.13 184.932 391C184.912 390.96 184.902 390.92 184.882 390.88C180.952 376.79 168.692 367.63 155.732 369.11C152.472 369.479 149.372 370.489 146.512 372.109C146.242 372.26 145.982 372.44 145.712 372.6C145.222 372.9 144.752 373.22 144.282 373.55C143.992 373.76 143.702 373.96 143.422 374.18C139.532 377.19 136.452 381.36 134.502 386.22C133.152 389.59 132.372 393.18 132.202 396.88C132.202 396.95 132.182 397.02 132.162 397.08L131.092 400.08C130.742 401.05 130.882 402.09 131.462 402.94C132.042 403.79 132.962 404.29 133.992 404.32L134.002 404.3Z" fill="#E41815"/>
<path d="M140.98 380.58C149.22 375.29 156.37 375.11 162.08 376.93C166.52 378.34 170.07 380.96 172.58 383.31C167.72 380.36 162.81 378.96 158.21 378.49C151.35 377.79 145.19 379.17 140.98 380.58Z" fill="#951914"/>
<path d="M666.102 113.76V104.93L686.322 76H698.542V104.29H703.792V113.76H698.542V122.08H687.602V113.76H666.102ZM688.372 88.03L677.622 104.29H688.372V88.03Z" fill="#463528"/>
<path d="M713.432 80.7306C716.272 76.5106 720.842 74.3906 727.162 74.3906C733.482 74.3906 738.052 76.5006 740.892 80.7306C743.732 84.9506 745.152 90.7406 745.152 98.0706C745.152 105.401 743.732 111.321 740.892 115.541C738.052 119.761 733.482 121.881 727.162 121.881C720.842 121.881 716.272 119.771 713.432 115.541C710.592 111.321 709.172 105.491 709.172 98.0706C709.172 90.6506 710.592 84.9506 713.432 80.7306ZM732.982 88.1206C732.042 85.8006 730.102 84.6306 727.162 84.6306C724.222 84.6306 722.272 85.7906 721.342 88.1206C720.402 90.4506 719.932 93.7606 719.932 98.0706C719.932 100.971 720.102 103.371 720.442 105.271C720.782 107.171 721.472 108.701 722.522 109.881C723.562 111.051 725.112 111.641 727.162 111.641C729.212 111.641 730.752 111.051 731.802 109.881C732.842 108.711 733.542 107.171 733.882 105.271C734.222 103.371 734.392 100.971 734.392 98.0706C734.392 93.7606 733.922 90.4406 732.982 88.1206Z" fill="#463528"/>
<path d="M751.16 113.76V104.93L771.38 76H783.6V104.29H788.85V113.76H783.6V122.08H772.66V113.76H751.16ZM773.43 88.03L762.68 104.29H773.43V88.03Z" fill="#463528"/>
</g>
<defs>
<linearGradient id="paint0_linear_1534_74059" x1="55.8481" y1="386.603" x2="172.748" y2="355.957" gradientUnits="userSpaceOnUse">
<stop offset="0.39" stop-color="#B17F4A"/>
<stop offset="1" stop-color="#BC894D"/>
</linearGradient>
<clipPath id="clip0_1534_74059">
<rect width="843.31" height="581.03" fill="white"/>
</clipPath>
</defs>
</svg>
