<svg width="18" height="43" viewBox="0 0 18 43" fill="none" xmlns="http://www.w3.org/2000/svg">
  <rect x="3.43701" y="7.97662" width="11.0446" height="26.9979" fill="white"/>
  <path d="M8.6494 22.3049H7.34063V27.9595H9.02278C9.52704 27.9595 9.90428 27.8181 10.1506 27.5466C10.397 27.2752 10.524 26.8011 10.524 26.132V24.5262C10.524 23.6889 10.3816 23.1116 10.0852 22.7905C9.78879 22.4693 9.30763 22.3011 8.6494 22.3011V22.3049Z" fill="#FF5C00"/>
  <path d="M9.78879 19.2195C10.0736 18.9252 10.2161 18.4243 10.2161 17.7285V16.7C10.2161 15.4422 9.72335 14.8113 8.74178 14.796H7.33293V19.6669H8.48388C9.06513 19.6669 9.50779 19.5139 9.79264 19.2157L9.78879 19.2195Z" fill="#FF5C00"/>
  <path d="M8.73793 0C3.91474 0 0 3.88444 0 8.67881V33.66C0 38.4506 3.91089 42.3388 8.73793 42.3388C13.5611 42.3388 17.4759 38.4544 17.4759 33.66V8.67881C17.4759 3.88826 13.565 0 8.73793 0ZM13.4264 26.2238C13.4264 27.6498 13.0492 28.7318 12.3024 29.4774C11.8328 29.9438 11.2284 30.2611 10.4894 30.437V31.0908C10.4894 31.5572 10.1044 31.9395 9.63482 31.9395C9.16521 31.9395 8.77642 31.5572 8.77642 31.0908V30.5938H7.33293V31.0908C7.33293 31.5572 6.94801 31.9395 6.47839 31.9395C6.00878 31.9395 5.62383 31.5572 5.62383 31.0908V30.5938H5.35824C4.7385 30.5938 4.4267 30.2841 4.4267 29.6685V13.087C4.4267 12.4715 4.7385 12.1618 5.35824 12.1618H5.62383V11.2442C5.62383 10.7778 6.00878 10.3955 6.47839 10.3955C6.94801 10.3955 7.33293 10.7778 7.33293 11.2442V12.1618H8.77642V11.2442C8.77642 10.7778 9.16136 10.3955 9.63482 10.3955C10.1083 10.3955 10.4894 10.7778 10.4894 11.2442V12.2383C10.4894 12.2765 10.4817 12.3109 10.4778 12.3453C11.1592 12.5135 11.7058 12.7965 12.1099 13.2017C12.7951 13.8976 13.1454 14.9643 13.1454 16.4018V17.1359C13.1454 19.0246 12.5103 20.2327 11.2554 20.7488V20.7986C12.7066 21.2879 13.4302 22.5725 13.4302 24.6409V26.2238H13.4264Z" fill="#FF5C00"/>
</svg>
