<svg width="174" height="90" viewBox="0 0 174 90" fill="none" xmlns="http://www.w3.org/2000/svg">
<g id="LOGO planB network" clip-path="url(#clip0_1128_9144)">
<path id="Vector" d="M100.035 30.4192C101.055 25.3457 103.163 20.5085 106.296 16.1996C112.017 8.32262 120.465 3.14832 130.078 1.62442C135.133 0.822647 140.182 1.07486 145.086 2.37575C145.346 2.44743 145.601 2.29344 145.667 2.03858C145.734 1.78636 145.585 1.52619 145.33 1.45982C140.294 0.127073 135.114 -0.130439 129.929 0.689914C120.064 2.25363 111.398 7.56336 105.526 15.6448C102.273 20.1209 100.096 25.1492 99.0664 30.4218H100.035V30.4192Z" fill="#FCFBF3"/>
<path id="Vector_2" d="M166.031 59.5994C165.92 59.7507 165.81 59.9021 165.694 60.056C163.458 63.0401 160.835 65.6313 157.91 67.7817C153.163 71.2782 147.614 73.6038 141.628 74.5569C139.644 74.8675 137.664 75.0242 135.699 75.0242C127.87 75.0242 120.259 72.5658 113.799 67.872C113.759 67.8428 113.717 67.8136 113.677 67.7817C110.656 65.5702 108.03 62.9684 105.848 60.056C104.789 58.649 103.833 57.1702 102.997 55.633C102.697 55.0994 102.418 54.5578 102.152 54.0109H103.212C103.488 54.5605 103.777 55.0994 104.082 55.633C104.956 57.1755 105.946 58.6569 107.045 60.056C109.113 62.7029 111.564 65.079 114.362 67.11C114.683 67.341 115.002 67.5667 115.326 67.7817C123.014 73.0091 132.253 75.0773 141.484 73.6198C146.871 72.7675 151.894 70.7631 156.272 67.7817C159.365 65.6764 162.139 63.0826 164.494 60.056C164.757 59.7242 165.011 59.387 165.261 59.0419C170.985 51.1675 173.3 41.5357 171.776 31.9224C170.074 21.1596 163.708 11.7985 154.315 6.24451C154.09 6.10911 154.015 5.82238 154.151 5.59672C154.278 5.37106 154.573 5.29672 154.798 5.42946C164.433 11.1321 170.961 20.7348 172.71 31.7764C174.269 41.6419 171.898 51.5259 166.031 59.6021V59.5994Z" fill="#FCFBF3"/>
<path id="Vector_3" d="M150.885 4.40731C150.821 4.40731 150.755 4.39401 150.691 4.36481C150.088 4.09401 149.478 3.83914 148.862 3.60021C148.618 3.50729 148.496 3.23118 148.591 2.98693C148.687 2.74268 148.958 2.62058 149.204 2.71616C149.836 2.96041 150.463 3.22056 151.081 3.49932C151.32 3.60552 151.427 3.88696 151.32 4.1259C151.241 4.30112 151.068 4.40466 150.888 4.40466L150.885 4.40731Z" fill="#FCFBF3"/>
<path id="Vector_4" d="M18.2919 80.3287H14.9468L7.37248 68.8836V80.3287H4.02734V63.6269H7.37248L14.9468 75.0959V63.6269H18.2919V80.3287ZM33.9029 73.4234C33.9029 73.9013 33.871 74.3314 33.8073 74.7137H24.1304C24.2101 75.6694 24.5446 76.4181 25.134 76.9597C25.7233 77.5013 26.4481 77.7721 27.3082 77.7721C28.5507 77.7721 29.4347 77.2384 29.9604 76.1712H33.5684C33.1861 77.4455 32.4533 78.4968 31.3701 79.3252C30.287 80.1375 28.9569 80.5437 27.3799 80.5437C26.1056 80.5437 24.9587 80.265 23.9393 79.7075C22.9357 79.134 22.1472 78.3296 21.5738 77.2942C21.0163 76.2588 20.7375 75.0641 20.7375 73.7101C20.7375 72.3402 21.0163 71.1375 21.5738 70.1021C22.1313 69.0667 22.9118 68.2703 23.9154 67.7128C24.9189 67.1552 26.0738 66.8765 27.3799 66.8765C28.6383 66.8765 29.7613 67.1473 30.7489 67.6889C31.7524 68.2305 32.525 69.003 33.0666 70.0066C33.6241 70.9942 33.9029 72.1331 33.9029 73.4234ZM30.4383 72.4676C30.4224 71.6075 30.1117 70.9225 29.5064 70.4128C28.9011 69.8871 28.1604 69.6243 27.2843 69.6243C26.4561 69.6243 25.7552 69.8791 25.1818 70.3889C24.6242 70.8827 24.2818 71.5756 24.1543 72.4676H30.4383ZM40.2393 69.8393V76.2428C40.2393 76.6889 40.3428 77.0154 40.5499 77.2225C40.7729 77.4136 41.1393 77.5092 41.649 77.5092H43.2021V80.3287H41.0994C38.28 80.3287 36.8702 78.9588 36.8702 76.219V69.8393H35.2932V67.0915H36.8702V63.8181H40.2393V67.0915H43.2021V69.8393H40.2393ZM63.9586 67.0915L60.0878 80.3287H56.4799L54.0666 71.0818L51.6533 80.3287H48.0215L44.1268 67.0915H47.5197L49.8613 77.1747L52.394 67.0915H55.9303L58.4153 77.1508L60.7569 67.0915H63.9586ZM71.6463 80.5437C70.372 80.5437 69.2251 80.265 68.2056 79.7075C67.1862 79.134 66.3817 78.3296 65.7924 77.2942C65.2189 76.2588 64.9322 75.0641 64.9322 73.7101C64.9322 72.3561 65.2269 71.1614 65.8163 70.126C66.4216 69.0906 67.2419 68.2942 68.2773 67.7367C69.3127 67.1632 70.4676 66.8765 71.7419 66.8765C73.0163 66.8765 74.1711 67.1632 75.2065 67.7367C76.2419 68.2942 77.0543 69.0906 77.6437 70.126C78.249 71.1614 78.5517 72.3561 78.5517 73.7101C78.5517 75.0641 78.241 76.2588 77.6198 77.2942C77.0145 78.3296 76.1862 79.134 75.1348 79.7075C74.0994 80.265 72.9366 80.5437 71.6463 80.5437ZM71.6463 77.6287C72.2517 77.6287 72.8171 77.4853 73.3428 77.1986C73.8844 76.8959 74.3145 76.4499 74.6331 75.8605C74.9517 75.2712 75.1109 74.5544 75.1109 73.7101C75.1109 72.4517 74.7764 71.488 74.1074 70.819C73.4543 70.134 72.6499 69.7915 71.6941 69.7915C70.7384 69.7915 69.934 70.134 69.2809 70.819C68.6437 71.488 68.3251 72.4517 68.3251 73.7101C68.3251 74.9685 68.6357 75.9402 69.257 76.6252C69.8941 77.2942 70.6906 77.6287 71.6463 77.6287ZM84.3507 69.1464C84.7808 68.4455 85.3383 67.896 86.0232 67.4977C86.7241 67.0995 87.5206 66.9004 88.4126 66.9004V70.4128H87.5286C86.4772 70.4128 85.6808 70.6597 85.1392 71.1535C84.6135 71.6473 84.3507 72.5075 84.3507 73.734V80.3287H81.0055V67.0915H84.3507V69.1464ZM98.503 80.3287L94.0109 74.6897V80.3287H90.6658V62.6473H94.0109V72.7066L98.4552 67.0915H102.804L96.9738 73.734L102.852 80.3287H98.503Z" fill="#FCFBF3"/>
<path id="Vector_5" d="M158.222 19.8004L141.69 10.1128C141.541 10.0252 141.369 9.98532 141.191 9.99859C141.191 9.99859 122.124 11.4455 122.089 11.4482C121.269 11.5119 121.014 12.6269 121.723 13.0438L138.252 22.7287C138.403 22.819 138.576 22.8535 138.751 22.8428L156.693 21.4835L155.06 28.5509C153.693 28.6199 152.477 29.5703 152.153 30.9668L151.951 31.8429C151.2 30.4571 149.976 29.3101 148.425 28.3464C148.595 28.2296 148.723 28.0517 148.771 27.8367L149.718 23.7269L138.879 24.5526C138.369 24.5924 137.822 24.4756 137.384 24.2101L128.002 18.7092L127.171 22.3145L122.041 21.0535L120.876 25.8137C120.876 25.8137 124.197 26.5331 124.11 26.6234C125.904 27.0748 126.263 28.2402 126.175 29.2305L124.11 37.5854C124.197 37.5854 124.378 37.673 124.556 37.7632C124.378 37.7632 124.287 37.673 124.11 37.673L121.144 49.442C120.966 49.9809 120.334 50.788 119.079 50.5199C119.079 50.6101 115.845 49.7101 115.845 49.7101L113.602 54.8287L119.44 56.265C120.517 56.5358 121.595 56.8066 122.673 57.0747L120.786 64.5323L125.278 65.6101L127.075 58.2429C128.333 58.6013 129.499 58.8721 130.67 59.1402L128.872 66.5075L133.364 67.5854L135.252 60.1278C142.887 61.5641 148.638 61.0278 151.062 54.1119C153.037 48.5394 150.971 45.3084 146.931 43.2429C149.894 42.4332 152.14 40.4579 152.679 36.5048C152.732 36.1624 152.761 35.8305 152.774 35.5093L156.48 36.3641C156.94 36.4703 157.402 36.1836 157.508 35.7217L158.28 32.3818C158.602 30.9854 157.93 29.5969 156.73 28.9358L158.625 20.7322C158.705 20.3845 158.535 19.9756 158.225 19.8004H158.222ZM142.526 50.8783C141.18 56.4482 131.748 53.3951 128.782 52.6756L131.206 42.7942C134.171 43.5137 143.963 45.0376 142.526 50.8783ZM143.872 36.4146C142.617 41.4455 134.801 38.9314 132.284 38.3022L134.53 29.3181C137.047 29.95 145.218 31.1155 143.872 36.4146Z" fill="#F39324"/>
<path id="Vector_6" d="M29.3339 35.9062C29.3339 37.7991 28.8775 39.5739 27.9648 41.2305C27.0858 42.8869 25.6828 44.2223 23.7559 45.2365C21.8628 46.2506 19.4626 46.7577 16.5554 46.7577H10.6226V60.3474H3.52344V24.9532H16.5554C19.2936 24.9532 21.6262 25.4264 23.5531 26.373C25.48 27.3195 26.9166 28.621 27.8634 30.2776C28.8435 31.934 29.3339 33.8102 29.3339 35.9062ZM16.2511 41.0277C18.2118 41.0277 19.6655 40.588 20.612 39.7093C21.5586 38.7965 22.0318 37.5288 22.0318 35.9062C22.0318 32.458 20.1049 30.734 16.2511 30.734H10.6226V41.0277H16.2511ZM41.4733 22.8234V60.3474H34.3742V22.8234H41.4733ZM46.6617 46.1999C46.6617 43.3603 47.2195 40.8416 48.3351 38.6444C49.4843 36.447 51.0226 34.7566 52.9495 33.5736C54.9101 32.3903 57.0905 31.7988 59.4908 31.7988C61.5868 31.7988 63.4123 32.2212 64.9673 33.0665C66.5562 33.9116 67.8239 34.9765 68.7704 36.2611V32.2552H75.9202V60.3474H68.7704V56.2401C67.8576 57.5585 66.5899 58.6571 64.9673 59.5361C63.3783 60.3811 61.5361 60.8038 59.4401 60.8038C57.0738 60.8038 54.9101 60.1953 52.9495 58.9783C51.0226 57.7613 49.4843 56.054 48.3351 53.8568C47.2195 51.6257 46.6617 49.0733 46.6617 46.1999ZM68.7704 46.3013C68.7704 44.5772 68.4324 43.1067 67.7562 41.8897C67.08 40.6388 66.1673 39.6923 65.018 39.0501C63.8687 38.3739 62.6347 38.0359 61.3163 38.0359C59.9979 38.0359 58.7809 38.3569 57.6653 38.9994C56.5497 39.6416 55.637 40.588 54.9271 41.839C54.2509 43.056 53.9129 44.5095 53.9129 46.1999C53.9129 47.89 54.2509 49.3775 54.9271 50.6622C55.637 51.9129 56.5497 52.8764 57.6653 53.5526C58.8146 54.2285 60.0316 54.5667 61.3163 54.5667C62.6347 54.5667 63.8687 54.2455 65.018 53.6033C66.1673 52.9271 67.08 51.9806 67.7562 50.7636C68.4324 49.5126 68.7704 48.0254 68.7704 46.3013ZM98.421 31.8496C101.768 31.8496 104.472 32.9144 106.534 35.0442C108.596 37.1399 109.627 40.081 109.627 43.8673V60.3474H102.528V44.8308C102.528 42.5996 101.971 40.8923 100.855 39.7093C99.7394 38.4923 98.2181 37.8838 96.2912 37.8838C94.3306 37.8838 92.7754 38.4923 91.6261 39.7093C90.5105 40.8923 89.9528 42.5996 89.9528 44.8308V60.3474H82.8536V32.2552H89.9528V35.7541C90.8992 34.5371 92.0995 33.5903 93.553 32.9144C95.0405 32.2045 96.6632 31.8496 98.421 31.8496Z" fill="#FCFBF3"/>
</g>
<defs>
<clipPath id="clip0_1128_9144">
<rect width="173.363" height="90" fill="white"/>
</clipPath>
</defs>
</svg>
