<svg width="764" height="447" viewBox="0 0 764 447" fill="none" xmlns="http://www.w3.org/2000/svg">
<g clip-path="url(#clip0_824_16)">
<rect x="452.347" y="33.2227" width="71.5411" height="175.821" rx="5" fill="white"/>
<path d="M2.7002 208.559V42.4856C2.7002 36.2951 5.81658 33.2227 12.0264 33.2227H45.7338C74.7666 33.2227 89.2945 48.403 89.2945 78.923V97.0848C89.2945 127.468 74.7895 142.649 45.7338 142.649H31.8705V208.559C31.8705 214.727 28.7541 217.822 22.6588 217.822H12.0264C5.79367 217.822 2.7002 214.727 2.7002 208.559ZM45.5963 116.248C50.3855 116.248 54.0289 114.951 56.3433 112.265C58.6576 109.58 59.8492 105.05 59.8492 98.7462V76.8519C59.8492 70.5476 58.6806 66.0413 56.3433 63.4695C54.006 60.8977 50.5001 59.6005 45.7109 59.6005H31.8476V116.385L45.5963 116.248Z" fill="white"/>
<path d="M105.106 208.559V42.4856C105.106 36.2951 108.222 33.2227 114.432 33.2227H125.064C131.274 33.2227 134.39 36.3179 134.276 42.4856V191.421H173.024C179.257 191.421 182.351 194.517 182.351 200.684V208.536C182.351 214.704 179.234 217.799 173.024 217.799H114.432C108.199 217.799 105.106 214.704 105.106 208.536V208.559Z" fill="white"/>
<path d="M199.078 217.822C193.235 217.822 190.394 215.25 190.531 209.97C190.531 209.447 190.669 208.673 190.783 207.512L218.647 41.7118C219.564 36.0448 222.795 33.2227 228.501 33.2227H251.049C256.754 33.2227 259.985 36.0675 260.764 41.7118L288.629 207.512C288.766 208.536 288.881 209.31 289.018 209.97C289.018 215.25 286.039 217.822 280.196 217.822H269.839C263.743 217.822 260.375 215 259.733 209.333L255.838 181.134V181.658H221.489L217.593 209.333C216.952 215 213.583 217.822 207.488 217.822H199.055H199.078ZM252.217 156.668L238.606 65.4041H238.079L224.857 156.668H252.217Z" fill="white"/>
<path d="M303.798 208.559V42.4856C303.798 36.2951 306.914 33.2227 313.124 33.2227H332.166C337.872 33.2227 341.378 35.931 342.524 41.2111L368.83 143.809H369.357V42.4856C369.357 36.2951 372.473 33.2227 378.683 33.2227H386.061C392.271 33.2227 395.388 36.3179 395.388 42.4856V208.559C395.388 214.727 392.271 217.822 386.061 217.822H373.619C367.913 217.822 364.407 215.25 363.239 209.97L330.31 83.0424H329.783V208.559C329.783 214.727 326.667 217.822 320.457 217.822H313.078C306.846 217.822 303.752 214.727 303.752 208.559H303.798Z" fill="white"/>
<path d="M487.976 129.493H479.559V165.86H490.378C493.621 165.86 496.047 164.95 497.632 163.204C499.216 161.458 500.033 158.409 500.033 154.106V143.779C500.033 138.394 499.117 134.681 497.211 132.615C495.304 130.55 492.21 129.468 487.976 129.468V129.493Z" fill="#FF5C00"/>
<path d="M495.305 109.649C497.137 107.756 498.053 104.535 498.053 100.06V93.4452C498.053 85.3554 494.884 81.2983 488.571 81.1999H479.51V112.526H486.912C490.65 112.526 493.497 111.543 495.329 109.625L495.305 109.649Z" fill="#FF5C00"/>
<path d="M488.546 1.52539C457.525 1.52539 432.348 26.5078 432.348 57.3423V190.683C432.348 221.493 457.501 246.499 488.546 246.499C519.566 246.499 544.744 221.517 544.744 190.683L544.744 57.3423C544.744 26.5323 519.591 1.52539 488.546 1.52539ZM518.7 154.696C518.7 163.868 516.274 170.827 511.471 175.621C508.45 178.621 504.564 180.662 499.81 181.793V185.998C499.81 188.998 497.335 191.457 494.314 191.457C491.294 191.457 488.793 188.998 488.793 185.998V182.801H479.51V185.998C479.51 188.998 477.034 191.457 474.014 191.457C470.993 191.457 468.518 188.998 468.518 185.998V182.801H466.809C462.823 182.801 460.818 180.81 460.818 176.851V70.2086C460.818 66.2498 462.823 64.2581 466.809 64.2581H468.518V58.3567C468.518 55.3569 470.993 52.898 474.014 52.898C477.034 52.898 479.51 55.3569 479.51 58.3567V64.2581H488.793V58.3567C488.793 55.3569 491.269 52.898 494.314 52.898C497.359 52.898 499.81 55.3569 499.81 58.3567V64.7499C499.81 64.9958 499.761 65.2171 499.736 65.4384C504.118 66.5203 507.633 68.3399 510.233 70.9463C514.64 75.4215 516.893 82.2818 516.893 91.5273V96.2483C516.893 108.395 512.808 116.165 504.737 119.485V119.805C514.07 122.952 518.725 131.214 518.725 144.516V154.696H518.7Z" fill="#FF5C00"/>
<path d="M2.72316 433.736V267.663C2.72316 261.472 5.83956 258.4 12.0494 258.4H31.0914C36.7971 258.4 40.3031 261.108 41.4717 266.388L67.7777 368.986H68.3047V267.663C68.3047 261.472 71.4211 258.4 77.631 258.4H85.0095C91.2193 258.4 94.3358 261.495 94.3358 267.663V433.736C94.3358 439.904 91.2193 442.999 85.0095 442.999H72.5668C66.8611 442.999 63.3552 440.427 62.1865 435.147L29.2583 308.219H28.7312V433.736C28.7312 439.904 25.6148 442.999 19.405 442.999H12.0265C5.79368 442.999 2.7002 439.904 2.7002 433.736H2.72316Z" fill="white"/>
<path d="M116.013 433.736V267.663C116.013 261.472 119.129 258.4 125.339 258.4H186.384C192.593 258.4 195.71 261.495 195.595 267.663V275.651C195.595 281.819 192.479 284.914 186.384 284.8H145.16V333.596H176.003C182.213 333.596 185.33 336.691 185.215 342.859V350.711C185.215 356.878 182.099 359.974 176.003 359.974H145.16V416.621H186.384C192.593 416.621 195.71 419.716 195.595 425.884V433.736C195.595 439.904 192.479 442.999 186.384 442.999H125.339C119.129 442.999 116.013 439.904 116.013 433.736Z" fill="white"/>
<path d="M235.123 433.736V284.777H213.858C207.648 284.777 204.532 281.682 204.647 275.628V267.64C204.647 261.449 207.763 258.377 213.858 258.377H285.535C291.768 258.377 294.861 261.472 294.861 267.64V275.628C294.861 281.796 291.745 284.891 285.535 284.777H264.27V433.736C264.27 439.904 261.154 442.999 255.059 442.999H244.426C238.217 442.999 235.1 439.904 235.1 433.736H235.123Z" fill="white"/>
<path d="M320.801 434.237L303.821 270.348L303.569 266.866C303.569 261.199 306.433 258.377 312.254 258.377H321.855C327.698 258.377 330.929 261.336 331.456 267.139L343.899 400.257H344.426L357.785 267.139C358.312 261.336 361.405 258.377 367.249 258.377H381.639C387.482 258.377 390.713 261.336 391.24 267.139L404.462 400.257H404.989L417.432 267.139C417.959 261.336 421.19 258.377 427.033 258.377H433.632C439.452 258.377 442.454 261.222 442.454 266.866L442.202 270.348L425.222 434.237C424.695 440.04 421.465 442.999 415.621 442.999H396.831C390.736 442.999 387.505 440.04 386.978 434.237L374.535 318.506H374.008L361.428 434.237C360.901 440.04 357.67 442.999 351.713 442.999H330.448C324.627 442.999 321.374 440.04 320.847 434.237H320.801Z" fill="white"/>
<path d="M499.557 445.571C485.305 445.571 474.42 441.588 466.767 433.463C459.113 425.338 455.355 413.89 455.355 399.097V302.029C455.355 287.235 459.113 275.765 466.767 267.663C474.42 259.56 485.442 255.555 499.695 255.555C513.948 255.555 524.97 259.538 532.623 267.663C540.277 275.765 544.149 287.235 544.149 302.029V399.097C544.149 413.89 540.391 425.361 532.738 433.463C525.084 441.565 514.062 445.571 499.809 445.571H499.557ZM514.727 401.031V300.367C514.727 288.26 509.663 282.206 499.557 282.206C489.452 282.206 484.388 288.26 484.388 300.367V401.031C484.388 413.253 489.452 419.307 499.557 419.307C509.663 419.307 514.727 413.253 514.727 401.031Z" fill="white"/>
<path d="M573.045 442.999C566.835 442.999 563.718 439.904 563.718 433.736V267.663C563.718 261.472 566.835 258.4 573.045 258.4H607.004C622.036 258.4 633.058 261.882 639.932 268.823C646.807 275.765 650.29 286.462 650.29 300.868V312.202C650.29 331.388 643.942 343.496 631.11 348.64V349.163C644.08 353.146 650.542 366.164 650.542 388.172V420.604C650.542 426.385 650.794 430.527 651.321 432.962C651.71 434.646 651.848 435.784 651.848 436.444C651.848 440.814 649.121 442.999 643.805 442.999H632.141C625.931 442.999 622.54 440.427 622.151 435.147C621.624 431.938 621.371 427.045 621.234 420.354V386.624C621.234 378.249 619.928 372.332 617.224 368.986C614.497 365.641 609.845 363.956 603.086 363.956H592.98V433.736C592.98 439.904 589.864 442.999 583.769 442.999H573.022H573.045ZM603.636 337.556C609.479 337.556 613.878 336.008 616.72 333.05C619.561 330.091 621.005 325.061 621.005 317.983V303.827C621.005 291.218 616.078 284.914 606.225 284.777H592.866V337.556H603.636Z" fill="white"/>
<path d="M670.775 433.736V267.663C670.775 261.472 673.892 258.4 680.102 258.4H690.734C696.967 258.4 700.06 261.495 699.946 267.663V336.281L734.822 265.341C737.159 260.835 740.779 258.513 745.706 258.4H754.643C760.096 258.4 762.8 260.471 762.938 264.59C762.938 266.001 762.411 267.549 761.517 269.233L731.568 326.267L764.221 431.71C764.748 433.258 765 434.806 765 436.217C765 440.723 762.273 443.044 756.843 443.044H745.317C739.863 443.044 736.38 440.473 734.822 435.443L711.632 360.77L699.969 384.189V433.759C699.969 439.926 696.852 443.022 690.757 443.022H680.124C673.915 443.022 670.798 439.926 670.798 433.759L670.775 433.736Z" fill="white"/>
</g>
<defs>
<clipPath id="clip0_824_16">
<rect width="764" height="446" fill="white" transform="translate(0 0.525391)"/>
</clipPath>
</defs>
</svg>
