<svg width="1365" height="253" viewBox="0 0 1365 253" fill="none" xmlns="http://www.w3.org/2000/svg">
<rect x="471" y="51" width="63" height="154" fill="white"/>
<path d="M1 210.862V45.4703C1 39.3052 4.10354 36.2453 10.2878 36.2453H43.8562C72.7693 36.2453 87.2372 51.3633 87.2372 81.7581V99.8453C87.2372 130.104 72.7921 145.222 43.8562 145.222H30.05V210.862C30.05 217.004 26.9465 220.087 20.8763 220.087H10.2878C4.08072 220.087 1 217.004 1 210.862ZM43.7193 118.93C48.4887 118.93 52.1171 117.638 54.4219 114.963C56.7267 112.289 57.9134 107.778 57.9134 101.5V79.6955C57.9134 73.4171 56.7495 68.9293 54.4219 66.368C52.0942 63.8068 48.6028 62.5149 43.8334 62.5149H30.0272V119.066L43.7193 118.93Z" fill="white"/>
<path d="M102.983 210.862V45.4703C102.983 39.3052 106.087 36.2453 112.271 36.2453H122.859C129.044 36.2453 132.147 39.3279 132.033 45.4703V193.795H170.622C176.829 193.795 179.91 196.877 179.91 203.02V210.839C179.91 216.982 176.806 220.064 170.622 220.064H112.271C106.064 220.064 102.983 216.982 102.983 210.839V210.862Z" fill="white"/>
<path d="M196.568 220.087C190.749 220.087 187.92 217.526 188.057 212.267C188.057 211.746 188.193 210.975 188.308 209.819L216.057 44.6996C216.97 39.0559 220.187 36.2453 225.869 36.2453H248.324C254.007 36.2453 257.224 39.0785 258 44.6996L285.749 209.819C285.886 210.839 286 211.61 286.137 212.267C286.137 217.526 283.171 220.087 277.352 220.087H267.037C260.967 220.087 257.612 217.276 256.973 211.633L253.094 183.55V184.071H218.886L215.007 211.633C214.368 217.276 211.014 220.087 204.943 220.087H196.546H196.568ZM249.488 159.184L235.933 68.2946H235.408L222.241 159.184H249.488Z" fill="white"/>
<path d="M300.856 210.862V45.4703C300.856 39.3052 303.96 36.2453 310.144 36.2453H329.108C334.79 36.2453 338.281 38.9425 339.422 44.201L365.62 146.378H366.145V45.4703C366.145 39.3052 369.248 36.2453 375.432 36.2453H382.781C388.965 36.2453 392.068 39.3279 392.068 45.4703V210.862C392.068 217.004 388.965 220.087 382.781 220.087H370.389C364.707 220.087 361.216 217.526 360.052 212.267L327.259 85.8605H326.734V210.862C326.734 217.004 323.631 220.087 317.447 220.087H310.098C303.891 220.087 300.811 217.004 300.811 210.862H300.856Z" fill="white"/>
<path d="M604.866 210.862V45.4703C604.866 39.3052 607.969 36.2453 614.154 36.2453H633.117C638.799 36.2453 642.291 38.9425 643.455 44.201L669.652 146.378H670.177V45.4703C670.177 39.3052 673.281 36.2453 679.465 36.2453H686.813C692.997 36.2453 696.101 39.3279 696.101 45.4703V210.862C696.101 217.004 692.997 220.087 686.813 220.087H674.422C668.739 220.087 665.248 217.526 664.084 212.267L631.292 85.8605H630.767V210.862C630.767 217.004 627.663 220.087 621.479 220.087H614.131C607.924 220.087 604.843 217.004 604.843 210.862H604.866Z" fill="white"/>
<path d="M717.689 210.862V45.4703C717.689 39.3052 720.792 36.2453 726.976 36.2453H787.769C793.953 36.2453 797.057 39.3279 796.943 45.4703V53.4259C796.943 59.5683 793.839 62.6509 787.769 62.5375H746.716V111.133H777.432C783.616 111.133 786.719 114.215 786.605 120.358V128.177C786.605 134.32 783.502 137.402 777.432 137.402H746.716V193.817H787.769C793.953 193.817 797.057 196.9 796.943 203.042V210.862C796.943 217.004 793.839 220.087 787.769 220.087H726.976C720.792 220.087 717.689 217.004 717.689 210.862Z" fill="white"/>
<path d="M836.308 210.862V62.5149H815.13C808.946 62.5149 805.843 59.4323 805.957 53.4033V45.4476C805.957 39.2825 809.06 36.2227 815.13 36.2227H886.512C892.719 36.2227 895.8 39.3052 895.8 45.4476V53.4033C895.8 59.5457 892.696 62.6282 886.512 62.5149H865.335V210.862C865.335 217.004 862.231 220.087 856.161 220.087H845.573C839.388 220.087 836.285 217.004 836.285 210.862H836.308Z" fill="white"/>
<path d="M921.632 211.361L904.722 48.1448L904.471 44.677C904.471 39.0332 907.324 36.2227 913.12 36.2227H922.682C928.501 36.2227 931.718 39.1692 932.243 44.949L944.635 177.521H945.16L958.464 44.949C958.989 39.1692 962.069 36.2227 967.888 36.2227H982.219C988.039 36.2227 991.256 39.1692 991.781 44.949L1004.95 177.521H1005.47L1017.86 44.949C1018.39 39.1692 1021.61 36.2227 1027.43 36.2227H1034C1039.79 36.2227 1042.78 39.0559 1042.78 44.677L1042.53 48.1448L1025.62 211.361C1025.1 217.14 1021.88 220.087 1016.06 220.087H997.349C991.279 220.087 988.061 217.14 987.536 211.361L975.145 96.1054H974.62L962.092 211.361C961.567 217.14 958.35 220.087 952.416 220.087H931.239C925.443 220.087 922.202 217.14 921.678 211.361H921.632Z" fill="white"/>
<path d="M1099.65 222.648C1085.46 222.648 1074.62 218.682 1067 210.59C1059.37 202.498 1055.63 191.097 1055.63 176.365V79.6955C1055.63 64.9628 1059.37 53.5393 1067 45.4703C1074.62 37.4013 1085.59 33.4121 1099.79 33.4121C1113.98 33.4121 1124.96 37.3786 1132.58 45.4703C1140.2 53.5393 1144.06 64.9628 1144.06 79.6955V176.365C1144.06 191.097 1140.32 202.521 1132.7 210.59C1125.07 218.659 1114.1 222.648 1099.9 222.648H1099.65ZM1114.76 178.291V78.0409C1114.76 65.9827 1109.72 59.9536 1099.65 59.9536C1089.59 59.9536 1084.54 65.9827 1084.54 78.0409V178.291C1084.54 190.463 1089.59 196.492 1099.65 196.492C1109.72 196.492 1114.76 190.463 1114.76 178.291Z" fill="white"/>
<path d="M1172.84 220.087C1166.65 220.087 1163.55 217.004 1163.55 210.862V45.4703C1163.55 39.3052 1166.65 36.2453 1172.84 36.2453H1206.66C1221.63 36.2453 1232.6 39.7132 1239.45 46.6262C1246.29 53.5393 1249.76 64.1921 1249.76 78.5395V89.827C1249.76 108.934 1243.44 120.992 1230.66 126.115V126.636C1243.58 130.603 1250.01 143.567 1250.01 165.485V197.784C1250.01 203.541 1250.26 207.666 1250.79 210.091C1251.18 211.769 1251.31 212.902 1251.31 213.559C1251.31 217.911 1248.6 220.087 1243.3 220.087H1231.69C1225.5 220.087 1222.13 217.526 1221.74 212.267C1221.21 209.071 1220.96 204.198 1220.83 197.534V163.944C1220.83 155.603 1219.53 149.71 1216.83 146.378C1214.12 143.046 1209.48 141.369 1202.75 141.369H1192.69V210.862C1192.69 217.004 1189.59 220.087 1183.52 220.087H1172.81H1172.84ZM1203.3 115.077C1209.12 115.077 1213.5 113.535 1216.33 110.589C1219.16 107.642 1220.6 102.633 1220.6 95.5841V81.4861C1220.6 68.9293 1215.69 62.6509 1205.88 62.5149H1192.58V115.077H1203.3Z" fill="white"/>
<path d="M1270.16 210.862V45.4703C1270.16 39.3052 1273.27 36.2453 1279.45 36.2453H1290.04C1296.25 36.2453 1299.33 39.3279 1299.21 45.4703V113.807L1333.95 43.1584C1336.27 38.6706 1339.88 36.3587 1344.79 36.2453H1353.69C1359.12 36.2453 1361.81 38.3079 1361.95 42.4104C1361.95 43.8157 1361.42 45.3569 1360.53 47.0342L1330.71 103.834L1363.22 208.845C1363.75 210.386 1364 211.927 1364 213.332C1364 217.82 1361.28 220.132 1355.88 220.132H1344.4C1338.97 220.132 1335.5 217.571 1333.95 212.562L1310.85 138.196L1299.24 161.519V210.885C1299.24 217.027 1296.13 220.109 1290.06 220.109H1279.47C1273.29 220.109 1270.19 217.027 1270.19 210.885L1270.16 210.862Z" fill="white"/>
<path d="M501.148 133.232H493.39V166.754H503.362C506.351 166.754 508.588 165.916 510.048 164.306C511.509 162.697 512.262 159.887 512.262 155.92V146.4C512.262 141.437 511.417 138.014 509.66 136.11C507.903 134.206 505.051 133.209 501.148 133.209V133.232Z" fill="url(#paint0_radial_801_159)"/>
<path d="M507.903 114.94C509.592 113.195 510.436 110.226 510.436 106.101V100.004C510.436 92.5468 507.515 88.8069 501.696 88.7163H493.344V117.592H500.167C503.613 117.592 506.237 116.686 507.926 114.918L507.903 114.94Z" fill="url(#paint1_radial_801_159)"/>
<path d="M501.673 1C473.08 1 449.872 24.0284 449.872 52.4511V200.549C449.872 228.949 473.057 252 501.673 252C530.267 252 553.475 228.972 553.475 200.549V52.4511C553.475 24.051 530.29 1 501.673 1ZM529.468 156.464C529.468 164.918 527.232 171.333 522.805 175.753C520.021 178.518 516.438 180.399 512.056 181.442V185.318C512.056 188.083 509.774 190.349 506.99 190.349C504.206 190.349 501.901 188.083 501.901 185.318V182.371H493.344V185.318C493.344 188.083 491.062 190.349 488.278 190.349C485.494 190.349 483.212 188.083 483.212 185.318V182.371H481.637C477.963 182.371 476.115 180.535 476.115 176.886V78.5847C476.115 74.9355 477.963 73.0996 481.637 73.0996H483.212V67.6598C483.212 64.8946 485.494 62.6281 488.278 62.6281C491.062 62.6281 493.344 64.8946 493.344 67.6598V73.0996H501.901V67.6598C501.901 64.8946 504.183 62.6281 506.99 62.6281C509.797 62.6281 512.056 64.8946 512.056 67.6598V73.5529C512.056 73.7796 512.011 73.9836 511.988 74.1876C516.027 75.1849 519.268 76.8621 521.664 79.2647C525.726 83.3898 527.802 89.7136 527.802 98.2359V102.588C527.802 113.785 524.037 120.947 516.598 124.007V124.301C525.201 127.203 529.491 134.818 529.491 147.08V156.464H529.468Z" fill="url(#paint2_radial_801_159)"/>
<defs>
<radialGradient id="paint0_radial_801_159" cx="0" cy="0" r="1" gradientUnits="userSpaceOnUse" gradientTransform="translate(479 34) rotate(85.8239) scale(157.919 65.1831)">
<stop stop-color="#FF9900"/>
<stop offset="1" stop-color="#FF5C00"/>
</radialGradient>
<radialGradient id="paint1_radial_801_159" cx="0" cy="0" r="1" gradientUnits="userSpaceOnUse" gradientTransform="translate(479 34) rotate(85.8239) scale(157.919 65.1831)">
<stop stop-color="#FF9900"/>
<stop offset="1" stop-color="#FF5C00"/>
</radialGradient>
<radialGradient id="paint2_radial_801_159" cx="0" cy="0" r="1" gradientUnits="userSpaceOnUse" gradientTransform="translate(479 34) rotate(85.8239) scale(157.919 65.1831)">
<stop stop-color="#FF9900"/>
<stop offset="1" stop-color="#FF5C00"/>
</radialGradient>
</defs>
</svg>
