<svg width="502" height="93" viewBox="0 0 502 93" fill="none" xmlns="http://www.w3.org/2000/svg">
<g clip-path="url(#clip0_1022_6349)">
<rect x="172.85" y="18.3795" width="23.1692" height="56.6087" fill="white"/>
<path d="M0.367767 77.5105V16.7144C0.367767 14.4482 1.50914 13.3234 3.7835 13.3234H16.1288C26.762 13.3234 32.0829 18.8806 32.0829 30.0534V36.702C32.0829 47.8248 26.7704 53.382 16.1288 53.382H11.0514V77.5105C11.0514 79.7684 9.90999 80.9015 7.67759 80.9015H3.7835C1.50075 80.9015 0.367767 79.7684 0.367767 77.5105ZM16.0784 43.7173C17.8325 43.7173 19.1669 43.2424 20.0145 42.2592C20.8621 41.2761 21.2985 39.6181 21.2985 37.3102V29.2952C21.2985 26.9873 20.8705 25.3376 20.0145 24.3962C19.1585 23.4547 17.8744 22.9798 16.1204 22.9798H11.043V43.7673L16.0784 43.7173Z" fill="black"/>
<path d="M37.8736 77.5105V16.7144C37.8736 14.4482 39.015 13.3234 41.2894 13.3234H45.1835C47.4578 13.3234 48.5992 14.4565 48.5572 16.7144V71.2368H62.7489C65.0316 71.2368 66.1646 72.3699 66.1646 74.6277V77.5022C66.1646 79.76 65.0232 80.8932 62.7489 80.8932H41.2894C39.0066 80.8932 37.8736 79.76 37.8736 77.5022V77.5105Z" fill="black"/>
<path d="M72.2911 80.9015C70.151 80.9015 69.1104 79.96 69.1607 78.0271C69.1607 77.8354 69.2111 77.5522 69.253 77.1272L79.4582 16.4311C79.7939 14.3565 80.9773 13.3234 83.067 13.3234H91.3252C93.4149 13.3234 94.5982 14.3648 94.8836 16.4311L105.089 77.1272C105.139 77.5022 105.181 77.7854 105.231 78.0271C105.231 79.96 104.14 80.9015 102 80.9015H98.207C95.9746 80.9015 94.7409 79.8684 94.5059 77.7938L93.0792 67.4709V67.6625H80.4989L79.0722 77.7938C78.8372 79.8684 77.6035 80.9015 75.3711 80.9015H72.2827H72.2911ZM91.7532 58.5143L86.7681 25.1043H86.5751L81.7326 58.5143H91.7532Z" fill="black"/>
<path d="M110.645 77.5105V16.7144C110.645 14.4482 111.786 13.3234 114.06 13.3234H121.034C123.124 13.3234 124.408 14.3148 124.828 16.2478L134.462 53.8069H134.655V16.7144C134.655 14.4482 135.797 13.3234 138.071 13.3234H140.774C143.048 13.3234 144.189 14.4565 144.189 16.7144V77.5105C144.189 79.7684 143.048 80.9015 140.774 80.9015H136.216C134.127 80.9015 132.843 79.96 132.415 78.0271L120.355 31.5614H120.162V77.5105C120.162 79.7684 119.02 80.9015 116.746 80.9015H114.044C111.761 80.9015 110.628 79.7684 110.628 77.5105H110.645Z" fill="black"/>
<path d="M222.449 77.5105V16.7144C222.449 14.4482 223.59 13.3234 225.865 13.3234H232.839C234.928 13.3234 236.213 14.3148 236.641 16.2478L246.275 53.8069H246.468V16.7144C246.468 14.4482 247.609 13.3234 249.884 13.3234H252.586C254.861 13.3234 256.002 14.4565 256.002 16.7144V77.5105C256.002 79.7684 254.861 80.9015 252.586 80.9015H248.029C245.939 80.9015 244.655 79.96 244.227 78.0271L232.167 31.5614H231.974V77.5105C231.974 79.7684 230.833 80.9015 228.559 80.9015H225.856C223.573 80.9015 222.44 79.7684 222.44 77.5105H222.449Z" fill="black"/>
<path d="M263.941 77.5105V16.7144C263.941 14.4482 265.083 13.3234 267.357 13.3234H289.714C291.989 13.3234 293.13 14.4565 293.088 16.7144V19.6388C293.088 21.8967 291.947 23.0298 289.714 22.9881H274.616V40.8512H285.913C288.187 40.8512 289.328 41.9843 289.286 44.2422V47.1166C289.286 49.3745 288.145 50.5076 285.913 50.5076H274.616V71.2451H289.714C291.989 71.2451 293.13 72.3782 293.088 74.6361V77.5105C293.088 79.7684 291.947 80.9015 289.714 80.9015H267.357C265.083 80.9015 263.941 79.7684 263.941 77.5105Z" fill="black"/>
<path d="M307.565 77.5105V22.9798H299.777C297.503 22.9798 296.361 21.8467 296.403 19.6304V16.706C296.403 14.4398 297.545 13.315 299.777 13.315H326.029C328.311 13.315 329.444 14.4482 329.444 16.706V19.6304C329.444 21.8883 328.303 23.0214 326.029 22.9798H318.24V77.5105C318.24 79.7684 317.099 80.9015 314.867 80.9015H310.972C308.698 80.9015 307.557 79.7684 307.557 77.5105H307.565Z" fill="black"/>
<path d="M338.945 77.6938L332.726 17.6975L332.633 16.4228C332.633 14.3482 333.682 13.315 335.814 13.315H339.331C341.471 13.315 342.654 14.3982 342.847 16.5227L347.404 65.2546H347.597L352.49 16.5227C352.683 14.3982 353.816 13.315 355.956 13.315H361.226C363.367 13.315 364.55 14.3982 364.743 16.5227L369.585 65.2546H369.778L374.335 16.5227C374.529 14.3982 375.712 13.315 377.852 13.315H380.269C382.401 13.315 383.5 14.3565 383.5 16.4228L383.408 17.6975L377.189 77.6938C376.996 79.8184 375.813 80.9015 373.672 80.9015H366.791C364.558 80.9015 363.375 79.8184 363.182 77.6938L358.625 35.3273H358.432L353.824 77.6938C353.631 79.8184 352.448 80.9015 350.266 80.9015H342.478C340.346 80.9015 339.154 79.8184 338.961 77.6938H338.945Z" fill="black"/>
<path d="M404.414 81.843C399.194 81.843 395.208 80.3849 392.404 77.4105C389.601 74.4361 388.225 70.2453 388.225 64.8297V29.2952C388.225 23.8796 389.601 19.6804 392.404 16.7144C395.208 13.7483 399.244 12.2819 404.464 12.2819C409.685 12.2819 413.721 13.74 416.524 16.7144C419.327 19.6804 420.746 23.8796 420.746 29.2952V64.8297C420.746 70.2453 419.369 74.4444 416.566 77.4105C413.763 80.3766 409.726 81.843 404.506 81.843H404.414ZM409.97 65.5379V28.687C409.97 24.2545 408.115 22.0383 404.414 22.0383C400.713 22.0383 398.858 24.2545 398.858 28.687V65.5379C398.858 70.012 400.713 72.2282 404.414 72.2282C408.115 72.2282 409.97 70.012 409.97 65.5379Z" fill="black"/>
<path d="M431.329 80.9015C429.054 80.9015 427.913 79.7684 427.913 77.5105V16.7144C427.913 14.4482 429.054 13.3234 431.329 13.3234H443.766C449.272 13.3234 453.308 14.5981 455.826 17.1393C458.344 19.6804 459.62 23.5963 459.62 28.8703V33.0194C459.62 40.043 457.295 44.4755 452.595 46.3584V46.55C457.345 48.0081 459.712 52.7738 459.712 60.8305V72.7031C459.712 74.8194 459.804 76.3357 459.997 77.2272C460.14 77.8438 460.19 78.2603 460.19 78.502C460.19 80.1016 459.192 80.9015 457.245 80.9015H452.973C450.698 80.9015 449.456 79.96 449.314 78.0271C449.121 76.8523 449.028 75.061 448.978 72.6115V60.264C448.978 57.1979 448.5 55.0317 447.509 53.8069C446.511 52.5822 444.807 51.9656 442.331 51.9656H438.63V77.5105C438.63 79.7684 437.489 80.9015 435.256 80.9015H431.32H431.329ZM442.533 42.3009C444.673 42.3009 446.284 41.7343 447.325 40.6512C448.365 39.5681 448.894 37.7268 448.894 35.1357V29.9534C448.894 25.3376 447.09 23.0298 443.481 22.9798H438.588V42.3009H442.533Z" fill="black"/>
<path d="M467.122 77.5105V16.7144C467.122 14.4482 468.264 13.3234 470.538 13.3234H474.432C476.715 13.3234 477.848 14.4565 477.806 16.7144V41.8343L490.579 15.8645C491.435 14.2149 492.761 13.365 494.566 13.3234H497.839C499.836 13.3234 500.827 14.0816 500.877 15.5896C500.877 16.1062 500.684 16.6727 500.357 17.2892L489.388 38.1684L501.347 76.769C501.54 77.3355 501.632 77.9021 501.632 78.4186C501.632 80.0683 500.634 80.9181 498.645 80.9181H494.423C492.426 80.9181 491.15 79.9767 490.579 78.1354L482.086 50.7992L477.814 59.3725V77.5188C477.814 79.7767 476.673 80.9098 474.441 80.9098H470.547C468.272 80.9098 467.131 79.7767 467.131 77.5188L467.122 77.5105Z" fill="black"/>
<path d="M184.305 48.9745H181.452V61.2971H185.119C186.219 61.2971 187.041 60.9888 187.578 60.3972C188.115 59.8057 188.392 58.7726 188.392 57.3145V53.8152C188.392 51.9906 188.082 50.7325 187.435 50.0326C186.789 49.3328 185.74 48.9662 184.305 48.9662V48.9745Z" fill="url(#paint0_radial_1022_6349)"/>
<path d="M186.789 42.2509C187.41 41.6093 187.721 40.5179 187.721 39.0015V36.7603C187.721 34.0192 186.647 32.6445 184.507 32.6111H181.435V43.2257H183.944C185.211 43.2257 186.177 42.8924 186.798 42.2425L186.789 42.2509Z" fill="url(#paint1_radial_1022_6349)"/>
<path d="M184.498 0.367615C173.982 0.367615 165.447 8.83258 165.447 19.2805V73.7196C165.447 84.1591 173.974 92.6324 184.498 92.6324C195.014 92.6324 203.549 84.1675 203.549 73.7196V19.2805C203.549 8.84092 195.022 0.367615 184.498 0.367615ZM194.72 57.5145C194.72 60.6222 193.898 62.98 192.27 64.6047C191.246 65.6212 189.928 66.3127 188.317 66.696V68.1207C188.317 69.1371 187.477 69.9703 186.454 69.9703C185.43 69.9703 184.582 69.1371 184.582 68.1207V67.0376H181.435V68.1207C181.435 69.1371 180.596 69.9703 179.572 69.9703C178.548 69.9703 177.709 69.1371 177.709 68.1207V67.0376H177.13C175.778 67.0376 175.099 66.3627 175.099 65.0213V28.8869C175.099 27.5455 175.778 26.8706 177.13 26.8706H177.709V24.871C177.709 23.8546 178.548 23.0214 179.572 23.0214C180.596 23.0214 181.435 23.8546 181.435 24.871V26.8706H184.582V24.871C184.582 23.8546 185.421 23.0214 186.454 23.0214C187.486 23.0214 188.317 23.8546 188.317 24.871V27.0373C188.317 27.1206 188.3 27.1956 188.292 27.2705C189.777 27.6371 190.969 28.2537 191.85 29.1368C193.344 30.6532 194.107 32.9777 194.107 36.1104V37.7101C194.107 41.826 192.723 44.4588 189.987 45.5835V45.6919C193.151 46.7583 194.729 49.5577 194.729 54.0652V57.5145H194.72Z" fill="url(#paint2_radial_1022_6349)"/>
</g>
<defs>
<radialGradient id="paint0_radial_1022_6349" cx="0" cy="0" r="1" gradientUnits="userSpaceOnUse" gradientTransform="translate(176.16 12.498) rotate(85.8219) scale(58.0495 23.972)">
<stop stop-color="#FF9900"/>
<stop offset="1" stop-color="#FF5C00"/>
</radialGradient>
<radialGradient id="paint1_radial_1022_6349" cx="0" cy="0" r="1" gradientUnits="userSpaceOnUse" gradientTransform="translate(176.16 12.498) rotate(85.8219) scale(58.0495 23.972)">
<stop stop-color="#FF9900"/>
<stop offset="1" stop-color="#FF5C00"/>
</radialGradient>
<radialGradient id="paint2_radial_1022_6349" cx="0" cy="0" r="1" gradientUnits="userSpaceOnUse" gradientTransform="translate(176.16 12.498) rotate(85.8219) scale(58.0495 23.972)">
<stop stop-color="#FF9900"/>
<stop offset="1" stop-color="#FF5C00"/>
</radialGradient>
<clipPath id="clip0_1022_6349">
<rect width="502" height="93" fill="white"/>
</clipPath>
</defs>
</svg>
