<svg width="502" height="93" viewBox="0 0 502 93" fill="none" xmlns="http://www.w3.org/2000/svg">
<g clip-path="url(#clip0_1022_6355)">
<rect x="173.218" y="18.747" width="23.1692" height="56.6087" fill="white"/>
<path d="M0.367767 77.5104V16.7143C0.367767 14.4481 1.50914 13.3233 3.7835 13.3233H16.1288C26.762 13.3233 32.0829 18.8805 32.0829 30.0533V36.7019C32.0829 47.8247 26.7704 53.3819 16.1288 53.3819H11.0514V77.5104C11.0514 79.7683 9.90999 80.9014 7.67759 80.9014H3.7835C1.50075 80.9014 0.367767 79.7683 0.367767 77.5104ZM16.0784 43.7172C17.8325 43.7172 19.1669 43.2423 20.0145 42.2592C20.8621 41.276 21.2985 39.618 21.2985 37.3101V29.2951C21.2985 26.9872 20.8705 25.3375 20.0145 24.3961C19.1585 23.4546 17.8744 22.9797 16.1204 22.9797H11.043V43.7672L16.0784 43.7172Z" fill="white"/>
<path d="M37.8736 77.5104V16.7143C37.8736 14.4481 39.015 13.3233 41.2894 13.3233H45.1835C47.4578 13.3233 48.5992 14.4564 48.5572 16.7143V71.2367H62.7489C65.0316 71.2367 66.1646 72.3698 66.1646 74.6277V77.5021C66.1646 79.76 65.0232 80.8931 62.7489 80.8931H41.2894C39.0066 80.8931 37.8736 79.76 37.8736 77.5021V77.5104Z" fill="white"/>
<path d="M72.2911 80.9014C70.151 80.9014 69.1104 79.9599 69.1607 78.027C69.1607 77.8354 69.2111 77.5521 69.253 77.1272L79.4582 16.431C79.7939 14.3564 80.9773 13.3233 83.067 13.3233H91.3252C93.4149 13.3233 94.5982 14.3647 94.8836 16.431L105.089 77.1272C105.139 77.5021 105.181 77.7854 105.231 78.027C105.231 79.9599 104.14 80.9014 102 80.9014H98.207C95.9746 80.9014 94.7409 79.8683 94.5059 77.7937L93.0792 67.4708V67.6624H80.4989L79.0722 77.7937C78.8372 79.8683 77.6035 80.9014 75.3711 80.9014H72.2827H72.2911ZM91.7532 58.5142L86.7681 25.1043H86.5751L81.7326 58.5142H91.7532Z" fill="white"/>
<path d="M110.645 77.5104V16.7143C110.645 14.4481 111.786 13.3233 114.06 13.3233H121.034C123.124 13.3233 124.408 14.3148 124.828 16.2477L134.462 53.8068H134.655V16.7143C134.655 14.4481 135.797 13.3233 138.071 13.3233H140.774C143.048 13.3233 144.189 14.4564 144.189 16.7143V77.5104C144.189 79.7683 143.048 80.9014 140.774 80.9014H136.216C134.127 80.9014 132.843 79.9599 132.415 78.027L120.355 31.5613H120.162V77.5104C120.162 79.7683 119.02 80.9014 116.746 80.9014H114.044C111.761 80.9014 110.628 79.7683 110.628 77.5104H110.645Z" fill="white"/>
<path d="M222.449 77.5104V16.7143C222.449 14.4481 223.59 13.3233 225.865 13.3233H232.839C234.928 13.3233 236.213 14.3148 236.641 16.2477L246.275 53.8068H246.468V16.7143C246.468 14.4481 247.609 13.3233 249.884 13.3233H252.586C254.861 13.3233 256.002 14.4564 256.002 16.7143V77.5104C256.002 79.7683 254.861 80.9014 252.586 80.9014H248.029C245.939 80.9014 244.655 79.9599 244.227 78.027L232.167 31.5613H231.974V77.5104C231.974 79.7683 230.833 80.9014 228.559 80.9014H225.856C223.573 80.9014 222.44 79.7683 222.44 77.5104H222.449Z" fill="white"/>
<path d="M263.941 77.5104V16.7143C263.941 14.4481 265.083 13.3233 267.357 13.3233H289.714C291.989 13.3233 293.13 14.4564 293.088 16.7143V19.6387C293.088 21.8966 291.947 23.0297 289.714 22.988H274.616V40.8511H285.913C288.187 40.8511 289.328 41.9842 289.286 44.2421V47.1165C289.286 49.3744 288.145 50.5075 285.913 50.5075H274.616V71.245H289.714C291.989 71.245 293.13 72.3781 293.088 74.636V77.5104C293.088 79.7683 291.947 80.9014 289.714 80.9014H267.357C265.083 80.9014 263.941 79.7683 263.941 77.5104Z" fill="white"/>
<path d="M307.565 77.5104V22.9797H299.777C297.503 22.9797 296.361 21.8466 296.403 19.6304V16.7059C296.403 14.4397 297.545 13.315 299.777 13.315H326.029C328.311 13.315 329.444 14.4481 329.444 16.7059V19.6304C329.444 21.8882 328.303 23.0213 326.029 22.9797H318.24V77.5104C318.24 79.7683 317.099 80.9014 314.867 80.9014H310.972C308.698 80.9014 307.557 79.7683 307.557 77.5104H307.565Z" fill="white"/>
<path d="M338.945 77.6937L332.726 17.6974L332.633 16.4227C332.633 14.3481 333.682 13.315 335.814 13.315H339.331C341.471 13.315 342.654 14.3981 342.847 16.5226L347.404 65.2545H347.597L352.49 16.5226C352.683 14.3981 353.816 13.315 355.956 13.315H361.226C363.367 13.315 364.55 14.3981 364.743 16.5226L369.585 65.2545H369.778L374.335 16.5226C374.529 14.3981 375.712 13.315 377.852 13.315H380.269C382.401 13.315 383.5 14.3564 383.5 16.4227L383.408 17.6974L377.189 77.6937C376.996 79.8183 375.813 80.9014 373.672 80.9014H366.791C364.558 80.9014 363.375 79.8183 363.182 77.6937L358.625 35.3272H358.432L353.824 77.6937C353.631 79.8183 352.448 80.9014 350.266 80.9014H342.478C340.346 80.9014 339.154 79.8183 338.961 77.6937H338.945Z" fill="white"/>
<path d="M404.414 81.8429C399.194 81.8429 395.208 80.3848 392.404 77.4104C389.601 74.436 388.225 70.2452 388.225 64.8296V29.2951C388.225 23.8795 389.601 19.6803 392.404 16.7143C395.208 13.7482 399.244 12.2818 404.464 12.2818C409.685 12.2818 413.721 13.7399 416.524 16.7143C419.327 19.6803 420.746 23.8795 420.746 29.2951V64.8296C420.746 70.2452 419.369 74.4444 416.566 77.4104C413.763 80.3765 409.726 81.8429 404.506 81.8429H404.414ZM409.97 65.5378V28.6869C409.97 24.2544 408.115 22.0382 404.414 22.0382C400.713 22.0382 398.858 24.2544 398.858 28.6869V65.5378C398.858 70.0119 400.713 72.2281 404.414 72.2281C408.115 72.2281 409.97 70.0119 409.97 65.5378Z" fill="white"/>
<path d="M431.329 80.9014C429.054 80.9014 427.913 79.7683 427.913 77.5104V16.7143C427.913 14.4481 429.054 13.3233 431.329 13.3233H443.766C449.272 13.3233 453.308 14.598 455.826 17.1392C458.344 19.6803 459.62 23.5962 459.62 28.8702V33.0193C459.62 40.0429 457.295 44.4754 452.595 46.3583V46.55C457.345 48.008 459.712 52.7737 459.712 60.8304V72.703C459.712 74.8193 459.804 76.3356 459.997 77.2271C460.14 77.8437 460.19 78.2603 460.19 78.5019C460.19 80.1016 459.192 80.9014 457.245 80.9014H452.973C450.698 80.9014 449.456 79.9599 449.314 78.027C449.121 76.8522 449.028 75.0609 448.978 72.6114V60.2639C448.978 57.1978 448.5 55.0316 447.509 53.8068C446.511 52.5821 444.807 51.9655 442.331 51.9655H438.63V77.5104C438.63 79.7683 437.489 80.9014 435.256 80.9014H431.32H431.329ZM442.533 42.3008C444.673 42.3008 446.284 41.7343 447.325 40.6511C448.365 39.568 448.894 37.7267 448.894 35.1356V29.9533C448.894 25.3375 447.09 23.0297 443.481 22.9797H438.588V42.3008H442.533Z" fill="white"/>
<path d="M467.122 77.5104V16.7143C467.122 14.4481 468.264 13.3233 470.538 13.3233H474.432C476.715 13.3233 477.848 14.4564 477.806 16.7143V41.8342L490.579 15.8644C491.435 14.2148 492.761 13.3649 494.566 13.3233H497.839C499.836 13.3233 500.827 14.0815 500.877 15.5895C500.877 16.1061 500.684 16.6726 500.357 17.2892L489.388 38.1683L501.347 76.7689C501.54 77.3354 501.632 77.902 501.632 78.4186C501.632 80.0682 500.634 80.9181 498.645 80.9181H494.423C492.426 80.9181 491.15 79.9766 490.579 78.1353L482.086 50.7991L477.814 59.3724V77.5187C477.814 79.7766 476.673 80.9097 474.441 80.9097H470.547C468.272 80.9097 467.131 79.7766 467.131 77.5187L467.122 77.5104Z" fill="white"/>
<path d="M184.305 48.9745H181.452V61.297H185.119C186.219 61.297 187.041 60.9888 187.578 60.3972C188.115 59.8057 188.392 58.7725 188.392 57.3145V53.8152C188.392 51.9906 188.082 50.7325 187.435 50.0326C186.789 49.3328 185.74 48.9662 184.305 48.9662V48.9745Z" fill="url(#paint0_radial_1022_6355)"/>
<path d="M186.789 42.2508C187.41 41.6093 187.721 40.5179 187.721 39.0015V36.7603C187.721 34.0192 186.647 32.6444 184.507 32.6111H181.435V43.2256H183.944C185.211 43.2256 186.177 42.8924 186.798 42.2425L186.789 42.2508Z" fill="url(#paint1_radial_1022_6355)"/>
<path d="M184.498 0.367584C173.982 0.367584 165.447 8.83255 165.447 19.2805V73.7195C165.447 84.1591 173.974 92.6324 184.498 92.6324C195.014 92.6324 203.549 84.1674 203.549 73.7195V19.2805C203.549 8.84089 195.022 0.367584 184.498 0.367584ZM194.72 57.5144C194.72 60.6222 193.898 62.98 192.27 64.6047C191.246 65.6212 189.928 66.3127 188.317 66.6959V68.1207C188.317 69.1371 187.477 69.9703 186.454 69.9703C185.43 69.9703 184.582 69.1371 184.582 68.1207V67.0375H181.435V68.1207C181.435 69.1371 180.596 69.9703 179.572 69.9703C178.548 69.9703 177.709 69.1371 177.709 68.1207V67.0375H177.13C175.778 67.0375 175.099 66.3627 175.099 65.0213V28.8869C175.099 27.5455 175.778 26.8706 177.13 26.8706H177.709V24.871C177.709 23.8545 178.548 23.0214 179.572 23.0214C180.596 23.0214 181.435 23.8545 181.435 24.871V26.8706H184.582V24.871C184.582 23.8545 185.421 23.0214 186.454 23.0214C187.486 23.0214 188.317 23.8545 188.317 24.871V27.0372C188.317 27.1205 188.3 27.1955 188.292 27.2705C189.777 27.6371 190.969 28.2537 191.85 29.1368C193.344 30.6532 194.107 32.9777 194.107 36.1104V37.7101C194.107 41.8259 192.723 44.4587 189.987 45.5835V45.6918C193.151 46.7583 194.729 49.5577 194.729 54.0651V57.5144H194.72Z" fill="url(#paint2_radial_1022_6355)"/>
</g>
<defs>
<radialGradient id="paint0_radial_1022_6355" cx="0" cy="0" r="1" gradientUnits="userSpaceOnUse" gradientTransform="translate(176.16 12.498) rotate(85.8219) scale(58.0495 23.972)">
<stop stop-color="#FF9900"/>
<stop offset="1" stop-color="#FF5C00"/>
</radialGradient>
<radialGradient id="paint1_radial_1022_6355" cx="0" cy="0" r="1" gradientUnits="userSpaceOnUse" gradientTransform="translate(176.16 12.498) rotate(85.8219) scale(58.0495 23.972)">
<stop stop-color="#FF9900"/>
<stop offset="1" stop-color="#FF5C00"/>
</radialGradient>
<radialGradient id="paint2_radial_1022_6355" cx="0" cy="0" r="1" gradientUnits="userSpaceOnUse" gradientTransform="translate(176.16 12.498) rotate(85.8219) scale(58.0495 23.972)">
<stop stop-color="#FF9900"/>
<stop offset="1" stop-color="#FF5C00"/>
</radialGradient>
<clipPath id="clip0_1022_6355">
<rect width="502" height="93" fill="white"/>
</clipPath>
</defs>
</svg>
