<svg width="62" height="60" viewBox="0 0 62 60" fill="none" xmlns="http://www.w3.org/2000/svg">
<path d="M4.84596 28.4487C4.71682 28.1114 6.01546 27.4111 7.22671 26.238C9.59975 23.9363 9.8684 23.2981 11.8897 20.9418C12.448 20.29 14.0668 18.4357 16.5087 17.1823C17.2407 16.8067 21.0319 14.5511 28.1279 15.7295C30.0224 16.0447 31.6649 16.8175 33.5697 15.8999C34.2325 15.5802 34.5347 15.6286 35.3946 15.045C37.7059 13.4741 40.0215 13.6476 40.6893 13.6645C42.2651 13.704 44.9347 13.7726 46.3767 15.7369C47.12 16.75 47.2178 17.8292 47.2522 18.2709C47.4955 21.3908 44.8089 23.3635 44.1414 23.5557C41.6021 24.2851 41.9991 25.5697 43.6336 25.4626C44.5172 25.4046 45.3615 25.5798 46.9251 25.9346C49.6756 26.5559 50.9898 26.5177 53.9583 26.4938C54.9991 26.4855 56.0116 26.3043 56.4773 26.812C56.866 27.2372 56.8415 28.0404 56.6029 28.5454C55.9781 29.8675 53.626 29.6864 51.9583 29.5896C46.0631 29.2484 43.1155 29.0778 40.6763 29.7246C36.7486 30.7704 34.4672 33.5146 33.3882 34.8119C32.1974 36.2443 31.7012 37.2506 31.4616 39.0478C31.1838 41.1336 31.7015 41.9126 31.2121 44.2703C30.9847 45.3578 30.6474 46.4657 30.6127 47.6378C30.6048 47.9142 30.5092 48.4744 30.7896 48.7739C31.0164 49.0165 31.4367 48.9385 31.4539 48.9341C32.3091 48.7624 32.0674 47.3282 33.2188 45.7237C33.5826 45.2165 33.9928 44.8212 34.5792 44.6209C34.8003 44.5423 35.4879 44.3094 35.791 44.6038C36.1383 44.9408 36.1138 46.035 35.0492 47.792C32.9755 51.214 31.5607 52.6726 29.938 54.3656C29.6376 54.6801 28.2724 54.8043 27.6951 54.174C26.8767 53.281 28.2366 51.3913 27.253 50.0869C26.9578 49.695 26.3112 49.5862 25.2358 49.2019C23.8433 48.7088 23.3015 48.781 22.3708 49.0218C21.684 49.1965 21.7588 49.5646 21.0318 50.2844C20.9667 50.3484 19.9731 51.2997 18.6046 51.0908C18.4062 51.0608 18.0368 50.9659 17.8915 50.5793C17.8078 50.3568 17.6446 49.9121 18.0226 49.4875C18.8792 48.525 19.0257 48.6134 19.2827 48.1585C19.7309 47.3644 19.0274 46.0407 18.7456 45.3251C18.5126 44.7368 18.4701 44.6338 18.2363 43.2229C18.0025 41.812 18.2154 40.7479 17.8666 40.3659C17.5861 40.0595 15.7062 40.6654 14.6474 40.7867C13.2611 40.9468 12.352 41.0447 10.8151 41.0811C10.6613 41.0833 8.54207 40.9326 8.34282 40.483C8.17335 40.1019 9.44369 39.434 11.1938 38.1155C12.28 37.2962 13.692 35.3362 15.2602 33.3807C15.558 33.0097 16.5054 31.6802 18.2947 28.7436C19.0942 27.4324 19.8395 26.6693 20.8853 25.5962C21.7088 24.7505 22.5979 24.0007 23.0049 23.7073C24.0729 22.9468 24.8602 22.4419 25.8224 21.8271C26.7932 21.2071 27.4834 20.8307 27.9611 20.6032C28.9934 20.1107 29.4927 19.9862 30.4962 19.4045C31.1738 19.0137 31.5046 18.6675 31.4318 18.3923C31.2326 17.6408 27.8584 17.5931 26.4484 17.5739C22.8815 17.5241 21.3844 18.6675 20.1537 19.5057C18.0654 20.9305 18.5962 20.8701 14.6548 24.3772C11.4959 27.1891 9.97879 27.953 8.55962 28.3402C6.94821 28.7841 5.00213 28.8572 4.84596 28.4487Z" fill="#B68754"/>
<path d="M45.4214 21.0428C45.8118 21.5812 46.2527 21.2863 48.2193 21.9714C49.23 22.3311 50.216 22.757 51.1707 23.2465C51.7715 23.5629 52.4149 23.7573 53.0142 24.0794C53.2524 24.2073 53.562 24.3835 53.9491 24.3639C54.014 24.3601 54.566 24.3242 54.7489 23.9381C54.8834 23.6538 54.7883 23.2449 54.4127 22.5988C54.1953 22.2235 53.3149 20.7893 50.9866 19.3121C50.2483 18.8441 49.6494 18.5699 48.4521 18.0221C47.0339 17.373 46.7778 17.3745 46.5863 17.4158C45.3626 17.6795 44.6767 20.0167 45.4214 21.0428Z" fill="#B68754"/>
<path d="M39.1043 20.1569C39.2645 20.8566 40.0495 21.2302 40.2087 21.3004C40.3218 21.3503 41.0347 21.655 41.6294 21.3369C41.8037 21.2439 42.0736 20.9588 42.4888 20.3398C42.8156 19.8518 42.8873 19.6391 42.8738 19.4487C42.836 18.9044 42.0977 18.4815 42.0116 18.4334C41.2563 18.0117 40.3851 18.1652 39.8398 18.5488C39.7197 18.6338 39.2003 19.0012 39.0998 19.6816C39.0696 19.8387 39.0711 20.0003 39.1043 20.1569Z" fill="white"/>
<path d="M39.1042 20.1565C39.2644 20.8563 40.0494 21.2298 40.2086 21.3C40.3216 21.3499 41.083 21.3815 41.3003 21.1857C41.496 21.0064 41.6382 20.7763 41.711 20.5209C41.7883 20.2755 41.7115 20.1175 41.6428 19.9326C41.5619 19.716 41.3167 19.4717 41.2375 19.4125C40.8538 19.1316 40.3022 18.9353 40.034 18.9329C39.8791 18.9336 39.1963 18.9997 39.0968 19.6817C39.0676 19.8388 39.0701 20.0003 39.1042 20.1565Z" fill="#1A1933"/>
<path d="M43.0646 19.565C43.1664 19.5771 43.2411 19.5234 43.3277 19.4614C43.4313 19.3881 43.5436 19.3086 43.5239 19.2182C43.5043 19.1279 43.3461 19.0702 43.2037 19.0215C43.0663 18.9764 42.9214 18.9581 42.7772 18.9678C42.6628 18.9709 42.6053 18.9719 42.5762 19.0034C42.4535 19.1385 42.682 19.6008 42.8062 19.604C42.8416 19.6046 42.858 19.5673 42.9284 19.5571C42.9739 19.5518 43.02 19.5545 43.0646 19.565Z" fill="#6A5544"/>
<path d="M4.84522 28.4488C4.88396 27.96 6.80967 28.2655 8.24487 27.6988C8.96882 27.413 9.46212 27.3129 12.4968 24.6636C14.7702 22.679 14.8383 22.4348 16.5088 21.0621C17.9096 19.9152 18.745 19.2323 20.0455 18.5072C21.2511 17.8347 22.511 17.1322 24.3267 16.8705C26.6916 16.5307 29.0868 17.0735 29.1333 17.4281C29.1661 17.6788 28.0157 17.7155 26.4036 18.2385C24.3982 18.8889 23.1062 19.828 21.753 20.8291C18.6128 23.1524 19.1292 23.9074 16.1735 26.2137C16.0543 26.3066 13.6854 28.1222 10.1742 29.2327C9.05233 29.5877 7.40949 29.7006 5.8922 29.2322C5.72817 29.1848 4.82091 28.7702 4.84522 28.4488Z" fill="#6A5544"/>
<path d="M8.36898 40.5221C8.35869 40.3395 10.0169 40.8545 12.211 40.371C14.601 39.8469 16.1529 38.671 17.2554 37.8176C20.2171 35.5242 21.7812 32.6107 22.4302 31.2131C23.4607 28.9907 23.4664 27.8305 24.9702 25.5961C26.0258 24.0275 26.8834 23.321 27.5732 22.8781C29.3415 21.7435 31.2483 21.5434 31.2884 21.6496C31.3212 21.7299 30.2465 21.9496 29.0706 22.798C28.5603 23.1662 27.6847 23.9032 26.819 25.4075C25.403 27.8692 25.9501 29.0211 24.8634 32.1523C24.4274 33.4085 23.6278 35.6387 21.6922 37.6549C20.5268 38.8687 19.1221 39.8269 17.5668 40.4692C15.0698 41.4954 12.8638 41.4263 11.6318 41.3753C9.82127 41.2995 8.37792 40.6939 8.36898 40.5221Z" fill="#6A5544"/>
<path d="M42.6649 24.2583C41.7143 24.493 40.3695 24.3265 39.6785 24.2428C39.1509 24.178 38.0762 24.0648 36.5563 22.8986C35.2613 21.9064 34.3992 21.4217 34.2566 21.6253C34.1212 21.8184 34.6246 22.5133 34.7294 22.6547C35.3249 23.4557 36.0032 23.8728 36.6414 24.1697C37.7165 24.671 38.2894 24.8219 39.1194 24.8461C40.6361 24.891 40.7985 24.857 41.6135 24.7339C42.1776 24.6459 42.3948 24.63 42.5074 24.4476C42.5563 24.3663 42.7764 24.2315 42.6649 24.2583Z" fill="white"/>
</svg>
