<svg width="78" height="77" viewBox="0 0 78 77" fill="none" xmlns="http://www.w3.org/2000/svg">
<g clip-path="url(#clip0_1014_1943)">
<path d="M61.4818 36.1927L53.4644 30.9875C53.3821 30.9341 53.2816 30.9246 53.1914 30.96C53.1016 30.9967 53.0324 31.0742 53.0055 31.1695L48.5866 46.8516C48.5472 46.9923 48.6049 47.1413 48.7271 47.2127L56.6177 51.866C56.6514 51.8857 56.6885 51.8985 56.7267 51.904C56.779 51.9115 56.8326 51.905 56.883 51.8843C56.9697 51.8478 57.0367 51.7737 57.0643 51.6816L61.6107 36.5515C61.6514 36.4141 61.5994 36.2672 61.4831 36.1922L61.4818 36.1927Z" fill="#7A2E36"/>
<path d="M49.0149 33.3443C49.0149 33.3443 49.4124 33.0016 49.7755 32.8939C49.7755 32.8939 59.9092 36.1098 60.4764 36.4714L56.0098 51.9472L45.185 49.232L49.0149 33.3443Z" fill="#FFF8C6"/>
<path d="M60.7015 36.7117C60.6607 36.6364 60.5929 36.5826 60.5123 36.5599L48.5982 33.3547C48.4447 33.3178 48.2715 33.4094 48.2242 33.5755L43.8053 49.2577C43.7819 49.3417 43.7923 49.4319 43.8355 49.5069C43.8781 49.5812 43.949 49.6342 44.0314 49.6534L55.8191 52.3074C55.8266 52.3091 55.8343 52.3102 55.8419 52.3113C55.9905 52.3326 56.1345 52.2399 56.1795 52.0889L60.7254 36.9581C60.7498 36.8754 60.7416 36.7868 60.7015 36.7117Z" fill="#6F2626"/>
<path d="M61.7298 36.2677C61.6636 36.2067 61.5681 36.1911 61.4855 36.2282L60.5703 36.6409C60.5082 36.6686 60.4615 36.7226 60.4417 36.7892L55.7621 52.2294C55.735 52.3178 55.7602 52.4138 55.8269 52.4754C55.8613 52.507 55.9033 52.5273 55.9474 52.5337C55.9891 52.5396 56.0312 52.5339 56.0715 52.5162L56.9873 52.1035C57.0494 52.0759 57.0961 52.0219 57.1159 51.9553L61.7949 36.515C61.822 36.4266 61.7968 36.3306 61.7303 36.2684L61.7298 36.2677Z" fill="#532222"/>
</g>
<path d="M46.6641 39.5951C45.8164 40.6783 45.3904 42.047 44.9792 42.796C43.9507 44.6706 43.9492 44.8013 42.7292 46.5529C41.747 47.9611 40.7648 49.257 39.6764 50.0394C38.8751 50.6151 40.3866 43.9156 43.5859 40.9092C44.4007 40.1435 44.9718 38.752 45.4128 39.1135C45.4576 39.15 47.2307 38.872 46.6641 39.5966V39.5951Z" fill="#A04C17"/>
<path d="M33.5043 53.4066C32.413 54.0811 31.5519 54.1358 29.8685 55.2037C29.3751 55.5167 28.7771 55.9952 28.511 56.7274C28.4318 56.9462 28.2928 57.3458 28.4572 57.762C28.5888 58.0947 28.8489 58.2755 28.9221 58.3241C29.1883 58.5033 29.3243 58.6112 29.7235 58.6522C30.299 58.7115 30.5113 58.6933 30.6623 58.7327C31.353 58.915 28.9864 62.757 25.9037 63.0244C25.4642 63.0624 23.5252 63.2295 22.386 61.8805C21.184 60.4555 21.7327 58.359 21.8328 57.9793C22.8883 53.9489 28.2449 52.6288 29.6547 52.2809C30.1391 52.1609 32.7299 52.3948 33.745 52.3356C34.37 52.2991 33.597 53.3473 33.5058 53.405L33.5043 53.4066Z" fill="#A04C17"/>
<path d="M38.0108 11.0546C39.0618 10.0702 40.4581 8.7592 42.7291 7.28713C44.535 6.11585 46.3739 5.96241 47.9078 5.8348C49.0186 5.74213 50.9576 5.71176 53.1941 6.37867C55.9748 7.20813 56.3142 8.24875 59.5524 9.86362C60.3896 10.2814 62.8234 11.4359 66.0885 12.077C68.0948 12.4705 71.2149 13.0463 74.625 11.8963C75.8405 11.4861 78.1009 9.8545 77.9948 9.24683C77.9395 8.93085 77.1217 9.52029 76.8406 9.46408C73.6204 8.82148 68.4387 9.13897 65.9106 8.81083C61.0967 8.18646 61.6439 4.67112 55.5517 3.40262C54.9791 3.2826 52.1147 2.71899 48.4788 3.40262C45.4948 3.96319 43.6231 5.057 41.2998 6.41513C39.2113 7.63502 38.3517 8.48422 38.3352 9.46408C38.3292 9.86362 37.7133 11.3311 38.0108 11.0531V11.0546Z" fill="#A04C17"/>
<path d="M39.8811 13.6896C41.0322 13.369 41.6362 13.1928 43.0774 13.1594C45.435 13.1047 47.1617 13.7777 47.7478 14.039C49.2757 14.7226 50.2968 16.1035 52.3375 18.8669C53.5155 20.462 54.4768 21.9796 55.3559 23.3681C57.1349 26.1786 57.0856 26.3715 57.8032 27.1068C59.6869 29.0377 61.9369 29.656 62.8757 29.9021C62.8757 29.9021 65.933 30.7027 68.8767 29.8291C69.5091 29.6408 70.1863 29.223 70.4001 29.0908C70.8082 28.8387 70.8412 28.7688 70.8412 28.7156C70.8352 28.3069 68.8348 28.1398 67.5671 27.833C64.4634 27.0795 62.499 24.6929 61.3284 23.2724C58.9693 20.4073 60.0143 19.5155 57.697 16.3648C56.7073 15.0188 54.8685 12.5836 51.5899 11.3561C49.5268 10.5829 47.7388 10.7196 44.1613 10.993C41.5002 11.1966 40.4372 11.6311 40.053 12.4454C39.8646 12.8449 39.4864 13.8035 39.884 13.6926L39.8811 13.6896Z" fill="#A04C17"/>
<path d="M5.89674 70.0725C5.10439 67.8834 3.27748 64.201 3.0622 61.6427C2.69892 57.3055 2.15922 51.4977 5.88927 45.7386C7.63842 43.039 10.3414 40.9547 15.7473 36.7861C17.2722 35.6103 19.7255 34.4983 22.1295 32.2378C24.5948 29.9195 25.8446 28.4627 25.8446 28.4627C26.779 27.3734 27.2081 26.7505 27.3217 26.8174C27.6506 27.0103 24.7054 32.6358 23.179 35.8184C16.0658 50.6485 15.4947 63.0221 8.55785 68.7265C7.45304 69.635 6.43793 71.5689 5.89674 70.0725Z" fill="#A04C17"/>
<path d="M72.1853 8.08772C69.2057 7.25673 68.9561 6.28902 63.8985 3.53933C60.3553 1.61303 58.5852 0.649876 56.3741 0.248817C52.6007 -0.436325 49.5225 0.461513 47.9916 0.926377C45.9315 1.55227 41.0308 3.13372 38.3712 6.90276C37.3576 8.33989 37.2276 8.23355 34.6801 12.7591C34.2181 13.5795 33.9894 14.4029 33.514 15.0576C30.8289 18.7462 30.4387 18.9755 29.609 20.2835C28.6163 21.8483 28.8989 21.9562 27.0376 26.5744C25.6203 30.0928 24.9102 31.852 24.1806 32.9625C22.6482 35.2929 21.5763 35.5117 17.5129 38.866C13.6274 42.0744 11.6854 43.6787 9.98852 46.1245C7.29751 50.0045 6.42891 53.8905 6.08357 55.5129C5.41978 58.6212 5.41381 61.3101 5.4168 62.7715C5.43025 68.2496 6.56646 71.2652 5.32112 71.967C4.48391 72.438 2.67794 71.8029 1.60602 70.9993C0.957185 70.5117 0.465328 69.8797 0.176792 70.0316C-0.122209 70.1896 0.0392585 71.0616 0.0811187 71.2895C0.35919 72.7934 1.28758 73.9298 2.17711 74.7744C3.36714 75.9032 4.60351 76.6202 5.22543 76.9043C5.2957 76.9362 5.37194 76.9681 5.44968 77H40.1623C40.0531 76.5063 39.482 76.0217 39.038 75.6464C37.2903 74.1683 34.9282 74.3885 34.1807 74.3885C32.4062 74.3885 31.0965 74.1121 30.6331 73.5029C30.4253 73.2294 30.4851 72.5656 30.5583 72.3271C30.814 71.5006 31.3477 70.7897 33.6649 68.675C35.4395 67.054 36.2588 66.6135 36.6565 65.2903C37.1947 63.4992 36.3933 60.9288 36.1302 60.5809C35.5247 59.7818 34.9327 58.3462 31.5944 58.612C26.5667 59.0116 25.3901 62.8186 24.4602 62.3142C21.5494 60.7358 25.568 56.0188 26.9598 55.1636C29.6135 53.5365 32.6872 53.8692 35.1331 52.9015C36.0824 52.5263 38.6672 51.5024 40.5629 49.0307C41.1041 48.3258 41.9742 46.6775 43.8848 43.4417C44.7654 41.9499 45.2109 41.4106 46.066 40.3016C46.7911 39.3597 47.6059 38.6153 49.0291 37.9499C50.1175 37.441 50.8097 36.8789 50.7798 36.7407C50.6781 36.2773 48.6688 36.6708 48.2443 36.8014C47.8077 36.9351 46.3292 37.5124 45.3753 38.12C44.1868 38.8781 43.9102 39.2625 43.4109 39.4432C40.6481 40.4459 40.0038 39.3065 39.3146 38.6761C38.8227 38.2264 37.8166 36.1618 37.6686 35.8565C37.3143 35.1288 36.7835 34.1277 37.1513 33.5246C37.5445 32.8805 38.2397 32.7954 38.8511 32.8683C39.6988 32.9701 39.6644 33.6036 40.7558 34.0305C42.0893 34.55 43.4722 34.5485 44.5307 34.4178C45.791 34.2614 46.3321 34.0548 46.8524 33.3529C47.1125 33.002 47.2755 32.5872 47.3757 31.0483C47.5401 28.5387 47.3786 28.0039 47.2142 26.1855C47.0841 24.7332 43.7084 17.9289 39.0006 16.0588C38.1754 15.7306 38.6837 14.1537 40.6601 13.2635C42.2463 12.5495 43.8938 12.1272 44.6787 12.0846C46.6431 11.9752 48.1904 11.9449 48.5178 11.9935C49.6077 12.156 49.9575 12.1864 50.9293 12.5191C52.4647 13.0447 52.6426 13.3759 53.5545 14.0261C55.4352 15.366 56.1678 16.2471 57.7092 19.3189C59.4897 22.8661 58.8827 23.2338 60.2641 25.1342C61.6007 26.9739 63.2586 27.5679 65.377 28.247C67.6629 28.9792 70.8682 29.2208 71.0446 28.7073C71.1941 28.2713 68.7438 28.1057 66.1873 25.9485C64.1407 24.2212 63.734 23.0454 62.0686 19.8992C60.9129 17.7192 60.0757 16.7637 59.3297 15.7367C57.5148 13.2392 56.5804 12.7683 55.1452 11.8476C54.3902 11.363 53.1165 10.6445 51.5437 10.0748C49.5075 9.33798 47.1679 9.35925 45.1616 9.66309C39.6495 10.4986 37.1483 15.6759 36.0898 15.2035C34.3855 14.4454 40.3207 8.40521 41.4719 7.60613C42.3763 6.9772 46.5684 4.04977 53.5201 4.70301C55.2244 4.86253 56.4399 5.48691 57.1395 5.86518C59.1982 6.97569 59.2475 7.85984 61.1402 8.96276C62.4737 9.73905 63.5935 9.96691 65.3307 10.3178C66.138 10.4819 67.9156 10.7569 71.5574 10.9042C72.9881 10.962 73.9838 10.7918 75.2366 10.5108C76.2383 10.2859 78.0383 9.7284 77.9994 9.2529C77.953 8.68625 75.3562 8.97489 72.1898 8.09074L72.1853 8.08772Z" fill="#F39324"/>
<path d="M44.4611 31.8238C45.0382 32.8447 45.3611 33.4144 46.0144 33.5663C46.2566 33.6225 46.3852 33.5846 46.4614 33.5481C46.7021 33.4326 46.8217 33.185 46.6812 32.9495C46.4196 32.5105 46.4584 32.43 45.5614 31.6795C45.4089 31.5519 45.089 31.4319 44.7631 31.4258C44.7182 31.4258 44.4701 31.4197 44.4058 31.5534C44.3609 31.6476 44.4267 31.7676 44.4596 31.8254L44.4611 31.8238Z" fill="#A04C17"/>
<path d="M31.8724 22.895C32.2162 22.9254 31.9576 24.8517 32.729 27.0575C33.1954 28.3913 33.8577 29.3089 34.3003 29.912C34.9461 30.7931 36.1286 32.2804 37.063 32.6708C37.2364 32.7437 37.5967 32.9199 37.6281 33.0491C37.6281 33.0491 37.1782 33.1478 36.6624 33.043C36.1795 32.9442 35.7564 32.8288 35.3004 32.5599C33.5662 31.539 32.3956 30.2356 31.9905 29.5489C31.1877 28.1862 31.1637 26.9405 31.1099 26.4513C31.0426 25.8391 30.9724 24.6466 31.5151 23.4024C31.7288 22.9117 31.8305 22.8904 31.8724 22.895Z" fill="white"/>
<path d="M37.3879 24.4344C36.6418 25.074 36.8108 26.2802 36.8527 26.5202C36.8811 26.6919 37.0799 27.7644 37.9589 28.2976C38.2161 28.4541 38.7932 28.6075 39.9054 28.729C40.7815 28.8248 41.1059 28.7792 41.3332 28.6425C41.9835 28.252 41.9147 27.0732 41.9043 26.9364C41.8191 25.7363 40.9191 24.7564 39.9936 24.3235C39.7903 24.2278 38.9098 23.8161 37.9754 24.1245C37.8094 24.1792 37.5987 24.2506 37.3864 24.4329L37.3879 24.4344Z" fill="white"/>
<path d="M37.3879 24.4367C36.6418 25.0763 36.8108 26.2825 36.8527 26.5225C36.8811 26.6942 37.4596 27.6558 37.8812 27.8001C38.2131 27.9125 38.5779 27.9627 39.0458 27.8867C39.4151 27.8275 39.5511 27.633 39.7275 27.431C39.9339 27.194 40.0415 26.7382 40.0505 26.603C40.0908 25.9513 39.889 25.1461 39.6737 24.8134C39.5511 24.6235 38.9113 23.8199 37.9769 24.1283C37.8109 24.183 37.6001 24.2544 37.3879 24.4367Z" fill="#1A1933"/>
<path d="M41.343 28.9547C41.4103 29.0868 41.5389 29.1461 41.6854 29.2144C41.8618 29.2949 42.0531 29.3846 42.1488 29.3025C42.2505 29.2175 42.1907 28.9896 42.1354 28.783C42.0666 28.5247 41.953 28.3561 41.8603 28.2224C41.7631 28.0826 41.7153 28.0128 41.6525 27.9976C41.3834 27.9307 40.9902 28.505 41.0874 28.6599C41.1158 28.704 41.1726 28.6979 41.2488 28.783C41.3056 28.8468 41.3146 28.8984 41.343 28.9531V28.9547Z" fill="#A04C17"/>
<defs>
<clipPath id="clip0_1014_1943">
<rect width="16" height="21" fill="white" transform="translate(46.5742 29.9688) rotate(8.17718)"/>
</clipPath>
</defs>
</svg>
