<svg width="93" height="107" viewBox="0 0 93 107" fill="none" xmlns="http://www.w3.org/2000/svg">
<g id="bitcoin with hat icon">
<path id="Vector" d="M73.9016 15.6287L44.5392 6.93002C44.275 6.85103 43.9919 6.85531 43.7209 6.94398C43.7209 6.94398 14.6828 16.4859 14.6302 16.5032C13.3814 16.916 13.4124 18.743 14.6719 19.1182L44.0292 27.8138C44.2986 27.8959 44.5796 27.8834 44.8475 27.7999L72.1722 18.8247L72.3415 30.4113C70.246 31.0416 68.7225 32.9812 68.7539 35.2711L68.7759 36.7073C67.0798 34.8453 64.7417 33.5348 61.9668 32.6335C62.1858 32.3872 62.3156 32.0626 62.3075 31.7107L62.2064 24.9736L45.6992 30.403C44.9234 30.6598 44.0299 30.688 43.2485 30.4438L26.5834 25.5026L26.6729 31.4127L18.2302 31.4198L18.2422 39.2492C18.2422 39.2492 23.6718 39.094 23.5704 39.2675C26.5283 39.2806 27.5304 40.9512 27.7732 42.5207L27.7634 56.27C27.8994 56.2365 28.2131 56.3033 28.5237 56.3752C28.2476 56.4433 28.073 56.3379 27.7969 56.4059L27.6964 75.7953C27.6265 76.6993 26.9546 78.1929 24.9031 78.2577C24.9376 78.3977 19.5749 78.2393 19.5749 78.2393L18.0512 87.0371L27.661 87.0305C29.4374 87.0379 31.2139 87.0454 32.9892 87.0488L32.9123 99.3382L40.2961 99.2908L40.2674 87.1759C42.3575 87.2502 44.2699 87.2241 46.1895 87.1919L46.2181 99.3069L53.6019 99.2594L53.6788 86.97C66.078 86.2754 74.7974 83.2427 75.9138 71.5881C76.8477 62.1887 72.4062 57.9679 65.3451 56.3107C69.6336 53.9208 72.3638 49.9975 71.6881 43.6598C71.6395 43.1083 71.5579 42.5823 71.4556 42.079L77.5345 41.9865C78.2879 41.9754 78.8951 41.3539 78.8833 40.5967L78.8048 35.1208C78.7691 32.8318 77.1956 30.9353 75.0804 30.3692L74.8843 16.9196C74.8749 16.3497 74.4548 15.7806 73.9057 15.6277L73.9016 15.6287ZM61.4302 69.8393C61.4718 78.9937 45.6647 77.8684 40.7872 77.8875L40.7693 61.6332C45.6468 61.6141 61.4252 60.2304 61.4302 69.8393ZM57.9867 46.8902C57.9622 55.1741 44.8705 54.2659 40.7238 54.2533L40.7731 39.4589C44.9208 39.4757 58.0487 38.1558 57.9867 46.8902Z" fill="#F39324"/>
</g>
</svg>
