<svg width="633" height="685" viewBox="0 0 633 685" fill="none" xmlns="http://www.w3.org/2000/svg">
<g clip-path="url(#clip0_1129_13794)">
<mask id="mask0_1129_13794" style="mask-type:luminance" maskUnits="userSpaceOnUse" x="0" y="0" width="601" height="685">
<path d="M601 0.083252H0V684.083H601V0.083252Z" fill="white"/>
</mask>
<g mask="url(#mask0_1129_13794)">
<g style="mix-blend-mode:luminosity">
<path d="M251.542 476.114C252.29 483.927 252.44 505.28 247.055 528.195" stroke="#4769B8" stroke-width="2" stroke-dasharray="6 6"/>
<path d="M250.096 459.764C319.983 459.764 376.638 403.368 376.638 333.801C376.638 264.234 319.983 207.838 250.096 207.838C180.209 207.838 123.555 264.234 123.555 333.801C123.555 403.368 180.209 459.764 250.096 459.764Z" stroke="#6C87C6" stroke-width="3"/>
<path d="M225.457 543.336C347.591 543.336 446.601 444.643 446.601 322.9C446.601 201.158 347.591 102.465 225.457 102.465C103.322 102.465 4.3125 201.158 4.3125 322.9C4.3125 444.643 103.322 543.336 225.457 543.336Z" stroke="#6C87C6" stroke-width="3"/>
<path d="M226.063 696.55C418.756 696.55 574.965 541.056 574.965 349.244C574.965 157.432 418.756 1.93726 226.063 1.93726C33.3694 1.93726 -122.84 157.432 -122.84 349.244C-122.84 541.056 33.3694 696.55 226.063 696.55Z" stroke="#6C87C6" stroke-width="3"/>
<path d="M287.961 328.956C287.961 349.434 271.283 366.039 250.705 366.039C230.126 366.039 213.449 349.434 213.449 328.956C213.449 308.477 230.126 291.873 250.705 291.873C271.283 291.873 287.961 308.477 287.961 328.956Z" fill="#2D4C95" stroke="#2D4C95"/>
<path d="M225.571 328.797C226.263 328.92 226.849 329.286 227.331 329.891C227.813 330.496 228.053 331.182 228.053 331.949C228.053 332.604 227.88 333.197 227.535 333.729C227.201 334.248 226.713 334.662 226.071 334.971C225.429 335.267 224.682 335.416 223.83 335.416H218.68V322.531H223.589C224.466 322.531 225.219 322.679 225.849 322.976C226.479 323.272 226.954 323.674 227.275 324.181C227.597 324.675 227.757 325.231 227.757 325.849C227.757 326.591 227.56 327.209 227.164 327.703C226.769 328.197 226.238 328.562 225.571 328.797ZM220.792 327.944H223.404C224.095 327.944 224.633 327.789 225.015 327.481C225.411 327.159 225.608 326.702 225.608 326.109C225.608 325.528 225.411 325.077 225.015 324.755C224.633 324.422 224.095 324.255 223.404 324.255H220.792V327.944ZM223.644 333.691C224.36 333.691 224.923 333.518 225.33 333.172C225.738 332.827 225.941 332.345 225.941 331.726C225.941 331.096 225.726 330.595 225.293 330.225C224.861 329.854 224.286 329.668 223.57 329.668H220.792V333.691H223.644ZM238.666 322.531V324.255H235.239V335.416H233.127V324.255H229.682V322.531H238.666ZM240.101 328.945C240.101 327.685 240.391 326.554 240.972 325.553C241.565 324.551 242.361 323.773 243.361 323.217C244.374 322.648 245.479 322.364 246.677 322.364C248.048 322.364 249.264 322.704 250.327 323.383C251.401 324.051 252.179 325.003 252.661 326.239H250.123C249.79 325.559 249.327 325.052 248.734 324.718C248.141 324.385 247.455 324.218 246.677 324.218C245.825 324.218 245.066 324.41 244.399 324.792C243.732 325.175 243.207 325.726 242.824 326.442C242.454 327.159 242.268 327.993 242.268 328.945C242.268 329.897 242.454 330.732 242.824 331.448C243.207 332.165 243.732 332.721 244.399 333.117C245.066 333.5 245.825 333.691 246.677 333.691C247.455 333.691 248.141 333.525 248.734 333.191C249.327 332.857 249.79 332.35 250.123 331.671H252.661C252.179 332.906 251.401 333.858 250.327 334.526C249.264 335.193 248.048 335.527 246.677 335.527C245.467 335.527 244.362 335.249 243.361 334.693C242.361 334.124 241.565 333.339 240.972 332.338C240.391 331.337 240.101 330.206 240.101 328.945ZM259.389 323.828V321.9H263.242V335.416H261.112V323.828H259.389ZM266.143 328.482C266.143 326.343 266.502 324.675 267.218 323.476C267.947 322.265 269.194 321.659 270.96 321.659C272.726 321.659 273.968 322.265 274.684 323.476C275.412 324.675 275.776 326.343 275.776 328.482C275.776 330.644 275.412 332.338 274.684 333.562C273.968 334.773 272.726 335.379 270.96 335.379C269.194 335.379 267.947 334.773 267.218 333.562C266.502 332.338 266.143 330.644 266.143 328.482ZM273.702 328.482C273.702 327.481 273.634 326.634 273.498 325.942C273.375 325.249 273.115 324.688 272.72 324.255C272.324 323.81 271.738 323.587 270.96 323.587C270.182 323.587 269.596 323.81 269.2 324.255C268.805 324.688 268.54 325.249 268.404 325.942C268.28 326.634 268.218 327.481 268.218 328.482C268.218 329.52 268.28 330.391 268.404 331.096C268.527 331.8 268.786 332.369 269.182 332.802C269.589 333.234 270.182 333.45 270.96 333.45C271.738 333.45 272.324 333.234 272.72 332.802C273.127 332.369 273.393 331.8 273.516 331.096C273.64 330.391 273.702 329.52 273.702 328.482ZM277.733 323.828V321.9H281.586V335.416H279.456V323.828H277.733Z" fill="white"/>
<path d="M67.1198 412.224C67.1198 432.529 50.313 449.005 29.5604 449.005C8.8068 449.005 -8 432.529 -8 412.224C-8 391.92 8.8068 375.444 29.5604 375.444C50.313 375.444 67.1198 391.92 67.1198 412.224Z" fill="#2D4C95" stroke="#2D4C95"/>
<path d="M19.239 397.406C19.9309 397.529 20.5172 397.894 20.9988 398.5C21.4805 399.105 21.7213 399.791 21.7213 400.558C21.7213 401.212 21.549 401.806 21.2026 402.338C20.8692 402.857 20.3819 403.27 19.7391 403.58C19.0972 403.877 18.3498 404.025 17.4976 404.025H12.3477V391.14H17.2568C18.1339 391.14 18.887 391.288 19.5168 391.585C20.1467 391.881 20.6228 392.283 20.9433 392.79C21.2647 393.284 21.4249 393.84 21.4249 394.458C21.4249 395.2 21.2276 395.817 20.8321 396.312C20.4375 396.806 19.9059 397.171 19.239 397.406ZM14.4595 396.553H17.0715C17.7634 396.553 18.3007 396.399 18.6832 396.09C19.0787 395.768 19.276 395.311 19.276 394.718C19.276 394.137 19.0787 393.685 18.6832 393.365C18.3007 393.031 17.7634 392.864 17.0715 392.864H14.4595V396.553ZM17.3124 402.301C18.0293 402.301 18.5906 402.127 18.9981 401.782C19.4057 401.435 19.6095 400.953 19.6095 400.335C19.6095 399.705 19.3936 399.205 18.9611 398.834C18.5294 398.463 17.9552 398.278 17.2383 398.278H14.4595V402.301H17.3124ZM32.3343 391.14V392.864H28.9072V404.025H26.7953V392.864H23.3497V391.14H32.3343ZM33.769 397.555C33.769 396.294 34.059 395.163 34.6397 394.162C35.2325 393.161 36.0291 392.382 37.0294 391.826C38.0418 391.257 39.1478 390.973 40.3454 390.973C41.7163 390.973 42.9324 391.312 43.9948 391.993C45.0693 392.66 45.8473 393.611 46.329 394.848H43.7911C43.4576 394.167 42.9945 393.661 42.4017 393.327C41.8089 392.994 41.1235 392.827 40.3454 392.827C39.4933 392.827 38.7337 393.018 38.0668 393.402C37.3999 393.784 36.8748 394.334 36.4922 395.052C36.1217 395.768 35.9365 396.603 35.9365 397.555C35.9365 398.506 36.1217 399.34 36.4922 400.057C36.8748 400.774 37.3999 401.33 38.0668 401.726C38.7337 402.109 39.4933 402.301 40.3454 402.301C41.1235 402.301 41.8089 402.134 42.4017 401.8C42.9945 401.466 43.4576 400.959 43.7911 400.28H46.329C45.8473 401.516 45.0693 402.468 43.9948 403.135C42.9324 403.802 41.7163 404.136 40.3454 404.136C39.1348 404.136 38.0298 403.858 37.0294 403.302C36.0291 402.733 35.2325 401.948 34.6397 400.947C34.059 399.946 33.769 398.815 33.769 397.555ZM14.2678 428.961C15.4534 427.935 16.3861 427.094 17.065 426.439C17.757 425.772 18.3312 425.08 18.7879 424.363C19.2454 423.646 19.4733 422.929 19.4733 422.212C19.4733 421.471 19.2945 420.89 18.9361 420.47C18.5906 420.049 18.0413 419.839 17.2873 419.839C16.5593 419.839 15.9906 420.074 15.583 420.544C15.1885 421.001 14.9782 421.619 14.9532 422.398H12.9154C12.9525 420.989 13.373 419.913 14.1751 419.172C14.9902 418.417 16.0221 418.041 17.2688 418.041C18.6156 418.041 19.665 418.412 20.4181 419.153C21.1841 419.895 21.5666 420.883 21.5666 422.12C21.5666 423.01 21.3388 423.868 20.8812 424.697C20.4366 425.512 19.8994 426.248 19.2695 426.903C18.6526 427.545 17.8616 428.293 16.8983 429.146L16.0647 429.888H21.9371V431.649H12.934V430.11L14.2678 428.961ZM23.7924 424.901C23.7924 422.762 24.1509 421.094 24.8668 419.895C25.5958 418.683 26.8435 418.078 28.6089 418.078C30.3753 418.078 31.6164 418.683 32.3324 419.895C33.0614 421.094 33.4254 422.762 33.4254 424.901C33.4254 427.063 33.0614 428.757 32.3324 429.981C31.6164 431.191 30.3753 431.797 28.6089 431.797C26.8435 431.797 25.5958 431.191 24.8668 429.981C24.1509 428.757 23.7924 427.063 23.7924 424.901ZM31.3506 424.901C31.3506 423.9 31.283 423.052 31.1468 422.361C31.0236 421.668 30.7643 421.106 30.3688 420.674C29.9742 420.229 29.387 420.006 28.6089 420.006C27.8309 420.006 27.2445 420.229 26.849 420.674C26.4544 421.106 26.1886 421.668 26.0525 422.361C25.9293 423.052 25.8672 423.9 25.8672 424.901C25.8672 425.939 25.9293 426.81 26.0525 427.515C26.1766 428.219 26.4359 428.788 26.8305 429.22C27.2381 429.652 27.8309 429.869 28.6089 429.869C29.387 429.869 29.9742 429.652 30.3688 429.22C30.7763 428.788 31.0422 428.219 31.1653 427.515C31.2895 426.81 31.3506 425.939 31.3506 424.901ZM44.3672 420.136H38.1613V423.825C38.4207 423.479 38.8032 423.189 39.3099 422.954C39.8286 422.719 40.3778 422.602 40.9586 422.602C41.996 422.602 42.8361 422.824 43.478 423.269C44.1328 423.714 44.596 424.276 44.8674 424.956C45.1517 425.636 45.2934 426.352 45.2934 427.107C45.2934 428.021 45.1147 428.837 44.7562 429.554C44.4107 430.259 43.8855 430.815 43.1816 431.223C42.4897 431.631 41.6375 431.835 40.6251 431.835C39.2793 431.835 38.1984 431.501 37.3833 430.833C36.5682 430.166 36.08 429.282 35.9198 428.182H37.9761C38.1122 428.762 38.4142 429.226 38.8838 429.573C39.3534 429.906 39.9397 430.073 40.6437 430.073C41.5208 430.073 42.1748 429.807 42.6073 429.276C43.0519 428.744 43.2742 428.039 43.2742 427.163C43.2742 426.273 43.0519 425.592 42.6073 425.123C42.1627 424.641 41.5079 424.4 40.6437 424.4C40.0388 424.4 39.5257 424.554 39.1061 424.864C38.6985 425.16 38.4021 425.568 38.2169 426.087H36.2162V418.282H44.3672V420.136Z" fill="white"/>
<path d="M214.957 543.334C214.957 563.813 198.28 580.418 177.702 580.418C157.123 580.418 140.445 563.813 140.445 543.334C140.445 522.856 157.123 506.251 177.702 506.251C198.28 506.251 214.957 522.856 214.957 543.334Z" fill="#2D4C95" stroke="#2D4C95"/>
<path d="M153.116 548.089H157.469V549.795H151.004V536.91H153.116V548.089ZM169.813 549.795H167.701L161.347 540.173V549.795H159.235V536.891H161.347L167.701 546.495V536.891H169.813V549.795ZM178.288 546.921C179.474 545.895 180.406 545.054 181.086 544.4C181.777 543.732 182.351 543.04 182.809 542.323C183.265 541.606 183.494 540.889 183.494 540.173C183.494 539.431 183.314 538.85 182.957 538.43C182.61 538.009 182.061 537.8 181.308 537.8C180.579 537.8 180.011 538.034 179.604 538.504C179.208 538.961 178.998 539.579 178.974 540.358H176.936C176.973 538.949 177.393 537.874 178.196 537.132C179.011 536.378 180.042 536.001 181.289 536.001C182.635 536.001 183.685 536.372 184.439 537.114C185.204 537.855 185.587 538.843 185.587 540.08C185.587 540.97 185.359 541.828 184.902 542.657C184.457 543.473 183.92 544.208 183.29 544.863C182.672 545.506 181.882 546.254 180.919 547.107L180.085 547.848H185.958V549.609H176.955V548.071L178.288 546.921ZM187.813 542.861C187.813 540.722 188.171 539.054 188.888 537.855C189.616 536.644 190.863 536.038 192.63 536.038C194.395 536.038 195.636 536.644 196.353 537.855C197.081 539.054 197.446 540.722 197.446 542.861C197.446 545.024 197.081 546.717 196.353 547.941C195.636 549.151 194.395 549.758 192.63 549.758C190.863 549.758 189.616 549.151 188.888 547.941C188.171 546.717 187.813 545.024 187.813 542.861ZM195.371 542.861C195.371 541.86 195.303 541.013 195.167 540.321C195.043 539.629 194.784 539.066 194.389 538.634C193.994 538.189 193.408 537.966 192.63 537.966C191.852 537.966 191.264 538.189 190.87 538.634C190.474 539.066 190.208 539.629 190.073 540.321C189.949 541.013 189.888 541.86 189.888 542.861C189.888 543.899 189.949 544.771 190.073 545.475C190.196 546.18 190.456 546.748 190.851 547.181C191.259 547.613 191.852 547.83 192.63 547.83C193.408 547.83 193.994 547.613 194.389 547.181C194.797 546.748 195.062 546.18 195.186 545.475C195.309 544.771 195.371 543.899 195.371 542.861ZM199.402 538.207V536.279H203.256V549.795H201.125V538.207H199.402Z" fill="white"/>
<path d="M284.918 552.721C284.918 573.367 268.103 590.108 247.357 590.108C226.611 590.108 209.797 573.367 209.797 552.721C209.797 532.076 226.611 515.336 247.357 515.336C268.103 515.336 284.918 532.076 284.918 552.721Z" fill="#2D4C95" stroke="#2D4C95"/>
<path d="M220.663 557.303H225.016V559.009H218.551V546.124H220.663V557.303ZM237.36 559.009H235.248L228.894 549.387V559.009H226.782V546.105H228.894L235.248 555.709V546.105H237.36V559.009ZM245.834 556.135C247.02 555.109 247.953 554.269 248.632 553.614C249.324 552.946 249.898 552.254 250.354 551.537C250.812 550.821 251.04 550.103 251.04 549.387C251.04 548.645 250.861 548.064 250.503 547.644C250.157 547.224 249.608 547.014 248.854 547.014C248.126 547.014 247.557 547.248 247.15 547.718C246.755 548.175 246.545 548.794 246.52 549.572H244.482C244.519 548.163 244.94 547.088 245.742 546.346C246.557 545.593 247.589 545.215 248.835 545.215C250.182 545.215 251.232 545.586 251.985 546.328C252.751 547.069 253.133 548.058 253.133 549.294C253.133 550.184 252.905 551.043 252.448 551.871C252.003 552.687 251.466 553.422 250.836 554.077C250.219 554.72 249.428 555.468 248.465 556.321L247.631 557.062H253.504V558.824H244.501V557.285L245.834 556.135ZM255.359 552.075C255.359 549.937 255.718 548.268 256.433 547.069C257.162 545.858 258.41 545.252 260.176 545.252C261.942 545.252 263.183 545.858 263.899 547.069C264.628 548.268 264.992 549.937 264.992 552.075C264.992 554.238 264.628 555.931 263.899 557.155C263.183 558.367 261.942 558.972 260.176 558.972C258.41 558.972 257.162 558.367 256.433 557.155C255.718 555.931 255.359 554.238 255.359 552.075ZM262.917 552.075C262.917 551.074 262.85 550.228 262.713 549.535C262.59 548.843 262.331 548.281 261.935 547.848C261.541 547.403 260.954 547.181 260.176 547.181C259.398 547.181 258.811 547.403 258.416 547.848C258.021 548.281 257.755 548.843 257.619 549.535C257.496 550.228 257.434 551.074 257.434 552.075C257.434 553.113 257.496 553.985 257.619 554.689C257.743 555.394 258.003 555.962 258.397 556.395C258.805 556.828 259.398 557.044 260.176 557.044C260.954 557.044 261.541 556.828 261.935 556.395C262.343 555.962 262.609 555.394 262.732 554.689C262.856 553.985 262.917 553.113 262.917 552.075ZM268.394 556.135C269.58 555.109 270.512 554.269 271.191 553.614C271.883 552.946 272.458 552.254 272.914 551.537C273.371 550.821 273.6 550.103 273.6 549.387C273.6 548.645 273.421 548.064 273.062 547.644C272.717 547.224 272.167 547.014 271.414 547.014C270.685 547.014 270.117 547.248 269.709 547.718C269.314 548.175 269.105 548.794 269.08 549.572H267.042C267.079 548.163 267.498 547.088 268.302 546.346C269.117 545.593 270.148 545.215 271.395 545.215C272.741 545.215 273.791 545.586 274.544 546.328C275.31 547.069 275.693 548.058 275.693 549.294C275.693 550.184 275.464 551.043 275.008 551.871C274.563 552.687 274.026 553.422 273.396 554.077C272.778 554.72 271.988 555.468 271.025 556.321L270.191 557.062H276.064V558.824H267.06V557.285L268.394 556.135Z" fill="white"/>
<path d="M291.613 450.679C291.613 471.154 274.802 487.763 254.053 487.763C233.303 487.763 216.492 471.154 216.492 450.679C216.492 430.205 233.303 413.596 254.053 413.596C274.802 413.596 291.613 430.205 291.613 450.679Z" fill="#2D4C95" stroke="#2D4C95"/>
<path d="M243.731 436.616C244.423 436.739 245.009 437.104 245.491 437.71C245.973 438.315 246.213 439.001 246.213 439.768C246.213 440.422 246.041 441.015 245.695 441.547C245.361 442.067 244.874 442.48 244.231 442.79C243.589 443.086 242.842 443.235 241.99 443.235H236.84V430.349H241.749C242.626 430.349 243.379 430.498 244.009 430.794C244.639 431.091 245.115 431.492 245.435 432C245.757 432.494 245.917 433.05 245.917 433.668C245.917 434.41 245.72 435.027 245.324 435.522C244.93 436.016 244.398 436.38 243.731 436.616ZM238.952 435.763H241.564C242.256 435.763 242.793 435.608 243.175 435.3C243.571 434.978 243.768 434.521 243.768 433.928C243.768 433.346 243.571 432.895 243.175 432.574C242.793 432.241 242.256 432.074 241.564 432.074H238.952V435.763ZM241.805 441.51C242.521 441.51 243.083 441.337 243.49 440.991C243.898 440.645 244.102 440.163 244.102 439.545C244.102 438.915 243.886 438.414 243.453 438.043C243.022 437.673 242.447 437.487 241.73 437.487H238.952V441.51H241.805ZM256.826 430.349V432.074H253.399V443.235H251.288V432.074H247.842V430.349H256.826ZM258.261 436.764C258.261 435.504 258.551 434.373 259.132 433.371C259.725 432.37 260.521 431.592 261.522 431.035C262.534 430.466 263.64 430.183 264.838 430.183C266.208 430.183 267.425 430.522 268.487 431.202C269.562 431.87 270.34 432.821 270.821 434.057H268.283C267.95 433.377 267.487 432.871 266.894 432.537C266.301 432.203 265.616 432.037 264.838 432.037C263.985 432.037 263.226 432.228 262.559 432.611C261.892 432.994 261.367 433.544 260.984 434.261C260.614 434.978 260.429 435.812 260.429 436.764C260.429 437.715 260.614 438.55 260.984 439.267C261.367 439.984 261.892 440.54 262.559 440.936C263.226 441.319 263.985 441.51 264.838 441.51C265.616 441.51 266.301 441.344 266.894 441.01C267.487 440.676 267.95 440.169 268.283 439.49H270.821C270.34 440.725 269.562 441.677 268.487 442.345C267.425 443.012 266.208 443.346 264.838 443.346C263.627 443.346 262.522 443.068 261.522 442.512C260.521 441.942 259.725 441.158 259.132 440.157C258.551 439.156 258.261 438.025 258.261 436.764ZM239.993 459.457V457.529H243.846V471.044H241.716V459.457H239.993ZM246.747 464.11C246.747 461.972 247.105 460.303 247.821 459.105C248.55 457.893 249.798 457.288 251.564 457.288C253.33 457.288 254.571 457.893 255.287 459.105C256.016 460.303 256.38 461.972 256.38 464.11C256.38 466.273 256.016 467.967 255.287 469.19C254.571 470.401 253.33 471.007 251.564 471.007C249.798 471.007 248.55 470.401 247.821 469.19C247.105 467.967 246.747 466.273 246.747 464.11ZM254.305 464.11C254.305 463.109 254.238 462.262 254.101 461.57C253.978 460.878 253.719 460.315 253.323 459.883C252.929 459.438 252.342 459.216 251.564 459.216C250.785 459.216 250.199 459.438 249.804 459.883C249.409 460.315 249.143 460.878 249.007 461.57C248.884 462.262 248.822 463.109 248.822 464.11C248.822 465.149 248.884 466.02 249.007 466.724C249.131 467.429 249.391 467.997 249.785 468.43C250.193 468.862 250.785 469.079 251.564 469.079C252.342 469.079 252.929 468.862 253.323 468.43C253.731 467.997 253.997 467.429 254.12 466.724C254.244 466.02 254.305 465.149 254.305 464.11ZM259.782 468.171C260.968 467.144 261.9 466.304 262.579 465.649C263.271 464.982 263.846 464.289 264.302 463.573C264.759 462.855 264.988 462.139 264.988 461.422C264.988 460.681 264.809 460.099 264.45 459.679C264.105 459.259 263.555 459.049 262.802 459.049C262.073 459.049 261.505 459.284 261.097 459.754C260.702 460.211 260.493 460.829 260.468 461.608H258.43C258.467 460.198 258.886 459.123 259.69 458.382C260.505 457.627 261.536 457.251 262.783 457.251C264.129 457.251 265.179 457.621 265.932 458.363C266.698 459.105 267.081 460.093 267.081 461.329C267.081 462.219 266.852 463.078 266.396 463.906C265.951 464.722 265.414 465.457 264.784 466.113C264.166 466.755 263.376 467.503 262.413 468.356L261.579 469.098H267.451V470.859H258.448V469.32L259.782 468.171Z" fill="white"/>
<path d="M472.297 421.914C472.297 442.563 455.617 459.3 435.042 459.3C414.467 459.3 397.785 442.563 397.785 421.914C397.785 401.265 414.467 384.529 435.042 384.529C455.617 384.529 472.297 401.265 472.297 421.914Z" fill="#2D4C95" stroke="#2D4C95"/>
<path d="M424.727 407.678C425.418 407.801 426.005 408.166 426.487 408.772C426.969 409.377 427.21 410.063 427.21 410.83C427.21 411.484 427.036 412.078 426.691 412.61C426.357 413.129 425.869 413.542 425.227 413.852C424.585 414.149 423.838 414.297 422.986 414.297H417.836V401.412H422.745C423.621 401.412 424.375 401.56 425.005 401.857C425.635 402.153 426.11 402.555 426.432 403.062C426.752 403.556 426.913 404.112 426.913 404.73C426.913 405.472 426.715 406.089 426.32 406.584C425.925 407.078 425.394 407.443 424.727 407.678ZM419.948 406.825H422.56C423.251 406.825 423.788 406.671 424.172 406.362C424.566 406.04 424.764 405.583 424.764 404.99C424.764 404.409 424.566 403.957 424.172 403.637C423.788 403.303 423.251 403.136 422.56 403.136H419.948V406.825ZM422.801 412.573C423.517 412.573 424.079 412.399 424.486 412.054C424.894 411.707 425.098 411.225 425.098 410.607C425.098 409.977 424.881 409.477 424.449 409.106C424.017 408.735 423.442 408.55 422.727 408.55H419.948V412.573H422.801ZM437.822 401.412V403.136H434.395V414.297H432.283V403.136H428.837V401.412H437.822ZM439.256 407.826C439.256 406.566 439.547 405.435 440.127 404.434C440.72 403.433 441.516 402.654 442.517 402.098C443.53 401.529 444.635 401.245 445.833 401.245C447.204 401.245 448.421 401.584 449.482 402.265C450.557 402.932 451.335 403.883 451.816 405.12H449.278C448.945 404.439 448.482 403.933 447.889 403.599C447.296 403.266 446.611 403.099 445.833 403.099C444.981 403.099 444.221 403.29 443.554 403.674C442.887 404.056 442.363 404.606 441.98 405.324C441.609 406.04 441.424 406.874 441.424 407.826C441.424 408.778 441.609 409.612 441.98 410.329C442.363 411.046 442.887 411.602 443.554 411.998C444.221 412.381 444.981 412.573 445.833 412.573C446.611 412.573 447.296 412.406 447.889 412.072C448.482 411.738 448.945 411.231 449.278 410.552H451.816C451.335 411.788 450.557 412.74 449.482 413.407C448.421 414.074 447.204 414.408 445.833 414.408C444.623 414.408 443.517 414.13 442.517 413.574C441.516 413.005 440.72 412.22 440.127 411.219C439.547 410.218 439.256 409.087 439.256 407.826ZM422.434 439.233C423.619 438.207 424.551 437.366 425.231 436.711C425.922 436.044 426.496 435.352 426.954 434.635C427.411 433.918 427.639 433.201 427.639 432.484C427.639 431.743 427.46 431.162 427.102 430.742C426.756 430.321 426.206 430.111 425.453 430.111C424.724 430.111 424.157 430.346 423.749 430.816C423.354 431.273 423.143 431.891 423.119 432.67H421.081C421.119 431.261 421.538 430.185 422.341 429.444C423.156 428.689 424.187 428.313 425.435 428.313C426.781 428.313 427.83 428.684 428.584 429.425C429.349 430.167 429.733 431.155 429.733 432.392C429.733 433.282 429.504 434.14 429.047 434.969C428.603 435.784 428.065 436.52 427.436 437.175C426.818 437.817 426.028 438.565 425.064 439.418L424.231 440.16H430.103V441.921H421.1V440.382L422.434 439.233ZM431.958 435.173C431.958 433.034 432.316 431.366 433.032 430.167C433.761 428.955 435.009 428.35 436.774 428.35C438.54 428.35 439.782 428.955 440.498 430.167C441.227 431.366 441.591 433.034 441.591 435.173C441.591 437.335 441.227 439.029 440.498 440.253C439.782 441.463 438.54 442.069 436.774 442.069C435.009 442.069 433.761 441.463 433.032 440.253C432.316 439.029 431.958 437.335 431.958 435.173ZM439.516 435.173C439.516 434.171 439.448 433.324 439.312 432.633C439.189 431.94 438.929 431.378 438.534 430.946C438.139 430.501 437.552 430.278 436.774 430.278C435.996 430.278 435.41 430.501 435.014 430.946C434.62 431.378 434.354 431.94 434.218 432.633C434.094 433.324 434.032 434.171 434.032 435.173C434.032 436.211 434.094 437.082 434.218 437.787C434.342 438.491 434.601 439.06 434.996 439.492C435.403 439.924 435.996 440.141 436.774 440.141C437.552 440.141 438.139 439.924 438.534 439.492C438.941 439.06 439.207 438.491 439.33 437.787C439.455 437.082 439.516 436.211 439.516 435.173ZM443.548 430.519V428.591H447.401V442.107H445.271V430.519H443.548Z" fill="white"/>
<path d="M401.725 149.096C401.725 169.57 384.916 186.179 364.166 186.179C343.416 186.179 326.605 169.57 326.605 149.096C326.605 128.621 343.416 112.012 364.166 112.012C384.916 112.012 401.725 128.621 401.725 149.096Z" fill="#2D4C95" stroke="#2D4C95"/>
<path d="M341.334 130.471V134.253H345.78V135.977H341.334V139.926H346.336V141.65H339.223V128.746H346.336V130.471H341.334ZM348.233 135.18C348.233 133.919 348.523 132.788 349.104 131.787C349.697 130.786 350.493 130.007 351.494 129.451C352.506 128.883 353.612 128.598 354.81 128.598C356.18 128.598 357.397 128.938 358.459 129.618C359.533 130.285 360.311 131.237 360.793 132.473H358.255C357.922 131.793 357.459 131.286 356.866 130.953C356.273 130.619 355.588 130.452 354.81 130.452C353.957 130.452 353.198 130.644 352.531 131.027C351.864 131.411 351.339 131.96 350.956 132.677C350.586 133.394 350.401 134.229 350.401 135.18C350.401 136.132 350.586 136.966 350.956 137.683C351.339 138.4 351.864 138.956 352.531 139.351C353.198 139.735 353.957 139.926 354.81 139.926C355.588 139.926 356.273 139.759 356.866 139.425C357.459 139.092 357.922 138.586 358.255 137.905H360.793C360.311 139.142 359.533 140.093 358.459 140.76C357.397 141.428 356.18 141.761 354.81 141.761C353.599 141.761 352.494 141.483 351.494 140.927C350.493 140.359 349.697 139.574 349.104 138.573C348.523 137.571 348.233 136.44 348.233 135.18ZM369.138 141.78C367.939 141.78 366.834 141.502 365.822 140.946C364.821 140.377 364.025 139.592 363.432 138.591C362.851 137.578 362.561 136.44 362.561 135.18C362.561 133.919 362.851 132.788 363.432 131.787C364.025 130.786 364.821 130.007 365.822 129.451C366.834 128.883 367.939 128.598 369.138 128.598C370.347 128.598 371.453 128.883 372.454 129.451C373.466 130.007 374.263 130.786 374.843 131.787C375.423 132.788 375.714 133.919 375.714 135.18C375.714 136.44 375.423 137.578 374.843 138.591C374.263 139.592 373.466 140.377 372.454 140.946C371.453 141.502 370.347 141.78 369.138 141.78ZM369.138 139.944C369.99 139.944 370.749 139.754 371.416 139.37C372.083 138.975 372.602 138.419 372.972 137.701C373.355 136.973 373.547 136.132 373.547 135.18C373.547 134.229 373.355 133.394 372.972 132.677C372.602 131.96 372.083 131.411 371.416 131.027C370.749 130.644 369.99 130.452 369.138 130.452C368.286 130.452 367.526 130.644 366.859 131.027C366.192 131.411 365.667 131.96 365.285 132.677C364.914 133.394 364.729 134.229 364.729 135.18C364.729 136.132 364.914 136.973 365.285 137.701C365.667 138.419 366.192 138.975 366.859 139.37C367.526 139.754 368.286 139.944 369.138 139.944ZM388.369 141.65H386.258L379.904 132.028V141.65H377.792V128.746H379.904L386.258 138.35V128.746H388.369V141.65ZM351.554 166.586C352.739 165.561 353.672 164.72 354.351 164.065C355.043 163.397 355.617 162.706 356.074 161.988C356.531 161.272 356.759 160.555 356.759 159.838C356.759 159.096 356.581 158.516 356.222 158.095C355.877 157.675 355.326 157.465 354.573 157.465C353.844 157.465 353.277 157.7 352.869 158.169C352.474 158.627 352.264 159.244 352.239 160.023H350.201C350.239 158.614 350.658 157.539 351.461 156.797C352.276 156.043 353.307 155.666 354.555 155.666C355.901 155.666 356.951 156.037 357.704 156.779C358.47 157.52 358.853 158.509 358.853 159.745C358.853 160.635 358.624 161.494 358.167 162.322C357.723 163.138 357.185 163.874 356.556 164.528C355.938 165.172 355.148 165.919 354.184 166.772L353.351 167.513H359.223V169.274H350.22V167.736L351.554 166.586ZM361.078 162.526C361.078 160.388 361.437 158.72 362.153 157.52C362.882 156.31 364.129 155.703 365.895 155.703C367.661 155.703 368.902 156.31 369.618 157.52C370.347 158.72 370.711 160.388 370.711 162.526C370.711 164.69 370.347 166.382 369.618 167.606C368.902 168.817 367.661 169.423 365.895 169.423C364.129 169.423 362.882 168.817 362.153 167.606C361.437 166.382 361.078 164.69 361.078 162.526ZM368.637 162.526C368.637 161.525 368.569 160.678 368.433 159.986C368.31 159.294 368.05 158.732 367.655 158.299C367.259 157.854 366.673 157.631 365.895 157.631C365.117 157.631 364.531 157.854 364.135 158.299C363.74 158.732 363.475 159.294 363.339 159.986C363.215 160.678 363.153 161.525 363.153 162.526C363.153 163.564 363.215 164.436 363.339 165.14C363.462 165.845 363.721 166.414 364.117 166.846C364.524 167.279 365.117 167.495 365.895 167.495C366.673 167.495 367.259 167.279 367.655 166.846C368.062 166.414 368.328 165.845 368.451 165.14C368.575 164.436 368.637 163.564 368.637 162.526ZM372.669 157.872V155.944H376.522V169.46H374.391V157.872H372.669Z" fill="white"/>
<path d="M383.475 269.911C383.475 290.556 366.662 307.296 345.915 307.296C325.169 307.296 308.355 290.556 308.355 269.911C308.355 249.266 325.169 232.525 345.915 232.525C366.662 232.525 383.475 249.266 383.475 269.911Z" fill="#20376C" stroke="#20376C"/>
<path d="M325.807 263.314V265.038H320.342V268.838H324.603V270.563H320.342V276.199H318.23V263.314H325.807ZM329.876 263.314V276.199H327.764V263.314H329.876ZM343.227 276.199H341.115L334.761 266.577V276.199H332.649V263.295H334.761L341.115 272.899V263.295H343.227V276.199ZM350.256 264.611V262.683H354.11V276.199H351.979V264.611H350.256ZM357.011 269.265C357.011 267.126 357.369 265.458 358.085 264.259C358.814 263.048 360.062 262.442 361.827 262.442C363.594 262.442 364.835 263.048 365.551 264.259C366.28 265.458 366.644 267.126 366.644 269.265C366.644 271.428 366.28 273.121 365.551 274.345C364.835 275.555 363.594 276.162 361.827 276.162C360.062 276.162 358.814 275.555 358.085 274.345C357.369 273.121 357.011 271.428 357.011 269.265ZM364.569 269.265C364.569 268.264 364.501 267.416 364.365 266.725C364.242 266.032 363.983 265.47 363.587 265.038C363.193 264.593 362.605 264.37 361.827 264.37C361.049 264.37 360.463 264.593 360.067 265.038C359.673 265.47 359.407 266.032 359.271 266.725C359.148 267.416 359.086 268.264 359.086 269.265C359.086 270.303 359.148 271.174 359.271 271.879C359.395 272.584 359.654 273.152 360.049 273.585C360.456 274.017 361.049 274.234 361.827 274.234C362.605 274.234 363.193 274.017 363.587 273.585C363.995 273.152 364.26 272.584 364.384 271.879C364.508 271.174 364.569 270.303 364.569 269.265ZM368.601 264.611V262.683H372.454V276.199H370.324V264.611H368.601Z" fill="#B9BFC6"/>
<path d="M169.329 673.537C169.329 694.015 152.651 710.62 132.072 710.62C111.494 710.62 94.8164 694.015 94.8164 673.537C94.8164 653.058 111.494 636.453 132.072 636.453C152.651 636.453 169.329 653.058 169.329 673.537Z" fill="#20376C" stroke="#20376C"/>
<path d="M107.335 678.291H111.688V679.997H105.223V667.112H107.335V678.291ZM124.031 679.997H121.919L115.565 670.375V679.997H113.453V667.093H115.565L121.919 676.697V667.093H124.031V679.997ZM131.302 669.818C131.376 668.669 131.814 667.773 132.617 667.13C133.433 666.487 134.47 666.166 135.73 666.166C136.594 666.166 137.341 666.32 137.971 666.63C138.601 666.938 139.076 667.358 139.398 667.89C139.718 668.421 139.879 669.021 139.879 669.689C139.879 670.454 139.675 671.11 139.268 671.654C138.86 672.197 138.372 672.562 137.804 672.748V672.822C138.532 673.044 139.101 673.452 139.509 674.045C139.916 674.626 140.12 675.374 140.12 676.289C140.12 677.017 139.953 677.666 139.62 678.235C139.286 678.804 138.792 679.255 138.138 679.589C137.483 679.91 136.698 680.071 135.785 680.071C134.451 680.071 133.352 679.731 132.488 679.051C131.636 678.359 131.178 677.37 131.117 676.085H133.155C133.204 676.739 133.457 677.277 133.914 677.698C134.371 678.106 134.989 678.31 135.767 678.31C136.52 678.31 137.1 678.106 137.508 677.698C137.916 677.277 138.119 676.739 138.119 676.085C138.119 675.219 137.841 674.607 137.286 674.249C136.742 673.879 135.902 673.693 134.766 673.693H134.285V671.95H134.785C135.785 671.937 136.545 671.771 137.063 671.45C137.594 671.128 137.86 670.621 137.86 669.93C137.86 669.336 137.668 668.866 137.286 668.521C136.902 668.162 136.359 667.983 135.656 667.983C134.964 667.983 134.426 668.162 134.044 668.521C133.66 668.866 133.433 669.299 133.358 669.818H131.302ZM142.338 673.063C142.338 670.924 142.696 669.256 143.413 668.057C144.141 666.846 145.389 666.24 147.155 666.24C148.92 666.24 150.162 666.846 150.878 668.057C151.606 669.256 151.971 670.924 151.971 673.063C151.971 675.225 151.606 676.919 150.878 678.143C150.162 679.353 148.92 679.96 147.155 679.96C145.389 679.96 144.141 679.353 143.413 678.143C142.696 676.919 142.338 675.225 142.338 673.063ZM149.897 673.063C149.897 672.062 149.828 671.214 149.693 670.523C149.569 669.83 149.309 669.268 148.915 668.836C148.519 668.391 147.933 668.168 147.155 668.168C146.377 668.168 145.79 668.391 145.395 668.836C145 669.268 144.734 669.83 144.598 670.523C144.474 671.214 144.413 672.062 144.413 673.063C144.413 674.101 144.474 674.972 144.598 675.677C144.722 676.381 144.981 676.95 145.377 677.383C145.784 677.815 146.377 678.031 147.155 678.031C147.933 678.031 148.519 677.815 148.915 677.383C149.322 676.95 149.587 676.381 149.711 675.677C149.835 674.972 149.897 674.101 149.897 673.063ZM153.928 668.409V666.481H157.781V679.997H155.65V668.409H153.928Z" fill="#B9BFC6"/>
<path d="M79.8932 202.387C79.8932 222.862 63.0837 239.471 42.3338 239.471C21.5839 239.471 4.77344 222.862 4.77344 202.387C4.77344 181.913 21.5839 165.304 42.3338 165.304C63.0837 165.304 79.8932 181.913 79.8932 202.387Z" fill="#20376C" stroke="#20376C"/>
<path d="M39.6228 182.058V194.943H37.5109V186.118L33.5836 194.943H32.1202L28.1743 186.118V194.943H26.0625V182.058H28.3411L32.8612 192.162L37.3627 182.058H39.6228ZM44.5106 182.058V194.943H42.3988V182.058H44.5106ZM57.8607 194.943H55.7488L49.3947 185.321V194.943H47.2829V182.039H49.3947L55.7488 191.643V182.039H57.8607V194.943ZM29.7193 219.879C30.9049 218.853 31.8377 218.012 32.5166 217.357C33.2085 216.69 33.7828 215.997 34.2394 215.281C34.6961 214.563 34.9249 213.847 34.9249 213.13C34.9249 212.389 34.7461 211.807 34.3876 211.388C34.0421 210.967 33.4919 210.757 32.7389 210.757C32.0099 210.757 31.4422 210.992 31.0346 211.462C30.6391 211.919 30.4298 212.537 30.4047 213.316H28.367C28.4041 211.907 28.8236 210.831 29.6267 210.09C30.4418 209.335 31.4727 208.959 32.7204 208.959C34.0662 208.959 35.1166 209.33 35.8696 210.071C36.6356 210.813 37.0182 211.801 37.0182 213.038C37.0182 213.927 36.7894 214.786 36.3328 215.615C35.8882 216.43 35.3509 217.165 34.7211 217.821C34.1033 218.463 33.3132 219.211 32.3499 220.064L31.5163 220.806H37.3887V222.567H28.3855V221.028L29.7193 219.879ZM39.244 215.819C39.244 213.68 39.6024 212.011 40.3184 210.813C41.0474 209.601 42.2941 208.996 44.0605 208.996C45.8268 208.996 47.068 209.601 47.784 210.813C48.5129 212.011 48.877 213.68 48.877 215.819C48.877 217.981 48.5129 219.675 47.784 220.898C47.068 222.109 45.8268 222.715 44.0605 222.715C42.2941 222.715 41.0474 222.109 40.3184 220.898C39.6024 219.675 39.244 217.981 39.244 215.819ZM46.8022 215.819C46.8022 214.817 46.7345 213.97 46.5984 213.279C46.4752 212.586 46.2158 212.023 45.8203 211.591C45.4248 211.146 44.8385 210.924 44.0605 210.924C43.2824 210.924 42.6961 211.146 42.3006 211.591C41.9051 212.023 41.6402 212.586 41.504 213.279C41.3808 213.97 41.3188 214.817 41.3188 215.819C41.3188 216.857 41.3808 217.728 41.504 218.433C41.6272 219.137 41.8865 219.705 42.2821 220.138C42.6896 220.57 43.2824 220.787 44.0605 220.787C44.8385 220.787 45.4248 220.57 45.8203 220.138C46.2279 219.705 46.4937 219.137 46.6169 218.433C46.7401 217.728 46.8022 216.857 46.8022 215.819ZM50.8341 211.165V209.237H54.6873V222.752H52.5569V211.165H50.8341Z" fill="#B9BFC6"/>
<path d="M534.957 127.295C534.957 147.769 518.146 164.377 497.396 164.377C476.646 164.377 459.836 147.769 459.836 127.295C459.836 106.82 476.646 90.2113 497.396 90.2113C518.146 90.2113 534.957 106.82 534.957 127.295Z" fill="#20376C" stroke="#20376C"/>
<path d="M474.565 108.67V112.452H479.011V114.176H474.565V118.125H479.567V119.849H472.453V106.946H479.567V108.67H474.565ZM481.465 113.379C481.465 112.118 481.755 110.987 482.335 109.986C482.928 108.985 483.725 108.206 484.725 107.65C485.737 107.082 486.842 106.797 488.041 106.797C489.412 106.797 490.628 107.137 491.69 107.817C492.765 108.484 493.543 109.436 494.025 110.672H491.487C491.153 109.993 490.69 109.486 490.097 109.152C489.504 108.818 488.819 108.651 488.041 108.651C487.189 108.651 486.429 108.843 485.762 109.226C485.096 109.609 484.57 110.159 484.188 110.876C483.817 111.593 483.632 112.427 483.632 113.379C483.632 114.331 483.817 115.165 484.188 115.882C484.57 116.598 485.096 117.154 485.762 117.55C486.429 117.933 487.189 118.125 488.041 118.125C488.819 118.125 489.504 117.958 490.097 117.624C490.69 117.291 491.153 116.784 491.487 116.104H494.025C493.543 117.34 492.765 118.292 491.69 118.959C490.628 119.627 489.412 119.96 488.041 119.96C486.83 119.96 485.725 119.682 484.725 119.126C483.725 118.558 482.928 117.773 482.335 116.772C481.755 115.77 481.465 114.64 481.465 113.379ZM502.368 119.979C501.171 119.979 500.066 119.701 499.052 119.145C498.052 118.576 497.255 117.791 496.662 116.79C496.083 115.777 495.792 114.64 495.792 113.379C495.792 112.118 496.083 110.987 496.662 109.986C497.255 108.985 498.052 108.206 499.052 107.65C500.066 107.082 501.171 106.797 502.368 106.797C503.579 106.797 504.684 107.082 505.684 107.65C506.698 108.206 507.494 108.985 508.074 109.986C508.655 110.987 508.945 112.118 508.945 113.379C508.945 114.64 508.655 115.777 508.074 116.79C507.494 117.791 506.698 118.576 505.684 119.145C504.684 119.701 503.579 119.979 502.368 119.979ZM502.368 118.144C503.22 118.144 503.98 117.952 504.647 117.569C505.314 117.173 505.832 116.617 506.203 115.9C506.586 115.171 506.777 114.331 506.777 113.379C506.777 112.427 506.586 111.593 506.203 110.876C505.832 110.159 505.314 109.609 504.647 109.226C503.98 108.843 503.22 108.651 502.368 108.651C501.516 108.651 500.757 108.843 500.09 109.226C499.423 109.609 498.898 110.159 498.515 110.876C498.144 111.593 497.959 112.427 497.959 113.379C497.959 114.331 498.144 115.171 498.515 115.9C498.898 116.617 499.423 117.173 500.09 117.569C500.757 117.952 501.516 118.144 502.368 118.144ZM521.601 119.849H519.489L513.135 110.227V119.849H511.023V106.946H513.135L519.489 116.549V106.946H521.601V119.849ZM482.107 144.785C483.293 143.759 484.226 142.919 484.905 142.264C485.597 141.596 486.171 140.904 486.628 140.187C487.085 139.471 487.313 138.753 487.313 138.037C487.313 137.295 487.134 136.714 486.776 136.294C486.43 135.874 485.881 135.664 485.127 135.664C484.399 135.664 483.83 135.898 483.423 136.368C483.028 136.825 482.818 137.443 482.793 138.222H480.755C480.792 136.813 481.213 135.738 482.015 134.996C482.83 134.243 483.862 133.865 485.108 133.865C486.455 133.865 487.505 134.236 488.258 134.978C489.024 135.719 489.406 136.708 489.406 137.944C489.406 138.834 489.178 139.693 488.721 140.521C488.276 141.337 487.739 142.072 487.109 142.727C486.492 143.37 485.701 144.118 484.738 144.971L483.904 145.712H489.777V147.473H480.774V145.935L482.107 144.785ZM491.632 140.725C491.632 138.586 491.99 136.918 492.706 135.719C493.435 134.508 494.683 133.902 496.449 133.902C498.215 133.902 499.456 134.508 500.172 135.719C500.901 136.918 501.265 138.586 501.265 140.725C501.265 142.888 500.901 144.581 500.172 145.805C499.456 147.016 498.215 147.622 496.449 147.622C494.683 147.622 493.435 147.016 492.706 145.805C491.99 144.581 491.632 142.888 491.632 140.725ZM499.19 140.725C499.19 139.724 499.123 138.878 498.986 138.185C498.863 137.493 498.604 136.931 498.208 136.498C497.814 136.053 497.227 135.831 496.449 135.831C495.671 135.831 495.084 136.053 494.689 136.498C494.294 136.931 494.028 137.493 493.892 138.185C493.769 138.878 493.707 139.724 493.707 140.725C493.707 141.763 493.769 142.635 493.892 143.339C494.016 144.044 494.276 144.612 494.67 145.045C495.078 145.478 495.671 145.694 496.449 145.694C497.227 145.694 497.814 145.478 498.208 145.045C498.616 144.612 498.882 144.044 499.005 143.339C499.129 142.635 499.19 141.763 499.19 140.725ZM512.207 135.96H506.001V139.65C506.26 139.304 506.643 139.013 507.15 138.778C507.668 138.544 508.218 138.426 508.798 138.426C509.836 138.426 510.675 138.649 511.318 139.094C511.972 139.538 512.435 140.101 512.707 140.781C512.99 141.46 513.133 142.178 513.133 142.931C513.133 143.846 512.953 144.662 512.596 145.378C512.249 146.083 511.725 146.639 511.021 147.047C510.329 147.455 509.477 147.659 508.465 147.659C507.118 147.659 506.038 147.325 505.223 146.658C504.408 145.99 503.92 145.107 503.759 144.007H505.816C505.951 144.588 506.254 145.051 506.723 145.397C507.192 145.731 507.779 145.898 508.483 145.898C509.36 145.898 510.014 145.632 510.447 145.1C510.892 144.569 511.114 143.865 511.114 142.987C511.114 142.097 510.892 141.417 510.447 140.947C510.002 140.465 509.348 140.224 508.483 140.224C507.878 140.224 507.365 140.379 506.946 140.688C506.538 140.985 506.242 141.392 506.057 141.912H504.056V134.106H512.207V135.96Z" fill="#B9BFC6"/>
<path d="M591.54 207.838C591.54 228.316 574.861 244.921 554.283 244.921C533.704 244.921 517.027 228.316 517.027 207.838C517.027 187.36 533.704 170.755 554.283 170.755C574.861 170.755 591.54 187.36 591.54 207.838Z" fill="#20376C" stroke="#20376C"/>
<path d="M529.393 201.412V203.136H523.928V206.937H528.189V208.661H523.928V214.297H521.816V201.412H529.393ZM533.462 201.412V214.297H531.35V201.412H533.462ZM546.813 214.297H544.701L538.347 204.675V214.297H536.235V201.394H538.347L544.701 210.997V201.394H546.813V214.297ZM555.287 211.424C556.473 210.398 557.406 209.558 558.085 208.902C558.777 208.235 559.351 207.543 559.808 206.826C560.265 206.109 560.493 205.393 560.493 204.675C560.493 203.934 560.314 203.353 559.956 202.932C559.61 202.512 559.061 202.302 558.307 202.302C557.579 202.302 557.01 202.537 556.603 203.007C556.208 203.464 555.998 204.082 555.973 204.861H553.935C553.972 203.451 554.393 202.376 555.195 201.635C556.01 200.881 557.042 200.504 558.288 200.504C559.635 200.504 560.685 200.874 561.438 201.616C562.204 202.358 562.586 203.347 562.586 204.582C562.586 205.472 562.358 206.332 561.901 207.159C561.456 207.975 560.919 208.711 560.289 209.366C559.672 210.009 558.881 210.756 557.918 211.609L557.084 212.351H562.957V214.112H553.954V212.573L555.287 211.424ZM564.812 207.363C564.812 205.226 565.171 203.557 565.886 202.358C566.615 201.147 567.862 200.541 569.629 200.541C571.395 200.541 572.636 201.147 573.352 202.358C574.081 203.557 574.445 205.226 574.445 207.363C574.445 209.527 574.081 211.22 573.352 212.443C572.636 213.655 571.395 214.26 569.629 214.26C567.862 214.26 566.615 213.655 565.886 212.443C565.171 211.22 564.812 209.527 564.812 207.363ZM572.37 207.363C572.37 206.362 572.303 205.516 572.166 204.823C572.043 204.132 571.784 203.569 571.388 203.136C570.993 202.691 570.407 202.469 569.629 202.469C568.85 202.469 568.264 202.691 567.869 203.136C567.473 203.569 567.208 204.132 567.072 204.823C566.949 205.516 566.887 206.362 566.887 207.363C566.887 208.402 566.949 209.273 567.072 209.977C567.195 210.682 567.455 211.251 567.85 211.683C568.258 212.116 568.85 212.332 569.629 212.332C570.407 212.332 570.993 212.116 571.388 211.683C571.796 211.251 572.062 210.682 572.185 209.977C572.308 209.273 572.37 208.402 572.37 207.363ZM585.387 202.599H579.181V206.288C579.44 205.942 579.823 205.652 580.329 205.417C580.848 205.182 581.397 205.064 581.978 205.064C583.016 205.064 583.855 205.287 584.498 205.732C585.152 206.177 585.615 206.74 585.887 207.419C586.17 208.099 586.313 208.816 586.313 209.57C586.313 210.485 586.133 211.3 585.776 212.017C585.429 212.721 584.905 213.278 584.201 213.685C583.509 214.093 582.657 214.297 581.645 214.297C580.298 214.297 579.218 213.964 578.403 213.296C577.588 212.629 577.1 211.745 576.939 210.645H578.996C579.131 211.226 579.434 211.69 579.903 212.035C580.372 212.369 580.959 212.536 581.663 212.536C582.54 212.536 583.194 212.271 583.627 211.739C584.072 211.208 584.294 210.503 584.294 209.625C584.294 208.735 584.072 208.056 583.627 207.586C583.182 207.104 582.527 206.863 581.663 206.863C581.058 206.863 580.545 207.018 580.126 207.326C579.718 207.623 579.422 208.031 579.236 208.55H577.236V200.745H585.387V202.599Z" fill="#B9BFC6"/>
<path d="M220.43 227.217C220.43 247.695 203.753 264.3 183.175 264.3C162.596 264.3 145.918 247.695 145.918 227.217C145.918 206.739 162.596 190.134 183.175 190.134C203.753 190.134 220.43 206.739 220.43 227.217Z" fill="#F2870D" stroke="#F39324"/>
<path d="M164.428 219.901C163.563 219.901 162.785 219.753 162.094 219.456C161.402 219.147 160.858 218.714 160.464 218.158C160.068 217.602 159.871 216.953 159.871 216.211H162.131C162.18 216.768 162.396 217.226 162.78 217.583C163.174 217.942 163.724 218.121 164.428 218.121C165.156 218.121 165.725 217.949 166.133 217.602C166.54 217.244 166.744 216.786 166.744 216.23C166.744 215.798 166.614 215.446 166.355 215.173C166.108 214.902 165.793 214.691 165.41 214.543C165.04 214.395 164.521 214.234 163.854 214.061C163.014 213.838 162.328 213.616 161.798 213.393C161.279 213.159 160.834 212.8 160.464 212.318C160.093 211.836 159.908 211.194 159.908 210.39C159.908 209.648 160.093 209 160.464 208.443C160.834 207.887 161.353 207.461 162.02 207.164C162.687 206.867 163.458 206.719 164.336 206.719C165.582 206.719 166.601 207.034 167.392 207.665C168.194 208.283 168.639 209.136 168.726 210.223H166.392C166.355 209.754 166.133 209.352 165.725 209.018C165.317 208.684 164.78 208.517 164.113 208.517C163.508 208.517 163.014 208.672 162.631 208.981C162.248 209.291 162.057 209.736 162.057 210.316C162.057 210.712 162.174 211.039 162.409 211.298C162.655 211.546 162.965 211.743 163.335 211.892C163.706 212.04 164.212 212.201 164.854 212.374C165.706 212.609 166.397 212.844 166.929 213.078C167.472 213.314 167.929 213.678 168.3 214.172C168.683 214.654 168.874 215.303 168.874 216.119C168.874 216.774 168.695 217.392 168.337 217.973C167.991 218.554 167.478 219.024 166.799 219.382C166.133 219.728 165.342 219.901 164.428 219.901ZM173.478 208.592V212.374H177.924V214.098H173.478V218.047H178.479V219.771H171.366V206.867H178.479V208.592H173.478ZM180.376 213.301C180.376 212.04 180.666 210.909 181.247 209.908C181.84 208.907 182.636 208.128 183.637 207.572C184.649 207.004 185.755 206.719 186.953 206.719C188.324 206.719 189.54 207.059 190.602 207.739C191.677 208.406 192.455 209.358 192.936 210.594H190.398C190.065 209.914 189.602 209.407 189.009 209.074C188.416 208.74 187.731 208.573 186.953 208.573C186.101 208.573 185.341 208.765 184.674 209.148C184.007 209.532 183.482 210.081 183.1 210.798C182.729 211.515 182.544 212.35 182.544 213.301C182.544 214.253 182.729 215.087 183.1 215.804C183.482 216.521 184.007 217.077 184.674 217.472C185.341 217.856 186.101 218.047 186.953 218.047C187.731 218.047 188.416 217.88 189.009 217.546C189.602 217.213 190.065 216.706 190.398 216.026H192.936C192.455 217.263 191.677 218.214 190.602 218.881C189.54 219.549 188.324 219.882 186.953 219.882C185.742 219.882 184.637 219.604 183.637 219.048C182.636 218.48 181.84 217.695 181.247 216.694C180.666 215.692 180.376 214.561 180.376 213.301ZM197.502 206.886V215.099C197.502 216.076 197.755 216.811 198.261 217.305C198.78 217.8 199.496 218.047 200.41 218.047C201.337 218.047 202.053 217.8 202.559 217.305C203.078 216.811 203.337 216.076 203.337 215.099V206.886H205.449V215.062C205.449 216.113 205.22 217.003 204.764 217.732C204.307 218.461 203.696 219.005 202.93 219.363C202.164 219.722 201.318 219.901 200.392 219.901C199.466 219.901 198.62 219.722 197.854 219.363C197.101 219.005 196.502 218.461 196.057 217.732C195.612 217.003 195.39 216.113 195.39 215.062V206.886H197.502ZM171.226 235.993V234.065H175.079V247.581H172.949V235.993H171.226ZM177.98 240.647C177.98 238.509 178.339 236.841 179.055 235.641C179.784 234.43 181.031 233.824 182.797 233.824C184.563 233.824 185.804 234.43 186.52 235.641C187.249 236.841 187.613 238.509 187.613 240.647C187.613 242.81 187.249 244.503 186.52 245.727C185.804 246.938 184.563 247.544 182.797 247.544C181.031 247.544 179.784 246.938 179.055 245.727C178.339 244.503 177.98 242.81 177.98 240.647ZM185.538 240.647C185.538 239.646 185.471 238.799 185.335 238.107C185.211 237.415 184.952 236.853 184.557 236.42C184.162 235.975 183.575 235.752 182.797 235.752C182.019 235.752 181.432 235.975 181.037 236.42C180.642 236.853 180.376 237.415 180.24 238.107C180.117 238.799 180.055 239.646 180.055 240.647C180.055 241.685 180.117 242.556 180.24 243.261C180.364 243.965 180.624 244.535 181.018 244.967C181.426 245.4 182.019 245.616 182.797 245.616C183.575 245.616 184.162 245.4 184.557 244.967C184.964 244.535 185.23 243.965 185.353 243.261C185.477 242.556 185.538 241.685 185.538 240.647ZM189.57 235.993V234.065H193.424V247.581H191.293V235.993H189.57Z" fill="white"/>
<path d="M238.4 268.447H127.949C122.833 268.447 118.688 272.598 118.688 277.717V299.701C118.688 304.821 122.833 308.971 127.949 308.971H238.4C243.515 308.971 247.662 304.821 247.662 299.701V277.717C247.662 272.598 243.515 268.447 238.4 268.447Z" fill="#CB720B"/>
<path d="M127.843 278.624V285.085H127V278.624H127.843ZM131.753 279.912C132.369 279.912 132.87 280.101 133.253 280.478C133.636 280.849 133.827 281.386 133.827 282.091V285.085H132.994V282.211C132.994 281.705 132.867 281.319 132.614 281.052C132.36 280.781 132.015 280.645 131.577 280.645C131.132 280.645 130.776 280.784 130.511 281.062C130.252 281.34 130.122 281.745 130.122 282.276V285.085H129.28V280.005H130.122V280.728C130.289 280.468 130.514 280.268 130.799 280.125C131.088 279.984 131.406 279.912 131.753 279.912ZM137.269 280.7H136.204V285.085H135.361V280.7H134.704V280.005H135.361V279.643C135.361 279.075 135.507 278.661 135.797 278.401C136.093 278.136 136.565 278.003 137.214 278.003V278.707C136.843 278.707 136.581 278.781 136.426 278.93C136.278 279.072 136.204 279.31 136.204 279.643V280.005H137.269V280.7ZM140.466 285.168C139.991 285.168 139.558 285.061 139.169 284.844C138.787 284.628 138.484 284.322 138.261 283.926C138.046 283.525 137.937 283.061 137.937 282.536C137.937 282.017 138.048 281.56 138.271 281.164C138.499 280.762 138.808 280.456 139.197 280.246C139.586 280.03 140.021 279.922 140.503 279.922C140.985 279.922 141.42 280.03 141.809 280.246C142.198 280.456 142.504 280.76 142.726 281.154C142.955 281.55 143.069 282.011 143.069 282.536C143.069 283.061 142.951 283.525 142.717 283.926C142.488 284.322 142.177 284.628 141.781 284.844C141.386 285.061 140.947 285.168 140.466 285.168ZM140.466 284.427C140.769 284.427 141.052 284.356 141.318 284.214C141.584 284.072 141.797 283.858 141.957 283.574C142.124 283.29 142.207 282.944 142.207 282.536C142.207 282.128 142.127 281.782 141.966 281.497C141.806 281.214 141.596 281.003 141.337 280.867C141.077 280.725 140.797 280.654 140.494 280.654C140.185 280.654 139.901 280.725 139.641 280.867C139.389 281.003 139.185 281.214 139.03 281.497C138.875 281.782 138.799 282.128 138.799 282.536C138.799 282.95 138.873 283.3 139.021 283.583C139.176 283.868 139.379 284.081 139.632 284.223C139.885 284.359 140.163 284.427 140.466 284.427ZM145.02 280.83C145.168 280.54 145.378 280.315 145.65 280.153C145.928 279.993 146.264 279.912 146.66 279.912V280.784H146.437C145.493 280.784 145.02 281.297 145.02 282.322V285.085H144.177V280.005H145.02V280.83ZM153.736 279.912C154.132 279.912 154.484 279.996 154.792 280.163C155.101 280.324 155.345 280.568 155.524 280.895C155.703 281.223 155.793 281.622 155.793 282.091V285.085H154.959V282.211C154.959 281.705 154.832 281.319 154.579 281.052C154.332 280.781 153.996 280.645 153.57 280.645C153.131 280.645 152.782 280.787 152.523 281.071C152.263 281.349 152.134 281.754 152.134 282.285V285.085H151.3V282.211C151.3 281.705 151.173 281.319 150.92 281.052C150.673 280.781 150.337 280.645 149.911 280.645C149.473 280.645 149.123 280.787 148.864 281.071C148.605 281.349 148.475 281.754 148.475 282.285V285.085H147.632V280.005H148.475V280.737C148.642 280.472 148.864 280.268 149.142 280.125C149.426 279.984 149.738 279.912 150.078 279.912C150.504 279.912 150.881 280.009 151.208 280.2C151.535 280.392 151.779 280.672 151.939 281.043C152.081 280.685 152.316 280.407 152.643 280.209C152.97 280.011 153.335 279.912 153.736 279.912ZM156.86 282.526C156.86 282.007 156.965 281.553 157.175 281.164C157.386 280.769 157.673 280.463 158.037 280.246C158.407 280.03 158.818 279.922 159.269 279.922C159.713 279.922 160.1 280.018 160.427 280.209C160.753 280.401 160.998 280.642 161.158 280.932V280.005H162.01V285.085H161.158V284.139C160.992 284.436 160.741 284.684 160.408 284.881C160.081 285.073 159.698 285.168 159.259 285.168C158.808 285.168 158.401 285.057 158.037 284.835C157.673 284.612 157.386 284.301 157.175 283.898C156.965 283.497 156.86 283.04 156.86 282.526ZM161.158 282.536C161.158 282.153 161.081 281.819 160.927 281.535C160.772 281.251 160.563 281.034 160.297 280.886C160.038 280.732 159.75 280.654 159.435 280.654C159.121 280.654 158.833 280.728 158.574 280.876C158.315 281.025 158.108 281.242 157.953 281.525C157.799 281.81 157.722 282.144 157.722 282.526C157.722 282.916 157.799 283.256 157.953 283.546C158.108 283.831 158.315 284.05 158.574 284.204C158.833 284.353 159.121 284.427 159.435 284.427C159.75 284.427 160.038 284.353 160.297 284.204C160.563 284.05 160.772 283.831 160.927 283.546C161.081 283.256 161.158 282.919 161.158 282.536ZM164.463 280.7V283.694C164.463 283.942 164.515 284.118 164.621 284.223C164.725 284.322 164.908 284.371 165.167 284.371H165.788V285.085H165.028C164.559 285.085 164.207 284.977 163.972 284.76C163.737 284.544 163.62 284.189 163.62 283.694V280.7H162.963V280.005H163.62V278.726H164.463V280.005H165.788V280.7H164.463ZM167.244 279.18C167.083 279.18 166.947 279.124 166.836 279.013C166.725 278.902 166.669 278.767 166.669 278.605C166.669 278.445 166.725 278.309 166.836 278.197C166.947 278.086 167.083 278.03 167.244 278.03C167.398 278.03 167.528 278.086 167.633 278.197C167.744 278.309 167.799 278.445 167.799 278.605C167.799 278.767 167.744 278.902 167.633 279.013C167.528 279.124 167.398 279.18 167.244 279.18ZM167.651 280.005V285.085H166.808V280.005H167.651ZM171.302 285.168C170.826 285.168 170.394 285.061 170.005 284.844C169.622 284.628 169.319 284.322 169.097 283.926C168.881 283.525 168.773 283.061 168.773 282.536C168.773 282.017 168.884 281.56 169.106 281.164C169.335 280.762 169.644 280.456 170.033 280.246C170.422 280.03 170.857 279.922 171.339 279.922C171.82 279.922 172.256 280.03 172.645 280.246C173.034 280.456 173.339 280.76 173.562 281.154C173.79 281.55 173.904 282.011 173.904 282.536C173.904 283.061 173.788 283.525 173.552 283.926C173.325 284.322 173.012 284.628 172.617 284.844C172.222 285.061 171.783 285.168 171.302 285.168ZM171.302 284.427C171.605 284.427 171.889 284.356 172.154 284.214C172.42 284.072 172.633 283.858 172.793 283.574C172.96 283.29 173.043 282.944 173.043 282.536C173.043 282.128 172.963 281.782 172.802 281.497C172.642 281.214 172.432 281.003 172.172 280.867C171.913 280.725 171.632 280.654 171.329 280.654C171.021 280.654 170.737 280.725 170.477 280.867C170.224 281.003 170.021 281.214 169.866 281.497C169.712 281.782 169.634 282.128 169.634 282.536C169.634 282.95 169.708 283.3 169.857 283.583C170.011 283.868 170.215 284.081 170.468 284.223C170.722 284.359 171 284.427 171.302 284.427ZM177.486 279.912C178.103 279.912 178.603 280.101 178.987 280.478C179.369 280.849 179.561 281.386 179.561 282.091V285.085H178.727V282.211C178.727 281.705 178.6 281.319 178.348 281.052C178.094 280.781 177.748 280.645 177.31 280.645C176.866 280.645 176.51 280.784 176.245 281.062C175.986 281.34 175.856 281.745 175.856 282.276V285.085H175.013V280.005H175.856V280.728C176.023 280.468 176.248 280.268 176.532 280.125C176.822 279.984 177.14 279.912 177.486 279.912ZM185.204 285.168C184.815 285.168 184.465 285.103 184.157 284.974C183.849 284.838 183.604 284.653 183.425 284.417C183.247 284.176 183.147 283.902 183.129 283.592H184C184.025 283.846 184.141 284.053 184.352 284.214C184.567 284.375 184.849 284.455 185.194 284.455C185.516 284.455 185.769 284.384 185.954 284.241C186.139 284.099 186.232 283.921 186.232 283.704C186.232 283.481 186.133 283.318 185.935 283.212C185.738 283.101 185.432 282.994 185.018 282.888C184.641 282.79 184.333 282.69 184.092 282.591C183.858 282.487 183.654 282.335 183.481 282.137C183.314 281.933 183.231 281.668 183.231 281.34C183.231 281.08 183.308 280.843 183.462 280.626C183.617 280.41 183.836 280.24 184.12 280.116C184.404 279.986 184.729 279.922 185.093 279.922C185.655 279.922 186.109 280.064 186.454 280.348C186.8 280.633 186.985 281.022 187.01 281.516H186.167C186.148 281.251 186.04 281.038 185.843 280.876C185.651 280.716 185.392 280.635 185.065 280.635C184.762 280.635 184.521 280.7 184.342 280.83C184.164 280.96 184.074 281.13 184.074 281.34C184.074 281.507 184.126 281.646 184.231 281.757C184.342 281.863 184.478 281.949 184.639 282.017C184.805 282.079 185.034 282.15 185.324 282.23C185.688 282.329 185.985 282.428 186.213 282.526C186.442 282.619 186.637 282.762 186.797 282.953C186.964 283.145 187.05 283.395 187.056 283.704C187.056 283.982 186.979 284.232 186.825 284.455C186.67 284.677 186.451 284.853 186.167 284.983C185.889 285.107 185.568 285.168 185.204 285.168ZM192.878 282.35C192.878 282.512 192.868 282.681 192.85 282.86H188.793C188.823 283.361 188.993 283.754 189.302 284.037C189.617 284.315 189.997 284.455 190.442 284.455C190.806 284.455 191.109 284.371 191.349 284.204C191.596 284.032 191.769 283.803 191.868 283.518H192.776C192.64 284.007 192.368 284.405 191.961 284.714C191.553 285.017 191.046 285.168 190.442 285.168C189.96 285.168 189.527 285.061 189.145 284.844C188.768 284.628 188.472 284.322 188.256 283.926C188.039 283.525 187.932 283.061 187.932 282.536C187.932 282.011 188.036 281.55 188.246 281.154C188.456 280.76 188.749 280.456 189.126 280.246C189.509 280.03 189.947 279.922 190.442 279.922C190.923 279.922 191.349 280.027 191.72 280.237C192.09 280.447 192.374 280.737 192.572 281.108C192.776 281.473 192.878 281.887 192.878 282.35ZM192.007 282.174C192.007 281.853 191.936 281.578 191.794 281.349C191.651 281.115 191.457 280.938 191.21 280.821C190.97 280.697 190.701 280.635 190.405 280.635C189.979 280.635 189.614 280.772 189.312 281.043C189.015 281.316 188.845 281.692 188.802 282.174H192.007ZM193.675 282.536C193.675 282.011 193.78 281.553 193.99 281.164C194.2 280.769 194.49 280.463 194.861 280.246C195.238 280.03 195.667 279.922 196.148 279.922C196.772 279.922 197.285 280.074 197.686 280.376C198.093 280.679 198.362 281.099 198.492 281.636H197.584C197.498 281.328 197.327 281.084 197.075 280.904C196.827 280.725 196.519 280.635 196.148 280.635C195.667 280.635 195.278 280.802 194.981 281.136C194.685 281.464 194.537 281.93 194.537 282.536C194.537 283.147 194.685 283.62 194.981 283.954C195.278 284.288 195.667 284.455 196.148 284.455C196.519 284.455 196.827 284.368 197.075 284.195C197.322 284.023 197.491 283.775 197.584 283.453H198.492C198.356 283.972 198.084 284.39 197.677 284.705C197.269 285.014 196.76 285.168 196.148 285.168C195.667 285.168 195.238 285.061 194.861 284.844C194.49 284.628 194.2 284.322 193.99 283.926C193.78 283.531 193.675 283.068 193.675 282.536ZM204.118 280.005V285.085H203.275V284.334C203.115 284.594 202.889 284.798 202.599 284.946C202.314 285.089 201.999 285.159 201.654 285.159C201.258 285.159 200.904 285.079 200.589 284.918C200.274 284.751 200.024 284.505 199.838 284.176C199.66 283.849 199.57 283.451 199.57 282.981V280.005H200.403V282.869C200.403 283.37 200.53 283.757 200.783 284.028C201.036 284.294 201.383 284.427 201.821 284.427C202.272 284.427 202.626 284.288 202.886 284.01C203.145 283.731 203.275 283.327 203.275 282.795V280.005H204.118ZM206.384 280.83C206.532 280.54 206.742 280.315 207.014 280.153C207.292 279.993 207.628 279.912 208.024 279.912V280.784H207.801C206.857 280.784 206.384 281.297 206.384 282.322V285.085H205.541V280.005H206.384V280.83ZM209.432 279.18C209.271 279.18 209.135 279.124 209.024 279.013C208.913 278.902 208.857 278.767 208.857 278.605C208.857 278.445 208.913 278.309 209.024 278.197C209.135 278.086 209.271 278.03 209.432 278.03C209.586 278.03 209.716 278.086 209.821 278.197C209.932 278.309 209.987 278.445 209.987 278.605C209.987 278.767 209.932 278.902 209.821 279.013C209.716 279.124 209.586 279.18 209.432 279.18ZM209.839 280.005V285.085H208.996V280.005H209.839ZM212.304 280.7V283.694C212.304 283.942 212.357 284.118 212.461 284.223C212.566 284.322 212.749 284.371 213.008 284.371H213.628V285.085H212.869C212.399 285.085 212.047 284.977 211.813 284.76C211.579 284.544 211.461 284.189 211.461 283.694V280.7H210.803V280.005H211.461V278.726H212.304V280.005H213.628V280.7H212.304ZM219.022 280.005L215.965 287.477H215.095L216.095 285.029L214.048 280.005H214.984L216.577 284.121L218.151 280.005H219.022ZM222.023 282.526C222.023 282.007 222.129 281.553 222.338 281.164C222.548 280.769 222.835 280.463 223.199 280.246C223.57 280.03 223.981 279.922 224.431 279.922C224.876 279.922 225.262 280.018 225.589 280.209C225.917 280.401 226.161 280.642 226.321 280.932V280.005H227.173V285.085H226.321V284.139C226.154 284.436 225.904 284.684 225.571 284.881C225.244 285.073 224.861 285.168 224.422 285.168C223.972 285.168 223.564 285.057 223.199 284.835C222.835 284.612 222.548 284.301 222.338 283.898C222.129 283.497 222.023 283.04 222.023 282.526ZM226.321 282.536C226.321 282.153 226.244 281.819 226.089 281.535C225.936 281.251 225.725 281.034 225.459 280.886C225.2 280.732 224.913 280.654 224.598 280.654C224.283 280.654 223.996 280.728 223.737 280.876C223.477 281.025 223.271 281.242 223.116 281.525C222.962 281.81 222.884 282.144 222.884 282.526C222.884 282.916 222.962 283.256 223.116 283.546C223.271 283.831 223.477 284.05 223.737 284.204C223.996 284.353 224.283 284.427 224.598 284.427C224.913 284.427 225.2 284.353 225.459 284.204C225.725 284.05 225.936 283.831 226.089 283.546C226.244 283.256 226.321 282.919 226.321 282.536ZM231.071 279.912C231.689 279.912 232.189 280.101 232.571 280.478C232.955 280.849 233.145 281.386 233.145 282.091V285.085H232.312V282.211C232.312 281.705 232.186 281.319 231.932 281.052C231.679 280.781 231.334 280.645 230.895 280.645C230.45 280.645 230.095 280.784 229.83 281.062C229.57 281.34 229.44 281.745 229.44 282.276V285.085H228.598V280.005H229.44V280.728C229.607 280.468 229.833 280.268 230.117 280.125C230.408 279.984 230.725 279.912 231.071 279.912ZM234.208 282.526C234.208 282.007 234.313 281.553 234.523 281.164C234.732 280.769 235.019 280.463 235.384 280.246C235.755 280.03 236.168 279.922 236.625 279.922C237.02 279.922 237.388 280.014 237.728 280.2C238.067 280.379 238.326 280.617 238.506 280.913V278.225H239.358V285.085H238.506V284.13C238.339 284.433 238.092 284.684 237.765 284.881C237.437 285.073 237.054 285.168 236.616 285.168C236.165 285.168 235.755 285.057 235.384 284.835C235.019 284.612 234.732 284.301 234.523 283.898C234.313 283.497 234.208 283.04 234.208 282.526ZM238.506 282.536C238.506 282.153 238.428 281.819 238.274 281.535C238.119 281.251 237.909 281.034 237.644 280.886C237.385 280.732 237.098 280.654 236.783 280.654C236.468 280.654 236.181 280.728 235.921 280.876C235.662 281.025 235.455 281.242 235.301 281.525C235.146 281.81 235.069 282.144 235.069 282.526C235.069 282.916 235.146 283.256 235.301 283.546C235.455 283.831 235.662 284.05 235.921 284.204C236.181 284.353 236.468 284.427 236.783 284.427C237.098 284.427 237.385 284.353 237.644 284.204C237.909 284.05 238.119 283.831 238.274 283.546C238.428 283.256 238.506 282.919 238.506 282.536ZM138.977 296.431C138.977 295.912 139.083 295.458 139.292 295.069C139.503 294.674 139.79 294.368 140.154 294.151C140.524 293.935 140.938 293.826 141.395 293.826C141.79 293.826 142.158 293.919 142.497 294.104C142.837 294.284 143.096 294.522 143.275 294.818V292.13H144.127V298.99H143.275V298.035C143.108 298.338 142.862 298.588 142.534 298.786C142.207 298.978 141.825 299.073 141.386 299.073C140.935 299.073 140.524 298.962 140.154 298.739C139.79 298.517 139.503 298.205 139.292 297.803C139.083 297.402 138.977 296.945 138.977 296.431ZM143.275 296.44C143.275 296.058 143.198 295.724 143.044 295.439C142.89 295.156 142.68 294.939 142.414 294.79C142.154 294.637 141.867 294.559 141.552 294.559C141.237 294.559 140.95 294.633 140.691 294.781C140.432 294.929 140.225 295.146 140.07 295.43C139.917 295.715 139.839 296.048 139.839 296.431C139.839 296.821 139.917 297.161 140.07 297.451C140.225 297.735 140.432 297.955 140.691 298.109C140.95 298.257 141.237 298.332 141.552 298.332C141.867 298.332 142.154 298.257 142.414 298.109C142.68 297.955 142.89 297.735 143.044 297.451C143.198 297.161 143.275 296.824 143.275 296.44ZM145.237 296.431C145.237 295.912 145.342 295.458 145.552 295.069C145.762 294.674 146.049 294.368 146.413 294.151C146.784 293.935 147.194 293.826 147.645 293.826C148.09 293.826 148.476 293.923 148.803 294.114C149.13 294.306 149.375 294.547 149.535 294.837V293.91H150.387V298.99H149.535V298.044C149.368 298.341 149.118 298.588 148.784 298.786C148.458 298.978 148.074 299.073 147.636 299.073C147.185 299.073 146.777 298.962 146.413 298.739C146.049 298.517 145.762 298.205 145.552 297.803C145.342 297.402 145.237 296.945 145.237 296.431ZM149.535 296.44C149.535 296.058 149.458 295.724 149.303 295.439C149.149 295.156 148.939 294.939 148.673 294.79C148.414 294.637 148.127 294.559 147.812 294.559C147.497 294.559 147.21 294.633 146.951 294.781C146.691 294.929 146.485 295.146 146.33 295.43C146.175 295.715 146.098 296.048 146.098 296.431C146.098 296.821 146.175 297.161 146.33 297.451C146.485 297.735 146.691 297.955 146.951 298.109C147.21 298.257 147.497 298.332 147.812 298.332C148.127 298.332 148.414 298.257 148.673 298.109C148.939 297.955 149.149 297.735 149.303 297.451C149.458 297.161 149.535 296.824 149.535 296.44ZM152.84 294.605V297.599C152.84 297.847 152.891 298.023 152.997 298.128C153.102 298.227 153.284 298.276 153.544 298.276H154.164V298.99H153.405C152.935 298.99 152.583 298.882 152.349 298.665C152.113 298.449 151.997 298.094 151.997 297.599V294.605H151.339V293.91H151.997V292.631H152.84V293.91H154.164V294.605H152.84ZM154.87 296.431C154.87 295.912 154.976 295.458 155.185 295.069C155.395 294.674 155.682 294.368 156.046 294.151C156.417 293.935 156.828 293.826 157.278 293.826C157.723 293.826 158.109 293.923 158.436 294.114C158.764 294.306 159.007 294.547 159.168 294.837V293.91H160.02V298.99H159.168V298.044C159.001 298.341 158.751 298.588 158.417 298.786C158.091 298.978 157.708 299.073 157.269 299.073C156.819 299.073 156.411 298.962 156.046 298.739C155.682 298.517 155.395 298.205 155.185 297.803C154.976 297.402 154.87 296.945 154.87 296.431ZM159.168 296.44C159.168 296.058 159.091 295.724 158.936 295.439C158.782 295.156 158.572 294.939 158.306 294.79C158.047 294.637 157.76 294.559 157.445 294.559C157.13 294.559 156.843 294.633 156.584 294.781C156.324 294.929 156.118 295.146 155.963 295.43C155.809 295.715 155.731 296.048 155.731 296.431C155.731 296.821 155.809 297.161 155.963 297.451C156.118 297.735 156.324 297.955 156.584 298.109C156.843 298.257 157.13 298.332 157.445 298.332C157.76 298.332 158.047 298.257 158.306 298.109C158.572 297.955 158.782 297.735 158.936 297.451C159.091 297.161 159.168 296.824 159.168 296.44ZM170.018 293.817C170.413 293.817 170.765 293.901 171.074 294.067C171.383 294.229 171.627 294.472 171.806 294.8C171.985 295.128 172.074 295.526 172.074 295.996V298.99H171.24V296.116C171.24 295.61 171.115 295.223 170.861 294.957C170.614 294.686 170.277 294.549 169.851 294.549C169.413 294.549 169.064 294.692 168.804 294.976C168.545 295.254 168.415 295.659 168.415 296.19V298.99H167.582V296.116C167.582 295.61 167.456 295.223 167.202 294.957C166.956 294.686 166.619 294.549 166.192 294.549C165.754 294.549 165.405 294.692 165.146 294.976C164.886 295.254 164.757 295.659 164.757 296.19V298.99H163.914V293.91H164.757V294.642C164.923 294.377 165.146 294.173 165.424 294.03C165.708 293.888 166.02 293.817 166.359 293.817C166.785 293.817 167.162 293.914 167.489 294.104C167.817 294.296 168.061 294.577 168.221 294.948C168.364 294.59 168.598 294.312 168.925 294.114C169.253 293.916 169.617 293.817 170.018 293.817ZM173.142 296.431C173.142 295.912 173.247 295.458 173.457 295.069C173.667 294.674 173.954 294.368 174.318 294.151C174.689 293.935 175.099 293.826 175.55 293.826C175.995 293.826 176.381 293.923 176.708 294.114C177.035 294.306 177.28 294.547 177.44 294.837V293.91H178.292V298.99H177.44V298.044C177.273 298.341 177.023 298.588 176.69 298.786C176.363 298.978 175.979 299.073 175.541 299.073C175.09 299.073 174.682 298.962 174.318 298.739C173.954 298.517 173.667 298.205 173.457 297.803C173.247 297.402 173.142 296.945 173.142 296.431ZM177.44 296.44C177.44 296.058 177.363 295.724 177.208 295.439C177.054 295.156 176.844 294.939 176.578 294.79C176.319 294.637 176.032 294.559 175.717 294.559C175.402 294.559 175.115 294.633 174.856 294.781C174.596 294.929 174.39 295.146 174.235 295.43C174.08 295.715 174.003 296.048 174.003 296.431C174.003 296.821 174.08 297.161 174.235 297.451C174.39 297.735 174.596 297.955 174.856 298.109C175.115 298.257 175.402 298.332 175.717 298.332C176.032 298.332 176.319 298.257 176.578 298.109C176.844 297.955 177.054 297.735 177.208 297.451C177.363 297.161 177.44 296.824 177.44 296.44ZM182.19 293.817C182.807 293.817 183.307 294.006 183.69 294.383C184.073 294.753 184.264 295.291 184.264 295.996V298.99H183.431V296.116C183.431 295.61 183.304 295.223 183.051 294.957C182.797 294.686 182.452 294.549 182.014 294.549C181.569 294.549 181.213 294.688 180.949 294.967C180.689 295.245 180.559 295.65 180.559 296.181V298.99H179.717V293.91H180.559V294.633C180.726 294.373 180.951 294.173 181.236 294.03C181.526 293.888 181.843 293.817 182.19 293.817ZM185.326 296.431C185.326 295.912 185.432 295.458 185.641 295.069C185.851 294.674 186.138 294.368 186.502 294.151C186.873 293.935 187.284 293.826 187.734 293.826C188.179 293.826 188.565 293.923 188.892 294.114C189.22 294.306 189.464 294.547 189.624 294.837V293.91H190.476V298.99H189.624V298.044C189.457 298.341 189.207 298.588 188.874 298.786C188.547 298.978 188.164 299.073 187.725 299.073C187.275 299.073 186.867 298.962 186.502 298.739C186.138 298.517 185.851 298.205 185.641 297.803C185.432 297.402 185.326 296.945 185.326 296.431ZM189.624 296.44C189.624 296.058 189.547 295.724 189.392 295.439C189.238 295.156 189.028 294.939 188.762 294.79C188.503 294.637 188.216 294.559 187.901 294.559C187.586 294.559 187.299 294.633 187.04 294.781C186.78 294.929 186.574 295.146 186.419 295.43C186.265 295.715 186.187 296.048 186.187 296.431C186.187 296.821 186.265 297.161 186.419 297.451C186.574 297.735 186.78 297.955 187.04 298.109C187.299 298.257 187.586 298.332 187.901 298.332C188.216 298.332 188.503 298.257 188.762 298.109C189.028 297.955 189.238 297.735 189.392 297.451C189.547 297.161 189.624 296.824 189.624 296.44ZM193.994 293.826C194.432 293.826 194.815 293.923 195.142 294.114C195.476 294.306 195.723 294.547 195.883 294.837V293.91H196.736V299.101C196.736 299.564 196.636 299.976 196.439 300.334C196.242 300.699 195.957 300.983 195.587 301.187C195.223 301.391 194.797 301.493 194.309 301.493C193.642 301.493 193.086 301.335 192.641 301.02C192.197 300.705 191.935 300.275 191.854 299.731H192.688C192.78 300.041 192.972 300.288 193.262 300.473C193.552 300.665 193.901 300.76 194.309 300.76C194.772 300.76 195.149 300.616 195.439 300.325C195.735 300.034 195.883 299.627 195.883 299.101V298.035C195.717 298.332 195.469 298.579 195.142 298.776C194.815 298.975 194.432 299.073 193.994 299.073C193.543 299.073 193.132 298.962 192.762 298.739C192.398 298.517 192.111 298.205 191.901 297.803C191.69 297.402 191.586 296.945 191.586 296.431C191.586 295.912 191.69 295.458 191.901 295.069C192.111 294.674 192.398 294.368 192.762 294.151C193.132 293.935 193.543 293.826 193.994 293.826ZM195.883 296.44C195.883 296.058 195.806 295.724 195.652 295.439C195.497 295.156 195.288 294.939 195.022 294.79C194.763 294.637 194.475 294.559 194.161 294.559C193.846 294.559 193.558 294.633 193.299 294.781C193.04 294.929 192.833 295.146 192.679 295.43C192.524 295.715 192.447 296.048 192.447 296.431C192.447 296.821 192.524 297.161 192.679 297.451C192.833 297.735 193.04 297.955 193.299 298.109C193.558 298.257 193.846 298.332 194.161 298.332C194.475 298.332 194.763 298.257 195.022 298.109C195.288 297.955 195.497 297.735 195.652 297.451C195.806 297.161 195.883 296.824 195.883 296.44ZM202.791 296.255C202.791 296.416 202.782 296.586 202.764 296.765H198.707C198.737 297.266 198.908 297.659 199.216 297.942C199.531 298.22 199.911 298.359 200.355 298.359C200.719 298.359 201.022 298.276 201.263 298.109C201.51 297.937 201.683 297.708 201.782 297.423H202.689C202.553 297.912 202.282 298.31 201.874 298.619C201.467 298.922 200.96 299.073 200.355 299.073C199.874 299.073 199.441 298.966 199.059 298.749C198.682 298.533 198.385 298.227 198.169 297.831C197.954 297.43 197.845 296.966 197.845 296.44C197.845 295.916 197.95 295.455 198.16 295.059C198.37 294.664 198.663 294.361 199.04 294.151C199.423 293.935 199.862 293.826 200.355 293.826C200.837 293.826 201.263 293.932 201.634 294.142C202.004 294.352 202.288 294.642 202.486 295.013C202.689 295.378 202.791 295.792 202.791 296.255ZM201.921 296.079C201.921 295.758 201.849 295.483 201.708 295.254C201.566 295.019 201.371 294.843 201.124 294.726C200.883 294.602 200.615 294.54 200.318 294.54C199.892 294.54 199.528 294.676 199.225 294.948C198.929 295.221 198.759 295.597 198.716 296.079H201.921ZM210.008 293.817C210.403 293.817 210.755 293.901 211.064 294.067C211.372 294.229 211.617 294.472 211.795 294.8C211.974 295.128 212.064 295.526 212.064 295.996V298.99H211.23V296.116C211.23 295.61 211.104 295.223 210.851 294.957C210.603 294.686 210.267 294.549 209.841 294.549C209.403 294.549 209.054 294.692 208.794 294.976C208.535 295.254 208.405 295.659 208.405 296.19V298.99H207.572V296.116C207.572 295.61 207.445 295.223 207.192 294.957C206.945 294.686 206.608 294.549 206.182 294.549C205.744 294.549 205.395 294.692 205.136 294.976C204.876 295.254 204.747 295.659 204.747 296.19V298.99H203.904V293.91H204.747V294.642C204.913 294.377 205.136 294.173 205.414 294.03C205.698 293.888 206.009 293.817 206.349 293.817C206.775 293.817 207.152 293.914 207.479 294.104C207.806 294.296 208.051 294.577 208.211 294.948C208.353 294.59 208.588 294.312 208.915 294.114C209.242 293.916 209.607 293.817 210.008 293.817ZM218.078 296.255C218.078 296.416 218.069 296.586 218.05 296.765H213.993C214.024 297.266 214.193 297.659 214.503 297.942C214.818 298.22 215.198 298.359 215.642 298.359C216.006 298.359 216.309 298.276 216.55 298.109C216.796 297.937 216.969 297.708 217.069 297.423H217.976C217.84 297.912 217.569 298.31 217.161 298.619C216.754 298.922 216.247 299.073 215.642 299.073C215.16 299.073 214.728 298.966 214.345 298.749C213.968 298.533 213.672 298.227 213.456 297.831C213.239 297.43 213.132 296.966 213.132 296.44C213.132 295.916 213.237 295.455 213.447 295.059C213.656 294.664 213.95 294.361 214.327 294.151C214.709 293.935 215.148 293.826 215.642 293.826C216.124 293.826 216.55 293.932 216.92 294.142C217.291 294.352 217.574 294.642 217.773 295.013C217.976 295.378 218.078 295.792 218.078 296.255ZM217.208 296.079C217.208 295.758 217.136 295.483 216.994 295.254C216.852 295.019 216.657 294.843 216.411 294.726C216.17 294.602 215.901 294.54 215.605 294.54C215.179 294.54 214.814 294.676 214.512 294.948C214.216 295.221 214.045 295.597 214.003 296.079H217.208ZM221.664 293.817C222.282 293.817 222.782 294.006 223.164 294.383C223.547 294.753 223.738 295.291 223.738 295.996V298.99H222.905V296.116C222.905 295.61 222.778 295.223 222.525 294.957C222.272 294.686 221.926 294.549 221.488 294.549C221.043 294.549 220.688 294.688 220.423 294.967C220.163 295.245 220.033 295.65 220.033 296.181V298.99H219.191V293.91H220.033V294.633C220.2 294.373 220.425 294.173 220.71 294.03C221 293.888 221.318 293.817 221.664 293.817ZM226.143 294.605V297.599C226.143 297.847 226.196 298.023 226.3 298.128C226.406 298.227 226.588 298.276 226.847 298.276H227.468V298.99H226.708C226.239 298.99 225.887 298.882 225.652 298.665C225.418 298.449 225.3 298.094 225.3 297.599V294.605H224.643V293.91H225.3V292.631H226.143V293.91H227.468V294.605H226.143Z" fill="white"/>
<path d="M183.176 264.763L187.027 268.632H179.324L183.176 264.763Z" fill="#CB720B"/>
</g>
</g>
<path d="M633 0.083252H0V684.083H633V0.083252Z" fill="url(#paint0_linear_1129_13794)"/>
</g>
<defs>
<linearGradient id="paint0_linear_1129_13794" x1="-22.1274" y1="766.481" x2="727.935" y2="195.329" gradientUnits="userSpaceOnUse">
<stop stop-color="#1B253E"/>
<stop offset="1" stop-color="#1B253E" stop-opacity="0"/>
</linearGradient>
<clipPath id="clip0_1129_13794">
<rect width="633" height="685" fill="white"/>
</clipPath>
</defs>
</svg>
