<svg width="742" height="712" viewBox="0 0 742 712" fill="none" xmlns="http://www.w3.org/2000/svg">
<g clip-path="url(#clip0_1129_13986)">
<path d="M401.078 476.177C401.825 483.989 401.975 505.343 396.59 528.258" stroke="#4769B8" stroke-width="2" stroke-dasharray="6 6"/>
<path d="M399.631 459.827C469.518 459.827 526.173 403.431 526.173 333.864C526.173 264.296 469.518 207.901 399.631 207.901C329.744 207.901 273.09 264.296 273.09 333.864C273.09 403.431 329.744 459.827 399.631 459.827Z" stroke="#6C87C6" stroke-width="3"/>
<path d="M374.992 543.398C497.126 543.398 596.136 444.706 596.136 322.963C596.136 201.22 497.126 102.528 374.992 102.528C252.857 102.528 153.848 201.22 153.848 322.963C153.848 444.706 252.857 543.398 374.992 543.398Z" stroke="#6C87C6" stroke-width="3"/>
<path d="M375.598 696.613C568.292 696.613 724.501 541.118 724.501 349.306C724.501 157.494 568.292 2 375.598 2C182.904 2 26.6953 157.494 26.6953 349.306C26.6953 541.118 182.904 696.613 375.598 696.613Z" stroke="#6C87C6" stroke-width="3"/>
<path d="M437.497 329.018C437.497 349.496 420.819 366.102 400.24 366.102C379.662 366.102 362.984 349.496 362.984 329.018C362.984 308.54 379.662 291.936 400.24 291.936C420.819 291.936 437.497 308.54 437.497 329.018Z" fill="#2D4C95" stroke="#2D4C95"/>
<path d="M375.106 328.86C375.798 328.983 376.384 329.348 376.866 329.954C377.348 330.559 377.588 331.245 377.588 332.011C377.588 332.667 377.415 333.26 377.07 333.791C376.736 334.31 376.248 334.725 375.606 335.033C374.964 335.33 374.217 335.478 373.365 335.478H368.215V322.593H373.124C374.001 322.593 374.754 322.742 375.384 323.038C376.014 323.335 376.489 323.736 376.81 324.243C377.132 324.737 377.292 325.294 377.292 325.912C377.292 326.654 377.095 327.272 376.699 327.766C376.304 328.26 375.773 328.625 375.106 328.86ZM370.327 328.007H372.939C373.631 328.007 374.168 327.852 374.55 327.543C374.946 327.222 375.143 326.765 375.143 326.171C375.143 325.59 374.946 325.14 374.55 324.818C374.168 324.484 373.631 324.318 372.939 324.318H370.327V328.007ZM373.18 333.754C373.896 333.754 374.458 333.581 374.865 333.235C375.273 332.889 375.477 332.407 375.477 331.789C375.477 331.159 375.261 330.658 374.828 330.287C374.396 329.917 373.821 329.731 373.105 329.731H370.327V333.754H373.18ZM388.201 322.593V324.318H384.774V335.478H382.662V324.318H379.217V322.593H388.201ZM389.636 329.008C389.636 327.747 389.926 326.616 390.507 325.615C391.1 324.614 391.896 323.835 392.897 323.279C393.909 322.711 395.014 322.426 396.213 322.426C397.583 322.426 398.8 322.767 399.862 323.446C400.936 324.114 401.715 325.066 402.196 326.301H399.658C399.325 325.622 398.862 325.115 398.269 324.781C397.676 324.447 396.991 324.28 396.213 324.28C395.36 324.28 394.601 324.472 393.934 324.855C393.267 325.238 392.742 325.789 392.359 326.505C391.989 327.222 391.804 328.056 391.804 329.008C391.804 329.96 391.989 330.794 392.359 331.511C392.742 332.227 393.267 332.784 393.934 333.18C394.601 333.562 395.36 333.754 396.213 333.754C396.991 333.754 397.676 333.587 398.269 333.254C398.862 332.92 399.325 332.413 399.658 331.733H402.196C401.715 332.969 400.936 333.921 399.862 334.589C398.8 335.256 397.583 335.59 396.213 335.59C395.002 335.59 393.897 335.312 392.897 334.755C391.896 334.187 391.1 333.402 390.507 332.401C389.926 331.4 389.636 330.269 389.636 329.008ZM408.924 323.891V321.963H412.778V335.478H410.647V323.891H408.924ZM415.679 328.545C415.679 326.406 416.037 324.737 416.753 323.539C417.482 322.327 418.729 321.722 420.495 321.722C422.262 321.722 423.503 322.327 424.219 323.539C424.948 324.737 425.312 326.406 425.312 328.545C425.312 330.707 424.948 332.401 424.219 333.624C423.503 334.836 422.262 335.441 420.495 335.441C418.729 335.441 417.482 334.836 416.753 333.624C416.037 332.401 415.679 330.707 415.679 328.545ZM423.237 328.545C423.237 327.543 423.169 326.697 423.033 326.005C422.91 325.312 422.651 324.75 422.255 324.318C421.86 323.873 421.273 323.65 420.495 323.65C419.717 323.65 419.131 323.873 418.735 324.318C418.34 324.75 418.075 325.312 417.939 326.005C417.816 326.697 417.753 327.543 417.753 328.545C417.753 329.583 417.816 330.454 417.939 331.159C418.062 331.863 418.321 332.431 418.717 332.864C419.124 333.297 419.717 333.513 420.495 333.513C421.273 333.513 421.86 333.297 422.255 332.864C422.663 332.431 422.928 331.863 423.052 331.159C423.175 330.454 423.237 329.583 423.237 328.545ZM427.268 323.891V321.963H431.121V335.478H428.991V323.891H427.268Z" fill="white"/>
<path d="M216.655 412.287C216.655 432.592 199.848 449.068 179.096 449.068C158.342 449.068 141.535 432.592 141.535 412.287C141.535 391.983 158.342 375.507 179.096 375.507C199.848 375.507 216.655 391.983 216.655 412.287Z" fill="#2D4C95" stroke="#2D4C95"/>
<path d="M168.774 397.469C169.466 397.592 170.052 397.957 170.534 398.563C171.016 399.168 171.256 399.854 171.256 400.621C171.256 401.275 171.084 401.868 170.738 402.401C170.404 402.92 169.917 403.333 169.274 403.643C168.632 403.939 167.885 404.088 167.033 404.088H161.883V391.202H166.792C167.669 391.202 168.422 391.351 169.052 391.647C169.682 391.944 170.158 392.345 170.478 392.853C170.8 393.347 170.96 393.903 170.96 394.521C170.96 395.263 170.763 395.88 170.367 396.375C169.973 396.869 169.441 397.233 168.774 397.469ZM163.995 396.616H166.607C167.299 396.616 167.836 396.461 168.218 396.153C168.614 395.831 168.811 395.374 168.811 394.781C168.811 394.199 168.614 393.748 168.218 393.427C167.836 393.094 167.299 392.927 166.607 392.927H163.995V396.616ZM166.848 402.363C167.564 402.363 168.126 402.19 168.533 401.844C168.941 401.498 169.145 401.016 169.145 400.398C169.145 399.768 168.929 399.267 168.496 398.897C168.065 398.526 167.49 398.34 166.773 398.34H163.995V402.363H166.848ZM181.869 391.202V392.927H178.442V404.088H176.33V392.927H172.885V391.202H181.869ZM183.304 397.617C183.304 396.357 183.594 395.226 184.175 394.224C184.768 393.223 185.564 392.445 186.565 391.888C187.577 391.319 188.683 391.036 189.881 391.036C191.251 391.036 192.468 391.375 193.53 392.055C194.604 392.723 195.382 393.674 195.864 394.91H193.326C192.993 394.23 192.53 393.724 191.937 393.39C191.344 393.056 190.659 392.89 189.881 392.89C189.028 392.89 188.269 393.081 187.602 393.464C186.935 393.847 186.41 394.397 186.027 395.114C185.657 395.831 185.472 396.665 185.472 397.617C185.472 398.568 185.657 399.403 186.027 400.12C186.41 400.837 186.935 401.393 187.602 401.789C188.269 402.172 189.028 402.363 189.881 402.363C190.659 402.363 191.344 402.197 191.937 401.863C192.53 401.529 192.993 401.022 193.326 400.343H195.864C195.382 401.578 194.604 402.53 193.53 403.198C192.468 403.865 191.251 404.199 189.881 404.199C188.67 404.199 187.565 403.921 186.565 403.365C185.564 402.795 184.768 402.011 184.175 401.01C183.594 400.009 183.304 398.878 183.304 397.617ZM163.803 429.024C164.989 427.997 165.921 427.157 166.6 426.502C167.292 425.835 167.866 425.142 168.323 424.426C168.781 423.708 169.008 422.992 169.008 422.275C169.008 421.534 168.83 420.952 168.471 420.532C168.126 420.112 167.576 419.902 166.822 419.902C166.094 419.902 165.526 420.137 165.118 420.607C164.724 421.064 164.513 421.682 164.488 422.461H162.451C162.488 421.052 162.908 419.976 163.71 419.235C164.525 418.48 165.557 418.104 166.804 418.104C168.151 418.104 169.2 418.474 169.953 419.216C170.719 419.958 171.102 420.946 171.102 422.182C171.102 423.072 170.874 423.931 170.416 424.759C169.972 425.575 169.435 426.31 168.805 426.966C168.188 427.608 167.397 428.356 166.433 429.209L165.6 429.951H171.472V431.712H162.469V430.173L163.803 429.024ZM173.328 424.963C173.328 422.825 173.686 421.156 174.402 419.958C175.131 418.746 176.379 418.141 178.144 418.141C179.91 418.141 181.152 418.746 181.868 419.958C182.597 421.156 182.961 422.825 182.961 424.963C182.961 427.126 182.597 428.82 181.868 430.043C181.152 431.254 179.91 431.86 178.144 431.86C176.379 431.86 175.131 431.254 174.402 430.043C173.686 428.82 173.328 427.126 173.328 424.963ZM180.886 424.963C180.886 423.962 180.818 423.115 180.682 422.423C180.559 421.731 180.299 421.168 179.904 420.736C179.509 420.291 178.922 420.069 178.144 420.069C177.366 420.069 176.78 420.291 176.384 420.736C175.99 421.168 175.724 421.731 175.588 422.423C175.464 423.115 175.402 423.962 175.402 424.963C175.402 426.002 175.464 426.873 175.588 427.578C175.712 428.282 175.971 428.85 176.366 429.283C176.773 429.715 177.366 429.932 178.144 429.932C178.922 429.932 179.509 429.715 179.904 429.283C180.311 428.85 180.577 428.282 180.701 427.578C180.825 426.873 180.886 426.002 180.886 424.963ZM193.902 420.199H187.696V423.888C187.956 423.541 188.338 423.251 188.845 423.017C189.364 422.781 189.913 422.664 190.494 422.664C191.531 422.664 192.371 422.887 193.013 423.332C193.668 423.777 194.131 424.339 194.403 425.019C194.687 425.699 194.829 426.415 194.829 427.17C194.829 428.084 194.65 428.899 194.291 429.617C193.946 430.321 193.421 430.878 192.717 431.285C192.025 431.693 191.173 431.897 190.16 431.897C188.814 431.897 187.734 431.564 186.918 430.896C186.103 430.229 185.615 429.344 185.455 428.245H187.511C187.647 428.825 187.949 429.289 188.419 429.635C188.889 429.969 189.475 430.136 190.179 430.136C191.056 430.136 191.71 429.87 192.142 429.339C192.587 428.807 192.809 428.102 192.809 427.225C192.809 426.335 192.587 425.655 192.142 425.186C191.698 424.704 191.043 424.463 190.179 424.463C189.574 424.463 189.061 424.617 188.641 424.926C188.234 425.223 187.937 425.631 187.752 426.15H185.751V418.345H193.902V420.199Z" fill="white"/>
<path d="M364.493 543.397C364.493 563.875 347.816 580.48 327.237 580.48C306.659 580.48 289.98 563.875 289.98 543.397C289.98 522.919 306.659 506.314 327.237 506.314C347.816 506.314 364.493 522.919 364.493 543.397Z" fill="#2D4C95" stroke="#2D4C95"/>
<path d="M302.651 548.152H307.004V549.858H300.539V536.972H302.651V548.152ZM319.348 549.858H317.237L310.882 540.235V549.858H308.771V536.954H310.882L317.237 546.557V536.954H319.348V549.858ZM327.824 546.984C329.009 545.958 329.941 545.117 330.621 544.462C331.312 543.795 331.886 543.103 332.344 542.386C332.8 541.669 333.029 540.952 333.029 540.235C333.029 539.494 332.849 538.913 332.492 538.493C332.145 538.072 331.596 537.862 330.843 537.862C330.114 537.862 329.546 538.097 329.139 538.567C328.743 539.024 328.533 539.642 328.509 540.421H326.471C326.508 539.012 326.928 537.937 327.731 537.195C328.546 536.44 329.577 536.064 330.825 536.064C332.17 536.064 333.22 536.435 333.974 537.176C334.739 537.918 335.122 538.906 335.122 540.143C335.122 541.033 334.894 541.891 334.437 542.72C333.992 543.535 333.455 544.271 332.825 544.926C332.208 545.568 331.417 546.316 330.454 547.169L329.621 547.911H335.493V549.672H326.49V548.133L327.824 546.984ZM337.348 542.924C337.348 540.785 337.706 539.117 338.423 537.918C339.151 536.706 340.398 536.101 342.165 536.101C343.93 536.101 345.171 536.706 345.888 537.918C346.616 539.117 346.981 540.785 346.981 542.924C346.981 545.086 346.616 546.78 345.888 548.004C345.171 549.214 343.93 549.82 342.165 549.82C340.398 549.82 339.151 549.214 338.423 548.004C337.706 546.78 337.348 545.086 337.348 542.924ZM344.906 542.924C344.906 541.923 344.838 541.075 344.703 540.384C344.579 539.691 344.319 539.129 343.925 538.697C343.529 538.252 342.943 538.029 342.165 538.029C341.387 538.029 340.799 538.252 340.405 538.697C340.009 539.129 339.744 539.691 339.608 540.384C339.484 541.075 339.423 541.923 339.423 542.924C339.423 543.962 339.484 544.833 339.608 545.538C339.731 546.242 339.991 546.811 340.386 547.243C340.794 547.675 341.387 547.892 342.165 547.892C342.943 547.892 343.529 547.675 343.925 547.243C344.332 546.811 344.597 546.242 344.721 545.538C344.844 544.833 344.906 543.962 344.906 542.924ZM348.937 538.27V536.342H352.791V549.858H350.66V538.27H348.937Z" fill="white"/>
<path d="M434.453 552.784C434.453 573.43 417.639 590.17 396.892 590.17C376.146 590.17 359.332 573.43 359.332 552.784C359.332 532.139 376.146 515.398 396.892 515.398C417.639 515.398 434.453 532.139 434.453 552.784Z" fill="#2D4C95" stroke="#2D4C95"/>
<path d="M370.198 557.366H374.551V559.072H368.086V546.187H370.198V557.366ZM386.895 559.072H384.783L378.429 549.45V559.072H376.318V546.168H378.429L384.783 555.772V546.168H386.895V559.072ZM395.37 556.198C396.555 555.172 397.488 554.332 398.167 553.677C398.859 553.009 399.433 552.317 399.89 551.6C400.347 550.884 400.575 550.166 400.575 549.45C400.575 548.708 400.396 548.127 400.038 547.707C399.692 547.287 399.143 547.076 398.389 547.076C397.661 547.076 397.092 547.311 396.685 547.781C396.29 548.238 396.08 548.856 396.055 549.635H394.017C394.054 548.226 394.475 547.151 395.277 546.409C396.092 545.655 397.124 545.278 398.371 545.278C399.717 545.278 400.767 545.649 401.52 546.39C402.286 547.132 402.668 548.121 402.668 549.357C402.668 550.247 402.441 551.106 401.983 551.934C401.538 552.75 401.001 553.485 400.371 554.14C399.754 554.782 398.963 555.531 398 556.383L397.167 557.125H403.039V558.886H394.036V557.347L395.37 556.198ZM404.894 552.138C404.894 549.999 405.253 548.331 405.969 547.132C406.698 545.92 407.945 545.315 409.711 545.315C411.477 545.315 412.718 545.92 413.434 547.132C414.163 548.331 414.527 549.999 414.527 552.138C414.527 554.3 414.163 555.994 413.434 557.218C412.718 558.429 411.477 559.035 409.711 559.035C407.945 559.035 406.698 558.429 405.969 557.218C405.253 555.994 404.894 554.3 404.894 552.138ZM412.452 552.138C412.452 551.137 412.385 550.29 412.249 549.598C412.125 548.905 411.866 548.344 411.471 547.911C411.076 547.466 410.489 547.243 409.711 547.243C408.933 547.243 408.346 547.466 407.951 547.911C407.556 548.344 407.29 548.905 407.154 549.598C407.031 550.29 406.969 551.137 406.969 552.138C406.969 553.176 407.031 554.047 407.154 554.752C407.278 555.456 407.538 556.025 407.932 556.458C408.34 556.89 408.933 557.106 409.711 557.106C410.489 557.106 411.076 556.89 411.471 556.458C411.878 556.025 412.144 555.456 412.267 554.752C412.391 554.047 412.452 553.176 412.452 552.138ZM417.929 556.198C419.115 555.172 420.048 554.332 420.727 553.677C421.418 553.009 421.993 552.317 422.449 551.6C422.906 550.884 423.135 550.166 423.135 549.45C423.135 548.708 422.956 548.127 422.598 547.707C422.252 547.287 421.702 547.076 420.949 547.076C420.22 547.076 419.652 547.311 419.245 547.781C418.849 548.238 418.64 548.856 418.615 549.635H416.577C416.614 548.226 417.034 547.151 417.837 546.409C418.652 545.655 419.683 545.278 420.93 545.278C422.276 545.278 423.327 545.649 424.08 546.39C424.846 547.132 425.228 548.121 425.228 549.357C425.228 550.247 424.999 551.106 424.543 551.934C424.098 552.75 423.561 553.485 422.931 554.14C422.313 554.782 421.523 555.531 420.56 556.383L419.726 557.125H425.599V558.886H416.596V557.347L417.929 556.198Z" fill="white"/>
<path d="M441.148 450.742C441.148 471.216 424.338 487.825 403.588 487.825C382.838 487.825 366.027 471.216 366.027 450.742C366.027 430.268 382.838 413.659 403.588 413.659C424.338 413.659 441.148 430.268 441.148 450.742Z" fill="#2D4C95" stroke="#2D4C95"/>
<path d="M393.266 436.679C393.958 436.802 394.545 437.166 395.026 437.773C395.508 438.378 395.749 439.064 395.749 439.83C395.749 440.485 395.576 441.078 395.23 441.61C394.896 442.129 394.409 442.543 393.766 442.852C393.125 443.149 392.377 443.297 391.525 443.297H386.375V430.412H391.284C392.161 430.412 392.914 430.561 393.544 430.857C394.174 431.154 394.65 431.555 394.971 432.062C395.292 432.556 395.452 433.113 395.452 433.731C395.452 434.472 395.255 435.09 394.859 435.585C394.465 436.079 393.933 436.443 393.266 436.679ZM388.487 435.826H391.099C391.791 435.826 392.328 435.671 392.711 435.362C393.106 435.041 393.303 434.584 393.303 433.99C393.303 433.409 393.106 432.958 392.711 432.637C392.328 432.303 391.791 432.136 391.099 432.136H388.487V435.826ZM391.34 441.573C392.057 441.573 392.618 441.4 393.025 441.054C393.433 440.707 393.637 440.225 393.637 439.608C393.637 438.978 393.421 438.477 392.988 438.106C392.557 437.735 391.983 437.55 391.266 437.55H388.487V441.573H391.34ZM406.362 430.412V432.136H402.935V443.297H400.823V432.136H397.377V430.412H406.362ZM407.796 436.827C407.796 435.566 408.086 434.435 408.667 433.434C409.26 432.433 410.056 431.654 411.057 431.098C412.069 430.529 413.175 430.245 414.373 430.245C415.744 430.245 416.96 430.585 418.022 431.265C419.097 431.932 419.875 432.884 420.356 434.12H417.818C417.485 433.44 417.022 432.934 416.429 432.6C415.836 432.266 415.151 432.099 414.373 432.099C413.521 432.099 412.761 432.29 412.094 432.674C411.427 433.057 410.902 433.607 410.52 434.324C410.149 435.041 409.964 435.875 409.964 436.827C409.964 437.778 410.149 438.612 410.52 439.33C410.902 440.046 411.427 440.603 412.094 440.998C412.761 441.381 413.521 441.573 414.373 441.573C415.151 441.573 415.836 441.406 416.429 441.073C417.022 440.739 417.485 440.232 417.818 439.552H420.356C419.875 440.788 419.097 441.74 418.022 442.407C416.96 443.075 415.744 443.409 414.373 443.409C413.162 443.409 412.057 443.13 411.057 442.574C410.056 442.005 409.26 441.221 408.667 440.22C408.086 439.219 407.796 438.088 407.796 436.827ZM389.528 459.52V457.592H393.381V471.107H391.251V459.52H389.528ZM396.282 464.173C396.282 462.035 396.641 460.366 397.357 459.167C398.086 457.956 399.333 457.35 401.099 457.35C402.865 457.35 404.106 457.956 404.822 459.167C405.551 460.366 405.915 462.035 405.915 464.173C405.915 466.336 405.551 468.029 404.822 469.253C404.106 470.464 402.865 471.07 401.099 471.07C399.333 471.07 398.086 470.464 397.357 469.253C396.641 468.029 396.282 466.336 396.282 464.173ZM403.84 464.173C403.84 463.172 403.773 462.325 403.637 461.633C403.513 460.941 403.254 460.378 402.859 459.946C402.464 459.501 401.877 459.279 401.099 459.279C400.321 459.279 399.734 459.501 399.339 459.946C398.944 460.378 398.678 460.941 398.542 461.633C398.419 462.325 398.357 463.172 398.357 464.173C398.357 465.211 398.419 466.083 398.542 466.787C398.666 467.492 398.926 468.06 399.32 468.493C399.728 468.925 400.321 469.142 401.099 469.142C401.877 469.142 402.464 468.925 402.859 468.493C403.266 468.06 403.532 467.492 403.655 466.787C403.779 466.083 403.84 465.211 403.84 464.173ZM409.317 468.233C410.503 467.207 411.436 466.366 412.115 465.712C412.806 465.044 413.381 464.352 413.837 463.635C414.294 462.918 414.523 462.201 414.523 461.485C414.523 460.743 414.344 460.162 413.986 459.742C413.64 459.321 413.09 459.112 412.337 459.112C411.608 459.112 411.04 459.346 410.633 459.816C410.237 460.273 410.028 460.892 410.003 461.67H407.965C408.002 460.261 408.422 459.186 409.225 458.444C410.04 457.69 411.071 457.313 412.318 457.313C413.664 457.313 414.715 457.684 415.468 458.426C416.234 459.167 416.616 460.156 416.616 461.392C416.616 462.282 416.387 463.14 415.931 463.969C415.486 464.785 414.949 465.52 414.319 466.175C413.701 466.818 412.911 467.566 411.948 468.419L411.114 469.16H416.987V470.922H407.983V469.383L409.317 468.233Z" fill="white"/>
<path d="M621.832 421.977C621.832 442.625 605.152 459.363 584.577 459.363C564.002 459.363 547.32 442.625 547.32 421.977C547.32 401.328 564.002 384.591 584.577 384.591C605.152 384.591 621.832 401.328 621.832 421.977Z" fill="#2D4C95" stroke="#2D4C95"/>
<path d="M574.262 407.741C574.953 407.864 575.541 408.229 576.022 408.835C576.504 409.44 576.745 410.126 576.745 410.893C576.745 411.547 576.572 412.14 576.226 412.673C575.893 413.192 575.404 413.605 574.763 413.915C574.12 414.211 573.373 414.36 572.521 414.36H567.371V401.474H572.28C573.156 401.474 573.91 401.623 574.54 401.919C575.17 402.216 575.645 402.617 575.967 403.125C576.287 403.619 576.448 404.175 576.448 404.793C576.448 405.535 576.25 406.152 575.856 406.647C575.46 407.141 574.929 407.505 574.262 407.741ZM569.483 406.888H572.095C572.786 406.888 573.323 406.733 573.707 406.425C574.101 406.103 574.299 405.646 574.299 405.053C574.299 404.471 574.101 404.02 573.707 403.699C573.323 403.366 572.786 403.199 572.095 403.199H569.483V406.888ZM572.336 412.635C573.052 412.635 573.614 412.462 574.022 412.116C574.429 411.77 574.633 411.288 574.633 410.67C574.633 410.04 574.416 409.539 573.985 409.168C573.552 408.798 572.978 408.612 572.262 408.612H569.483V412.635H572.336ZM587.357 401.474V403.199H583.93V414.36H581.818V403.199H578.372V401.474H587.357ZM588.792 407.889C588.792 406.629 589.082 405.498 589.662 404.496C590.255 403.495 591.052 402.717 592.052 402.16C593.065 401.591 594.17 401.308 595.368 401.308C596.739 401.308 597.956 401.647 599.017 402.327C600.092 402.995 600.87 403.946 601.351 405.182H598.814C598.48 404.502 598.017 403.996 597.424 403.662C596.831 403.328 596.146 403.162 595.368 403.162C594.516 403.162 593.756 403.353 593.089 403.736C592.422 404.119 591.898 404.669 591.515 405.386C591.144 406.103 590.959 406.937 590.959 407.889C590.959 408.84 591.144 409.675 591.515 410.392C591.898 411.109 592.422 411.665 593.089 412.061C593.756 412.444 594.516 412.635 595.368 412.635C596.146 412.635 596.831 412.469 597.424 412.135C598.017 411.801 598.48 411.294 598.814 410.615H601.351C600.87 411.85 600.092 412.802 599.017 413.47C597.956 414.137 596.739 414.471 595.368 414.471C594.158 414.471 593.052 414.193 592.052 413.637C591.052 413.067 590.255 412.283 589.662 411.282C589.082 410.281 588.792 409.15 588.792 407.889ZM571.969 439.296C573.155 438.269 574.086 437.429 574.766 436.774C575.457 436.107 576.032 435.414 576.489 434.698C576.946 433.98 577.175 433.264 577.175 432.547C577.175 431.806 576.995 431.224 576.637 430.804C576.291 430.384 575.742 430.174 574.989 430.174C574.26 430.174 573.692 430.409 573.284 430.879C572.889 431.336 572.678 431.954 572.654 432.733H570.617C570.654 431.323 571.073 430.248 571.876 429.507C572.691 428.752 573.722 428.376 574.97 428.376C576.316 428.376 577.365 428.746 578.119 429.488C578.884 430.23 579.268 431.218 579.268 432.454C579.268 433.344 579.039 434.203 578.582 435.031C578.138 435.847 577.601 436.582 576.971 437.238C576.353 437.88 575.563 438.628 574.6 439.481L573.766 440.223H579.638V441.984H570.635V440.445L571.969 439.296ZM581.493 435.235C581.493 433.097 581.851 431.428 582.567 430.23C583.296 429.018 584.544 428.413 586.309 428.413C588.076 428.413 589.317 429.018 590.033 430.23C590.762 431.428 591.126 433.097 591.126 435.235C591.126 437.398 590.762 439.092 590.033 440.315C589.317 441.526 588.076 442.132 586.309 442.132C584.544 442.132 583.296 441.526 582.567 440.315C581.851 439.092 581.493 437.398 581.493 435.235ZM589.051 435.235C589.051 434.234 588.983 433.387 588.847 432.695C588.724 432.003 588.465 431.44 588.069 431.008C587.675 430.563 587.087 430.341 586.309 430.341C585.531 430.341 584.945 430.563 584.549 431.008C584.155 431.44 583.889 432.003 583.753 432.695C583.63 433.387 583.568 434.234 583.568 435.235C583.568 436.274 583.63 437.145 583.753 437.85C583.877 438.554 584.136 439.122 584.531 439.555C584.938 439.987 585.531 440.204 586.309 440.204C587.087 440.204 587.675 439.987 588.069 439.555C588.477 439.122 588.742 438.554 588.866 437.85C588.99 437.145 589.051 436.274 589.051 435.235ZM593.083 430.582V428.654H596.936V442.169H594.806V430.582H593.083Z" fill="white"/>
<path d="M551.26 149.158C551.26 169.633 534.451 186.242 513.701 186.242C492.951 186.242 476.141 169.633 476.141 149.158C476.141 128.684 492.951 112.075 513.701 112.075C534.451 112.075 551.26 128.684 551.26 149.158Z" fill="#2D4C95" stroke="#2D4C95"/>
<path d="M490.87 130.533V134.316H495.316V136.04H490.87V139.989H495.871V141.713H488.758V128.809H495.871V130.533H490.87ZM497.768 135.243C497.768 133.982 498.058 132.851 498.639 131.85C499.232 130.849 500.028 130.07 501.029 129.514C502.041 128.945 503.147 128.661 504.345 128.661C505.716 128.661 506.932 129.001 507.994 129.681C509.069 130.348 509.847 131.3 510.328 132.536H507.79C507.457 131.856 506.994 131.349 506.401 131.015C505.808 130.682 505.123 130.515 504.345 130.515C503.493 130.515 502.733 130.707 502.066 131.09C501.399 131.473 500.874 132.023 500.492 132.74C500.121 133.457 499.936 134.291 499.936 135.243C499.936 136.195 500.121 137.029 500.492 137.745C500.874 138.463 501.399 139.019 502.066 139.414C502.733 139.798 503.493 139.989 504.345 139.989C505.123 139.989 505.808 139.822 506.401 139.488C506.994 139.154 507.457 138.648 507.79 137.968H510.328C509.847 139.204 509.069 140.156 507.994 140.823C506.932 141.49 505.716 141.824 504.345 141.824C503.134 141.824 502.029 141.546 501.029 140.99C500.028 140.422 499.232 139.636 498.639 138.635C498.058 137.634 497.768 136.503 497.768 135.243ZM518.673 141.843C517.474 141.843 516.369 141.565 515.357 141.008C514.357 140.44 513.56 139.655 512.967 138.654C512.386 137.641 512.096 136.503 512.096 135.243C512.096 133.982 512.386 132.851 512.967 131.85C513.56 130.849 514.357 130.07 515.357 129.514C516.369 128.945 517.474 128.661 518.673 128.661C519.883 128.661 520.988 128.945 521.989 129.514C523.001 130.07 523.798 130.849 524.379 131.85C524.958 132.851 525.249 133.982 525.249 135.243C525.249 136.503 524.958 137.641 524.379 138.654C523.798 139.655 523.001 140.44 521.989 141.008C520.988 141.565 519.883 141.843 518.673 141.843ZM518.673 140.007C519.525 140.007 520.285 139.816 520.951 139.433C521.618 139.038 522.137 138.481 522.508 137.764C522.89 137.035 523.082 136.195 523.082 135.243C523.082 134.291 522.89 133.457 522.508 132.74C522.137 132.023 521.618 131.473 520.951 131.09C520.285 130.707 519.525 130.515 518.673 130.515C517.821 130.515 517.061 130.707 516.394 131.09C515.727 131.473 515.202 132.023 514.82 132.74C514.449 133.457 514.264 134.291 514.264 135.243C514.264 136.195 514.449 137.035 514.82 137.764C515.202 138.481 515.727 139.038 516.394 139.433C517.061 139.816 517.821 140.007 518.673 140.007ZM537.905 141.713H535.793L529.439 132.091V141.713H527.327V128.809H529.439L535.793 138.413V128.809H537.905V141.713ZM501.089 166.649C502.275 165.624 503.207 164.783 503.886 164.127C504.578 163.46 505.152 162.768 505.609 162.051C506.066 161.334 506.294 160.618 506.294 159.9C506.294 159.159 506.116 158.579 505.757 158.158C505.412 157.738 504.862 157.527 504.109 157.527C503.38 157.527 502.812 157.763 502.404 158.232C502.009 158.69 501.799 159.307 501.774 160.086H499.737C499.774 158.677 500.193 157.601 500.996 156.86C501.811 156.106 502.842 155.729 504.09 155.729C505.436 155.729 506.486 156.1 507.239 156.841C508.005 157.583 508.388 158.572 508.388 159.808C508.388 160.698 508.159 161.557 507.702 162.385C507.258 163.2 506.721 163.937 506.091 164.591C505.473 165.234 504.683 165.981 503.719 166.834L502.886 167.576H508.758V169.337H499.755V167.798L501.089 166.649ZM510.614 162.589C510.614 160.451 510.972 158.782 511.688 157.583C512.417 156.372 513.664 155.766 515.43 155.766C517.196 155.766 518.438 156.372 519.154 157.583C519.883 158.782 520.247 160.451 520.247 162.589C520.247 164.752 519.883 166.445 519.154 167.669C518.438 168.88 517.196 169.485 515.43 169.485C513.664 169.485 512.417 168.88 511.688 167.669C510.972 166.445 510.614 164.752 510.614 162.589ZM518.172 162.589C518.172 161.588 518.104 160.741 517.968 160.049C517.845 159.357 517.585 158.795 517.19 158.362C516.794 157.917 516.208 157.694 515.43 157.694C514.652 157.694 514.066 157.917 513.67 158.362C513.275 158.795 513.01 159.357 512.874 160.049C512.75 160.741 512.688 161.588 512.688 162.589C512.688 163.627 512.75 164.498 512.874 165.203C512.997 165.907 513.256 166.476 513.652 166.908C514.059 167.341 514.652 167.557 515.43 167.557C516.208 167.557 516.794 167.341 517.19 166.908C517.598 166.476 517.863 165.907 517.987 165.203C518.11 164.498 518.172 163.627 518.172 162.589ZM522.204 157.935V156.007H526.057V169.523H523.927V157.935H522.204Z" fill="white"/>
<path d="M533.01 269.974C533.01 290.619 516.197 307.359 495.45 307.359C474.704 307.359 457.891 290.619 457.891 269.974C457.891 249.329 474.704 232.587 495.45 232.587C516.197 232.587 533.01 249.329 533.01 269.974Z" fill="#20376C" stroke="#20376C"/>
<path d="M475.342 263.376V265.1H469.877V268.901H474.138V270.625H469.877V276.261H467.766V263.376H475.342ZM479.411 263.376V276.261H477.3V263.376H479.411ZM492.762 276.261H490.651L484.296 266.639V276.261H482.185V263.358H484.296L490.651 272.961V263.358H492.762V276.261ZM499.792 264.674V262.746H503.645V276.261H501.515V264.674H499.792ZM506.546 269.328C506.546 267.189 506.904 265.52 507.62 264.322C508.349 263.11 509.597 262.505 511.362 262.505C513.129 262.505 514.37 263.11 515.086 264.322C515.815 265.52 516.179 267.189 516.179 269.328C516.179 271.49 515.815 273.184 515.086 274.407C514.37 275.618 513.129 276.224 511.362 276.224C509.597 276.224 508.349 275.618 507.62 274.407C506.904 273.184 506.546 271.49 506.546 269.328ZM514.104 269.328C514.104 268.326 514.036 267.479 513.9 266.788C513.777 266.095 513.518 265.532 513.122 265.1C512.728 264.655 512.14 264.433 511.362 264.433C510.584 264.433 509.998 264.655 509.603 265.1C509.208 265.532 508.942 266.095 508.806 266.788C508.683 267.479 508.621 268.326 508.621 269.328C508.621 270.366 508.683 271.237 508.806 271.942C508.93 272.646 509.189 273.214 509.584 273.647C509.992 274.079 510.584 274.296 511.362 274.296C512.14 274.296 512.728 274.079 513.122 273.647C513.53 273.214 513.796 272.646 513.919 271.942C514.043 271.237 514.104 270.366 514.104 269.328ZM518.136 264.674V262.746H521.989V276.261H519.859V264.674H518.136Z" fill="#B9BFC6"/>
<path d="M318.864 673.599C318.864 694.077 302.186 710.683 281.607 710.683C261.029 710.683 244.352 694.077 244.352 673.599C244.352 653.121 261.029 636.516 281.607 636.516C302.186 636.516 318.864 653.121 318.864 673.599Z" fill="#20376C" stroke="#20376C"/>
<path d="M256.87 678.354H261.223V680.059H254.758V667.174H256.87V678.354ZM273.566 680.059H271.454L265.1 670.437V680.059H262.988V667.156H265.1L271.454 676.759V667.156H273.566V680.059ZM280.837 669.881C280.911 668.732 281.35 667.835 282.153 667.193C282.968 666.55 284.005 666.229 285.265 666.229C286.129 666.229 286.876 666.383 287.506 666.692C288.136 667.001 288.611 667.421 288.933 667.953C289.253 668.484 289.414 669.084 289.414 669.751C289.414 670.517 289.211 671.172 288.803 671.717C288.395 672.26 287.907 672.625 287.34 672.81V672.885C288.068 673.107 288.636 673.515 289.044 674.108C289.451 674.688 289.655 675.437 289.655 676.352C289.655 677.08 289.488 677.729 289.155 678.298C288.822 678.866 288.327 679.318 287.673 679.652C287.018 679.972 286.234 680.134 285.32 680.134C283.987 680.134 282.887 679.793 282.023 679.114C281.171 678.421 280.713 677.432 280.652 676.148H282.69C282.739 676.802 282.992 677.34 283.449 677.76C283.906 678.168 284.524 678.372 285.302 678.372C286.055 678.372 286.636 678.168 287.043 677.76C287.451 677.34 287.654 676.802 287.654 676.148C287.654 675.282 287.377 674.67 286.821 674.312C286.277 673.941 285.437 673.756 284.301 673.756H283.82V672.013H284.32C285.32 672 286.08 671.833 286.599 671.513C287.129 671.191 287.395 670.684 287.395 669.992C287.395 669.399 287.203 668.929 286.821 668.583C286.437 668.225 285.895 668.046 285.191 668.046C284.499 668.046 283.962 668.225 283.579 668.583C283.196 668.929 282.968 669.362 282.894 669.881H280.837ZM291.874 673.126C291.874 670.987 292.231 669.318 292.948 668.12C293.676 666.908 294.924 666.303 296.69 666.303C298.456 666.303 299.697 666.908 300.414 668.12C301.142 669.318 301.507 670.987 301.507 673.126C301.507 675.288 301.142 676.982 300.414 678.205C299.697 679.416 298.456 680.022 296.69 680.022C294.924 680.022 293.676 679.416 292.948 678.205C292.231 676.982 291.874 675.288 291.874 673.126ZM299.432 673.126C299.432 672.124 299.363 671.277 299.228 670.586C299.104 669.893 298.845 669.33 298.45 668.898C298.054 668.454 297.468 668.231 296.69 668.231C295.912 668.231 295.325 668.454 294.93 668.898C294.535 669.33 294.269 669.893 294.134 670.586C294.009 671.277 293.948 672.124 293.948 673.126C293.948 674.164 294.009 675.035 294.134 675.74C294.257 676.444 294.516 677.012 294.912 677.445C295.319 677.877 295.912 678.094 296.69 678.094C297.468 678.094 298.054 677.877 298.45 677.445C298.857 677.012 299.122 676.444 299.247 675.74C299.37 675.035 299.432 674.164 299.432 673.126ZM303.463 668.472V666.544H307.316V680.059H305.186V668.472H303.463Z" fill="#B9BFC6"/>
<path d="M229.428 202.45C229.428 222.924 212.619 239.533 191.869 239.533C171.119 239.533 154.309 222.924 154.309 202.45C154.309 181.976 171.119 165.367 191.869 165.367C212.619 165.367 229.428 181.976 229.428 202.45Z" fill="#20376C" stroke="#20376C"/>
<path d="M189.158 182.12V195.005H187.046V186.181L183.119 195.005H181.655L177.71 186.181V195.005H175.598V182.12H177.876L182.396 192.225L186.898 182.12H189.158ZM194.046 182.12V195.005H191.934V182.12H194.046ZM207.396 195.005H205.284L198.93 185.383V195.005H196.818V182.102H198.93L205.284 191.705V182.102H207.396V195.005ZM179.254 219.941C180.44 218.915 181.373 218.075 182.052 217.42C182.744 216.753 183.318 216.06 183.775 215.344C184.231 214.626 184.46 213.91 184.46 213.193C184.46 212.451 184.281 211.87 183.923 211.45C183.577 211.029 183.027 210.82 182.274 210.82C181.545 210.82 180.977 211.054 180.57 211.524C180.174 211.981 179.965 212.6 179.94 213.378H177.902C177.939 211.969 178.359 210.894 179.162 210.152C179.977 209.398 181.008 209.022 182.256 209.022C183.601 209.022 184.652 209.392 185.405 210.134C186.171 210.876 186.553 211.864 186.553 213.1C186.553 213.99 186.325 214.849 185.868 215.677C185.423 216.493 184.886 217.228 184.256 217.884C183.638 218.526 182.848 219.274 181.885 220.127L181.051 220.868H186.924V222.63H177.921V221.091L179.254 219.941ZM188.779 215.881C188.779 213.743 189.138 212.074 189.854 210.876C190.583 209.664 191.829 209.059 193.596 209.059C195.362 209.059 196.603 209.664 197.319 210.876C198.048 212.074 198.412 213.743 198.412 215.881C198.412 218.044 198.048 219.738 197.319 220.961C196.603 222.172 195.362 222.778 193.596 222.778C191.829 222.778 190.583 222.172 189.854 220.961C189.138 219.738 188.779 218.044 188.779 215.881ZM196.337 215.881C196.337 214.88 196.27 214.033 196.134 213.341C196.01 212.649 195.751 212.086 195.355 211.654C194.96 211.209 194.374 210.987 193.596 210.987C192.818 210.987 192.231 211.209 191.836 211.654C191.44 212.086 191.175 212.649 191.039 213.341C190.916 214.033 190.854 214.88 190.854 215.881C190.854 216.919 190.916 217.791 191.039 218.495C191.162 219.2 191.422 219.768 191.817 220.201C192.225 220.633 192.818 220.85 193.596 220.85C194.374 220.85 194.96 220.633 195.355 220.201C195.763 219.768 196.029 219.2 196.152 218.495C196.275 217.791 196.337 216.919 196.337 215.881ZM200.369 211.228V209.3H204.222V222.815H202.092V211.228H200.369Z" fill="#B9BFC6"/>
<path d="M75.5122 412.287C75.5122 432.594 58.8379 449.068 38.2561 449.068C17.6742 449.068 1 432.594 1 412.287C1 391.98 17.6742 375.507 38.2561 375.507C58.8379 375.507 75.5122 391.98 75.5122 412.287Z" fill="#20376C" stroke="#20376C"/>
<path d="M27.9421 397.469C28.6337 397.592 29.2203 397.957 29.702 398.563C30.1836 399.168 30.4244 399.854 30.4244 400.621C30.4244 401.275 30.2515 401.868 29.9057 402.401C29.5723 402.92 29.0844 403.333 28.4423 403.643C27.8001 403.939 27.0529 404.088 26.2007 404.088H21.0508V391.202H25.9599C26.8368 391.202 27.5901 391.351 28.22 391.647C28.8498 391.944 29.3253 392.345 29.6464 392.853C29.9675 393.347 30.128 393.903 30.128 394.521C30.128 395.263 29.9305 395.88 29.5352 396.375C29.14 396.869 28.609 397.233 27.9421 397.469ZM23.1626 396.616H25.7747C26.4663 396.616 27.0035 396.461 27.3863 396.153C27.7816 395.831 27.9791 395.374 27.9791 394.781C27.9791 394.199 27.7816 393.748 27.3863 393.427C27.0035 393.094 26.4663 392.927 25.7747 392.927H23.1626V396.616ZM26.0155 402.363C26.7318 402.363 27.2937 402.19 27.7013 401.844C28.1088 401.498 28.3126 401.016 28.3126 400.398C28.3126 399.768 28.0965 399.267 27.6642 398.897C27.2319 398.526 26.6577 398.34 25.9414 398.34H23.1626V402.363H26.0155ZM41.0371 391.202V392.927H37.61V404.088H35.4981V392.927H32.0525V391.202H41.0371ZM42.4719 397.617C42.4719 396.357 42.7622 395.226 43.3426 394.224C43.9354 393.223 44.7319 392.445 45.7323 391.888C46.745 391.319 47.8503 391.036 49.0483 391.036C50.4191 391.036 51.6356 391.375 52.6977 392.055C53.7721 392.723 54.5502 393.674 55.0318 394.91H52.4939C52.1605 394.23 51.6973 393.724 51.1045 393.39C50.5117 393.056 49.8263 392.89 49.0483 392.89C48.1961 392.89 47.4366 393.081 46.7697 393.464C46.1028 393.847 45.578 394.397 45.1951 395.114C44.8246 395.831 44.6393 396.665 44.6393 397.617C44.6393 398.568 44.8246 399.403 45.1951 400.12C45.578 400.837 46.1028 401.393 46.7697 401.789C47.4366 402.172 48.1961 402.363 49.0483 402.363C49.8263 402.363 50.5117 402.197 51.1045 401.863C51.6973 401.529 52.1605 401.022 52.4939 400.343H55.0318C54.5502 401.578 53.7721 402.53 52.6977 403.198C51.6356 403.865 50.4191 404.199 49.0483 404.199C47.838 404.199 46.7326 403.921 45.7323 403.365C44.7319 402.795 43.9354 402.011 43.3426 401.01C42.7622 400.009 42.4719 398.878 42.4719 397.617ZM24.2907 421.719C24.3648 420.569 24.8032 419.673 25.606 419.031C26.4211 418.387 27.4585 418.067 28.7182 418.067C29.5827 418.067 30.3299 418.221 30.9597 418.53C31.5896 418.839 32.065 419.259 32.3861 419.791C32.7073 420.322 32.8678 420.922 32.8678 421.589C32.8678 422.355 32.664 423.01 32.2565 423.554C31.8489 424.098 31.3611 424.463 30.793 424.648V424.722C31.5217 424.945 32.0897 425.353 32.4973 425.946C32.9048 426.526 33.1086 427.274 33.1086 428.189C33.1086 428.918 32.9419 429.567 32.6084 430.136C32.275 430.704 31.781 431.156 31.1264 431.489C30.4719 431.81 29.6877 431.971 28.7738 431.971C27.44 431.971 26.3408 431.631 25.4763 430.952C24.6242 430.259 24.1672 429.27 24.1055 427.985H26.1432C26.1926 428.64 26.4458 429.178 26.9027 429.598C27.3597 430.006 27.9772 430.21 28.7552 430.21C29.5086 430.21 30.089 430.006 30.4966 429.598C30.9041 429.178 31.1079 428.64 31.1079 427.985C31.1079 427.12 30.83 426.508 30.2743 426.15C29.7309 425.779 28.8911 425.594 27.7549 425.594H27.2732V423.851H27.7734C28.7738 423.838 29.5333 423.671 30.052 423.35C30.583 423.029 30.8486 422.522 30.8486 421.83C30.8486 421.237 30.6571 420.767 30.2743 420.421C29.8915 420.062 29.348 419.884 28.6441 419.884C27.9525 419.884 27.4152 420.062 27.0324 420.421C26.6496 420.767 26.4211 421.2 26.347 421.719H24.2907ZM35.327 424.963C35.327 422.825 35.6852 421.156 36.4014 419.958C37.1301 418.746 38.3774 418.141 40.1435 418.141C41.9096 418.141 43.1507 418.746 43.867 419.958C44.5957 421.156 44.96 422.825 44.96 424.963C44.96 427.126 44.5957 428.82 43.867 430.043C43.1507 431.254 41.9096 431.86 40.1435 431.86C38.3774 431.86 37.1301 431.254 36.4014 430.043C35.6852 428.82 35.327 427.126 35.327 424.963ZM42.8852 424.963C42.8852 423.962 42.8173 423.115 42.6814 422.423C42.5579 421.731 42.2986 421.168 41.9034 420.736C41.5081 420.291 40.9215 420.069 40.1435 420.069C39.3654 420.069 38.7788 420.291 38.3836 420.736C37.9884 421.168 37.7229 421.731 37.587 422.423C37.4636 423.115 37.4018 423.962 37.4018 424.963C37.4018 426.002 37.4636 426.873 37.587 427.578C37.7105 428.282 37.9698 428.85 38.3651 429.283C38.7726 429.715 39.3654 429.932 40.1435 429.932C40.9215 429.932 41.5081 429.715 41.9034 429.283C42.3109 428.85 42.5765 428.282 42.6999 427.578C42.8234 426.873 42.8852 426.002 42.8852 424.963ZM46.9167 420.31V418.382H50.7699V431.897H48.6395V420.31H46.9167Z" fill="#B9BFC6"/>
<path d="M684.492 127.357C684.492 147.832 667.681 164.44 646.931 164.44C626.182 164.44 609.371 147.832 609.371 127.357C609.371 106.882 626.182 90.2739 646.931 90.2739C667.681 90.2739 684.492 106.882 684.492 127.357Z" fill="#20376C" stroke="#20376C"/>
<path d="M624.1 108.732V112.514H628.546V114.239H624.1V118.188H629.102V119.912H621.988V107.008H629.102V108.732H624.1ZM631 113.441C631 112.181 631.29 111.05 631.87 110.049C632.463 109.048 633.26 108.269 634.26 107.713C635.273 107.144 636.378 106.86 637.576 106.86C638.947 106.86 640.163 107.2 641.226 107.88C642.3 108.547 643.078 109.499 643.56 110.735H641.022C640.688 110.055 640.225 109.548 639.632 109.214C639.04 108.881 638.354 108.714 637.576 108.714C636.724 108.714 635.964 108.906 635.298 109.289C634.631 109.671 634.105 110.222 633.723 110.939C633.352 111.655 633.167 112.489 633.167 113.441C633.167 114.393 633.352 115.228 633.723 115.944C634.105 116.661 634.631 117.217 635.298 117.613C635.964 117.996 636.724 118.188 637.576 118.188C638.354 118.188 639.04 118.021 639.632 117.687C640.225 117.353 640.688 116.846 641.022 116.167H643.56C643.078 117.402 642.3 118.355 641.226 119.022C640.163 119.689 638.947 120.023 637.576 120.023C636.366 120.023 635.261 119.745 634.26 119.189C633.26 118.621 632.463 117.835 631.87 116.834C631.29 115.833 631 114.702 631 113.441ZM651.903 120.042C650.706 120.042 649.601 119.764 648.587 119.207C647.587 118.639 646.79 117.854 646.198 116.853C645.618 115.84 645.327 114.702 645.327 113.441C645.327 112.181 645.618 111.05 646.198 110.049C646.79 109.048 647.587 108.269 648.587 107.713C649.601 107.144 650.706 106.86 651.903 106.86C653.114 106.86 654.219 107.144 655.219 107.713C656.233 108.269 657.029 109.048 657.609 110.049C658.19 111.05 658.48 112.181 658.48 113.441C658.48 114.702 658.19 115.84 657.609 116.853C657.029 117.854 656.233 118.639 655.219 119.207C654.219 119.764 653.114 120.042 651.903 120.042ZM651.903 118.206C652.756 118.206 653.515 118.014 654.182 117.631C654.849 117.236 655.368 116.679 655.738 115.963C656.122 115.233 656.312 114.393 656.312 113.441C656.312 112.489 656.122 111.655 655.738 110.939C655.368 110.222 654.849 109.671 654.182 109.289C653.515 108.906 652.756 108.714 651.903 108.714C651.051 108.714 650.292 108.906 649.625 109.289C648.958 109.671 648.434 110.222 648.05 110.939C647.68 111.655 647.494 112.489 647.494 113.441C647.494 114.393 647.68 115.233 648.05 115.963C648.434 116.679 648.958 117.236 649.625 117.631C650.292 118.014 651.051 118.206 651.903 118.206ZM671.136 119.912H669.024L662.67 110.29V119.912H660.558V107.008H662.67L669.024 116.612V107.008H671.136V119.912ZM631.643 144.848C632.828 143.822 633.761 142.982 634.44 142.326C635.132 141.659 635.706 140.967 636.163 140.25C636.62 139.533 636.848 138.816 636.848 138.099C636.848 137.358 636.669 136.777 636.311 136.357C635.965 135.937 635.416 135.726 634.662 135.726C633.934 135.726 633.365 135.961 632.958 136.431C632.563 136.888 632.353 137.506 632.328 138.285H630.29C630.327 136.876 630.748 135.8 631.55 135.059C632.365 134.305 633.397 133.928 634.644 133.928C635.99 133.928 637.04 134.299 637.793 135.04C638.559 135.782 638.941 136.771 638.941 138.007C638.941 138.897 638.714 139.756 638.256 140.584C637.811 141.399 637.274 142.135 636.644 142.79C636.027 143.432 635.236 144.18 634.273 145.033L633.439 145.775H639.312V147.536H630.309V145.997L631.643 144.848ZM641.167 140.788C641.167 138.649 641.526 136.98 642.242 135.782C642.971 134.57 644.218 133.965 645.984 133.965C647.75 133.965 648.991 134.57 649.707 135.782C650.436 136.98 650.8 138.649 650.8 140.788C650.8 142.95 650.436 144.644 649.707 145.868C648.991 147.079 647.75 147.684 645.984 147.684C644.218 147.684 642.971 147.079 642.242 145.868C641.526 144.644 641.167 142.95 641.167 140.788ZM648.725 140.788C648.725 139.786 648.658 138.94 648.522 138.248C648.398 137.555 648.139 136.993 647.744 136.561C647.349 136.116 646.762 135.893 645.984 135.893C645.206 135.893 644.619 136.116 644.224 136.561C643.829 136.993 643.563 137.555 643.427 138.248C643.304 138.94 643.242 139.786 643.242 140.788C643.242 141.826 643.304 142.697 643.427 143.402C643.551 144.106 643.811 144.674 644.205 145.107C644.613 145.54 645.206 145.756 645.984 145.756C646.762 145.756 647.349 145.54 647.744 145.107C648.151 144.674 648.417 144.106 648.54 143.402C648.664 142.697 648.725 141.826 648.725 140.788ZM661.742 136.023H655.536V139.712C655.795 139.367 656.178 139.075 656.685 138.841C657.203 138.606 657.753 138.489 658.333 138.489C659.371 138.489 660.21 138.711 660.853 139.156C661.507 139.601 661.97 140.164 662.242 140.843C662.526 141.523 662.668 142.24 662.668 142.994C662.668 143.909 662.489 144.725 662.131 145.441C661.785 146.146 661.26 146.702 660.556 147.11C659.864 147.518 659.012 147.722 658 147.722C656.653 147.722 655.573 147.388 654.758 146.72C653.943 146.053 653.455 145.17 653.295 144.069H655.351C655.486 144.65 655.789 145.114 656.259 145.46C656.727 145.793 657.315 145.96 658.018 145.96C658.895 145.96 659.55 145.694 659.982 145.163C660.427 144.632 660.649 143.927 660.649 143.049C660.649 142.16 660.427 141.48 659.982 141.01C659.538 140.528 658.883 140.287 658.018 140.287C657.413 140.287 656.901 140.442 656.481 140.751C656.073 141.047 655.777 141.455 655.592 141.974H653.591V134.169H661.742V136.023Z" fill="#B9BFC6"/>
<path d="M741.076 207.901C741.076 228.379 724.397 244.984 703.818 244.984C683.24 244.984 666.562 228.379 666.562 207.901C666.562 187.423 683.24 170.817 703.818 170.817C724.397 170.817 741.076 187.423 741.076 207.901Z" fill="#20376C" stroke="#20376C"/>
<path d="M678.928 201.475V203.199H673.463V207H677.724V208.724H673.463V214.36H671.352V201.475H678.928ZM682.997 201.475V214.36H680.885V201.475H682.997ZM696.348 214.36H694.236L687.882 204.738V214.36H685.771V201.456H687.882L694.236 211.06V201.456H696.348V214.36ZM704.823 211.486C706.008 210.461 706.941 209.62 707.62 208.965C708.312 208.298 708.886 207.606 709.343 206.888C709.8 206.172 710.028 205.455 710.028 204.738C710.028 203.996 709.849 203.416 709.491 202.995C709.145 202.575 708.596 202.365 707.842 202.365C707.114 202.365 706.545 202.6 706.138 203.069C705.743 203.527 705.533 204.145 705.508 204.923H703.47C703.507 203.514 703.928 202.439 704.73 201.697C705.545 200.944 706.577 200.566 707.824 200.566C709.17 200.566 710.22 200.937 710.973 201.679C711.739 202.42 712.121 203.409 712.121 204.645C712.121 205.535 711.894 206.394 711.436 207.222C710.991 208.038 710.454 208.774 709.824 209.428C709.207 210.072 708.416 210.819 707.453 211.672L706.62 212.413H712.492V214.175H703.489V212.636L704.823 211.486ZM714.347 207.426C714.347 205.288 714.706 203.62 715.422 202.42C716.151 201.21 717.397 200.603 719.164 200.603C720.93 200.603 722.171 201.21 722.887 202.42C723.616 203.62 723.98 205.288 723.98 207.426C723.98 209.59 723.616 211.282 722.887 212.506C722.171 213.718 720.93 214.323 719.164 214.323C717.397 214.323 716.151 213.718 715.422 212.506C714.706 211.282 714.347 209.59 714.347 207.426ZM721.905 207.426C721.905 206.425 721.838 205.579 721.702 204.886C721.578 204.195 721.319 203.632 720.924 203.199C720.528 202.754 719.942 202.532 719.164 202.532C718.386 202.532 717.799 202.754 717.404 203.199C717.008 203.632 716.743 204.195 716.607 204.886C716.484 205.579 716.422 206.425 716.422 207.426C716.422 208.464 716.484 209.336 716.607 210.04C716.73 210.745 716.99 211.314 717.385 211.746C717.793 212.179 718.386 212.395 719.164 212.395C719.942 212.395 720.528 212.179 720.924 211.746C721.331 211.314 721.597 210.745 721.72 210.04C721.843 209.336 721.905 208.464 721.905 207.426ZM734.922 202.661H728.716V206.351C728.975 206.005 729.358 205.715 729.865 205.479C730.383 205.245 730.933 205.127 731.513 205.127C732.551 205.127 733.39 205.35 734.033 205.795C734.687 206.24 735.15 206.802 735.422 207.482C735.706 208.162 735.848 208.879 735.848 209.632C735.848 210.547 735.669 211.363 735.311 212.08C734.965 212.784 734.44 213.34 733.736 213.748C733.044 214.156 732.192 214.36 731.18 214.36C729.833 214.36 728.753 214.026 727.938 213.359C727.123 212.691 726.635 211.808 726.475 210.708H728.531C728.666 211.289 728.969 211.752 729.439 212.098C729.907 212.432 730.494 212.599 731.198 212.599C732.075 212.599 732.73 212.334 733.162 211.802C733.607 211.27 733.829 210.566 733.829 209.688C733.829 208.798 733.607 208.119 733.162 207.649C732.717 207.167 732.063 206.926 731.198 206.926C730.593 206.926 730.08 207.08 729.661 207.389C729.253 207.686 728.957 208.094 728.772 208.613H726.771V200.807H734.922V202.661Z" fill="#B9BFC6"/>
<path d="M369.965 227.28C369.965 247.758 353.288 264.363 332.71 264.363C312.131 264.363 295.453 247.758 295.453 227.28C295.453 206.801 312.131 190.196 332.71 190.196C353.288 190.196 369.965 206.801 369.965 227.28Z" fill="#F2870D" stroke="#F39324"/>
<path d="M313.963 219.964C313.098 219.964 312.32 219.815 311.629 219.519C310.937 219.21 310.394 218.777 309.999 218.221C309.604 217.665 309.406 217.016 309.406 216.274H311.666C311.715 216.83 311.931 217.288 312.315 217.646C312.709 218.005 313.259 218.184 313.963 218.184C314.691 218.184 315.26 218.011 315.668 217.665C316.075 217.307 316.279 216.849 316.279 216.293C316.279 215.861 316.149 215.508 315.89 215.236C315.643 214.964 315.328 214.754 314.945 214.606C314.575 214.457 314.056 214.297 313.389 214.123C312.549 213.901 311.864 213.679 311.333 213.456C310.814 213.222 310.37 212.863 309.999 212.381C309.629 211.899 309.443 211.256 309.443 210.453C309.443 209.711 309.629 209.062 309.999 208.506C310.37 207.95 310.888 207.523 311.555 207.227C312.222 206.93 312.994 206.782 313.871 206.782C315.118 206.782 316.136 207.097 316.927 207.727C317.73 208.346 318.174 209.198 318.261 210.286H315.927C315.89 209.817 315.668 209.414 315.26 209.081C314.853 208.747 314.315 208.58 313.648 208.58C313.043 208.58 312.549 208.735 312.166 209.044C311.783 209.353 311.592 209.798 311.592 210.378C311.592 210.774 311.709 211.102 311.944 211.361C312.191 211.609 312.5 211.806 312.87 211.954C313.241 212.103 313.747 212.264 314.389 212.436C315.242 212.672 315.933 212.906 316.464 213.141C317.007 213.376 317.465 213.741 317.835 214.235C318.218 214.717 318.409 215.366 318.409 216.181C318.409 216.837 318.23 217.455 317.872 218.035C317.526 218.617 317.014 219.087 316.335 219.444C315.668 219.791 314.877 219.964 313.963 219.964ZM323.013 208.654V212.436H327.459V214.161H323.013V218.11H328.015V219.834H320.901V206.93H328.015V208.654H323.013ZM329.912 213.363C329.912 212.103 330.201 210.972 330.782 209.971C331.375 208.969 332.172 208.191 333.172 207.635C334.184 207.066 335.29 206.782 336.488 206.782C337.859 206.782 339.075 207.122 340.137 207.801C341.212 208.469 341.99 209.421 342.472 210.657H339.934C339.6 209.977 339.137 209.47 338.544 209.136C337.951 208.803 337.266 208.636 336.488 208.636C335.636 208.636 334.876 208.828 334.209 209.21C333.542 209.594 333.017 210.144 332.635 210.86C332.264 211.578 332.079 212.412 332.079 213.363C332.079 214.315 332.264 215.15 332.635 215.866C333.017 216.584 333.542 217.14 334.209 217.535C334.876 217.919 335.636 218.11 336.488 218.11C337.266 218.11 337.951 217.943 338.544 217.609C339.137 217.275 339.6 216.769 339.934 216.089H342.472C341.99 217.325 341.212 218.276 340.137 218.944C339.075 219.611 337.859 219.945 336.488 219.945C335.277 219.945 334.172 219.667 333.172 219.111C332.172 218.542 331.375 217.757 330.782 216.756C330.201 215.755 329.912 214.624 329.912 213.363ZM347.037 206.949V215.162C347.037 216.139 347.29 216.874 347.797 217.368C348.315 217.863 349.031 218.11 349.945 218.11C350.872 218.11 351.588 217.863 352.094 217.368C352.613 216.874 352.872 216.139 352.872 215.162V206.949H354.984V215.125C354.984 216.176 354.755 217.066 354.299 217.794C353.842 218.524 353.231 219.068 352.465 219.426C351.699 219.785 350.853 219.964 349.927 219.964C349.001 219.964 348.155 219.785 347.389 219.426C346.636 219.068 346.037 218.524 345.592 217.794C345.147 217.066 344.925 216.176 344.925 215.125V206.949H347.037ZM320.761 236.056V234.128H324.614V247.643H322.484V236.056H320.761ZM327.515 240.709C327.515 238.572 327.874 236.903 328.59 235.704C329.319 234.493 330.566 233.887 332.332 233.887C334.098 233.887 335.339 234.493 336.055 235.704C336.784 236.903 337.148 238.572 337.148 240.709C337.148 242.873 336.784 244.566 336.055 245.789C335.339 247.001 334.098 247.606 332.332 247.606C330.566 247.606 329.319 247.001 328.59 245.789C327.874 244.566 327.515 242.873 327.515 240.709ZM335.074 240.709C335.074 239.708 335.006 238.862 334.87 238.17C334.747 237.478 334.487 236.915 334.092 236.482C333.697 236.037 333.11 235.815 332.332 235.815C331.554 235.815 330.968 236.037 330.572 236.482C330.177 236.915 329.912 237.478 329.775 238.17C329.652 238.862 329.59 239.708 329.59 240.709C329.59 241.748 329.652 242.619 329.775 243.324C329.9 244.028 330.159 244.597 330.553 245.029C330.961 245.462 331.554 245.678 332.332 245.678C333.11 245.678 333.697 245.462 334.092 245.029C334.499 244.597 334.765 244.028 334.888 243.324C335.012 242.619 335.074 241.748 335.074 240.709ZM339.106 236.056V234.128H342.959V247.643H340.828V236.056H339.106Z" fill="white"/>
<path d="M387.936 268.51H277.485C272.37 268.51 268.223 272.66 268.223 277.78V299.764C268.223 304.884 272.37 309.034 277.485 309.034H387.936C393.051 309.034 397.198 304.884 397.198 299.764V277.78C397.198 272.66 393.051 268.51 387.936 268.51Z" fill="#CB720B"/>
<path d="M277.378 278.687V285.148H276.535V278.687H277.378ZM281.288 279.975C281.905 279.975 282.405 280.164 282.788 280.541C283.171 280.911 283.363 281.449 283.363 282.153V285.148H282.529V282.274C282.529 281.768 282.402 281.381 282.149 281.115C281.895 280.844 281.55 280.707 281.112 280.707C280.667 280.707 280.311 280.846 280.047 281.125C279.787 281.403 279.658 281.808 279.658 282.339V285.148H278.815V280.068H279.658V280.791C279.824 280.531 280.049 280.331 280.334 280.188C280.624 280.046 280.941 279.975 281.288 279.975ZM286.804 280.763H285.739V285.148H284.896V280.763H284.239V280.068H284.896V279.706C284.896 279.138 285.042 278.724 285.332 278.464C285.628 278.199 286.101 278.065 286.749 278.065V278.77C286.378 278.77 286.116 278.844 285.962 278.992C285.813 279.135 285.739 279.373 285.739 279.706V280.068H286.804V280.763ZM290.001 285.231C289.526 285.231 289.093 285.124 288.704 284.907C288.322 284.691 288.019 284.385 287.797 283.989C287.581 283.588 287.472 283.124 287.472 282.598C287.472 282.079 287.583 281.622 287.806 281.226C288.035 280.825 288.343 280.519 288.732 280.309C289.121 280.093 289.556 279.984 290.038 279.984C290.52 279.984 290.955 280.093 291.344 280.309C291.733 280.519 292.039 280.822 292.261 281.217C292.49 281.613 292.604 282.074 292.604 282.598C292.604 283.124 292.486 283.588 292.252 283.989C292.023 284.385 291.712 284.691 291.316 284.907C290.921 285.124 290.483 285.231 290.001 285.231ZM290.001 284.489C290.304 284.489 290.587 284.419 290.853 284.276C291.119 284.134 291.332 283.921 291.492 283.637C291.659 283.353 291.742 283.006 291.742 282.598C291.742 282.191 291.662 281.845 291.502 281.56C291.341 281.277 291.131 281.066 290.872 280.93C290.612 280.788 290.332 280.717 290.029 280.717C289.72 280.717 289.436 280.788 289.177 280.93C288.924 281.066 288.72 281.277 288.565 281.56C288.411 281.845 288.334 282.191 288.334 282.598C288.334 283.013 288.408 283.362 288.556 283.646C288.711 283.931 288.914 284.144 289.167 284.286C289.42 284.422 289.698 284.489 290.001 284.489ZM294.555 280.893C294.704 280.603 294.913 280.377 295.185 280.216C295.463 280.056 295.799 279.975 296.195 279.975V280.846H295.973C295.028 280.846 294.555 281.36 294.555 282.385V285.148H293.712V280.068H294.555V280.893ZM303.271 279.975C303.667 279.975 304.019 280.058 304.327 280.225C304.636 280.387 304.88 280.63 305.059 280.958C305.238 281.286 305.328 281.684 305.328 282.153V285.148H304.494V282.274C304.494 281.768 304.367 281.381 304.114 281.115C303.867 280.844 303.531 280.707 303.105 280.707C302.667 280.707 302.317 280.85 302.058 281.134C301.799 281.412 301.669 281.817 301.669 282.348V285.148H300.835V282.274C300.835 281.768 300.708 281.381 300.456 281.115C300.208 280.844 299.872 280.707 299.446 280.707C299.008 280.707 298.659 280.85 298.399 281.134C298.14 281.412 298.01 281.817 298.01 282.348V285.148H297.167V280.068H298.01V280.8C298.177 280.535 298.399 280.331 298.677 280.188C298.962 280.046 299.273 279.975 299.613 279.975C300.039 279.975 300.416 280.071 300.743 280.262C301.07 280.454 301.314 280.735 301.474 281.106C301.616 280.748 301.851 280.47 302.178 280.272C302.505 280.074 302.87 279.975 303.271 279.975ZM306.396 282.589C306.396 282.07 306.5 281.616 306.711 281.226C306.921 280.832 307.208 280.526 307.572 280.309C307.942 280.093 308.353 279.984 308.804 279.984C309.248 279.984 309.635 280.081 309.962 280.272C310.289 280.464 310.533 280.705 310.693 280.995V280.068H311.546V285.148H310.693V284.202C310.527 284.499 310.277 284.746 309.943 284.944C309.616 285.136 309.233 285.231 308.795 285.231C308.344 285.231 307.936 285.12 307.572 284.897C307.208 284.675 306.921 284.363 306.711 283.961C306.5 283.56 306.396 283.103 306.396 282.589ZM310.693 282.598C310.693 282.216 310.617 281.882 310.462 281.597C310.307 281.314 310.098 281.097 309.832 280.948C309.573 280.794 309.286 280.717 308.971 280.717C308.656 280.717 308.369 280.791 308.109 280.939C307.85 281.087 307.643 281.304 307.489 281.588C307.334 281.873 307.257 282.206 307.257 282.589C307.257 282.978 307.334 283.319 307.489 283.609C307.643 283.893 307.85 284.113 308.109 284.267C308.369 284.415 308.656 284.489 308.971 284.489C309.286 284.489 309.573 284.415 309.832 284.267C310.098 284.113 310.307 283.893 310.462 283.609C310.617 283.319 310.693 282.982 310.693 282.598ZM313.998 280.763V283.757C313.998 284.005 314.05 284.181 314.156 284.286C314.26 284.385 314.443 284.434 314.702 284.434H315.323V285.148H314.563C314.094 285.148 313.742 285.04 313.507 284.823C313.272 284.607 313.155 284.252 313.155 283.757V280.763H312.498V280.068H313.155V278.788H313.998V280.068H315.323V280.763H313.998ZM316.779 279.243C316.619 279.243 316.482 279.187 316.371 279.076C316.26 278.965 316.205 278.829 316.205 278.668C316.205 278.508 316.26 278.371 316.371 278.26C316.482 278.149 316.619 278.093 316.779 278.093C316.934 278.093 317.063 278.149 317.168 278.26C317.279 278.371 317.335 278.508 317.335 278.668C317.335 278.829 317.279 278.965 317.168 279.076C317.063 279.187 316.934 279.243 316.779 279.243ZM317.186 280.068V285.148H316.344V280.068H317.186ZM320.837 285.231C320.362 285.231 319.929 285.124 319.54 284.907C319.157 284.691 318.855 284.385 318.632 283.989C318.416 283.588 318.308 283.124 318.308 282.598C318.308 282.079 318.419 281.622 318.642 281.226C318.87 280.825 319.179 280.519 319.568 280.309C319.957 280.093 320.392 279.984 320.874 279.984C321.355 279.984 321.791 280.093 322.18 280.309C322.569 280.519 322.875 280.822 323.097 281.217C323.326 281.613 323.44 282.074 323.44 282.598C323.44 283.124 323.323 283.588 323.088 283.989C322.86 284.385 322.548 284.691 322.152 284.907C321.757 285.124 321.318 285.231 320.837 285.231ZM320.837 284.489C321.14 284.489 321.424 284.419 321.689 284.276C321.955 284.134 322.168 283.921 322.328 283.637C322.495 283.353 322.578 283.006 322.578 282.598C322.578 282.191 322.498 281.845 322.337 281.56C322.177 281.277 321.967 281.066 321.707 280.93C321.448 280.788 321.167 280.717 320.865 280.717C320.556 280.717 320.272 280.788 320.012 280.93C319.76 281.066 319.556 281.277 319.401 281.56C319.247 281.845 319.17 282.191 319.17 282.598C319.17 283.013 319.244 283.362 319.392 283.646C319.547 283.931 319.75 284.144 320.003 284.286C320.257 284.422 320.535 284.489 320.837 284.489ZM327.021 279.975C327.638 279.975 328.138 280.164 328.522 280.541C328.904 280.911 329.096 281.449 329.096 282.153V285.148H328.263V282.274C328.263 281.768 328.136 281.381 327.883 281.115C327.629 280.844 327.283 280.707 326.845 280.707C326.401 280.707 326.045 280.846 325.78 281.125C325.521 281.403 325.391 281.808 325.391 282.339V285.148H324.548V280.068H325.391V280.791C325.558 280.531 325.783 280.331 326.067 280.188C326.357 280.046 326.675 279.975 327.021 279.975ZM334.739 285.231C334.35 285.231 334.001 285.166 333.692 285.036C333.384 284.901 333.139 284.716 332.96 284.48C332.782 284.239 332.683 283.965 332.664 283.655H333.535C333.56 283.909 333.676 284.116 333.887 284.276C334.103 284.438 334.384 284.517 334.73 284.517C335.051 284.517 335.304 284.447 335.489 284.304C335.674 284.162 335.767 283.983 335.767 283.766C335.767 283.544 335.668 283.381 335.471 283.275C335.273 283.164 334.968 283.056 334.554 282.951C334.177 282.852 333.868 282.753 333.627 282.654C333.393 282.549 333.189 282.398 333.016 282.2C332.849 281.996 332.766 281.731 332.766 281.403C332.766 281.143 332.843 280.906 332.998 280.689C333.152 280.473 333.371 280.303 333.655 280.179C333.94 280.049 334.264 279.984 334.628 279.984C335.19 279.984 335.644 280.127 335.989 280.411C336.335 280.695 336.52 281.085 336.545 281.579H335.702C335.684 281.314 335.575 281.1 335.378 280.939C335.186 280.779 334.927 280.698 334.6 280.698C334.297 280.698 334.056 280.763 333.877 280.893C333.699 281.023 333.609 281.193 333.609 281.403C333.609 281.569 333.662 281.709 333.766 281.82C333.877 281.925 334.014 282.012 334.174 282.079C334.341 282.141 334.569 282.213 334.859 282.292C335.223 282.392 335.52 282.491 335.748 282.589C335.977 282.682 336.172 282.825 336.332 283.016C336.499 283.207 336.585 283.458 336.591 283.766C336.591 284.045 336.514 284.295 336.36 284.517C336.205 284.74 335.987 284.916 335.702 285.046C335.424 285.17 335.103 285.231 334.739 285.231ZM342.413 282.413C342.413 282.574 342.404 282.744 342.385 282.923H338.328C338.359 283.423 338.528 283.816 338.838 284.1C339.152 284.378 339.532 284.517 339.977 284.517C340.341 284.517 340.644 284.434 340.885 284.267C341.131 284.095 341.304 283.866 341.403 283.581H342.311C342.175 284.07 341.903 284.468 341.496 284.777C341.088 285.08 340.582 285.231 339.977 285.231C339.495 285.231 339.063 285.124 338.68 284.907C338.303 284.691 338.007 284.385 337.791 283.989C337.574 283.588 337.467 283.124 337.467 282.598C337.467 282.074 337.571 281.613 337.782 281.217C337.991 280.822 338.285 280.519 338.662 280.309C339.044 280.093 339.482 279.984 339.977 279.984C340.458 279.984 340.885 280.09 341.255 280.299C341.626 280.51 341.909 280.8 342.107 281.171C342.311 281.536 342.413 281.95 342.413 282.413ZM341.542 282.237C341.542 281.916 341.471 281.641 341.329 281.412C341.186 281.177 340.992 281.001 340.746 280.883C340.505 280.76 340.236 280.698 339.94 280.698C339.514 280.698 339.149 280.834 338.847 281.106C338.55 281.378 338.38 281.755 338.337 282.237H341.542ZM343.21 282.598C343.21 282.074 343.315 281.616 343.525 281.226C343.736 280.832 344.025 280.526 344.396 280.309C344.773 280.093 345.202 279.984 345.683 279.984C346.307 279.984 346.82 280.136 347.221 280.439C347.629 280.742 347.897 281.162 348.027 281.699H347.119C347.033 281.391 346.863 281.147 346.61 280.967C346.362 280.788 346.054 280.698 345.683 280.698C345.202 280.698 344.813 280.865 344.516 281.199C344.22 281.527 344.072 281.993 344.072 282.598C344.072 283.21 344.22 283.683 344.516 284.017C344.813 284.35 345.202 284.517 345.683 284.517C346.054 284.517 346.362 284.431 346.61 284.258C346.857 284.085 347.026 283.838 347.119 283.516H348.027C347.891 284.035 347.619 284.452 347.212 284.768C346.804 285.077 346.295 285.231 345.683 285.231C345.202 285.231 344.773 285.124 344.396 284.907C344.025 284.691 343.736 284.385 343.525 283.989C343.315 283.594 343.21 283.131 343.21 282.598ZM353.653 280.068V285.148H352.81V284.397C352.65 284.656 352.424 284.86 352.134 285.009C351.849 285.151 351.535 285.222 351.189 285.222C350.794 285.222 350.439 285.142 350.124 284.981C349.809 284.814 349.559 284.567 349.374 284.239C349.195 283.912 349.105 283.513 349.105 283.043V280.068H349.939V282.932C349.939 283.433 350.066 283.819 350.318 284.091C350.571 284.357 350.918 284.489 351.356 284.489C351.807 284.489 352.162 284.35 352.421 284.072C352.68 283.794 352.81 283.39 352.81 282.858V280.068H353.653ZM355.919 280.893C356.068 280.603 356.277 280.377 356.549 280.216C356.827 280.056 357.163 279.975 357.559 279.975V280.846H357.337C356.392 280.846 355.919 281.36 355.919 282.385V285.148H355.077V280.068H355.919V280.893ZM358.967 279.243C358.807 279.243 358.67 279.187 358.559 279.076C358.448 278.965 358.393 278.829 358.393 278.668C358.393 278.508 358.448 278.371 358.559 278.26C358.67 278.149 358.807 278.093 358.967 278.093C359.121 278.093 359.251 278.149 359.356 278.26C359.467 278.371 359.523 278.508 359.523 278.668C359.523 278.829 359.467 278.965 359.356 279.076C359.251 279.187 359.121 279.243 358.967 279.243ZM359.374 280.068V285.148H358.531V280.068H359.374ZM361.839 280.763V283.757C361.839 284.005 361.892 284.181 361.997 284.286C362.101 284.385 362.284 284.434 362.543 284.434H363.164V285.148H362.404C361.935 285.148 361.583 285.04 361.348 284.823C361.114 284.607 360.996 284.252 360.996 283.757V280.763H360.339V280.068H360.996V278.788H361.839V280.068H363.164V280.763H361.839ZM368.557 280.068L365.501 287.539H364.63L365.63 285.092L363.583 280.068H364.519L366.112 284.184L367.687 280.068H368.557ZM371.558 282.589C371.558 282.07 371.664 281.616 371.873 281.226C372.083 280.832 372.371 280.526 372.735 280.309C373.105 280.093 373.516 279.984 373.966 279.984C374.411 279.984 374.797 280.081 375.124 280.272C375.452 280.464 375.696 280.705 375.856 280.995V280.068H376.708V285.148H375.856V284.202C375.689 284.499 375.439 284.746 375.106 284.944C374.779 285.136 374.396 285.231 373.957 285.231C373.507 285.231 373.1 285.12 372.735 284.897C372.371 284.675 372.083 284.363 371.873 283.961C371.664 283.56 371.558 283.103 371.558 282.589ZM375.856 282.598C375.856 282.216 375.779 281.882 375.624 281.597C375.471 281.314 375.26 281.097 374.995 280.948C374.735 280.794 374.448 280.717 374.133 280.717C373.818 280.717 373.531 280.791 373.272 280.939C373.012 281.087 372.806 281.304 372.651 281.588C372.497 281.873 372.42 282.206 372.42 282.589C372.42 282.978 372.497 283.319 372.651 283.609C372.806 283.893 373.012 284.113 373.272 284.267C373.531 284.415 373.818 284.489 374.133 284.489C374.448 284.489 374.735 284.415 374.995 284.267C375.26 284.113 375.471 283.893 375.624 283.609C375.779 283.319 375.856 282.982 375.856 282.598ZM380.606 279.975C381.224 279.975 381.724 280.164 382.106 280.541C382.49 280.911 382.681 281.449 382.681 282.153V285.148H381.847V282.274C381.847 281.768 381.721 281.381 381.467 281.115C381.214 280.844 380.869 280.707 380.43 280.707C379.985 280.707 379.631 280.846 379.365 281.125C379.105 281.403 378.976 281.808 378.976 282.339V285.148H378.133V280.068H378.976V280.791C379.142 280.531 379.368 280.331 379.652 280.188C379.943 280.046 380.26 279.975 380.606 279.975ZM383.743 282.589C383.743 282.07 383.848 281.616 384.058 281.226C384.267 280.832 384.554 280.526 384.919 280.309C385.29 280.093 385.703 279.984 386.161 279.984C386.555 279.984 386.923 280.077 387.263 280.262C387.602 280.442 387.861 280.68 388.041 280.976V278.288H388.893V285.148H388.041V284.193C387.874 284.496 387.627 284.746 387.3 284.944C386.972 285.136 386.589 285.231 386.151 285.231C385.7 285.231 385.29 285.12 384.919 284.897C384.554 284.675 384.267 284.363 384.058 283.961C383.848 283.56 383.743 283.103 383.743 282.589ZM388.041 282.598C388.041 282.216 387.963 281.882 387.809 281.597C387.655 281.314 387.444 281.097 387.179 280.948C386.92 280.794 386.633 280.717 386.318 280.717C386.003 280.717 385.716 280.791 385.457 280.939C385.197 281.087 384.99 281.304 384.836 281.588C384.681 281.873 384.604 282.206 384.604 282.589C384.604 282.978 384.681 283.319 384.836 283.609C384.99 283.893 385.197 284.113 385.457 284.267C385.716 284.415 386.003 284.489 386.318 284.489C386.633 284.489 386.92 284.415 387.179 284.267C387.444 284.113 387.655 283.893 387.809 283.609C387.963 283.319 388.041 282.982 388.041 282.598ZM288.513 296.494C288.513 295.975 288.618 295.521 288.827 295.131C289.038 294.736 289.325 294.43 289.689 294.214C290.059 293.998 290.473 293.889 290.93 293.889C291.326 293.889 291.693 293.982 292.032 294.167C292.372 294.347 292.632 294.584 292.81 294.881V292.193H293.662V299.052H292.81V298.098C292.644 298.401 292.397 298.651 292.069 298.849C291.742 299.04 291.36 299.136 290.921 299.136C290.471 299.136 290.059 299.025 289.689 298.802C289.325 298.58 289.038 298.268 288.827 297.866C288.618 297.465 288.513 297.008 288.513 296.494ZM292.81 296.503C292.81 296.12 292.733 295.787 292.579 295.502C292.425 295.218 292.215 295.002 291.949 294.853C291.69 294.699 291.402 294.621 291.087 294.621C290.773 294.621 290.485 294.696 290.226 294.844C289.967 294.992 289.76 295.209 289.605 295.493C289.452 295.777 289.374 296.111 289.374 296.494C289.374 296.883 289.452 297.224 289.605 297.514C289.76 297.798 289.967 298.018 290.226 298.172C290.485 298.32 290.773 298.394 291.087 298.394C291.402 298.394 291.69 298.32 291.949 298.172C292.215 298.018 292.425 297.798 292.579 297.514C292.733 297.224 292.81 296.887 292.81 296.503ZM294.772 296.494C294.772 295.975 294.877 295.521 295.087 295.131C295.297 294.736 295.584 294.43 295.948 294.214C296.319 293.998 296.729 293.889 297.18 293.889C297.625 293.889 298.011 293.986 298.338 294.176C298.665 294.368 298.91 294.609 299.07 294.9V293.973H299.922V299.052H299.07V298.107C298.903 298.404 298.653 298.651 298.32 298.849C297.993 299.04 297.609 299.136 297.171 299.136C296.72 299.136 296.312 299.025 295.948 298.802C295.584 298.58 295.297 298.268 295.087 297.866C294.877 297.465 294.772 297.008 294.772 296.494ZM299.07 296.503C299.07 296.12 298.993 295.787 298.838 295.502C298.684 295.218 298.474 295.002 298.208 294.853C297.949 294.699 297.662 294.621 297.347 294.621C297.032 294.621 296.745 294.696 296.486 294.844C296.226 294.992 296.02 295.209 295.865 295.493C295.71 295.777 295.634 296.111 295.634 296.494C295.634 296.883 295.71 297.224 295.865 297.514C296.02 297.798 296.226 298.018 296.486 298.172C296.745 298.32 297.032 298.394 297.347 298.394C297.662 298.394 297.949 298.32 298.208 298.172C298.474 298.018 298.684 297.798 298.838 297.514C298.993 297.224 299.07 296.887 299.07 296.503ZM302.375 294.668V297.662C302.375 297.909 302.427 298.086 302.532 298.19C302.637 298.29 302.819 298.339 303.079 298.339H303.699V299.052H302.94C302.47 299.052 302.118 298.945 301.884 298.728C301.649 298.512 301.532 298.157 301.532 297.662V294.668H300.874V293.973H301.532V292.693H302.375V293.973H303.699V294.668H302.375ZM304.405 296.494C304.405 295.975 304.511 295.521 304.72 295.131C304.93 294.736 305.217 294.43 305.581 294.214C305.952 293.998 306.363 293.889 306.813 293.889C307.258 293.889 307.644 293.986 307.971 294.176C308.299 294.368 308.543 294.609 308.703 294.9V293.973H309.555V299.052H308.703V298.107C308.536 298.404 308.286 298.651 307.953 298.849C307.626 299.04 307.243 299.136 306.804 299.136C306.354 299.136 305.946 299.025 305.581 298.802C305.217 298.58 304.93 298.268 304.72 297.866C304.511 297.465 304.405 297.008 304.405 296.494ZM308.703 296.503C308.703 296.12 308.626 295.787 308.471 295.502C308.318 295.218 308.107 295.002 307.841 294.853C307.582 294.699 307.295 294.621 306.98 294.621C306.665 294.621 306.378 294.696 306.119 294.844C305.859 294.992 305.653 295.209 305.498 295.493C305.344 295.777 305.267 296.111 305.267 296.494C305.267 296.883 305.344 297.224 305.498 297.514C305.653 297.798 305.859 298.018 306.119 298.172C306.378 298.32 306.665 298.394 306.98 298.394C307.295 298.394 307.582 298.32 307.841 298.172C308.107 298.018 308.318 297.798 308.471 297.514C308.626 297.224 308.703 296.887 308.703 296.503ZM319.553 293.88C319.949 293.88 320.3 293.963 320.609 294.13C320.918 294.291 321.162 294.535 321.341 294.862C321.52 295.191 321.609 295.589 321.609 296.058V299.052H320.776V296.179C320.776 295.673 320.65 295.286 320.396 295.02C320.15 294.748 319.812 294.612 319.386 294.612C318.948 294.612 318.599 294.755 318.34 295.039C318.08 295.317 317.951 295.722 317.951 296.253V299.052H317.117V296.179C317.117 295.673 316.991 295.286 316.737 295.02C316.491 294.748 316.154 294.612 315.728 294.612C315.289 294.612 314.94 294.755 314.681 295.039C314.422 295.317 314.292 295.722 314.292 296.253V299.052H313.449V293.973H314.292V294.705C314.459 294.44 314.681 294.236 314.959 294.093C315.243 293.951 315.555 293.88 315.894 293.88C316.32 293.88 316.697 293.976 317.024 294.167C317.352 294.359 317.596 294.64 317.756 295.011C317.899 294.653 318.133 294.375 318.46 294.176C318.788 293.979 319.152 293.88 319.553 293.88ZM322.677 296.494C322.677 295.975 322.782 295.521 322.992 295.131C323.202 294.736 323.49 294.43 323.854 294.214C324.224 293.998 324.634 293.889 325.085 293.889C325.53 293.889 325.916 293.986 326.243 294.176C326.57 294.368 326.815 294.609 326.975 294.9V293.973H327.827V299.052H326.975V298.107C326.808 298.404 326.558 298.651 326.225 298.849C325.898 299.04 325.514 299.136 325.076 299.136C324.625 299.136 324.218 299.025 323.854 298.802C323.49 298.58 323.202 298.268 322.992 297.866C322.782 297.465 322.677 297.008 322.677 296.494ZM326.975 296.503C326.975 296.12 326.898 295.787 326.743 295.502C326.589 295.218 326.379 295.002 326.114 294.853C325.854 294.699 325.567 294.621 325.252 294.621C324.937 294.621 324.65 294.696 324.391 294.844C324.131 294.992 323.925 295.209 323.77 295.493C323.616 295.777 323.539 296.111 323.539 296.494C323.539 296.883 323.616 297.224 323.77 297.514C323.925 297.798 324.131 298.018 324.391 298.172C324.65 298.32 324.937 298.394 325.252 298.394C325.567 298.394 325.854 298.32 326.114 298.172C326.379 298.018 326.589 297.798 326.743 297.514C326.898 297.224 326.975 296.887 326.975 296.503ZM331.725 293.88C332.342 293.88 332.842 294.069 333.225 294.445C333.608 294.816 333.8 295.354 333.8 296.058V299.052H332.966V296.179C332.966 295.673 332.839 295.286 332.586 295.02C332.332 294.748 331.987 294.612 331.549 294.612C331.104 294.612 330.749 294.751 330.484 295.029C330.224 295.307 330.095 295.713 330.095 296.244V299.052H329.252V293.973H330.095V294.696C330.261 294.436 330.486 294.236 330.771 294.093C331.061 293.951 331.378 293.88 331.725 293.88ZM334.861 296.494C334.861 295.975 334.967 295.521 335.176 295.131C335.386 294.736 335.673 294.43 336.037 294.214C336.408 293.998 336.819 293.889 337.269 293.889C337.714 293.889 338.1 293.986 338.427 294.176C338.755 294.368 338.999 294.609 339.159 294.9V293.973H340.011V299.052H339.159V298.107C338.992 298.404 338.742 298.651 338.409 298.849C338.082 299.04 337.699 299.136 337.26 299.136C336.81 299.136 336.402 299.025 336.037 298.802C335.673 298.58 335.386 298.268 335.176 297.866C334.967 297.465 334.861 297.008 334.861 296.494ZM339.159 296.503C339.159 296.12 339.082 295.787 338.927 295.502C338.774 295.218 338.563 295.002 338.298 294.853C338.038 294.699 337.751 294.621 337.436 294.621C337.121 294.621 336.834 294.696 336.575 294.844C336.315 294.992 336.109 295.209 335.954 295.493C335.8 295.777 335.723 296.111 335.723 296.494C335.723 296.883 335.8 297.224 335.954 297.514C336.109 297.798 336.315 298.018 336.575 298.172C336.834 298.32 337.121 298.394 337.436 298.394C337.751 298.394 338.038 298.32 338.298 298.172C338.563 298.018 338.774 297.798 338.927 297.514C339.082 297.224 339.159 296.887 339.159 296.503ZM343.529 293.889C343.967 293.889 344.351 293.986 344.678 294.176C345.011 294.368 345.258 294.609 345.419 294.9V293.973H346.271V299.164C346.271 299.627 346.172 300.039 345.974 300.397C345.777 300.762 345.493 301.045 345.122 301.249C344.758 301.453 344.332 301.555 343.844 301.555C343.177 301.555 342.621 301.398 342.177 301.083C341.732 300.767 341.47 300.338 341.389 299.794H342.223C342.316 300.104 342.507 300.35 342.797 300.536C343.087 300.728 343.436 300.823 343.844 300.823C344.307 300.823 344.684 300.678 344.974 300.387C345.27 300.097 345.419 299.689 345.419 299.164V298.098C345.252 298.394 345.005 298.642 344.678 298.839C344.351 299.038 343.967 299.136 343.529 299.136C343.078 299.136 342.668 299.025 342.297 298.802C341.933 298.58 341.646 298.268 341.436 297.866C341.225 297.465 341.121 297.008 341.121 296.494C341.121 295.975 341.225 295.521 341.436 295.131C341.646 294.736 341.933 294.43 342.297 294.214C342.668 293.998 343.078 293.889 343.529 293.889ZM345.419 296.503C345.419 296.12 345.342 295.787 345.187 295.502C345.032 295.218 344.823 295.002 344.557 294.853C344.298 294.699 344.011 294.621 343.696 294.621C343.381 294.621 343.094 294.696 342.834 294.844C342.575 294.992 342.368 295.209 342.214 295.493C342.059 295.777 341.982 296.111 341.982 296.494C341.982 296.883 342.059 297.224 342.214 297.514C342.368 297.798 342.575 298.018 342.834 298.172C343.094 298.32 343.381 298.394 343.696 298.394C344.011 298.394 344.298 298.32 344.557 298.172C344.823 298.018 345.032 297.798 345.187 297.514C345.342 297.224 345.419 296.887 345.419 296.503ZM352.327 296.318C352.327 296.479 352.317 296.649 352.299 296.828H348.242C348.272 297.328 348.443 297.721 348.751 298.005C349.066 298.283 349.446 298.422 349.89 298.422C350.254 298.422 350.557 298.339 350.798 298.172C351.046 297.999 351.218 297.77 351.317 297.486H352.225C352.088 297.974 351.817 298.373 351.41 298.682C351.002 298.985 350.495 299.136 349.89 299.136C349.409 299.136 348.976 299.028 348.594 298.811C348.217 298.595 347.92 298.29 347.705 297.894C347.489 297.492 347.38 297.029 347.38 296.503C347.38 295.979 347.485 295.518 347.695 295.122C347.906 294.727 348.198 294.424 348.575 294.214C348.958 293.998 349.397 293.889 349.89 293.889C350.372 293.889 350.798 293.995 351.169 294.204C351.539 294.415 351.824 294.705 352.021 295.076C352.225 295.441 352.327 295.854 352.327 296.318ZM351.456 296.142C351.456 295.821 351.385 295.546 351.243 295.317C351.101 295.082 350.907 294.906 350.659 294.788C350.418 294.665 350.15 294.603 349.853 294.603C349.427 294.603 349.063 294.739 348.76 295.011C348.464 295.283 348.295 295.66 348.251 296.142H351.456ZM359.543 293.88C359.938 293.88 360.29 293.963 360.599 294.13C360.907 294.291 361.152 294.535 361.331 294.862C361.509 295.191 361.599 295.589 361.599 296.058V299.052H360.766V296.179C360.766 295.673 360.639 295.286 360.386 295.02C360.138 294.748 359.802 294.612 359.376 294.612C358.938 294.612 358.589 294.755 358.33 295.039C358.07 295.317 357.941 295.722 357.941 296.253V299.052H357.107V296.179C357.107 295.673 356.98 295.286 356.727 295.02C356.48 294.748 356.144 294.612 355.718 294.612C355.279 294.612 354.93 294.755 354.671 295.039C354.412 295.317 354.282 295.722 354.282 296.253V299.052H353.439V293.973H354.282V294.705C354.449 294.44 354.671 294.236 354.949 294.093C355.233 293.951 355.544 293.88 355.884 293.88C356.31 293.88 356.687 293.976 357.014 294.167C357.341 294.359 357.586 294.64 357.746 295.011C357.888 294.653 358.123 294.375 358.45 294.176C358.777 293.979 359.142 293.88 359.543 293.88ZM367.613 296.318C367.613 296.479 367.604 296.649 367.586 296.828H363.529C363.559 297.328 363.729 297.721 364.038 298.005C364.353 298.283 364.733 298.422 365.177 298.422C365.541 298.422 365.844 298.339 366.085 298.172C366.331 297.999 366.505 297.77 366.604 297.486H367.511C367.375 297.974 367.104 298.373 366.696 298.682C366.289 298.985 365.782 299.136 365.177 299.136C364.696 299.136 364.263 299.028 363.881 298.811C363.504 298.595 363.207 298.29 362.991 297.894C362.775 297.492 362.667 297.029 362.667 296.503C362.667 295.979 362.772 295.518 362.982 295.122C363.191 294.727 363.485 294.424 363.862 294.214C364.245 293.998 364.683 293.889 365.177 293.889C365.659 293.889 366.085 293.995 366.456 294.204C366.826 294.415 367.109 294.705 367.308 295.076C367.511 295.441 367.613 295.854 367.613 296.318ZM366.743 296.142C366.743 295.821 366.671 295.546 366.53 295.317C366.387 295.082 366.192 294.906 365.946 294.788C365.705 294.665 365.437 294.603 365.14 294.603C364.714 294.603 364.349 294.739 364.047 295.011C363.751 295.283 363.58 295.66 363.538 296.142H366.743ZM371.199 293.88C371.817 293.88 372.317 294.069 372.699 294.445C373.082 294.816 373.274 295.354 373.274 296.058V299.052H372.44V296.179C372.44 295.673 372.313 295.286 372.06 295.02C371.807 294.748 371.461 294.612 371.023 294.612C370.578 294.612 370.224 294.751 369.958 295.029C369.698 295.307 369.569 295.713 369.569 296.244V299.052H368.726V293.973H369.569V294.696C369.735 294.436 369.96 294.236 370.245 294.093C370.535 293.951 370.853 293.88 371.199 293.88ZM375.678 294.668V297.662C375.678 297.909 375.731 298.086 375.836 298.19C375.941 298.29 376.123 298.339 376.382 298.339H377.003V299.052H376.243C375.775 299.052 375.423 298.945 375.187 298.728C374.953 298.512 374.835 298.157 374.835 297.662V294.668H374.178V293.973H374.835V292.693H375.678V293.973H377.003V294.668H375.678Z" fill="white"/>
<path d="M332.711 264.826L336.562 268.694H328.859L332.711 264.826Z" fill="#CB720B"/>
</g>
<defs>
<clipPath id="clip0_1129_13986">
<rect width="742" height="712" fill="white"/>
</clipPath>
</defs>
</svg>
