<svg width="162" height="149" viewBox="0 0 162 149" fill="none" xmlns="http://www.w3.org/2000/svg">
<path d="M80.8333 148.329L69.1125 137.821C55.5056 125.561 44.2562 114.985 35.3646 106.094C26.4729 97.2021 19.4 89.2198 14.1458 82.1469C8.89167 75.074 5.22049 68.5736 3.13229 62.6458C1.0441 56.7181 0 50.6556 0 44.4583C0 31.7944 4.24375 21.2188 12.7312 12.7312C21.2188 4.24375 31.7944 0 44.4583 0C51.4639 0 58.1326 1.48194 64.4646 4.44583C70.7965 7.40972 76.2528 11.5861 80.8333 16.975C85.4139 11.5861 90.8701 7.40972 97.2021 4.44583C103.534 1.48194 110.203 0 117.208 0C129.872 0 140.448 4.24375 148.935 12.7312C157.423 21.2188 161.667 31.7944 161.667 44.4583C161.667 50.6556 160.623 56.7181 158.534 62.6458C156.446 68.5736 152.775 75.074 147.521 82.1469C142.267 89.2198 135.194 97.2021 126.302 106.094C117.41 114.985 106.161 125.561 92.5542 137.821L80.8333 148.329Z" fill="#F39324"/>
</svg>
