<svg width="525" height="489" viewBox="0 0 525 489" fill="none" xmlns="http://www.w3.org/2000/svg">
<path d="M489.468 303.338C489.468 306.107 491.614 308.366 494.278 308.366C496.942 308.366 499.088 306.123 499.088 303.338C499.088 300.554 496.942 298.31 494.278 298.31C491.614 298.31 489.468 300.554 489.468 303.338Z" fill="url(#paint0_linear_441_12369)"/>
<path d="M489.468 185.529C489.468 188.298 491.614 190.557 494.278 190.557C496.942 190.557 499.088 188.314 499.088 185.529C499.088 182.745 496.942 180.501 494.278 180.501C491.614 180.501 489.468 182.745 489.468 185.529Z" fill="url(#paint1_linear_441_12369)"/>
<path d="M514.508 123.824C514.508 126.593 516.654 128.852 519.318 128.852C521.982 128.852 524.128 126.608 524.128 123.824C524.128 121.039 521.982 118.796 519.318 118.796C516.654 118.796 514.508 121.039 514.508 123.824Z" fill="url(#paint2_linear_441_12369)"/>
<path d="M514.508 365.043C514.508 367.812 516.654 370.072 519.318 370.072C521.982 370.072 524.128 367.828 524.128 365.043C524.128 362.259 521.982 360.015 519.318 360.015C516.654 360.015 514.508 362.259 514.508 365.043Z" fill="url(#paint3_linear_441_12369)"/>
<path d="M482.269 244.434C482.269 247.202 484.415 249.462 487.079 249.462C489.743 249.462 491.889 247.218 491.889 244.434C491.889 241.649 489.743 239.406 487.079 239.406C484.415 239.406 482.269 241.649 482.269 244.434Z" fill="url(#paint4_linear_441_12369)"/>
<path d="M325.296 365.728H229.67C229.244 365.728 228.909 365.378 228.909 364.932C228.909 364.487 229.244 364.136 229.67 364.136H324.991L383.688 302.781C383.992 302.463 384.464 302.463 384.768 302.781C385.073 303.1 385.073 303.593 384.768 303.911L325.859 365.489C325.722 365.632 325.524 365.728 325.326 365.728H325.296Z" fill="url(#paint5_linear_441_12369)"/>
<path d="M174.065 424.091H71.3304C70.9042 424.091 70.5693 423.741 70.5693 423.296C70.5693 422.85 70.9042 422.5 71.3304 422.5H173.745L207.051 387.686C207.355 387.367 207.827 387.367 208.132 387.686C208.436 388.004 208.436 388.497 208.132 388.815L174.597 423.869C174.46 424.012 174.262 424.107 174.065 424.107V424.091Z" fill="url(#paint6_linear_441_12369)"/>
<path d="M282.933 488.883C282.735 488.883 282.537 488.804 282.4 488.645L249.094 453.83H146.68C146.254 453.83 145.919 453.48 145.919 453.034C145.919 452.589 146.254 452.239 146.68 452.239H249.414C249.612 452.239 249.81 452.318 249.947 452.478L283.481 487.531C283.786 487.849 283.786 488.342 283.481 488.66C283.329 488.82 283.131 488.899 282.948 488.899L282.933 488.883Z" fill="url(#paint7_linear_441_12369)"/>
<path d="M204.798 339.187H0.761106C0.334887 339.187 0 338.837 0 338.392C0 337.946 0.334887 337.596 0.761106 337.596H204.479L237.785 302.781C238.089 302.463 238.561 302.463 238.866 302.781C239.17 303.1 239.17 303.593 238.866 303.911L205.331 338.964C205.194 339.108 204.996 339.203 204.798 339.203V339.187Z" fill="url(#paint8_linear_441_12369)"/>
<path d="M224.983 365.043C224.983 367.812 227.13 370.072 229.794 370.072C232.457 370.072 234.604 367.828 234.604 365.043C234.604 362.259 232.457 360.015 229.794 360.015C227.13 360.015 224.983 362.259 224.983 365.043Z" fill="url(#paint9_linear_441_12369)"/>
<path d="M302.204 303.338C302.204 306.107 304.35 308.366 307.014 308.366C309.678 308.366 311.824 306.123 311.824 303.338C311.824 300.554 309.678 298.31 307.014 298.31C304.35 298.31 302.204 300.554 302.204 303.338Z" fill="url(#paint10_linear_441_12369)"/>
<path d="M270.831 423.296C270.831 426.064 272.977 428.324 275.641 428.324C278.305 428.324 280.451 426.08 280.451 423.296C280.451 420.511 278.305 418.268 275.641 418.268C272.977 418.268 270.831 420.511 270.831 423.296Z" fill="url(#paint11_linear_441_12369)"/>
<path d="M141.87 453.035C141.87 455.803 144.016 458.063 146.68 458.063C149.344 458.063 151.49 455.819 151.49 453.035C151.49 450.25 149.344 448.006 146.68 448.006C144.016 448.006 141.87 450.25 141.87 453.035Z" fill="url(#paint12_linear_441_12369)"/>
<path d="M270.831 303.338C270.831 306.107 272.977 308.366 275.641 308.366C278.305 308.366 280.451 306.123 280.451 303.338C280.451 300.554 278.305 298.31 275.641 298.31C272.977 298.31 270.831 300.554 270.831 303.338Z" fill="url(#paint13_linear_441_12369)"/>
<path d="M181.28 244.434C181.28 247.202 183.427 249.462 186.09 249.462C188.754 249.462 190.901 247.218 190.901 244.434C190.901 241.649 188.754 239.406 186.09 239.406C183.427 239.406 181.28 241.649 181.28 244.434Z" fill="url(#paint14_linear_441_12369)"/>
<path d="M149.908 244.434C149.908 247.202 152.055 249.462 154.718 249.462C157.382 249.462 159.529 247.218 159.529 244.434C159.529 241.649 157.382 239.406 154.718 239.406C152.055 239.406 149.908 241.649 149.908 244.434Z" fill="url(#paint15_linear_441_12369)"/>
<path d="M149.908 303.338C149.908 306.107 152.055 308.366 154.718 308.366C157.382 308.366 159.529 306.123 159.529 303.338C159.529 300.554 157.382 298.31 154.718 298.31C152.055 298.31 149.908 300.554 149.908 303.338Z" fill="url(#paint16_linear_441_12369)"/>
<path d="M110.481 453.035C110.481 455.803 112.628 458.063 115.292 458.063C117.956 458.063 120.102 455.819 120.102 453.035C120.102 450.25 117.956 448.006 115.292 448.006C112.628 448.006 110.481 450.25 110.481 453.035Z" fill="url(#paint17_linear_441_12369)"/>
<path d="M181.28 303.338C181.28 306.107 183.427 308.366 186.09 308.366C188.754 308.366 190.901 306.123 190.901 303.338C190.901 300.554 188.754 298.31 186.09 298.31C183.427 298.31 181.28 300.554 181.28 303.338Z" fill="url(#paint18_linear_441_12369)"/>
<path d="M226.386 368.608C228.258 370.565 231.302 370.565 233.175 368.608C235.047 366.651 235.047 363.468 233.175 361.511C231.302 359.554 228.258 359.554 226.386 361.511C224.513 363.468 224.513 366.651 226.386 368.608Z" fill="url(#paint19_linear_441_12369)"/>
<path d="M204.191 391.791C206.064 393.748 209.108 393.748 210.98 391.791C212.853 389.834 212.853 386.651 210.98 384.694C209.108 382.737 206.064 382.737 204.191 384.694C202.319 386.651 202.319 389.834 204.191 391.791Z" fill="url(#paint20_linear_441_12369)"/>
<path d="M90.0859 403.645C91.9582 405.602 95.0026 405.602 96.8749 403.645C98.7473 401.688 98.7473 398.505 96.8749 396.548C95.0026 394.591 91.9582 394.591 90.0859 396.548C88.2136 398.505 88.2136 401.688 90.0859 403.645Z" fill="url(#paint21_linear_441_12369)"/>
<path d="M67.8915 426.844C69.7639 428.801 72.8083 428.801 74.6806 426.844C76.5529 424.887 76.5529 421.705 74.6806 419.747C72.8083 417.79 69.7639 417.79 67.8915 419.747C66.0192 421.705 66.0192 424.887 67.8915 426.844Z" fill="url(#paint22_linear_441_12369)"/>
<path d="M275.627 304.134H186.076C185.649 304.134 185.314 303.784 185.314 303.338C185.314 302.893 185.649 302.543 186.076 302.543H275.627C276.054 302.543 276.388 302.893 276.388 303.338C276.388 303.784 276.054 304.134 275.627 304.134Z" fill="url(#paint23_linear_441_12369)"/>
<path d="M71.3307 428.324C73.9873 428.324 76.1409 426.073 76.1409 423.296C76.1409 420.519 73.9873 418.268 71.3307 418.268C68.6741 418.268 66.5205 420.519 66.5205 423.296C66.5205 426.073 68.6741 428.324 71.3307 428.324Z" fill="url(#paint24_linear_441_12369)"/>
<path d="M93.4779 400.892C93.28 400.892 93.0821 400.813 92.9451 400.654C92.6407 400.335 92.6407 399.842 92.9451 399.524L151.977 337.819C152.281 337.501 152.753 337.501 153.057 337.819C153.362 338.137 153.362 338.63 153.057 338.948L94.0259 400.654C93.8737 400.813 93.6758 400.892 93.4931 400.892H93.4779Z" fill="url(#paint25_linear_441_12369)"/>
<path d="M371.634 424.091H275.628C275.202 424.091 274.867 423.741 274.867 423.296C274.867 422.85 275.202 422.5 275.628 422.5H371.634C372.06 422.5 372.395 422.85 372.395 423.296C372.395 423.741 372.06 424.091 371.634 424.091Z" fill="url(#paint26_linear_441_12369)"/>
<path d="M115.292 453.83H0.761106C0.334887 453.83 0 453.48 0 453.034C0 452.589 0.334887 452.239 0.761106 452.239H115.292C115.719 452.239 116.053 452.589 116.053 453.034C116.053 453.48 115.719 453.83 115.292 453.83Z" fill="url(#paint27_linear_441_12369)"/>
<path d="M154.702 245.229H0.761106C0.334887 245.229 0 244.879 0 244.434C0 243.988 0.334887 243.638 0.761106 243.638H154.702C155.129 243.638 155.464 243.988 155.464 244.434C155.464 244.879 155.129 245.229 154.702 245.229Z" fill="url(#paint28_linear_441_12369)"/>
<path d="M154.702 304.134H0.761106C0.334887 304.134 0 303.784 0 303.338C0 302.893 0.334887 302.543 0.761106 302.543H154.702C155.129 302.543 155.464 302.893 155.464 303.338C155.464 303.784 155.129 304.134 154.702 304.134Z" fill="url(#paint29_linear_441_12369)"/>
<path d="M384.208 186.325C384.01 186.325 383.812 186.245 383.675 186.086L324.979 124.731H229.658C229.231 124.731 228.896 124.381 228.896 123.935C228.896 123.49 229.231 123.14 229.658 123.14H325.283C325.481 123.14 325.679 123.219 325.816 123.378L384.725 184.956C385.03 185.274 385.03 185.768 384.725 186.086C384.573 186.245 384.375 186.325 384.193 186.325H384.208Z" fill="url(#paint30_linear_441_12369)"/>
<path d="M207.599 101.436C207.401 101.436 207.203 101.357 207.066 101.198L173.76 66.383H71.3304C70.9042 66.383 70.5693 66.033 70.5693 65.5874C70.5693 65.1419 70.9042 64.7919 71.3304 64.7919H174.065C174.262 64.7919 174.46 64.8714 174.597 65.0305L208.132 100.084C208.436 100.402 208.436 100.895 208.132 101.213C207.979 101.373 207.782 101.452 207.599 101.452V101.436Z" fill="url(#paint31_linear_441_12369)"/>
<path d="M249.399 36.6444H146.664C146.238 36.6444 145.903 36.2943 145.903 35.8488C145.903 35.4033 146.238 35.0532 146.664 35.0532H249.079L282.385 0.238674C282.689 -0.0795579 283.161 -0.0795579 283.466 0.238674C283.77 0.556905 283.77 1.05016 283.466 1.3684L249.931 36.4216C249.794 36.5648 249.596 36.6603 249.399 36.6603V36.6444Z" fill="url(#paint32_linear_441_12369)"/>
<path d="M238.333 186.325C238.135 186.325 237.937 186.245 237.8 186.086L204.494 151.271H0.761106C0.334887 151.271 0 150.921 0 150.476C0 150.03 0.334887 149.68 0.761106 149.68H204.798C204.996 149.68 205.194 149.76 205.331 149.919L238.866 184.972C239.17 185.29 239.17 185.784 238.866 186.102C238.713 186.261 238.515 186.341 238.333 186.341V186.325Z" fill="url(#paint33_linear_441_12369)"/>
<path d="M224.983 123.824C224.983 121.055 227.13 118.796 229.794 118.796C232.457 118.796 234.604 121.039 234.604 123.824C234.604 126.608 232.457 128.852 229.794 128.852C227.13 128.852 224.983 126.608 224.983 123.824Z" fill="url(#paint34_linear_441_12369)"/>
<path d="M302.204 185.529C302.204 182.76 304.35 180.501 307.014 180.501C309.678 180.501 311.824 182.745 311.824 185.529C311.824 188.314 309.678 190.557 307.014 190.557C304.35 190.557 302.204 188.314 302.204 185.529Z" fill="url(#paint35_linear_441_12369)"/>
<path d="M270.831 65.5875C270.831 62.8189 272.977 60.5594 275.641 60.5594C278.305 60.5594 280.451 62.803 280.451 65.5875C280.451 68.372 278.305 70.6156 275.641 70.6156C272.977 70.6156 270.831 68.372 270.831 65.5875Z" fill="url(#paint36_linear_441_12369)"/>
<path d="M141.87 35.8487C141.87 33.0801 144.016 30.8207 146.68 30.8207C149.344 30.8207 151.49 33.0642 151.49 35.8487C151.49 38.6333 149.344 40.8768 146.68 40.8768C144.016 40.8768 141.87 38.6333 141.87 35.8487Z" fill="url(#paint37_linear_441_12369)"/>
<path d="M270.831 185.529C270.831 182.76 272.977 180.501 275.641 180.501C278.305 180.501 280.451 182.745 280.451 185.529C280.451 188.314 278.305 190.557 275.641 190.557C272.977 190.557 270.831 188.314 270.831 185.529Z" fill="url(#paint38_linear_441_12369)"/>
<path d="M149.908 185.529C149.908 182.76 152.055 180.501 154.718 180.501C157.382 180.501 159.529 182.745 159.529 185.529C159.529 188.314 157.382 190.557 154.718 190.557C152.055 190.557 149.908 188.314 149.908 185.529Z" fill="url(#paint39_linear_441_12369)"/>
<path d="M110.481 35.8487C110.481 33.0801 112.628 30.8207 115.292 30.8207C117.956 30.8207 120.102 33.0642 120.102 35.8487C120.102 38.6333 117.956 40.8768 115.292 40.8768C112.628 40.8768 110.481 38.6333 110.481 35.8487Z" fill="url(#paint40_linear_441_12369)"/>
<path d="M181.28 185.529C181.28 182.76 183.427 180.501 186.09 180.501C188.754 180.501 190.901 182.745 190.901 185.529C190.901 188.314 188.754 190.557 186.09 190.557C183.427 190.557 181.28 188.314 181.28 185.529Z" fill="url(#paint41_linear_441_12369)"/>
<path d="M226.386 120.276C228.258 118.318 231.302 118.318 233.175 120.276C235.047 122.233 235.047 125.415 233.175 127.372C231.302 129.329 228.258 129.329 226.386 127.372C224.513 125.415 224.513 122.233 226.386 120.276Z" fill="url(#paint42_linear_441_12369)"/>
<path d="M204.191 97.0765C206.064 95.1194 209.108 95.1194 210.98 97.0765C212.853 99.0337 212.853 102.216 210.98 104.173C209.108 106.13 206.064 106.13 204.191 104.173C202.319 102.216 202.319 99.0337 204.191 97.0765Z" fill="url(#paint43_linear_441_12369)"/>
<path d="M90.0859 85.2224C91.9582 83.2653 95.0026 83.2653 96.8749 85.2224C98.7473 87.1795 98.7473 90.3619 96.8749 92.319C95.0026 94.2761 91.9582 94.2761 90.0859 92.319C88.2136 90.3619 88.2136 87.1795 90.0859 85.2224Z" fill="url(#paint44_linear_441_12369)"/>
<path d="M67.8915 62.0393C69.7639 60.0821 72.8083 60.0821 74.6806 62.0393C76.5529 63.9964 76.5529 67.1787 74.6806 69.1358C72.8083 71.0929 69.7639 71.0929 67.8915 69.1358C66.0192 67.1787 66.0192 63.9964 67.8915 62.0393Z" fill="url(#paint45_linear_441_12369)"/>
<path d="M275.627 186.325H186.076C185.649 186.325 185.314 185.975 185.314 185.529C185.314 185.083 185.649 184.733 186.076 184.733H275.627C276.054 184.733 276.388 185.083 276.388 185.529C276.388 185.975 276.054 186.325 275.627 186.325Z" fill="url(#paint46_linear_441_12369)"/>
<path d="M71.3307 70.6156C73.9873 70.6156 76.1409 68.3644 76.1409 65.5875C76.1409 62.8106 73.9873 60.5594 71.3307 60.5594C68.6741 60.5594 66.5205 62.8106 66.5205 65.5875C66.5205 68.3644 68.6741 70.6156 71.3307 70.6156Z" fill="url(#paint47_linear_441_12369)"/>
<path d="M152.509 151.271C152.311 151.271 152.114 151.192 151.977 151.033L92.9451 89.3276C92.6407 89.0094 92.6407 88.5161 92.9451 88.1979C93.2496 87.8797 93.7215 87.8797 94.0259 88.1979L153.057 149.903C153.362 150.221 153.362 150.714 153.057 151.033C152.905 151.192 152.707 151.271 152.525 151.271H152.509Z" fill="url(#paint48_linear_441_12369)"/>
<path d="M371.634 66.383H275.628C275.202 66.383 274.867 66.033 274.867 65.5874C274.867 65.1419 275.202 64.7919 275.628 64.7919H371.634C372.06 64.7919 372.395 65.1419 372.395 65.5874C372.395 66.033 372.06 66.383 371.634 66.383Z" fill="url(#paint49_linear_441_12369)"/>
<path d="M115.292 36.6444H0.761106C0.334887 36.6444 0 36.2943 0 35.8488C0 35.4033 0.334887 35.0532 0.761106 35.0532H115.292C115.719 35.0532 116.053 35.4033 116.053 35.8488C116.053 36.2943 115.719 36.6444 115.292 36.6444Z" fill="url(#paint50_linear_441_12369)"/>
<path d="M154.702 186.325H0.761106C0.334887 186.325 0 185.975 0 185.529C0 185.084 0.334887 184.733 0.761106 184.733H154.702C155.129 184.733 155.464 185.084 155.464 185.529C155.464 185.975 155.129 186.325 154.702 186.325Z" fill="url(#paint51_linear_441_12369)"/>
<path d="M487.062 245.229H186.09C185.664 245.229 185.329 244.879 185.329 244.434C185.329 243.988 185.664 243.638 186.09 243.638H487.077C487.503 243.638 487.838 243.988 487.838 244.434C487.838 244.879 487.503 245.229 487.077 245.229H487.062Z" fill="url(#paint52_linear_441_12369)"/>
<path d="M494.278 304.134H306.894C306.468 304.134 306.133 303.784 306.133 303.338C306.133 302.893 306.468 302.543 306.894 302.543H494.278C494.704 302.543 495.039 302.893 495.039 303.338C495.039 303.784 494.704 304.134 494.278 304.134Z" fill="url(#paint53_linear_441_12369)"/>
<path d="M309.648 488.883H0.761106C0.334887 488.883 0 488.533 0 488.088C0 487.642 0.334887 487.292 0.761106 487.292H309.344L426.828 364.486C426.965 364.343 427.163 364.248 427.361 364.248H519.318C519.744 364.248 520.079 364.598 520.079 365.043C520.079 365.489 519.744 365.839 519.318 365.839H427.681L310.196 488.645C310.059 488.788 309.861 488.883 309.664 488.883H309.648Z" fill="url(#paint54_linear_441_12369)"/>
<path d="M494.278 186.325H306.894C306.468 186.325 306.133 185.975 306.133 185.529C306.133 185.084 306.468 184.733 306.894 184.733H494.278C494.704 184.733 495.039 185.084 495.039 185.529C495.039 185.975 494.704 186.325 494.278 186.325Z" fill="url(#paint55_linear_441_12369)"/>
<path d="M519.303 124.619H427.346C427.148 124.619 426.95 124.54 426.813 124.381L309.344 1.59116H0.761106C0.334887 1.59116 0 1.2411 0 0.795579C0 0.350055 0.334887 0 0.761106 0H309.648C309.846 0 310.044 0.0795579 310.181 0.238674L427.666 123.044H519.303C519.729 123.044 520.064 123.394 520.064 123.84C520.064 124.285 519.729 124.635 519.303 124.635V124.619Z" fill="url(#paint56_linear_441_12369)"/>
<defs>
<linearGradient id="paint0_linear_441_12369" x1="499.115" y1="303.74" x2="489.44" y2="303.74" gradientUnits="userSpaceOnUse">
<stop stop-color="#FF5C00"/>
<stop offset="1" stop-color="#FF5C00" stop-opacity="0"/>
</linearGradient>
<linearGradient id="paint1_linear_441_12369" x1="499.115" y1="185.931" x2="489.44" y2="185.931" gradientUnits="userSpaceOnUse">
<stop stop-color="#FF5C00"/>
<stop offset="1" stop-color="#FF5C00" stop-opacity="0"/>
</linearGradient>
<linearGradient id="paint2_linear_441_12369" x1="524.155" y1="124.225" x2="514.48" y2="124.225" gradientUnits="userSpaceOnUse">
<stop stop-color="#FF5C00"/>
<stop offset="1" stop-color="#FF5C00" stop-opacity="0"/>
</linearGradient>
<linearGradient id="paint3_linear_441_12369" x1="524.155" y1="365.445" x2="514.48" y2="365.445" gradientUnits="userSpaceOnUse">
<stop stop-color="#FF5C00"/>
<stop offset="1" stop-color="#FF5C00" stop-opacity="0"/>
</linearGradient>
<linearGradient id="paint4_linear_441_12369" x1="491.916" y1="244.835" x2="482.241" y2="244.835" gradientUnits="userSpaceOnUse">
<stop stop-color="#FF5C00"/>
<stop offset="1" stop-color="#FF5C00" stop-opacity="0"/>
</linearGradient>
<linearGradient id="paint5_linear_441_12369" x1="385.434" y1="336.658" x2="228.461" y2="336.658" gradientUnits="userSpaceOnUse">
<stop stop-color="#FF5C00"/>
<stop offset="1" stop-color="#FF5C00" stop-opacity="0"/>
</linearGradient>
<linearGradient id="paint6_linear_441_12369" x1="208.746" y1="407.241" x2="70.1733" y2="407.241" gradientUnits="userSpaceOnUse">
<stop stop-color="#FF5C00"/>
<stop offset="1" stop-color="#FF5C00" stop-opacity="0"/>
</linearGradient>
<linearGradient id="paint7_linear_441_12369" x1="284.096" y1="472.033" x2="145.523" y2="472.033" gradientUnits="userSpaceOnUse">
<stop stop-color="#FF5C00"/>
<stop offset="1" stop-color="#FF5C00" stop-opacity="0"/>
</linearGradient>
<linearGradient id="paint8_linear_441_12369" x1="239.764" y1="322.337" x2="-0.687148" y2="322.337" gradientUnits="userSpaceOnUse">
<stop stop-color="#FF5C00"/>
<stop offset="1" stop-color="#FF5C00" stop-opacity="0"/>
</linearGradient>
<linearGradient id="paint9_linear_441_12369" x1="234.631" y1="365.445" x2="224.956" y2="365.445" gradientUnits="userSpaceOnUse">
<stop stop-color="#FF5C00"/>
<stop offset="1" stop-color="#FF5C00" stop-opacity="0"/>
</linearGradient>
<linearGradient id="paint10_linear_441_12369" x1="311.851" y1="303.74" x2="302.176" y2="303.74" gradientUnits="userSpaceOnUse">
<stop stop-color="#FF5C00"/>
<stop offset="1" stop-color="#FF5C00" stop-opacity="0"/>
</linearGradient>
<linearGradient id="paint11_linear_441_12369" x1="280.478" y1="423.697" x2="270.803" y2="423.697" gradientUnits="userSpaceOnUse">
<stop stop-color="#FF5C00"/>
<stop offset="1" stop-color="#FF5C00" stop-opacity="0"/>
</linearGradient>
<linearGradient id="paint12_linear_441_12369" x1="151.517" y1="453.436" x2="141.842" y2="453.436" gradientUnits="userSpaceOnUse">
<stop stop-color="#FF5C00"/>
<stop offset="1" stop-color="#FF5C00" stop-opacity="0"/>
</linearGradient>
<linearGradient id="paint13_linear_441_12369" x1="280.478" y1="303.74" x2="270.803" y2="303.74" gradientUnits="userSpaceOnUse">
<stop stop-color="#FF5C00"/>
<stop offset="1" stop-color="#FF5C00" stop-opacity="0"/>
</linearGradient>
<linearGradient id="paint14_linear_441_12369" x1="190.928" y1="244.835" x2="181.253" y2="244.835" gradientUnits="userSpaceOnUse">
<stop stop-color="#FF5C00"/>
<stop offset="1" stop-color="#FF5C00" stop-opacity="0"/>
</linearGradient>
<linearGradient id="paint15_linear_441_12369" x1="159.556" y1="244.835" x2="149.881" y2="244.835" gradientUnits="userSpaceOnUse">
<stop stop-color="#FF5C00"/>
<stop offset="1" stop-color="#FF5C00" stop-opacity="0"/>
</linearGradient>
<linearGradient id="paint16_linear_441_12369" x1="159.556" y1="303.74" x2="149.881" y2="303.74" gradientUnits="userSpaceOnUse">
<stop stop-color="#FF5C00"/>
<stop offset="1" stop-color="#FF5C00" stop-opacity="0"/>
</linearGradient>
<linearGradient id="paint17_linear_441_12369" x1="120.129" y1="453.436" x2="110.454" y2="453.436" gradientUnits="userSpaceOnUse">
<stop stop-color="#FF5C00"/>
<stop offset="1" stop-color="#FF5C00" stop-opacity="0"/>
</linearGradient>
<linearGradient id="paint18_linear_441_12369" x1="190.928" y1="303.74" x2="181.253" y2="303.74" gradientUnits="userSpaceOnUse">
<stop stop-color="#FF5C00"/>
<stop offset="1" stop-color="#FF5C00" stop-opacity="0"/>
</linearGradient>
<linearGradient id="paint19_linear_441_12369" x1="234.606" y1="365.46" x2="224.954" y2="365.46" gradientUnits="userSpaceOnUse">
<stop stop-color="#FF5C00"/>
<stop offset="1" stop-color="#FF5C00" stop-opacity="0"/>
</linearGradient>
<linearGradient id="paint20_linear_441_12369" x1="212.412" y1="388.643" x2="202.76" y2="388.643" gradientUnits="userSpaceOnUse">
<stop stop-color="#FF5C00"/>
<stop offset="1" stop-color="#FF5C00" stop-opacity="0"/>
</linearGradient>
<linearGradient id="paint21_linear_441_12369" x1="98.3061" y1="400.497" x2="88.6541" y2="400.497" gradientUnits="userSpaceOnUse">
<stop stop-color="#FF5C00"/>
<stop offset="1" stop-color="#FF5C00" stop-opacity="0"/>
</linearGradient>
<linearGradient id="paint22_linear_441_12369" x1="76.1117" y1="423.696" x2="66.4597" y2="423.696" gradientUnits="userSpaceOnUse">
<stop stop-color="#FF5C00"/>
<stop offset="1" stop-color="#FF5C00" stop-opacity="0"/>
</linearGradient>
<linearGradient id="paint23_linear_441_12369" x1="276.644" y1="303.402" x2="185.053" y2="303.402" gradientUnits="userSpaceOnUse">
<stop stop-color="#FF5C00"/>
<stop offset="1" stop-color="#FF5C00" stop-opacity="0"/>
</linearGradient>
<linearGradient id="paint24_linear_441_12369" x1="76.1678" y1="423.697" x2="66.4929" y2="423.697" gradientUnits="userSpaceOnUse">
<stop stop-color="#FF5C00"/>
<stop offset="1" stop-color="#FF5C00" stop-opacity="0"/>
</linearGradient>
<linearGradient id="paint25_linear_441_12369" x1="153.455" y1="371.764" x2="92.5427" y2="371.764" gradientUnits="userSpaceOnUse">
<stop stop-color="#FF5C00"/>
<stop offset="1" stop-color="#FF5C00" stop-opacity="0"/>
</linearGradient>
<linearGradient id="paint26_linear_441_12369" x1="372.668" y1="423.359" x2="274.587" y2="423.359" gradientUnits="userSpaceOnUse">
<stop stop-color="#FF5C00"/>
<stop offset="1" stop-color="#FF5C00" stop-opacity="0"/>
</linearGradient>
<linearGradient id="paint27_linear_441_12369" x1="116.379" y1="453.098" x2="-0.333534" y2="453.098" gradientUnits="userSpaceOnUse">
<stop stop-color="#FF5C00"/>
<stop offset="1" stop-color="#FF5C00" stop-opacity="0"/>
</linearGradient>
<linearGradient id="paint28_linear_441_12369" x1="155.899" y1="244.497" x2="-0.446797" y2="244.497" gradientUnits="userSpaceOnUse">
<stop stop-color="#FF5C00"/>
<stop offset="1" stop-color="#FF5C00" stop-opacity="0"/>
</linearGradient>
<linearGradient id="paint29_linear_441_12369" x1="155.899" y1="303.402" x2="-0.446797" y2="303.402" gradientUnits="userSpaceOnUse">
<stop stop-color="#FF5C00"/>
<stop offset="1" stop-color="#FF5C00" stop-opacity="0"/>
</linearGradient>
<linearGradient id="paint30_linear_441_12369" x1="385.391" y1="157.255" x2="228.448" y2="157.255" gradientUnits="userSpaceOnUse">
<stop stop-color="#FF5C00"/>
<stop offset="1" stop-color="#FF5C00" stop-opacity="0"/>
</linearGradient>
<linearGradient id="paint31_linear_441_12369" x1="208.746" y1="84.5859" x2="70.1733" y2="84.5859" gradientUnits="userSpaceOnUse">
<stop stop-color="#FF5C00"/>
<stop offset="1" stop-color="#FF5C00" stop-opacity="0"/>
</linearGradient>
<linearGradient id="paint32_linear_441_12369" x1="284.08" y1="19.7941" x2="145.507" y2="19.794" gradientUnits="userSpaceOnUse">
<stop stop-color="#FF5C00"/>
<stop offset="1" stop-color="#FF5C00" stop-opacity="0"/>
</linearGradient>
<linearGradient id="paint33_linear_441_12369" x1="239.764" y1="169.474" x2="-0.687148" y2="169.474" gradientUnits="userSpaceOnUse">
<stop stop-color="#FF5C00"/>
<stop offset="1" stop-color="#FF5C00" stop-opacity="0"/>
</linearGradient>
<linearGradient id="paint34_linear_441_12369" x1="234.631" y1="124.225" x2="224.956" y2="124.225" gradientUnits="userSpaceOnUse">
<stop stop-color="#FF5C00"/>
<stop offset="1" stop-color="#FF5C00" stop-opacity="0"/>
</linearGradient>
<linearGradient id="paint35_linear_441_12369" x1="311.851" y1="185.931" x2="302.176" y2="185.931" gradientUnits="userSpaceOnUse">
<stop stop-color="#FF5C00"/>
<stop offset="1" stop-color="#FF5C00" stop-opacity="0"/>
</linearGradient>
<linearGradient id="paint36_linear_441_12369" x1="280.478" y1="65.9891" x2="270.803" y2="65.9891" gradientUnits="userSpaceOnUse">
<stop stop-color="#FF5C00"/>
<stop offset="1" stop-color="#FF5C00" stop-opacity="0"/>
</linearGradient>
<linearGradient id="paint37_linear_441_12369" x1="151.517" y1="36.2503" x2="141.842" y2="36.2503" gradientUnits="userSpaceOnUse">
<stop stop-color="#FF5C00"/>
<stop offset="1" stop-color="#FF5C00" stop-opacity="0"/>
</linearGradient>
<linearGradient id="paint38_linear_441_12369" x1="280.478" y1="185.931" x2="270.803" y2="185.931" gradientUnits="userSpaceOnUse">
<stop stop-color="#FF5C00"/>
<stop offset="1" stop-color="#FF5C00" stop-opacity="0"/>
</linearGradient>
<linearGradient id="paint39_linear_441_12369" x1="159.556" y1="185.931" x2="149.881" y2="185.931" gradientUnits="userSpaceOnUse">
<stop stop-color="#FF5C00"/>
<stop offset="1" stop-color="#FF5C00" stop-opacity="0"/>
</linearGradient>
<linearGradient id="paint40_linear_441_12369" x1="120.129" y1="36.2503" x2="110.454" y2="36.2503" gradientUnits="userSpaceOnUse">
<stop stop-color="#FF5C00"/>
<stop offset="1" stop-color="#FF5C00" stop-opacity="0"/>
</linearGradient>
<linearGradient id="paint41_linear_441_12369" x1="190.928" y1="185.931" x2="181.253" y2="185.931" gradientUnits="userSpaceOnUse">
<stop stop-color="#FF5C00"/>
<stop offset="1" stop-color="#FF5C00" stop-opacity="0"/>
</linearGradient>
<linearGradient id="paint42_linear_441_12369" x1="234.606" y1="124.224" x2="224.954" y2="124.224" gradientUnits="userSpaceOnUse">
<stop stop-color="#FF5C00"/>
<stop offset="1" stop-color="#FF5C00" stop-opacity="0"/>
</linearGradient>
<linearGradient id="paint43_linear_441_12369" x1="212.412" y1="101.025" x2="202.76" y2="101.025" gradientUnits="userSpaceOnUse">
<stop stop-color="#FF5C00"/>
<stop offset="1" stop-color="#FF5C00" stop-opacity="0"/>
</linearGradient>
<linearGradient id="paint44_linear_441_12369" x1="98.3061" y1="89.1713" x2="88.6541" y2="89.1713" gradientUnits="userSpaceOnUse">
<stop stop-color="#FF5C00"/>
<stop offset="1" stop-color="#FF5C00" stop-opacity="0"/>
</linearGradient>
<linearGradient id="paint45_linear_441_12369" x1="76.1117" y1="65.9881" x2="66.4597" y2="65.9881" gradientUnits="userSpaceOnUse">
<stop stop-color="#FF5C00"/>
<stop offset="1" stop-color="#FF5C00" stop-opacity="0"/>
</linearGradient>
<linearGradient id="paint46_linear_441_12369" x1="276.644" y1="185.593" x2="185.053" y2="185.592" gradientUnits="userSpaceOnUse">
<stop stop-color="#FF5C00"/>
<stop offset="1" stop-color="#FF5C00" stop-opacity="0"/>
</linearGradient>
<linearGradient id="paint47_linear_441_12369" x1="76.1678" y1="65.9891" x2="66.4929" y2="65.9891" gradientUnits="userSpaceOnUse">
<stop stop-color="#FF5C00"/>
<stop offset="1" stop-color="#FF5C00" stop-opacity="0"/>
</linearGradient>
<linearGradient id="paint48_linear_441_12369" x1="153.455" y1="122.143" x2="92.5427" y2="122.143" gradientUnits="userSpaceOnUse">
<stop stop-color="#FF5C00"/>
<stop offset="1" stop-color="#FF5C00" stop-opacity="0"/>
</linearGradient>
<linearGradient id="paint49_linear_441_12369" x1="372.668" y1="65.651" x2="274.587" y2="65.6509" gradientUnits="userSpaceOnUse">
<stop stop-color="#FF5C00"/>
<stop offset="1" stop-color="#FF5C00" stop-opacity="0"/>
</linearGradient>
<linearGradient id="paint50_linear_441_12369" x1="116.379" y1="35.9123" x2="-0.333534" y2="35.9122" gradientUnits="userSpaceOnUse">
<stop stop-color="#FF5C00"/>
<stop offset="1" stop-color="#FF5C00" stop-opacity="0"/>
</linearGradient>
<linearGradient id="paint51_linear_441_12369" x1="155.899" y1="185.593" x2="-0.446797" y2="185.592" gradientUnits="userSpaceOnUse">
<stop stop-color="#FF5C00"/>
<stop offset="1" stop-color="#FF5C00" stop-opacity="0"/>
</linearGradient>
<linearGradient id="paint52_linear_441_12369" x1="488.686" y1="244.497" x2="184.46" y2="244.496" gradientUnits="userSpaceOnUse">
<stop stop-color="#FF5C00"/>
<stop offset="1" stop-color="#FF5C00" stop-opacity="0"/>
</linearGradient>
<linearGradient id="paint53_linear_441_12369" x1="495.568" y1="303.402" x2="305.59" y2="303.402" gradientUnits="userSpaceOnUse">
<stop stop-color="#FF5C00"/>
<stop offset="1" stop-color="#FF5C00" stop-opacity="0"/>
</linearGradient>
<linearGradient id="paint54_linear_441_12369" x1="521.536" y1="431.542" x2="-1.49469" y2="431.542" gradientUnits="userSpaceOnUse">
<stop stop-color="#FF5C00"/>
<stop offset="1" stop-color="#FF5C00" stop-opacity="0"/>
</linearGradient>
<linearGradient id="paint55_linear_441_12369" x1="495.568" y1="185.593" x2="305.59" y2="185.592" gradientUnits="userSpaceOnUse">
<stop stop-color="#FF5C00"/>
<stop offset="1" stop-color="#FF5C00" stop-opacity="0"/>
</linearGradient>
<linearGradient id="paint56_linear_441_12369" x1="521.521" y1="67.2946" x2="-1.49465" y2="67.2946" gradientUnits="userSpaceOnUse">
<stop stop-color="#FF5C00"/>
<stop offset="1" stop-color="#FF5C00" stop-opacity="0"/>
</linearGradient>
</defs>
</svg>
