<svg width="524" height="489" viewBox="0 0 524 489" fill="none" xmlns="http://www.w3.org/2000/svg">
<path d="M35.1387 185.661C35.1387 182.893 32.9923 180.633 30.3285 180.633C27.6646 180.633 25.5183 182.877 25.5183 185.661C25.5183 188.446 27.6646 190.689 30.3285 190.689C32.9923 190.689 35.1387 188.446 35.1387 185.661Z" fill="url(#paint0_linear_441_12431)"/>
<path d="M35.1387 303.47C35.1387 300.702 32.9923 298.442 30.3285 298.442C27.6646 298.442 25.5183 300.686 25.5183 303.47C25.5183 306.255 27.6646 308.498 30.3285 308.498C32.9923 308.498 35.1387 306.255 35.1387 303.47Z" fill="url(#paint1_linear_441_12431)"/>
<path d="M10.0996 365.175C10.0996 362.407 7.95329 360.147 5.28941 360.147C2.62554 360.147 0.479218 362.391 0.479218 365.175C0.479218 367.96 2.62554 370.204 5.28941 370.204C7.95328 370.204 10.0996 367.96 10.0996 365.175Z" fill="url(#paint2_linear_441_12431)"/>
<path d="M10.0996 123.956C10.0996 121.188 7.95329 118.928 5.28941 118.928C2.62554 118.928 0.479218 121.172 0.479218 123.956C0.479218 126.741 2.62554 128.984 5.28941 128.984C7.95328 128.984 10.0996 126.741 10.0996 123.956Z" fill="url(#paint3_linear_441_12431)"/>
<path d="M42.3398 244.566C42.3398 241.797 40.1935 239.538 37.5296 239.538C34.8658 239.538 32.7195 241.781 32.7195 244.566C32.7195 247.35 34.8658 249.594 37.5296 249.594C40.1935 249.594 42.3398 247.35 42.3398 244.566Z" fill="url(#paint4_linear_441_12431)"/>
<path d="M199.311 123.272L294.936 123.272C295.362 123.272 295.697 123.622 295.697 124.068C295.697 124.513 295.362 124.863 294.936 124.863L199.615 124.863L140.919 186.218C140.614 186.537 140.142 186.537 139.838 186.218C139.534 185.9 139.534 185.407 139.838 185.089L198.748 123.511C198.885 123.368 199.082 123.272 199.28 123.272L199.311 123.272Z" fill="url(#paint5_linear_441_12431)"/>
<path d="M350.542 64.9084L453.276 64.9084C453.702 64.9084 454.037 65.2584 454.037 65.7039C454.037 66.1495 453.702 66.4995 453.276 66.4995L350.862 66.4995L317.556 101.314C317.251 101.632 316.779 101.632 316.475 101.314C316.17 100.996 316.17 100.503 316.475 100.184L350.009 65.1311C350.146 64.9879 350.344 64.8924 350.542 64.8924L350.542 64.9084Z" fill="url(#paint6_linear_441_12431)"/>
<path d="M241.673 0.116366C241.871 0.116366 242.069 0.195914 242.206 0.355033L275.512 35.1696L377.926 35.1696C378.353 35.1696 378.688 35.5196 378.688 35.9652C378.688 36.4107 378.353 36.7607 377.926 36.7607L275.192 36.7607C274.994 36.7607 274.797 36.6812 274.66 36.5221L241.125 1.46886C240.821 1.15063 240.821 0.657386 241.125 0.339152C241.277 0.180037 241.475 0.10044 241.658 0.10044L241.673 0.116366Z" fill="url(#paint7_linear_441_12431)"/>
<path d="M319.809 149.813L523.846 149.813C524.273 149.813 524.607 150.163 524.607 150.608C524.607 151.054 524.273 151.404 523.846 151.404L320.129 151.404L286.823 186.218C286.518 186.537 286.046 186.537 285.742 186.218C285.437 185.9 285.437 185.407 285.742 185.089L319.276 150.035C319.413 149.892 319.611 149.797 319.809 149.797L319.809 149.813Z" fill="url(#paint8_linear_441_12431)"/>
<path d="M299.625 123.956C299.625 121.188 297.479 118.928 294.815 118.928C292.151 118.928 290.005 121.172 290.005 123.956C290.005 126.741 292.151 128.984 294.815 128.984C297.479 128.984 299.625 126.741 299.625 123.956Z" fill="url(#paint9_linear_441_12431)"/>
<path d="M222.402 185.661C222.402 182.893 220.256 180.633 217.592 180.633C214.928 180.633 212.782 182.877 212.782 185.661C212.782 188.446 214.928 190.689 217.592 190.689C220.256 190.689 222.402 188.446 222.402 185.661Z" fill="url(#paint10_linear_441_12431)"/>
<path d="M253.775 65.7039C253.775 62.9353 251.629 60.6758 248.965 60.6758C246.301 60.6758 244.155 62.9193 244.155 65.7039C244.155 68.4884 246.301 70.7319 248.965 70.7319C251.629 70.7319 253.775 68.4884 253.775 65.7039Z" fill="url(#paint11_linear_441_12431)"/>
<path d="M382.736 35.9651C382.736 33.1965 380.59 30.937 377.926 30.937C375.262 30.937 373.116 33.1806 373.116 35.9651C373.116 38.7496 375.262 40.9932 377.926 40.9932C380.59 40.9932 382.736 38.7496 382.736 35.9651Z" fill="url(#paint12_linear_441_12431)"/>
<path d="M253.775 185.661C253.775 182.893 251.629 180.633 248.965 180.633C246.301 180.633 244.155 182.877 244.155 185.661C244.155 188.446 246.301 190.689 248.965 190.689C251.629 190.689 253.775 188.446 253.775 185.661Z" fill="url(#paint13_linear_441_12431)"/>
<path d="M343.326 244.566C343.326 241.798 341.18 239.538 338.516 239.538C335.852 239.538 333.706 241.782 333.706 244.566C333.706 247.351 335.852 249.594 338.516 249.594C341.18 249.594 343.326 247.351 343.326 244.566Z" fill="url(#paint14_linear_441_12431)"/>
<path d="M374.699 244.566C374.699 241.798 372.553 239.538 369.889 239.538C367.225 239.538 365.079 241.782 365.079 244.566C365.079 247.351 367.225 249.594 369.889 249.594C372.553 249.594 374.699 247.351 374.699 244.566Z" fill="url(#paint15_linear_441_12431)"/>
<path d="M374.699 185.661C374.699 182.893 372.553 180.633 369.889 180.633C367.225 180.633 365.079 182.877 365.079 185.661C365.079 188.446 367.225 190.689 369.889 190.689C372.553 190.689 374.699 188.446 374.699 185.661Z" fill="url(#paint16_linear_441_12431)"/>
<path d="M414.125 35.9651C414.125 33.1965 411.979 30.937 409.315 30.937C406.651 30.937 404.505 33.1806 404.505 35.9651C404.505 38.7496 406.651 40.9932 409.315 40.9932C411.979 40.9932 414.125 38.7496 414.125 35.9651Z" fill="url(#paint17_linear_441_12431)"/>
<path d="M343.326 185.661C343.326 182.893 341.18 180.633 338.516 180.633C335.852 180.633 333.706 182.877 333.706 185.661C333.706 188.446 335.852 190.689 338.516 190.689C341.18 190.689 343.326 188.446 343.326 185.661Z" fill="url(#paint18_linear_441_12431)"/>
<path d="M298.221 120.392C296.348 118.435 293.304 118.435 291.432 120.392C289.559 122.349 289.559 125.532 291.432 127.489C293.304 129.446 296.348 129.446 298.221 127.489C300.093 125.532 300.093 122.349 298.221 120.392Z" fill="url(#paint19_linear_441_12431)"/>
<path d="M320.416 97.2089C318.544 95.2518 315.499 95.2518 313.627 97.2089C311.755 99.166 311.755 102.348 313.627 104.305C315.499 106.263 318.544 106.263 320.416 104.305C322.288 102.348 322.288 99.166 320.416 97.2089Z" fill="url(#paint20_linear_441_12431)"/>
<path d="M434.522 85.3546C432.649 83.3974 429.605 83.3974 427.732 85.3546C425.86 87.3117 425.86 90.494 427.732 92.4511C429.605 94.4082 432.649 94.4082 434.522 92.4511C436.394 90.494 436.394 87.3117 434.522 85.3546Z" fill="url(#paint21_linear_441_12431)"/>
<path d="M456.717 62.1554C454.845 60.1983 451.8 60.1983 449.928 62.1554C448.055 64.1125 448.055 67.2949 449.928 69.252C451.8 71.2091 454.845 71.2091 456.717 69.252C458.589 67.2949 458.589 64.1125 456.717 62.1554Z" fill="url(#paint22_linear_441_12431)"/>
<path d="M248.98 184.866L338.532 184.866C338.958 184.866 339.293 185.216 339.293 185.661C339.293 186.107 338.958 186.457 338.532 186.457L248.98 186.457C248.554 186.457 248.219 186.107 248.219 185.661C248.219 185.216 248.554 184.866 248.98 184.866Z" fill="url(#paint23_linear_441_12431)"/>
<path d="M453.276 60.6758C450.619 60.6758 448.466 62.9269 448.466 65.7039C448.466 68.4808 450.619 70.7319 453.276 70.7319C455.932 70.7319 458.086 68.4808 458.086 65.7039C458.086 62.9269 455.932 60.6758 453.276 60.6758Z" fill="url(#paint24_linear_441_12431)"/>
<path d="M431.13 88.1073C431.327 88.1073 431.525 88.1868 431.662 88.3459C431.967 88.6642 431.967 89.1574 431.662 89.4757L372.631 151.181C372.326 151.499 371.855 151.499 371.55 151.181C371.246 150.863 371.246 150.369 371.55 150.051L430.582 88.3459C430.734 88.1868 430.932 88.1073 431.114 88.1073L431.13 88.1073Z" fill="url(#paint25_linear_441_12431)"/>
<path d="M152.973 64.9083L248.979 64.9084C249.405 64.9084 249.74 65.2584 249.74 65.7039C249.74 66.1495 249.405 66.4995 248.979 66.4995L152.973 66.4995C152.547 66.4995 152.212 66.1494 152.212 65.7039C152.212 65.2584 152.547 64.9083 152.973 64.9083Z" fill="url(#paint26_linear_441_12431)"/>
<path d="M409.315 35.1696L523.846 35.1696C524.273 35.1696 524.607 35.5196 524.607 35.9652C524.607 36.4107 524.273 36.7607 523.846 36.7607L409.315 36.7607C408.889 36.7607 408.554 36.4107 408.554 35.9652C408.554 35.5196 408.889 35.1696 409.315 35.1696Z" fill="url(#paint27_linear_441_12431)"/>
<path d="M369.905 243.77L523.846 243.77C524.273 243.77 524.607 244.12 524.607 244.566C524.607 245.011 524.273 245.361 523.846 245.361L369.905 245.361C369.479 245.361 369.144 245.011 369.144 244.566C369.144 244.12 369.479 243.77 369.905 243.77Z" fill="url(#paint28_linear_441_12431)"/>
<path d="M369.905 184.866L523.846 184.866C524.273 184.866 524.607 185.216 524.607 185.661C524.607 186.107 524.273 186.457 523.846 186.457L369.905 186.457C369.479 186.457 369.144 186.107 369.144 185.661C369.144 185.216 369.479 184.866 369.905 184.866Z" fill="url(#paint29_linear_441_12431)"/>
<path d="M140.4 302.675C140.598 302.675 140.795 302.755 140.932 302.914L199.629 364.269L294.95 364.269C295.376 364.269 295.711 364.619 295.711 365.064C295.711 365.51 295.376 365.86 294.95 365.86L199.324 365.86C199.127 365.86 198.929 365.78 198.792 365.621L139.882 304.043C139.578 303.725 139.578 303.232 139.882 302.914C140.034 302.755 140.232 302.675 140.415 302.675L140.4 302.675Z" fill="url(#paint30_linear_441_12431)"/>
<path d="M317.008 387.563C317.205 387.563 317.403 387.643 317.54 387.802L350.846 422.616L453.276 422.616C453.702 422.616 454.037 422.966 454.037 423.412C454.037 423.857 453.702 424.208 453.276 424.208L350.542 424.208C350.344 424.208 350.146 424.128 350.009 423.969L316.475 388.916C316.17 388.597 316.17 388.104 316.475 387.786C316.627 387.627 316.825 387.547 317.008 387.547L317.008 387.563Z" fill="url(#paint31_linear_441_12431)"/>
<path d="M275.208 452.355L377.942 452.355C378.368 452.355 378.703 452.705 378.703 453.151C378.703 453.596 378.368 453.946 377.942 453.946L275.528 453.946L242.222 488.761C241.917 489.079 241.445 489.079 241.141 488.761C240.836 488.443 240.836 487.949 241.141 487.631L274.675 452.578C274.812 452.435 275.01 452.339 275.208 452.339L275.208 452.355Z" fill="url(#paint32_linear_441_12431)"/>
<path d="M286.275 302.675C286.473 302.675 286.67 302.755 286.807 302.914L320.113 337.728L523.846 337.728C524.273 337.728 524.607 338.078 524.607 338.524C524.607 338.969 524.273 339.319 523.846 339.319L319.809 339.319C319.611 339.319 319.413 339.24 319.276 339.081L285.742 304.027C285.437 303.709 285.437 303.216 285.742 302.898C285.894 302.739 286.092 302.659 286.275 302.659L286.275 302.675Z" fill="url(#paint33_linear_441_12431)"/>
<path d="M299.625 365.176C299.625 367.944 297.479 370.204 294.815 370.204C292.151 370.204 290.005 367.96 290.005 365.176C290.005 362.391 292.151 360.147 294.815 360.147C297.479 360.147 299.625 362.391 299.625 365.176Z" fill="url(#paint34_linear_441_12431)"/>
<path d="M222.402 303.47C222.402 306.239 220.256 308.499 217.592 308.499C214.928 308.499 212.782 306.255 212.782 303.47C212.782 300.686 214.928 298.442 217.592 298.442C220.256 298.442 222.402 300.686 222.402 303.47Z" fill="url(#paint35_linear_441_12431)"/>
<path d="M253.775 423.412C253.775 426.181 251.629 428.44 248.965 428.44C246.301 428.44 244.155 426.197 244.155 423.412C244.155 420.628 246.301 418.384 248.965 418.384C251.629 418.384 253.775 420.628 253.775 423.412Z" fill="url(#paint36_linear_441_12431)"/>
<path d="M382.738 453.151C382.738 455.919 380.592 458.179 377.928 458.179C375.264 458.179 373.118 455.935 373.118 453.151C373.118 450.366 375.264 448.123 377.928 448.123C380.592 448.123 382.738 450.366 382.738 453.151Z" fill="url(#paint37_linear_441_12431)"/>
<path d="M253.775 303.47C253.775 306.239 251.629 308.499 248.965 308.499C246.301 308.499 244.155 306.255 244.155 303.47C244.155 300.686 246.301 298.442 248.965 298.442C251.629 298.442 253.775 300.686 253.775 303.47Z" fill="url(#paint38_linear_441_12431)"/>
<path d="M374.699 303.47C374.699 306.239 372.553 308.499 369.889 308.499C367.225 308.499 365.079 306.255 365.079 303.47C365.079 300.686 367.225 298.442 369.889 298.442C372.553 298.442 374.699 300.686 374.699 303.47Z" fill="url(#paint39_linear_441_12431)"/>
<path d="M414.125 453.151C414.125 455.919 411.979 458.179 409.315 458.179C406.651 458.179 404.505 455.935 404.505 453.151C404.505 450.366 406.651 448.123 409.315 448.123C411.979 448.123 414.125 450.366 414.125 453.151Z" fill="url(#paint40_linear_441_12431)"/>
<path d="M343.326 303.47C343.326 306.239 341.18 308.499 338.516 308.499C335.852 308.499 333.706 306.255 333.706 303.47C333.706 300.686 335.852 298.442 338.516 298.442C341.18 298.442 343.326 300.686 343.326 303.47Z" fill="url(#paint41_linear_441_12431)"/>
<path d="M298.221 368.724C296.348 370.681 293.304 370.681 291.432 368.724C289.559 366.767 289.559 363.585 291.432 361.628C293.304 359.671 296.348 359.671 298.221 361.628C300.093 363.585 300.093 366.767 298.221 368.724Z" fill="url(#paint42_linear_441_12431)"/>
<path d="M320.416 391.923C318.544 393.88 315.499 393.88 313.627 391.923C311.755 389.966 311.755 386.784 313.627 384.827C315.499 382.87 318.544 382.87 320.416 384.827C322.288 386.784 322.288 389.966 320.416 391.923Z" fill="url(#paint43_linear_441_12431)"/>
<path d="M434.522 403.777C432.649 405.734 429.605 405.734 427.732 403.777C425.86 401.82 425.86 398.638 427.732 396.681C429.605 394.724 432.649 394.724 434.522 396.681C436.394 398.638 436.394 401.82 434.522 403.777Z" fill="url(#paint44_linear_441_12431)"/>
<path d="M456.717 426.96C454.845 428.918 451.8 428.918 449.928 426.96C448.055 425.003 448.055 421.821 449.928 419.864C451.8 417.907 454.845 417.907 456.717 419.864C458.589 421.821 458.589 425.003 456.717 426.96Z" fill="url(#paint45_linear_441_12431)"/>
<path d="M248.98 302.675L338.532 302.675C338.958 302.675 339.293 303.025 339.293 303.471C339.293 303.916 338.958 304.266 338.532 304.266L248.98 304.266C248.554 304.266 248.219 303.916 248.219 303.471C248.219 303.025 248.554 302.675 248.98 302.675Z" fill="url(#paint46_linear_441_12431)"/>
<path d="M453.276 418.384C450.619 418.384 448.466 420.635 448.466 423.412C448.466 426.189 450.619 428.44 453.276 428.44C455.932 428.44 458.086 426.189 458.086 423.412C458.086 420.635 455.932 418.384 453.276 418.384Z" fill="url(#paint47_linear_441_12431)"/>
<path d="M372.098 337.728C372.296 337.728 372.494 337.808 372.631 337.967L431.662 399.672C431.967 399.99 431.967 400.484 431.662 400.802C431.358 401.12 430.886 401.12 430.582 400.802L371.55 339.097C371.246 338.779 371.246 338.285 371.55 337.967C371.702 337.808 371.9 337.728 372.083 337.728L372.098 337.728Z" fill="url(#paint48_linear_441_12431)"/>
<path d="M152.973 422.616L248.979 422.616C249.405 422.616 249.74 422.966 249.74 423.412C249.74 423.857 249.405 424.208 248.979 424.208L152.973 424.208C152.547 424.208 152.212 423.857 152.212 423.412C152.212 422.966 152.547 422.616 152.973 422.616Z" fill="url(#paint49_linear_441_12431)"/>
<path d="M409.315 452.355L523.846 452.355C524.273 452.355 524.607 452.705 524.607 453.151C524.607 453.596 524.273 453.946 523.846 453.946L409.315 453.946C408.889 453.946 408.554 453.596 408.554 453.151C408.554 452.705 408.889 452.355 409.315 452.355Z" fill="url(#paint50_linear_441_12431)"/>
<path d="M369.905 302.675L523.846 302.675C524.273 302.675 524.607 303.025 524.607 303.471C524.607 303.916 524.273 304.266 523.846 304.266L369.905 304.266C369.479 304.266 369.144 303.916 369.144 303.471C369.144 303.025 369.479 302.675 369.905 302.675Z" fill="url(#paint51_linear_441_12431)"/>
<path d="M37.5445 243.77L338.516 243.77C338.942 243.77 339.277 244.12 339.277 244.566C339.277 245.011 338.942 245.361 338.516 245.361L37.5292 245.361C37.103 245.361 36.7681 245.011 36.7681 244.566C36.7681 244.12 37.103 243.77 37.5292 243.77L37.5445 243.77Z" fill="url(#paint52_linear_441_12431)"/>
<path d="M30.3292 184.866L217.714 184.866C218.14 184.866 218.475 185.216 218.475 185.661C218.475 186.107 218.14 186.457 217.714 186.457L30.3292 186.457C29.903 186.457 29.5681 186.107 29.5681 185.661C29.5681 185.216 29.903 184.866 30.3292 184.866Z" fill="url(#paint53_linear_441_12431)"/>
<path d="M214.959 0.116525L523.846 0.116554C524.273 0.116554 524.607 0.466606 524.607 0.912132C524.607 1.35765 524.273 1.70771 523.846 1.70771L215.263 1.70768L97.7792 124.513C97.6422 124.656 97.4443 124.752 97.2464 124.752L5.28955 124.752C4.86334 124.752 4.52844 124.402 4.52844 123.956C4.52844 123.511 4.86334 123.161 5.28955 123.161L96.9268 123.161L214.411 0.355188C214.548 0.211984 214.746 0.116525 214.944 0.116525L214.959 0.116525Z" fill="url(#paint54_linear_441_12431)"/>
<path d="M30.3292 302.675L217.714 302.675C218.14 302.675 218.475 303.025 218.475 303.471C218.475 303.916 218.14 304.266 217.714 304.266L30.3292 304.266C29.903 304.266 29.5681 303.916 29.5681 303.471C29.5681 303.025 29.903 302.675 30.3292 302.675Z" fill="url(#paint55_linear_441_12431)"/>
<path d="M5.30476 364.38L97.2616 364.38C97.4595 364.38 97.6574 364.46 97.7944 364.619L215.263 487.408L523.846 487.408C524.273 487.408 524.607 487.758 524.607 488.204C524.607 488.649 524.273 489 523.846 489L214.959 488.999C214.761 488.999 214.563 488.92 214.426 488.761L96.9419 365.955L5.30476 365.955C4.87855 365.955 4.54365 365.605 4.54365 365.16C4.54365 364.714 4.87855 364.364 5.30476 364.364L5.30476 364.38Z" fill="url(#paint56_linear_441_12431)"/>
<defs>
<linearGradient id="paint0_linear_441_12431" x1="25.4913" y1="185.26" x2="35.1663" y2="185.26" gradientUnits="userSpaceOnUse">
<stop stop-color="#FF5C00"/>
<stop offset="1" stop-color="#FF5C00" stop-opacity="0"/>
</linearGradient>
<linearGradient id="paint1_linear_441_12431" x1="25.4913" y1="303.069" x2="35.1663" y2="303.069" gradientUnits="userSpaceOnUse">
<stop stop-color="#FF5C00"/>
<stop offset="1" stop-color="#FF5C00" stop-opacity="0"/>
</linearGradient>
<linearGradient id="paint2_linear_441_12431" x1="0.45227" y1="364.774" x2="10.1273" y2="364.774" gradientUnits="userSpaceOnUse">
<stop stop-color="#FF5C00"/>
<stop offset="1" stop-color="#FF5C00" stop-opacity="0"/>
</linearGradient>
<linearGradient id="paint3_linear_441_12431" x1="0.45227" y1="123.555" x2="10.1273" y2="123.555" gradientUnits="userSpaceOnUse">
<stop stop-color="#FF5C00"/>
<stop offset="1" stop-color="#FF5C00" stop-opacity="0"/>
</linearGradient>
<linearGradient id="paint4_linear_441_12431" x1="32.6925" y1="244.164" x2="42.3675" y2="244.164" gradientUnits="userSpaceOnUse">
<stop stop-color="#FF5C00"/>
<stop offset="1" stop-color="#FF5C00" stop-opacity="0"/>
</linearGradient>
<linearGradient id="paint5_linear_441_12431" x1="139.172" y1="152.341" x2="296.146" y2="152.341" gradientUnits="userSpaceOnUse">
<stop stop-color="#FF5C00"/>
<stop offset="1" stop-color="#FF5C00" stop-opacity="0"/>
</linearGradient>
<linearGradient id="paint6_linear_441_12431" x1="315.861" y1="81.7587" x2="454.433" y2="81.7587" gradientUnits="userSpaceOnUse">
<stop stop-color="#FF5C00"/>
<stop offset="1" stop-color="#FF5C00" stop-opacity="0"/>
</linearGradient>
<linearGradient id="paint7_linear_441_12431" x1="240.511" y1="16.9667" x2="379.084" y2="16.9667" gradientUnits="userSpaceOnUse">
<stop stop-color="#FF5C00"/>
<stop offset="1" stop-color="#FF5C00" stop-opacity="0"/>
</linearGradient>
<linearGradient id="paint8_linear_441_12431" x1="284.844" y1="166.663" x2="525.295" y2="166.663" gradientUnits="userSpaceOnUse">
<stop stop-color="#FF5C00"/>
<stop offset="1" stop-color="#FF5C00" stop-opacity="0"/>
</linearGradient>
<linearGradient id="paint9_linear_441_12431" x1="289.978" y1="123.555" x2="299.653" y2="123.555" gradientUnits="userSpaceOnUse">
<stop stop-color="#FF5C00"/>
<stop offset="1" stop-color="#FF5C00" stop-opacity="0"/>
</linearGradient>
<linearGradient id="paint10_linear_441_12431" x1="212.755" y1="185.26" x2="222.43" y2="185.26" gradientUnits="userSpaceOnUse">
<stop stop-color="#FF5C00"/>
<stop offset="1" stop-color="#FF5C00" stop-opacity="0"/>
</linearGradient>
<linearGradient id="paint11_linear_441_12431" x1="244.128" y1="65.3023" x2="253.803" y2="65.3023" gradientUnits="userSpaceOnUse">
<stop stop-color="#FF5C00"/>
<stop offset="1" stop-color="#FF5C00" stop-opacity="0"/>
</linearGradient>
<linearGradient id="paint12_linear_441_12431" x1="373.089" y1="35.5635" x2="382.764" y2="35.5635" gradientUnits="userSpaceOnUse">
<stop stop-color="#FF5C00"/>
<stop offset="1" stop-color="#FF5C00" stop-opacity="0"/>
</linearGradient>
<linearGradient id="paint13_linear_441_12431" x1="244.128" y1="185.26" x2="253.803" y2="185.26" gradientUnits="userSpaceOnUse">
<stop stop-color="#FF5C00"/>
<stop offset="1" stop-color="#FF5C00" stop-opacity="0"/>
</linearGradient>
<linearGradient id="paint14_linear_441_12431" x1="333.679" y1="244.165" x2="343.354" y2="244.165" gradientUnits="userSpaceOnUse">
<stop stop-color="#FF5C00"/>
<stop offset="1" stop-color="#FF5C00" stop-opacity="0"/>
</linearGradient>
<linearGradient id="paint15_linear_441_12431" x1="365.052" y1="244.165" x2="374.727" y2="244.165" gradientUnits="userSpaceOnUse">
<stop stop-color="#FF5C00"/>
<stop offset="1" stop-color="#FF5C00" stop-opacity="0"/>
</linearGradient>
<linearGradient id="paint16_linear_441_12431" x1="365.052" y1="185.26" x2="374.727" y2="185.26" gradientUnits="userSpaceOnUse">
<stop stop-color="#FF5C00"/>
<stop offset="1" stop-color="#FF5C00" stop-opacity="0"/>
</linearGradient>
<linearGradient id="paint17_linear_441_12431" x1="404.478" y1="35.5635" x2="414.153" y2="35.5635" gradientUnits="userSpaceOnUse">
<stop stop-color="#FF5C00"/>
<stop offset="1" stop-color="#FF5C00" stop-opacity="0"/>
</linearGradient>
<linearGradient id="paint18_linear_441_12431" x1="333.679" y1="185.26" x2="343.354" y2="185.26" gradientUnits="userSpaceOnUse">
<stop stop-color="#FF5C00"/>
<stop offset="1" stop-color="#FF5C00" stop-opacity="0"/>
</linearGradient>
<linearGradient id="paint19_linear_441_12431" x1="290.001" y1="123.54" x2="299.653" y2="123.54" gradientUnits="userSpaceOnUse">
<stop stop-color="#FF5C00"/>
<stop offset="1" stop-color="#FF5C00" stop-opacity="0"/>
</linearGradient>
<linearGradient id="paint20_linear_441_12431" x1="312.196" y1="100.357" x2="321.848" y2="100.357" gradientUnits="userSpaceOnUse">
<stop stop-color="#FF5C00"/>
<stop offset="1" stop-color="#FF5C00" stop-opacity="0"/>
</linearGradient>
<linearGradient id="paint21_linear_441_12431" x1="426.301" y1="88.5022" x2="435.953" y2="88.5022" gradientUnits="userSpaceOnUse">
<stop stop-color="#FF5C00"/>
<stop offset="1" stop-color="#FF5C00" stop-opacity="0"/>
</linearGradient>
<linearGradient id="paint22_linear_441_12431" x1="448.497" y1="65.3031" x2="458.149" y2="65.3031" gradientUnits="userSpaceOnUse">
<stop stop-color="#FF5C00"/>
<stop offset="1" stop-color="#FF5C00" stop-opacity="0"/>
</linearGradient>
<linearGradient id="paint23_linear_441_12431" x1="247.964" y1="185.598" x2="339.555" y2="185.598" gradientUnits="userSpaceOnUse">
<stop stop-color="#FF5C00"/>
<stop offset="1" stop-color="#FF5C00" stop-opacity="0"/>
</linearGradient>
<linearGradient id="paint24_linear_441_12431" x1="448.439" y1="65.3023" x2="458.114" y2="65.3023" gradientUnits="userSpaceOnUse">
<stop stop-color="#FF5C00"/>
<stop offset="1" stop-color="#FF5C00" stop-opacity="0"/>
</linearGradient>
<linearGradient id="paint25_linear_441_12431" x1="371.152" y1="117.235" x2="432.065" y2="117.235" gradientUnits="userSpaceOnUse">
<stop stop-color="#FF5C00"/>
<stop offset="1" stop-color="#FF5C00" stop-opacity="0"/>
</linearGradient>
<linearGradient id="paint26_linear_441_12431" x1="151.939" y1="65.6404" x2="250.021" y2="65.6405" gradientUnits="userSpaceOnUse">
<stop stop-color="#FF5C00"/>
<stop offset="1" stop-color="#FF5C00" stop-opacity="0"/>
</linearGradient>
<linearGradient id="paint27_linear_441_12431" x1="408.229" y1="35.9016" x2="524.941" y2="35.9017" gradientUnits="userSpaceOnUse">
<stop stop-color="#FF5C00"/>
<stop offset="1" stop-color="#FF5C00" stop-opacity="0"/>
</linearGradient>
<linearGradient id="paint28_linear_441_12431" x1="368.708" y1="244.502" x2="525.054" y2="244.502" gradientUnits="userSpaceOnUse">
<stop stop-color="#FF5C00"/>
<stop offset="1" stop-color="#FF5C00" stop-opacity="0"/>
</linearGradient>
<linearGradient id="paint29_linear_441_12431" x1="368.708" y1="185.598" x2="525.054" y2="185.598" gradientUnits="userSpaceOnUse">
<stop stop-color="#FF5C00"/>
<stop offset="1" stop-color="#FF5C00" stop-opacity="0"/>
</linearGradient>
<linearGradient id="paint30_linear_441_12431" x1="139.217" y1="331.744" x2="296.159" y2="331.744" gradientUnits="userSpaceOnUse">
<stop stop-color="#FF5C00"/>
<stop offset="1" stop-color="#FF5C00" stop-opacity="0"/>
</linearGradient>
<linearGradient id="paint31_linear_441_12431" x1="315.861" y1="404.413" x2="454.433" y2="404.413" gradientUnits="userSpaceOnUse">
<stop stop-color="#FF5C00"/>
<stop offset="1" stop-color="#FF5C00" stop-opacity="0"/>
</linearGradient>
<linearGradient id="paint32_linear_441_12431" x1="240.527" y1="469.205" x2="379.099" y2="469.205" gradientUnits="userSpaceOnUse">
<stop stop-color="#FF5C00"/>
<stop offset="1" stop-color="#FF5C00" stop-opacity="0"/>
</linearGradient>
<linearGradient id="paint33_linear_441_12431" x1="284.844" y1="319.525" x2="525.295" y2="319.525" gradientUnits="userSpaceOnUse">
<stop stop-color="#FF5C00"/>
<stop offset="1" stop-color="#FF5C00" stop-opacity="0"/>
</linearGradient>
<linearGradient id="paint34_linear_441_12431" x1="289.978" y1="364.774" x2="299.653" y2="364.774" gradientUnits="userSpaceOnUse">
<stop stop-color="#FF5C00"/>
<stop offset="1" stop-color="#FF5C00" stop-opacity="0"/>
</linearGradient>
<linearGradient id="paint35_linear_441_12431" x1="212.755" y1="303.069" x2="222.43" y2="303.069" gradientUnits="userSpaceOnUse">
<stop stop-color="#FF5C00"/>
<stop offset="1" stop-color="#FF5C00" stop-opacity="0"/>
</linearGradient>
<linearGradient id="paint36_linear_441_12431" x1="244.128" y1="423.011" x2="253.803" y2="423.011" gradientUnits="userSpaceOnUse">
<stop stop-color="#FF5C00"/>
<stop offset="1" stop-color="#FF5C00" stop-opacity="0"/>
</linearGradient>
<linearGradient id="paint37_linear_441_12431" x1="373.091" y1="452.749" x2="382.766" y2="452.749" gradientUnits="userSpaceOnUse">
<stop stop-color="#FF5C00"/>
<stop offset="1" stop-color="#FF5C00" stop-opacity="0"/>
</linearGradient>
<linearGradient id="paint38_linear_441_12431" x1="244.128" y1="303.069" x2="253.803" y2="303.069" gradientUnits="userSpaceOnUse">
<stop stop-color="#FF5C00"/>
<stop offset="1" stop-color="#FF5C00" stop-opacity="0"/>
</linearGradient>
<linearGradient id="paint39_linear_441_12431" x1="365.052" y1="303.069" x2="374.727" y2="303.069" gradientUnits="userSpaceOnUse">
<stop stop-color="#FF5C00"/>
<stop offset="1" stop-color="#FF5C00" stop-opacity="0"/>
</linearGradient>
<linearGradient id="paint40_linear_441_12431" x1="404.478" y1="452.749" x2="414.153" y2="452.749" gradientUnits="userSpaceOnUse">
<stop stop-color="#FF5C00"/>
<stop offset="1" stop-color="#FF5C00" stop-opacity="0"/>
</linearGradient>
<linearGradient id="paint41_linear_441_12431" x1="333.679" y1="303.069" x2="343.354" y2="303.069" gradientUnits="userSpaceOnUse">
<stop stop-color="#FF5C00"/>
<stop offset="1" stop-color="#FF5C00" stop-opacity="0"/>
</linearGradient>
<linearGradient id="paint42_linear_441_12431" x1="290.001" y1="364.775" x2="299.653" y2="364.775" gradientUnits="userSpaceOnUse">
<stop stop-color="#FF5C00"/>
<stop offset="1" stop-color="#FF5C00" stop-opacity="0"/>
</linearGradient>
<linearGradient id="paint43_linear_441_12431" x1="312.196" y1="387.974" x2="321.848" y2="387.974" gradientUnits="userSpaceOnUse">
<stop stop-color="#FF5C00"/>
<stop offset="1" stop-color="#FF5C00" stop-opacity="0"/>
</linearGradient>
<linearGradient id="paint44_linear_441_12431" x1="426.301" y1="399.828" x2="435.953" y2="399.828" gradientUnits="userSpaceOnUse">
<stop stop-color="#FF5C00"/>
<stop offset="1" stop-color="#FF5C00" stop-opacity="0"/>
</linearGradient>
<linearGradient id="paint45_linear_441_12431" x1="448.497" y1="423.011" x2="458.149" y2="423.011" gradientUnits="userSpaceOnUse">
<stop stop-color="#FF5C00"/>
<stop offset="1" stop-color="#FF5C00" stop-opacity="0"/>
</linearGradient>
<linearGradient id="paint46_linear_441_12431" x1="247.964" y1="303.407" x2="339.555" y2="303.407" gradientUnits="userSpaceOnUse">
<stop stop-color="#FF5C00"/>
<stop offset="1" stop-color="#FF5C00" stop-opacity="0"/>
</linearGradient>
<linearGradient id="paint47_linear_441_12431" x1="448.439" y1="423.011" x2="458.114" y2="423.011" gradientUnits="userSpaceOnUse">
<stop stop-color="#FF5C00"/>
<stop offset="1" stop-color="#FF5C00" stop-opacity="0"/>
</linearGradient>
<linearGradient id="paint48_linear_441_12431" x1="371.152" y1="366.856" x2="432.065" y2="366.856" gradientUnits="userSpaceOnUse">
<stop stop-color="#FF5C00"/>
<stop offset="1" stop-color="#FF5C00" stop-opacity="0"/>
</linearGradient>
<linearGradient id="paint49_linear_441_12431" x1="151.939" y1="423.348" x2="250.021" y2="423.348" gradientUnits="userSpaceOnUse">
<stop stop-color="#FF5C00"/>
<stop offset="1" stop-color="#FF5C00" stop-opacity="0"/>
</linearGradient>
<linearGradient id="paint50_linear_441_12431" x1="408.229" y1="453.087" x2="524.941" y2="453.087" gradientUnits="userSpaceOnUse">
<stop stop-color="#FF5C00"/>
<stop offset="1" stop-color="#FF5C00" stop-opacity="0"/>
</linearGradient>
<linearGradient id="paint51_linear_441_12431" x1="368.708" y1="303.407" x2="525.054" y2="303.407" gradientUnits="userSpaceOnUse">
<stop stop-color="#FF5C00"/>
<stop offset="1" stop-color="#FF5C00" stop-opacity="0"/>
</linearGradient>
<linearGradient id="paint52_linear_441_12431" x1="35.9207" y1="244.502" x2="340.147" y2="244.503" gradientUnits="userSpaceOnUse">
<stop stop-color="#FF5C00"/>
<stop offset="1" stop-color="#FF5C00" stop-opacity="0"/>
</linearGradient>
<linearGradient id="paint53_linear_441_12431" x1="29.0389" y1="185.598" x2="219.018" y2="185.598" gradientUnits="userSpaceOnUse">
<stop stop-color="#FF5C00"/>
<stop offset="1" stop-color="#FF5C00" stop-opacity="0"/>
</linearGradient>
<linearGradient id="paint54_linear_441_12431" x1="3.07164" y1="57.4573" x2="526.102" y2="57.4573" gradientUnits="userSpaceOnUse">
<stop stop-color="#FF5C00"/>
<stop offset="1" stop-color="#FF5C00" stop-opacity="0"/>
</linearGradient>
<linearGradient id="paint55_linear_441_12431" x1="29.0389" y1="303.407" x2="219.018" y2="303.407" gradientUnits="userSpaceOnUse">
<stop stop-color="#FF5C00"/>
<stop offset="1" stop-color="#FF5C00" stop-opacity="0"/>
</linearGradient>
<linearGradient id="paint56_linear_441_12431" x1="3.08688" y1="421.705" x2="526.102" y2="421.705" gradientUnits="userSpaceOnUse">
<stop stop-color="#FF5C00"/>
<stop offset="1" stop-color="#FF5C00" stop-opacity="0"/>
</linearGradient>
</defs>
</svg>
