<svg width="290" height="58" viewBox="0 0 290 58" fill="none" xmlns="http://www.w3.org/2000/svg">
<path d="M16.4516 29.95C16.4516 30.8833 16.2266 31.7583 15.7766 32.575C15.3433 33.3917 14.6516 34.05 13.7016 34.55C12.7683 35.05 11.5849 35.3 10.1516 35.3H7.22656V42H3.72656V24.55H10.1516C11.5016 24.55 12.6516 24.7833 13.6016 25.25C14.5516 25.7167 15.2599 26.3583 15.7266 27.175C16.2099 27.9917 16.4516 28.9167 16.4516 29.95ZM10.0016 32.475C10.9683 32.475 11.6849 32.2583 12.1516 31.825C12.6183 31.375 12.8516 30.75 12.8516 29.95C12.8516 28.25 11.9016 27.4 10.0016 27.4H7.22656V32.475H10.0016ZM22.4366 23.5V42H18.9366V23.5H22.4366ZM24.9946 35.025C24.9946 33.625 25.2696 32.3833 25.8196 31.3C26.3862 30.2167 27.1446 29.3833 28.0946 28.8C29.0612 28.2167 30.1362 27.925 31.3196 27.925C32.3529 27.925 33.2529 28.1333 34.0196 28.55C34.8029 28.9667 35.4279 29.4917 35.8946 30.125V28.15H39.4196V42H35.8946V39.975C35.4446 40.625 34.8196 41.1667 34.0196 41.6C33.2362 42.0167 32.3279 42.225 31.2946 42.225C30.1279 42.225 29.0612 41.925 28.0946 41.325C27.1446 40.725 26.3862 39.8833 25.8196 38.8C25.2696 37.7 24.9946 36.4417 24.9946 35.025ZM35.8946 35.075C35.8946 34.225 35.7279 33.5 35.3946 32.9C35.0612 32.2833 34.6112 31.8167 34.0446 31.5C33.4779 31.1667 32.8696 31 32.2196 31C31.5696 31 30.9696 31.1583 30.4196 31.475C29.8696 31.7917 29.4196 32.2583 29.0696 32.875C28.7362 33.475 28.5696 34.1917 28.5696 35.025C28.5696 35.8583 28.7362 36.5917 29.0696 37.225C29.4196 37.8417 29.8696 38.3167 30.4196 38.65C30.9862 38.9833 31.5862 39.15 32.2196 39.15C32.8696 39.15 33.4779 38.9917 34.0446 38.675C34.6112 38.3417 35.0612 37.875 35.3946 37.275C35.7279 36.6583 35.8946 35.925 35.8946 35.075ZM50.5129 27.95C52.1629 27.95 53.4963 28.475 54.5129 29.525C55.5296 30.5583 56.0379 32.0083 56.0379 33.875V42H52.5379V34.35C52.5379 33.25 52.2629 32.4083 51.7129 31.825C51.1629 31.225 50.4129 30.925 49.4629 30.925C48.4963 30.925 47.7296 31.225 47.1629 31.825C46.6129 32.4083 46.3379 33.25 46.3379 34.35V42H42.8379V28.15H46.3379V29.875C46.8046 29.275 47.3963 28.8083 48.1129 28.475C48.8463 28.125 49.6463 27.95 50.5129 27.95Z" fill="white"/>
<path d="M121.652 42H118.152L110.227 30.025V42H106.727V24.525H110.227L118.152 36.525V24.525H121.652V42ZM137.986 34.775C137.986 35.275 137.952 35.725 137.886 36.125H127.761C127.844 37.125 128.194 37.9083 128.811 38.475C129.427 39.0417 130.186 39.325 131.086 39.325C132.386 39.325 133.311 38.7667 133.861 37.65H137.636C137.236 38.9833 136.469 40.0833 135.336 40.95C134.202 41.8 132.811 42.225 131.161 42.225C129.827 42.225 128.627 41.9333 127.561 41.35C126.511 40.75 125.686 39.9083 125.086 38.825C124.502 37.7417 124.211 36.4917 124.211 35.075C124.211 33.6417 124.502 32.3833 125.086 31.3C125.669 30.2167 126.486 29.3833 127.536 28.8C128.586 28.2167 129.794 27.925 131.161 27.925C132.477 27.925 133.652 28.2083 134.686 28.775C135.736 29.3417 136.544 30.15 137.111 31.2C137.694 32.2333 137.986 33.425 137.986 34.775ZM134.361 33.775C134.344 32.875 134.019 32.1583 133.386 31.625C132.752 31.075 131.977 30.8 131.061 30.8C130.194 30.8 129.461 31.0667 128.861 31.6C128.277 32.1167 127.919 32.8417 127.786 33.775H134.361ZM144.615 31.025V37.725C144.615 38.1917 144.724 38.5333 144.94 38.75C145.174 38.95 145.557 39.05 146.09 39.05H147.715V42H145.515C142.565 42 141.09 40.5667 141.09 37.7V31.025H139.44V28.15H141.09V24.725H144.615V28.15H147.715V31.025H144.615ZM169.433 28.15L165.383 42H161.608L159.083 32.325L156.558 42H152.758L148.683 28.15H152.233L154.683 38.7L157.333 28.15H161.033L163.633 38.675L166.083 28.15H169.433ZM177.477 42.225C176.143 42.225 174.943 41.9333 173.877 41.35C172.81 40.75 171.968 39.9083 171.352 38.825C170.752 37.7417 170.452 36.4917 170.452 35.075C170.452 33.6583 170.76 32.4083 171.377 31.325C172.01 30.2417 172.868 29.4083 173.952 28.825C175.035 28.225 176.243 27.925 177.577 27.925C178.91 27.925 180.118 28.225 181.202 28.825C182.285 29.4083 183.135 30.2417 183.752 31.325C184.385 32.4083 184.702 33.6583 184.702 35.075C184.702 36.4917 184.377 37.7417 183.727 38.825C183.093 39.9083 182.227 40.75 181.127 41.35C180.043 41.9333 178.827 42.225 177.477 42.225ZM177.477 39.175C178.11 39.175 178.702 39.025 179.252 38.725C179.818 38.4083 180.268 37.9417 180.602 37.325C180.935 36.7083 181.102 35.9583 181.102 35.075C181.102 33.7583 180.752 32.75 180.052 32.05C179.368 31.3333 178.527 30.975 177.527 30.975C176.527 30.975 175.685 31.3333 175.002 32.05C174.335 32.75 174.002 33.7583 174.002 35.075C174.002 36.3917 174.327 37.4083 174.977 38.125C175.643 38.825 176.477 39.175 177.477 39.175ZM190.769 30.3C191.219 29.5667 191.802 28.9917 192.519 28.575C193.252 28.1583 194.086 27.95 195.019 27.95V31.625H194.094C192.994 31.625 192.161 31.8833 191.594 32.4C191.044 32.9167 190.769 33.8167 190.769 35.1V42H187.269V28.15H190.769V30.3ZM205.576 42L200.876 36.1V42H197.376V23.5H200.876V34.025L205.526 28.15H210.076L203.976 35.1L210.126 42H205.576Z" fill="white"/>
<path d="M94.3779 8.28979L78.5383 3.60139C78.3958 3.55882 78.2431 3.56117 78.0969 3.60903C78.0969 3.60903 62.4345 8.75984 62.4062 8.7692C61.7326 8.99203 61.7496 9.97756 62.429 10.1798L78.2659 14.8665C78.4112 14.9107 78.5628 14.9039 78.7073 14.8589L93.4455 10.014L93.5383 16.2639C92.4081 16.6042 91.5865 17.6506 91.6038 18.8859L91.6158 19.6605C90.7007 18.6564 89.4393 17.9498 87.9424 17.4639C88.0605 17.3311 88.1304 17.156 88.126 16.9662L88.0706 13.3321L79.1671 16.2629C78.7486 16.4016 78.2667 16.4168 77.8451 16.2853L68.8551 13.6221L68.9041 16.81L64.35 16.815L64.3575 21.0382C64.3575 21.0382 67.2863 20.9538 67.2316 21.0474C68.8272 21.0541 69.3679 21.9551 69.4991 22.8017L69.4956 30.2183C69.5689 30.2002 69.7382 30.2362 69.9057 30.275C69.7568 30.3117 69.6626 30.2548 69.5137 30.2916L69.462 40.7505C69.4244 41.2382 69.0621 42.044 67.9556 42.0791C67.9742 42.1546 65.0815 42.0699 65.0815 42.0699L64.2607 46.8158L69.4444 46.811C70.4026 46.8148 71.3608 46.8186 72.3185 46.8201L72.2786 53.4493L76.2615 53.4227L76.2445 46.8878C77.3719 46.9276 78.4035 46.9133 79.4389 46.8957L79.4559 53.4306L83.4388 53.4041L83.4787 46.775C90.167 46.3987 94.8699 44.7617 95.4706 38.4748C95.9731 33.4046 93.5768 31.1283 89.7677 30.2354C92.0807 28.9456 93.5529 26.829 93.1876 23.4104C93.1613 23.1129 93.1172 22.8293 93.062 22.5578L96.341 22.5071C96.7474 22.501 97.0749 22.1657 97.0684 21.7572L97.0253 18.8035C97.0058 17.5688 96.1568 16.546 95.0157 16.2409L94.9082 8.986C94.9031 8.67858 94.6764 8.37164 94.3802 8.28924L94.3779 8.28979ZM87.6578 37.5334C87.6814 42.4714 79.1546 41.8665 76.5236 41.8774L76.5118 33.1096C79.1429 33.0987 87.6538 32.3502 87.6578 37.5334ZM85.7973 25.1547C85.7851 29.6232 78.7232 29.135 76.4864 29.1288L76.511 21.1484C78.7484 21.1569 85.8296 20.4433 85.7973 25.1547Z" fill="#F39324"/>
</svg>
