<svg width="381" height="260" viewBox="0 0 381 260" fill="none" xmlns="http://www.w3.org/2000/svg">
<path d="M368.147 203.384C342.082 245.211 283.137 253.472 249.759 258.153C231.585 260.71 208.606 259.857 162.635 258.153C112.252 256.291 93.6191 252.475 80.5145 249.027C52.6114 241.684 28.6738 235.39 13.4025 214.49C1.16454 197.746 0.560519 179.98 0.0615451 163.681C-1.13337 124.175 15.3722 93.8736 23.4083 81.1288C50.0771 38.8298 89.6536 21.5351 101.773 16.4346C135.927 2.06394 165.681 1.98527 182.568 2.10327C210.55 2.31306 298.093 2.94244 347.308 66.4434C372.414 98.843 396.063 158.594 368.147 203.384Z" fill="#1A263D"/>
<path d="M288.74 71.5039H286.561C286.43 71.5039 286.324 71.6096 286.324 71.7399V86.2286C286.324 86.3589 286.43 86.4646 286.561 86.4646H288.74C288.871 86.4646 288.977 86.3589 288.977 86.2286V71.7399C288.977 71.6096 288.871 71.5039 288.74 71.5039Z" fill="#A02A36"/>
<path d="M320.205 71.0312H318.025C317.895 71.0312 317.789 71.1369 317.789 71.2673V86.228C317.789 86.3583 317.895 86.464 318.025 86.464H320.205C320.336 86.464 320.442 86.3583 320.442 86.228V71.2673C320.442 71.1369 320.336 71.0312 320.205 71.0312Z" fill="#1D251A"/>
<path d="M317.647 72.9062H315.467C315.336 72.9062 315.23 73.0119 315.23 73.1423V86.228C315.23 86.3583 315.336 86.464 315.467 86.464H317.647C317.777 86.464 317.883 86.3583 317.883 86.228V73.1423C317.883 73.0119 317.777 72.9062 317.647 72.9062Z" fill="#26516B"/>
<path d="M314.994 71.5039H312.814C312.684 71.5039 312.578 71.6096 312.578 71.7399V86.2286C312.578 86.3589 312.684 86.4646 312.814 86.4646H314.994C315.125 86.4646 315.231 86.3589 315.231 86.2286V71.7399C315.231 71.6096 315.125 71.5039 314.994 71.5039Z" fill="#03996E"/>
<path d="M312.338 70.5742H310.158C310.028 70.5742 309.922 70.6799 309.922 70.8102V86.2298C309.922 86.3602 310.028 86.4659 310.158 86.4659H312.338C312.468 86.4659 312.574 86.3602 312.574 86.2298V70.8102C312.574 70.6799 312.468 70.5742 312.338 70.5742Z" fill="#29275D"/>
<path d="M309.701 73.8379H307.522C307.391 73.8379 307.285 73.9436 307.285 74.0739V86.2155C307.285 86.3459 307.391 86.4516 307.522 86.4516H309.701C309.832 86.4516 309.938 86.3459 309.938 86.2155V74.0739C309.938 73.9436 309.832 73.8379 309.701 73.8379Z" fill="#A02A36"/>
<path d="M307.088 71.0312H304.908C304.778 71.0312 304.672 71.1369 304.672 71.2673V86.228C304.672 86.3583 304.778 86.464 304.908 86.464H307.088C307.218 86.464 307.324 86.3583 307.324 86.228V71.2673C307.324 71.1369 307.218 71.0312 307.088 71.0312Z" fill="#1D251A"/>
<path d="M304.529 72.9062H302.35C302.219 72.9062 302.113 73.0119 302.113 73.1423V86.228C302.113 86.3583 302.219 86.464 302.35 86.464H304.529C304.66 86.464 304.766 86.3583 304.766 86.228V73.1423C304.766 73.0119 304.66 72.9062 304.529 72.9062Z" fill="#1B253C"/>
<path d="M301.865 71.5039H299.686C299.555 71.5039 299.449 71.6096 299.449 71.7399V86.2286C299.449 86.3589 299.555 86.4646 299.686 86.4646H301.865C301.996 86.4646 302.102 86.3589 302.102 86.2286V71.7399C302.102 71.6096 301.996 71.5039 301.865 71.5039Z" fill="#0C9B94"/>
<path d="M299.225 70.5742H297.045C296.914 70.5742 296.809 70.6799 296.809 70.8102V86.2298C296.809 86.3602 296.914 86.4659 297.045 86.4659H299.225C299.355 86.4659 299.461 86.3602 299.461 86.2298V70.8102C299.461 70.6799 299.355 70.5742 299.225 70.5742Z" fill="#26516B"/>
<path d="M296.568 73.8379H294.389C294.258 73.8379 294.152 73.9436 294.152 74.0739V86.2155C294.152 86.3459 294.258 86.4516 294.389 86.4516H296.568C296.699 86.4516 296.805 86.3459 296.805 86.2155V74.0739C296.805 73.9436 296.699 73.8379 296.568 73.8379Z" fill="#A02A36"/>
<path d="M293.963 71.0312H291.783C291.653 71.0312 291.547 71.1369 291.547 71.2673V86.228C291.547 86.3583 291.653 86.464 291.783 86.464H293.963C294.093 86.464 294.199 86.3583 294.199 86.228V71.2673C294.199 71.1369 294.093 71.0312 293.963 71.0312Z" fill="#623314"/>
<path d="M291.4 72.9062H289.221C289.09 72.9062 288.984 73.0119 288.984 73.1423V86.228C288.984 86.3583 289.09 86.464 289.221 86.464H291.4C291.531 86.464 291.637 86.3583 291.637 86.228V73.1423C291.637 73.0119 291.531 72.9062 291.4 72.9062Z" fill="#C2AE11"/>
<path d="M335.791 71.4258H333.217C333.065 71.4258 332.941 71.5491 332.941 71.7011V85.9931C332.941 86.1452 333.065 86.2685 333.217 86.2685H335.791C335.943 86.2685 336.067 86.1452 336.067 85.9931V71.7011C336.067 71.5491 335.943 71.4258 335.791 71.4258Z" fill="#A02A36"/>
<path d="M332.724 68.1211H330.151C329.998 68.1211 329.875 68.2444 329.875 68.3964V85.9926C329.875 86.1447 329.998 86.268 330.151 86.268H332.724C332.877 86.268 333 86.1447 333 85.9926V68.3964C333 68.2444 332.877 68.1211 332.724 68.1211Z" fill="#1D251A"/>
<path d="M329.713 70.3242H327.139C326.987 70.3242 326.863 70.4475 326.863 70.5996V85.993C326.863 86.145 326.987 86.2683 327.139 86.2683H329.713C329.865 86.2683 329.988 86.145 329.988 85.993V70.5996C329.988 70.4475 329.865 70.3242 329.713 70.3242Z" fill="#911F81"/>
<path d="M326.588 68.6719H324.014C323.862 68.6719 323.738 68.7952 323.738 68.9472V85.9927C323.738 86.1448 323.862 86.2681 324.014 86.2681H326.588C326.74 86.2681 326.863 86.1448 326.863 85.9927V68.9472C326.863 68.7952 326.74 68.6719 326.588 68.6719Z" fill="#D46626"/>
<path d="M323.474 67.5703H320.901C320.748 67.5703 320.625 67.6936 320.625 67.8457V85.9926C320.625 86.1446 320.748 86.2679 320.901 86.2679H323.474C323.627 86.2679 323.75 86.1446 323.75 85.9926V67.8457C323.75 67.6936 323.627 67.5703 323.474 67.5703Z" fill="#26516B"/>
<path d="M277.479 88.8516L270.703 91.9329L328.939 91.8935L340.297 88.8516H277.479Z" fill="#411C16"/>
<path d="M277.492 88.8372L270.703 91.9185L270.716 89.3748L277.492 86.0312V88.8372Z" fill="#D2222D"/>
<path d="M286.088 70.5742H283.908C283.778 70.5742 283.672 70.6799 283.672 70.8102V86.2298C283.672 86.3602 283.778 86.4659 283.908 86.4659H286.088C286.218 86.4659 286.324 86.3602 286.324 86.2298V70.8102C286.324 70.6799 286.218 70.5742 286.088 70.5742Z" fill="#29275D"/>
<path d="M283.831 70.6543L278.263 74.2338L278.211 86.1919H283.831V70.6543Z" fill="#302968"/>
<path d="M340.284 86.0312H277.492V88.8372H340.284V86.0312Z" fill="#861812"/>
<path d="M272.635 31.7617H270.455C270.325 31.7617 270.219 31.8674 270.219 31.9977V46.9584C270.219 47.0888 270.325 47.1944 270.455 47.1944H272.635C272.765 47.1944 272.871 47.0888 272.871 46.9584V31.9977C272.871 31.8674 272.765 31.7617 272.635 31.7617Z" fill="#1D251A"/>
<path d="M270.068 33.6367H267.889C267.758 33.6367 267.652 33.7424 267.652 33.8727V46.9584C267.652 47.0888 267.758 47.1944 267.889 47.1944H270.068C270.199 47.1944 270.305 47.0888 270.305 46.9584V33.8727C270.305 33.7424 270.199 33.6367 270.068 33.6367Z" fill="#26516B"/>
<path d="M267.416 32.2344H265.236C265.106 32.2344 265 32.34 265 32.4704V46.9591C265 47.0894 265.106 47.1951 265.236 47.1951H267.416C267.547 47.1951 267.652 47.0894 267.652 46.9591V32.4704C267.652 32.34 267.547 32.2344 267.416 32.2344Z" fill="#03996E"/>
<path d="M264.764 31.3027H262.584C262.453 31.3027 262.348 31.4084 262.348 31.5387V46.9584C262.348 47.0887 262.453 47.1944 262.584 47.1944H264.764C264.894 47.1944 265 47.0887 265 46.9584V31.5387C265 31.4084 264.894 31.3027 264.764 31.3027Z" fill="#29275D"/>
<path d="M262.127 34.5684H259.947C259.817 34.5684 259.711 34.674 259.711 34.8044V46.946C259.711 47.0764 259.817 47.182 259.947 47.182H262.127C262.258 47.182 262.363 47.0764 262.363 46.946V34.8044C262.363 34.674 262.258 34.5684 262.127 34.5684Z" fill="#A02A36"/>
<path d="M259.498 31.7617H257.318C257.188 31.7617 257.082 31.8674 257.082 31.9977V46.9584C257.082 47.0888 257.188 47.1944 257.318 47.1944H259.498C259.629 47.1944 259.734 47.0888 259.734 46.9584V31.9977C259.734 31.8674 259.629 31.7617 259.498 31.7617Z" fill="#1D251A"/>
<path d="M256.936 33.6367H254.756C254.625 33.6367 254.52 33.7424 254.52 33.8727V46.9584C254.52 47.0888 254.625 47.1944 254.756 47.1944H256.936C257.066 47.1944 257.172 47.0888 257.172 46.9584V33.8727C257.172 33.7424 257.066 33.6367 256.936 33.6367Z" fill="#1B253C"/>
<path d="M288.217 32.1562H285.643C285.491 32.1562 285.367 32.2795 285.367 32.4316V46.7236C285.367 46.8757 285.491 46.9989 285.643 46.9989H288.217C288.369 46.9989 288.492 46.8757 288.492 46.7236V32.4316C288.492 32.2795 288.369 32.1562 288.217 32.1562Z" fill="#A02A36"/>
<path d="M285.142 28.8516H282.569C282.416 28.8516 282.293 28.9748 282.293 29.1269V46.7231C282.293 46.8752 282.416 46.9985 282.569 46.9985H285.142C285.295 46.9985 285.418 46.8752 285.418 46.7231V29.1269C285.418 28.9748 285.295 28.8516 285.142 28.8516Z" fill="#1D251A"/>
<path d="M282.123 31.0547H279.549C279.397 31.0547 279.273 31.178 279.273 31.33V46.7234C279.273 46.8755 279.397 46.9988 279.549 46.9988H282.123C282.275 46.9988 282.399 46.8755 282.399 46.7234V31.33C282.399 31.178 282.275 31.0547 282.123 31.0547Z" fill="#911F81"/>
<path d="M278.998 29.4023H276.424C276.272 29.4023 276.148 29.5256 276.148 29.6777V46.7232C276.148 46.8753 276.272 46.9985 276.424 46.9985H278.998C279.15 46.9985 279.274 46.8753 279.274 46.7232V29.6777C279.274 29.5256 279.15 29.4023 278.998 29.4023Z" fill="#D46626"/>
<path d="M275.885 28.3008H273.311C273.159 28.3008 273.035 28.4241 273.035 28.5761V46.723C273.035 46.8751 273.159 46.9984 273.311 46.9984H275.885C276.037 46.9984 276.16 46.8751 276.16 46.723V28.5761C276.16 28.4241 276.037 28.3008 275.885 28.3008Z" fill="#26516B"/>
<path d="M242.272 49.582L236.836 52.6633L283.595 52.624L292.708 49.582H242.272Z" fill="#411C16"/>
<path d="M243.679 49.5677L236.891 52.649V50.1053L243.679 46.7617V49.5677Z" fill="#D2222D"/>
<path d="M254.361 31.3027H252.182C252.051 31.3027 251.945 31.4084 251.945 31.5387V46.9584C251.945 47.0887 252.051 47.1944 252.182 47.1944H254.361C254.492 47.1944 254.598 47.0887 254.598 46.9584V31.5387C254.598 31.4084 254.492 31.3027 254.361 31.3027Z" fill="#29275D"/>
<path d="M252.093 31.3828L246.525 34.9624L246.473 46.9204H252.093V31.3828Z" fill="#302968"/>
<path d="M292.718 46.7617H243.504V49.5677H292.718V46.7617Z" fill="#861812"/>
<mask id="mask0_1480_81623" style="mask-type:luminance" maskUnits="userSpaceOnUse" x="0" y="0" width="381" height="260">
<path d="M368.19 202.964C342.125 245.145 283.18 253.457 249.802 258.191C231.628 260.761 208.649 259.909 162.678 258.191C112.295 256.316 93.6621 252.461 80.5575 248.986C52.6543 241.578 28.7167 235.232 13.4455 214.174C1.20751 197.286 0.603488 179.375 0.104514 162.946C-1.0904 123.112 15.4151 92.5612 23.4512 79.7115C50.1332 37.0584 89.6966 19.6196 101.83 14.4666C135.97 -0.0220567 165.738 -0.100728 182.611 0.0172794C210.593 0.22707 298.136 0.869553 347.351 64.895C372.457 97.5568 396.106 157.806 368.19 202.964Z" fill="white"/>
</mask>
<g mask="url(#mask0_1480_81623)">
<path d="M8.40097 266.82C0.312345 262.349 -9.40452 255.531 -9.10251 247.677C-8.17021 223.092 90.0489 204.932 162.636 201.051C256.746 196.016 374.346 211.422 376.893 239.351C378.259 254.325 345.235 268.551 326.037 276.812C213.19 325.404 88.4469 296.558 12.9837 270.57" fill="#1F2734"/>
<path d="M107.082 236.464H108.973L105.362 220.244H103.051L106.727 236.201C106.872 236.254 106.99 236.359 107.082 236.477V236.464Z" fill="#411C16"/>
<path d="M113.703 257.285L109.974 241H107.781L111.458 257.01C111.602 257.062 111.721 257.167 111.812 257.272H113.703V257.285Z" fill="#411C16"/>
<path d="M82.6305 199.422H80.4639L79.0195 208.39L80.07 215.091L82.6305 199.422Z" fill="#411C16"/>
<path d="M102.457 215.707H104.242L100.513 199.422H98.3203L101.984 215.366C102.181 215.432 102.325 215.55 102.443 215.707H102.457Z" fill="#411C16"/>
<path d="M81.9375 215.366H82.0425L84.6425 199.422H84.5374L81.9375 215.366Z" fill="#411C16"/>
<path d="M106.593 239.191H109.574L109.377 238.273H83.8242L83.9555 239.191H106.593Z" fill="#411C16"/>
<path d="M101.619 195.292C101.619 195.292 101.619 195.292 101.632 195.318L97.8633 178.719L101.527 195.174C101.527 195.174 101.592 195.253 101.619 195.305V195.292Z" fill="#411C16"/>
<path d="M106.35 216.18C106.35 216.18 106.377 216.207 106.377 216.22L102.319 198.361C102.345 198.492 102.319 198.624 102.293 198.742L106.245 216.036C106.245 216.036 106.311 216.128 106.337 216.167L106.35 216.18Z" fill="#411C16"/>
<path d="M94.1264 162.553L96.7789 174.314C96.7789 174.314 96.8314 174.38 96.8576 174.406C96.8576 174.406 96.8839 174.432 96.897 174.445L94.1921 162.553H94.1133H94.1264Z" fill="#411C16"/>
<path d="M85.5632 160.731H89.1086H89.3449H92.9559H94.9649H96.0811V160.285H69.3203V160.731H70.5546H85.5632Z" fill="#411C16"/>
<path d="M111.325 260H114.372L114.135 259.096H87.125L87.2694 260.066L111.325 260Z" fill="#411C16"/>
<path d="M111.07 237.186L111.648 239.9L115.784 257.968L116.296 259.948L107.512 221.229L111.07 237.186Z" fill="#411C16"/>
<path d="M81.0991 221.059L81.2172 220.246H81.191L81.0859 221.033L81.0991 221.059Z" fill="#411C16"/>
<path d="M82.9605 176.791H87.0442H89.0532H92.5329H95.5662L95.3692 175.887H73.8477L74.0184 176.844L82.9605 176.791Z" fill="#411C16"/>
<path d="M78.5551 199.422H77.5703L78.0693 202.464L78.5551 199.422Z" fill="#411C16"/>
<path d="M101.867 218.422H104.966L104.769 217.518H80.4766L80.6341 218.422H82.3149H101.867Z" fill="#411C16"/>
<path d="M83.7362 197.602H85.7453H97.1429H100.242L100.032 196.645L77.1445 196.697L77.289 197.602H79.6525H83.7362Z" fill="#411C16"/>
<path d="M87.934 178.602H87.8421L85.2422 194.48H85.3472L87.934 178.602Z" fill="#411C16"/>
<path d="M81.2266 194.48H83.3406L85.9406 178.602H83.774L81.2266 194.48Z" fill="#411C16"/>
<path d="M88.2427 162.553H86.3781L84.6055 173.724H86.7064L88.3346 163.707L88.2427 162.553Z" fill="#411C16"/>
<path d="M97.691 194.834H99.5162L95.9052 178.602H93.6992L97.2708 194.546C97.4415 194.598 97.586 194.703 97.691 194.834Z" fill="#411C16"/>
<path d="M89.4615 168.582L88.6211 173.722H88.6605L89.5009 168.805L89.4615 168.582Z" fill="#411C16"/>
<path d="M90.6044 173.724L90.5913 173.672L90.5781 173.724H90.6044Z" fill="#411C16"/>
<path d="M91.3921 168.597L92.5476 173.777C92.7445 173.829 92.9021 173.934 93.0203 174.065H94.793L92.193 162.553H90.2891V163.707L91.3921 168.584V168.597Z" fill="#411C16"/>
<path d="M64.9844 321.05H65.0238L77.1042 246.049L77.0648 245.787L64.9844 321.05Z" fill="#411C16"/>
<path d="M63.8797 162.553H61.8575L25.8789 321.05H26.7061H28.0718L63.8797 163.536V162.553Z" fill="#411C16"/>
<path d="M65.4688 173.724H65.495L65.4819 173.672L65.4688 173.724Z" fill="#411C16"/>
<path d="M39.143 281.189V281.163C39.143 281.163 39.143 281.136 39.143 281.123L39.8521 278.422L43.8045 260.734L43.857 260.433C43.857 260.433 43.857 260.406 43.857 260.393L44.4479 257.666L48.4659 240.148H48.3872L30.0039 321.036H30.0827L32.4069 310.809V310.782L32.6432 309.878L32.8664 308.947L34.3371 302.299L34.3896 302.037V302.01C34.3896 302.01 34.3896 302.01 34.3896 301.984L35.0987 299.231L39.0511 281.477L39.1036 281.176L39.143 281.189Z" fill="#411C16"/>
<path d="M64.8287 160.731H64.9994H67.4286V160.285H60.1016V160.731H61.0995H64.8287Z" fill="#411C16"/>
<path d="M65.8614 162.553L65.7695 163.602L66.5836 168.637V168.663L67.5291 174.511L67.9361 177.159L68.028 177.422C68.028 177.422 68.028 177.474 68.028 177.5C68.028 177.527 68.0543 177.54 68.0543 177.566L70.8249 195.254L71.2976 197.981V198.007L71.3633 198.401L74.1996 216.141L74.6198 218.868L74.6723 219.196L75.9722 227.09L77.5742 236.91C77.5742 236.91 77.5742 236.91 77.5742 236.937C77.5742 236.937 77.5742 236.937 77.5742 236.963L77.6267 237.474C77.6267 237.474 77.6267 237.5 77.6267 237.514L77.8631 239.1L77.9813 239.756L78.9792 245.945L91.0334 321.076H93.2L67.7917 162.579H65.8614V162.553Z" fill="#411C16"/>
<path d="M93.5077 310.429L93.3895 309.878C93.3895 309.878 93.3895 309.865 93.3895 309.852V309.826L92.2603 302.68L91.8532 300.031L91.7613 299.769C91.7613 299.769 91.7613 299.716 91.7613 299.69C91.7613 299.664 91.735 299.638 91.735 299.612L88.9644 281.871L88.4917 279.144L88.4392 278.803L85.5504 261.102L85.1302 258.309C85.1302 258.309 85.1302 258.27 85.1302 258.243C85.1302 258.217 85.1302 258.204 85.1302 258.178V257.968L82.2414 240.228L81.8343 237.579L81.7424 237.317C81.7424 237.317 81.7424 237.264 81.7424 237.238C81.7424 237.212 81.7161 237.186 81.7161 237.16L80.1798 227.352L79.2344 221.163L78.9455 219.485L78.4728 216.757L78.4203 216.416L78.394 216.285L77.1729 208.536L75.5709 198.663L75.1507 195.936L75.0982 195.608C75.0982 195.608 75.0982 195.569 75.0982 195.555L72.2619 177.867L72.2094 177.605C72.2094 177.605 72.2094 177.592 72.2094 177.579C72.2094 177.579 72.2094 177.566 72.2094 177.553L71.8548 175.14L71.8023 174.878C71.8023 174.878 71.8023 174.825 71.8023 174.799V174.773L69.7933 162.553H69.7539L95.1622 321.05H95.2672L93.7178 311.439L93.5471 310.442L93.5077 310.429Z" fill="#411C16"/>
<path d="M74.5586 236.123H75.5434L75.0444 233.107L74.5586 236.123Z" fill="#411C16"/>
<path d="M71.2344 256.945H73.3616L75.9615 240.738L73.7424 240.935L71.2344 256.945Z" fill="#411C16"/>
<path d="M70.1402 258.754H46.1501L45.9531 259.672L72.5826 259.724L72.7533 258.754H70.1402Z" fill="#411C16"/>
<path d="M60.416 196.303L60.1797 197.207H69.2663L69.1087 196.303H60.416Z" fill="#411C16"/>
<path d="M55.6085 217.125L55.3984 218.082H72.5999L72.4555 217.177L55.6085 217.125Z" fill="#411C16"/>
<path d="M53.312 218.841C53.312 218.841 53.312 218.815 53.312 218.802L53.9029 216.022L57.9735 198.347L58.026 197.98C58.026 197.98 58.026 197.954 58.0391 197.941C58.0523 197.928 58.0391 197.915 58.0391 197.889L58.7482 195.188L62.7006 177.5L62.7531 177.198C62.7531 177.198 62.7531 177.172 62.7531 177.159L63.344 174.431L64.6702 168.741L64.644 168.57L49.1758 236.621H49.3333L53.2464 219.117L53.2989 218.815L53.312 218.841Z" fill="#411C16"/>
<path d="M65.0642 175.547L64.8672 176.452H65.9177L65.7863 175.547H65.0642Z" fill="#411C16"/>
<path d="M132.277 321.809L96.1275 162.539H97.0204C97.5456 162.539 97.9658 162.132 97.9658 161.634V159.366C97.9658 158.867 97.5456 158.461 97.0204 158.461H59.1509C58.6257 158.461 58.2055 158.867 58.2055 159.366V161.634C58.2055 162.132 58.6257 162.539 59.1509 162.539H59.9256L23.7763 321.744C23.7763 321.744 23.7763 321.809 23.7763 321.835C23.7763 321.875 23.75 321.901 23.75 321.94C23.75 321.967 23.7631 321.993 23.7631 322.019C23.7631 322.085 23.7763 322.137 23.8025 322.189C23.8157 322.242 23.8419 322.307 23.8682 322.36C23.8944 322.412 23.9207 322.452 23.9601 322.491C23.9995 322.543 24.0389 322.583 24.0914 322.622C24.1308 322.661 24.1833 322.688 24.2358 322.714C24.2884 322.74 24.354 322.766 24.4197 322.793C24.4459 322.793 24.4722 322.819 24.4985 322.832C24.5641 322.845 24.6298 322.858 24.6954 322.858H30.8407C30.9589 322.858 31.077 322.832 31.1821 322.793C31.2215 322.779 31.2477 322.753 31.2871 322.74C31.3528 322.701 31.4053 322.675 31.471 322.622C31.4841 322.609 31.5104 322.596 31.5235 322.583C31.5235 322.583 31.5366 322.557 31.5498 322.543C31.5498 322.543 31.5498 322.53 31.5629 322.517C31.6023 322.465 31.6417 322.412 31.6811 322.36C31.6811 322.334 31.7073 322.321 31.7205 322.294C31.7205 322.268 31.7205 322.242 31.7336 322.229C31.7336 322.203 31.7598 322.176 31.773 322.15L34.2022 311.451L42.2514 303.413L56.3409 303.466L60.6084 311.451L58.8883 321.822C58.8883 321.822 58.8883 321.875 58.8883 321.901C58.8883 321.927 58.8751 321.94 58.8751 321.967C58.8751 322.006 58.8883 322.032 58.9014 322.071C58.9014 322.137 58.9145 322.189 58.9408 322.255C58.9671 322.307 58.9802 322.36 59.0196 322.412C59.0458 322.465 59.0852 322.504 59.1246 322.557C59.164 322.596 59.2034 322.635 59.2559 322.675C59.3085 322.714 59.3479 322.74 59.4004 322.766C59.4529 322.793 59.5186 322.806 59.5842 322.832C59.6236 322.832 59.6499 322.858 59.6893 322.871C59.7418 322.871 59.7943 322.871 59.8337 322.871H65.8608C65.979 322.871 66.0971 322.845 66.2153 322.806C66.2547 322.793 66.281 322.766 66.3204 322.74C66.386 322.701 66.4517 322.675 66.5042 322.622C66.5436 322.596 66.5567 322.557 66.5961 322.517C66.6355 322.465 66.6749 322.412 66.7143 322.347C66.7406 322.307 66.7537 322.255 66.7668 322.216C66.7799 322.176 66.8062 322.137 66.8062 322.098L78.0988 252.014L89.3388 322.098C89.3388 322.098 89.3651 322.176 89.3782 322.216C89.3913 322.268 89.4045 322.307 89.4307 322.36C89.457 322.412 89.4964 322.465 89.5489 322.517C89.5752 322.557 89.6014 322.596 89.6408 322.622C89.6934 322.675 89.759 322.701 89.8247 322.74C89.8641 322.766 89.8903 322.779 89.9297 322.806C90.0348 322.845 90.1529 322.871 90.2711 322.871H96.3507C96.3507 322.871 96.4426 322.871 96.4951 322.871C96.5345 322.871 96.5608 322.845 96.6002 322.832C96.6659 322.819 96.7184 322.793 96.784 322.766C96.8366 322.74 96.8891 322.714 96.9285 322.675C96.981 322.635 97.0204 322.596 97.0598 322.557C97.0992 322.517 97.1254 322.465 97.1648 322.412C97.1911 322.36 97.2174 322.307 97.2436 322.255C97.2699 322.203 97.2699 322.137 97.283 322.071C97.283 322.032 97.3093 322.006 97.3093 321.967C97.3093 321.94 97.2961 321.927 97.2961 321.901C97.2961 321.875 97.2961 321.862 97.2961 321.835L95.6285 311.464L99.8961 303.479H113.867L121.969 311.464L124.398 322.216C124.398 322.216 124.425 322.268 124.438 322.294C124.451 322.347 124.477 322.386 124.49 322.425C124.516 322.478 124.556 322.53 124.595 322.583C124.622 322.622 124.648 322.648 124.687 322.688C124.74 322.727 124.805 322.766 124.858 322.806C124.897 322.832 124.924 322.845 124.963 322.858C125.068 322.897 125.186 322.924 125.304 322.924H131.384C131.45 322.924 131.515 322.924 131.581 322.897C131.607 322.897 131.633 322.871 131.66 322.858C131.725 322.832 131.778 322.819 131.83 322.779C131.883 322.753 131.935 322.727 131.975 322.688C132.027 322.648 132.067 322.609 132.106 322.557C132.146 322.517 132.172 322.465 132.198 322.425C132.224 322.373 132.251 322.321 132.264 322.268C132.277 322.216 132.29 322.15 132.303 322.098C132.303 322.071 132.316 322.045 132.316 322.019C132.316 321.98 132.303 321.953 132.29 321.927C132.29 321.901 132.29 321.862 132.29 321.835L132.277 321.809ZM123.177 298.758L120.892 298.562L117.229 282.644H119.527L123.177 298.772V298.758ZM118.949 298.522L93.4619 298.575L90.967 282.631H115.285L118.949 298.522ZM119.12 280.821H90.6782L90.5206 279.917L118.896 279.864L119.12 280.821ZM80.633 218.422L80.4755 217.517H104.768L104.965 218.422H80.633ZM81.2108 220.231L81.0795 221.044V221.018L81.1845 220.231H81.2108ZM77.2715 197.6L77.1271 196.695L100.014 196.643L100.224 197.6H77.2715ZM78.5452 199.409L78.0594 202.451L77.5735 199.409H78.5584H78.5452ZM95.3659 175.874L95.5629 176.778H82.9572L74.0151 176.831L73.8575 175.874H95.379H95.3659ZM73.4898 173.723L71.6646 162.552H84.4673L82.6815 173.723H73.4898ZM84.5986 173.723L86.3844 162.552H88.2489L88.3409 163.706L86.7126 173.723H84.5986ZM88.6166 173.723L89.457 168.583L89.5095 168.806L88.6691 173.723H88.6297H88.6166ZM90.2842 163.706V162.552H92.1882L94.7881 174.064H93.0155C92.8973 173.92 92.7266 173.815 92.5428 173.776L91.3872 168.61V168.583L90.2842 163.706ZM90.5994 173.723H90.5731V173.671L90.5994 173.723ZM87.8419 178.601H87.9338L85.3339 194.479H85.242L87.8419 178.601ZM83.3249 194.479H81.2239L83.7713 178.601H85.9379L83.338 194.479H83.3249ZM89.8509 178.601H91.768L95.3265 194.479H87.2641L89.8641 178.601H89.8509ZM93.6983 178.601H95.9043L99.5153 194.833H97.6901C97.585 194.702 97.4406 194.61 97.2699 194.545L93.6983 178.601ZM81.8542 178.601L79.3068 194.479H76.7857L74.2514 178.653L81.8542 178.614V178.601ZM86.5419 199.409H96.377L100.04 215.301L83.942 215.354L86.5419 199.423V199.409ZM98.3204 199.409H100.513L104.242 215.694H102.457C102.338 215.537 102.181 215.419 101.997 215.354L98.3335 199.409H98.3204ZM80.4623 199.409H82.6289L80.0684 215.078L79.0179 208.378L80.4623 199.409ZM105.358 220.231L108.969 236.451H107.079C106.987 236.333 106.869 236.241 106.724 236.175L103.047 220.218H105.358V220.231ZM83.4299 236.123L82.038 227.22L83.141 220.244H101.13L104.794 236.123H83.443H83.4299ZM109.377 238.273L109.574 239.178H83.9552L83.8238 238.273H109.377ZM111.451 257.01L107.775 241H109.967L113.697 257.285H111.806C111.714 257.167 111.596 257.076 111.451 257.01ZM105.844 241L109.508 256.945L86.8571 256.997L84.2572 241H105.857H105.844ZM114.143 259.095L114.379 260H111.333L87.2773 260.052L87.1328 259.095H114.143ZM110.571 261.822L114.235 277.714L90.1661 277.766L87.5661 261.875L110.571 261.822ZM116.428 278.055C116.362 277.976 116.283 277.924 116.205 277.871L112.515 261.835H114.826L118.489 278.055H116.428ZM101.642 195.332C101.642 195.332 101.642 195.319 101.629 195.305C101.603 195.266 101.577 195.214 101.537 195.174L97.8739 178.719L101.642 195.319V195.332ZM96.9022 174.444C96.9022 174.444 96.876 174.418 96.8628 174.405C96.8366 174.379 96.8103 174.339 96.784 174.313L94.1316 162.552H94.2104L96.9153 174.444H96.9022ZM69.3273 160.283H96.0881V160.742H69.3273V160.283ZM60.1094 160.283H67.4365V160.742H60.1094V160.283ZM75.9716 240.738L73.3717 256.945H71.2576L73.7656 240.948L75.9847 240.738H75.9716ZM74.5666 236.123L75.0524 233.107L75.5382 236.123H74.5534H74.5666ZM67.1345 282.578L69.2879 282.382L66.688 298.575H64.5214L67.1345 282.578ZM62.6174 298.575L37.2354 298.522L40.7939 282.578L65.2174 282.631L62.6174 298.575ZM41.2929 280.428L41.5292 279.523H69.4849L69.3405 280.48L41.2929 280.428ZM41.9626 277.701L45.521 261.822H68.5395L66.0446 277.701H41.9757H41.9626ZM67.9486 277.701L70.4435 261.757L72.6232 261.599L70.0364 277.701H67.9486ZM72.5969 259.711L45.9675 259.659L46.1644 258.754H72.7676L72.5969 259.711ZM50.235 240.987H71.8353L69.3405 256.931H46.5715L50.235 240.987ZM51.4168 236.11L54.9621 220.231H72.9515L74.107 227.207L72.6626 236.11H51.4299H51.4168ZM55.4217 218.068L55.6318 217.111L72.4788 217.163L72.6232 218.068H55.4348H55.4217ZM56.0389 215.288L59.7024 199.396H69.6556L72.203 215.327L56.0389 215.275V215.288ZM60.2145 197.194L60.4508 196.289H69.1304L69.2879 197.194H60.2145ZM60.8842 194.466L64.4426 178.588H66.3466L68.8415 194.466H60.8842ZM64.8891 176.424L65.0861 175.52H65.8083L65.9396 176.424H64.8891ZM65.5062 173.697V173.645L65.5325 173.697H65.5062ZM28.1095 321.009H25.9035L61.8952 162.513H63.9043V163.496L28.1095 321.009ZM35.4628 306.127L36.0799 303.361H38.194L35.4628 306.127ZM36.5789 301.263L36.8284 300.293L63.4447 300.345H66.2022L66.0577 301.302L36.592 301.25L36.5789 301.263ZM59.6105 303.413H61.9215L61.37 306.704L59.6105 303.413ZM63.1033 320.996H60.9498L62.0791 314.165C62.2629 314.427 62.5387 314.585 62.8407 314.585C63.0114 314.716 63.2083 314.807 63.4316 314.807C63.576 314.807 63.7204 314.768 63.8649 314.703C63.9699 314.65 64.0618 314.571 64.1406 314.493L63.1033 320.983V320.996ZM62.8275 309.445L63.8386 303.361L65.9527 303.203L64.4558 312.5L62.8144 309.458L62.8275 309.445ZM92.3327 320.996H91.0721L79.0179 245.865L78.02 239.676L77.9018 239.007L77.6655 237.421C77.6655 237.421 77.6655 237.395 77.6655 237.382L77.6129 236.87C77.6129 236.87 77.6129 236.87 77.6129 236.844C77.6129 236.844 77.6129 236.844 77.6129 236.818L76.011 227.01L74.711 219.117L74.6585 218.789L74.2383 216.062L71.402 198.308L71.3495 197.915V197.888L70.8768 195.161L68.1062 177.473C68.1062 177.473 68.0799 177.434 68.0799 177.408C68.0799 177.381 68.0799 177.355 68.0799 177.329L67.988 177.067L67.5809 174.418L66.6355 168.57V168.544L65.8214 163.509L65.9133 162.46H67.8435L93.2518 320.957H92.3458L92.3327 320.996ZM94.8407 306.744L94.3154 303.413H96.6265L94.8407 306.744ZM117.951 303.387L120.065 303.361L120.735 306.127L117.951 303.387ZM120.814 301.538L115.732 301.591H94.0528L93.9215 300.686L123.571 300.633L123.781 301.538H120.827H120.814ZM126.066 321.049L124.438 313.837C124.582 313.916 124.727 313.968 124.884 313.968C125.068 313.968 125.252 313.903 125.409 313.798C125.646 313.798 125.882 313.719 126.066 313.549C126.447 313.208 126.46 312.631 126.092 312.264L126.053 312.224C126.171 311.91 126.105 311.556 125.856 311.307L123.256 308.645L121.982 303.361H124.241L128.246 321.062H126.04L126.066 321.049ZM130.202 321.049L124.871 297.487L130.215 321.049H130.202Z" fill="#861812"/>
</g>
<path d="M60.7024 121.106C61.0175 120.608 62.9084 121.985 64.7467 122.155C65.679 122.247 66.2568 122.404 70.9445 121.238C74.4636 120.359 74.6605 120.136 77.1948 119.585C79.322 119.126 80.5826 118.851 82.3684 118.786C84.0229 118.72 85.7561 118.668 87.8308 119.376C90.5489 120.307 92.8074 122.182 92.663 122.588C92.5579 122.876 91.3105 122.286 89.3015 121.972C86.8066 121.578 84.9026 121.867 82.9199 122.208C78.2978 122.981 78.4291 124.057 74.0171 124.909C73.8333 124.948 70.3142 125.591 65.9548 124.856C64.5629 124.62 62.7377 123.847 61.3721 122.522C61.2276 122.378 60.4792 121.447 60.6893 121.12L60.7024 121.106Z" fill="#A04D18"/>
<path d="M60.7004 121.107C60.7529 120.674 62.5125 120.635 64.4559 120.045C68.2507 118.891 68.881 118.353 72.3344 116.937C73.2929 116.544 76.0242 115.455 79.32 115.442C80.3048 115.442 85.5966 115.101 92.5297 120.215C94.3812 121.579 95.7205 123.296 98.2548 123.362C99.1345 123.388 99.4365 123.598 100.671 123.44C104.006 123.021 106.383 124.463 107.092 124.857C108.759 125.761 111.569 127.282 112.042 130.167C112.279 131.649 111.793 132.855 111.596 133.34C110.151 136.802 106.199 137.444 105.385 137.287C102.273 136.684 101.997 138.27 103.796 139.044C104.768 139.463 105.582 140.106 107.052 141.338C109.652 143.489 111.084 144.17 114.261 145.757C115.377 146.321 116.559 146.675 116.782 147.475C116.966 148.143 116.507 148.982 115.968 149.389C114.576 150.464 112.16 148.982 110.427 147.973C104.308 144.393 101.249 142.61 98.2942 141.981C93.5276 140.958 89.5884 142.636 87.7238 143.436C85.6622 144.315 84.5855 145.114 83.3512 146.911C81.9199 148.982 82.0512 150.097 80.226 152.339C79.3857 153.375 78.4271 154.371 77.7443 155.604C77.5867 155.892 77.1797 156.443 77.311 156.915C77.416 157.295 77.915 157.44 77.9281 157.453C78.9392 157.741 79.4645 156.076 81.5654 154.988C82.2351 154.647 82.8916 154.45 83.627 154.555C83.9027 154.594 84.7693 154.712 84.9269 155.198C85.1107 155.748 84.4936 156.902 82.3926 158.187C78.3089 160.705 75.9979 161.491 73.3323 162.409C72.8334 162.58 71.3102 161.976 71.0344 160.98C70.6536 159.577 73.1354 158.305 72.794 156.378C72.6889 155.801 72.0586 155.329 71.1263 154.332C69.9052 153.047 69.288 152.837 68.1588 152.575C67.3315 152.392 67.2133 152.824 66.0316 153.191C65.9265 153.231 64.3508 153.703 62.9983 152.733C62.8014 152.588 62.46 152.287 62.5125 151.802C62.5387 151.513 62.6175 150.949 63.2478 150.713C64.6922 150.149 64.7972 150.333 65.3225 149.979C66.2416 149.376 66.2023 147.58 66.2942 146.662C66.373 145.901 66.373 145.77 66.8982 144.144C67.4103 142.518 68.2244 141.496 68.0668 140.892C67.9355 140.407 65.5982 140.04 64.3902 139.594C62.8276 139.004 61.7903 138.624 60.1358 137.824C59.9651 137.746 57.7854 136.434 57.8247 135.844C57.851 135.346 59.5712 135.32 62.1711 134.874C63.7862 134.599 66.3598 133.274 69.1042 132.042C69.6294 131.806 71.3627 130.901 74.8818 128.751C76.4575 127.794 77.6655 127.374 79.3725 126.81C80.7119 126.351 82.0775 126.037 82.6684 125.958C84.231 125.735 85.3471 125.617 86.7127 125.486C88.0915 125.355 89.0369 125.329 89.6672 125.342C91.0459 125.381 91.6368 125.512 93.0287 125.447C93.961 125.394 94.5125 125.211 94.5781 124.883C94.7751 123.978 91.1904 122.09 89.6934 121.303C85.9117 119.31 83.6795 119.717 81.9068 119.94C78.8998 120.32 79.4907 120.543 73.3717 122.142C68.4608 123.414 66.4255 123.414 64.6922 123.047C62.7226 122.641 60.6085 121.657 60.661 121.133L60.7004 121.107Z" fill="#F29224"/>
<path d="M108.12 135.291C108.238 136.078 108.881 136 110.601 137.809C111.98 139.251 113.057 140.772 113.057 140.772C113.529 141.441 114.107 141.992 114.567 142.66C114.751 142.923 114.987 143.277 115.407 143.473C115.473 143.5 116.09 143.762 116.497 143.46C116.799 143.224 116.917 142.739 116.865 141.847C116.838 141.323 116.681 139.317 115 136.472C114.462 135.567 113.976 134.951 112.991 133.718C111.836 132.25 111.56 132.118 111.324 132.053C109.866 131.673 107.857 133.784 108.093 135.291H108.12Z" fill="#F29224"/>
<path d="M101.851 130.915C101.641 131.754 102.271 132.58 102.403 132.737C102.495 132.855 103.099 133.563 103.9 133.55C104.136 133.55 104.582 133.393 105.357 132.947C105.974 132.606 106.171 132.422 106.25 132.2C106.513 131.596 105.948 130.744 105.882 130.652C105.305 129.787 104.293 129.485 103.492 129.59C103.322 129.617 102.56 129.721 102.087 130.39C102.009 130.508 101.89 130.665 101.838 130.901L101.851 130.915Z" fill="white"/>
<path d="M101.851 130.912C101.641 131.752 102.271 132.578 102.403 132.735C102.495 132.853 103.295 133.299 103.637 133.207C103.9 133.128 104.162 132.997 104.438 132.722C104.661 132.499 104.661 132.289 104.687 132.053C104.714 131.778 104.595 131.384 104.543 131.28C104.28 130.768 103.808 130.257 103.519 130.113C103.361 130.034 102.586 129.732 102.114 130.401C102.035 130.519 101.917 130.676 101.864 130.912H101.851Z" fill="#1B1A33"/>
<path d="M106.407 132.437C106.512 132.502 106.617 132.489 106.748 132.476C106.892 132.45 107.063 132.423 107.089 132.319C107.116 132.201 106.984 132.069 106.853 131.938C106.695 131.781 106.551 131.702 106.433 131.65C106.315 131.584 106.249 131.558 106.196 131.584C105.986 131.663 105.986 132.279 106.118 132.345C106.157 132.371 106.196 132.345 106.275 132.358C106.341 132.384 106.367 132.41 106.407 132.437Z" fill="#A04D18"/>
<path d="M57.8644 135.899C57.9563 135.702 59.4401 137.144 62.0532 137.826C64.8894 138.574 67.2005 138.154 68.8418 137.853C73.267 137.013 76.5234 134.758 77.9809 133.63C80.292 131.821 80.9354 130.589 83.7585 129.028C85.7413 127.927 87.0413 127.638 88.0261 127.547C90.5341 127.297 92.6875 128.123 92.6744 128.255C92.6744 128.359 91.4007 128.005 89.6806 128.268C88.9321 128.386 87.5928 128.687 85.8464 129.828C82.9838 131.677 82.9444 133.211 80.0688 135.951C78.9132 137.053 76.8386 138.993 73.674 140.095C71.0478 140.999 68.8025 140.934 67.7257 140.855C64.4955 140.593 62.1714 139.321 60.8845 138.587C58.9805 137.512 57.7725 136.082 57.8513 135.899H57.8644Z" fill="#A04D18"/>
<path d="M103.413 137.236C102.271 136.973 100.918 136.056 100.236 135.597C99.7104 135.243 98.6205 134.535 97.6357 132.463C96.7953 130.706 96.1388 129.709 95.8761 129.854C95.6266 129.985 95.7842 131.007 95.8236 131.204C96.0206 132.384 96.5195 133.197 97.0448 133.866C97.9246 134.98 98.4498 135.452 99.3296 135.938C100.932 136.816 101.115 136.868 102.061 137.17C102.717 137.393 102.954 137.485 103.177 137.354C103.269 137.288 103.584 137.275 103.453 137.236H103.413Z" fill="white"/>
<path d="M141.607 137.274C145.044 137.274 147.831 134.491 147.831 131.059C147.831 127.626 145.044 124.844 141.607 124.844C138.169 124.844 135.383 127.626 135.383 131.059C135.383 134.491 138.169 137.274 141.607 137.274Z" fill="#010101"/>
<path d="M144.838 137.271H125.942C120.822 137.271 116.672 141.416 116.672 146.528C116.672 151.641 120.822 155.786 125.942 155.786H144.838C149.958 155.786 154.108 151.641 154.108 146.528C154.108 141.416 149.958 137.271 144.838 137.271Z" fill="#010101"/>
<path d="M137.546 152.902H131.69C130.094 152.902 128.801 154.191 128.801 155.78C128.801 157.37 130.094 158.658 131.69 158.658H137.546C139.141 158.658 140.435 157.37 140.435 155.78C140.435 154.191 139.141 152.902 137.546 152.902Z" fill="#010101"/>
<path d="M136.294 139.934H123.899C121.571 139.934 119.684 141.815 119.684 144.136C119.684 146.457 121.571 148.338 123.899 148.338H136.294C138.622 148.338 140.509 146.457 140.509 144.136C140.509 141.815 138.622 139.934 136.294 139.934Z" fill="white"/>
<path d="M136.158 141.258H133.072C131.477 141.258 130.184 142.546 130.184 144.136C130.184 145.725 131.477 147.014 133.072 147.014H136.158C137.754 147.014 139.047 145.725 139.047 144.136C139.047 142.546 137.754 141.258 136.158 141.258Z" fill="#010101"/>
<path d="M128.396 137.274C131.833 137.274 134.62 134.491 134.62 131.059C134.62 127.626 131.833 124.844 128.396 124.844C124.958 124.844 122.172 127.626 122.172 131.059C122.172 134.491 124.958 137.274 128.396 137.274Z" fill="#010101"/>
<path d="M129.2 131.058C129.2 131.49 128.845 131.857 128.399 131.857C127.952 131.857 127.598 131.503 127.598 131.058C127.598 130.612 127.952 130.258 128.399 130.258C128.845 130.258 129.2 130.612 129.2 131.058Z" fill="white"/>
<path d="M142.399 131.058C142.399 131.49 142.044 131.857 141.598 131.857C141.151 131.857 140.797 131.503 140.797 131.058C140.797 130.612 141.151 130.258 141.598 130.258C142.044 130.258 142.399 130.612 142.399 131.058Z" fill="white"/>
<path d="M130.873 135.713C133.437 134.343 134.403 131.157 133.031 128.597C131.659 126.036 128.468 125.071 125.904 126.441C123.34 127.811 122.374 130.997 123.746 133.558C125.118 136.118 128.309 137.083 130.873 135.713Z" stroke="white" stroke-width="0.36" stroke-miterlimit="10"/>
<path d="M141.609 136.317C144.517 136.317 146.875 133.962 146.875 131.059C146.875 128.155 144.517 125.801 141.609 125.801C138.701 125.801 136.344 128.155 136.344 131.059C136.344 133.962 138.701 136.317 141.609 136.317Z" stroke="white" stroke-width="0.36" stroke-miterlimit="10"/>
<path d="M159.02 145.442C159.02 144.088 157.921 142.99 156.565 142.99C155.209 142.99 154.109 144.088 154.109 145.442V147.619C154.109 148.973 155.209 150.071 156.565 150.071C157.921 150.071 159.02 148.973 159.02 147.619V145.442Z" fill="#010101"/>
<path d="M160.048 144.654C160.048 144.372 159.818 144.143 159.536 144.143C159.253 144.143 159.023 144.372 159.023 144.654V148.404C159.023 148.686 159.253 148.915 159.536 148.915C159.818 148.915 160.048 148.686 160.048 148.404V144.654Z" fill="#010101"/>
<path d="M123.433 142.032C123.433 142.477 123.065 142.845 122.619 142.845C122.172 142.845 121.805 142.477 121.805 142.032C121.805 141.586 122.172 141.219 122.619 141.219C123.065 141.219 123.433 141.586 123.433 142.032Z" fill="#010101"/>
<path d="M123.433 144.143C123.433 144.589 123.065 144.956 122.619 144.956C122.172 144.956 121.805 144.589 121.805 144.143C121.805 143.697 122.172 143.33 122.619 143.33C123.065 143.33 123.433 143.697 123.433 144.143Z" fill="#010101"/>
<path d="M123.433 146.254C123.433 146.7 123.065 147.067 122.619 147.067C122.172 147.067 121.805 146.7 121.805 146.254C121.805 145.809 122.172 145.441 122.619 145.441C123.065 145.441 123.433 145.809 123.433 146.254Z" fill="#010101"/>
<path d="M134.961 158.213L121.463 235.246C121.253 236.465 120.36 237.225 119.48 236.937C118.6 236.648 118.062 235.416 118.272 234.197L131.771 157.164L134.948 158.213H134.961Z" fill="#010101"/>
<path d="M135.912 157.951L134.625 235.848C134.599 237.081 133.851 238.064 132.958 238.038C132.052 238.012 131.343 236.976 131.356 235.744L132.642 157.846L135.912 157.951Z" fill="#010101"/>
<path d="M137.647 156.992L148.493 235.388C148.664 236.634 148.086 237.84 147.193 238.063C146.3 238.299 145.447 237.46 145.276 236.227L134.43 157.831L137.647 156.992Z" fill="#010101"/>
<path d="M155.697 142.977H155.355V150.07H155.697V142.977Z" fill="white"/>
<path d="M157.861 142.977H157.52V150.07H157.861V142.977Z" fill="white"/>
<path d="M183.773 27.6715C186.739 27.6715 189.143 25.3762 189.143 22.5447C189.143 19.7133 186.739 17.418 183.773 17.418C180.807 17.418 178.402 19.7133 178.402 22.5447C178.402 25.3762 180.807 27.6715 183.773 27.6715Z" fill="white"/>
<path d="M168.648 21.4018H198.902C198.902 21.4018 191.129 13.9805 183.92 13.9805C176.711 13.9805 168.648 21.4018 168.648 21.4018Z" fill="#861812"/>
<path d="M183.773 1.87891V15.8955" stroke="#861812" stroke-width="0.36" stroke-miterlimit="10"/>
<path d="M261.693 243.937C287.938 243.937 309.213 240.415 309.213 236.07C309.213 231.725 287.938 228.203 261.693 228.203C235.448 228.203 214.172 231.725 214.172 236.07C214.172 240.415 235.448 243.937 261.693 243.937Z" fill="#2D170E"/>
<mask id="mask1_1480_81623" style="mask-type:luminance" maskUnits="userSpaceOnUse" x="0" y="2" width="381" height="258">
<path d="M368.283 203.618C342.219 245.445 283.274 253.706 249.895 258.386C231.722 260.943 208.743 260.091 162.772 258.386C112.389 256.525 93.7559 252.709 80.6512 249.261C52.7481 241.918 28.8105 235.624 13.5393 214.724C1.30126 197.98 0.697238 180.213 0.198264 163.915C-0.996647 124.409 15.5089 94.1073 23.545 81.3625C50.2138 39.0766 89.7903 21.7819 101.91 16.6814C136.064 2.31075 165.818 2.21897 182.705 2.35009C210.686 2.55988 298.23 3.18925 347.445 66.6903C372.551 99.0898 396.2 158.841 368.283 203.631V203.618Z" fill="white"/>
</mask>
<g mask="url(#mask1_1480_81623)">
<path d="M159.014 86.5938H-36.8984V88.8228H159.014V86.5938Z" fill="#861812"/>
<path d="M-36.8984 88.875L-26.0261 91.9956H148.129L159.014 88.875H-36.8984Z" fill="#411C16"/>
<path d="M146.147 71.8027H148.707C148.865 71.8027 148.983 71.9207 148.983 72.065V86.8159C148.983 86.9601 148.865 87.0781 148.707 87.0781H146.147C145.989 87.0781 145.871 86.9601 145.871 86.8159V72.065C145.871 71.9207 145.989 71.8027 146.147 71.8027Z" fill="#1B253C"/>
<path d="M143.022 70.2168H145.582C145.74 70.2168 145.858 70.3348 145.858 70.479V86.8165C145.858 86.9607 145.74 87.0787 145.582 87.0787H143.022C142.864 87.0787 142.746 86.9607 142.746 86.8165V70.479C142.746 70.3348 142.864 70.2168 143.022 70.2168Z" fill="#0C9B94"/>
<path d="M142.481 69.168H139.92C139.768 69.168 139.645 69.2912 139.645 69.4433V86.8166C139.645 86.9687 139.768 87.092 139.92 87.092H142.481C142.633 87.092 142.757 86.9687 142.757 86.8166V69.4433C142.757 69.2912 142.633 69.168 142.481 69.168Z" fill="#26516B"/>
<path d="M136.823 72.8516H139.383C139.541 72.8516 139.659 72.9696 139.659 73.1138V86.8157C139.659 86.96 139.541 87.078 139.383 87.078H136.823C136.665 87.078 136.547 86.96 136.547 86.8157V73.1138C136.547 72.9696 136.665 72.8516 136.823 72.8516Z" fill="#A02A36"/>
<path d="M136.33 69.6914H133.743C133.598 69.6914 133.48 69.8088 133.48 69.9536V86.8287C133.48 86.9735 133.598 87.0909 133.743 87.0909H136.33C136.475 87.0909 136.592 86.9735 136.592 86.8287V69.9536C136.592 69.8088 136.475 69.6914 136.33 69.6914Z" fill="#623314"/>
<path d="M130.756 71.8027H133.317C133.474 71.8027 133.592 71.9207 133.592 72.065V86.8159C133.592 86.9601 133.474 87.0781 133.317 87.0781H130.756C130.599 87.0781 130.48 86.9601 130.48 86.8159V72.065C130.48 71.9207 130.599 71.8027 130.756 71.8027Z" fill="#C2AE11"/>
<path d="M130.192 70.2168H127.631C127.479 70.2168 127.355 70.3401 127.355 70.4921V86.8034C127.355 86.9554 127.479 87.0787 127.631 87.0787H130.192C130.344 87.0787 130.467 86.9554 130.467 86.8034V70.4921C130.467 70.3401 130.344 70.2168 130.192 70.2168Z" fill="#A02A36"/>
<path d="M124.537 69.168H127.098C127.256 69.168 127.374 69.286 127.374 69.4302V86.8297C127.374 86.974 127.256 87.092 127.098 87.092H124.537C124.38 87.092 124.262 86.974 124.262 86.8297V69.4302C124.262 69.286 124.38 69.168 124.537 69.168Z" fill="#29275D"/>
<path d="M121.432 72.8516H123.993C124.15 72.8516 124.268 72.9696 124.268 73.1138V86.8157C124.268 86.96 124.15 87.078 123.993 87.078H121.432C121.274 87.078 121.156 86.96 121.156 86.8157V73.1138C121.156 72.9696 121.274 72.8516 121.432 72.8516Z" fill="#A02A36"/>
<path d="M118.362 69.6914H120.922C121.08 69.6914 121.198 69.8094 121.198 69.9536V86.8156C121.198 86.9598 121.08 87.0778 120.922 87.0778H118.362C118.204 87.0778 118.086 86.9598 118.086 86.8156V69.9536C118.086 69.8094 118.204 69.6914 118.362 69.6914Z" fill="#1D251A"/>
<path d="M115.354 71.8027H117.914C118.072 71.8027 118.19 71.9207 118.19 72.065V86.8159C118.19 86.9601 118.072 87.0781 117.914 87.0781H115.354C115.196 87.0781 115.078 86.9601 115.078 86.8159V72.065C115.078 71.9207 115.196 71.8027 115.354 71.8027Z" fill="#C2AE11"/>
<path d="M112.241 70.2168H114.801C114.959 70.2168 115.077 70.3348 115.077 70.479V86.8165C115.077 86.9607 114.959 87.0787 114.801 87.0787H112.241C112.083 87.0787 111.965 86.9607 111.965 86.8165V70.479C111.965 70.3348 112.083 70.2168 112.241 70.2168Z" fill="#A02A36"/>
<path d="M109.143 69.168H111.703C111.861 69.168 111.979 69.286 111.979 69.4302V86.8297C111.979 86.974 111.861 87.092 111.703 87.092H109.143C108.985 87.092 108.867 86.974 108.867 86.8297V69.4302C108.867 69.286 108.985 69.168 109.143 69.168Z" fill="#29275D"/>
<path d="M106.045 72.8516H108.606C108.763 72.8516 108.882 72.9696 108.882 73.1138V86.8157C108.882 86.96 108.763 87.078 108.606 87.078H106.045C105.888 87.078 105.77 86.96 105.77 86.8157V73.1138C105.77 72.9696 105.888 72.8516 106.045 72.8516Z" fill="#A02A36"/>
<path d="M102.971 69.6914H105.532C105.689 69.6914 105.807 69.8094 105.807 69.9536V86.8156C105.807 86.9598 105.689 87.0778 105.532 87.0778H102.971C102.813 87.0778 102.695 86.9598 102.695 86.8156V69.9536C102.695 69.8094 102.813 69.6914 102.971 69.6914Z" fill="#623314"/>
<path d="M99.9672 71.8027H102.528C102.685 71.8027 102.803 71.9207 102.803 72.065V86.8159C102.803 86.9601 102.685 87.0781 102.528 87.0781H99.9672C99.8096 87.0781 99.6914 86.9601 99.6914 86.8159V72.065C99.6914 71.9207 99.8096 71.8027 99.9672 71.8027Z" fill="#1B253C"/>
<path d="M96.8539 70.2168H99.4144C99.572 70.2168 99.6901 70.3348 99.6901 70.479V86.8165C99.6901 86.9607 99.572 87.0787 99.4144 87.0787H96.8539C96.6963 87.0787 96.5781 86.9607 96.5781 86.8165V70.479C96.5781 70.3348 96.6963 70.2168 96.8539 70.2168Z" fill="#A02A36"/>
<path d="M93.7484 69.168H96.3089C96.4665 69.168 96.5847 69.286 96.5847 69.4302V86.8297C96.5847 86.974 96.4665 87.092 96.3089 87.092H93.7484C93.5908 87.092 93.4727 86.974 93.4727 86.8297V69.4302C93.4727 69.286 93.5908 69.168 93.7484 69.168Z" fill="#29275D"/>
<path d="M90.6586 72.8516H93.2191C93.3767 72.8516 93.4948 72.9696 93.4948 73.1138V86.8157C93.4948 86.96 93.3767 87.078 93.2191 87.078H90.6586C90.501 87.078 90.3828 86.96 90.3828 86.8157V73.1138C90.3828 72.9696 90.501 72.8516 90.6586 72.8516Z" fill="#A02A36"/>
<path d="M87.5765 69.6914H90.1371C90.2946 69.6914 90.4128 69.8094 90.4128 69.9536V86.8156C90.4128 86.9598 90.2946 87.0778 90.1371 87.0778H87.5765C87.419 87.0778 87.3008 86.9598 87.3008 86.8156V69.9536C87.3008 69.8094 87.419 69.6914 87.5765 69.6914Z" fill="#1D251A"/>
<path d="M84.5765 71.8027H87.137C87.2946 71.8027 87.4128 71.9207 87.4128 72.065V86.8159C87.4128 86.9601 87.2946 87.0781 87.137 87.0781H84.5765C84.419 87.0781 84.3008 86.9601 84.3008 86.8159V72.065C84.3008 71.9207 84.419 71.8027 84.5765 71.8027Z" fill="#911F81"/>
<path d="M81.4632 70.2168H84.0238C84.1813 70.2168 84.2995 70.3348 84.2995 70.479V86.8165C84.2995 86.9607 84.1813 87.0787 84.0238 87.0787H81.4632C81.3057 87.0787 81.1875 86.9607 81.1875 86.8165V70.479C81.1875 70.3348 81.3057 70.2168 81.4632 70.2168Z" fill="#D46626"/>
<path d="M78.3695 69.168H80.93C81.0876 69.168 81.2058 69.286 81.2058 69.4302V86.8297C81.2058 86.974 81.0876 87.092 80.93 87.092H78.3695C78.2119 87.092 78.0938 86.974 78.0938 86.8297V69.4302C78.0938 69.286 78.2119 69.168 78.3695 69.168Z" fill="#26516B"/>
<path d="M75.2523 72.8516H77.8128C77.9704 72.8516 78.0886 72.9696 78.0886 73.1138V86.8157C78.0886 86.96 77.9704 87.078 77.8128 87.078H75.2523C75.0947 87.078 74.9766 86.96 74.9766 86.8157V73.1138C74.9766 72.9696 75.0947 72.8516 75.2523 72.8516Z" fill="#A02A36"/>
<path d="M72.1976 69.6914H74.7581C74.9157 69.6914 75.0339 69.8094 75.0339 69.9536V86.8156C75.0339 86.9598 74.9157 87.0778 74.7581 87.0778H72.1976C72.0401 87.0778 71.9219 86.9598 71.9219 86.8156V69.9536C71.9219 69.8094 72.0401 69.6914 72.1976 69.6914Z" fill="#623314"/>
<path d="M71.7596 71.8027H69.1728C69.0277 71.8027 68.9102 71.9201 68.9102 72.065V86.829C68.9102 86.9738 69.0277 87.0912 69.1728 87.0912H71.7596C71.9046 87.0912 72.0222 86.9738 72.0222 86.829V72.065C72.0222 71.9201 71.9046 71.8027 71.7596 71.8027Z" fill="#1B253C"/>
<path d="M66.0687 70.2168H68.6292C68.7868 70.2168 68.905 70.3348 68.905 70.479V86.8165C68.905 86.9607 68.7868 87.0787 68.6292 87.0787H66.0687C65.9111 87.0787 65.793 86.9607 65.793 86.8165V70.479C65.793 70.3348 65.9111 70.2168 66.0687 70.2168Z" fill="#0C9B94"/>
<path d="M62.975 69.168H65.5355C65.6931 69.168 65.8112 69.286 65.8112 69.4302V86.8297C65.8112 86.974 65.6931 87.092 65.5355 87.092H62.975C62.8174 87.092 62.6992 86.974 62.6992 86.8297V69.4302C62.6992 69.286 62.8174 69.168 62.975 69.168Z" fill="#29275D"/>
<path d="M59.8617 72.8516H62.4222C62.5798 72.8516 62.698 72.9696 62.698 73.1138V86.8157C62.698 86.96 62.5798 87.078 62.4222 87.078H59.8617C59.7041 87.078 59.5859 86.96 59.5859 86.8157V73.1138C59.5859 72.9696 59.7041 72.8516 59.8617 72.8516Z" fill="#03996E"/>
<path d="M56.807 69.6914H59.3675C59.5251 69.6914 59.6433 69.8094 59.6433 69.9536V86.8156C59.6433 86.9598 59.5251 87.0778 59.3675 87.0778H56.807C56.6494 87.0778 56.5312 86.9598 56.5312 86.8156V69.9536C56.5312 69.8094 56.6494 69.6914 56.807 69.6914Z" fill="#1D251A"/>
<path d="M56.3558 71.8027H53.7953C53.643 71.8027 53.5195 71.926 53.5195 72.0781V86.8159C53.5195 86.968 53.643 87.0912 53.7953 87.0912H56.3558C56.5081 87.0912 56.6316 86.968 56.6316 86.8159V72.0781C56.6316 71.926 56.5081 71.8027 56.3558 71.8027Z" fill="#C2AE11"/>
<path d="M50.682 70.2168H53.2425C53.4001 70.2168 53.5183 70.3348 53.5183 70.479V86.8165C53.5183 86.9607 53.4001 87.0787 53.2425 87.0787H50.682C50.5244 87.0787 50.4062 86.9607 50.4062 86.8165V70.479C50.4062 70.3348 50.5244 70.2168 50.682 70.2168Z" fill="#A02A36"/>
<path d="M47.5843 69.168H50.1449C50.3024 69.168 50.4206 69.286 50.4206 69.4302V86.8297C50.4206 86.974 50.3024 87.092 50.1449 87.092H47.5843C47.4268 87.092 47.3086 86.974 47.3086 86.8297V69.4302C47.3086 69.286 47.4268 69.168 47.5843 69.168Z" fill="#26516B"/>
<path d="M44.475 72.8516H47.0355C47.1931 72.8516 47.3112 72.9696 47.3112 73.1138V86.8157C47.3112 86.96 47.1931 87.078 47.0355 87.078H44.475C44.3174 87.078 44.1992 86.96 44.1992 86.8157V73.1138C44.1992 72.9696 44.3174 72.8516 44.475 72.8516Z" fill="#03996E"/>
<path d="M43.9861 69.6914H41.3993C41.2543 69.6914 41.1367 69.8088 41.1367 69.9536V86.8287C41.1367 86.9735 41.2543 87.0909 41.3993 87.0909H43.9861C44.1312 87.0909 44.2487 86.9735 44.2487 86.8287V69.9536C44.2487 69.8088 44.1312 69.6914 43.9861 69.6914Z" fill="#1D251A"/>
<path d="M38.4086 71.8027H40.9691C41.1267 71.8027 41.2448 71.9207 41.2448 72.065V86.8159C41.2448 86.9601 41.1267 87.0781 40.9691 87.0781H38.4086C38.251 87.0781 38.1328 86.9601 38.1328 86.8159V72.065C38.1328 71.9207 38.251 71.8027 38.4086 71.8027Z" fill="#26516B"/>
<path d="M35.2992 70.2168H37.8597C38.0173 70.2168 38.1355 70.3348 38.1355 70.479V86.8165C38.1355 86.9607 38.0173 87.0787 37.8597 87.0787H35.2992C35.1416 87.0787 35.0234 86.9607 35.0234 86.8165V70.479C35.0234 70.3348 35.1416 70.2168 35.2992 70.2168Z" fill="#A02A36"/>
<path d="M34.7635 69.168H32.1767C32.0316 69.168 31.9141 69.2854 31.9141 69.4302V86.8297C31.9141 86.9746 32.0316 87.092 32.1767 87.092H34.7635C34.9085 87.092 35.0261 86.9746 35.0261 86.8297V69.4302C35.0261 69.2854 34.9085 69.168 34.7635 69.168Z" fill="#29275D"/>
<path d="M29.0882 72.8516H31.6488C31.8063 72.8516 31.9245 72.9696 31.9245 73.1138V86.8157C31.9245 86.96 31.8063 87.078 31.6488 87.078H29.0882C28.9307 87.078 28.8125 86.96 28.8125 86.8157V73.1138C28.8125 72.9696 28.9307 72.8516 29.0882 72.8516Z" fill="#0C9B94"/>
<path d="M26.0218 69.6914H28.5824C28.7399 69.6914 28.8581 69.8094 28.8581 69.9536V86.8156C28.8581 86.9598 28.7399 87.0778 28.5824 87.0778H26.0218C25.8643 87.0778 25.7461 86.9598 25.7461 86.8156V69.9536C25.7461 69.8094 25.8643 69.6914 26.0218 69.6914Z" fill="#1D251A"/>
<path d="M23.014 71.8027H25.5746C25.7321 71.8027 25.8503 71.9207 25.8503 72.065V86.8159C25.8503 86.9601 25.7321 87.0781 25.5746 87.0781H23.014C22.8565 87.0781 22.7383 86.9601 22.7383 86.8159V72.065C22.7383 71.9207 22.8565 71.8027 23.014 71.8027Z" fill="#911F81"/>
<path d="M19.9047 70.2168H22.4652C22.6227 70.2168 22.7409 70.3348 22.7409 70.479V86.8165C22.7409 86.9607 22.6227 87.0787 22.4652 87.0787H19.9047C19.7471 87.0787 19.6289 86.9607 19.6289 86.8165V70.479C19.6289 70.3348 19.7471 70.2168 19.9047 70.2168Z" fill="#A02A36"/>
<path d="M19.3846 69.168H16.7978C16.6527 69.168 16.5352 69.2854 16.5352 69.4302V86.8297C16.5352 86.9746 16.6527 87.092 16.7978 87.092H19.3846C19.5296 87.092 19.6472 86.9746 19.6472 86.8297V69.4302C19.6472 69.2854 19.5296 69.168 19.3846 69.168Z" fill="#29275D"/>
<path d="M13.6937 72.8516H16.2542C16.4118 72.8516 16.53 72.9696 16.53 73.1138V86.8157C16.53 86.96 16.4118 87.078 16.2542 87.078H13.6937C13.5361 87.078 13.418 86.96 13.418 86.8157V73.1138C13.418 72.9696 13.5361 72.8516 13.6937 72.8516Z" fill="#A02A36"/>
<path d="M10.6234 69.6914H13.1839C13.3415 69.6914 13.4597 69.8094 13.4597 69.9536V86.8156C13.4597 86.9598 13.3415 87.0778 13.1839 87.0778H10.6234C10.4658 87.0778 10.3477 86.9598 10.3477 86.8156V69.9536C10.3477 69.8094 10.4658 69.6914 10.6234 69.6914Z" fill="#623314"/>
<path d="M7.63122 71.8027H10.1917C10.3493 71.8027 10.4675 71.9207 10.4675 72.065V86.8159C10.4675 86.9601 10.3493 87.0781 10.1917 87.0781H7.63122C7.47365 87.0781 7.35547 86.9601 7.35547 86.8159V72.065C7.35547 71.9207 7.47365 71.8027 7.63122 71.8027Z" fill="#C2AE11"/>
<path d="M4.51403 70.2168H7.07456C7.23213 70.2168 7.3503 70.3348 7.3503 70.479V86.8165C7.3503 86.9607 7.23213 87.0787 7.07456 87.0787H4.51403C4.35646 87.0787 4.23828 86.9607 4.23828 86.8165V70.479C4.23828 70.3348 4.35646 70.2168 4.51403 70.2168Z" fill="#A02A36"/>
<path d="M3.99394 69.168H1.40715C1.26211 69.168 1.14453 69.2854 1.14453 69.4302V86.8297C1.14453 86.9746 1.26211 87.092 1.40715 87.092H3.99394C4.13898 87.092 4.25655 86.9746 4.25655 86.8297V69.4302C4.25655 69.2854 4.13898 69.168 3.99394 69.168Z" fill="#29275D"/>
<path d="M-1.693 72.8516H0.867522C1.02509 72.8516 1.14327 72.9696 1.14327 73.1138V86.8157C1.14327 86.96 1.02509 87.078 0.867522 87.078H-1.693C-1.85057 87.078 -1.96875 86.96 -1.96875 86.8157V73.1138C-1.96875 72.9696 -1.85057 72.8516 -1.693 72.8516Z" fill="#D46626"/>
<path opacity="0.11" d="M199.017 21.4662H169C124.67 93.5555 80.3533 165.645 36.0234 237.734C44.5191 244.723 51.9906 247.411 57.2824 248.565C61.0247 249.378 63.0205 249.299 71.0435 250.649C79.0928 252.013 84.739 253.39 87.2996 253.98C105.906 258.281 133.783 260.51 140.65 261.06C162.224 262.791 178.796 262.765 184.009 262.725C190.64 262.686 213.29 262.385 243.623 258.556C266.064 255.724 295.148 250.663 328.659 241.051C285.445 167.848 242.231 94.6438 199.017 21.4531V21.4662Z" fill="#FFF8C6"/>
</g>
<path d="M218.095 61.1348H188.301V102.686H218.095V61.1348Z" fill="#A02A36"/>
<path opacity="0.39" d="M214.376 81.2884C214.376 88.9982 209.307 95.2526 203.057 95.2526C196.807 95.2526 191.738 88.9982 191.738 81.2884C191.738 73.5786 196.807 67.3242 203.057 67.3242C209.307 67.3242 214.376 73.5786 214.376 81.2884Z" fill="#A02A36"/>
<path d="M209.398 80.3046C209.28 80.2521 209.083 80.2259 209.083 80.1341C209.083 80.0423 209.201 80.0161 209.477 79.8588C209.503 79.8457 210.79 79.1901 210.829 77.1446C210.869 74.9418 208.926 73.906 208.295 73.6437C208.177 73.5913 207.993 73.5388 207.757 73.5126L205.905 73.4208L206.024 70.0117H203.975L203.857 73.4208H202.308L202.426 70.0117H200.207L200.088 73.4208H196.149L196.07 75.5318L198.408 75.5712C198.513 75.5712 198.591 75.663 198.591 75.7678L198.211 86.3492C198.211 86.3492 198.158 86.4541 198.106 86.4541H195.952L195.598 88.7355H199.734L199.616 92.1446H201.717L201.835 88.7355H203.424L203.305 92.1446H205.446L205.577 88.67H206.365C206.575 88.67 208.098 88.5651 208.453 88.4209C208.558 88.3815 211.525 87.4506 211.709 84.3037C211.88 81.4715 209.516 80.3701 209.398 80.3177V80.3046ZM202.202 75.5843H204.868C204.868 75.5843 206.864 75.9776 206.811 77.6429C206.746 79.4392 204.789 79.8457 204.789 79.8457H202.045L202.202 75.5843ZM204.553 86.4278H201.809L201.979 81.76H204.645C204.645 81.76 207.783 82.0878 207.704 84.0939C207.626 86.2443 204.54 86.4278 204.54 86.4278H204.553Z" fill="#A02A36"/>
<path d="M217.618 61.6055H187.824V103.157H217.618V61.6055Z" fill="#EDD541"/>
<path opacity="0.39" d="M213.899 81.7728C213.899 89.4826 208.831 95.737 202.581 95.737C196.33 95.737 191.262 89.4826 191.262 81.7728C191.262 74.063 196.33 67.8086 202.581 67.8086C208.831 67.8086 213.899 74.063 213.899 81.7728Z" fill="#A02A36"/>
<path d="M208.922 80.7753C208.803 80.7228 208.607 80.6966 208.607 80.6048C208.607 80.513 208.725 80.4868 209 80.3295C209.027 80.3164 210.314 79.6608 210.353 77.6153C210.392 75.4125 208.449 74.3767 207.819 74.1144C207.7 74.062 207.517 74.0095 207.28 73.9833L205.429 73.8915L205.547 70.4824H203.499L203.38 73.8915H201.831L201.949 70.4824H199.73L199.612 73.8915H195.673L195.594 76.0025L197.931 76.0419C198.036 76.0419 198.115 76.1337 198.115 76.2386L197.734 86.8199C197.734 86.8199 197.682 86.9248 197.629 86.9248H195.476L195.121 89.2062H199.257L199.139 92.6153H201.24L201.358 89.2062H202.947L202.829 92.6153H204.969L205.101 89.1407H205.888C206.099 89.1407 207.622 89.0358 207.976 88.8916C208.081 88.8522 211.049 87.9213 211.233 84.7744C211.403 81.9422 209.04 80.8408 208.922 80.7884V80.7753ZM201.726 76.055H204.392C204.392 76.055 206.387 76.4483 206.335 78.1136C206.269 79.9099 204.313 80.3164 204.313 80.3164H201.568L201.726 76.055ZM204.076 86.8985H201.332L201.503 82.2307H204.168C204.168 82.2307 207.307 82.5585 207.228 84.5646C207.149 86.715 204.063 86.8985 204.063 86.8985H204.076Z" fill="#0C9B94"/>
<path d="M292.22 118.837C291.708 118.063 290.527 116.306 288.426 115.716C285.405 114.864 282.582 117.014 282.188 117.316C280.731 118.456 280.009 119.82 279.063 122.023C277.277 126.232 276.385 128.33 275.781 131.87C273.548 144.72 277.12 149.007 273.837 153.754C271.539 157.084 268.65 156.625 260.352 159.641C256.596 161.005 250.714 164.374 238.935 171.088C224.557 179.296 216.153 184.868 210.271 182.875C209.548 182.626 207.093 181.669 206.226 182.626C205.425 183.505 206.371 185.563 207.158 187.255C209.036 191.28 211.492 193.902 212.385 194.833C215.444 197.98 218.543 200.091 219.974 200.891C222.929 202.556 230.072 205.087 247.457 198.95C262.571 193.614 280.114 187.438 288.426 170.498C289.896 167.508 291.039 161.595 293.31 149.794C293.573 148.404 297.578 126.979 292.22 118.824V118.837Z" fill="#A72133"/>
<path d="M278.831 122.599C275.194 123.058 271.36 123.687 263.442 121.943C257.533 120.645 257.428 119.465 247.632 117.655C240.66 116.357 237.705 116.724 235.499 118.416C233.241 120.147 232.571 122.651 232.466 123.084C231.77 125.85 232.689 128.46 235.749 133.809C240.936 142.883 242.209 142.253 243.837 146.816C244.507 148.704 246.267 154.329 244.35 160.453C243.706 162.498 242.971 164.858 240.804 166.13C239.386 166.969 237.351 167.336 230.562 165.252C221.62 162.498 221.213 160.649 217.917 160.964C211.365 161.593 207.504 169.474 207.045 170.431C206.48 171.611 202.895 179.163 206.795 184.828C208.791 187.726 211.824 188.774 213.242 189.246C220.898 191.777 228.501 187.424 231.705 185.588C235.368 183.49 234.278 183.294 244.1 175.361C252.412 168.648 254.999 167.323 258.255 167.022C259.949 166.864 263.704 166.524 267.486 168.412C270.441 169.893 271.531 171.808 274.564 172.07C275.128 172.122 277.584 172.28 279.619 170.811C281.497 169.461 282.193 167.323 282.902 162.734C284.084 155.169 283.703 152.192 282.941 148.128C282.849 147.669 281.654 141.073 279.212 134.806C278.043 131.816 277.492 128.604 278.227 125.365C278.529 124.041 278.897 122.599 278.831 122.612V122.599Z" fill="#D62E3C"/>
<path d="M293.143 120.816C294.469 120.895 295.126 131.804 295.034 139.75C294.942 148.679 294.666 162.617 288.074 178.889C284.713 187.176 281.667 194.466 274.169 200.983C267.643 206.647 261.038 208.876 258.74 209.571C256.718 210.187 249.023 212.351 239.136 210.712C235.511 210.109 227.987 208.391 220.674 203.015C216.143 199.685 213.176 196.039 213.465 195.699C213.793 195.305 217.772 198.885 224.206 200.629C226.543 201.258 232.426 201.415 236.982 199.619C242.418 197.469 246.358 190.978 247.093 190.034C250.783 185.353 251.4 184.514 255.562 180.423C257.361 178.653 259.659 177.617 263.914 177.014C268.089 176.424 269.796 177.211 272.895 176.634C278.751 175.546 282.638 171.586 283.636 170.576C289.611 164.505 289.781 155.655 289.952 146.844C290.083 140.497 289.243 135.659 290.963 127.149C291.344 125.274 292.25 120.79 293.117 120.843L293.143 120.816Z" fill="#7A1429"/>
<path d="M246.244 211.316V219.393L222.215 232.466V235.56H225.13V233.725L245.864 224.192H251.326L270.839 233.41V235.56H275.132V232.335L250.289 219.393V211.316H246.244Z" fill="#A93031"/>
<path d="M246.622 224.191V229.843H245.992V232.085H251.323V229.908H250.535L250.601 224.191H246.622Z" fill="#7A1429"/>
<path d="M277.005 106.748C281.155 103.522 283.978 103.103 287.641 102.041C290.662 101.162 295.901 100.546 303.687 101.765C316.542 103.771 319.825 101.529 322.714 100.389C327.389 98.5398 331.512 95.3011 331.118 94.4226C330.829 93.7801 328.282 94.7111 323.594 95.4191C319.116 96.0878 317.79 95.7863 305.67 95.9174C298.829 95.9961 295.402 96.0354 294.443 96.1927C291.856 96.6254 283.755 98.2644 278.24 104.086C277.36 105.017 275.18 107.495 275.535 107.902C275.758 108.164 276.585 107.076 277.005 106.748Z" fill="#665243"/>
<path d="M281.539 112.505C283.981 112.295 285.425 111.836 287.566 112.033C291.045 112.36 294.223 112.387 300.145 115.455C307.354 119.192 306.001 120.214 310.151 121.644C315.863 123.61 321.365 122.679 325.251 122.024C328.941 121.408 331.003 120.529 331.83 120.149C335.73 118.366 338.12 114.668 337.581 113.409C337.279 112.701 335.756 113.58 334.574 113.645C318.384 114.655 320.235 115.796 315.456 115.835C311.07 115.874 312.711 114.209 302.456 111.639C298.175 110.564 295.379 110.328 289.785 109.869C289.785 109.869 282.143 109.24 280.331 111.469C280.212 111.613 279.871 112.046 280.002 112.347C280.199 112.819 280.803 112.544 281.525 112.491L281.539 112.505Z" fill="#665243"/>
<path d="M279.516 120.359C279.188 124.607 279.424 126.626 279.359 131.805C279.306 135.896 280.527 139.122 281.762 142.413C283.219 146.281 283.771 145.875 285.163 149.375C286.266 152.142 287.71 158.829 285.36 165.057C284.388 167.627 281.578 171.797 278.991 171.836C278.479 171.836 279.608 170.499 276.536 162.71C274.527 157.623 271.401 149.415 272.465 137.522C272.623 135.831 273.949 122.05 278.111 121.447C278.19 121.447 279.582 119.48 279.516 120.359Z" fill="#665243"/>
<path d="M255.076 115.913C257.216 113.225 257.742 111.259 263.046 109.672C267.419 108.361 267.577 109.672 272.619 107.246C274.641 106.276 275.6 106.014 277.438 104.231C282.822 98.999 288.547 95.8128 290.871 94.6721C290.871 94.6721 301.783 89.3617 316.213 92.4955C318.17 92.9151 321.453 93.8722 326.285 94.0034C329.397 94.0952 331.051 93.7805 331.156 94.1738C331.353 94.9474 325.195 98.0549 318.065 98.8679C311.171 99.6546 310.41 97.4911 302.452 97.7009C295.138 97.8845 290.175 99.8382 285.842 101.556C282.257 102.972 276.479 105.306 276.611 108.086C276.663 109.121 277.517 109.843 277.622 109.934C279.683 111.613 283.373 109.449 287.864 108.086C287.864 108.086 293.773 106.289 301.126 106.748C302.544 106.84 303.161 106.971 315.557 110.433C324.499 112.937 325.589 113.252 327.979 113.448C334.176 113.947 337.892 112.662 338.221 113.619C338.588 114.694 334.334 117.723 329.489 119.152C323.16 121.014 317.566 119.611 312.038 118.142C303.161 115.795 301.888 113.461 293.077 111.94C283.793 110.341 281.666 112.321 280.996 113.278C280.353 114.209 280.563 114.864 279.985 118.142C279.381 121.617 278.777 122.941 278.134 125.511C277.215 129.209 276.453 135.306 278.252 141.154C279.342 144.72 279.67 144.615 281.272 149.139C283.872 156.482 283.596 167.155 281.522 170.879C281.206 171.442 279.526 173.186 276.125 173.108C272.422 173.016 271.608 170.197 267.393 168.243C262.35 165.909 255.916 166.945 251.623 169.698C250.099 170.669 248.918 171.613 245.123 174.511C240.632 177.933 239.66 179.06 237.678 180.791C236.417 181.893 237.507 179.296 234.5 177.303C231.677 175.428 229.247 175.704 229.129 174.615C229.037 173.776 230.429 172.688 231.821 172.439C234.762 171.888 238.203 174.956 238.203 174.956C238.203 174.956 240.199 174.642 241.052 173.947C242.602 172.688 240.75 169.908 241.551 165.896C241.761 164.873 241.906 161.608 244.033 159.904C247.421 157.177 250.467 158.199 250.992 158.357C253.185 158.973 256.166 162.212 256.612 161.753C257.321 161.031 256.993 158.566 255.023 155.97C251.373 151.158 250.165 150.844 249.154 147.762C247.906 143.973 249.64 142.072 247.775 139.764C246.501 138.204 244.282 137.128 243.245 136.919C241.065 136.473 239.687 136.788 239.385 136.079C239.096 135.411 239.621 134.323 240.737 133.759C242.405 132.92 244.44 134.86 247.775 134.952C249.154 134.991 249.351 135.057 250.756 134.493C253.527 133.365 254.511 131.517 257.216 130.507C259.199 129.773 260.131 129.222 260.368 128.54C260.604 127.858 259.317 127.085 257.938 126.534C255.811 125.682 253.119 125.275 251.938 122.548C251.163 120.752 254.643 116.53 255.128 115.926L255.076 115.913Z" fill="#B08351"/>
<path d="M255.509 122.155C254.13 123.073 253.356 123.584 252.423 123.362C252.082 123.283 251.937 123.152 251.859 123.047C251.622 122.745 251.622 122.365 251.951 122.155C252.568 121.775 252.568 121.644 254.183 121.277C254.459 121.211 254.944 121.277 255.365 121.46C255.417 121.487 255.745 121.644 255.745 121.854C255.745 121.998 255.588 122.116 255.509 122.168V122.155Z" fill="#6A5645"/>
<path d="M277.269 118.956C276.809 118.773 275.93 121.369 273.553 123.651C272.109 125.027 270.69 125.762 269.745 126.247C268.366 126.942 265.911 128.056 264.466 127.951C264.204 127.925 263.626 127.925 263.508 128.069C263.508 128.069 264.02 128.476 264.755 128.672C265.438 128.856 266.055 128.987 266.804 128.935C269.666 128.764 271.99 127.859 272.936 127.256C274.827 126.05 275.641 124.503 276.022 123.926C276.494 123.205 277.335 121.736 277.427 119.835C277.466 119.074 277.348 118.996 277.295 118.97L277.269 118.956Z" fill="white"/>
<path d="M269.218 117.37C269.769 118.655 268.797 120.058 268.587 120.333C268.443 120.53 267.511 121.749 266.053 121.867C265.62 121.893 264.792 121.723 263.282 121.172C262.101 120.726 261.72 120.464 261.51 120.149C260.919 119.245 261.759 117.802 261.851 117.632C262.718 116.177 264.49 115.521 265.948 115.56C266.263 115.56 267.655 115.613 268.653 116.596C268.837 116.767 269.06 116.989 269.218 117.357V117.37Z" fill="white"/>
<path d="M269.218 117.369C269.769 118.654 268.798 120.057 268.588 120.333C268.443 120.529 267.091 121.368 266.46 121.277C265.961 121.211 265.462 121.041 264.911 120.647C264.478 120.333 264.425 120.005 264.32 119.638C264.202 119.205 264.359 118.562 264.425 118.392C264.78 117.553 265.554 116.661 266.04 116.386C266.316 116.228 267.642 115.625 268.64 116.609C268.824 116.779 269.047 117.002 269.205 117.369H269.218Z" fill="#1B1A33"/>
<path d="M261.312 120.529C261.141 120.647 260.944 120.647 260.708 120.634C260.432 120.634 260.13 120.608 260.051 120.451C259.973 120.28 260.196 120.031 260.393 119.808C260.642 119.533 260.892 119.389 261.102 119.284C261.312 119.166 261.417 119.113 261.509 119.139C261.89 119.231 262.034 120.201 261.811 120.333C261.745 120.372 261.68 120.333 261.522 120.385C261.404 120.424 261.364 120.49 261.299 120.542L261.312 120.529Z" fill="#6A5645"/>
</svg>
