<svg width="647" height="444" viewBox="0 0 647 444" fill="none" xmlns="http://www.w3.org/2000/svg">
<path d="M28.9948 368.998C-30.1139 295.354 18.6058 178.779 23.9003 166.582C29.8294 152.924 52.9113 103.109 107.108 61.979C241.191 -39.7811 458.935 -7.37085 575.109 94.9196C627.315 140.892 639.277 183.596 642.016 194.428C662.533 275.654 613.466 343.63 607.71 351.332C567.389 405.364 510.158 420.708 462.351 433.523C416.04 445.938 368.754 444.521 274.201 441.678C189.316 439.122 159.027 431.602 144.126 427.411C94.3977 413.44 56.0149 402.66 28.9948 368.998Z" fill="#1B263D"/>
<mask id="mask0_1480_80198" style="mask-type:luminance" maskUnits="userSpaceOnUse" x="0" y="0" width="647" height="444">
<path d="M28.987 369C-30.1217 295.355 18.598 178.781 23.8925 166.584C29.8216 152.926 52.9034 103.111 107.1 61.981C241.184 -39.7791 458.927 -7.3689 575.101 94.9215C627.307 140.894 639.269 183.598 642.008 194.43C662.525 275.655 613.458 343.632 607.703 351.334C567.381 405.366 510.15 420.71 462.343 433.525C416.032 445.94 368.747 444.523 274.194 441.68C189.308 439.124 159.019 431.604 144.118 427.413C94.3899 413.442 56.0071 402.662 28.987 369Z" fill="white"/>
</mask>
<g mask="url(#mask0_1480_80198)">
<g style="mix-blend-mode:lighten" opacity="0.19">
<path d="M296.308 49.2949L15.1875 370.181C15.3353 370.267 94.9612 434.514 95.109 434.601C115.131 446.651 131.414 464.829 150.001 478.643C242.694 547.559 388.357 557.643 487.092 495.083C489.752 493.397 492.378 491.658 494.977 489.876C516.807 474.879 537.481 458.283 559.189 443.112C564.336 439.513 635.694 365.781 640.893 362.434L356.512 49.2949H296.308Z" fill="#FFF8C6"/>
</g>
<path d="M22.1995 358.471C75.8137 328.521 102.625 313.542 189.754 296.441C354.491 278.367 433.526 282.861 507.136 293.859C581.963 305.039 673.134 374.711 673.134 374.711C620.528 398.166 574.903 413.198 541.215 422.874C294.383 493.806 128.141 438.549 84.351 418.918C66.7461 411.024 10.4977 384.856 14.2882 366.965C15.2532 362.426 19.7913 359.81 22.1995 358.462V358.471Z" fill="#1B263D"/>
</g>
<path d="M326.352 38.3926C332.246 38.3926 337.028 43.1741 337.028 49.0685C337.028 54.9628 332.246 59.7444 326.352 59.7444C320.457 59.7444 315.676 54.9628 315.676 49.0685C315.676 43.1741 320.457 38.3926 326.352 38.3926Z" fill="white"/>
<path d="M296.364 49.3234H356.568C356.568 49.3234 341.085 33.8398 326.749 33.8398C312.413 33.8398 296.355 49.3234 296.355 49.3234H296.364Z" fill="#861812"/>
<path d="M326.43 4.45312V35.4202" stroke="#861812" stroke-miterlimit="10"/>
<mask id="mask1_1480_80198" style="mask-type:luminance" maskUnits="userSpaceOnUse" x="0" y="0" width="647" height="444">
<path d="M28.987 368.998C-30.1217 295.354 18.598 178.779 23.8925 166.582C29.8216 152.924 52.9034 103.109 107.1 61.979C241.184 -39.7811 458.927 -7.37085 575.101 94.9196C627.307 140.892 639.269 183.596 642.008 194.428C662.525 275.654 613.458 343.63 607.703 351.332C567.381 405.364 510.15 420.708 462.343 433.523C416.032 445.938 368.747 444.521 274.194 441.678C189.308 439.122 159.019 431.602 144.118 427.411C94.3899 413.44 56.0071 402.66 28.987 368.998Z" fill="white"/>
</mask>
<g mask="url(#mask1_1480_80198)">
<path d="M6.08203 441.644C27.0774 423.379 48.0727 405.113 69.0594 386.848C72.1805 387.213 75.3015 387.578 78.4313 387.943L56.7143 416.606L69.4767 416.519C84.2821 401.879 99.0876 387.23 113.893 372.59H125.777L89.255 416.258H122.508L132.915 403.192C136.036 403.4 139.157 403.6 142.287 403.809C140.435 408.182 138.583 412.555 136.731 416.928C143.426 416.702 150.111 416.484 156.805 416.258C159.918 409.616 163.03 402.983 166.142 396.341L174.358 399.323L166.142 425.413L314.909 428.795L320.708 380.119L326.933 378.119L330.671 382.188L329.602 436.332L331.932 425.83L333.488 410.477L343.694 411.399L346.685 432.803L506.311 428.777H526.097L506.311 382.179L515.726 383.04L546.423 428.777L640.116 489.26L23.739 464.126C17.8533 456.632 11.9677 449.138 6.08203 441.644Z" fill="#1F2734"/>
<path d="M25.7526 393.289C233.098 394.75 440.444 396.21 647.78 397.679C656.265 418.353 664.742 439.027 673.227 459.7L14.5898 430.368L25.7526 400.088V393.289Z" fill="#1F2734"/>
<path d="M166.141 397.862L168.627 399.323V293.938H166.141V397.862Z" fill="#871811"/>
<path d="M168.633 399.324H176.109V293.939H168.633V399.324Z" fill="#A92B27"/>
<path d="M116.602 371.355L119.088 372.815V267.43H116.602V371.355Z" fill="#871811"/>
<path d="M119.086 372.816H126.562L126.563 267.431H119.086L119.086 372.816Z" fill="#A92B27"/>
<path d="M333.496 409.956L335.983 411.417V306.031H333.496V409.956Z" fill="#871811"/>
<path d="M335.996 411.418H343.473V306.033H335.996V411.418Z" fill="#A92B27"/>
<path d="M576.75 409.956L579.245 411.417V306.031H576.75V409.956Z" fill="#871811"/>
<path d="M579.242 411.418H586.719V306.033H579.242V411.418Z" fill="#A92B27"/>
<path d="M320.711 380.737L323.197 382.207V276.812H320.711V380.737Z" fill="#871811"/>
<path d="M323.203 382.207H330.68V276.822H323.203V382.207Z" fill="#A92B27"/>
<path d="M506.316 380.737L508.812 382.207V276.812H506.316V380.737Z" fill="#871811"/>
<path d="M508.801 382.207H516.277V276.822H508.801V382.207Z" fill="#A92B27"/>
<path d="M106.223 260.537C131.939 276.734 157.663 292.93 183.38 309.126L606.643 309.031C581.257 293.478 555.88 277.933 530.494 262.38C389.073 261.763 247.652 261.146 106.231 260.537H106.223Z" fill="#D2222D"/>
<path d="M106.248 260.016C132.042 276.403 157.845 292.782 183.639 309.17V316.777C157.836 299.911 132.033 283.054 106.23 266.188C106.23 264.128 106.248 262.076 106.248 260.016Z" fill="#871811"/>
<path d="M183.645 309.16H606.647V316.767H183.645V309.821" fill="#A92B27"/>
</g>
<path d="M591.639 108.883H416.156V116.742H591.639V108.883Z" fill="#871811"/>
<path d="M416.147 116.762L397.203 119.918L578.398 120.039L591.63 116.762H416.147Z" fill="#411B17"/>
<path d="M447.393 67.1367H441.273C440.913 67.1367 440.621 67.4286 440.621 67.7887V108.345C440.621 108.705 440.913 108.997 441.273 108.997H447.393C447.754 108.997 448.046 108.705 448.046 108.345V67.7887C448.046 67.4286 447.754 67.1367 447.393 67.1367Z" fill="#079C94"/>
<path d="M454.78 64.5195H448.66C448.3 64.5195 448.008 64.8115 448.008 65.1716V108.353C448.008 108.713 448.3 109.005 448.66 109.005H454.78C455.14 109.005 455.432 108.713 455.432 108.353V65.1716C455.432 64.8115 455.14 64.5195 454.78 64.5195Z" fill="#28225F"/>
<path d="M462.179 73.6914H456.058C455.698 73.6914 455.406 73.9833 455.406 74.3434V108.353C455.406 108.713 455.698 109.005 456.058 109.005H462.179C462.539 109.005 462.831 108.713 462.831 108.353V74.3434C462.831 73.9833 462.539 73.6914 462.179 73.6914Z" fill="#A02935"/>
<path d="M469.491 65.832H463.371C463.011 65.832 462.719 66.124 462.719 66.4841V108.353C462.719 108.713 463.011 109.005 463.371 109.005H469.491C469.851 109.005 470.143 108.713 470.143 108.353V66.4841C470.143 66.124 469.851 65.832 469.491 65.832Z" fill="#1C2518"/>
<path d="M476.64 71.0664H470.519C470.159 71.0664 469.867 71.3583 469.867 71.7184V108.345C469.867 108.705 470.159 108.997 470.519 108.997H476.64C477 108.997 477.292 108.705 477.292 108.345V71.7184C477.292 71.3583 477 71.0664 476.64 71.0664Z" fill="#24506A"/>
<path d="M484.062 67.1367H477.941C477.581 67.1367 477.289 67.4286 477.289 67.7887V108.345C477.289 108.705 477.581 108.997 477.941 108.997H484.062C484.422 108.997 484.714 108.705 484.714 108.345V67.7887C484.714 67.4286 484.422 67.1367 484.062 67.1367Z" fill="#00996E"/>
<path d="M491.464 64.5195H485.343C484.983 64.5195 484.691 64.8115 484.691 65.1716V108.353C484.691 108.713 484.983 109.005 485.343 109.005H491.464C491.824 109.005 492.116 108.713 492.116 108.353V65.1716C492.116 64.8115 491.824 64.5195 491.464 64.5195Z" fill="#28225F"/>
<path d="M498.847 73.6914H492.726C492.366 73.6914 492.074 73.9833 492.074 74.3434V108.353C492.074 108.713 492.366 109.005 492.726 109.005H498.847C499.207 109.005 499.499 108.713 499.499 108.353V74.3434C499.499 73.9833 499.207 73.6914 498.847 73.6914Z" fill="#A02935"/>
<path d="M506.175 65.832H500.054C499.694 65.832 499.402 66.124 499.402 66.4841V108.353C499.402 108.713 499.694 109.005 500.054 109.005H506.175C506.535 109.005 506.827 108.713 506.827 108.353V66.4841C506.827 66.124 506.535 65.832 506.175 65.832Z" fill="#1C2518"/>
<path d="M513.315 71.0664H507.195C506.835 71.0664 506.543 71.3583 506.543 71.7184V108.345C506.543 108.705 506.835 108.997 507.195 108.997H513.315C513.675 108.997 513.967 108.705 513.967 108.345V71.7184C513.967 71.3583 513.675 71.0664 513.315 71.0664Z" fill="#24506A"/>
<path d="M520.741 67.1367H514.621C514.261 67.1367 513.969 67.4286 513.969 67.7887V108.345C513.969 108.705 514.261 108.997 514.621 108.997H520.741C521.101 108.997 521.393 108.705 521.393 108.345V67.7887C521.393 67.4286 521.101 67.1367 520.741 67.1367Z" fill="#D56626"/>
<path d="M528.132 64.5195H522.011C521.651 64.5195 521.359 64.8115 521.359 65.1716V108.353C521.359 108.713 521.651 109.005 522.011 109.005H528.132C528.492 109.005 528.784 108.713 528.784 108.353V65.1716C528.784 64.8115 528.492 64.5195 528.132 64.5195Z" fill="#412013"/>
<path d="M535.526 73.6914H529.406C529.046 73.6914 528.754 73.9833 528.754 74.3434V108.353C528.754 108.713 529.046 109.005 529.406 109.005H535.526C535.886 109.005 536.178 108.713 536.178 108.353V74.3434C536.178 73.9833 535.886 73.6914 535.526 73.6914Z" fill="#28225F"/>
<path d="M433.882 71.0399L418.329 75.665L418.164 108.997H433.882V71.0312V71.0399Z" fill="#EED542"/>
<path d="M439.979 71.0234H433.859C433.499 71.0234 433.207 71.3154 433.207 71.6755V108.302C433.207 108.662 433.499 108.954 433.859 108.954H439.979C440.34 108.954 440.631 108.662 440.631 108.302V71.6755C440.631 71.3154 440.34 71.0234 439.979 71.0234Z" fill="#C3AE0D"/>
<path d="M416.173 116.75L397.203 119.853L397.229 112.751L416.173 108.891V116.75Z" fill="#D2222D"/>
<path d="M203.897 235.558L191.073 263.343C190.621 264.317 190.769 265.534 191.421 266.325L206.192 283.956C207.218 285.182 209.548 285.66 210.174 284.095L230.039 233.898C230.752 232.089 228.935 228.968 227.161 229.386L205.418 234.271C204.775 234.385 204.21 234.854 203.888 235.541L203.897 235.558Z" fill="#010101"/>
<path d="M189.002 265.349L167.277 264.758C166.686 264.741 166.146 265.176 165.92 265.836L157.714 289.431C157.322 290.605 158.131 293.126 159.183 293.013L205.147 288.023C206.346 287.892 206.981 284.902 206.129 283.876L189.976 265.854C189.715 265.541 189.367 265.367 189.002 265.358V265.349Z" fill="#010101"/>
<path d="M203.209 234.612L190.386 262.397C189.934 263.371 190.082 264.588 190.734 265.379L206.113 283.845C207.139 285.071 208.869 284.714 209.486 283.149L229.351 232.952C230.064 231.143 228.812 229.1 227.16 229.396L204.731 233.334C204.087 233.447 203.522 233.917 203.2 234.603L203.209 234.612Z" fill="#8D8D8E"/>
<path d="M202.696 237.801L191.272 262.804C190.872 263.682 190.994 264.777 191.585 265.49L205.286 282.104C206.199 283.208 207.738 282.886 208.294 281.478L225.995 236.314C226.629 234.688 225.517 232.854 224.039 233.115L204.052 236.653C203.478 236.757 202.974 237.175 202.687 237.792L202.696 237.801Z" fill="#010101"/>
<path d="M189.067 264.039L167.342 263.448C166.751 263.43 166.212 263.865 165.986 264.526L157.805 289.381C157.414 290.555 158.205 291.815 159.257 291.702L205.22 286.712C206.42 286.582 206.95 284.834 206.099 283.817L190.05 264.543C189.789 264.23 189.441 264.056 189.076 264.048L189.067 264.039Z" fill="#8D8D8E"/>
<path d="M188.581 265.658L173.828 265.414C173.497 265.406 173.193 265.745 173.062 266.284L173.115 285.027C173.228 286.157 173.541 286.731 174.297 286.853L200.283 284.349C200.961 284.245 201.43 283.149 200.952 282.324L189.129 266.058C188.981 265.805 188.789 265.666 188.581 265.658Z" fill="#52B7A3"/>
<path d="M170.592 272.794L165.81 272.664C165.663 272.664 165.532 272.768 165.48 272.925L163.689 278.341C163.593 278.628 163.785 278.941 164.046 278.906L170.149 278.611C170.279 278.593 170.462 278.654 170.479 278.054L170.827 272.907C170.766 272.829 170.679 272.786 170.592 272.786V272.794Z" fill="#0E101A"/>
<path d="M212.763 233.593C212.763 233.872 212.789 234.245 212.945 234.245C213.102 234.245 213.38 234.046 213.38 233.593C213.38 233.315 213.362 232.941 213.197 232.941C213.032 232.941 212.754 233.089 212.754 233.585L212.763 233.593Z" fill="#0E101A"/>
<path d="M190.817 265.375L206.074 283.649L205.996 283.727L190.738 265.384L190.817 265.375Z" fill="#0E101A"/>
<path d="M173.055 277.749L197.415 276.914C198.519 276.984 198.484 277.262 197.38 277.192L172.829 278.201C171.725 278.131 171.951 277.679 173.055 277.749Z" fill="#8D8D8E"/>
<path d="M172.892 266.222L190.009 266.596C191.114 266.665 191.079 266.943 189.975 266.874L172.874 266.578C171.77 266.509 171.787 266.152 172.892 266.222Z" fill="#8D8D8E"/>
<path d="M172.942 267.829L190.504 268.064C191.608 268.134 191.573 268.412 190.469 268.342L172.925 268.186C171.821 268.116 171.838 267.76 172.942 267.829Z" fill="#8D8D8E"/>
<path d="M175.027 270.723L192.667 270.566C193.771 270.636 193.736 270.914 192.632 270.845L175.01 271.079C174.68 270.897 174.819 270.714 175.027 270.723Z" fill="#8D8D8E"/>
<path d="M175.109 272.238L193.714 271.934C194.818 272.003 194.783 272.281 193.679 272.212L175.092 272.594C174.762 272.412 174.901 272.229 175.109 272.238Z" fill="#8D8D8E"/>
<path d="M175.215 273.724L194.715 273.324C195.819 273.394 195.784 273.672 194.68 273.602L175.198 274.081C174.867 273.898 175.006 273.715 175.215 273.724Z" fill="#8D8D8E"/>
<path d="M175.274 275.549L196.182 274.818C197.286 274.888 197.251 275.166 196.147 275.097L175.256 275.896C174.926 275.714 175.065 275.531 175.274 275.54V275.549Z" fill="#8D8D8E"/>
<path d="M172.892 269.437L191.818 269.402C192.922 269.472 192.887 269.75 191.783 269.681L172.874 269.794C171.77 269.724 171.787 269.368 172.892 269.437Z" fill="#8D8D8E"/>
<path d="M172.919 279.992L198.6 278.357C199.704 278.427 199.669 278.705 198.565 278.636L172.901 280.348C171.797 280.279 171.815 279.922 172.919 279.992Z" fill="#8D8D8E"/>
<path d="M172.92 281.626L200.54 279.844C201.644 279.913 201.609 280.191 200.505 280.122L172.894 281.974C171.79 281.904 171.807 281.548 172.911 281.617L172.92 281.626Z" fill="#8D8D8E"/>
<path d="M172.919 283.363L200.452 281.242C201.556 281.312 201.521 281.59 200.417 281.52L172.901 283.72C171.797 283.65 171.815 283.294 172.919 283.363Z" fill="#8D8D8E"/>
<path d="M177.963 286.59L175.434 265.447C175.434 264.125 175.72 264.152 175.72 265.473L178.642 286.729C178.642 288.051 177.955 287.912 177.955 286.59H177.963Z" fill="#8D8D8E"/>
<path d="M175.405 286.879L174.336 265.232C174.336 263.91 174.623 263.936 174.605 265.327L176.066 287.088C176.083 288.348 175.397 288.2 175.397 286.879H175.405Z" fill="#8D8D8E"/>
<path d="M180.311 286.443L176.738 265.386C176.738 264.065 177.025 264.091 177.025 265.412L180.998 286.582C180.998 287.903 180.311 287.764 180.311 286.443Z" fill="#8D8D8E"/>
<path d="M182.373 286L177.73 265.152C177.73 263.831 178.017 263.857 178.017 265.178L183.051 286.139C183.051 287.46 182.364 287.321 182.364 286H182.373Z" fill="#8D8D8E"/>
<path d="M184.44 285.782L178.867 265.308C178.867 263.987 179.154 264.013 179.154 265.334L185.127 285.921C185.127 287.242 184.44 287.103 184.44 285.782Z" fill="#8D8D8E"/>
<path d="M186.575 285.546L179.977 265.107C179.977 263.786 180.263 263.812 180.263 265.133L187.262 285.685C187.262 287.007 186.575 286.867 186.575 285.546Z" fill="#8D8D8E"/>
<path d="M188.688 285.357L180.898 265.048C180.898 263.727 181.185 263.753 181.185 265.075L189.366 285.496C189.366 286.818 188.679 286.678 188.679 285.357H188.688Z" fill="#8D8D8E"/>
<path d="M190.731 285.199L182.289 265.308C182.289 263.987 182.576 264.013 182.576 265.334L191.417 285.339C191.417 286.66 190.731 286.521 190.731 285.199Z" fill="#8D8D8E"/>
<path d="M192.764 284.972L183.375 265.228C183.375 263.907 183.662 263.933 183.662 265.254L193.442 285.111C193.442 286.432 192.756 286.293 192.756 284.972H192.764Z" fill="#8D8D8E"/>
<path d="M194.756 284.739L184.445 265.457C184.445 264.135 184.732 264.161 184.732 265.483L195.443 284.878C195.443 286.2 194.756 286.061 194.756 284.739Z" fill="#8D8D8E"/>
<path d="M197.039 284.521L185.789 265.578C185.789 264.256 186.076 264.282 186.076 265.604L197.717 284.66C197.717 285.982 197.03 285.843 197.03 284.521H197.039Z" fill="#8D8D8E"/>
<path d="M199.332 284.381L186.961 265.316C186.961 263.995 187.248 264.021 187.248 265.342L200.019 284.52C200.019 285.842 199.332 285.703 199.332 284.381Z" fill="#8D8D8E"/>
<path d="M191.746 293.762C205.126 291.824 218.505 289.876 231.885 287.938C235.215 292.954 238.536 297.979 241.865 302.995C227.06 304.734 212.263 306.464 197.458 308.203C195.554 303.386 193.65 298.579 191.746 293.762Z" fill="#DADADA"/>
<path d="M192.243 293.128C205.597 291.041 218.95 288.946 232.304 286.859L242.467 301.804C227.609 303.517 212.752 305.229 197.894 306.933C196.007 302.334 194.121 297.727 192.234 293.128H192.243Z" fill="#EDEDED"/>
<path d="M227.145 290.466C229.118 290.275 229.527 290.336 229.553 290.423C229.587 290.596 228.17 290.918 228.205 291.214C228.249 291.596 230.631 291.657 230.631 291.883C230.631 292.005 229.97 291.961 229.761 292.344C229.596 292.648 229.822 293.065 229.909 293.213C230.048 293.465 230.239 293.631 230.613 293.97C230.909 294.23 230.9 294.187 230.996 294.291C231.352 294.709 231.326 295.282 231.309 295.561C231.265 296.247 230.996 296.421 231.152 296.639C231.344 296.899 231.97 296.978 232.222 297.004C232.378 297.021 232.543 297.03 232.613 297.143C232.639 297.186 232.665 297.256 232.561 297.551C232.422 297.943 232.3 298.03 232.352 298.125C232.352 298.125 232.387 298.195 232.935 298.256" stroke="#1D1D1B" stroke-width="0.25" stroke-miterlimit="10"/>
<path d="M223.867 290.926C225.476 290.978 225.902 291.091 225.919 291.204C225.936 291.387 224.91 291.621 224.945 291.769C224.971 291.882 225.528 291.769 225.667 292.021C225.754 292.186 225.562 292.317 225.632 292.499C225.762 292.847 226.614 292.708 226.693 292.96C226.788 293.247 225.745 293.716 225.832 293.942C225.91 294.125 226.684 293.977 226.719 294.116C226.762 294.255 226.006 294.473 226.032 294.708C226.058 294.968 227.075 295.064 227.066 295.168C227.058 295.255 226.345 295.134 226.215 295.386C226.145 295.516 226.354 295.794 226.762 296.333C226.832 296.429 227.232 296.942 227.345 297.098" stroke="#1D1D1B" stroke-width="0.25" stroke-miterlimit="10"/>
<path d="M220.297 291.562C220.427 291.841 220.645 292.18 221.018 292.362C221.444 292.562 221.81 292.441 221.905 292.623C222.053 292.919 221.218 293.466 221.375 293.719C221.418 293.788 221.601 293.823 221.957 293.892C222.27 293.953 222.366 293.945 222.401 294.014C222.488 294.179 222.044 294.458 222.14 294.657C222.201 294.797 222.462 294.718 222.592 294.918C222.67 295.031 222.662 295.179 222.662 295.283C222.653 295.509 222.557 295.562 222.583 295.64C222.679 295.909 223.913 295.527 224.157 295.883C224.357 296.179 223.87 296.961 223.192 297.318C222.714 297.57 222.175 297.579 222.175 297.587C222.175 297.596 223.479 297.3 223.627 297.587C223.714 297.761 223.357 298.039 223.461 298.187C223.531 298.283 223.74 298.265 223.931 298.222" stroke="#1D1D1B" stroke-width="0.25" stroke-miterlimit="10"/>
<path d="M227.905 299.855L228.122 301.785L202.041 301.742C200.919 301.742 199.954 301.307 199.894 300.777C199.833 300.246 200.702 299.812 201.815 299.82L227.896 299.864L227.905 299.855Z" fill="#010101"/>
<path d="M232.727 300.829L227.902 299.855L228.128 301.785L232.727 300.829Z" fill="#B68754"/>
<path d="M232.732 300.83L230.941 300.465L231.02 301.186L232.732 300.83Z" fill="#010101"/>
<path d="M292.586 282.024C292.49 282.059 292.412 282.155 292.403 282.268C292.395 282.372 292.438 282.468 292.508 282.52L295.716 283.146C295.733 283.285 295.768 283.511 295.916 283.702C296.072 283.911 296.272 283.989 296.385 284.024C296.837 284.137 297.672 284.319 298.759 284.511C298.941 284.554 299.419 284.641 299.897 284.337C300.019 284.259 300.123 284.163 300.202 284.076L300.367 283.398C297.776 282.937 295.177 282.476 292.586 282.016V282.024Z" fill="#3C3C3B"/>
<path d="M299.619 286.12L299.492 286.75C299.415 287.136 299.664 287.512 300.05 287.59L323.36 292.282C323.746 292.359 324.122 292.109 324.2 291.723L324.327 291.093C324.404 290.707 324.155 290.331 323.769 290.253L300.459 285.561C300.073 285.484 299.697 285.734 299.619 286.12Z" fill="#3C3C3B"/>
<path d="M324.135 290.673L299.975 285.813C299.784 285.779 299.671 285.639 299.731 285.518L301.479 281.632C301.522 281.536 301.696 281.484 301.861 281.519L322.978 285.77C323.144 285.805 323.3 285.918 323.326 286.031L324.422 290.491C324.456 290.63 324.326 290.717 324.143 290.673H324.135Z" fill="#20201E"/>
<path d="M313.936 287.214L303.781 285.171L304.772 283.371L313.623 285.153L313.936 287.214Z" fill="#1D1D1B"/>
<path d="M314.907 284.081L312.412 283.586L312.395 283.734L314.907 284.247V284.081Z" fill="#1D1D1B"/>
<path d="M315.338 284.778L311.93 284.091L312.008 283.057L315.338 283.735V284.778Z" fill="#20201E"/>
<path d="M306.816 282.441L304.382 281.945L304.312 282.137L306.764 282.623L306.816 282.441Z" fill="#1D1D1B"/>
<path d="M307.085 283.136L303.738 282.458L304.095 281.449L307.355 282.101L307.085 283.136Z" fill="#20201E"/>
<path d="M300.321 283.901L300.182 283.875C299.999 283.84 299.895 283.719 299.947 283.614L300.104 283.293C300.156 283.188 300.338 283.127 300.512 283.162L300.643 283.188C300.816 283.223 300.921 283.336 300.877 283.449L300.73 283.78C300.677 283.893 300.495 283.953 300.312 283.91L300.321 283.901Z" fill="#3C3C3B"/>
<path d="M298.532 284.04L296.776 283.683C296.02 283.535 295.637 283.04 295.906 282.596C296.167 282.17 296.967 281.944 297.68 282.092L299.349 282.431C300.062 282.579 300.488 283.04 300.288 283.483C300.079 283.935 299.288 284.187 298.532 284.04Z" fill="#1D1D1B"/>
<path d="M296.076 282.971L292.642 282.275C292.46 282.24 292.382 282.127 292.46 282.023L292.529 281.927C292.608 281.823 292.808 281.771 292.99 281.806L296.372 282.484C296.546 282.519 296.642 282.632 296.581 282.736L296.529 282.832C296.468 282.936 296.268 282.997 296.085 282.962L296.076 282.971Z" fill="#1D1D1B"/>
<path d="M303.035 296.915C303.053 297.237 303.061 297.559 303.079 297.88L309.747 301.61L322.596 290.212C322.596 290.212 323.118 289.786 323.292 289.073C323.465 288.361 323.352 287.848 323.352 287.848C316.58 290.864 309.808 293.89 303.044 296.907L303.035 296.915Z" fill="#3C3C3B"/>
<path d="M303.266 296.942C307.421 293.403 316.298 285.875 317.315 285.231C317.48 285.127 317.645 285.057 317.645 285.057C318.514 284.718 319.74 285.014 319.914 285.057C320.245 285.144 321.079 285.37 321.957 286.005C322.496 286.387 322.966 286.735 323.218 287.37C323.305 287.596 323.479 288.048 323.322 288.552C323.218 288.874 323.026 289.091 322.913 289.204L309.925 300.706L303.266 296.933V296.942Z" fill="#9D9D9C"/>
<path d="M309.929 300.932C309.929 300.932 309.86 300.923 309.825 300.906L303.165 297.133C303.105 297.098 303.061 297.037 303.052 296.968C303.044 296.898 303.07 296.829 303.131 296.785C309.034 291.76 316.267 285.64 317.206 285.057C317.388 284.944 317.571 284.866 317.571 284.866C318.458 284.518 319.64 284.77 319.979 284.857C320.744 285.049 321.457 285.379 322.1 285.84C322.613 286.205 323.152 286.587 323.431 287.3C323.517 287.518 323.726 288.031 323.535 288.63C323.448 288.909 323.291 289.161 323.065 289.378L310.068 300.889C310.068 300.889 309.973 300.941 309.92 300.941L309.929 300.932ZM303.652 296.907L309.903 300.445L322.778 289.048C322.944 288.891 323.065 288.7 323.126 288.491C323.265 288.039 323.109 287.639 323.031 287.448C322.796 286.857 322.335 286.527 321.848 286.179C321.248 285.753 320.588 285.449 319.875 285.266C319.24 285.109 318.345 285.023 317.736 285.257C317.736 285.257 317.588 285.318 317.441 285.414C316.728 285.857 311.833 289.935 303.652 296.898V296.907Z" fill="#20201E"/>
<path d="M317.745 286.894C317.806 287.693 318.875 288.563 320.119 288.815C321.362 289.067 322.24 288.58 322.075 287.763C321.909 286.946 320.866 286.189 319.719 285.955C318.571 285.72 317.684 286.129 317.745 286.894Z" fill="#C6C6C6"/>
<path d="M320.748 289.103C320.539 289.103 320.313 289.076 320.078 289.033C318.748 288.763 317.601 287.816 317.531 286.92C317.505 286.59 317.618 286.294 317.87 286.068C318.27 285.712 318.983 285.59 319.765 285.747C321.008 285.999 322.121 286.868 322.295 287.72C322.365 288.085 322.269 288.416 322.026 288.668C321.747 288.946 321.295 289.094 320.756 289.094L320.748 289.103ZM317.966 286.877C318.027 287.581 319.035 288.372 320.165 288.607C320.835 288.737 321.426 288.65 321.713 288.364C321.86 288.216 321.913 288.033 321.869 287.807C321.73 287.12 320.748 286.39 319.678 286.173C319.035 286.042 318.453 286.129 318.157 286.39C318.009 286.52 317.948 286.686 317.966 286.877Z" fill="#20201E"/>
<path d="M277.49 271.152C278.203 272.509 278.107 274.491 277.308 276.116C277.082 276.577 276.716 277.299 275.917 278.012C274.143 279.576 271.674 279.829 268.136 280.185C265.084 280.498 262.859 280.333 262.285 280.289C259.138 280.046 257.573 279.924 256.26 279.072C253.513 277.307 252.861 273.108 255.182 270.544C256.912 268.631 259.703 268.266 262.424 267.901C267.066 267.284 275.56 267.466 277.499 271.152H277.49Z" fill="#19281A"/>
<path d="M271.283 264.231C270.77 264.057 270.318 263.962 269.883 263.866C269.153 263.71 268.727 263.588 268.258 263.579C266.632 263.527 266.11 263.788 265.91 263.71C265.589 263.588 264.38 263.518 263.189 263.631C260.885 263.849 258.747 265.257 258.19 265.648C257.938 265.822 253.913 268.691 253.73 272.925C253.678 274.142 253.626 276.376 255.904 278.028C259.321 280.497 264.311 279.55 265.293 278.515C265.363 278.445 266.102 277.733 266.049 277.402C265.997 277.072 267.067 277.246 267.171 277.246C267.58 277.246 268.127 277.524 268.197 277.541C268.971 277.776 270.761 277.646 271.535 277.437C272.405 277.194 274.874 276.307 276.291 274.264C278.368 271.291 276.404 268.369 275.899 267.631C275.899 267.631 274.891 266.126 272.891 264.97C272.1 264.509 271.457 264.292 271.3 264.24L271.283 264.231Z" fill="#556744" stroke="#556744" stroke-miterlimit="10"/>
<path d="M274.686 267.013C277.677 270.952 275.894 276.802 268.453 277.289C268.087 277.315 267.157 277.15 266.801 277.133C267.261 277.315 269.418 278.02 270.522 277.941C278.398 277.42 279.502 270.952 275.981 266.918C273.886 264.518 270.356 263.345 267.444 263.536C267.035 263.562 266.644 263.614 266.262 263.684C266.401 263.666 266.531 263.657 266.679 263.649C269.548 263.458 272.886 264.631 274.686 267.005V267.013Z" fill="#EF7D32"/>
<path d="M278.119 267.378C277.467 267.526 276.555 267.37 276.111 267.039C275.694 266.726 275.868 266.387 276.476 266.266C277.085 266.144 277.911 266.266 278.372 266.553C278.858 266.857 278.763 267.231 278.119 267.378Z" fill="#EF7D32"/>
<path d="M278.507 268.908C277.534 268.717 276.777 268.247 276.777 267.882C276.777 267.526 277.482 267.378 278.36 267.526C279.238 267.673 280.098 268.117 280.185 268.508C280.281 268.925 279.516 269.108 278.507 268.917V268.908Z" fill="#EF7D32"/>
<path d="M275.451 267.396L275.033 267.066C274.929 266.988 274.964 266.892 275.103 266.866L276.303 266.614C276.433 266.588 276.633 266.623 276.746 266.701L277.198 267.014C277.32 267.101 277.302 267.188 277.163 267.223L275.911 267.501C275.764 267.536 275.555 267.483 275.451 267.396Z" fill="#EF7D32"/>
<path d="M275.575 267.926V267.561C275.566 267.474 275.706 267.422 275.888 267.448L277.531 267.692C277.722 267.718 277.896 267.822 277.922 267.918L278.001 268.309C278.018 268.413 277.87 268.474 277.662 268.439L275.923 268.17C275.732 268.144 275.575 268.031 275.566 267.935L275.575 267.926Z" fill="#F49524"/>
<path d="M265.849 263.717V263.7C265.849 263.7 265.866 263.682 265.892 263.682L266.309 263.656C266.309 263.656 266.353 263.656 266.353 263.674V263.691C266.353 263.691 266.335 263.708 266.309 263.708L265.883 263.734C265.883 263.734 265.84 263.735 265.84 263.717H265.849Z" fill="#F49524"/>
<path d="M265.833 277.402V277.289C265.833 277.228 265.885 277.167 265.946 277.167L267.024 277.098C267.085 277.098 267.146 277.141 267.146 277.202V277.315C267.154 277.376 267.111 277.437 267.041 277.445L265.946 277.515C265.885 277.515 265.824 277.471 265.824 277.402H265.833Z" fill="#EF7D32"/>
<path d="M271.046 264.145C270.542 263.979 270.099 263.875 269.673 263.788C268.951 263.632 268.534 263.519 268.073 263.501C266.465 263.458 265.952 263.701 265.743 263.632C265.421 263.51 264.23 263.449 263.048 263.562C260.77 263.78 258.632 265.162 258.084 265.536C257.832 265.71 253.841 268.5 253.641 272.595C253.589 273.76 253.528 275.899 255.745 277.463C259.049 279.802 264.178 279.046 265.021 278.02C265.117 277.907 265.508 277.35 266.143 277.15C266.473 277.046 266.752 277.15 266.847 277.15C267.256 277.15 267.63 277.15 267.699 277.168C268.455 277.394 270.203 277.081 270.959 276.881C271.811 276.655 274.228 275.803 275.671 273.856C277.784 270.995 275.949 268.179 275.48 267.457C275.48 267.457 274.532 265.996 272.594 264.866C271.829 264.423 271.194 264.206 271.038 264.153L271.046 264.145Z" fill="#1B331C"/>
<path d="M274.337 266.856C277.153 270.673 275.284 276.611 267.921 277.098C267.564 277.124 267.208 277.124 266.86 277.106C267.869 277.341 268.929 277.437 269.998 277.367C277.666 276.863 278.953 270.673 275.623 266.769C273.624 264.431 270.172 263.274 267.286 263.466C266.886 263.492 266.495 263.544 266.121 263.614C266.26 263.596 266.391 263.587 266.53 263.579C269.373 263.387 272.641 264.544 274.345 266.856H274.337Z" fill="#F49524"/>
<path d="M277.701 267.205C277.058 267.353 276.163 267.205 275.737 266.884C275.337 266.579 275.519 266.249 276.119 266.127C276.719 266.005 277.528 266.127 277.98 266.405C278.449 266.701 278.345 267.066 277.701 267.205Z" fill="#F49524"/>
<path d="M278.028 268.692C277.08 268.51 276.35 268.058 276.367 267.693C276.385 267.327 277.072 267.197 277.932 267.345C278.793 267.493 279.619 267.91 279.689 268.292C279.767 268.692 279.01 268.875 278.028 268.684V268.692Z" fill="#F49524"/>
<path d="M275.075 267.23L274.676 266.908C274.58 266.83 274.615 266.743 274.745 266.717L275.927 266.473C276.058 266.447 276.258 266.482 276.362 266.56L276.797 266.865C276.91 266.943 276.892 267.038 276.753 267.065L275.519 267.334C275.371 267.369 275.171 267.317 275.067 267.238L275.075 267.23Z" fill="#F49524"/>
<path d="M275.176 267.742V267.385C275.176 267.298 275.324 267.246 275.497 267.272L277.106 267.507C277.297 267.533 277.462 267.629 277.48 267.724L277.549 268.107C277.567 268.211 277.419 268.263 277.219 268.237L275.515 267.977C275.324 267.95 275.176 267.846 275.176 267.751V267.742Z" fill="#F49524"/>
<path d="M265.691 263.639V263.622C265.691 263.622 265.709 263.604 265.735 263.604L266.152 263.578C266.152 263.578 266.196 263.578 266.196 263.596V263.613C266.196 263.613 266.178 263.63 266.152 263.63L265.735 263.656C265.735 263.656 265.691 263.656 265.691 263.639Z" fill="#F49524"/>
<path d="M265.79 277.289V277.176C265.79 277.115 265.842 277.054 265.903 277.054L266.972 276.984C267.033 276.984 267.094 277.028 267.094 277.089V277.202C267.103 277.263 267.059 277.323 266.99 277.323L265.903 277.393C265.842 277.393 265.781 277.35 265.781 277.28L265.79 277.289Z" fill="#F49524"/>
<path d="M257.797 265.928C258.701 263.85 261.787 262.624 263.639 264.189C261.779 265.059 259.918 265.954 257.797 265.928Z" fill="#556744"/>
<path d="M254.218 270.875C254.94 273.596 257.018 274.822 259.704 274.761C260.565 274.778 261.46 274.683 262.451 274.579C259.452 278.056 252.41 275.961 254.218 270.875Z" fill="#556744"/>
<path d="M256.977 266.701C257.307 264.988 259.672 264.171 260.993 265.318C259.906 266.553 258.594 266.987 256.977 266.701Z" fill="#556744"/>
<path d="M259.36 271.553C258.03 272.709 255.882 272.231 254.987 270.779C254.674 270.31 254.535 269.24 255.239 269.066C255.274 269.605 255.648 269.649 255.996 269.858C257.16 270.414 258.204 270.84 259.369 271.562L259.36 271.553Z" fill="#556744"/>
<path d="M258.25 266.78C257.946 267.406 257.772 267.745 257.294 268.075C256.798 268.38 256.424 268.293 255.755 268.371C255.138 266.911 257.172 265.685 258.25 266.78Z" fill="#556744"/>
<path d="M271.581 264.658C270.234 265.493 268.573 265.563 267.156 264.85C268.669 264.354 270.025 264.311 271.581 264.658Z" fill="#556744"/>
<path d="M271.494 264.883C271.242 265.614 270.555 265.796 269.973 265.292C270.364 264.623 270.816 264.51 271.494 264.883Z" fill="#556744"/>
<path d="M271.853 264.954C272.122 265.502 271.774 265.815 271.253 265.493C271.088 264.841 271.218 264.737 271.853 264.954Z" fill="#556744"/>
<path d="M275.043 268.667C272.148 268.867 269.461 268.893 266.566 268.589C269.305 267.684 272.322 267.684 275.043 268.667Z" fill="#556744"/>
<path d="M274.653 268.872C274.018 269.377 273.705 269.377 273.027 268.933C273.375 268.203 274.236 268.186 274.653 268.872Z" fill="#556744"/>
<path d="M273.158 273.734C271.228 274.108 269.472 274.082 267.551 273.674C269.342 272.882 271.385 272.926 273.158 273.734Z" fill="#556744"/>
<path d="M274.369 268.258C273.195 268.718 271.97 268.475 271.074 267.588C272.309 267.327 273.335 267.536 274.369 268.258Z" fill="#556744"/>
<path d="M273.176 269.308C272.211 270.108 270.872 270.134 269.863 269.404C271.028 268.934 271.985 268.926 273.176 269.308Z" fill="#556744"/>
<path d="M274.484 271.777C273.736 272.455 272.597 272.49 271.945 271.664C272.91 271.307 273.571 271.255 274.484 271.777Z" fill="#556744"/>
<path d="M267.724 276.386C267.028 276.029 266.455 276.142 265.742 275.942C265.507 275.89 265.246 275.821 264.977 275.664C265.42 275.256 265.976 275.116 266.559 275.221C267.115 275.316 267.793 275.768 267.732 276.394L267.724 276.386Z" fill="#556744"/>
<path d="M265.638 263.72C265.69 264.381 265.108 264.598 264.777 263.989C265.003 263.346 265.195 263.389 265.638 263.72Z" fill="#556744"/>
<path d="M265.866 263.694C266.04 263.624 266.136 263.885 266.118 264.007C266.066 264.363 265.788 264.407 265.527 264.007C265.492 263.65 265.492 263.563 265.501 263.537C265.562 263.581 265.736 263.841 265.866 263.694Z" fill="#556744"/>
<path d="M265.511 263.684C265.198 264.249 264.737 264.214 264.52 263.606C264.902 263.049 265.215 263.075 265.511 263.684Z" fill="#556744"/>
<path d="M264.546 277.628C263.503 279.054 260.782 279.236 260.008 277.445C261.512 278.115 262.972 277.863 264.546 277.628Z" fill="#556744"/>
<path d="M266.344 276.716C265.675 276.577 265.17 276.516 264.762 275.907C265.379 275.273 266.579 275.82 266.344 276.716Z" fill="#556744"/>
<path d="M351.021 280.182C350.882 279.921 350.891 279.678 350.891 279.669C350.891 279.339 350.891 278.991 350.891 278.973C350.891 278.556 352.369 277.069 353.125 276.226C353.125 276.226 354.533 274.653 354.942 274.261C355.125 274.088 355.298 273.931 355.516 273.766C355.916 273.453 356.281 273.227 356.542 273.088C365.827 269.28 372.547 266.515 373.173 266.246C373.26 266.211 373.529 266.089 373.903 266.072C374.346 266.055 374.694 266.185 374.868 266.263C377.354 267.428 379.241 269.393 379.241 269.393C380.006 270.245 381.041 271.549 381.945 273.366C382.023 273.644 382.084 274.053 381.901 274.427C381.753 274.722 381.51 274.896 381.354 274.974C380.849 275.235 373.225 278.556 362.784 283.068C362.636 283.146 362.453 283.233 362.236 283.303C362.053 283.364 361.888 283.399 361.74 283.416L355.377 284.92C355.307 284.946 355.107 285.007 354.855 284.929C354.629 284.859 354.499 284.711 354.455 284.65C352.569 282.303 351.23 280.547 351.021 280.156V280.182Z" fill="#1D1D1B"/>
<path d="M351.021 279.424C350.882 279.163 350.891 278.911 350.891 278.911C350.891 278.676 351.004 278.494 351.082 278.381C351.769 277.407 352.447 276.442 353.134 275.468C353.455 275.086 354.22 274.199 354.951 273.504C355.133 273.33 355.307 273.173 355.524 273.008C355.924 272.695 356.29 272.469 356.55 272.33C365.835 268.522 372.555 265.757 373.181 265.488C373.268 265.453 373.538 265.331 373.912 265.314C374.355 265.297 374.703 265.427 374.877 265.505C375.885 265.94 377.633 266.853 379.25 268.635C380.858 270.4 381.597 272.208 381.945 273.251C381.962 273.347 381.971 273.504 381.91 273.677C381.797 274.008 381.475 274.173 381.362 274.225C380.858 274.486 373.234 277.807 362.792 282.319C362.645 282.397 362.462 282.484 362.245 282.554C362.062 282.615 361.897 282.649 361.749 282.667L355.385 284.171C355.316 284.197 355.116 284.258 354.864 284.179C354.638 284.11 354.507 283.962 354.464 283.901C352.577 281.554 351.238 279.798 351.03 279.407L351.021 279.424Z" fill="#282826"/>
<path d="M358.652 273.241L365.207 270.555C366.929 272.606 368.641 274.667 370.363 276.719L363.199 279.535C361.686 277.44 360.165 275.336 358.652 273.241Z" fill="#3C3C3B"/>
<path d="M214.085 154.801L233.028 157.965L51.8334 158.087L38.6016 154.801H214.085Z" fill="#411B17"/>
<path d="M38.5991 154.793L214.082 154.793V146.934L38.5991 146.934V154.793Z" fill="#871811"/>
<path d="M155.694 105.188H149.574C149.214 105.188 148.922 105.479 148.922 105.84V146.396C148.922 146.756 149.214 147.048 149.574 147.048H155.694C156.054 147.048 156.346 146.756 156.346 146.396V105.84C156.346 105.479 156.054 105.188 155.694 105.188Z" fill="#079C94"/>
<path d="M148.304 102.57H142.183C141.823 102.57 141.531 102.862 141.531 103.222V146.404C141.531 146.764 141.823 147.056 142.183 147.056H148.304C148.664 147.056 148.956 146.764 148.956 146.404V103.222C148.956 102.862 148.664 102.57 148.304 102.57Z" fill="#28225F"/>
<path d="M140.901 111.732H134.781C134.421 111.732 134.129 112.024 134.129 112.384V146.394C134.129 146.754 134.421 147.046 134.781 147.046H140.901C141.261 147.046 141.553 146.754 141.553 146.394V112.384C141.553 112.024 141.261 111.732 140.901 111.732Z" fill="#A02935"/>
<path d="M133.597 103.875H127.476C127.116 103.875 126.824 104.167 126.824 104.527V146.396C126.824 146.756 127.116 147.048 127.476 147.048H133.597C133.957 147.048 134.249 146.756 134.249 146.396V104.527C134.249 104.167 133.957 103.875 133.597 103.875Z" fill="#1C2518"/>
<path d="M126.44 109.117H120.32C119.96 109.117 119.668 109.409 119.668 109.769V146.396C119.668 146.756 119.96 147.048 120.32 147.048H126.44C126.8 147.048 127.092 146.756 127.092 146.396V109.769C127.092 109.409 126.8 109.117 126.44 109.117Z" fill="#24506A"/>
<path d="M119.022 105.188H112.902C112.542 105.188 112.25 105.479 112.25 105.84V146.396C112.25 146.756 112.542 147.048 112.902 147.048H119.022C119.383 147.048 119.674 146.756 119.674 146.396V105.84C119.674 105.479 119.383 105.188 119.022 105.188Z" fill="#00996E"/>
<path d="M111.624 102.57H105.504C105.143 102.57 104.852 102.862 104.852 103.222V146.404C104.852 146.764 105.143 147.056 105.504 147.056H111.624C111.984 147.056 112.276 146.764 112.276 146.404V103.222C112.276 102.862 111.984 102.57 111.624 102.57Z" fill="#28225F"/>
<path d="M104.226 111.732H98.1052C97.745 111.732 97.4531 112.024 97.4531 112.384V146.394C97.4531 146.754 97.745 147.046 98.1052 147.046H104.226C104.586 147.046 104.878 146.754 104.878 146.394V112.384C104.878 112.024 104.586 111.732 104.226 111.732Z" fill="#A02935"/>
<path d="M96.913 103.875H90.7927C90.4325 103.875 90.1406 104.167 90.1406 104.527V146.396C90.1406 146.756 90.4325 147.048 90.7927 147.048H96.913C97.2731 147.048 97.5651 146.756 97.5651 146.396V104.527C97.5651 104.167 97.2731 103.875 96.913 103.875Z" fill="#1C2518"/>
<path d="M89.7724 109.117H83.652C83.2919 109.117 83 109.409 83 109.769V146.396C83 146.756 83.2919 147.048 83.652 147.048H89.7724C90.1325 147.048 90.4244 146.756 90.4244 146.396V109.769C90.4244 109.409 90.1325 109.117 89.7724 109.117Z" fill="#24506A"/>
<path d="M82.3427 105.188H76.2223C75.8622 105.188 75.5703 105.479 75.5703 105.84V146.396C75.5703 146.756 75.8622 147.048 76.2223 147.048H82.3427C82.7028 147.048 82.9948 146.756 82.9948 146.396V105.84C82.9948 105.479 82.7028 105.188 82.3427 105.188Z" fill="#D56626"/>
<path d="M74.9521 102.57H68.8317C68.4716 102.57 68.1797 102.862 68.1797 103.222V146.404C68.1797 146.764 68.4716 147.056 68.8317 147.056H74.9521C75.3122 147.056 75.6041 146.764 75.6041 146.404V103.222C75.6041 102.862 75.3122 102.57 74.9521 102.57Z" fill="#412013"/>
<path d="M67.5576 111.732H61.4372C61.0771 111.732 60.7852 112.024 60.7852 112.384V146.394C60.7852 146.754 61.0771 147.046 61.4372 147.046H67.5576C67.9177 147.046 68.2096 146.754 68.2096 146.394V112.384C68.2096 112.024 67.9177 111.732 67.5576 111.732Z" fill="#28225F"/>
<path d="M163.086 109.091L178.639 113.716L178.804 147.048H163.086V109.082V109.091Z" fill="#EED542"/>
<path d="M163.101 109.066H156.98C156.62 109.066 156.328 109.358 156.328 109.718V146.345C156.328 146.705 156.62 146.997 156.98 146.997H163.101C163.461 146.997 163.753 146.705 163.753 146.345V109.718C163.753 109.358 163.461 109.066 163.101 109.066Z" fill="#C3AE0D"/>
<path d="M214.074 154.801L233.035 157.895L233.018 150.793L214.074 146.941V154.801Z" fill="#D2222D"/>
<path d="M458.277 274.115V279.505L487.375 298.04L511.1 290.433V285.287L475.021 280.696L458.277 274.115Z" fill="#C3AE0D"/>
<path d="M458.277 274.117L487.575 292.86L511.1 285.288L480.003 268.535L458.277 274.117Z" fill="#EED542"/>
<path d="M462.059 274.587C472.465 279.125 482.88 283.672 493.287 288.21L512.161 278.438L479.933 266.215C473.978 269.006 468.014 271.796 462.059 274.587Z" fill="#40748E"/>
<path d="M462.059 278.429L493.295 292.86L512.161 283.088V278.429L493.295 288.27L462.059 274.586V278.429Z" fill="#24506A"/>
<path d="M472.361 264.684C469.84 269.604 467.31 274.516 464.789 279.437L505.389 286.148C507.467 280.68 509.553 275.203 511.631 269.735C498.538 268.048 485.454 266.37 472.361 264.684Z" fill="#00996E"/>
<path d="M464.789 281.43L505.258 288.341L511.631 272.597V269.867L505.058 286.081L464.789 279.439V281.43Z" fill="#05835B"/>
<path d="M106.797 388.393V335.014H103.867C103.972 352.566 104.067 370.119 104.171 387.672C105.05 387.915 105.928 388.15 106.806 388.393H106.797Z" fill="#861812"/>
<path d="M113.535 388.29C113.657 371.137 113.77 353.985 113.891 336.832H106.797C106.78 354.02 106.771 371.198 106.754 388.386L113.535 388.29Z" fill="#A92B27"/>
<path d="M64.1884 324.607C80.7499 324.607 97.3202 324.599 113.882 324.59C124.984 331.623 136.086 338.648 147.179 345.681C131.33 346.159 115.481 346.628 99.624 347.107C87.8092 339.604 75.9945 332.11 64.1797 324.607H64.1884Z" fill="#D2222D"/>
<path d="M71.6954 388.038V299.145H68.7656C68.8699 328.373 68.9656 357.61 69.0699 386.838C69.948 387.238 70.826 387.638 71.7041 388.038H71.6954Z" fill="#861812"/>
<path d="M78.3335 328.738C78.4813 312.081 78.6378 295.424 78.7856 278.775H71.6915L71.6133 329.208L78.3248 328.738H78.3335Z" fill="#A92B27"/>
<path d="M71.6953 358.234L78.7894 358.156L103.462 377.222H96.542L71.6953 358.234Z" fill="#A92B27"/>
<path d="M71.7736 358.523L106.74 357.045C106.766 359.444 106.783 361.853 106.809 364.252C95.1075 364.852 83.4058 365.443 71.6953 366.043L71.7736 358.523Z" fill="#A92B27"/>
<path d="M106.741 357.046C105.811 356.072 104.881 355.099 103.951 354.125C95.5351 354.603 87.1108 355.073 78.6953 355.551V358.533C88.0411 358.037 97.3955 357.542 106.741 357.055V357.046Z" fill="#861812"/>
<path d="M78.4334 387.943C78.5552 370.79 78.6682 353.637 78.7899 336.484H71.6958C71.6784 353.672 71.6697 370.851 71.6523 388.038L78.4334 387.943Z" fill="#A92B27"/>
<path d="M64.1862 324.607C76.001 332.11 87.8158 339.604 99.6306 347.107V354.288C87.8071 346.742 75.9836 339.204 64.1602 331.658L64.1862 324.616V324.607Z" fill="#861812"/>
<path d="M163.73 268.663C162.07 270.749 161.235 273.392 160.427 274.835C158.41 278.452 158.41 278.704 156.019 282.077C154.098 284.79 152.168 287.294 150.038 288.798C148.473 289.91 151.429 276.991 157.697 271.193C159.297 269.715 160.409 267.028 161.279 267.733C161.366 267.802 164.843 267.263 163.73 268.663Z" fill="#6A5645"/>
<path d="M137.959 295.284C135.82 296.588 134.134 296.693 130.839 298.753C129.874 299.362 128.7 300.274 128.179 301.691C128.022 302.109 127.753 302.882 128.074 303.682C128.335 304.326 128.839 304.673 128.987 304.769C129.509 305.117 129.778 305.325 130.561 305.404C131.691 305.517 132.1 305.482 132.404 305.56C133.76 305.917 129.118 313.324 123.084 313.837C122.223 313.906 118.424 314.236 116.19 311.628C113.834 308.881 114.912 304.839 115.103 304.108C117.172 296.336 127.666 293.789 130.43 293.119C131.378 292.885 136.455 293.337 138.446 293.224C139.672 293.154 138.159 295.18 137.976 295.284H137.959Z" fill="#6A5645"/>
<path d="M146.781 213.629C148.841 211.734 151.58 209.204 156.022 206.361C159.56 204.101 163.16 203.805 166.168 203.562C168.341 203.388 172.14 203.327 176.522 204.614C181.973 206.214 182.634 208.222 188.98 211.334C190.623 212.143 195.387 214.368 201.786 215.603C205.715 216.359 211.836 217.472 218.513 215.255C220.895 214.464 225.32 211.317 225.111 210.143C225.007 209.535 223.398 210.673 222.851 210.56C216.539 209.326 206.385 209.935 201.438 209.3C192.005 208.091 193.075 201.319 181.138 198.867C180.017 198.641 174.401 197.546 167.28 198.867C161.43 199.945 157.769 202.058 153.214 204.675C149.119 207.031 147.433 208.665 147.407 210.552C147.398 211.326 146.189 214.151 146.772 213.621L146.781 213.629Z" fill="#6A5645"/>
<path d="M150.448 218.709C152.7 218.091 153.891 217.752 156.707 217.683C161.324 217.579 164.714 218.874 165.862 219.378C168.853 220.691 170.852 223.36 174.851 228.689C177.164 231.767 179.042 234.688 180.763 237.365C184.249 242.782 184.154 243.155 185.553 244.573C189.248 248.293 193.656 249.485 195.49 249.963C195.49 249.963 201.48 251.51 207.244 249.824C208.487 249.458 209.809 248.659 210.226 248.398C211.026 247.911 211.087 247.781 211.087 247.676C211.078 246.885 207.157 246.563 204.671 245.972C198.585 244.52 194.743 239.921 192.447 237.174C187.822 231.654 189.874 229.932 185.336 223.855C183.397 221.256 179.789 216.561 173.365 214.197C169.322 212.71 165.818 212.971 158.803 213.492C153.586 213.884 151.509 214.718 150.752 216.292C150.387 217.066 149.639 218.909 150.422 218.7L150.448 218.709Z" fill="#6A5645"/>
<path d="M83.8563 327.433C82.3088 323.208 78.727 316.114 78.301 311.176C77.5881 302.812 76.5362 291.615 83.8389 280.513C87.2642 275.305 92.5587 271.289 103.156 263.247C106.147 260.978 110.955 258.831 115.658 254.475C120.492 250.007 122.935 247.198 122.935 247.198C124.769 245.095 125.604 243.895 125.83 244.025C126.473 244.399 120.7 255.249 117.71 261.387C103.774 289.98 102.652 313.845 89.0638 324.842C86.8991 326.598 84.9082 330.328 83.8476 327.442L83.8563 327.433Z" fill="#6A5645"/>
<path d="M213.748 207.903C207.905 206.304 207.419 204.434 197.508 199.131C190.57 195.419 187.093 193.559 182.763 192.785C175.365 191.463 169.34 193.193 166.341 194.089C162.307 195.297 152.7 198.349 147.493 205.617C145.502 208.39 145.25 208.181 140.26 216.91C139.355 218.492 138.903 220.083 137.973 221.344C132.713 228.455 131.948 228.899 130.323 231.42C128.375 234.437 128.932 234.645 125.28 243.548C122.498 250.329 121.116 253.728 119.681 255.867C116.682 260.361 114.578 260.779 106.615 267.255C98.9991 273.445 95.1912 276.54 91.8702 281.252C86.5931 288.738 84.8979 296.232 84.2197 299.353C82.9244 305.343 82.907 310.533 82.9157 313.35C82.9418 323.912 85.1674 329.729 82.7331 331.076C81.09 331.989 77.5517 330.763 75.4565 329.207C74.1872 328.268 73.2222 327.051 72.6571 327.338C72.0746 327.642 72.3876 329.32 72.4745 329.763C73.0222 332.667 74.8392 334.858 76.578 336.484C78.9079 338.657 81.3334 340.039 82.5505 340.587C82.6896 340.648 82.8374 340.709 82.9939 340.77H151.014C150.805 339.822 149.684 338.883 148.814 338.161C145.389 335.31 140.764 335.736 139.295 335.736C135.817 335.736 133.252 335.206 132.34 334.023C131.931 333.493 132.053 332.215 132.192 331.754C132.696 330.163 133.739 328.79 138.277 324.712C141.755 321.591 143.363 320.739 144.137 318.183C145.189 314.732 143.624 309.768 143.102 309.098C141.911 307.56 140.755 304.786 134.217 305.299C124.367 306.073 122.064 313.41 120.238 312.437C114.535 309.394 122.411 300.3 125.141 298.648C130.34 295.51 136.365 296.153 141.155 294.284C143.015 293.563 148.075 291.589 151.796 286.816C152.857 285.46 154.561 282.278 158.308 276.036C160.029 273.158 160.907 272.124 162.585 269.977C164.002 268.16 165.602 266.725 168.392 265.438C170.522 264.456 171.879 263.369 171.818 263.108C171.618 262.213 167.68 262.978 166.845 263.221C165.993 263.482 163.089 264.595 161.22 265.76C158.89 267.221 158.351 267.96 157.369 268.316C151.953 270.246 150.692 268.055 149.344 266.838C148.379 265.969 146.415 261.987 146.119 261.404C145.424 259.996 144.38 258.066 145.102 256.91C145.876 255.667 147.232 255.501 148.432 255.641C150.092 255.84 150.023 257.058 152.161 257.884C154.778 258.883 157.482 258.883 159.56 258.631C162.029 258.327 163.089 257.927 164.106 256.579C164.619 255.901 164.932 255.102 165.132 252.137C165.454 247.295 165.132 246.269 164.819 242.756C164.567 239.957 157.951 226.838 148.727 223.23C147.11 222.596 148.11 219.553 151.979 217.84C155.091 216.467 158.316 215.649 159.855 215.562C163.707 215.354 166.732 215.293 167.375 215.389C169.514 215.702 170.192 215.762 172.096 216.406C175.104 217.423 175.452 218.058 177.243 219.309C180.929 221.891 182.363 223.595 185.389 229.516C188.875 236.358 187.684 237.062 190.396 240.731C193.013 244.278 196.265 245.425 200.411 246.729C204.889 248.147 211.174 248.607 211.513 247.616C211.809 246.773 207.001 246.451 201.994 242.296C197.986 238.966 197.186 236.697 193.926 230.629C191.666 226.421 190.022 224.578 188.562 222.604C185.006 217.788 183.172 216.875 180.364 215.102C178.886 214.171 176.391 212.78 173.304 211.685C169.314 210.268 164.732 210.303 160.803 210.894C150.005 212.502 145.102 222.491 143.024 221.579C139.686 220.118 151.318 208.468 153.57 206.93C155.343 205.712 163.559 200.07 177.182 201.331C180.52 201.644 182.902 202.844 184.276 203.574C188.31 205.712 188.405 207.425 192.118 209.546C194.734 211.042 196.925 211.485 200.333 212.163C201.915 212.476 205.402 213.015 212.531 213.293C215.33 213.406 217.286 213.076 219.738 212.537C221.702 212.102 225.223 211.024 225.154 210.111C225.058 209.016 219.972 209.572 213.765 207.869L213.748 207.903Z" fill="#B58753"/>
<path d="M159.418 253.678C160.549 255.643 161.183 256.747 162.461 257.034C162.931 257.138 163.192 257.069 163.339 256.999C163.809 256.782 164.044 256.295 163.774 255.843C163.261 254.991 163.339 254.843 161.583 253.391C161.288 253.148 160.653 252.913 160.018 252.904C159.931 252.904 159.445 252.896 159.314 253.148C159.227 253.33 159.358 253.565 159.418 253.669V253.678Z" fill="#6A5645"/>
<path d="M134.753 236.462C135.422 236.523 134.918 240.235 136.431 244.486C137.343 247.059 138.639 248.824 139.508 249.989C140.777 251.684 143.09 254.553 144.924 255.31C145.263 255.449 145.968 255.788 146.029 256.04C146.029 256.04 145.15 256.231 144.133 256.031C143.186 255.84 142.36 255.623 141.464 255.101C138.065 253.136 135.77 250.615 134.979 249.294C133.405 246.668 133.353 244.26 133.249 243.321C133.118 242.139 132.979 239.844 134.04 237.444C134.457 236.497 134.657 236.453 134.744 236.462H134.753Z" fill="white"/>
<path d="M145.561 239.434C144.101 240.668 144.431 242.99 144.509 243.459C144.57 243.79 144.953 245.859 146.683 246.884C147.187 247.189 148.317 247.484 150.499 247.719C152.22 247.902 152.855 247.815 153.298 247.554C154.576 246.798 154.437 244.528 154.42 244.268C154.255 241.955 152.49 240.06 150.673 239.225C150.273 239.043 148.552 238.252 146.717 238.843C146.396 238.947 145.978 239.086 145.561 239.434Z" fill="white"/>
<path d="M145.561 239.436C144.101 240.671 144.431 242.992 144.509 243.461C144.57 243.792 145.7 245.652 146.526 245.922C147.178 246.139 147.891 246.235 148.813 246.087C149.534 245.974 149.804 245.6 150.151 245.209C150.551 244.748 150.769 243.87 150.786 243.609C150.864 242.357 150.473 240.801 150.047 240.158C149.804 239.793 148.552 238.245 146.717 238.836C146.396 238.941 145.978 239.08 145.561 239.427V239.436Z" fill="#1B1A33"/>
<path d="M153.311 248.146C153.441 248.398 153.693 248.511 153.98 248.65C154.328 248.806 154.702 248.98 154.893 248.824C155.093 248.659 154.971 248.224 154.867 247.824C154.736 247.329 154.51 246.998 154.328 246.746C154.137 246.477 154.041 246.346 153.919 246.311C153.389 246.181 152.624 247.294 152.815 247.589C152.867 247.676 152.98 247.659 153.128 247.824C153.241 247.946 153.259 248.05 153.311 248.154V248.146Z" fill="#6A5645"/>
<path d="M104.227 322.723H108.887V288.582H104.227V322.723Z" fill="#A92B27"/>
<path d="M96.5509 403.913V315.02H93.6211C93.7254 344.248 93.821 373.485 93.9254 402.713C94.8034 403.113 95.6815 403.513 96.5596 403.913H96.5509Z" fill="#861812"/>
<path d="M103.285 403.808C103.407 386.655 103.52 369.502 103.641 352.35H96.5474C96.53 369.537 96.5213 386.716 96.5039 403.903L103.285 403.808Z" fill="#A92B27"/>
<path d="M135.547 403.913V350.533H132.617C132.722 368.086 132.817 385.638 132.921 403.191C133.8 403.435 134.678 403.669 135.556 403.913H135.547Z" fill="#861812"/>
<path d="M142.277 403.808C142.399 386.655 142.512 369.502 142.634 352.35H135.54C135.522 369.537 135.513 386.716 135.496 403.903L142.277 403.808Z" fill="#A92B27"/>
<path d="M103.185 344.656C103.333 327.999 103.489 311.342 103.637 294.693H96.5431L96.4648 345.126L103.176 344.656H103.185Z" fill="#A92B27"/>
<path d="M104.342 288.651C91.1273 280.252 77.9215 271.863 64.707 263.465C64.7853 274.888 64.8635 286.312 64.9418 297.744C78.0345 306.073 91.136 314.401 104.229 322.73C104.264 311.367 104.298 300.013 104.333 288.651H104.342Z" fill="#861812"/>
<path d="M64.707 263.465H69.3669C82.5379 271.837 95.7176 280.218 108.889 288.59C107.376 288.607 105.854 288.633 104.342 288.651C91.1273 280.252 77.9215 271.863 64.707 263.465Z" fill="#D2222D"/>
<path d="M99.6328 347.109L147.188 345.648C147.231 347.909 147.274 350.169 147.318 352.43L99.6328 354.29V347.109Z" fill="#A92B27"/>
<path d="M71.6993 358.236L96.546 377.223L96.4765 384.744L71.6211 365.252L71.6993 358.236Z" fill="#861812"/>
<path d="M96.5422 377.223L135.612 375.52V382.961L96.4727 384.744L96.5422 377.223Z" fill="#A92B27"/>
<path d="M135.613 375.521L132.614 372.6C122.903 373.147 113.184 373.695 103.473 374.243V377.225L135.622 375.521H135.613Z" fill="#861812"/>
<path d="M461.986 155.758H389.898C388.327 155.758 387.055 157.031 387.055 158.601V165.843C387.055 167.413 388.327 168.685 389.898 168.685H461.986C463.556 168.685 464.829 167.413 464.829 165.843V158.601C464.829 157.031 463.556 155.758 461.986 155.758Z" fill="#D2222D"/>
<path d="M462.522 156.947H391.233C389.663 156.947 388.391 158.22 388.391 159.79V166.25C388.391 167.82 389.663 169.092 391.233 169.092H462.522C464.092 169.092 465.365 167.82 465.365 166.25V159.79C465.365 158.22 464.092 156.947 462.522 156.947Z" fill="#871811"/>
<path d="M399.497 160.572L395.724 160.807C394.612 161.129 393.838 162.146 393.82 163.285C393.812 164.493 394.664 165.571 395.872 165.849L399.541 165.815C399.532 164.067 399.515 162.32 399.506 160.572H399.497Z" fill="#871811"/>
<path d="M399.34 165.823C400.79 165.823 401.966 164.648 401.966 163.198C401.966 161.748 400.79 160.572 399.34 160.572C397.89 160.572 396.715 161.748 396.715 163.198C396.715 164.648 397.89 165.823 399.34 165.823Z" fill="#411B17"/>
<path d="M400.36 212.005L407.184 211.971L407.176 210.11L405.141 210.119L405.133 208.258L406.237 208.25L406.228 206.389L404.342 206.398L404.333 204.842L406.854 204.833L406.845 202.973L400.316 202.999L400.36 212.005Z" fill="#EA9200"/>
<path d="M401.006 175.322L397.555 175.337C397.022 175.34 396.592 175.774 396.594 176.307L396.595 176.507C396.598 177.04 397.032 177.47 397.564 177.467L401.016 177.452C401.549 177.449 401.979 177.015 401.976 176.482L401.976 176.282C401.973 175.749 401.539 175.319 401.006 175.322Z" fill="#EA9200"/>
<path d="M401.116 198.968L397.664 198.984C397.131 198.986 396.701 199.42 396.704 199.953L396.705 200.153C396.707 200.686 397.141 201.116 397.674 201.114L401.125 201.098C401.658 201.096 402.088 200.662 402.086 200.129L402.085 199.929C402.083 199.396 401.649 198.966 401.116 198.968Z" fill="#EA9200"/>
<path d="M403.647 165.129C404.473 163.225 403.994 160.912 402.316 159.521C401.334 158.695 400.082 158.313 398.804 158.426C397.526 158.539 396.37 159.147 395.544 160.138C394.327 161.59 394.127 163.564 394.849 165.181C392.432 165.442 390.554 167.502 390.563 169.98C390.571 172.631 392.745 174.779 395.396 174.77C397.022 174.77 398.456 173.944 399.317 172.701C400.195 173.935 401.638 174.735 403.264 174.735C405.916 174.726 408.063 172.553 408.054 169.901C408.046 167.398 406.107 165.337 403.647 165.129ZM396.952 161.303C397.465 160.695 398.178 160.312 398.969 160.243C399.056 160.243 399.143 160.234 399.23 160.234C399.934 160.234 400.604 160.469 401.152 160.929C402.412 161.981 402.586 163.868 401.534 165.129C400.639 166.207 399.143 166.485 397.935 165.894C397.813 165.815 397.691 165.746 397.57 165.685C397.491 165.633 397.413 165.572 397.335 165.511C396.726 164.998 396.344 164.285 396.274 163.494C396.205 162.703 396.448 161.929 396.952 161.312V161.303ZM395.388 172.935C393.744 172.935 392.397 171.614 392.397 169.971C392.397 168.328 393.718 166.98 395.361 166.98C395.831 166.98 396.274 167.085 396.666 167.276C396.787 167.354 396.918 167.432 397.048 167.493C397.831 168.024 398.352 168.928 398.352 169.945C398.352 171.588 397.031 172.935 395.388 172.935ZM403.255 172.901C401.612 172.901 400.265 171.579 400.265 169.936C400.265 168.293 401.586 166.946 403.229 166.946C404.872 166.946 406.22 168.267 406.22 169.91C406.22 171.553 404.898 172.901 403.255 172.901Z" fill="#EA9200"/>
<path d="M399.29 172.539L398.994 172.54C398.216 172.544 397.589 173.177 397.592 173.955L397.772 213.529C397.775 214.307 398.409 214.934 399.187 214.931L399.482 214.929C400.26 214.926 400.888 214.292 400.884 213.515L400.705 173.941C400.701 173.163 400.068 172.536 399.29 172.539Z" fill="#EA9200"/>
<path d="M428.646 160.574L424.873 160.809C423.76 161.131 422.986 162.148 422.969 163.287C422.96 164.495 423.812 165.573 425.021 165.851L428.689 165.817C428.681 164.069 428.663 162.322 428.654 160.574H428.646Z" fill="#871811"/>
<path d="M428.497 165.825C429.947 165.825 431.122 164.65 431.122 163.2C431.122 161.75 429.947 160.574 428.497 160.574C427.047 160.574 425.871 161.75 425.871 163.2C425.871 164.65 427.047 165.825 428.497 165.825Z" fill="#411B17"/>
<path d="M427.648 211.88L434.473 212.158L434.543 210.298L432.508 210.211L432.586 208.35L433.691 208.394L433.769 206.533L431.874 206.464L431.934 204.908L434.456 205.012L434.525 203.151L428.014 202.891L427.648 211.88Z" fill="#00996E"/>
<path d="M429.932 175.276L426.484 175.137C425.951 175.115 425.502 175.529 425.481 176.062L425.473 176.262C425.451 176.794 425.865 177.243 426.398 177.265L429.846 177.404C430.379 177.425 430.828 177.011 430.85 176.479L430.858 176.279C430.879 175.746 430.465 175.297 429.932 175.276Z" fill="#00996E"/>
<path d="M428.971 198.908L425.523 198.769C424.99 198.748 424.541 199.162 424.52 199.695L424.512 199.894C424.49 200.427 424.904 200.876 425.437 200.898L428.886 201.037C429.418 201.058 429.867 200.644 429.889 200.111L429.897 199.912C429.918 199.379 429.504 198.93 428.971 198.908Z" fill="#00996E"/>
<path d="M433.03 165.203C433.943 163.334 433.569 161.013 431.952 159.535C431.004 158.665 429.77 158.222 428.492 158.283C427.205 158.344 426.023 158.891 425.162 159.848C423.884 161.247 423.589 163.204 424.241 164.855C421.815 165.012 419.842 166.977 419.746 169.463C419.642 172.115 421.711 174.358 424.354 174.462C425.979 174.531 427.449 173.775 428.37 172.575C429.187 173.845 430.596 174.714 432.221 174.784C434.873 174.888 437.116 172.819 437.22 170.176C437.325 167.672 435.473 165.533 433.039 165.212L433.03 165.203ZM426.51 161.082C427.049 160.491 427.779 160.152 428.579 160.117C428.666 160.117 428.753 160.117 428.84 160.117C429.544 160.143 430.205 160.413 430.726 160.891C431.943 161.995 432.022 163.89 430.917 165.099C429.978 166.133 428.466 166.342 427.292 165.699C427.179 165.62 427.057 165.542 426.936 165.473C426.857 165.412 426.779 165.351 426.71 165.281C426.118 164.742 425.779 164.012 425.745 163.212C425.71 162.421 425.988 161.656 426.518 161.065L426.51 161.082ZM424.432 172.636C422.789 172.567 421.511 171.176 421.572 169.541C421.641 167.898 423.032 166.62 424.667 166.681C425.136 166.698 425.571 166.829 425.953 167.037C426.075 167.124 426.197 167.203 426.327 167.272C427.083 167.837 427.562 168.759 427.518 169.776C427.449 171.419 426.058 172.697 424.423 172.636H424.432ZM432.291 172.958C430.648 172.888 429.37 171.497 429.431 169.863C429.5 168.22 430.891 166.942 432.526 167.003C434.16 167.064 435.447 168.463 435.386 170.098C435.316 171.741 433.925 173.019 432.291 172.958Z" fill="#00996E"/>
<path d="M428.343 172.416L428.048 172.404C427.271 172.373 426.615 172.978 426.584 173.755L424.989 213.297C424.957 214.074 425.562 214.729 426.339 214.761L426.635 214.773C427.412 214.804 428.067 214.199 428.099 213.422L429.694 173.88C429.725 173.103 429.12 172.448 428.343 172.416Z" fill="#00996E"/>
<path d="M456.826 160.574L453.052 160.809C451.94 161.131 451.166 162.148 451.149 163.287C451.14 164.495 451.992 165.573 453.2 165.851L456.869 165.817C456.86 164.069 456.843 162.322 456.834 160.574H456.826Z" fill="#871811"/>
<path d="M456.676 165.825C458.126 165.825 459.302 164.65 459.302 163.2C459.302 161.75 458.126 160.574 456.676 160.574C455.226 160.574 454.051 161.75 454.051 163.2C454.051 164.65 455.226 165.825 456.676 165.825Z" fill="#411B17"/>
<path d="M460.857 211.662L467.665 211.114L467.517 209.262L465.491 209.419L465.343 207.567L466.439 207.48L466.291 205.619L464.413 205.776L464.283 204.228L466.795 204.028L466.647 202.168L460.145 202.69L460.857 211.662Z" fill="#D56626"/>
<path d="M458.75 175.083L455.31 175.357C454.778 175.399 454.382 175.864 454.424 176.396L454.44 176.595C454.482 177.126 454.947 177.523 455.479 177.48L458.919 177.207C459.45 177.164 459.847 176.699 459.805 176.168L459.789 175.969C459.746 175.437 459.281 175.041 458.75 175.083Z" fill="#D56626"/>
<path d="M460.617 198.646L457.177 198.92C456.646 198.962 456.249 199.427 456.291 199.958L456.307 200.157C456.35 200.689 456.814 201.085 457.346 201.043L460.786 200.769C461.318 200.727 461.714 200.262 461.672 199.73L461.656 199.531C461.614 199 461.149 198.603 460.617 198.646Z" fill="#D56626"/>
<path d="M460.621 164.671C461.308 162.706 460.656 160.446 458.874 159.177C457.83 158.429 456.552 158.134 455.292 158.351C454.022 158.56 452.918 159.255 452.171 160.298C451.067 161.837 451.014 163.819 451.858 165.384C449.467 165.828 447.746 168.018 447.945 170.496C448.154 173.139 450.475 175.121 453.118 174.904C454.735 174.773 456.109 173.852 456.874 172.548C457.839 173.713 459.334 174.408 460.96 174.278C463.603 174.069 465.585 171.748 465.368 169.105C465.168 166.601 463.081 164.697 460.621 164.68V164.671ZM453.657 161.359C454.118 160.707 454.805 160.281 455.596 160.151C455.683 160.133 455.77 160.124 455.857 160.116C456.552 160.064 457.248 160.246 457.822 160.663C459.16 161.62 459.473 163.48 458.517 164.819C457.7 165.958 456.231 166.349 454.987 165.854C454.866 165.784 454.735 165.732 454.605 165.671C454.518 165.619 454.44 165.567 454.353 165.515C453.701 165.054 453.275 164.367 453.144 163.576C453.014 162.793 453.196 162.002 453.657 161.35V161.359ZM452.97 173.078C451.336 173.208 449.893 171.983 449.762 170.34C449.632 168.705 450.858 167.262 452.501 167.132C452.97 167.097 453.414 167.166 453.822 167.332C453.953 167.401 454.083 167.462 454.222 167.523C455.04 168.001 455.622 168.853 455.709 169.87C455.839 171.505 454.614 172.948 452.97 173.078ZM460.812 172.452C459.178 172.583 457.735 171.357 457.604 169.714C457.474 168.071 458.7 166.636 460.343 166.506C461.986 166.375 463.42 167.601 463.551 169.244C463.681 170.879 462.455 172.322 460.812 172.452Z" fill="#D56626"/>
<path d="M456.828 172.433L456.533 172.457C455.757 172.518 455.179 173.197 455.241 173.972L458.38 213.421C458.442 214.197 459.12 214.775 459.896 214.714L460.19 214.69C460.966 214.629 461.544 213.95 461.483 213.175L458.343 173.725C458.281 172.95 457.603 172.371 456.828 172.433Z" fill="#D56626"/>
<path d="M366.453 344.055H419.268L439.793 349.471L370.878 349.514L366.453 344.055Z" fill="#D2222D"/>
<path d="M375.895 402.589V350.705H369.713V402.589H375.895Z" fill="#AA2B27"/>
<path d="M369.716 402.45V350.375H367.43V397.686L369.716 402.45Z" fill="#861812"/>
<path d="M417.771 402.686V350.61L415.484 349.445V400.121L417.771 402.686Z" fill="#861812"/>
<path d="M423.957 402.675V350.791H417.776V402.675H423.957Z" fill="#AA2B27"/>
<path d="M426.915 413.179V356.574H424.629V410.693L426.915 413.179Z" fill="#861812"/>
<path d="M368.87 322.643H370.922V287.876H368.87V322.643Z" fill="#861812"/>
<path d="M434.016 413.118V355.635H426.922V413.118H434.016Z" fill="#A92B27"/>
<path d="M383.062 413.11V355.627H375.968V413.11H383.062Z" fill="#A92B27"/>
<path d="M376.062 350.123V322.643H373.776V350.123H376.062Z" fill="#861812"/>
<path d="M427.012 350.131V322.65H424.725V350.131H427.012Z" fill="#861812"/>
<path d="M434.002 383.064H376.52V390.159H434.002V383.064Z" fill="#A92B27"/>
<path d="M370.933 356.557H439.613V349.463H370.933V356.557Z" fill="#A92B27"/>
<path d="M375.953 413.117V356.582H373.18V407.719L375.953 413.117Z" fill="#861812"/>
<path d="M366.496 351.106L370.921 356.557V349.471L366.496 344.012V351.106Z" fill="#861812"/>
<path d="M370.933 322.643H439.613V287.876H370.933V322.643Z" fill="#A92B27"/>
<path d="M434.016 359.366V301.883H426.922V359.366H434.016Z" fill="#A92B27"/>
<path d="M383.062 354.323V296.84H375.968V354.323H383.062Z" fill="#A92B27"/>
</svg>
