<svg width="369" height="260" viewBox="0 0 369 260" fill="none" xmlns="http://www.w3.org/2000/svg">
<path d="M17.481 216.764C-16.7293 174.104 11.4639 106.563 14.5331 99.4954C17.9663 91.5779 31.3228 62.7252 62.6944 38.8999C140.796 -20.4327 274.689 -8.76289 333.55 57.9893C339.082 64.2553 355.763 83.6118 363.491 113.8C365.99 123.539 377.527 168.603 352.415 206.539C332.034 237.335 298.964 245.92 268.284 254.154C241.474 261.342 214.118 260.517 159.393 258.877C110.261 257.396 92.7316 253.036 84.1062 250.608C55.3307 242.508 33.1061 236.266 17.4689 216.764H17.481Z" fill="#1B263D"/>
<mask id="mask0_1480_80838" style="mask-type:luminance" maskUnits="userSpaceOnUse" x="0" y="0" width="369" height="260">
<path d="M17.4771 216.764C-16.7332 174.104 11.46 106.563 14.5292 99.4954C17.9623 91.5779 31.3189 62.7252 62.6905 38.8999C140.792 -20.4327 274.685 -8.76289 333.547 57.9893C339.078 64.2553 355.759 83.6118 363.487 113.8C365.986 123.539 377.523 168.603 352.411 206.539C332.03 237.335 298.96 245.92 268.28 254.154C241.47 261.342 214.114 260.517 159.389 258.877C110.257 257.396 92.7277 253.036 84.1023 250.608C55.3268 242.508 33.1022 236.266 17.465 216.764H17.4771Z" fill="white"/>
</mask>
<g mask="url(#mask0_1480_80838)">
<g style="mix-blend-mode:lighten" opacity="0.26">
<path d="M137.364 28.7969C101.831 90.8496 66.2983 152.914 30.7656 214.967C32.828 222.29 37.171 233.619 46.9124 243.613C57.3454 254.3 69.5252 258.914 85.672 263.018C109.11 268.981 131.977 271.592 164.125 272.26C194.66 272.891 220.9 271.507 249.966 264.864C271.051 260.055 281.459 255.247 288.265 245.459C297.618 232.016 295.629 215.684 294.27 208.507C253.582 148.603 212.893 88.7002 172.205 28.809H137.364V28.7969Z" fill="#FFF8C6"/>
</g>
<path opacity="0.65" d="M13.5505 210.67C44.5824 193.317 60.0984 184.647 110.528 174.738C205.868 164.27 251.616 166.869 294.221 173.244C337.53 179.716 390.301 220.081 390.301 220.081C359.851 233.669 333.454 242.376 313.946 247.986C171.088 289.08 74.8744 257.07 49.532 245.691C39.3417 241.113 6.78124 225.958 8.97701 215.6C9.53505 212.965 12.1554 211.459 13.5505 210.67Z" fill="#1E2734"/>
</g>
<path d="M154.734 22.457C158.143 22.457 160.921 25.2257 160.921 28.6502C160.921 32.0624 158.155 34.8433 154.734 34.8433C151.325 34.8433 148.547 32.0746 148.547 28.6502C148.547 25.2379 151.313 22.457 154.734 22.457Z" fill="white"/>
<path d="M137.375 28.7943H172.217C172.217 28.7943 163.252 19.8203 154.954 19.8203C146.656 19.8203 137.363 28.7943 137.363 28.7943H137.375Z" fill="#861812"/>
<path d="M154.781 2.79688V20.7448" stroke="#861812" stroke-width="0.38" stroke-miterlimit="10"/>
<mask id="mask1_1480_80838" style="mask-type:luminance" maskUnits="userSpaceOnUse" x="0" y="0" width="369" height="260">
<path d="M17.481 216.302C-16.7293 173.642 11.4639 106.101 14.5331 99.0335C17.9663 91.116 31.3228 62.2633 62.6944 38.438C140.796 -20.8945 274.689 -9.22474 333.55 57.5153C339.082 63.7813 355.763 83.1378 363.491 113.326C365.99 123.065 377.527 168.129 352.415 206.065C332.034 236.861 298.964 245.446 268.284 253.679C241.474 260.868 214.118 260.043 159.393 258.403C110.261 256.922 92.7316 252.562 84.1062 250.134C55.3307 242.034 33.1061 235.792 17.4689 216.29L17.481 216.302Z" fill="white"/>
</mask>
<g mask="url(#mask1_1480_80838)">
<path opacity="0.42" d="M190.813 -1.68317C228.141 0.393349 265.481 2.46987 302.809 4.55853L371.339 74.0672C371.339 74.0672 388.299 120.309 382.767 142.641C377.235 164.973 365.055 219.011 347.113 224.597L329.171 230.183C329.304 226.054 328.964 221.233 327.581 216.036C322.219 195.793 305.163 185.216 299.837 182.192C285.983 176.885 267.252 171.251 244.615 168.567C223.373 166.041 204.97 166.867 190.801 168.506C190.801 111.772 190.801 55.0386 190.801 -1.69531L190.813 -1.68317Z" fill="#EDEDED"/>
<path d="M190.812 -1.68359C190.812 55.0503 190.812 111.784 190.812 168.518C213.838 166.879 251.445 166.405 287.111 177.443C299.449 181.269 309.979 185.98 318.046 196.156C327.957 208.664 329.134 223.127 329.182 230.194L329.389 53.4959C325.919 46.7685 319.696 36.8595 309.044 28.1163C297.556 18.693 286.031 14.8557 274.895 11.7834C244.13 3.28305 213.619 -0.214244 190.812 -1.68359Z" stroke="#1B263D" stroke-width="0.75" stroke-miterlimit="10"/>
<path opacity="0.24" d="M190.812 -4.36719C190.837 53.0832 190.861 110.533 190.873 167.984C213.753 166.344 251.142 165.871 286.589 176.909C298.854 180.734 309.323 185.446 317.33 195.61C327.181 208.118 328.345 222.568 328.394 229.636L328.6 53.0103C325.143 46.295 318.968 36.3739 308.377 27.6428C296.525 17.8673 284.685 14.1636 274.434 11.3099C243.596 2.73669 213.328 -1.84136 190.812 -4.36719Z" fill="#FFF8C6"/>
<path d="M226.758 0.355469V167.716" stroke="#1B263D" stroke-width="0.75" stroke-miterlimit="10"/>
<path d="M261.379 7.10742V168.869" stroke="#1B263D" stroke-width="0.75" stroke-miterlimit="10"/>
<path d="M287.508 15.8027V177.577" stroke="#1B263D" stroke-width="0.75" stroke-miterlimit="10"/>
<path d="M306.324 19.8223V186.029" stroke="#1B263D" stroke-width="0.75" stroke-miterlimit="10"/>
<path d="M320.957 30.6426V200.492" stroke="#1B263D" stroke-width="0.75" stroke-miterlimit="10"/>
<path d="M324.621 37.4531V207.29" stroke="#1B263D" stroke-width="0.75" stroke-miterlimit="10"/>
<path d="M326.961 44.1328V213.982" stroke="#1B263D" stroke-width="0.75" stroke-miterlimit="10"/>
</g>
<path d="M234.489 229.127C234.489 203.601 234.489 178.064 234.501 152.539C234.95 151.944 235.399 151.349 235.847 150.766C235.908 176.534 235.969 202.302 236.017 228.058L234.477 229.127H234.489Z" fill="#861812"/>
<path d="M234.5 166.746L230.4 166.697L216.109 177.748H220.125L234.5 166.746Z" fill="#A92B27"/>
<path d="M230.433 167.136C225.313 167.002 220.182 166.856 215.062 166.723V169.807C220.194 169.904 225.313 170.014 230.445 170.111V167.136H230.433Z" fill="#A92B27"/>
<path d="M213.805 166.746C214.278 166.381 214.751 166.005 215.224 165.641C220.295 165.774 225.354 165.92 230.425 166.053V167.134L213.805 166.746Z" fill="#861812"/>
<path d="M230.609 228.981C230.536 203.917 230.475 178.841 230.402 153.777H234.503V229.127L230.609 228.981Z" fill="#A92B27"/>
<path d="M213.825 229.127C213.825 203.601 213.825 178.064 213.837 152.539C214.286 151.944 214.734 151.349 215.183 150.766C215.244 176.534 215.305 202.302 215.353 228.058L213.812 229.127H213.825Z" fill="#861812"/>
<path d="M209.948 228.981C209.876 203.917 209.815 178.841 209.742 153.777H213.843V229.127L209.948 228.981Z" fill="#A92B27"/>
<path d="M216.218 239.011C216.145 213.437 216.085 187.863 216.012 162.289H220.112C220.112 187.912 220.124 213.534 220.136 239.157L216.218 239.011Z" fill="#A92B27"/>
<path d="M238.838 147.268C231.996 151.615 225.166 155.963 218.324 160.298V164.451C225.166 160.079 232.008 155.708 238.85 151.336V147.256L238.838 147.268Z" fill="#861812"/>
<path d="M238.845 147.268C229.261 147.268 219.665 147.268 210.081 147.268C203.652 151.336 197.234 155.416 190.805 159.484C199.976 159.763 209.147 160.03 218.331 160.31C225.173 155.962 232.003 151.615 238.845 147.28V147.268Z" fill="#D2222D"/>
<path d="M181.232 114.856C182.191 116.071 182.676 117.601 183.137 118.426C184.302 120.515 184.302 120.673 185.685 122.628C186.801 124.207 187.917 125.652 189.142 126.526C190.052 127.17 188.341 119.689 184.714 116.326C183.792 115.476 183.137 113.909 182.64 114.322C182.591 114.358 180.577 114.055 181.22 114.856H181.232Z" fill="#6A5645"/>
<path d="M196.155 130.279C197.393 131.032 198.363 131.092 200.28 132.282C200.838 132.635 201.518 133.169 201.821 133.982C201.906 134.225 202.063 134.675 201.881 135.136C201.736 135.513 201.433 135.707 201.36 135.768C201.057 135.974 200.899 136.083 200.45 136.132C199.795 136.205 199.552 136.18 199.382 136.217C198.594 136.423 201.287 140.71 204.781 141.014C205.278 141.05 207.474 141.244 208.772 139.738C210.131 138.148 209.512 135.804 209.403 135.379C208.202 130.874 202.136 129.404 200.535 129.016C199.989 128.882 197.041 129.137 195.901 129.077C195.197 129.04 196.071 130.206 196.168 130.267L196.155 130.279Z" fill="#6A5645"/>
<path d="M191.046 82.9679C189.857 81.8629 188.268 80.4057 185.696 78.7542C183.646 77.4427 181.559 77.2727 179.824 77.127C178.563 77.0298 176.367 76.9934 173.832 77.7341C170.677 78.657 170.289 79.8228 166.626 81.6322C165.679 82.0936 162.913 83.3929 159.213 84.1094C156.933 84.5466 153.402 85.1902 149.533 83.903C148.15 83.4415 145.59 81.62 145.711 80.94C145.772 80.5878 146.706 81.2436 147.021 81.1828C150.673 80.4664 156.544 80.8185 159.42 80.4542C164.879 79.7621 164.26 75.8276 171.163 74.4068C171.818 74.2733 175.057 73.6418 179.182 74.4068C182.566 75.0383 184.689 76.2526 187.322 77.7706C189.687 79.1306 190.67 80.0778 190.682 81.1707C190.682 81.62 191.386 83.2594 191.046 82.9436V82.9679Z" fill="#6A5645"/>
<path d="M188.924 85.9192C187.614 85.5549 186.935 85.3606 185.297 85.3242C182.628 85.2635 180.663 86.0164 179.996 86.3078C178.261 87.0729 177.109 88.6151 174.791 91.6995C173.457 93.4846 172.365 95.1725 171.37 96.7268C169.357 99.872 169.405 100.078 168.592 100.904C166.457 103.066 163.91 103.758 162.842 104.025C162.842 104.025 159.373 104.924 156.036 103.94C155.321 103.734 154.556 103.26 154.314 103.114C153.853 102.835 153.816 102.75 153.816 102.689C153.816 102.228 156.085 102.046 157.529 101.706C161.047 100.868 163.279 98.1962 164.601 96.6054C167.27 93.3996 166.093 92.4038 168.714 88.8822C169.842 87.3764 171.916 84.6563 175.641 83.2841C177.982 82.4219 180.008 82.5677 184.072 82.8834C187.093 83.1141 188.294 83.5998 188.73 84.5106C188.949 84.9599 189.373 86.0285 188.924 85.9071V85.9192Z" fill="#6A5645"/>
<path d="M227.469 148.906C228.367 146.465 230.441 142.348 230.684 139.483C231.096 134.637 231.703 128.153 227.481 121.717C225.504 118.705 222.434 116.374 216.296 111.711C214.561 110.399 211.783 109.148 209.054 106.635C206.263 104.048 204.844 102.421 204.844 102.421C203.789 101.207 203.303 100.514 203.17 100.587C202.794 100.806 206.142 107.084 207.865 110.642C215.932 127.206 216.575 141.037 224.448 147.4C225.698 148.42 226.85 150.582 227.469 148.906Z" fill="#6A5645"/>
<path d="M152.288 79.6536C155.673 78.7185 155.952 77.6499 161.69 74.5776C165.705 72.4283 167.719 71.3475 170.218 70.8982C174.501 70.1332 177.994 71.1411 179.729 71.6511C182.071 72.3554 187.627 74.1162 190.635 78.3299C191.788 79.9329 191.933 79.8114 194.821 84.8752C195.342 85.7981 195.609 86.7089 196.143 87.4375C199.188 91.5541 199.625 91.8091 200.571 93.2784C201.699 95.0271 201.372 95.1485 203.482 100.309C205.096 104.244 205.897 106.199 206.721 107.45C208.456 110.048 209.681 110.291 214.279 114.044C218.683 117.626 220.891 119.423 222.808 122.155C225.865 126.491 226.847 130.826 227.236 132.647C227.988 136.12 228 139.12 227.988 140.759C227.976 146.879 226.677 150.243 228.097 151.032C229.043 151.555 231.093 150.85 232.306 149.952C233.046 149.405 233.604 148.701 233.932 148.871C234.272 149.041 234.09 150.024 234.041 150.279C233.726 151.955 232.67 153.23 231.663 154.177C230.317 155.44 228.91 156.242 228.206 156.558C228.121 156.594 228.036 156.63 227.951 156.667H188.585C188.706 156.12 189.362 155.574 189.859 155.149C191.836 153.497 194.517 153.74 195.367 153.74C197.38 153.74 198.86 153.437 199.394 152.745C199.625 152.441 199.564 151.7 199.479 151.433C199.188 150.51 198.581 149.721 195.961 147.353C193.947 145.544 193.013 145.046 192.564 143.576C191.958 141.573 192.867 138.707 193.159 138.318C193.85 137.432 194.517 135.817 198.302 136.12C204.004 136.57 205.338 140.82 206.394 140.261C209.694 138.5 205.132 133.23 203.555 132.271C200.547 130.449 197.065 130.826 194.287 129.745C193.207 129.32 190.284 128.179 188.124 125.422C187.505 124.633 186.523 122.799 184.351 119.18C183.357 117.517 182.847 116.909 181.876 115.671C181.052 114.614 180.13 113.789 178.516 113.048C177.279 112.477 176.502 111.846 176.527 111.7C176.648 111.178 178.916 111.627 179.402 111.773C179.899 111.919 181.573 112.562 182.653 113.242C183.999 114.092 184.315 114.517 184.885 114.724C188.015 115.841 188.755 114.566 189.531 113.861C190.089 113.364 191.23 111.056 191.4 110.716C191.8 109.903 192.406 108.786 191.982 108.106C191.533 107.389 190.744 107.292 190.053 107.377C189.095 107.486 189.131 108.203 187.894 108.676C186.377 109.259 184.812 109.259 183.611 109.113C182.18 108.943 181.573 108.713 180.979 107.923C180.688 107.535 180.494 107.073 180.384 105.349C180.202 102.544 180.384 101.949 180.566 99.9209C180.712 98.2937 184.545 90.6919 189.883 88.6032C190.817 88.2389 190.247 86.4781 188.003 85.4824C186.207 84.6809 184.339 84.2073 183.441 84.1588C181.209 84.0373 179.462 84.0009 179.086 84.0616C177.849 84.2438 177.449 84.2802 176.357 84.6445C174.61 85.2274 174.416 85.6038 173.385 86.3324C171.249 87.8261 170.425 88.8097 168.678 92.2463C166.664 96.205 167.343 96.6179 165.778 98.743C164.262 100.795 162.381 101.463 159.979 102.216C157.383 103.03 153.756 103.309 153.55 102.726C153.38 102.24 156.158 102.058 159.057 99.6416C161.375 97.7108 161.836 96.3993 163.728 92.8777C165.038 90.4369 165.984 89.3683 166.834 88.2268C168.896 85.4338 169.951 84.9116 171.577 83.8795C172.438 83.333 173.882 82.5315 175.665 81.9001C177.97 81.0743 180.627 81.0986 182.908 81.4386C189.155 82.3737 191.994 88.1539 193.195 87.6318C195.124 86.7817 188.391 80.0422 187.093 79.1435C186.062 78.4392 181.318 75.1727 173.433 75.9013C171.504 76.0834 170.121 76.7756 169.333 77.2006C167.003 78.4392 166.943 79.435 164.796 80.6615C163.279 81.5236 162.018 81.7787 160.04 82.1794C159.13 82.3615 157.104 82.6651 152.98 82.8351C151.354 82.8958 150.226 82.7137 148.807 82.398C147.666 82.143 145.628 81.5236 145.677 80.9893C145.725 80.3579 148.673 80.6736 152.264 79.69L152.288 79.6536Z" fill="#B58753"/>
<path d="M183.729 106.176C183.074 107.317 182.71 107.949 181.97 108.119C181.691 108.18 181.545 108.143 181.461 108.095C181.194 107.961 181.048 107.694 181.206 107.427C181.497 106.941 181.461 106.844 182.48 106.006C182.649 105.86 183.013 105.727 183.389 105.727C183.438 105.727 183.717 105.727 183.79 105.872C183.838 105.982 183.765 106.115 183.729 106.176Z" fill="#6A5645"/>
<path d="M198.011 96.2051C197.623 96.2415 197.914 98.3909 197.041 100.856C196.507 102.35 195.755 103.37 195.257 104.05C194.529 105.033 193.183 106.697 192.127 107.134C191.933 107.219 191.521 107.413 191.484 107.559C191.484 107.559 191.994 107.668 192.576 107.559C193.122 107.45 193.607 107.316 194.117 107.025C196.082 105.883 197.417 104.426 197.865 103.661C198.775 102.143 198.8 100.747 198.86 100.2C198.933 99.5202 199.018 98.1844 198.399 96.8001C198.157 96.2536 198.047 96.2294 197.999 96.2294L198.011 96.2051Z" fill="white"/>
<path d="M191.75 97.9308C192.599 98.6472 192.405 99.9952 192.357 100.262C192.32 100.457 192.102 101.647 191.095 102.254C190.804 102.424 190.149 102.606 188.887 102.74C187.892 102.849 187.528 102.8 187.261 102.642C186.521 102.205 186.606 100.894 186.618 100.736C186.715 99.4001 187.734 98.2951 188.79 97.8215C189.02 97.7122 190.015 97.2508 191.083 97.6029C191.265 97.6636 191.507 97.7486 191.75 97.9429V97.9308Z" fill="white"/>
<path d="M191.75 97.9297C192.599 98.6462 192.405 99.9941 192.356 100.261C192.32 100.456 191.665 101.524 191.192 101.694C190.816 101.816 190.403 101.876 189.87 101.791C189.445 101.731 189.299 101.512 189.093 101.281C188.863 101.014 188.741 100.504 188.729 100.358C188.681 99.6298 188.911 98.7312 189.154 98.3547C189.287 98.1483 190.015 97.2497 191.083 97.5897C191.265 97.6504 191.507 97.7354 191.75 97.9297Z" fill="#1B1A33"/>
<path d="M187.265 102.969C187.192 103.115 187.046 103.188 186.876 103.261C186.682 103.346 186.464 103.455 186.355 103.358C186.233 103.261 186.306 103.006 186.367 102.775C186.44 102.484 186.573 102.301 186.682 102.144C186.791 101.986 186.852 101.913 186.913 101.889C187.216 101.816 187.665 102.459 187.556 102.629C187.519 102.678 187.459 102.666 187.374 102.763C187.313 102.836 187.301 102.896 187.265 102.957V102.969Z" fill="#6A5645"/>
<path d="M220.125 239.156V161.961H221.823C221.775 187.219 221.714 212.477 221.666 237.736C221.156 238.209 220.635 238.683 220.125 239.156Z" fill="#861812"/>
<path d="M193.679 239.011C193.606 213.437 193.545 187.863 193.473 162.289H197.573C197.573 187.912 197.585 213.534 197.597 239.157L193.679 239.011Z" fill="#A92B27"/>
<path d="M197.57 239.156V161.961H199.269C199.22 187.219 199.16 212.477 199.111 237.736C198.601 238.209 198.08 238.683 197.57 239.156Z" fill="#861812"/>
<path d="M218.325 160.299L190.799 159.449C190.775 160.761 190.751 162.072 190.727 163.372L218.325 164.452V160.299Z" fill="#A92B27"/>
<path d="M234.501 166.746L220.125 177.748L220.161 182.107L234.549 170.814L234.501 166.746Z" fill="#861812"/>
<path d="M213.888 166.757L209.776 166.672C204.353 169.975 198.931 173.278 193.508 176.581L197.22 176.848C202.776 173.484 208.332 170.121 213.888 166.757Z" fill="#A92B27"/>
<path d="M213.887 166.758C208.489 169.915 203.078 173.072 197.68 176.242L197.801 180.674C203.163 177.383 208.537 174.08 213.899 170.789V166.77L213.887 166.758Z" fill="#861812"/>
<path d="M220.125 177.249L197.512 176.266V180.577L220.161 181.609L220.125 177.249Z" fill="#A92B27"/>
<path d="M197.512 176.267L199.61 175.113C205.118 175.247 210.614 175.38 216.121 175.514V177.238C209.922 176.911 203.723 176.583 197.512 176.255V176.267Z" fill="#861812"/>
<path d="M197.818 102.824C200.633 103.516 203.508 101.779 204.212 98.9619L204.6 97.3954C205.291 94.5782 203.556 91.7002 200.742 90.9959C197.927 90.3037 195.052 92.0402 194.349 94.8575L193.961 96.4239C193.269 99.2412 195.004 102.119 197.818 102.824Z" fill="#464749"/>
<path d="M198.593 99.9308C200.036 100.477 201.674 99.7487 202.22 98.3036L202.717 96.9921C202.754 96.8828 202.802 96.7493 202.839 96.5671C203.02 95.6928 202.717 94.9885 202.644 94.8427C202.196 93.8348 201.286 93.4463 201.079 93.3613C199.636 92.8148 197.998 93.5434 197.452 94.9885L196.955 96.3C196.409 97.745 197.137 99.3844 198.58 99.9308H198.593Z" fill="#6F7070"/>
<path d="M199.758 96.521C200.911 94.1044 202.051 91.6879 203.204 89.2592C204.15 87.1706 204.089 85.2276 203.143 84.499C202.743 84.1833 202.209 84.1347 201.942 84.0983C200.522 83.9526 199.419 84.8269 199.079 85.0941C198.679 85.4098 198.12 86.1748 197.017 87.7049C196.713 88.1178 196.471 88.4699 196.301 88.7128" stroke="#6F7070" stroke-width="1.51" stroke-miterlimit="10"/>
<path d="M197.683 89.6234L195.742 86.9883L194.711 88.6883L197.683 89.6234Z" fill="#B58753"/>
<path d="M198.303 99.944C199.637 100.454 201.141 99.774 201.651 98.4382L202.112 97.2239C202.148 97.1267 202.197 96.9932 202.221 96.8353C202.391 96.0338 202.1 95.3781 202.051 95.2445C201.639 94.3095 200.79 93.9573 200.608 93.8845C199.273 93.3744 197.769 94.0545 197.259 95.3902L196.798 96.6046C196.289 97.9403 196.968 99.4461 198.303 99.9561V99.944Z" fill="#373839"/>
<path d="M200.984 92.817C202.149 90.6433 203.217 88.2025 203.314 85.7374C203.338 84.8388 202.404 84.5838 201.652 84.5716V84.523C206.225 83.6002 202.149 91.3841 200.984 92.8048V92.817Z" fill="#464749"/>
<path d="M113.249 230.947C122.615 230.947 130.208 228.571 130.208 225.641C130.208 222.71 122.615 220.334 113.249 220.334C103.882 220.334 96.2891 222.71 96.2891 225.641C96.2891 228.571 103.882 230.947 113.249 230.947Z" fill="#282828"/>
<path d="M114.503 137.008H112.004V224.598H114.503V137.008Z" fill="#282828"/>
<path d="M109.137 130.558V116.727C109.137 116.727 110.35 113.376 113.407 113.448C116.464 113.521 117.471 116.509 117.471 116.509V130.546H109.137V130.558Z" fill="#A09B98"/>
<path d="M109.109 117.43C111.972 117.37 114.532 117.321 117.395 117.297C114.847 118.572 111.693 118.608 109.109 117.43Z" fill="#878787"/>
<path d="M109.109 117.952C111.972 117.891 114.532 117.843 117.395 117.818C114.847 119.093 111.693 119.13 109.109 117.952Z" fill="#878787"/>
<path d="M109.109 118.475C111.972 118.415 114.532 118.366 117.395 118.342C114.847 119.617 111.693 119.653 109.109 118.475Z" fill="#878787"/>
<path d="M109.109 119.071C111.972 118.998 114.532 118.962 117.395 118.938C114.847 120.213 111.693 120.249 109.109 119.071Z" fill="#878787"/>
<path d="M109.109 119.593C111.972 119.52 114.532 119.483 117.395 119.459C114.847 120.734 111.693 120.77 109.109 119.593Z" fill="#878787"/>
<path d="M109.109 120.102C111.972 120.042 114.532 119.993 117.395 119.969C114.847 121.244 111.693 121.28 109.109 120.102Z" fill="#878787"/>
<path d="M109.109 120.626C111.972 120.565 114.532 120.516 117.395 120.492C114.847 121.767 111.693 121.804 109.109 120.626Z" fill="#878787"/>
<path d="M109.109 121.147C111.972 121.087 114.532 121.038 117.395 121.014C114.847 122.289 111.693 122.325 109.109 121.147Z" fill="#878787"/>
<path d="M109.109 121.669C111.972 121.608 114.532 121.559 117.395 121.535C114.847 122.81 111.693 122.847 109.109 121.669Z" fill="#878787"/>
<path d="M109.309 116.387C112.172 116.327 114.731 116.278 117.594 116.254C115.047 117.529 111.893 117.565 109.309 116.387Z" fill="#878787"/>
<path d="M109.309 116.909C112.172 116.848 114.731 116.8 117.594 116.775C115.047 118.05 111.893 118.087 109.309 116.909Z" fill="#878787"/>
<path d="M109.109 122.264C111.972 122.204 114.532 122.155 117.395 122.131C114.847 123.406 111.693 123.442 109.109 122.264Z" fill="#878787"/>
<path d="M109.109 122.786C111.972 122.725 114.532 122.677 117.395 122.652C114.847 123.927 111.693 123.964 109.109 122.786Z" fill="#878787"/>
<path d="M109.109 123.309C111.972 123.249 114.532 123.2 117.395 123.176C114.847 124.451 111.693 124.487 109.109 123.309Z" fill="#878787"/>
<path d="M109.148 123.831C112.011 123.758 114.571 123.722 117.434 123.697C114.887 124.972 111.732 125.009 109.148 123.831Z" fill="#878787"/>
<path d="M109.148 124.341C112.011 124.28 114.571 124.231 117.434 124.207C114.887 125.482 111.732 125.519 109.148 124.341Z" fill="#878787"/>
<path d="M109.148 124.864C112.011 124.803 114.571 124.755 117.434 124.73C114.887 126.006 111.732 126.042 109.148 124.864Z" fill="#878787"/>
<path d="M109.148 125.458C112.011 125.397 114.571 125.349 117.434 125.324C114.887 126.599 111.732 126.636 109.148 125.458Z" fill="#878787"/>
<path d="M109.148 125.981C112.011 125.921 114.571 125.872 117.434 125.848C114.887 127.123 111.732 127.159 109.148 125.981Z" fill="#878787"/>
<path d="M109.148 126.503C112.011 126.442 114.571 126.393 117.434 126.369C114.887 127.644 111.732 127.681 109.148 126.503Z" fill="#878787"/>
<path d="M109.148 127.024C112.011 126.963 114.571 126.915 117.434 126.891C114.887 128.166 111.732 128.202 109.148 127.024Z" fill="#878787"/>
<path d="M109.148 127.548C112.011 127.487 114.571 127.438 117.434 127.414C114.887 128.689 111.732 128.726 109.148 127.548Z" fill="#878787"/>
<path d="M109.148 128.057C112.011 127.985 114.571 127.948 117.434 127.924C114.887 129.199 111.732 129.235 109.148 128.057Z" fill="#878787"/>
<path d="M109.148 128.665C112.011 128.604 114.571 128.556 117.434 128.531C114.887 129.806 111.732 129.843 109.148 128.665Z" fill="#878787"/>
<path d="M109.148 129.173C112.011 129.112 114.571 129.063 117.434 129.039C114.887 130.314 111.732 130.351 109.148 129.173Z" fill="#878787"/>
<path d="M109.148 129.696C112.011 129.635 114.571 129.587 117.434 129.562C114.887 130.838 111.732 130.874 109.148 129.696Z" fill="#878787"/>
<mask id="mask2_1480_80838" style="mask-type:luminance" maskUnits="userSpaceOnUse" x="109" y="113" width="9" height="18">
<path d="M109.137 130.607V116.776C109.137 116.776 110.35 113.424 113.407 113.497C116.464 113.57 117.471 116.557 117.471 116.557V130.595H109.137V130.607Z" fill="white"/>
</mask>
<g mask="url(#mask2_1480_80838)">
<path d="M109.305 113.545C112.192 113.715 114.715 113.655 117.59 113.363C115.164 114.905 111.804 114.978 109.305 113.545Z" fill="#878787"/>
<path d="M109.305 114.309C112.168 114.249 114.727 114.2 117.59 114.176C115.043 115.451 111.889 115.487 109.305 114.309Z" fill="#878787"/>
<path d="M109.305 114.833C112.168 114.76 114.727 114.724 117.59 114.699C115.043 115.974 111.889 116.011 109.305 114.833Z" fill="#878787"/>
<path d="M109.305 115.356C112.168 115.283 114.727 115.247 117.59 115.223C115.043 116.498 111.889 116.534 109.305 115.356Z" fill="#878787"/>
<path d="M109.305 115.876C112.168 115.815 114.727 115.766 117.59 115.742C115.043 117.017 111.889 117.054 109.305 115.876Z" fill="#878787"/>
</g>
<path d="M118.903 128.191V136.995C118.903 136.995 119.085 139.181 116.392 139.181H110.205C107.512 139.181 107.706 136.995 107.706 136.995V128.191" stroke="#6F7070" stroke-width="0.75" stroke-miterlimit="10"/>
<path d="M117.954 126.976L113.271 126.891L108.588 126.976C108.588 126.976 108.334 134.808 109.086 136.836C109.838 138.864 113.271 138.828 113.271 138.828C113.271 138.828 116.716 138.864 117.456 136.836C118.196 134.808 117.954 126.976 117.954 126.976Z" fill="#373839"/>
<path d="M117.956 126.976L113.273 126.891V138.828" fill="#373839"/>
<path d="M118.407 129.574C116.842 129.696 115.132 129.769 113.312 129.769C111.492 129.769 109.782 129.696 108.217 129.574C108.096 129.331 107.926 128.894 107.926 128.324C107.926 127.704 108.132 127.219 108.253 126.976C109.891 126.927 111.577 126.891 113.3 126.891C115.023 126.891 116.721 126.915 118.347 126.976C118.468 127.219 118.662 127.644 118.674 128.202C118.698 128.834 118.504 129.319 118.383 129.574H118.407Z" fill="#464749"/>
<path d="M108.282 130.134C108.148 130.195 107.918 130.268 107.627 130.256C107.372 130.256 107.166 130.183 107.044 130.134C106.911 129.636 106.777 128.944 106.777 128.131C106.777 127.281 106.911 126.576 107.044 126.066C107.178 126.018 107.384 125.957 107.627 125.957C107.918 125.957 108.148 126.018 108.282 126.066C108.427 126.552 108.585 127.256 108.585 128.119C108.585 128.969 108.427 129.661 108.282 130.134Z" fill="#6F7070"/>
<path d="M119.471 130.12C119.35 130.169 119.131 130.254 118.84 130.242C118.585 130.242 118.391 130.169 118.282 130.12C118.149 129.647 118.027 128.991 118.027 128.214C118.027 127.4 118.149 126.732 118.282 126.234C118.416 126.186 118.61 126.137 118.84 126.125C119.119 126.125 119.338 126.174 119.471 126.234C119.617 126.696 119.762 127.376 119.762 128.202C119.762 129.003 119.604 129.671 119.471 130.12Z" fill="#6F7070"/>
<path d="M114.605 137.589C116.061 136.229 116.777 134.553 116.947 132.598H117.044C117.117 133.096 117.153 133.606 117.141 134.116C117.032 135.16 117.056 136.386 116.207 137.151C115.77 137.516 115.212 137.734 114.642 137.674L114.605 137.589Z" fill="#464749"/>
<path d="M116.984 138.997C118.816 138.876 118.828 136.799 118.925 135.391H118.962C118.962 136.532 119.241 138.026 118.222 138.888C117.87 139.119 117.276 139.24 116.997 138.997H116.984Z" fill="#B2B2B2"/>
<path d="M119.012 129.999C119.145 129.149 119.485 128.372 119.521 127.559C119.667 128.336 119.764 129.55 119.012 129.999Z" fill="#B2B2B2"/>
<mask id="mask3_1480_80838" style="mask-type:luminance" maskUnits="userSpaceOnUse" x="0" y="0" width="368" height="260">
<path d="M16.7779 216.484C-17.4325 173.97 10.7607 106.659 13.83 99.6282C17.2631 91.7471 30.6197 62.9795 61.9913 39.2392C140.093 -19.8991 273.974 -8.26575 332.847 58.2557C338.379 64.5095 355.06 83.7932 362.787 113.872C365.286 123.587 376.823 168.493 351.712 206.284C331.331 236.97 298.261 245.531 267.581 253.74C240.771 260.904 213.414 260.091 158.69 258.452C109.558 256.982 92.0285 252.635 83.4031 250.218C54.6276 242.155 32.403 235.926 16.7657 216.496L16.7779 216.484Z" fill="white"/>
</mask>
<g mask="url(#mask3_1480_80838)">
<path d="M54.7668 238.182C54.7668 212.656 54.7668 187.119 54.7547 161.593C54.3058 160.998 53.857 160.403 53.4081 159.82C53.3475 185.589 53.2868 211.357 53.2383 237.113L54.779 238.182H54.7668Z" fill="#861812"/>
<path d="M54.7422 175.802L58.8547 175.754L73.1333 186.804H69.1299L54.7422 175.802Z" fill="#A92B27"/>
<path d="M58.8168 176.19C63.9362 176.057 69.0678 175.911 74.1872 175.777V178.862C69.0557 178.959 63.9362 179.068 58.8047 179.165V176.19H58.8168Z" fill="#A92B27"/>
<path d="M75.4402 175.804C74.9671 175.44 74.494 175.064 74.0209 174.699C68.95 174.833 63.8912 174.979 58.8203 175.112V176.193L75.4402 175.804Z" fill="#861812"/>
<path d="M58.6481 238.036C58.7208 212.972 58.7815 187.896 58.8543 162.832H54.7539V238.182L58.6481 238.036Z" fill="#A92B27"/>
<path d="M75.4114 238.182C75.4114 212.656 75.4114 187.119 75.3992 161.593C74.9504 160.998 74.5015 160.403 74.0527 159.82C73.992 185.589 73.9313 211.357 73.8828 237.113L75.4235 238.182H75.4114Z" fill="#861812"/>
<path d="M79.2965 238.036C79.3693 212.972 79.4299 187.896 79.5027 162.832H75.4023V238.182L79.2965 238.036Z" fill="#A92B27"/>
<path d="M73.0239 248.054C73.0967 222.48 73.1573 196.906 73.2301 171.332H69.1297C69.1297 196.955 69.1176 222.577 69.1055 248.2L73.0239 248.054Z" fill="#A92B27"/>
<path d="M50.3989 156.325C57.2409 160.672 64.0709 165.019 70.9129 169.354V173.508C64.0709 169.136 57.2288 164.764 50.3867 160.393V156.312L50.3989 156.325Z" fill="#861812"/>
<path d="M50.3984 156.324C59.9822 156.324 69.5781 156.324 79.1618 156.324C85.5914 160.392 92.0089 164.472 98.4385 168.54C89.2672 168.82 80.0959 169.087 70.9125 169.366C64.0704 165.019 57.2405 160.672 50.3984 156.336V156.324Z" fill="#D2222D"/>
<path d="M108.021 123.915C107.063 125.129 106.578 126.659 106.117 127.485C104.952 129.574 104.952 129.732 103.569 131.687C102.453 133.265 101.337 134.71 100.112 135.585C99.202 136.228 100.913 128.748 104.54 125.384C105.462 124.534 106.117 122.968 106.614 123.381C106.663 123.417 108.677 123.113 108.034 123.915H108.021Z" fill="#6A5645"/>
<path d="M93.0996 139.337C91.8623 140.09 90.8917 140.151 88.975 141.341C88.417 141.693 87.7376 142.227 87.4343 143.041C87.3494 143.284 87.1917 143.733 87.3737 144.195C87.5192 144.571 87.8225 144.765 87.8953 144.826C88.1986 145.033 88.3563 145.142 88.8052 145.19C89.4602 145.263 89.7029 145.239 89.8727 145.275C90.6613 145.482 87.9681 149.769 84.4743 150.072C83.9769 150.109 81.7811 150.303 80.4831 148.797C79.1244 147.206 79.7431 144.863 79.8522 144.438C81.0532 139.932 87.1189 138.463 88.7202 138.074C89.2661 137.941 92.2141 138.196 93.3544 138.135C94.058 138.099 93.1846 139.264 93.0875 139.325L93.0996 139.337Z" fill="#6A5645"/>
<path d="M98.2098 92.0265C99.3987 90.9215 100.988 89.4643 103.56 87.8128C105.61 86.5013 107.697 86.3313 109.431 86.1856C110.693 86.0884 112.889 86.052 115.424 86.7927C118.578 87.7156 118.967 88.8814 122.63 90.6908C123.576 91.1522 126.342 92.4515 130.042 93.168C132.323 93.6052 135.853 94.2488 139.723 92.9616C141.106 92.5001 143.666 90.6786 143.545 89.9986C143.484 89.6464 142.55 90.3022 142.234 90.2415C138.583 89.525 132.711 89.8771 129.836 89.5128C124.377 88.8207 124.996 84.8862 118.093 83.4654C117.438 83.3319 114.199 82.7004 110.074 83.4654C106.69 84.0969 104.567 85.3112 101.934 86.8292C99.5685 88.1892 98.5859 89.1364 98.5738 90.2293C98.5738 90.6786 97.8702 92.318 98.2098 92.0022V92.0265Z" fill="#6A5645"/>
<path d="M100.335 94.9642C101.645 94.5999 102.324 94.4056 103.962 94.3691C106.631 94.3084 108.596 95.0613 109.263 95.3527C110.998 96.1178 112.151 97.66 114.468 100.744C115.802 102.529 116.894 104.217 117.889 105.772C119.903 108.917 119.854 109.123 120.667 109.949C122.802 112.111 125.349 112.803 126.417 113.07C126.417 113.07 129.887 113.969 133.223 112.985C133.938 112.778 134.703 112.305 134.945 112.159C135.406 111.88 135.443 111.795 135.443 111.734C135.443 111.273 133.174 111.091 131.731 110.751C128.212 109.913 125.98 107.241 124.658 105.65C121.989 102.444 123.166 101.449 120.545 97.9271C119.417 96.4214 117.343 93.7012 113.618 92.329C111.277 91.4669 109.251 91.6126 105.187 91.9283C102.167 92.159 100.966 92.6448 100.529 93.5555C100.31 94.0048 99.8858 95.0734 100.335 94.952V94.9642Z" fill="#6A5645"/>
<path d="M61.7912 157.953C60.8935 155.512 58.8191 151.395 58.5764 148.529C58.164 143.684 57.5574 137.2 61.7791 130.764C63.7565 127.752 66.8257 125.421 72.9642 120.757C74.699 119.446 77.477 118.195 80.2066 115.682C82.9968 113.095 84.4162 111.468 84.4162 111.468C85.4716 110.253 85.9568 109.561 86.0903 109.634C86.4664 109.853 83.1181 116.131 81.3955 119.689C73.3281 136.252 72.6852 150.084 64.8119 156.447C63.5624 157.467 62.4099 159.628 61.7912 157.953Z" fill="#6A5645"/>
<path d="M136.955 88.7102C133.57 87.7752 133.291 86.7065 127.553 83.6343C123.537 81.4849 121.524 80.4041 119.024 79.9548C114.742 79.1898 111.248 80.1977 109.514 80.7077C107.172 81.412 101.616 83.1728 98.6074 87.3866C97.455 88.9895 97.3094 88.8681 94.4221 93.9319C93.9005 94.8548 93.6336 95.7655 93.0998 96.4941C90.0549 100.611 89.6181 100.866 88.6719 102.335C87.5437 104.084 87.8712 104.205 85.7604 109.366C84.1469 113.301 83.3462 115.256 82.5213 116.506C80.7865 119.105 79.5613 119.348 74.9635 123.1C70.5598 126.683 68.3519 128.48 66.4352 131.212C63.3781 135.547 62.3955 139.882 62.0073 141.704C61.2551 145.177 61.243 148.176 61.2551 149.816C61.2672 155.936 62.5653 159.3 61.1459 160.089C60.1997 160.611 58.1495 159.907 56.9364 159.008C56.1963 158.462 55.6383 157.757 55.3108 157.927C54.9711 158.097 55.1531 159.081 55.2016 159.336C55.517 161.012 56.5724 162.287 57.5793 163.234C58.9259 164.497 60.3331 165.299 61.0367 165.614C61.1217 165.651 61.2066 165.687 61.2915 165.724H100.658C100.536 165.177 99.8812 164.631 99.3839 164.206C97.4064 162.554 94.7254 162.797 93.8762 162.797C91.8624 162.797 90.3824 162.493 89.8486 161.801C89.6181 161.498 89.6788 160.757 89.7637 160.49C90.0549 159.567 90.6614 158.778 93.2818 156.41C95.2956 154.6 96.2297 154.102 96.6786 152.633C97.2851 150.629 96.3753 147.763 96.0841 147.375C95.3926 146.488 94.7254 144.873 90.9405 145.177C85.2387 145.626 83.9043 149.876 82.8489 149.318C79.5491 147.557 84.1105 142.287 85.6876 141.327C88.6962 139.506 92.1778 139.882 94.9559 138.802C96.0356 138.377 98.9593 137.235 101.119 134.479C101.737 133.689 102.72 131.856 104.891 128.237C105.886 126.573 106.396 125.966 107.366 124.727C108.191 123.671 109.113 122.845 110.727 122.105C111.964 121.534 112.74 120.902 112.716 120.757C112.595 120.234 110.326 120.684 109.841 120.829C109.344 120.975 107.67 121.619 106.59 122.299C105.243 123.149 104.928 123.574 104.358 123.78C101.228 124.897 100.488 123.622 99.7114 122.918C99.1534 122.42 98.013 120.113 97.8432 119.773C97.4428 118.959 96.8363 117.842 97.2609 117.162C97.7097 116.446 98.4983 116.349 99.1898 116.434C100.148 116.543 100.112 117.259 101.349 117.733C102.866 118.316 104.43 118.316 105.631 118.17C107.063 118 107.67 117.769 108.264 116.98C108.555 116.591 108.749 116.13 108.858 114.406C109.04 111.6 108.858 111.005 108.676 108.978C108.531 107.35 104.697 99.7485 99.3596 97.6599C98.4255 97.2956 98.9956 95.5348 101.24 94.539C103.035 93.7376 104.904 93.264 105.801 93.2154C108.033 93.094 109.78 93.0575 110.156 93.1183C111.394 93.3004 111.794 93.3368 112.886 93.7011C114.633 94.284 114.827 94.6605 115.858 95.3891C117.993 96.8827 118.818 97.8663 120.565 101.303C122.579 105.262 121.9 105.675 123.465 107.8C124.981 109.852 126.861 110.52 129.263 111.273C131.859 112.086 135.487 112.366 135.693 111.783C135.863 111.297 133.085 111.115 130.185 108.698C127.868 106.767 127.407 105.456 125.515 101.934C124.205 99.4935 123.258 98.4249 122.409 97.2834C120.347 94.4905 119.291 93.9683 117.666 92.9361C116.804 92.3896 115.361 91.5882 113.578 90.9567C111.273 90.131 108.616 90.1553 106.335 90.4953C100.087 91.4303 97.2487 97.2106 96.0477 96.6884C94.1189 95.8384 100.852 89.0988 102.15 88.2002C103.181 87.4959 107.924 84.2293 115.81 84.9579C117.739 85.14 119.122 85.8322 119.91 86.2572C122.239 87.4959 122.3 88.4916 124.447 89.7181C125.964 90.5803 127.225 90.8353 129.203 91.236C130.112 91.4182 132.138 91.7218 136.263 91.8918C137.889 91.9525 139.017 91.7703 140.436 91.4546C141.577 91.1996 143.615 90.5803 143.566 90.046C143.518 89.4145 140.57 89.7302 136.979 88.7466L136.955 88.7102Z" fill="#B58753"/>
<path d="M105.526 115.231C106.181 116.372 106.545 117.003 107.285 117.173C107.564 117.234 107.71 117.198 107.795 117.149C108.061 117.016 108.207 116.748 108.049 116.481C107.758 115.996 107.795 115.898 106.776 115.061C106.606 114.915 106.242 114.781 105.866 114.781C105.817 114.781 105.538 114.781 105.465 114.927C105.417 115.036 105.49 115.17 105.526 115.231Z" fill="#6A5645"/>
<path d="M91.2472 105.25C91.6354 105.286 91.3442 107.436 92.2177 109.901C92.7515 111.395 93.5036 112.415 94.001 113.095C94.7289 114.078 96.0754 115.742 97.1309 116.179C97.325 116.264 97.7374 116.458 97.7738 116.604C97.7738 116.604 97.2643 116.713 96.682 116.604C96.1361 116.495 95.6508 116.361 95.1413 116.07C93.1761 114.928 91.8416 113.471 91.3928 112.706C90.4829 111.188 90.4586 109.792 90.398 109.245C90.3252 108.565 90.2403 107.229 90.859 105.845C91.1016 105.299 91.2108 105.274 91.2593 105.274L91.2472 105.25Z" fill="white"/>
<path d="M97.5039 106.974C96.6547 107.69 96.8488 109.038 96.8973 109.305C96.9337 109.5 97.152 110.69 98.1589 111.297C98.4501 111.467 99.1052 111.649 100.367 111.783C101.362 111.892 101.726 111.843 101.992 111.685C102.732 111.248 102.648 109.937 102.635 109.779C102.538 108.443 101.519 107.338 100.464 106.864C100.233 106.755 99.2386 106.294 98.1711 106.646C97.9891 106.707 97.7465 106.792 97.5039 106.986V106.974Z" fill="white"/>
<path d="M97.5039 106.975C96.6547 107.691 96.8488 109.039 96.8973 109.306C96.9337 109.5 97.5888 110.569 98.0619 110.739C98.438 110.861 98.8504 110.921 99.3842 110.836C99.8088 110.776 99.9544 110.557 100.161 110.326C100.391 110.059 100.512 109.549 100.525 109.403C100.573 108.675 100.343 107.776 100.1 107.4C99.9665 107.193 99.2386 106.295 98.1711 106.635C97.9891 106.695 97.7465 106.78 97.5039 106.975Z" fill="#1B1A33"/>
<path d="M101.984 112.026C102.056 112.172 102.202 112.245 102.372 112.317C102.566 112.402 102.784 112.512 102.894 112.415C103.015 112.317 102.942 112.062 102.881 111.832C102.809 111.54 102.675 111.358 102.566 111.2C102.457 111.042 102.396 110.969 102.335 110.945C102.032 110.872 101.583 111.516 101.693 111.686C101.729 111.734 101.79 111.722 101.875 111.82C101.935 111.892 101.947 111.953 101.984 112.014V112.026Z" fill="#6A5645"/>
<path d="M69.1281 248.199V171.004H67.4297C67.4782 196.262 67.5389 221.52 67.5874 246.779C68.0969 247.252 68.6186 247.726 69.1281 248.199Z" fill="#861812"/>
<path d="M95.5708 248.054C95.6435 222.48 95.7042 196.906 95.777 171.332H91.6766C91.6766 196.955 91.6645 222.577 91.6523 248.2L95.5708 248.054Z" fill="#A92B27"/>
<path d="M91.671 248.201V171.006H89.9727C90.0212 196.264 90.0818 221.522 90.1304 246.781C90.6399 247.254 91.1615 247.728 91.671 248.201Z" fill="#861812"/>
<path d="M70.9141 169.354L98.44 168.504C98.4643 169.815 98.4886 171.127 98.5128 172.426L70.9141 173.507V169.354Z" fill="#A92B27"/>
<path d="M54.7434 175.801L69.1312 186.803L69.0826 191.15L54.707 179.857L54.7434 175.801Z" fill="#861812"/>
<path d="M75.3516 175.804L79.4641 175.719C84.8868 179.022 90.3095 182.325 95.7322 185.628L92.02 185.895C86.4639 182.531 80.9077 179.167 75.3516 175.804Z" fill="#A92B27"/>
<path d="M75.352 175.803C80.7504 178.96 86.161 182.117 91.5594 185.287L91.4381 189.719C86.0761 186.428 80.7019 183.125 75.3398 179.834V175.815L75.352 175.803Z" fill="#861812"/>
<path d="M69.1267 186.308L91.7394 185.324V189.635L69.0781 190.667L69.1267 186.308Z" fill="#A92B27"/>
<path d="M91.7462 185.322L89.6475 184.168C84.1398 184.302 78.6443 184.435 73.1367 184.569V186.293C79.3358 185.965 85.5349 185.637 91.7462 185.309V185.322Z" fill="#861812"/>
<path d="M284.075 246.209C284.075 220.684 284.075 195.146 284.087 169.621C284.536 169.026 284.984 168.431 285.433 167.848C285.494 193.616 285.555 219.384 285.603 245.14L284.062 246.209H284.075Z" fill="#861812"/>
<path d="M284.098 183.829L279.986 183.793L265.707 194.831H269.71L284.098 183.829Z" fill="#A92B27"/>
<path d="M280.019 184.229C274.899 184.096 269.768 183.95 264.648 183.816V186.901C269.78 186.998 274.899 187.107 280.031 187.204V184.229H280.019Z" fill="#A92B27"/>
<path d="M263.398 183.83C263.872 183.465 264.345 183.089 264.818 182.725C269.889 182.858 274.947 183.004 280.018 183.137V184.218L263.398 183.83Z" fill="#861812"/>
<path d="M280.191 246.063C280.118 220.999 280.057 195.923 279.984 170.859H284.085V246.209L280.191 246.063Z" fill="#A92B27"/>
<path d="M263.426 246.209C263.426 220.684 263.426 195.146 263.438 169.621C263.887 169.026 264.336 168.431 264.785 167.848C264.846 193.616 264.906 219.384 264.955 245.14L263.414 246.209H263.426Z" fill="#861812"/>
<path d="M259.546 246.063C259.473 220.999 259.413 195.923 259.34 170.859H263.44V246.209L259.546 246.063Z" fill="#A92B27"/>
<path d="M265.816 256.093C265.743 230.519 265.682 204.945 265.609 179.371H269.71C269.71 204.994 269.722 230.616 269.734 256.239L265.816 256.093Z" fill="#A92B27"/>
<path d="M288.44 164.352C281.598 168.699 274.768 173.047 267.926 177.382V181.535C274.768 177.163 281.61 172.792 288.452 168.42V164.34L288.44 164.352Z" fill="#861812"/>
<path d="M288.442 164.352C278.859 164.352 269.263 164.352 259.679 164.352C253.249 168.42 246.832 172.5 240.402 176.568C249.574 176.847 258.745 177.114 267.928 177.394C274.77 173.046 281.6 168.699 288.442 164.364V164.352Z" fill="#D2222D"/>
<path d="M230.814 131.942C231.773 133.157 232.258 134.687 232.719 135.512C233.884 137.601 233.884 137.759 235.267 139.714C236.383 141.293 237.499 142.738 238.724 143.612C239.634 144.256 237.923 136.775 234.296 133.412C233.374 132.561 232.719 130.995 232.222 131.408C232.173 131.444 230.159 131.141 230.802 131.942H230.814Z" fill="#6A5645"/>
<path d="M245.737 147.363C246.975 148.116 247.945 148.176 249.862 149.366C250.42 149.719 251.1 150.253 251.403 151.066C251.488 151.309 251.645 151.759 251.463 152.22C251.318 152.597 251.015 152.791 250.942 152.852C250.639 153.058 250.481 153.167 250.032 153.216C249.377 153.289 249.134 153.264 248.964 153.301C248.176 153.507 250.869 157.794 254.363 158.097C254.86 158.134 257.056 158.328 258.354 156.822C259.713 155.232 259.094 152.888 258.985 152.463C257.784 147.958 251.718 146.488 250.117 146.1C249.571 145.966 246.623 146.221 245.483 146.161C244.779 146.124 245.653 147.29 245.75 147.351L245.737 147.363Z" fill="#6A5645"/>
<path d="M240.632 100.066C239.443 98.9605 237.854 97.5033 235.282 95.8518C233.232 94.5404 231.145 94.3703 229.41 94.2246C228.149 94.1275 225.953 94.0911 223.418 94.8318C220.263 95.7547 219.875 96.9205 216.212 98.7298C215.265 99.1913 212.499 100.491 208.799 101.207C206.519 101.644 202.988 102.288 199.119 101.001C197.736 100.539 195.176 98.7177 195.297 98.0377C195.358 97.6855 196.292 98.3412 196.607 98.2805C200.259 97.5641 206.13 97.9162 209.006 97.5519C214.465 96.8597 213.846 92.9253 220.749 91.5045C221.404 91.3709 224.643 90.7395 228.767 91.5045C232.152 92.136 234.275 93.3503 236.908 94.8682C239.273 96.2283 240.256 97.1755 240.268 98.2684C240.268 98.7177 240.972 100.357 240.632 100.041V100.066Z" fill="#6A5645"/>
<path d="M238.506 103.005C237.196 102.641 236.517 102.447 234.879 102.41C232.21 102.349 230.245 103.102 229.578 103.394C227.843 104.159 226.691 105.701 224.373 108.785C223.039 110.57 221.947 112.258 220.952 113.813C218.939 116.958 218.987 117.164 218.174 117.99C216.039 120.152 213.492 120.844 212.424 121.111C212.424 121.111 208.955 122.01 205.618 121.026C204.903 120.82 204.138 120.346 203.896 120.2C203.435 119.921 203.398 119.836 203.398 119.775C203.398 119.314 205.667 119.132 207.111 118.792C210.629 117.954 212.861 115.282 214.183 113.691C216.852 110.485 215.675 109.49 218.296 105.968C219.424 104.462 221.498 101.742 225.223 100.37C227.564 99.5079 229.59 99.6536 233.654 99.9693C236.675 100.2 237.876 100.686 238.312 101.597C238.531 102.046 238.955 103.114 238.506 102.993V103.005Z" fill="#6A5645"/>
<path d="M277.047 165.992C277.945 163.551 280.019 159.434 280.262 156.568C280.674 151.723 281.281 145.239 277.059 138.803C275.082 135.791 272.013 133.46 265.874 128.797C264.139 127.485 261.361 126.234 258.632 123.721C255.841 121.134 254.422 119.507 254.422 119.507C253.367 118.293 252.881 117.6 252.748 117.673C252.372 117.892 255.72 124.17 257.443 127.728C265.51 144.291 266.153 158.123 274.026 164.486C275.276 165.506 276.428 167.667 277.047 165.992Z" fill="#6A5645"/>
<path d="M201.866 96.7512C205.251 95.8162 205.53 94.7476 211.268 91.6753C215.284 89.5259 217.297 88.4451 219.796 87.9958C224.079 87.2308 227.573 88.2387 229.307 88.7487C231.649 89.4531 237.205 91.2138 240.213 95.4276C241.366 97.0305 241.512 96.9091 244.399 101.973C244.92 102.896 245.187 103.807 245.721 104.535C248.766 108.652 249.203 108.907 250.149 110.376C251.277 112.125 250.95 112.246 253.061 117.407C254.674 121.342 255.475 123.297 256.3 124.547C258.034 127.146 259.26 127.389 263.857 131.141C268.261 134.724 270.469 136.521 272.386 139.253C275.443 143.588 276.425 147.923 276.814 149.745C277.566 153.218 277.578 156.217 277.566 157.857C277.554 163.977 276.256 167.341 277.675 168.13C278.621 168.652 280.671 167.948 281.885 167.049C282.625 166.503 283.183 165.799 283.51 165.969C283.85 166.139 283.668 167.122 283.619 167.377C283.304 169.053 282.248 170.328 281.242 171.275C279.895 172.538 278.488 173.34 277.784 173.655C277.699 173.692 277.614 173.728 277.529 173.765H238.163C238.285 173.218 238.94 172.672 239.437 172.247C241.414 170.595 244.095 170.838 244.945 170.838C246.958 170.838 248.438 170.534 248.972 169.842C249.203 169.539 249.142 168.798 249.057 168.531C248.766 167.608 248.159 166.819 245.539 164.451C243.525 162.641 242.591 162.143 242.142 160.674C241.536 158.67 242.446 155.804 242.737 155.416C243.428 154.529 244.095 152.914 247.88 153.218C253.582 153.667 254.917 157.917 255.972 157.359C259.272 155.598 254.71 150.328 253.133 149.368C250.125 147.547 246.643 147.923 243.865 146.843C242.785 146.418 239.862 145.276 237.702 142.52C237.084 141.73 236.101 139.897 233.929 136.278C232.935 134.614 232.425 134.007 231.455 132.768C230.63 131.712 229.708 130.886 228.094 130.146C226.857 129.575 226.08 128.943 226.105 128.798C226.226 128.275 228.495 128.725 228.98 128.87C229.477 129.016 231.151 129.66 232.231 130.34C233.578 131.19 233.893 131.615 234.463 131.821C237.593 132.939 238.333 131.663 239.11 130.959C239.668 130.461 240.808 128.154 240.978 127.814C241.378 127 241.985 125.883 241.56 125.203C241.111 124.487 240.323 124.39 239.631 124.475C238.673 124.584 238.709 125.3 237.472 125.774C235.955 126.357 234.39 126.357 233.189 126.211C231.758 126.041 231.151 125.81 230.557 125.021C230.266 124.632 230.072 124.171 229.962 122.447C229.781 119.641 229.962 119.046 230.144 117.019C230.29 115.391 234.124 107.79 239.461 105.701C240.395 105.337 239.825 103.576 237.581 102.58C235.786 101.779 233.917 101.305 233.02 101.256C230.787 101.135 229.041 101.099 228.664 101.159C227.427 101.341 227.027 101.378 225.935 101.742C224.188 102.325 223.994 102.701 222.963 103.43C220.828 104.924 220.003 105.907 218.256 109.344C216.242 113.303 216.921 113.716 215.356 115.841C213.84 117.893 211.96 118.561 209.558 119.314C206.961 120.127 203.334 120.407 203.128 119.824C202.958 119.338 205.736 119.156 208.636 116.739C210.953 114.808 211.414 113.497 213.306 109.975C214.616 107.535 215.563 106.466 216.412 105.324C218.474 102.531 219.53 102.009 221.155 100.977C222.016 100.431 223.46 99.6292 225.243 98.9978C227.548 98.172 230.205 98.1963 232.486 98.5363C238.733 99.4713 241.572 105.252 242.773 104.729C244.702 103.879 237.969 97.1398 236.671 96.2412C235.64 95.5369 230.897 92.2703 223.011 92.9989C221.082 93.1811 219.699 93.8732 218.911 94.2983C216.582 95.5369 216.521 96.5326 214.374 97.7591C212.857 98.6213 211.596 98.8763 209.618 99.277C208.708 99.4592 206.682 99.7628 202.558 99.9328C200.932 99.9935 199.804 99.8114 198.385 99.4956C197.244 99.2406 195.206 98.6213 195.255 98.087C195.303 97.4555 198.251 97.7713 201.842 96.7877L201.866 96.7512Z" fill="#B58753"/>
<path d="M233.315 123.258C232.66 124.399 232.296 125.031 231.556 125.201C231.277 125.262 231.131 125.225 231.046 125.177C230.78 125.043 230.634 124.776 230.792 124.509C231.083 124.023 231.046 123.926 232.065 123.088C232.235 122.942 232.599 122.809 232.975 122.809C233.024 122.809 233.303 122.809 233.376 122.954C233.424 123.064 233.351 123.197 233.315 123.258Z" fill="#6A5645"/>
<path d="M247.593 113.289C247.205 113.325 247.496 115.475 246.623 117.94C246.089 119.434 245.337 120.454 244.839 121.134C244.111 122.117 242.765 123.781 241.709 124.218C241.515 124.303 241.103 124.497 241.066 124.643C241.066 124.643 241.576 124.752 242.158 124.643C242.704 124.534 243.189 124.4 243.699 124.109C245.664 122.967 246.999 121.51 247.447 120.745C248.357 119.227 248.382 117.831 248.442 117.284C248.515 116.604 248.6 115.268 247.981 113.884C247.739 113.338 247.629 113.313 247.581 113.313L247.593 113.289Z" fill="white"/>
<path d="M241.336 115.013C242.185 115.729 241.991 117.077 241.942 117.344C241.906 117.539 241.688 118.729 240.681 119.336C240.39 119.506 239.735 119.688 238.473 119.822C237.478 119.931 237.114 119.882 236.847 119.724C236.107 119.287 236.192 117.976 236.204 117.818C236.301 116.482 237.32 115.377 238.376 114.904C238.606 114.794 239.601 114.333 240.669 114.685C240.851 114.746 241.093 114.831 241.336 115.025V115.013Z" fill="white"/>
<path d="M241.336 115.014C242.185 115.73 241.991 117.078 241.942 117.345C241.906 117.54 241.251 118.608 240.778 118.778C240.402 118.9 239.989 118.96 239.455 118.875C239.031 118.815 238.885 118.596 238.679 118.365C238.449 118.098 238.327 117.588 238.315 117.442C238.267 116.714 238.497 115.815 238.74 115.439C238.873 115.232 239.601 114.334 240.669 114.674C240.851 114.734 241.093 114.819 241.336 115.014Z" fill="#1B1A33"/>
<path d="M236.862 120.051C236.789 120.197 236.644 120.27 236.474 120.343C236.28 120.428 236.062 120.537 235.952 120.44C235.831 120.343 235.904 120.088 235.964 119.857C236.037 119.566 236.171 119.383 236.28 119.226C236.389 119.068 236.45 118.995 236.51 118.971C236.814 118.898 237.263 119.541 237.153 119.711C237.117 119.76 237.056 119.748 236.971 119.845C236.911 119.918 236.899 119.978 236.862 120.039V120.051Z" fill="#6A5645"/>
<path d="M269.711 256.238V179.043H271.409C271.361 204.301 271.3 229.559 271.252 254.818C270.742 255.291 270.22 255.765 269.711 256.238Z" fill="#861812"/>
<path d="M243.261 256.093C243.188 230.519 243.127 204.945 243.055 179.371H247.155C247.155 204.994 247.167 230.616 247.179 256.239L243.261 256.093Z" fill="#A92B27"/>
<path d="M247.168 256.238V179.043H248.866C248.818 204.301 248.757 229.559 248.709 254.818C248.199 255.291 247.677 255.765 247.168 256.238Z" fill="#861812"/>
<path d="M267.923 177.393L240.397 176.543C240.373 177.854 240.348 179.166 240.324 180.465L267.923 181.546V177.393Z" fill="#A92B27"/>
<path d="M284.099 183.828L269.711 194.83L269.759 199.19L284.135 187.896L284.099 183.828Z" fill="#861812"/>
<path d="M263.486 183.843L259.374 183.758C253.951 187.061 248.528 190.364 243.105 193.667L246.818 193.934C252.374 190.57 257.93 187.207 263.486 183.843Z" fill="#A92B27"/>
<path d="M263.485 183.842C258.086 186.999 252.676 190.156 247.277 193.326L247.399 197.758C252.761 194.467 258.135 191.164 263.497 187.873V183.854L263.485 183.842Z" fill="#861812"/>
<path d="M269.707 194.345L247.094 193.35V197.673L269.755 198.705L269.707 194.345Z" fill="#A92B27"/>
<path d="M247.094 193.349L249.192 192.195C254.7 192.329 260.196 192.462 265.703 192.596V194.32C259.504 193.993 253.305 193.665 247.094 193.337V193.349Z" fill="#861812"/>
</g>
<path d="M91.2927 111.933C88.4783 112.625 85.6031 110.889 84.8995 108.071L84.5113 106.505C83.8198 103.688 85.5546 100.81 88.3691 100.105C91.1835 99.4131 94.0587 101.15 94.7623 103.967L95.1505 105.533C95.842 108.351 94.1072 111.229 91.2927 111.933Z" fill="#464749"/>
<path d="M90.5142 109.042C89.0706 109.589 87.4328 108.86 86.8869 107.415L86.3895 106.103C86.3531 105.994 86.3046 105.861 86.2682 105.678C86.0863 104.804 86.3895 104.1 86.4623 103.954C86.9112 102.946 87.821 102.558 88.0273 102.473C89.4709 101.926 91.1086 102.655 91.6545 104.1L92.1519 105.411C92.6978 106.856 91.9699 108.496 90.5263 109.042H90.5142Z" fill="#6F7070"/>
<path d="M89.3402 105.63C88.1877 103.214 87.0474 100.797 85.8949 98.3686C84.9487 96.2799 85.0093 94.337 85.9556 93.6084C86.3559 93.2927 86.8897 93.2441 87.1566 93.2077C88.5759 93.0619 89.6799 93.9363 90.0196 94.2034C90.4199 94.5192 90.978 95.2842 92.0819 96.8143C92.3852 97.2271 92.6278 97.5793 92.7976 97.8222" stroke="#6F7070" stroke-width="1.51" stroke-miterlimit="10"/>
<path d="M91.4258 98.7324L93.3547 96.1094L94.398 97.7973L91.4258 98.7324Z" fill="#B58753"/>
<path d="M90.7953 109.053C89.4608 109.563 87.9566 108.883 87.447 107.548L86.986 106.333C86.9497 106.236 86.9011 106.103 86.8769 105.945C86.707 105.143 86.9982 104.487 87.0467 104.354C87.4592 103.419 88.3084 103.067 88.4903 102.994C89.8248 102.484 91.3291 103.164 91.8386 104.5L92.2996 105.714C92.8091 107.05 92.1297 108.556 90.7953 109.066V109.053Z" fill="#373839"/>
<path d="M88.0782 101.961C86.9864 100.334 82.8253 92.8293 87.4595 93.655V93.7036C86.6952 93.7036 85.7611 93.9708 85.7854 94.8694C85.8339 97.3345 87.0713 99.836 88.0782 101.973V101.961Z" fill="#464749"/>
<path d="M247.393 119.532C250.207 120.225 253.082 118.488 253.786 115.671L254.174 114.104C254.865 111.287 253.131 108.409 250.316 107.705C247.502 107.013 244.627 108.749 243.923 111.566L243.535 113.133C242.843 115.95 244.578 118.828 247.393 119.532Z" fill="#464749"/>
<path d="M248.167 116.642C249.61 117.188 251.248 116.46 251.794 115.015L252.291 113.703C252.328 113.594 252.376 113.46 252.413 113.278C252.595 112.404 252.291 111.699 252.219 111.554C251.77 110.546 250.86 110.157 250.654 110.072C249.21 109.526 247.572 110.254 247.026 111.699L246.529 113.011C245.983 114.456 246.711 116.095 248.155 116.642H248.167Z" fill="#6F7070"/>
<path d="M249.348 113.23C250.501 110.813 251.641 108.397 252.793 105.968C253.74 103.88 253.679 101.937 252.733 101.208C252.332 100.892 251.799 100.844 251.532 100.807C250.112 100.662 249.008 101.536 248.669 101.803C248.268 102.119 247.71 102.884 246.606 104.414C246.303 104.827 246.06 105.179 245.891 105.422" stroke="#6F7070" stroke-width="1.51" stroke-miterlimit="10"/>
<path d="M247.265 106.334L245.336 103.699L244.293 105.399L247.265 106.334Z" fill="#B58753"/>
<path d="M247.889 116.655C249.223 117.165 250.727 116.485 251.237 115.149L251.698 113.935C251.734 113.838 251.783 113.704 251.807 113.546C251.977 112.745 251.686 112.089 251.637 111.955C251.225 111.02 250.375 110.668 250.194 110.595C248.859 110.085 247.355 110.765 246.845 112.101L246.384 113.316C245.875 114.651 246.554 116.157 247.889 116.667V116.655Z" fill="#373839"/>
<path d="M250.57 109.526C251.735 107.352 252.802 104.911 252.9 102.446C252.924 101.548 251.99 101.293 251.238 101.281V101.232C255.811 100.309 251.735 108.093 250.57 109.514V109.526Z" fill="#464749"/>
<path d="M54.7621 104.8C54.7621 104.497 54.4588 101.801 54.5073 100.902C54.5558 100.004 54.4588 99.6637 54.3739 99.3844C54.2889 99.1052 53.8643 99.1294 53.8643 99.1294C52.6876 99.5545 45.8819 99.8702 45.8213 99.8702C45.7606 99.8702 39.0035 99.5545 37.8753 99.1294C37.8753 99.1294 37.4507 99.1052 37.3293 99.3844C37.208 99.6637 37.0625 100.004 36.9775 100.902C36.9047 101.801 36.2254 104.497 36.1769 104.8C36.1405 105.104 35.91 107.059 36.1526 108.431C36.3831 109.803 37.3051 113.847 37.7903 114.576C38.2756 115.304 41.3206 119.045 41.7937 119.385C42.2668 119.725 43.298 120.368 44.3776 120.429C45.4695 120.368 46.5977 119.725 47.1072 119.385C47.6288 119.045 51.1833 115.304 51.7778 114.576C52.3722 113.847 53.8522 109.803 54.2768 108.431C54.7014 107.059 54.7621 105.092 54.7499 104.8H54.7621ZM41.1871 107.508C39.9982 107.448 39.0641 107.083 39.1127 106.683C39.1612 106.282 40.1681 106.015 41.3569 106.075C42.5458 106.136 43.4799 106.5 43.4314 106.901C43.3829 107.302 42.376 107.569 41.1871 107.508ZM49.5699 107.508C48.3689 107.569 47.3983 107.29 47.4105 106.901C47.4226 106.513 48.4052 106.136 49.6062 106.075C50.8072 106.015 51.7777 106.294 51.7656 106.683C51.7535 107.071 50.7709 107.448 49.5699 107.508Z" fill="#706F6F"/>
<path d="M39.1836 113.105C40.0207 114.538 41.5735 115.267 43.1748 115.388L44.8004 115.413L44.667 116.785C42.3256 116.384 40.0328 115.522 39.1836 113.105Z" fill="#1D1D1B"/>
<path d="M39.7422 113.918C41.2707 114.793 43.0662 114.963 44.7888 114.781L44.8131 115.691C43.0176 115.57 41.1494 115.084 39.7543 113.906L39.7422 113.918Z" fill="#1D1D1B"/>
<path d="M50.6374 113.105C49.5699 115.425 47.18 116.396 44.778 116.785L44.6445 115.413L46.3308 115.388C48.0049 115.243 49.6062 114.49 50.6253 113.105H50.6374Z" fill="#1D1D1B"/>
<path d="M49.97 113.918C48.4899 115.059 46.6096 115.582 44.7656 115.703L44.7899 114.792C46.5611 114.987 48.3929 114.768 49.97 113.93V113.918Z" fill="#1D1D1B"/>
<path d="M44.7173 105.359C43.6618 104.509 42.6792 103.95 41.9392 103.574C39.8283 102.505 39.0519 102.723 38.7001 102.869C38.3726 103.015 38.13 103.221 37.9844 103.367C37.9844 103.367 39.0398 103.039 40.5198 103.634C41.9998 104.229 44.2927 105.869 44.2927 105.869L44.7173 105.359Z" fill="#1D1D1B"/>
<path d="M39.1207 111.478C39.3148 112.061 39.5938 112.45 39.788 112.68C39.9335 112.85 40.1034 113.045 40.3945 113.227C40.7099 113.421 41.0253 113.482 41.644 113.603C41.8745 113.652 42.2021 113.713 42.5903 113.749C42.8329 113.615 43.1119 113.433 43.4031 113.166C43.5487 113.033 43.6821 112.899 43.7913 112.765L44.8952 113.069L43.5487 114.587C43.5487 114.587 42.93 114.708 41.644 114.368C40.3581 114.04 40.2611 113.955 39.9578 113.773C39.6545 113.591 38.7325 112.183 38.6476 111.648C38.5627 111.114 38.5748 111.272 38.5748 111.272L39.1086 111.466L39.1207 111.478Z" fill="#1D1D1B"/>
<path d="M46.1289 105.359C47.3056 104.509 48.3732 103.95 49.1496 103.574C51.4182 102.505 52.1582 102.723 52.4857 102.869C52.8011 103.015 53.0074 103.221 53.1408 103.367C53.1408 103.367 52.1339 103.039 50.569 103.634C49.004 104.229 46.4807 105.869 46.4807 105.869L46.1289 105.359Z" fill="#1D1D1B"/>
<path d="M50.8718 111.478C50.6049 112.061 50.2652 112.45 50.0347 112.68C49.8649 112.85 49.6708 113.045 49.3554 113.227C49.0036 113.421 48.6881 113.482 48.0573 113.603C47.8147 113.652 47.4871 113.713 47.0868 113.749C46.8684 113.615 46.6016 113.433 46.3589 113.166C46.2255 113.033 46.1163 112.899 46.0192 112.765L44.8789 113.069L46.0071 114.587C46.0071 114.587 46.6137 114.708 47.936 114.368C49.2704 114.04 49.3796 113.955 49.7072 113.773C50.0347 113.591 51.1508 112.183 51.3085 111.648C51.4662 111.114 51.4298 111.272 51.4298 111.272L50.8718 111.466V111.478Z" fill="#1D1D1B"/>
<path d="M36.66 107.315C36.9026 108.031 36.9996 108.529 37.3029 109.209C37.4606 110.035 37.4606 110.448 38.3462 110.751C38.6495 110.873 39.0741 110.97 39.2197 110.934C40.1417 110.679 41.2213 110.399 42.2404 110.448C41.8764 110.703 42.5073 110.241 42.6407 110.193C42.7863 110.29 42.5073 110.703 42.483 110.824C41.4397 111.419 40.4328 111.723 39.2075 111.723C38.3462 111.492 38.0308 110.849 37.2665 110.424C36.4052 109.61 35.9685 108.396 36.5751 107.303H36.66V107.315Z" fill="#1D1D1B"/>
<path d="M42.3029 110.777C42.4242 111.275 42.7518 111.239 42.6426 111.64C42.8124 111.822 43.1521 111.7 43.3583 111.591C43.5646 111.688 43.8436 111.81 44.0013 111.955C44.256 112.101 44.341 112.295 44.5351 112.453C44.6078 112.575 44.9354 112.732 44.9111 112.902C44.1711 113.51 43.2734 112.854 43.1278 112.04L43.3583 112.15C43.0429 111.98 42.8609 111.967 42.5213 112.089C42.0603 112.052 41.8055 111.773 41.7812 111.312C41.7812 111.032 42.0724 110.656 42.2786 110.777H42.3029Z" fill="#1D1D1B"/>
<path d="M47.9102 110.738C48.541 111.054 48.1771 112.135 47.4613 112.098C47.1095 112.001 46.9397 111.965 46.6 112.147L46.8063 112.062C46.6849 112.438 46.4908 112.73 46.1754 112.973C45.8721 113.252 44.9138 113.155 44.9259 112.827C45.2898 112.536 45.5567 112.183 45.9571 111.94C46.1269 111.795 46.4059 111.71 46.6243 111.613C46.8305 111.722 47.2187 111.831 47.34 111.637C47.3036 111.479 47.4371 111.248 47.5705 111.163C47.6797 111.163 47.7768 110.763 47.9223 110.75L47.9102 110.738Z" fill="#1D1D1B"/>
<path d="M43.3272 106.708C42.6721 106.671 42.2111 106.586 41.7016 106.428C41.2042 106.149 40.634 105.967 40.1124 106.283C39.518 106.574 39.0812 107.048 38.2927 106.865C37.5648 106.61 37.1766 105.979 37.1523 105.275L37.2373 105.238C37.7225 105.59 38.2199 105.882 38.5353 105.918C38.9235 106.003 39.5543 105.675 40.0275 105.785C40.6583 105.894 41.2163 105.748 41.835 105.663C42.4537 105.688 43.0724 106.04 43.3878 106.61L43.3393 106.683L43.3272 106.708Z" fill="#1D1D1B"/>
<path d="M43.0114 107.326C42.5626 107.788 41.9802 107.945 41.4101 107.909C40.8278 107.751 40.3183 107.557 39.7117 107.605C38.5956 107.642 37.9163 106.804 36.7638 106.974L36.7031 106.901C36.9336 106.258 37.8677 106.088 38.4136 106.294C39.2264 106.464 39.736 107.338 40.5851 107.363C41.3979 107.144 42.0773 106.925 42.975 107.229L42.9993 107.314L43.0114 107.326Z" fill="#1D1D1B"/>
<path d="M73.1968 45.591C81.4219 44.2916 89.6469 43.0044 97.8719 41.7051L97.2411 77.2123C89.0161 78.7788 80.8032 80.3453 72.5781 81.8997C72.7844 69.7927 72.9906 57.6979 73.1968 45.591Z" fill="#EED542"/>
<path opacity="0.39" d="M95.9244 64.8095C97.5084 57.4948 93.9992 50.5251 88.0864 49.2422C82.1737 47.9593 76.0964 52.849 74.5125 60.1638C72.9286 67.4785 76.4378 74.4482 82.3505 75.7311C88.2632 77.014 94.3405 72.1242 95.9244 64.8095Z" fill="#A02935"/>
<path d="M91.0132 61.0619C90.904 61.0134 90.722 60.9891 90.7342 60.9041C90.7463 60.8191 90.8676 60.7948 91.1588 60.6369C91.1952 60.6126 92.5417 59.9812 92.8935 58.0018C93.2696 55.8646 91.547 54.8567 90.9768 54.6017C90.8676 54.5531 90.6978 54.4924 90.4794 54.4802L88.7082 54.3952L89.3512 51.0801H87.3738L86.7308 54.3952H85.2387L85.8816 51.0801H83.7344L83.0914 54.3952H79.2822L78.8819 56.4353L81.1383 56.4717C81.2353 56.4717 81.3081 56.5567 81.2839 56.6539L79.2943 66.915C79.2943 66.915 79.2337 67.0122 79.173 67.0122H77.0864L76.3828 69.2344H80.3862L79.7432 72.5496H81.7813L82.4242 69.2344H83.9649L83.3219 72.5496H85.3843L86.0393 69.1737H86.8036C87.0099 69.1737 88.502 69.0766 88.8659 68.9309C88.9751 68.8944 91.9837 67.9837 92.6509 64.9478C93.2454 62.1913 91.1345 61.1348 91.0253 61.0741L91.0132 61.0619ZM84.7777 56.4839H87.3617C87.3617 56.4839 89.242 56.8603 88.9266 58.4754C88.5869 60.2119 86.6338 60.6126 86.6338 60.6126H83.977L84.7777 56.4839ZM85.3964 67.0001H82.7396L83.6131 62.4706H86.1971C86.1971 62.4706 89.1814 62.7863 88.8053 64.7292C88.405 66.8179 85.3843 66.9879 85.3843 66.9879L85.3964 67.0001Z" fill="#079C94"/>
<path d="M32.4489 92.0757L56.2262 89.1855L55.28 121.329C47.516 123.248 39.764 125.154 32 127.073C32.1456 115.415 32.2912 103.745 32.4367 92.0878L32.4489 92.0757Z" fill="#1D1D1B"/>
<path d="M33.1551 92.6572L56.6049 89.9492C56.3502 100.66 56.0954 111.382 55.8406 122.093C48.1373 123.939 40.4339 125.796 32.7305 127.642C32.876 115.985 33.0216 104.315 33.1672 92.6572H33.1551Z" fill="#D56626"/>
<path d="M54.309 104.584C54.3211 104.28 54.1513 101.572 54.2483 100.673C54.3454 99.7747 54.2483 99.4347 54.1877 99.1433C54.127 98.8518 53.6903 98.864 53.6903 98.864C52.4893 99.2283 45.6836 99.2161 45.6108 99.2161C45.5502 99.2161 38.8052 98.5725 37.7134 98.0989C37.7134 98.0989 37.3009 98.0504 37.1553 98.3297C37.0097 98.609 36.852 98.9368 36.7307 99.8354C36.6094 100.734 35.8087 103.393 35.7481 103.685C35.6874 103.988 35.372 105.931 35.5418 107.316C35.7117 108.7 36.4274 112.78 36.8884 113.533C37.3494 114.286 40.2003 118.16 40.6491 118.536C41.098 118.901 42.1049 119.593 43.1846 119.714C44.2764 119.702 45.4289 119.119 45.9627 118.803C46.4964 118.488 50.2329 114.93 50.8637 114.225C51.4945 113.521 53.1687 109.562 53.6539 108.202C54.1392 106.854 54.2969 104.899 54.309 104.596V104.584ZM40.6127 106.624C39.4239 106.514 38.514 106.101 38.5747 105.701C38.6353 105.312 39.6544 105.081 40.8432 105.203C42.0321 105.312 42.942 105.725 42.8813 106.126C42.8206 106.526 41.8016 106.745 40.6127 106.624ZM48.9833 107.024C47.7823 107.024 46.824 106.709 46.8604 106.308C46.8968 105.907 47.8794 105.591 49.0925 105.591C50.2935 105.591 51.2519 105.907 51.2155 106.308C51.1791 106.709 50.1965 107.024 48.9833 107.024Z" fill="#EDEDED"/>
<path d="M38.3442 112.123C39.1084 113.592 40.6249 114.406 42.2141 114.6L43.8397 114.697L43.6334 116.058C41.3163 115.535 39.0599 114.576 38.332 112.123H38.3442Z" fill="#1D1D1B"/>
<path d="M38.8672 112.961C40.3472 113.909 42.1305 114.164 43.8653 114.066L43.841 114.977C42.0577 114.771 40.2138 114.188 38.8793 112.949L38.8672 112.961Z" fill="#1D1D1B"/>
<path d="M49.7856 112.684C48.6089 114.942 46.1705 115.804 43.7564 116.072L43.6836 114.699L45.3698 114.76C47.0561 114.687 48.6817 114.019 49.7735 112.696L49.7856 112.684Z" fill="#1D1D1B"/>
<path d="M49.0818 113.449C47.5533 114.518 45.6486 114.955 43.8047 114.979L43.8653 114.069C45.6244 114.348 47.4562 114.214 49.0818 113.461V113.449Z" fill="#1D1D1B"/>
<path d="M44.2526 104.657C43.2336 103.758 42.2873 103.151 41.5716 102.738C39.5093 101.573 38.7329 101.743 38.3689 101.876C38.0292 101.998 37.7866 102.192 37.6289 102.338C37.6289 102.338 38.6965 102.058 40.1522 102.726C41.608 103.394 43.8159 105.131 43.8159 105.131L44.2647 104.633L44.2526 104.657Z" fill="#1D1D1B"/>
<path d="M38.3693 110.498C38.527 111.093 38.7939 111.494 38.9759 111.725C39.1093 111.895 39.2792 112.101 39.5582 112.295C39.8736 112.502 40.1769 112.587 40.7834 112.733C41.0139 112.793 41.3415 112.866 41.7297 112.927C41.9723 112.805 42.2635 112.635 42.5667 112.393C42.7245 112.259 42.8579 112.138 42.9792 112.016L44.0589 112.368L42.6395 113.825C42.6395 113.825 42.0208 113.91 40.747 113.522C39.4854 113.133 39.3883 113.036 39.0972 112.842C38.806 112.648 37.9447 111.202 37.8962 110.656C37.8477 110.122 37.8477 110.28 37.8477 110.28L38.3693 110.498Z" fill="#1D1D1B"/>
<path d="M45.6484 104.718C46.8737 103.929 47.9534 103.419 48.7541 103.079C51.0711 102.119 51.799 102.374 52.1144 102.532C52.4177 102.69 52.6118 102.909 52.7453 103.066C52.7453 103.066 51.7626 102.69 50.1613 103.212C48.56 103.734 45.976 105.24 45.976 105.24L45.6484 104.706V104.718Z" fill="#1D1D1B"/>
<path d="M50.0926 111.058C49.7893 111.628 49.4375 112.005 49.207 112.211C49.0372 112.369 48.8188 112.551 48.5034 112.721C48.1516 112.903 47.824 112.952 47.1811 113.037C46.9384 113.073 46.5988 113.11 46.2106 113.134C45.9922 112.988 45.7496 112.794 45.507 112.515C45.3856 112.369 45.2765 112.236 45.1915 112.102L44.0391 112.345L45.0945 113.923C45.0945 113.923 45.6889 114.069 47.0355 113.802C48.3821 113.535 48.4913 113.45 48.8309 113.292C49.1585 113.122 50.3595 111.774 50.5415 111.252C50.7234 110.73 50.687 110.888 50.687 110.888L50.1169 111.058H50.0926Z" fill="#1D1D1B"/>
<path d="M42.5903 115.316C42.5903 115.316 43.209 115.438 43.6335 115.474C44.0581 115.511 44.7618 115.426 44.7618 115.426C44.5313 116.021 44.4221 116.506 44.3614 116.834C44.2401 117.466 44.2765 117.745 44.0945 118.474C43.864 119.409 43.6457 119.639 43.4394 119.7C43.3424 119.724 43.2575 119.712 43.1968 119.7C43.124 119.7 43.027 119.7 42.9299 119.664C42.6752 119.53 42.6388 119.129 42.663 118.377C42.6873 117.478 42.748 117.247 42.748 116.761C42.748 116.421 42.7237 115.924 42.5781 115.329L42.5903 115.316Z" fill="#1D1D1B"/>
<path d="M36.1156 106.21C36.3218 106.926 36.3946 107.436 36.6615 108.128C36.7828 108.954 36.7585 109.379 37.632 109.719C37.9231 109.853 38.3477 109.974 38.4933 109.938C39.4274 109.719 40.5071 109.501 41.5261 109.598C41.1501 109.829 41.8052 109.404 41.9386 109.367C42.0721 109.476 41.793 109.865 41.7445 109.999C40.6648 110.545 39.6579 110.8 38.4327 110.727C37.5835 110.46 37.3044 109.804 36.5523 109.331C35.7274 108.481 35.3513 107.242 36.0185 106.186H36.1034L36.1156 106.21Z" fill="#1D1D1B"/>
<path d="M41.5764 109.949C41.6734 110.447 42.001 110.435 41.8675 110.823C42.0252 111.017 42.3649 110.908 42.5833 110.799C42.7895 110.908 43.0564 111.03 43.2141 111.2C43.4567 111.357 43.5416 111.552 43.7236 111.722C43.7843 111.843 44.1118 112.013 44.0875 112.195C43.3233 112.766 42.4498 112.062 42.3528 111.248L42.5833 111.37C42.28 111.187 42.0859 111.163 41.7583 111.26C41.2973 111.212 41.0547 110.908 41.0668 110.447C41.0668 110.167 41.3944 109.803 41.6006 109.937L41.5764 109.949Z" fill="#1D1D1B"/>
<path d="M53.4574 107.047C54.0276 108.711 52.5718 109.938 51.298 110.666C50.9947 110.885 50.7278 111.14 50.279 111.273C49.0294 111.37 47.9376 110.86 46.9065 110.229C46.8822 110.047 46.8458 109.853 46.7852 109.67C46.9065 109.5 47.2098 109.901 47.3068 109.998L47.1734 109.877C48.1439 109.877 49.2963 110.241 50.1455 110.484C50.6793 110.435 51.6256 110.265 51.9895 109.804C52.2079 109.209 52.5354 108.517 52.8751 107.982C53.0328 107.764 53.239 107.023 53.4574 107.035V107.047Z" fill="#1D1D1B"/>
<path d="M47.1754 110.18C47.7941 110.532 47.3816 111.576 46.6659 111.515C46.314 111.406 46.1563 111.358 45.8045 111.515L46.0108 111.443C45.9501 111.637 45.8652 111.795 45.7439 111.928C45.5134 112.256 45.1252 112.536 44.6763 112.463C44.4943 112.426 44.0819 112.353 44.094 112.11C44.4701 111.831 44.7612 111.491 45.1737 111.273C45.3557 111.139 45.6347 111.066 45.8531 110.981C46.0593 111.103 46.4354 111.224 46.5688 111.042C46.5445 110.884 46.678 110.653 46.8236 110.58C46.9327 110.58 47.0419 110.192 47.1875 110.18H47.1754Z" fill="#1D1D1B"/>
<path d="M42.7942 105.93C42.1512 105.857 41.6781 105.76 41.1807 105.578C40.7076 105.275 40.1374 105.068 39.5915 105.36C38.9849 105.615 38.5239 106.076 37.7475 105.857C37.0318 105.578 36.6678 104.922 36.68 104.218L36.7649 104.182C37.238 104.558 37.7233 104.874 38.0266 104.922C38.4148 105.032 39.0577 104.728 39.5187 104.862C40.1495 104.995 40.7076 104.886 41.3384 104.837C41.9571 104.886 42.5515 105.262 42.8427 105.857L42.7942 105.93Z" fill="#1D1D1B"/>
<path d="M42.4555 106.536C41.9824 106.974 41.4001 107.107 40.8299 107.046C40.2597 106.864 39.7623 106.646 39.1436 106.67C38.0276 106.646 37.3967 105.784 36.2321 105.893L36.1836 105.82C36.4384 105.189 37.3846 105.067 37.9305 105.298C38.7312 105.504 39.2043 106.415 40.0414 106.476C40.8542 106.306 41.5578 106.111 42.4312 106.451L42.4555 106.536Z" fill="#1D1D1B"/>
<path d="M46.8633 106.053C47.4335 105.155 48.5131 105.07 49.423 105.373C50.0174 105.458 50.721 105.276 51.2912 105.543C52.0434 105.738 52.4558 105.337 53.2686 104.973L53.3414 105.021C53.2201 106.078 51.8493 107.037 50.9151 106.321L50.2237 105.871C49.702 105.519 49.1076 105.689 48.5859 105.944C48.0643 106.078 47.5669 106.151 46.8997 106.126L46.8633 106.041V106.053Z" fill="#1D1D1B"/>
<path d="M47.1419 106.673C48.0517 106.418 48.7311 106.673 49.5317 106.928C50.3688 106.928 50.9511 106.103 51.776 105.981C52.3341 105.811 53.2924 105.981 53.4623 106.661L53.4016 106.722C52.4796 106.467 51.4727 107.317 50.4052 107.208C49.7865 107.135 49.277 107.305 48.6825 107.438C48.1124 107.438 47.5301 107.256 47.1055 106.771L47.1419 106.686V106.673Z" fill="#1D1D1B"/>
<mask id="mask4_1480_80838" style="mask-type:luminance" maskUnits="userSpaceOnUse" x="0" y="0" width="369" height="260">
<path d="M17.481 216.511C-16.7293 173.997 11.4639 106.687 14.5331 99.6556C17.9663 91.7745 31.3228 63.0068 62.6944 39.2665C140.796 -19.8718 274.689 -8.2384 333.55 58.283C339.082 64.5369 355.763 83.8206 363.491 113.9C365.99 123.614 377.527 168.521 352.415 206.311C332.034 236.997 298.964 245.558 268.284 253.767C241.474 260.932 214.118 260.118 159.393 258.479C110.261 257.009 92.7316 252.662 84.1062 250.246C55.3307 242.182 33.1061 235.953 17.4689 216.523L17.481 216.511Z" fill="white"/>
</mask>
<g mask="url(#mask4_1480_80838)">
<path d="M186.146 283.083L189.277 282.611L179.053 214.536L175.922 215.007L186.146 283.083Z" fill="#1F2734"/>
<path d="M176.088 222.227C185.455 222.227 193.048 219.851 193.048 216.92C193.048 213.989 185.455 211.613 176.088 211.613C166.722 211.613 159.129 213.989 159.129 216.92C159.129 219.851 166.722 222.227 176.088 222.227Z" fill="#282828"/>
<path d="M177.335 126.781H174.836V214.371H177.335V126.781Z" fill="#282828"/>
<path d="M171.973 120.346V106.514C171.973 106.514 173.186 103.163 176.243 103.236C179.3 103.308 180.307 106.296 180.307 106.296V120.333H171.973V120.346Z" fill="#A09B98"/>
<path d="M172 115.766C174.863 115.706 177.423 115.657 180.286 115.633C177.738 116.908 174.584 116.944 172 115.766Z" fill="#878787"/>
<path d="M172 116.29C174.863 116.217 177.423 116.181 180.286 116.156C177.738 117.431 174.584 117.468 172 116.29Z" fill="#878787"/>
<path d="M172 116.8C174.863 116.727 177.423 116.69 180.286 116.666C177.738 117.941 174.584 117.978 172 116.8Z" fill="#878787"/>
<path d="M172 117.321C174.863 117.26 177.423 117.212 180.286 117.188C177.738 118.463 174.584 118.499 172 117.321Z" fill="#878787"/>
<path d="M172 117.845C174.863 117.784 177.423 117.735 180.286 117.711C177.738 118.986 174.584 119.022 172 117.845Z" fill="#878787"/>
<path d="M172 118.438C174.863 118.378 177.423 118.329 180.286 118.305C177.738 119.58 174.584 119.616 172 118.438Z" fill="#878787"/>
<path d="M172 118.962C174.863 118.901 177.423 118.852 180.286 118.828C177.738 120.103 174.584 120.14 172 118.962Z" fill="#878787"/>
<path d="M172 119.485C174.863 119.412 177.423 119.376 180.286 119.352C177.738 120.627 174.584 120.663 172 119.485Z" fill="#878787"/>
<mask id="mask5_1480_80838" style="mask-type:luminance" maskUnits="userSpaceOnUse" x="171" y="103" width="10" height="18">
<path d="M171.973 120.394V106.563C171.973 106.563 173.186 103.212 176.243 103.284C179.3 103.357 180.307 106.345 180.307 106.345V120.382H171.973V120.394Z" fill="white"/>
</mask>
<g mask="url(#mask5_1480_80838)">
<path d="M172.145 103.334C175.032 103.505 177.555 103.444 180.43 103.152C178.004 104.682 174.644 104.767 172.145 103.334Z" fill="#878787"/>
<path d="M172.145 104.098C175.008 104.038 177.567 103.989 180.43 103.965C177.883 105.24 174.729 105.276 172.145 104.098Z" fill="#878787"/>
<path d="M172.145 104.622C175.008 104.561 177.567 104.513 180.43 104.488C177.883 105.763 174.729 105.8 172.145 104.622Z" fill="#878787"/>
<path d="M172.145 105.132C175.008 105.071 177.567 105.022 180.43 104.998C177.883 106.273 174.729 106.31 172.145 105.132Z" fill="#878787"/>
<path d="M172.145 105.655C175.008 105.594 177.567 105.546 180.43 105.521C177.883 106.797 174.729 106.833 172.145 105.655Z" fill="#878787"/>
</g>
<path d="M181.739 117.977V126.781C181.739 126.781 181.921 128.966 179.228 128.966H173.041C170.348 128.966 170.542 126.781 170.542 126.781V117.977" stroke="#6F7070" stroke-width="0.75" stroke-miterlimit="10"/>
<path d="M180.801 116.751L176.119 116.666L171.436 116.751C171.436 116.751 171.181 124.584 171.933 126.611C172.686 128.639 176.119 128.603 176.119 128.603C176.119 128.603 179.564 128.639 180.304 126.611C181.056 124.584 180.801 116.751 180.801 116.751Z" fill="#373839"/>
<path d="M180.808 116.751L176.113 116.678V128.615" fill="#373839"/>
<path d="M181.243 119.35C179.678 119.471 177.968 119.544 176.148 119.544C174.328 119.544 172.618 119.471 171.053 119.35C170.932 119.107 170.762 118.67 170.762 118.099C170.762 117.48 170.968 116.994 171.089 116.751C172.727 116.702 174.413 116.666 176.136 116.666C177.859 116.666 179.557 116.69 181.183 116.751C181.304 116.994 181.498 117.419 181.51 117.978C181.534 118.609 181.34 119.095 181.219 119.35H181.243Z" fill="#464749"/>
<path d="M171.125 119.92C170.992 119.98 170.761 120.053 170.47 120.041C170.216 120.041 170.009 119.968 169.888 119.92C169.755 119.422 169.621 118.729 169.621 117.916C169.621 117.066 169.755 116.361 169.888 115.851C170.021 115.803 170.228 115.742 170.47 115.742C170.761 115.742 170.992 115.803 171.125 115.851C171.271 116.337 171.429 117.042 171.429 117.904C171.429 118.754 171.271 119.446 171.125 119.92Z" fill="#6F7070"/>
<path d="M182.315 119.909C182.193 119.958 181.975 120.043 181.684 120.031C181.429 120.031 181.235 119.958 181.126 119.909C180.992 119.436 180.871 118.78 180.871 118.003C180.871 117.189 180.992 116.521 181.126 116.023C181.259 115.975 181.453 115.926 181.684 115.914C181.963 115.914 182.181 115.963 182.315 116.023C182.46 116.485 182.606 117.165 182.606 117.991C182.606 118.792 182.448 119.46 182.315 119.909Z" fill="#6F7070"/>
<path d="M177.441 127.366C178.897 126.006 179.613 124.33 179.783 122.375H179.88C179.953 122.873 179.989 123.383 179.977 123.893C179.868 124.937 179.892 126.164 179.043 126.929C178.606 127.293 178.048 127.512 177.478 127.451L177.441 127.366Z" fill="#464749"/>
<path d="M179.82 128.786C181.652 128.665 181.664 126.588 181.761 125.18H181.798C181.798 126.321 182.077 127.815 181.058 128.677C180.706 128.908 180.111 129.029 179.832 128.786H179.82Z" fill="#B2B2B2"/>
<path d="M181.859 119.787C181.993 118.936 182.332 118.159 182.369 117.346C182.514 118.123 182.612 119.337 181.859 119.787Z" fill="#B2B2B2"/>
<path d="M63.4868 265.945L65.6055 268.301L116.713 222.237L114.595 219.882L63.4868 265.945Z" fill="#1F2734"/>
<path d="M247.113 296.957L250.102 295.91L227.383 230.934L224.394 231.981L247.113 296.957Z" fill="#1F2734"/>
<path d="M224.393 239.969C233.76 239.969 241.353 237.593 241.353 234.662C241.353 231.731 233.76 229.355 224.393 229.355C215.027 229.355 207.434 231.731 207.434 234.662C207.434 237.593 215.027 239.969 224.393 239.969Z" fill="#282828"/>
<path d="M225.644 144.523H223.145V232.114H225.644V144.523Z" fill="#282828"/>
<path d="M220.281 138.088V124.256C220.281 124.256 221.494 120.905 224.551 120.978C227.609 121.051 228.615 124.038 228.615 124.038V138.076H220.281V138.088Z" fill="#A09B98"/>
<path d="M220.293 133.509C223.156 133.448 225.716 133.399 228.579 133.375C226.031 134.65 222.877 134.686 220.293 133.509Z" fill="#878787"/>
<path d="M220.293 134.02C223.156 133.96 225.716 133.911 228.579 133.887C226.031 135.162 222.877 135.198 220.293 134.02Z" fill="#878787"/>
<path d="M220.293 134.54C223.156 134.479 225.716 134.431 228.579 134.406C226.031 135.681 222.877 135.718 220.293 134.54Z" fill="#878787"/>
<path d="M220.293 135.063C223.156 135.003 225.716 134.954 228.579 134.93C226.031 136.205 222.877 136.241 220.293 135.063Z" fill="#878787"/>
<path d="M220.293 135.587C223.156 135.514 225.716 135.477 228.579 135.453C226.031 136.728 222.877 136.765 220.293 135.587Z" fill="#878787"/>
<path d="M220.293 136.18C223.156 136.12 225.716 136.071 228.579 136.047C226.031 137.322 222.877 137.358 220.293 136.18Z" fill="#878787"/>
<path d="M220.293 136.704C223.156 136.643 225.716 136.595 228.579 136.57C226.031 137.845 222.877 137.882 220.293 136.704Z" fill="#878787"/>
<path d="M220.293 137.223C223.156 137.163 225.716 137.114 228.579 137.09C226.031 138.365 222.877 138.401 220.293 137.223Z" fill="#878787"/>
<mask id="mask6_1480_80838" style="mask-type:luminance" maskUnits="userSpaceOnUse" x="220" y="121" width="9" height="18">
<path d="M220.277 138.135V124.303C220.277 124.303 221.49 120.952 224.548 121.025C227.605 121.097 228.612 124.085 228.612 124.085V138.122H220.277V138.135Z" fill="white"/>
</mask>
<g mask="url(#mask6_1480_80838)">
<path d="M220.449 121.061C223.336 121.231 225.86 121.17 228.735 120.879C226.309 122.421 222.948 122.494 220.449 121.061Z" fill="#878787"/>
<path d="M220.449 121.839C223.312 121.778 225.872 121.729 228.735 121.705C226.187 122.98 223.033 123.017 220.449 121.839Z" fill="#878787"/>
<path d="M220.449 122.348C223.312 122.276 225.872 122.239 228.735 122.215C226.187 123.49 223.033 123.526 220.449 122.348Z" fill="#878787"/>
<path d="M220.449 122.872C223.312 122.799 225.872 122.763 228.735 122.738C226.187 124.013 223.033 124.05 220.449 122.872Z" fill="#878787"/>
<path d="M220.449 123.391C223.312 123.331 225.872 123.282 228.735 123.258C226.187 124.533 223.033 124.569 220.449 123.391Z" fill="#878787"/>
</g>
<path d="M230.044 135.707V144.511C230.044 144.511 230.226 146.697 227.533 146.697H221.346C218.653 146.697 218.847 144.511 218.847 144.511V135.707" stroke="#6F7070" stroke-width="0.75" stroke-miterlimit="10"/>
<path d="M229.098 134.491L224.416 134.406L219.733 134.491C219.733 134.491 219.478 142.324 220.23 144.352C220.982 146.38 224.416 146.343 224.416 146.343C224.416 146.343 227.861 146.38 228.601 144.352C229.353 142.324 229.098 134.491 229.098 134.491Z" fill="#373839"/>
<path d="M229.101 134.491L224.418 134.406V146.355" fill="#373839"/>
<path d="M229.548 137.09C227.983 137.211 226.272 137.284 224.453 137.284C222.633 137.284 220.923 137.211 219.358 137.09C219.236 136.847 219.066 136.41 219.066 135.839C219.066 135.22 219.273 134.734 219.394 134.491C221.032 134.443 222.718 134.406 224.441 134.406C226.163 134.406 227.862 134.431 229.487 134.491C229.609 134.734 229.803 135.159 229.815 135.718C229.839 136.349 229.645 136.835 229.524 137.09H229.548Z" fill="#464749"/>
<path d="M219.43 137.662C219.297 137.722 219.066 137.795 218.775 137.783C218.52 137.783 218.314 137.71 218.193 137.662C218.059 137.164 217.926 136.472 217.926 135.658C217.926 134.808 218.059 134.104 218.193 133.594C218.326 133.545 218.532 133.484 218.775 133.484C219.066 133.484 219.297 133.545 219.43 133.594C219.576 134.079 219.733 134.784 219.733 135.646C219.733 136.496 219.576 137.188 219.43 137.662Z" fill="#6F7070"/>
<path d="M230.619 137.649C230.498 137.698 230.28 137.783 229.989 137.771C229.734 137.771 229.54 137.698 229.431 137.649C229.297 137.176 229.176 136.52 229.176 135.743C229.176 134.929 229.297 134.261 229.431 133.764C229.564 133.715 229.758 133.666 229.989 133.654C230.268 133.654 230.486 133.703 230.619 133.764C230.765 134.225 230.911 134.905 230.911 135.731C230.911 136.532 230.753 137.2 230.619 137.649Z" fill="#6F7070"/>
<path d="M225.75 145.104C227.206 143.744 227.922 142.068 228.091 140.113H228.188C228.261 140.611 228.298 141.121 228.285 141.631C228.176 142.676 228.201 143.902 227.351 144.667C226.915 145.031 226.357 145.25 225.786 145.189L225.75 145.104Z" fill="#464749"/>
<path d="M228.125 146.527C229.957 146.405 229.969 144.329 230.066 142.92H230.102C230.102 144.061 230.381 145.555 229.362 146.417C229.011 146.648 228.416 146.769 228.137 146.527H228.125Z" fill="#B2B2B2"/>
<path d="M230.16 137.527C230.294 136.677 230.633 135.9 230.67 135.086C230.815 135.863 230.912 137.077 230.16 137.527Z" fill="#B2B2B2"/>
<path d="M64.7988 271.909C68.9206 269.362 71.1236 265.451 69.7192 263.174C68.3149 260.897 63.835 261.116 59.7132 263.663C55.5914 266.21 53.3884 270.121 54.7928 272.398C56.1971 274.675 60.677 274.456 64.7988 271.909Z" fill="#1F2734"/>
</g>
</svg>
