<svg width="706" height="484" viewBox="0 0 706 484" fill="none" xmlns="http://www.w3.org/2000/svg">
<path d="M343.024 360.736C344.724 361.726 345.748 362.695 347.741 363.651C349.914 364.687 352.188 365.734 355.352 366.623C358.73 367.569 363.222 368.244 367.894 368.762C372.566 369.291 377.475 369.663 382.192 370.158C383.172 370.158 384.872 370.406 385.784 370.496C387.123 370.631 388.227 370.788 389.364 371.002C387.9 369.944 386.482 368.897 383.656 367.997C380.65 367.028 376.664 366.263 372.06 365.801C367.849 365.385 363.785 364.811 359.664 364.327C356.095 363.899 353.112 363.179 350.837 362.391C348.732 361.67 346.424 360.747 346.311 359.835C346.233 359.216 348.552 359.655 349.757 359.892C352.988 360.522 355.172 361.4 358.043 362.12C360.869 362.83 364.212 363.392 367.781 363.854C374.919 364.766 382.811 365.25 390.569 365.756C393.631 365.959 396.603 366.229 399.474 366.556C400.926 366.713 402.356 366.815 403.673 367.028C404.315 367.13 407.479 367.546 407.569 367.726C407.31 367.254 406.668 366.826 406.072 366.376C402.683 363.831 394.351 362.064 383.588 361.659C377.914 361.445 372.262 361.636 366.588 361.535C362.366 361.468 357.221 361.276 354.812 360.308C351.58 359.025 353.19 357.449 352.008 356.042C351.108 354.972 348.439 353.948 344.431 353.43C340.209 352.878 331.394 352.496 329.818 354.027C329.108 354.725 329.604 355.434 329.885 356.132C329.998 356.391 330.077 356.661 330.369 356.908C331.09 357.516 333.128 358.226 335.064 358.642C336.809 359.025 338.881 359.306 340.513 359.711C341.605 359.982 342.36 360.353 343.013 360.736H343.024Z" fill="#1F2734"/>
<mask id="mask0_1480_80480" style="mask-type:luminance" maskUnits="userSpaceOnUse" x="329" y="352" width="79" height="19">
<path d="M343.016 360.734C344.716 361.724 345.741 362.693 347.733 363.649C349.906 364.685 352.181 365.732 355.344 366.621C358.722 367.567 363.214 368.242 367.886 368.76C372.558 369.289 377.467 369.661 382.184 370.156C383.164 370.156 384.864 370.404 385.776 370.494C387.116 370.629 388.219 370.786 389.356 371C387.892 369.942 386.474 368.895 383.648 367.995C380.642 367.026 376.657 366.261 372.052 365.799C367.841 365.383 363.777 364.809 359.656 364.325C356.087 363.897 353.104 363.177 350.83 362.389C348.724 361.668 346.416 360.745 346.304 359.833C346.225 359.214 348.544 359.653 349.749 359.89C352.98 360.52 355.164 361.398 358.035 362.118C360.861 362.828 364.205 363.391 367.774 363.852C374.911 364.764 382.804 365.248 390.561 365.754C393.623 365.957 396.595 366.227 399.466 366.554C400.919 366.711 402.348 366.813 403.666 367.026C404.307 367.128 407.471 367.544 407.561 367.724C407.302 367.252 406.66 366.824 406.064 366.374C402.675 363.83 394.344 362.062 383.58 361.657C377.906 361.443 372.254 361.634 366.58 361.533C362.358 361.466 357.213 361.274 354.804 360.306C351.573 359.023 353.183 357.447 352 356.04C351.1 354.97 348.431 353.946 344.423 353.428C340.201 352.877 331.386 352.494 329.81 354.025C329.101 354.723 329.596 355.432 329.877 356.13C329.99 356.389 330.069 356.659 330.362 356.906C331.082 357.514 333.12 358.224 335.056 358.64C336.801 359.023 338.873 359.304 340.505 359.709C341.598 359.98 342.352 360.351 343.005 360.734H343.016Z" fill="white"/>
</mask>
<g mask="url(#mask0_1480_80480)">
<path d="M393.776 373.241L394.474 373.128C397.423 372.644 399.371 371.811 401.915 371.192C403.908 370.708 405.811 370.258 406.914 369.605C407.792 369.087 408.085 368.603 407.792 368.141C407.578 367.781 407.027 367.432 406.149 367.072C404.55 366.419 403.21 365.755 400.925 365.226C395.678 363.999 389.024 363.132 381.92 362.761C377.394 362.524 372.767 362.344 368.208 362.153C365.382 362.029 361.7 361.95 359.212 361.59C355.789 361.094 353.391 360.34 352.738 359.361C352.412 358.877 352.569 358.37 353.166 357.898C353.684 357.492 353.797 357.076 354.416 356.682C354.799 356.434 355.283 356.186 355.812 355.961C356.296 355.747 356.431 355.534 357.107 355.342C358.446 354.971 360.293 354.689 361.711 354.329C363.434 353.89 367.442 353.181 370.11 353.35C371.619 353.44 372.362 353.958 373.499 354.183C378.07 355.117 383.53 355.826 388.259 356.716C392.785 357.571 397.266 358.517 399.776 359.777C402.602 361.196 402.659 362.851 405.113 364.314C406.835 365.338 409.706 366.228 411.26 367.263C412.149 367.849 411.643 368.4 411.125 368.997C410.855 369.301 410.584 369.616 410.1 369.909C409.177 370.46 407.252 370.764 406.104 371.248C405.057 371.687 404.966 372.093 403.165 372.441C400.79 372.914 397.727 373.162 395.149 373.567C394.136 373.725 393.044 373.894 391.839 373.905C391.614 373.905 391.378 373.905 391.231 373.86C390.938 373.77 391.366 373.646 391.749 373.59C392.357 373.488 393.438 373.376 393.685 373.218C393.933 373.061 393.415 372.678 393.325 372.509C393.089 372.048 392.852 371.586 392.481 371.124C391.332 369.729 388.743 368.355 384.318 367.421C382.359 367.004 380.096 366.689 377.834 366.385C371.912 365.586 366.192 364.708 360.315 363.897C357.219 363.47 355.193 362.715 353.583 361.961C351.939 361.196 350.881 360.216 347.458 359.811C345.972 359.642 346.231 360.126 346.265 360.34C346.344 360.847 347.188 361.32 347.942 361.792C348.742 362.288 349.744 362.761 350.959 363.211C355.834 364.989 363.648 366.025 371.191 367.004C374.591 367.443 377.946 367.916 380.885 368.524C383.148 368.986 385.174 369.537 386.649 370.156C387.865 370.674 390.049 371.147 390.308 371.766C390.443 372.081 390.195 372.385 390.601 372.712C391.006 373.038 392.526 373.59 393.809 373.736C394.654 373.826 395.892 373.736 396.005 373.511" fill="#1F2734"/>
</g>
<path d="M342.389 356.609C340.633 356.53 339.451 356.125 339.755 355.697C340.059 355.27 341.736 354.977 343.493 355.056C345.249 355.135 346.431 355.54 346.127 355.968C345.823 356.395 344.145 356.688 342.389 356.609Z" fill="#1F2734"/>
<path d="M342.389 356.609C340.633 356.53 339.451 356.125 339.755 355.697C340.059 355.27 341.736 354.977 343.493 355.056C345.249 355.135 346.431 355.54 346.127 355.968C345.823 356.395 344.145 356.688 342.389 356.609Z" fill="#1F2734"/>
<path d="M342.971 356.574C342.262 356.608 341.462 356.574 340.776 356.439C338.918 356.113 337.871 355.392 337.387 354.863C337.961 355.122 339.154 355.291 340.359 355.291C341.338 355.291 342.352 355.269 343.219 355.404C344.108 355.539 344.705 355.775 344.682 356.045C344.648 356.36 343.894 356.529 342.96 356.574H342.971Z" fill="#1F2734"/>
<mask id="mask1_1480_80480" style="mask-type:luminance" maskUnits="userSpaceOnUse" x="337" y="354" width="8" height="3">
<path d="M342.975 356.576C342.266 356.61 341.466 356.576 340.779 356.441C338.922 356.115 337.875 355.394 337.391 354.865C337.965 355.124 339.158 355.293 340.363 355.293C341.342 355.293 342.356 355.27 343.223 355.406C344.112 355.541 344.709 355.777 344.686 356.047C344.652 356.362 343.898 356.531 342.964 356.576H342.975Z" fill="white"/>
</mask>
<g mask="url(#mask1_1480_80480)">
<path d="M343.882 356.704C345.268 356.704 346.392 356.432 346.392 356.096C346.392 355.76 345.268 355.488 343.882 355.488C342.495 355.488 341.371 355.76 341.371 356.096C341.371 356.432 342.495 356.704 343.882 356.704Z" fill="#1F2734"/>
<path d="M338.817 355.599C338.952 355.464 339.256 355.385 339.774 355.34C340.067 355.318 340.349 355.295 340.653 355.284C340.698 355.284 340.743 355.284 340.776 355.273C340.799 355.273 340.81 355.261 340.821 355.25C340.878 355.205 340.956 355.149 340.844 355.115C340.754 355.081 340.63 355.093 340.495 355.093C340.033 355.093 339.594 355.07 339.178 355.025C338.637 354.957 338.164 354.867 337.737 354.755C337.579 354.71 337.342 354.676 337.151 354.699C337.072 354.71 337.027 354.732 336.993 354.755C336.667 354.991 336.656 355.25 336.948 355.487C337.14 355.644 337.466 355.791 337.905 355.914C338.097 355.971 338.277 356.038 338.536 356.072C338.75 356.106 339.031 356.094 339.076 356.027C339.076 356.016 339.076 355.993 339.054 355.982C339.02 355.948 338.952 355.926 338.907 355.903C338.739 355.802 338.705 355.7 338.806 355.61L338.817 355.599Z" fill="#1F2734"/>
</g>
<path d="M352.839 358.79C352.839 358.79 351.274 358.283 351.105 357.574C350.97 357.011 352.107 356.246 350.767 355.244C349.563 354.343 346.377 353.78 343.168 353.285C343.168 353.285 344.294 353.432 346.287 353.645C348.279 353.859 352.524 354.535 353.706 355.705C354.888 356.876 352.715 357.878 352.839 358.79Z" fill="#1F2734"/>
<path d="M334.477 354.166H334.5C333.847 354.166 333.306 354.11 332.766 354.031C331.944 353.907 330.424 353.671 331.235 353.412C331.854 353.581 332.507 353.75 333.216 353.896C333.633 353.986 334.072 354.076 334.477 354.166Z" fill="#1F2734"/>
<path d="M334.942 335.157C333.839 335.18 336.259 335.957 336.473 336.013C337.746 336.328 339.097 336.553 340.808 336.643C342.789 336.745 351.335 336.148 348.148 337.375C346.009 338.197 343.003 338.827 341.089 339.683C337.487 341.304 341.089 343.386 348.588 342.891C349.128 342.857 349.657 342.801 350.209 342.801C350.76 342.801 351.368 342.868 351.56 343.015C351.684 343.105 351.616 343.217 351.492 343.307C350.22 344.298 345.525 344.309 342.576 344.692C338.534 345.221 334.965 346.099 332.049 347.033C329.065 347.979 328.176 349.296 324.596 350.129C323.132 350.467 317.109 350.658 317.705 351.243C320.272 352.696 327.478 351.424 330.934 350.737C333.771 350.174 335.235 350.624 336.158 351.39C336.879 351.986 338.928 352.302 340.121 352.808C341.405 353.36 340.718 353.878 339.513 354.44C337.926 355.183 335.426 355.735 333.929 356.5C332.285 357.333 333.344 358.324 335.336 359.056C337.509 359.855 340.875 360.058 344.174 359.754C348.07 359.405 350.4 358.662 352.01 357.615C353.44 356.681 354.532 355.735 356.536 354.868C357.02 354.654 357.527 354.452 358.056 354.272C363.336 352.425 371.521 351.626 377.893 350.118C384.198 348.621 388.071 346.459 389.377 344.208C390.323 342.587 389.568 340.977 387.936 339.401C387.519 338.996 385.223 337.814 386.743 337.521C388.206 337.24 391.741 338.039 392.541 338.321C392.71 338.377 392.901 338.444 393.16 338.467C393.914 338.523 394.286 338.219 394.23 337.994C393.993 337.116 393.025 336.497 390.48 335.934C388.274 335.45 385.437 335.247 382.701 335.135L334.965 335.169L334.942 335.157Z" fill="#1F2734"/>
<mask id="mask2_1480_80480" style="mask-type:luminance" maskUnits="userSpaceOnUse" x="317" y="335" width="78" height="25">
<path d="M334.938 335.159C333.835 335.182 336.256 335.958 336.469 336.015C337.742 336.33 339.093 336.555 340.804 336.645C342.786 336.746 351.331 336.15 348.145 337.377C346.005 338.199 342.999 338.829 341.085 339.685C337.483 341.306 341.085 343.388 348.584 342.893C349.124 342.859 349.653 342.803 350.205 342.803C350.757 342.803 351.365 342.87 351.556 343.017C351.68 343.107 351.612 343.219 351.488 343.309C350.216 344.3 345.521 344.311 342.572 344.694C338.53 345.223 334.961 346.101 332.045 347.035C329.061 347.981 328.172 349.298 324.592 350.131C323.128 350.469 317.105 350.66 317.702 351.245C320.269 352.698 327.474 351.426 330.93 350.739C333.767 350.176 335.231 350.626 336.154 351.392C336.875 351.988 338.924 352.304 340.117 352.81C341.401 353.362 340.714 353.88 339.509 354.442C337.922 355.185 335.422 355.737 333.925 356.502C332.281 357.335 333.34 358.326 335.332 359.058C337.505 359.857 340.872 360.06 344.17 359.756C348.066 359.407 350.396 358.664 352.006 357.617C353.436 356.683 354.528 355.737 356.532 354.87C357.016 354.656 357.523 354.454 358.052 354.274C363.332 352.427 371.517 351.628 377.89 350.12C384.194 348.623 388.067 346.461 389.373 344.21C390.319 342.589 389.565 340.979 387.932 339.403C387.516 338.998 385.219 337.816 386.739 337.523C388.202 337.242 391.737 338.041 392.537 338.322C392.706 338.379 392.897 338.446 393.156 338.469C393.91 338.525 394.282 338.221 394.226 337.996C393.989 337.118 393.021 336.499 390.477 335.936C388.27 335.452 385.433 335.249 382.697 335.137L334.961 335.17L334.938 335.159Z" fill="white"/>
</mask>
<g mask="url(#mask2_1480_80480)">
<path d="M391.913 352.215C390.877 352.282 389.819 352.305 388.76 352.282C386.193 352.226 383.638 351.843 382.422 351.213C395.763 348.32 397.542 343.187 395.02 338.864C394.468 337.918 395.82 337.412 398.735 338.099C400.83 338.594 401.978 339.191 403.092 339.888C405.997 341.69 407.123 343.705 406.448 345.663C405.659 347.948 403.723 350.47 396.112 351.731C394.806 351.945 393.388 352.114 391.913 352.215Z" fill="#1F2734"/>
<path d="M380.701 334.565C381.242 334.475 381.771 334.385 382.154 334.318C383.032 334.16 383.989 333.991 385.036 334.014C385.655 334.014 386.229 334.104 386.781 334.171C388.594 334.419 390.339 334.678 391.926 335.016C393.514 335.353 395 335.567 395.923 336.085C397.837 337.143 396.351 338.078 394.009 338.967C393.84 339.034 393.649 339.102 393.378 339.136C393.108 339.169 392.737 339.147 392.602 339.079C392.512 339.034 392.534 338.978 392.557 338.933C392.894 337.931 392.286 336.963 389.81 336.198C387.502 335.477 384.586 335.241 381.287 335.128C380.589 335.106 379.868 335.049 379.159 335.027C379.091 335.027 379.013 335.027 378.979 335.004C378.945 334.982 378.979 334.959 379.013 334.948C379.384 334.779 380.116 334.689 380.713 334.588L380.701 334.565Z" fill="#1F2734"/>
<path d="M317.959 350.777C318.116 350.878 318.612 350.89 319.006 350.878C322.597 350.777 325.266 350.361 327.551 349.764C329.15 349.347 330.557 348.852 331.953 348.312C334.453 347.344 335.826 346.195 338.742 345.306C341.32 344.98 344.236 344.878 347.062 344.732C347.276 344.732 347.49 344.71 347.715 344.698C350.552 344.552 353.468 344.316 355.855 343.843C357.78 343.46 361.225 342.334 359.784 341.614C359.3 341.366 358.23 341.231 357.262 341.276C356.148 341.332 355.36 341.603 354.571 341.839C350.946 342.897 345.914 343.111 341.624 343.843C339.418 344.057 337.38 344.439 335.657 344.89C332.944 345.61 330.906 346.511 328.846 347.377C327.529 347.94 326.178 348.503 324.601 349.01C323.385 349.404 322.158 349.741 320.492 349.967C319.67 350.079 317.43 350.417 317.959 350.777Z" fill="#1F2734"/>
</g>
<path d="M31.6312 402.572C-32.8688 322.232 20.2939 195.05 26.0695 181.733C32.5319 166.829 57.7284 112.481 116.858 67.6105C263.174 -43.3943 500.762 -8.04749 627.532 103.565C684.5 153.715 697.549 200.319 700.532 212.127C722.914 300.742 669.38 374.903 663.109 383.312C619.122 442.264 556.66 459.004 504.499 472.985C453.96 486.527 402.374 484.985 299.201 481.878C206.577 479.097 173.522 470.88 157.265 466.321C102.999 451.079 61.1172 439.315 31.6424 402.595L31.6312 402.572Z" fill="#1B263D"/>
<mask id="mask3_1480_80480" style="mask-type:luminance" maskUnits="userSpaceOnUse" x="0" y="0" width="706" height="484">
<path d="M31.6312 402.572C-32.8688 322.232 20.2939 195.05 26.0695 181.733C32.5319 166.829 57.7284 112.481 116.858 67.6105C263.174 -43.3943 500.762 -8.04749 627.532 103.565C684.5 153.715 697.549 200.319 700.532 212.127C722.914 300.742 669.38 374.903 663.109 383.312C619.122 442.264 556.66 459.004 504.499 472.985C453.96 486.527 402.374 484.985 299.201 481.878C206.577 479.097 173.522 470.88 157.265 466.321C102.999 451.079 61.1172 439.315 31.6424 402.595L31.6312 402.572Z" fill="white"/>
</mask>
<g mask="url(#mask3_1480_80480)">
<g style="mix-blend-mode:lighten" opacity="0.19">
<path d="M323.327 53.7773L16.5781 403.869C16.7357 403.97 103.618 474.056 103.786 474.157C125.628 487.305 143.394 507.129 163.682 522.213C264.828 597.398 423.764 608.396 531.497 540.145C534.401 538.31 537.272 536.408 540.098 534.472C563.921 518.115 586.472 500.003 610.16 483.455C615.778 479.527 693.642 399.084 699.316 395.437L389.021 53.7773H323.327Z" fill="#FFF8C6"/>
</g>
<path d="M24.2229 391.091C82.7221 358.412 111.972 342.078 207.05 323.425C386.803 303.703 473.032 308.611 553.361 320.611C635.008 332.813 734.499 408.82 734.499 408.82C677.103 434.407 627.318 450.809 590.559 461.368C321.222 538.759 139.825 478.478 92.0554 457.045C72.8484 448.434 11.4671 419.886 15.6102 400.366C16.6572 395.413 21.611 392.554 24.2454 391.091H24.2229Z" fill="#243249"/>
<path d="M514.723 387.546L586.045 449.944L671.452 404.432L615.61 375.344L514.723 387.546Z" fill="#1F2734"/>
<path d="M186.246 387.546L88.1615 465.895L13.0898 394.109L85.3469 375.344L186.246 387.546Z" fill="#1F2734"/>
<path d="M374.411 385.195L363.625 500.151L558.836 468.711L474.836 386.141L374.411 385.195Z" fill="#1F2734"/>
<path d="M326.078 385.668L334.061 494.523L141.664 469.183L225.664 386.602L326.078 385.668Z" fill="#1F2734"/>
</g>
<path d="M496.735 108.621H138.051V295.509H496.735V108.621Z" fill="#25371E"/>
<path d="M498.846 299.281H135.951L133.137 295.172H501.661L498.846 299.281Z" fill="#ACA8CC"/>
<path d="M506.373 165.715L506.316 160.593L520.029 150.281L520.018 155.898L506.373 165.715Z" fill="#D2222D"/>
<path d="M532.712 123.816L521.566 133.317L521.453 150.439H532.712V123.816Z" fill="#2A6078"/>
<path d="M532.712 218.904L521.566 222.248L521.453 246.315H532.712V218.904Z" fill="#EDD541"/>
<path d="M542.552 166.66H538.184C537.923 166.66 537.711 166.872 537.711 167.133V196.176C537.711 196.437 537.923 196.649 538.184 196.649H542.552C542.813 196.649 543.025 196.437 543.025 196.176V167.133C543.025 166.872 542.813 166.66 542.552 166.66Z" fill="#A02A36"/>
<path d="M645.762 150.271H520.027V155.9H645.762V150.271Z" fill="#861812"/>
<path d="M645.762 245.988H520.027V251.617H645.762V245.988Z" fill="#861812"/>
<path d="M520.016 155.9L506.359 165.728L624.281 165.739L645.773 155.99L520.016 155.9Z" fill="#411C16"/>
<path d="M520.023 251.629L506.445 253.892L636.278 253.97L645.758 251.629H520.023Z" fill="#411C16"/>
<path d="M537.087 218.893H532.719C532.458 218.893 532.246 219.104 532.246 219.365V245.594C532.246 245.855 532.458 246.067 532.719 246.067H537.087C537.348 246.067 537.56 245.855 537.56 245.594V219.365C537.56 219.104 537.348 218.893 537.087 218.893Z" fill="#C2AE11"/>
<path d="M542.396 216.078H538.028C537.766 216.078 537.555 216.29 537.555 216.551V245.594C537.555 245.855 537.766 246.067 538.028 246.067H542.396C542.657 246.067 542.869 245.855 542.869 245.594V216.551C542.869 216.29 542.657 216.078 542.396 216.078Z" fill="#0C9B94"/>
<path d="M547.697 214.199H543.328C543.067 214.199 542.855 214.411 542.855 214.672V245.595C542.855 245.856 543.067 246.068 543.328 246.068H547.697C547.958 246.068 548.169 245.856 548.169 245.595V214.672C548.169 214.411 547.958 214.199 547.697 214.199Z" fill="#29275D"/>
<path d="M552.994 220.773H548.625C548.364 220.773 548.152 220.985 548.152 221.246V245.595C548.152 245.856 548.364 246.068 548.625 246.068H552.994C553.255 246.068 553.466 245.856 553.466 245.595V221.246C553.466 220.985 553.255 220.773 552.994 220.773Z" fill="#A02A36"/>
<path d="M558.236 215.135H553.867C553.606 215.135 553.395 215.346 553.395 215.608V245.596C553.395 245.857 553.606 246.069 553.867 246.069H558.236C558.497 246.069 558.709 245.857 558.709 245.596V215.608C558.709 215.346 558.497 215.135 558.236 215.135Z" fill="#1D251A"/>
<path d="M563.361 218.893H558.992C558.731 218.893 558.52 219.104 558.52 219.365V245.594C558.52 245.855 558.731 246.067 558.992 246.067H563.361C563.622 246.067 563.834 245.855 563.834 245.594V219.365C563.834 219.104 563.622 218.893 563.361 218.893Z" fill="#26516B"/>
<path d="M568.677 216.078H564.309C564.048 216.078 563.836 216.29 563.836 216.551V245.594C563.836 245.855 564.048 246.067 564.309 246.067H568.677C568.938 246.067 569.15 245.855 569.15 245.594V216.551C569.15 216.29 568.938 216.078 568.677 216.078Z" fill="#03996E"/>
<path d="M573.974 214.199H569.606C569.344 214.199 569.133 214.411 569.133 214.672V245.595C569.133 245.856 569.344 246.068 569.606 246.068H573.974C574.235 246.068 574.447 245.856 574.447 245.595V214.672C574.447 214.411 574.235 214.199 573.974 214.199Z" fill="#29275D"/>
<path d="M579.275 220.773H574.906C574.645 220.773 574.434 220.985 574.434 221.246V245.595C574.434 245.856 574.645 246.068 574.906 246.068H579.275C579.536 246.068 579.748 245.856 579.748 245.595V221.246C579.748 220.985 579.536 220.773 579.275 220.773Z" fill="#A02A36"/>
<path d="M584.513 215.135H580.145C579.884 215.135 579.672 215.346 579.672 215.608V245.596C579.672 245.857 579.884 246.069 580.145 246.069H584.513C584.774 246.069 584.986 245.857 584.986 245.596V215.608C584.986 215.346 584.774 215.135 584.513 215.135Z" fill="#1D251A"/>
<path d="M589.642 218.893H585.274C585.013 218.893 584.801 219.104 584.801 219.365V245.594C584.801 245.855 585.013 246.067 585.274 246.067H589.642C589.903 246.067 590.115 245.855 590.115 245.594V219.365C590.115 219.104 589.903 218.893 589.642 218.893Z" fill="#26516B"/>
<path d="M594.951 216.078H590.582C590.321 216.078 590.109 216.29 590.109 216.551V245.594C590.109 245.855 590.321 246.067 590.582 246.067H594.951C595.212 246.067 595.423 245.855 595.423 245.594V216.551C595.423 216.29 595.212 216.078 594.951 216.078Z" fill="#D46626"/>
<path d="M600.255 214.199H595.887C595.626 214.199 595.414 214.411 595.414 214.672V245.595C595.414 245.856 595.626 246.068 595.887 246.068H600.255C600.516 246.068 600.728 245.856 600.728 245.595V214.672C600.728 214.411 600.516 214.199 600.255 214.199Z" fill="#412114"/>
<path d="M605.544 220.773H601.176C600.915 220.773 600.703 220.985 600.703 221.246V245.595C600.703 245.856 600.915 246.068 601.176 246.068H605.544C605.805 246.068 606.017 245.856 606.017 245.595V221.246C606.017 220.985 605.805 220.773 605.544 220.773Z" fill="#29275D"/>
<path d="M605.544 165.715H601.176C600.915 165.715 600.703 165.927 600.703 166.188V196.176C600.703 196.437 600.915 196.649 601.176 196.649H605.544C605.805 196.649 606.017 196.437 606.017 196.176V166.188C606.017 165.927 605.805 165.715 605.544 165.715Z" fill="#1D251A"/>
<path d="M600.419 169.477H596.051C595.79 169.477 595.578 169.688 595.578 169.949V196.178C595.578 196.439 595.79 196.651 596.051 196.651H600.419C600.68 196.651 600.892 196.439 600.892 196.178V169.949C600.892 169.688 600.68 169.477 600.419 169.477Z" fill="#26516B"/>
<path d="M595.111 166.66H590.742C590.481 166.66 590.27 166.872 590.27 167.133V196.176C590.27 196.437 590.481 196.649 590.742 196.649H595.111C595.372 196.649 595.584 196.437 595.584 196.176V167.133C595.584 166.872 595.372 166.66 595.111 166.66Z" fill="#03996E"/>
<path d="M589.802 164.781H585.434C585.173 164.781 584.961 164.993 584.961 165.254V196.177C584.961 196.438 585.173 196.65 585.434 196.65H589.802C590.063 196.65 590.275 196.438 590.275 196.177V165.254C590.275 164.993 590.063 164.781 589.802 164.781Z" fill="#29275D"/>
<path d="M584.513 171.344H580.145C579.884 171.344 579.672 171.555 579.672 171.817V196.165C579.672 196.426 579.884 196.638 580.145 196.638H584.513C584.774 196.638 584.986 196.426 584.986 196.165V171.817C584.986 171.555 584.774 171.344 584.513 171.344Z" fill="#A02A36"/>
<path d="M579.275 165.715H574.906C574.645 165.715 574.434 165.927 574.434 166.188V196.176C574.434 196.437 574.645 196.649 574.906 196.649H579.275C579.536 196.649 579.748 196.437 579.748 196.176V166.188C579.748 165.927 579.536 165.715 579.275 165.715Z" fill="#1D251A"/>
<path d="M574.142 169.477H569.774C569.512 169.477 569.301 169.688 569.301 169.949V196.178C569.301 196.439 569.512 196.651 569.774 196.651H574.142C574.403 196.651 574.615 196.439 574.615 196.178V169.949C574.615 169.688 574.403 169.477 574.142 169.477Z" fill="#1B253C"/>
<path d="M568.833 166.66H564.465C564.204 166.66 563.992 166.872 563.992 167.133V196.176C563.992 196.437 564.204 196.649 564.465 196.649H568.833C569.094 196.649 569.306 196.437 569.306 196.176V167.133C569.306 166.872 569.094 166.66 568.833 166.66Z" fill="#0C9B94"/>
<path d="M563.533 164.781H559.164C558.903 164.781 558.691 164.993 558.691 165.254V196.177C558.691 196.438 558.903 196.65 559.164 196.65H563.533C563.794 196.65 564.005 196.438 564.005 196.177V165.254C564.005 164.993 563.794 164.781 563.533 164.781Z" fill="#26516B"/>
<path d="M558.236 171.344H553.867C553.606 171.344 553.395 171.555 553.395 171.817V196.165C553.395 196.426 553.606 196.638 553.867 196.638H558.236C558.497 196.638 558.709 196.426 558.709 196.165V171.817C558.709 171.555 558.497 171.344 558.236 171.344Z" fill="#A02A36"/>
<path d="M552.994 165.715H548.625C548.364 165.715 548.152 165.927 548.152 166.188V196.176C548.152 196.437 548.364 196.649 548.625 196.649H552.994C553.255 196.649 553.466 196.437 553.466 196.176V166.188C553.466 165.927 553.255 165.715 552.994 165.715Z" fill="#623314"/>
<path d="M547.868 169.477H543.5C543.239 169.477 543.027 169.688 543.027 169.949V196.178C543.027 196.439 543.239 196.651 543.5 196.651H547.868C548.13 196.651 548.341 196.439 548.341 196.178V169.949C548.341 169.688 548.13 169.477 547.868 169.477Z" fill="#C2AE11"/>
<path d="M537.087 123.176H532.719C532.458 123.176 532.246 123.387 532.246 123.649V149.877C532.246 150.138 532.458 150.35 532.719 150.35H537.087C537.348 150.35 537.56 150.138 537.56 149.877V123.649C537.56 123.387 537.348 123.176 537.087 123.176Z" fill="#26516B"/>
<path d="M542.396 120.361H538.028C537.766 120.361 537.555 120.573 537.555 120.834V149.877C537.555 150.138 537.766 150.35 538.028 150.35H542.396C542.657 150.35 542.869 150.138 542.869 149.877V120.834C542.869 120.573 542.657 120.361 542.396 120.361Z" fill="#A02A36"/>
<path d="M547.697 118.48H543.328C543.067 118.48 542.855 118.692 542.855 118.953V149.876C542.855 150.137 543.067 150.349 543.328 150.349H547.697C547.958 150.349 548.169 150.137 548.169 149.876V118.953C548.169 118.692 547.958 118.48 547.697 118.48Z" fill="#29275D"/>
<path d="M552.994 125.055H548.625C548.364 125.055 548.152 125.266 548.152 125.527V149.876C548.152 150.137 548.364 150.349 548.625 150.349H552.994C553.255 150.349 553.466 150.137 553.466 149.876V125.527C553.466 125.266 553.255 125.055 552.994 125.055Z" fill="#A02A36"/>
<path d="M558.236 119.428H553.867C553.606 119.428 553.395 119.639 553.395 119.901V149.889C553.395 150.15 553.606 150.362 553.867 150.362H558.236C558.497 150.362 558.709 150.15 558.709 149.889V119.901C558.709 119.639 558.497 119.428 558.236 119.428Z" fill="#26516B"/>
<path d="M563.361 123.176H558.992C558.731 123.176 558.52 123.387 558.52 123.649V149.877C558.52 150.138 558.731 150.35 558.992 150.35H563.361C563.622 150.35 563.834 150.138 563.834 149.877V123.649C563.834 123.387 563.622 123.176 563.361 123.176Z" fill="#1B253C"/>
<path d="M568.677 120.361H564.309C564.048 120.361 563.836 120.573 563.836 120.834V149.877C563.836 150.138 564.048 150.35 564.309 150.35H568.677C568.938 150.35 569.15 150.138 569.15 149.877V120.834C569.15 120.573 568.938 120.361 568.677 120.361Z" fill="#03996E"/>
<path d="M573.974 118.48H569.606C569.344 118.48 569.133 118.692 569.133 118.953V149.876C569.133 150.137 569.344 150.349 569.606 150.349H573.974C574.235 150.349 574.447 150.137 574.447 149.876V118.953C574.447 118.692 574.235 118.48 573.974 118.48Z" fill="#29275D"/>
<path d="M579.275 125.055H574.906C574.645 125.055 574.434 125.266 574.434 125.527V149.876C574.434 150.137 574.645 150.349 574.906 150.349H579.275C579.536 150.349 579.748 150.137 579.748 149.876V125.527C579.748 125.266 579.536 125.055 579.275 125.055Z" fill="#A02A36"/>
<path d="M584.513 119.428H580.145C579.884 119.428 579.672 119.639 579.672 119.901V149.889C579.672 150.15 579.884 150.362 580.145 150.362H584.513C584.774 150.362 584.986 150.15 584.986 149.889V119.901C584.986 119.639 584.774 119.428 584.513 119.428Z" fill="#911F81"/>
<path d="M589.642 123.176H585.274C585.013 123.176 584.801 123.387 584.801 123.649V149.877C584.801 150.138 585.013 150.35 585.274 150.35H589.642C589.903 150.35 590.115 150.138 590.115 149.877V123.649C590.115 123.387 589.903 123.176 589.642 123.176Z" fill="#26516B"/>
<path d="M595.111 120.293H590.742C590.481 120.293 590.27 120.505 590.27 120.766V149.809C590.27 150.07 590.481 150.281 590.742 150.281H595.111C595.372 150.281 595.584 150.07 595.584 149.809V120.766C595.584 120.505 595.372 120.293 595.111 120.293Z" fill="#A02A36"/>
<path d="M600.255 118.48H595.887C595.626 118.48 595.414 118.692 595.414 118.953V149.876C595.414 150.137 595.626 150.349 595.887 150.349H600.255C600.516 150.349 600.728 150.137 600.728 149.876V118.953C600.728 118.692 600.516 118.48 600.255 118.48Z" fill="#412114"/>
<path d="M605.544 125.055H601.176C600.915 125.055 600.703 125.266 600.703 125.527V149.876C600.703 150.137 600.915 150.349 601.176 150.349H605.544C605.805 150.349 606.017 150.137 606.017 149.876V125.527C606.017 125.266 605.805 125.055 605.544 125.055Z" fill="#A02A36"/>
<path d="M520.004 201.444L506.426 207.602L623.041 207.534L645.772 201.422L520.004 201.444Z" fill="#411C16"/>
<path d="M520.03 201.41L506.441 207.579L506.453 202.49L520.03 195.781V201.41Z" fill="#D2222D"/>
<path d="M520.03 251.663L506.441 253.881L506.453 248.793L520.03 246.023V251.663Z" fill="#D2222D"/>
<path d="M537.255 164.781H532.887C532.626 164.781 532.414 164.993 532.414 165.254V196.177C532.414 196.438 532.626 196.65 532.887 196.65H537.255C537.516 196.65 537.728 196.438 537.728 196.177V165.254C537.728 164.993 537.516 164.781 537.255 164.781Z" fill="#29275D"/>
<path d="M532.712 164.949L521.566 172.131L521.453 196.12H532.712V164.96V164.949Z" fill="#302968"/>
<path d="M645.762 195.781H520.027V201.41H645.762V195.781Z" fill="#861812"/>
<path opacity="0.26" d="M553.285 320.666C595.042 326.902 641.45 349.822 676.835 370.737L388.944 53.7637H323.251L29.2578 389.3C56.9988 372.155 126.689 333.6 206.973 323.48C311.148 310.343 471.638 308.464 553.285 320.666Z" fill="#FFF8C6"/>
<path d="M309.109 273.488L318.972 278.419" stroke="white" stroke-width="1.69" stroke-linecap="round" stroke-linejoin="round"/>
<path d="M286.535 292.998L297.433 294.563" stroke="#F29104" stroke-width="1.69" stroke-linecap="round" stroke-linejoin="round"/>
<path d="M334.681 335.279C333.577 335.2 335.998 332.465 336.212 332.273C337.484 331.148 338.835 330.371 340.546 330.067C342.528 329.718 351.073 331.789 347.887 327.5C345.748 324.619 342.742 322.401 340.828 319.373C337.225 313.677 340.828 306.371 348.326 308.093C348.866 308.217 349.395 308.42 349.947 308.42C350.499 308.42 351.107 308.172 351.298 307.666C351.422 307.339 351.354 306.968 351.231 306.63C349.958 303.163 345.264 303.129 342.314 301.756C338.272 299.876 334.703 296.791 331.787 293.549C328.804 290.217 327.914 285.613 324.334 282.664C322.87 281.46 316.847 280.795 317.444 278.769C320.011 273.647 327.216 278.127 330.673 280.548C333.51 282.54 334.973 280.93 335.896 278.24C336.617 276.146 338.666 275.054 339.859 273.264C341.143 271.328 340.456 269.516 339.251 267.535C337.664 264.923 335.165 262.976 333.667 260.296C332.023 257.358 333.082 253.891 335.075 251.313C337.247 248.499 340.614 247.801 343.912 248.859C347.808 250.109 350.138 252.698 351.748 256.39C353.178 259.666 354.27 262.998 356.274 266.049C356.758 266.792 357.265 267.501 357.794 268.154C363.074 274.638 371.259 277.452 377.632 282.754C383.936 288.011 387.809 295.61 389.115 303.534C390.061 309.242 389.307 314.904 387.674 320.42C387.258 321.827 384.961 326.003 386.481 327.016C388.001 328.03 391.48 325.182 392.279 324.225C392.448 324.011 392.639 323.786 392.898 323.707C393.653 323.493 394.024 324.585 393.968 325.35C393.731 328.424 392.763 330.619 390.219 332.577C388.012 334.277 385.175 334.998 382.439 335.369L334.703 335.245L334.681 335.279Z" fill="#B88649"/>
<mask id="mask4_1480_80480" style="mask-type:luminance" maskUnits="userSpaceOnUse" x="317" y="248" width="77" height="88">
<path d="M334.681 335.279C333.577 335.2 335.998 332.465 336.212 332.273C337.484 331.148 338.835 330.371 340.546 330.067C342.528 329.718 351.073 331.789 347.887 327.5C345.748 324.619 342.742 322.401 340.828 319.373C337.225 313.677 340.828 306.371 348.326 308.093C348.866 308.217 349.395 308.42 349.947 308.42C350.499 308.42 351.107 308.172 351.298 307.666C351.422 307.339 351.354 306.968 351.231 306.63C349.958 303.163 345.264 303.129 342.314 301.756C338.272 299.876 334.703 296.791 331.787 293.549C328.804 290.217 327.914 285.613 324.334 282.664C322.87 281.46 316.847 280.795 317.444 278.769C320.011 273.647 327.216 278.127 330.673 280.548C333.51 282.54 334.973 280.93 335.896 278.24C336.617 276.146 338.666 275.054 339.859 273.264C341.143 271.328 340.456 269.516 339.251 267.535C337.664 264.923 335.165 262.976 333.667 260.296C332.023 257.358 333.082 253.891 335.075 251.313C337.247 248.499 340.614 247.801 343.912 248.859C347.808 250.109 350.138 252.698 351.748 256.39C353.178 259.666 354.27 262.998 356.274 266.049C356.758 266.792 357.265 267.501 357.794 268.154C363.074 274.638 371.259 277.452 377.632 282.754C383.936 288.011 387.809 295.61 389.115 303.534C390.061 309.242 389.307 314.904 387.674 320.42C387.258 321.827 384.961 326.003 386.481 327.016C388.001 328.03 391.48 325.182 392.279 324.225C392.448 324.011 392.639 323.786 392.898 323.707C393.653 323.493 394.024 324.585 393.968 325.35C393.731 328.424 392.763 330.619 390.219 332.577C388.012 334.277 385.175 334.998 382.439 335.369L334.703 335.245L334.681 335.279Z" fill="white"/>
</mask>
<g mask="url(#mask4_1480_80480)">
<path d="M391.663 275.335C390.627 275.11 389.569 275.008 388.51 275.087C385.943 275.278 383.388 276.629 382.172 278.847C395.513 289.001 397.292 307.046 394.77 322.242C394.218 325.586 395.569 327.342 398.485 324.933C400.58 323.199 401.728 321.083 402.842 318.663C405.747 312.336 406.873 305.256 406.198 298.366C405.409 290.351 403.473 281.47 395.862 277.023C394.556 276.269 393.138 275.661 391.663 275.335Z" fill="#735842"/>
<path d="M380.444 337.371C380.984 337.698 381.513 337.99 381.896 338.238C382.774 338.801 383.731 339.386 384.778 339.319C385.397 339.285 385.971 339.015 386.523 338.745C388.336 337.867 390.081 336.955 391.668 335.761C393.256 334.568 394.742 333.836 395.665 332.013C397.579 328.276 396.093 325.022 393.751 321.904C393.582 321.668 393.391 321.431 393.121 321.319C392.85 321.206 392.479 321.262 392.344 321.521C392.254 321.679 392.276 321.87 392.299 322.05C392.637 325.551 392.029 328.962 389.552 331.686C387.244 334.208 384.328 335.064 381.029 335.457C380.331 335.536 379.61 335.716 378.901 335.829C378.834 335.829 378.755 335.851 378.721 335.919C378.687 335.987 378.721 336.065 378.755 336.133C379.126 336.741 379.858 337.022 380.455 337.382L380.444 337.371Z" fill="white"/>
<path d="M317.693 280.411C317.851 280.039 318.346 280.006 318.74 280.051C322.332 280.411 325 281.886 327.285 283.979C328.884 285.443 330.291 287.199 331.688 289.09C334.187 292.49 335.56 296.542 338.476 299.649C341.055 300.797 343.971 301.157 346.796 301.653C347.01 301.687 347.224 301.732 347.449 301.765C350.287 302.283 353.202 303.127 355.589 304.782C357.515 306.122 360.96 310.084 359.519 312.628C359.034 313.484 357.965 313.979 356.997 313.799C355.882 313.585 355.094 312.651 354.306 311.84C350.681 308.114 345.648 307.383 341.359 304.793C339.152 304.039 337.114 302.711 335.392 301.112C332.678 298.591 330.64 295.439 328.58 292.355C327.263 290.373 325.912 288.403 324.336 286.614C323.12 285.229 321.893 284.024 320.226 283.248C319.405 282.865 317.164 281.683 317.693 280.411Z" fill="#735842"/>
</g>
<path d="M326.595 384.316L325.582 388.56V320.996L326.629 321.041L326.595 384.316Z" fill="#D2222D"/>
<path d="M325.581 320.996H321.359V388.56H325.581V320.996Z" fill="#861812"/>
<path d="M186.954 387.939L185.547 388.873V321.309H186.954V387.939Z" fill="#D2222D"/>
<path d="M185.548 321.309H182.418V388.873H185.548V321.309Z" fill="#861812"/>
<path d="M229.415 387.939L228.008 388.873V321.309H229.415V387.939Z" fill="#D2222D"/>
<path d="M228.95 321.309H225.82V388.873H228.95V321.309Z" fill="#861812"/>
<path d="M173.97 396.54L172.562 397.474V329.91H173.97V396.54Z" fill="#D2222D"/>
<path d="M188.991 325.058L173.973 329.91V324.281L188.991 319.43V325.058Z" fill="#D2222D"/>
<path d="M173.975 324.281H54.7812V329.91H173.975V324.281Z" fill="#861812"/>
<path d="M172.57 329.91H168.348V397.474H172.57V329.91Z" fill="#861812"/>
<path d="M324.361 393.231L323.348 397.474V329.91L324.395 329.955L324.361 393.231Z" fill="#D2222D"/>
<path d="M330.93 324.98L328.836 329.911V324.282L330.93 319.352V324.98Z" fill="#D2222D"/>
<path d="M328.834 324.281H209.641V329.91H328.834V324.281Z" fill="#861812"/>
<path d="M323.351 329.91H319.129V397.474H323.351V329.91Z" fill="#861812"/>
<path d="M220.718 395.887L219.176 397.474V329.91H220.617L220.718 395.887Z" fill="#D2222D"/>
<path d="M219.179 329.91H214.957V397.474H219.179V329.91Z" fill="#861812"/>
<path d="M375.182 384.316L376.196 388.56V320.996L375.148 321.041L375.182 384.316Z" fill="#D2222D"/>
<path d="M376.204 388.559H380.426V320.994H376.204V388.559Z" fill="#861812"/>
<path d="M514.824 387.939L516.232 388.873V321.309H514.824V387.939Z" fill="#D2222D"/>
<path d="M516.241 388.873H519.371V321.309H516.241V388.873Z" fill="#861812"/>
<path d="M472.359 387.939L473.767 388.873V321.309H472.359V387.939Z" fill="#D2222D"/>
<path d="M472.831 388.873H475.961V321.309H472.831V388.873Z" fill="#861812"/>
<path d="M527.812 396.54L529.22 397.474V329.91H527.812V396.54Z" fill="#D2222D"/>
<path d="M512.805 325.058L527.812 329.91V324.281L512.805 319.43V325.058Z" fill="#D2222D"/>
<path d="M527.806 329.91H647V324.282H527.806V329.91Z" fill="#861812"/>
<path d="M529.227 397.473H533.449V329.908H529.227V397.473Z" fill="#861812"/>
<path d="M377.413 393.231L378.426 397.474V329.91L377.379 329.955L377.413 393.231Z" fill="#D2222D"/>
<path d="M370.852 324.98L372.946 329.911V324.282L370.852 319.352V324.98Z" fill="#D2222D"/>
<path d="M372.963 329.91H492.156V324.282H372.963V329.91Z" fill="#861812"/>
<path d="M378.43 397.473H382.652V329.908H378.43V397.473Z" fill="#861812"/>
<path d="M481.062 395.887L482.605 397.474V329.91H481.164L481.062 395.887Z" fill="#D2222D"/>
<path d="M482.602 397.473H486.824V329.908H482.602V397.473Z" fill="#861812"/>
<path d="M209.641 324.271L225.234 319.352H330.928L328.834 324.282L209.641 324.271Z" fill="#AA2B27"/>
<path d="M54.7812 324.269L88.2077 319.406H189.005L173.986 324.281L54.7812 324.269Z" fill="#AA2B27"/>
<path d="M136.735 354.855H85.4295L68.2266 358.998H125.791L136.735 354.855Z" fill="#AA2B27"/>
<path d="M284.393 354.461H240.125L222.922 358.997L280.678 359.043L284.393 354.461Z" fill="#AA2B27"/>
<path d="M281.672 403.506V360.031H276.493V403.506H281.672Z" fill="#AA2B27"/>
<path d="M281.668 403.394V359.762H283.593V399.409L281.668 403.394Z" fill="#861812"/>
<path d="M92.7891 405.511V361.879H94.703V404.565L92.7891 405.511Z" fill="#861812"/>
<path d="M92.7891 405.51V362.035H87.6101V405.51H92.7891Z" fill="#AA2B27"/>
<path d="M78.8711 412.39V364.953H80.785V411.489L78.8711 412.39Z" fill="#861812"/>
<path d="M127.519 307.385H125.797V336.518H127.519V307.385Z" fill="#861812"/>
<path d="M78.8711 412.336V364.168H72.9266V412.336H78.8711Z" fill="#D2222D"/>
<path d="M121.582 412.336V364.168H115.638V412.336H121.582Z" fill="#D2222D"/>
<path d="M123.414 359.536V336.516H121.5V359.536H123.414Z" fill="#861812"/>
<path d="M80.7031 359.536V336.516H78.7892V359.536H80.7031Z" fill="#861812"/>
<path d="M133.137 405.498V362.023H127.958V405.498H133.137Z" fill="#AA2B27"/>
<path d="M72.9303 393.096H121.105V387.152H72.9303V393.096Z" fill="#D2222D"/>
<path d="M121.652 387.151L131.155 383.402V389.346L121.652 393.095V387.151Z" fill="#AA2B27"/>
<path d="M121.652 385.922L129.038 383.176L131.155 383.412L121.652 387.172V385.922Z" fill="#861812"/>
<path d="M125.791 358.998H68.2266V364.942H125.791V358.998Z" fill="#D2222D"/>
<path d="M133.148 405.511V361.879L135.062 361.125V404.34L133.148 405.511Z" fill="#861812"/>
<path d="M121.539 412.321V364.93H123.858V411.061L121.539 412.321Z" fill="#AA2B27"/>
<path d="M136.74 360.799L125.797 364.942V358.998L136.74 354.855V360.799Z" fill="#AA2B27"/>
<path d="M241.391 403.598V359.954L243.305 358.986V401.448L241.391 403.598Z" fill="#861812"/>
<path d="M241.391 403.595V360.121H236.212V403.595H241.391Z" fill="#AA2B27"/>
<path d="M233.723 412.39V364.953H235.637V410.307L233.723 412.39Z" fill="#861812"/>
<path d="M233.642 351.521C232.122 349.664 231.165 347.48 230.602 344.745C229.882 341.255 229.837 337.63 230.478 334.118C231.12 330.583 232.741 327.465 233.709 324.043C234.7 320.531 234.554 316.906 235.263 313.371C236.411 307.63 239.249 299.03 243.572 294.91C246.871 291.758 255.528 291.443 258.827 294.516C265.74 300.933 270.074 311.21 272.337 320.148C273.441 324.538 274.398 328.962 275.197 333.409C276.21 338.981 276.244 345.87 273.317 351.037C271.268 354.662 265.729 356.486 261.822 357.442C253.93 359.367 244.551 359.379 237.492 354.865C235.905 353.851 234.633 352.76 233.619 351.521H233.642Z" fill="#BB8A4D"/>
<mask id="mask5_1480_80480" style="mask-type:luminance" maskUnits="userSpaceOnUse" x="230" y="292" width="46" height="67">
<path d="M233.634 351.519C232.114 349.662 231.157 347.478 230.594 344.743C229.874 341.253 229.829 337.628 230.47 334.116C231.112 330.581 232.733 327.463 233.702 324.041C234.692 320.529 234.546 316.904 235.255 313.37C236.404 307.628 239.241 299.028 243.564 294.908C246.863 291.756 255.521 291.441 258.819 294.514C265.732 300.931 270.067 311.208 272.33 320.146C273.433 324.536 274.39 328.96 275.189 333.407C276.202 338.979 276.236 345.868 273.309 351.035C271.26 354.66 265.721 356.484 261.814 357.44C253.922 359.365 244.544 359.377 237.484 354.863C235.897 353.85 234.625 352.758 233.612 351.519H233.634Z" fill="white"/>
</mask>
<g mask="url(#mask5_1480_80480)">
<path d="M282.585 298.219C281.549 297.994 280.491 297.893 279.432 297.972C276.865 298.163 274.31 299.514 273.094 301.732C286.435 311.885 288.214 329.93 285.692 345.127C285.14 348.47 286.491 350.227 289.407 347.818C291.501 346.084 292.65 343.968 293.764 341.547C296.669 335.221 297.795 328.14 297.119 321.251C296.331 313.236 294.395 304.354 286.784 299.908C285.478 299.154 284.06 298.546 282.585 298.219Z" fill="#735842"/>
<path d="M271.362 360.248C271.902 360.575 272.431 360.867 272.814 361.115C273.692 361.678 274.649 362.263 275.696 362.196C276.315 362.162 276.889 361.892 277.441 361.621C279.254 360.743 280.999 359.832 282.586 358.638C284.151 357.468 285.66 356.713 286.583 354.89C288.497 351.153 287.011 347.899 284.669 344.781C284.5 344.545 284.309 344.308 284.039 344.196C283.768 344.083 283.397 344.139 283.262 344.398C283.172 344.556 283.194 344.747 283.217 344.927C283.554 348.428 282.947 351.839 280.47 354.563C278.162 357.085 275.246 357.94 271.947 358.334C271.249 358.413 270.528 358.593 269.819 358.706C269.752 358.706 269.673 358.728 269.639 358.796C269.605 358.864 269.639 358.942 269.673 359.01C270.044 359.618 270.776 359.899 271.373 360.259L271.362 360.248Z" fill="white"/>
</g>
<path d="M249.023 272.086C249.563 272.683 250.058 273.302 250.498 273.899C251.578 275.407 251.837 274.203 251.522 273.088C250.317 268.844 246.242 266.312 242.695 264.297C238.867 262.124 234.184 261.73 229.906 262.496C225.233 263.329 221.439 266.041 217.251 268.079C213.029 270.139 208.425 271.704 203.718 271.58C199.001 271.467 194.137 269.891 191.672 265.602C196.828 265.648 201.771 263.666 206.387 261.381C211.87 258.668 216.643 254.436 222.745 253.062C228.915 251.666 235.535 253.299 240.894 256.664C247.469 260.785 252.873 267.347 256.228 274.315C259.583 281.283 247.964 282.263 246.658 276.533C246.354 275.193 249.338 273.764 245.758 272.48C244.418 271.996 242.797 271.929 241.378 272.008C239.16 272.143 236.976 272.919 235.13 274.147C231.336 276.668 228.802 280.631 226.314 284.447C223.826 288.263 221.124 292.158 217.161 294.387C214.414 295.94 211.07 296.447 207.952 296.12C206.353 295.951 204.766 295.557 203.302 294.871C201.838 294.184 199.981 293.137 199.024 291.82C202.21 292.259 204.653 291.707 207.377 289.839C209.809 288.173 211.735 285.809 213.266 283.321C217.307 276.769 221.237 270.06 228.78 267.043C231.381 265.996 233.7 265.738 236.458 265.906C239.644 266.098 242.144 267.404 244.925 268.788C246.388 269.52 247.818 270.747 249.023 272.064V272.086Z" fill="#BC8A4D"/>
<mask id="mask6_1480_80480" style="mask-type:luminance" maskUnits="userSpaceOnUse" x="191" y="252" width="66" height="45">
<path d="M249.019 272.088C249.559 272.685 250.055 273.304 250.494 273.901C251.574 275.409 251.833 274.205 251.518 273.09C250.313 268.846 246.238 266.314 242.691 264.299C238.864 262.126 234.18 261.732 229.902 262.498C225.23 263.331 221.435 266.043 217.247 268.081C213.025 270.141 208.421 271.706 203.715 271.582C198.997 271.469 194.134 269.893 191.668 265.604C196.824 265.649 201.767 263.668 206.383 261.383C211.866 258.67 216.639 254.438 222.741 253.064C228.911 251.668 235.531 253.301 240.89 256.666C247.465 260.786 252.869 267.349 256.224 274.317C259.579 281.285 247.96 282.265 246.654 276.535C246.35 275.195 249.334 273.766 245.754 272.482C244.414 271.998 242.793 271.931 241.374 272.01C239.156 272.145 236.972 272.921 235.126 274.148C231.332 276.67 228.798 280.632 226.31 284.449C223.822 288.265 221.12 292.16 217.157 294.388C214.41 295.942 211.066 296.448 207.948 296.122C206.349 295.953 204.762 295.559 203.298 294.873C201.834 294.186 199.977 293.139 199.02 291.822C202.206 292.261 204.649 291.709 207.374 289.841C209.805 288.175 211.731 285.811 213.262 283.323C217.304 276.771 221.233 270.062 228.776 267.045C231.377 265.998 233.696 265.74 236.454 265.908C239.64 266.1 242.14 267.406 244.921 268.79C246.384 269.522 247.814 270.749 249.019 272.066V272.088Z" fill="white"/>
</mask>
<g mask="url(#mask6_1480_80480)">
<path d="M247.085 274.957H247.118C247.704 274.654 247.524 273.775 247.276 273.359C246.634 272.267 245.238 271.524 244.124 271.006C239.001 268.654 232.471 269.599 227.821 272.616C226.02 273.787 224.432 275.284 223.194 277.04C220.177 281.351 219.175 286.991 214.908 290.402C210.641 293.813 203.886 294.308 198.988 291.854C199.495 292.102 200.215 293.903 200.733 294.409C201.42 295.074 202.265 295.58 203.064 296.087C204.55 297.021 206.261 297.674 208.018 297.798C211.868 298.068 215.763 296.413 218.769 294.106C222.901 290.931 225.862 286.53 229.195 282.533C230.512 280.946 231.919 279.393 233.642 278.244C234.16 277.896 234.7 277.592 235.263 277.321C235.826 277.051 236.547 276.882 237.076 276.533C238.145 275.836 239.147 275.543 240.42 275.295C241.399 275.115 242.379 274.924 243.369 274.856C244.022 274.811 244.675 274.822 245.328 274.856C245.756 274.879 246.668 275.126 247.073 274.969L247.085 274.957Z" fill="#735842"/>
<path d="M246.856 265.209C243.861 262.383 240.067 260.447 235.901 259.828C232.783 259.355 229.056 259.884 226.061 260.841C222.627 261.933 219.531 263.847 216.289 265.4C212.371 267.269 208.385 268.451 204.051 268.845C200.077 269.205 195.798 267.55 192.027 266.368C190.608 265.918 189.73 265.378 188.672 264.331C189.167 264.815 189.043 267.055 189.246 267.753C189.573 268.834 190.462 269.993 191.396 270.624C193.187 271.817 195.033 272.942 196.924 273.978C199.548 275.408 202.407 276.725 205.379 276.533C208.903 276.308 212.54 274.192 215.501 272.391C218.597 270.511 221.355 268.113 224.553 266.38C226.827 265.141 230.227 264.973 232.794 264.928C236.205 264.86 239.707 264.815 242.915 265.974C247.16 267.517 249.321 270.646 251.393 274.395C251.37 274.35 251.663 273.528 251.663 273.348C251.686 272.886 251.562 272.38 251.438 271.941C251.157 270.916 250.627 269.959 250.042 269.07C249.119 267.663 248.038 266.368 246.833 265.22L246.856 265.209Z" fill="#735842"/>
</g>
<path d="M280.647 307.385H223.082V336.518H280.647V307.385Z" fill="#D2222D"/>
<path d="M282.367 307.385H280.645V336.518H282.367V307.385Z" fill="#861812"/>
<path d="M233.723 412.336V364.168H227.778V412.336H233.723Z" fill="#D2222D"/>
<path d="M233.723 367.294V319.125H227.778V367.294H233.723Z" fill="#D2222D"/>
<path d="M276.43 412.321V364.152H270.485V412.321H276.43Z" fill="#D2222D"/>
<path d="M278.262 359.536V336.516H276.348V359.536H278.262Z" fill="#861812"/>
<path d="M235.559 359.548V336.527H233.645V359.548H235.559Z" fill="#861812"/>
<path d="M276.43 363.063V314.895H270.485V363.063H276.43Z" fill="#D2222D"/>
<path d="M227.778 393.096H275.953V387.152H227.778V393.096Z" fill="#D2222D"/>
<path d="M280.647 358.998H223.082V364.942H280.647V358.998Z" fill="#D2222D"/>
<path d="M276.43 412.334V364.965H278.76V407.82L276.43 412.334Z" fill="#861812"/>
<path d="M284.36 360.371L280.645 364.942V358.998L284.36 354.428V360.371Z" fill="#861812"/>
<path d="M147.143 323.188L156.679 320.059L144.328 320.126L133.059 323.424L147.143 323.188Z" fill="#F2EAEE"/>
<path d="M142.061 323.493L151.609 320.375L139.247 320.443L127.988 323.73L142.061 323.493Z" fill="white"/>
<path d="M152.93 322.556L161.058 321.07" stroke="#1A263E" stroke-width="0.63" stroke-linecap="round" stroke-linejoin="round"/>
<path d="M157.086 323.696L164.73 320.566" stroke="#D2222D" stroke-width="0.63" stroke-linecap="round" stroke-linejoin="round"/>
<path d="M492.139 324.271L476.546 319.352H370.852L372.946 324.282L492.139 324.271Z" fill="#AA2B27"/>
<path d="M647.001 324.269L613.575 319.406H512.777L527.796 324.281L647.001 324.269Z" fill="#AA2B27"/>
<path d="M555.648 354.855H606.965L624.168 358.998H566.603L555.648 354.855Z" fill="#AA2B27"/>
<path d="M404.246 354.461H448.515L465.718 358.997L407.961 359.043L404.246 354.461Z" fill="#AA2B27"/>
<path d="M412.16 403.517V360.043H406.981V403.517H412.16Z" fill="#AA2B27"/>
<path d="M406.984 403.394V359.762H405.07V399.409L406.984 403.394Z" fill="#861812"/>
<path d="M599.598 405.511V361.879H597.684V404.565L599.598 405.511Z" fill="#861812"/>
<path d="M604.777 405.498V362.023H599.598V405.498H604.777Z" fill="#AA2B27"/>
<path d="M564.883 336.527H566.605V307.394H564.883V336.527Z" fill="#861812"/>
<path d="M576.77 412.321V364.152H570.825V412.321H576.77Z" fill="#D2222D"/>
<path d="M570.91 359.536V336.516H568.996V359.536H570.91Z" fill="#861812"/>
<path d="M564.434 405.51V362.035H559.255V405.51H564.434Z" fill="#AA2B27"/>
<path d="M619.472 387.152H571.297V393.096H619.472V387.152Z" fill="#D2222D"/>
<path d="M570.748 387.151L561.246 383.402V389.346L570.748 393.095V387.151Z" fill="#AA2B27"/>
<path d="M570.748 385.922L563.363 383.176L561.246 383.412L570.748 387.172V385.922Z" fill="#861812"/>
<path d="M566.592 364.941H624.156V358.998H566.592V364.941Z" fill="#D2222D"/>
<path d="M559.25 405.511V361.879L557.336 361.125V404.34L559.25 405.511Z" fill="#861812"/>
<path d="M570.858 412.321V364.93H568.527V411.061L570.858 412.321Z" fill="#AA2B27"/>
<path d="M555.648 360.799L566.603 364.942V358.998L555.648 354.855V360.799Z" fill="#AA2B27"/>
<path d="M447.25 403.598V359.954L445.336 358.986V401.448L447.25 403.598Z" fill="#861812"/>
<path d="M452.441 403.586V360.111H447.262V403.586H452.441Z" fill="#AA2B27"/>
<path d="M454.918 412.39V364.953H453.004V410.307L454.918 412.39Z" fill="#861812"/>
<path d="M406.27 336.527H407.992V307.394H406.27V336.527Z" fill="#861812"/>
<path d="M460.859 412.321V364.152H454.915V412.321H460.859Z" fill="#D2222D"/>
<path d="M418.164 412.336V364.168H412.22V412.336H418.164Z" fill="#D2222D"/>
<path d="M412.297 359.536V336.516H410.383V359.536H412.297Z" fill="#861812"/>
<path d="M455 359.536V336.516H453.086V359.536H455Z" fill="#861812"/>
<path d="M460.867 387.152H412.691V393.096H460.867V387.152Z" fill="#D2222D"/>
<path d="M407.994 364.941H465.559V358.998H407.994V364.941Z" fill="#D2222D"/>
<path d="M412.213 412.334V364.965H409.883V407.82L412.213 412.334Z" fill="#861812"/>
<path d="M404.281 360.371L407.997 364.942V358.998L404.281 354.428V360.371Z" fill="#861812"/>
<path d="M545.25 323.188L535.703 320.059L548.065 320.126L559.323 323.424L545.25 323.188Z" fill="#F2EAEE"/>
<path d="M531.567 323.493L522.031 320.375L534.382 320.443L545.652 323.73L531.567 323.493Z" fill="white"/>
<path d="M548.847 322.556L540.719 321.07" stroke="#1A263E" stroke-width="0.63" stroke-linecap="round" stroke-linejoin="round"/>
<path d="M555.332 323.696L547.688 320.566" stroke="#D2222D" stroke-width="0.63" stroke-linecap="round" stroke-linejoin="round"/>
<path d="M248.154 359.505C248.897 361.351 251.228 362.353 253.086 361.655C254.943 360.957 256.035 358.694 255.472 356.792C253.851 351.366 246.195 354.619 248.154 359.505Z" fill="white"/>
<path d="M244.304 295.633C244.676 296.601 244.867 297.58 244.608 298.515C244.315 299.607 243.302 300.203 242.536 300.957C243.516 300.608 244.811 300.001 245.869 300.282C246.77 300.53 247.625 300.867 248.582 300.969C250.519 301.171 252.444 301.363 254.38 301.554C255.709 301.689 258.737 303.074 259.965 302.421C260.82 301.97 260.719 300.079 261.349 299.111C261.991 298.121 262.836 297.288 263.489 296.297C265.616 293.1 265.357 288.777 263.804 285.265C262.734 282.834 261.113 280.706 259.379 278.702C257.972 277.07 257.082 275.235 255.754 273.637C255.337 274.233 254.684 275.235 253.851 275.235C253.243 275.314 252.602 274.988 251.994 274.976C251.251 274.976 250.541 275.044 249.821 275.179C249.235 275.291 248.762 275.314 248.323 274.785C248.143 274.571 247.929 274.267 247.67 274.38C247.569 274.413 247.501 274.515 247.445 274.605C245.216 277.824 242.728 280.357 242.019 284.365C241.591 286.796 241.76 289.34 242.536 291.693C242.931 292.897 243.786 294.248 244.304 295.61V295.633Z" fill="#BB8A4D"/>
<path d="M416.45 351.521C414.931 349.664 413.974 347.48 413.411 344.745C412.69 341.255 412.645 337.63 413.287 334.118C413.929 330.583 415.55 327.465 416.518 324.043C417.509 320.531 417.362 316.906 418.072 313.371C419.22 307.63 422.057 299.03 426.38 294.91C429.679 291.758 438.337 291.443 441.636 294.516C448.548 300.933 452.883 311.21 455.146 320.148C456.249 324.538 457.206 328.962 458.006 333.409C459.019 338.981 459.053 345.87 456.125 351.037C454.076 354.662 448.537 356.486 444.631 357.442C436.738 359.367 427.36 359.379 420.301 354.865C418.713 353.851 417.441 352.76 416.428 351.521H416.45Z" fill="#BB8A4D"/>
<mask id="mask7_1480_80480" style="mask-type:luminance" maskUnits="userSpaceOnUse" x="412" y="292" width="47" height="67">
<path d="M416.454 351.521C414.935 349.664 413.978 347.48 413.415 344.745C412.694 341.255 412.649 337.63 413.291 334.118C413.932 330.583 415.554 327.465 416.522 324.043C417.513 320.531 417.366 316.906 418.076 313.371C419.224 307.63 422.061 299.03 426.384 294.91C429.683 291.758 438.341 291.443 441.64 294.516C448.552 300.933 452.887 311.21 455.15 320.148C456.253 324.538 457.21 328.962 458.009 333.409C459.023 338.981 459.057 345.87 456.129 351.037C454.08 354.662 448.541 356.486 444.634 357.442C436.742 359.367 427.364 359.379 420.305 354.865C418.717 353.851 417.445 352.76 416.432 351.521H416.454Z" fill="white"/>
</mask>
<g mask="url(#mask7_1480_80480)">
<path d="M465.393 298.223C464.357 297.998 463.299 297.897 462.241 297.976C459.674 298.167 457.118 299.518 455.902 301.736C469.244 311.889 471.023 329.934 468.501 345.131C467.949 348.474 469.3 350.23 472.216 347.821C474.31 346.088 475.458 343.972 476.573 341.551C479.478 335.225 480.603 328.144 479.928 321.255C479.14 313.24 477.203 304.358 469.593 299.912C468.287 299.158 466.868 298.55 465.393 298.223Z" fill="#735842"/>
<path d="M454.17 360.252C454.711 360.578 455.24 360.871 455.622 361.119C456.501 361.682 457.458 362.267 458.505 362.199C459.124 362.166 459.698 361.896 460.25 361.625C462.062 360.747 463.807 359.836 465.395 358.642C466.96 357.472 468.468 356.717 469.392 354.894C471.306 351.156 469.819 347.903 467.478 344.785C467.309 344.549 467.117 344.312 466.847 344.2C466.577 344.087 466.205 344.143 466.07 344.402C465.98 344.56 466.003 344.751 466.025 344.931C466.363 348.432 465.755 351.843 463.278 354.567C460.97 357.089 458.054 357.944 454.756 358.338C454.058 358.417 453.337 358.597 452.628 358.71C452.56 358.71 452.481 358.732 452.448 358.8C452.414 358.867 452.448 358.946 452.481 359.014C452.853 359.622 453.585 359.903 454.181 360.263L454.17 360.252Z" fill="white"/>
</g>
<path d="M432.017 271.961C432.422 272.636 432.85 273.289 433.301 273.92C433.559 274.28 433.785 274.55 434.201 274.595C433.436 274.505 433.098 266.794 433.154 265.938C433.413 262.122 434.55 258.351 436.611 255.12C439.763 250.167 445.145 246.588 450.988 246.036C456.831 245.485 462.978 248.141 466.232 253.027C468.506 256.449 469.193 260.107 470.105 263.957C470.589 265.972 474.259 272.726 476.725 272.715C471.692 272.715 466.682 271.06 462.595 268.122C458.463 265.15 456.009 261.222 450.92 259.398C447.79 258.272 444.086 258.239 441.328 260.085C438.648 261.875 437.804 265.499 437.579 268.539C437.354 271.578 440.134 274.359 439.605 277.15C438.682 281.98 430.475 280.82 429.473 276.565C429.09 274.921 430.43 274.505 429.495 272.918C428.561 271.33 425.555 269.833 424.226 268.314C420.252 263.755 418.619 257.259 419.97 251.361C422.357 240.903 433.807 233.079 443.962 232.123C447.644 231.774 451.382 232.01 455.041 231.458C458.7 230.907 462.167 229.455 464.543 226.539C463.89 233.316 458.531 238.674 452.508 241.196C447.137 243.436 441.17 244.539 436.532 248.051C429 253.77 427.3 264.036 432.017 271.95V271.961Z" fill="#BC8A4D"/>
<mask id="mask8_1480_80480" style="mask-type:luminance" maskUnits="userSpaceOnUse" x="419" y="226" width="58" height="55">
<path d="M432.017 271.961C432.422 272.636 432.85 273.289 433.301 273.92C433.559 274.28 433.785 274.55 434.201 274.595C433.436 274.505 433.098 266.794 433.154 265.938C433.413 262.122 434.55 258.351 436.611 255.12C439.763 250.167 445.145 246.588 450.988 246.036C456.831 245.485 462.978 248.141 466.232 253.027C468.506 256.449 469.193 260.107 470.105 263.957C470.589 265.972 474.259 272.726 476.725 272.715C471.692 272.715 466.682 271.06 462.595 268.122C458.463 265.15 456.009 261.222 450.92 259.398C447.79 258.272 444.086 258.239 441.328 260.085C438.648 261.875 437.804 265.499 437.579 268.539C437.354 271.578 440.134 274.359 439.605 277.15C438.682 281.98 430.475 280.82 429.473 276.565C429.09 274.921 430.43 274.505 429.495 272.918C428.561 271.33 425.555 269.833 424.226 268.314C420.252 263.755 418.619 257.259 419.97 251.361C422.357 240.903 433.807 233.079 443.962 232.123C447.644 231.774 451.382 232.01 455.041 231.458C458.7 230.907 462.167 229.455 464.543 226.539C463.89 233.316 458.531 238.674 452.508 241.196C447.137 243.436 441.17 244.539 436.532 248.051C429 253.77 427.3 264.036 432.017 271.95V271.961Z" fill="white"/>
</mask>
<g mask="url(#mask8_1480_80480)">
<path d="M424.761 257.124C424.592 259.533 424.929 262.032 425.853 264.452C427.305 268.291 430.12 271.6 433.677 273.649C432.901 269.799 432.112 265.927 432.18 261.998C432.236 258.869 432.822 255.345 434.544 252.666C436.12 250.223 439.836 246.936 442.324 245.394C446.084 243.075 450.869 243.075 454.877 241.353C460.732 238.831 464.807 232.618 464.762 226.246C464.773 228.07 459.696 233.203 458.142 234.34C455.237 236.456 451.511 237.627 448.099 238.617C442.684 240.182 437.01 241.353 432.281 244.437C427.767 247.398 425.132 252.081 424.772 257.124H424.761Z" fill="#735842"/>
</g>
<path d="M430.959 359.505C431.702 361.351 434.033 362.353 435.89 361.655C437.748 360.957 438.84 358.694 438.277 356.792C436.656 351.366 429 354.619 430.959 359.505Z" fill="white"/>
<path d="M427.113 295.633C427.484 296.601 427.676 297.58 427.417 298.515C427.124 299.607 426.111 300.203 425.345 300.957C426.325 300.608 427.619 300.001 428.678 300.282C429.578 300.53 430.434 300.867 431.391 300.969C433.327 301.171 435.253 301.363 437.189 301.554C438.518 301.689 441.546 303.074 442.773 302.421C443.629 301.97 443.528 300.079 444.158 299.111C444.8 298.121 445.644 297.288 446.297 296.297C448.425 293.1 448.166 288.777 446.612 285.265C445.543 282.834 443.922 280.706 442.188 278.702C440.78 277.07 439.891 275.235 438.563 273.637C438.146 274.233 437.493 275.235 436.66 275.235C436.052 275.314 435.41 274.988 434.802 274.976C434.059 274.976 433.35 275.044 432.629 275.179C432.044 275.291 431.571 275.314 431.132 274.785C430.952 274.571 430.738 274.267 430.479 274.38C430.378 274.413 430.31 274.515 430.254 274.605C428.025 277.824 425.536 280.357 424.827 284.365C424.399 286.796 424.568 289.34 425.345 291.693C425.739 292.897 426.595 294.248 427.113 295.61V295.633Z" fill="#BB8A4D"/>
<path d="M576.47 351.521C574.95 349.664 573.993 347.48 573.43 344.745C572.71 341.255 572.665 337.63 573.306 334.118C573.948 330.583 575.569 327.465 576.538 324.043C577.528 320.531 577.382 316.906 578.091 313.371C579.24 307.63 582.077 299.03 586.4 294.91C589.699 291.758 598.357 291.443 601.655 294.516C608.568 300.933 612.903 311.21 615.165 320.148C616.269 324.538 617.226 328.962 618.025 333.409C619.038 338.981 619.072 345.87 616.145 351.037C614.096 354.662 608.557 356.486 604.65 357.442C596.758 359.367 587.379 359.379 580.32 354.865C578.733 353.851 577.461 352.76 576.447 351.521H576.47Z" fill="#BB8A4D"/>
<mask id="mask9_1480_80480" style="mask-type:luminance" maskUnits="userSpaceOnUse" x="572" y="292" width="47" height="67">
<path d="M576.474 351.519C574.954 349.662 573.997 347.478 573.434 344.743C572.714 341.253 572.669 337.628 573.31 334.116C573.952 330.581 575.573 327.463 576.541 324.041C577.532 320.529 577.386 316.904 578.095 313.37C579.244 307.628 582.081 299.028 586.404 294.908C589.703 291.756 598.36 291.441 601.659 294.514C608.572 300.931 612.906 311.208 615.169 320.146C616.273 324.536 617.23 328.96 618.029 333.407C619.042 338.979 619.076 345.868 616.149 351.035C614.1 354.66 608.561 356.484 604.654 357.44C596.762 359.365 587.383 359.377 580.324 354.863C578.737 353.85 577.465 352.758 576.451 351.519H576.474Z" fill="white"/>
</mask>
<g mask="url(#mask9_1480_80480)">
<path d="M625.405 298.219C624.369 297.994 623.311 297.893 622.253 297.972C619.686 298.163 617.13 299.514 615.914 301.732C629.255 311.885 631.034 329.93 628.512 345.127C627.961 348.47 629.312 350.227 632.228 347.818C634.322 346.084 635.47 343.968 636.585 341.547C639.489 335.221 640.615 328.14 639.94 321.251C639.152 313.236 637.215 304.354 629.604 299.908C628.298 299.154 626.88 298.546 625.405 298.219Z" fill="#735842"/>
<path d="M614.186 360.248C614.726 360.575 615.255 360.867 615.638 361.115C616.516 361.678 617.473 362.263 618.52 362.196C619.139 362.162 619.714 361.892 620.265 361.621C622.078 360.743 623.823 359.832 625.41 358.638C626.975 357.468 628.484 356.713 629.407 354.89C631.321 351.153 629.835 347.899 627.493 344.781C627.324 344.545 627.133 344.308 626.863 344.196C626.593 344.083 626.221 344.139 626.086 344.398C625.996 344.556 626.018 344.747 626.041 344.927C626.379 348.428 625.771 351.839 623.294 354.563C620.986 357.085 618.07 357.94 614.771 358.334C614.073 358.413 613.353 358.593 612.643 358.706C612.576 358.706 612.497 358.728 612.463 358.796C612.429 358.864 612.463 358.942 612.497 359.01C612.869 359.618 613.6 359.899 614.197 360.259L614.186 360.248Z" fill="white"/>
</g>
<path d="M596.956 272.086C596.415 272.683 595.92 273.302 595.481 273.899C594.4 275.407 594.141 274.203 594.456 273.088C595.661 268.844 599.736 266.312 603.283 264.297C607.111 262.124 611.794 261.73 616.073 262.496C620.745 263.329 624.539 266.041 628.727 268.079C632.949 270.139 637.554 271.704 642.26 271.58C646.977 271.467 651.841 269.891 654.306 265.602C649.15 265.648 644.208 263.666 639.592 261.381C634.109 258.668 629.335 254.436 623.233 253.062C617.063 251.666 610.443 253.299 605.084 256.664C598.509 260.785 593.105 267.347 589.75 274.315C586.395 281.283 598.014 282.263 599.32 276.533C599.624 275.193 596.64 273.764 600.221 272.48C601.56 271.996 603.182 271.929 604.6 272.008C606.818 272.143 609.002 272.919 610.849 274.147C614.643 276.668 617.176 280.631 619.664 284.447C622.152 288.263 624.854 292.158 628.817 294.387C631.564 295.94 634.908 296.447 638.027 296.12C639.625 295.951 641.213 295.557 642.676 294.871C644.14 294.184 645.998 293.137 646.955 291.82C643.768 292.259 641.325 291.707 638.601 289.839C636.169 288.173 634.244 285.809 632.713 283.321C628.671 276.769 624.742 270.06 617.198 267.043C614.598 265.996 612.278 265.738 609.52 265.906C606.334 266.098 603.835 267.404 601.054 268.788C599.59 269.52 598.16 270.747 596.956 272.064V272.086Z" fill="#BC8A4D"/>
<mask id="mask10_1480_80480" style="mask-type:luminance" maskUnits="userSpaceOnUse" x="589" y="252" width="66" height="45">
<path d="M596.959 272.088C596.419 272.685 595.924 273.304 595.485 273.901C594.404 275.409 594.145 274.205 594.46 273.09C595.665 268.846 599.74 266.314 603.287 264.299C607.115 262.126 611.798 261.732 616.076 262.498C620.749 263.331 624.543 266.043 628.731 268.081C632.953 270.141 637.558 271.706 642.264 271.582C646.981 271.469 651.845 269.893 654.31 265.604C649.154 265.649 644.211 263.668 639.595 261.383C634.113 258.67 629.339 254.438 623.237 253.064C617.067 251.668 610.447 253.301 605.088 256.666C598.513 260.786 593.109 267.349 589.754 274.317C586.399 281.285 598.018 282.265 599.324 276.535C599.628 275.195 596.644 273.766 600.224 272.482C601.564 271.998 603.185 271.931 604.604 272.01C606.822 272.145 609.006 272.921 610.852 274.148C614.647 276.67 617.18 280.632 619.668 284.449C622.156 288.265 624.858 292.16 628.821 294.388C631.568 295.942 634.912 296.448 638.031 296.122C639.629 295.953 641.217 295.559 642.68 294.873C644.144 294.186 646.002 293.139 646.959 291.822C643.772 292.261 641.329 291.709 638.605 289.841C636.173 288.175 634.248 285.811 632.716 283.323C628.675 276.771 624.745 270.062 617.202 267.045C614.602 265.998 612.282 265.74 609.524 265.908C606.338 266.1 603.838 267.406 601.058 268.79C599.594 269.522 598.164 270.749 596.959 272.066V272.088Z" fill="white"/>
</mask>
<g mask="url(#mask10_1480_80480)">
<path d="M598.913 274.957H598.88C598.294 274.654 598.474 273.775 598.722 273.359C599.364 272.267 600.76 271.524 601.874 271.006C606.997 268.654 613.527 269.599 618.177 272.616C619.978 273.787 621.565 275.284 622.804 277.04C625.821 281.351 626.823 286.991 631.09 290.402C635.436 293.88 642.112 294.308 647.01 291.854C646.503 292.102 645.782 293.903 645.265 294.409C644.578 295.074 643.733 295.58 642.934 296.087C641.448 297.021 639.737 297.674 637.98 297.798C634.13 298.068 630.234 296.413 627.228 294.106C623.097 290.931 620.136 286.53 616.803 282.533C615.486 280.946 614.079 279.393 612.356 278.244C611.838 277.896 611.298 277.592 610.735 277.321C610.172 277.051 609.451 276.882 608.922 276.533C607.853 275.836 606.851 275.543 605.578 275.295C604.599 275.115 603.619 274.924 602.629 274.856C601.976 274.811 601.323 274.822 600.67 274.856C600.242 274.879 599.33 275.126 598.925 274.969L598.913 274.957Z" fill="#735842"/>
<path d="M599.134 265.209C602.129 262.383 605.923 260.447 610.089 259.828C613.207 259.355 616.934 259.884 619.929 260.841C623.363 261.933 626.459 263.847 629.701 265.4C633.619 267.269 637.605 268.451 641.939 268.845C645.913 269.205 650.192 267.55 653.963 266.368C655.382 265.918 656.26 265.378 657.318 264.331C656.823 264.815 656.947 267.055 656.744 267.753C656.418 268.834 655.528 269.993 654.594 270.624C652.803 271.817 650.957 272.942 649.066 273.978C646.442 275.408 643.583 276.725 640.611 276.533C637.087 276.308 633.45 274.192 630.489 272.391C627.528 270.59 624.635 268.113 621.437 266.38C619.163 265.141 615.763 264.973 613.196 264.928C609.785 264.86 606.283 264.815 603.075 265.974C598.83 267.517 596.669 270.646 594.597 274.395C594.62 274.35 594.327 273.528 594.327 273.348C594.304 272.886 594.428 272.38 594.552 271.941C594.834 270.916 595.363 269.959 595.948 269.07C596.871 267.663 597.952 266.368 599.157 265.22L599.134 265.209Z" fill="#735842"/>
</g>
<path d="M590.979 359.505C591.722 361.351 594.052 362.353 595.91 361.655C597.767 360.957 598.859 358.694 598.297 356.792C596.675 351.366 589.02 354.619 590.979 359.505Z" fill="white"/>
<path d="M601.672 295.633C601.3 296.601 601.109 297.58 601.368 298.515C601.661 299.607 602.674 300.203 603.44 300.957C602.46 300.608 601.165 300.001 600.107 300.282C599.206 300.53 598.351 300.867 597.394 300.969C595.457 301.171 593.532 301.363 591.596 301.554C590.267 301.689 587.239 303.074 586.011 302.421C585.156 301.97 585.257 300.079 584.627 299.111C583.985 298.121 583.14 297.288 582.487 296.297C580.36 293.1 580.619 288.777 582.172 285.265C583.242 282.834 584.863 280.706 586.597 278.702C588.004 277.07 588.894 275.235 590.222 273.637C590.639 274.233 591.292 275.235 592.125 275.235C592.733 275.314 593.374 274.988 593.982 274.976C594.725 274.976 595.435 275.044 596.155 275.179C596.741 275.291 597.214 275.314 597.653 274.785C597.833 274.571 598.047 274.267 598.306 274.38C598.407 274.413 598.475 274.515 598.531 274.605C600.76 277.824 603.248 280.357 603.957 284.365C604.385 286.796 604.216 289.34 603.44 291.693C603.045 292.897 602.19 294.248 601.672 295.61V295.633Z" fill="#BB8A4D"/>
<path d="M79.0442 351.521C77.5243 349.664 76.5674 347.48 76.0044 344.745C75.2839 341.255 75.2388 337.63 75.8806 334.118C76.5223 330.583 78.1435 327.465 79.1118 324.043C80.1025 320.531 79.9562 316.906 80.6654 313.371C81.8138 307.63 84.6509 299.03 88.9742 294.91C92.273 291.758 100.931 291.443 104.229 294.516C111.142 300.933 115.477 311.21 117.74 320.148C118.843 324.538 119.8 328.962 120.599 333.409C121.613 338.981 121.646 345.87 118.719 351.037C116.67 354.662 111.131 356.486 107.224 357.442C99.332 359.367 89.9537 359.379 82.8946 354.865C81.3072 353.851 80.035 352.76 79.0217 351.521H79.0442Z" fill="#BB8A4D"/>
<mask id="mask11_1480_80480" style="mask-type:luminance" maskUnits="userSpaceOnUse" x="75" y="292" width="47" height="67">
<path d="M79.0442 351.519C77.5243 349.662 76.5674 347.478 76.0044 344.743C75.2839 341.253 75.2388 337.628 75.8806 334.116C76.5223 330.581 78.1435 327.463 79.1118 324.041C80.1025 320.529 79.9562 316.904 80.6654 313.37C81.8138 307.628 84.6509 299.028 88.9742 294.908C92.273 291.756 100.931 291.441 104.229 294.514C111.142 300.931 115.477 311.208 117.74 320.146C118.843 324.536 119.8 328.96 120.599 333.407C121.613 338.979 121.646 345.868 118.719 351.035C116.67 354.66 111.131 356.484 107.224 357.44C99.332 359.365 89.9537 359.377 82.8946 354.863C81.3072 353.85 80.035 352.758 79.0217 351.519H79.0442Z" fill="white"/>
</mask>
<g mask="url(#mask11_1480_80480)">
<path d="M127.983 298.219C126.947 297.994 125.889 297.893 124.831 297.972C122.264 298.163 119.708 299.514 118.492 301.732C131.834 311.885 133.612 329.93 131.09 345.127C130.539 348.47 131.89 350.227 134.806 347.818C136.9 346.084 138.048 343.968 139.163 341.547C142.067 335.221 143.193 328.14 142.518 321.251C141.73 313.236 139.793 304.354 132.183 299.908C130.877 299.154 129.458 298.546 127.983 298.219Z" fill="#735842"/>
<path d="M116.76 360.248C117.3 360.575 117.83 360.867 118.212 361.115C119.09 361.678 120.047 362.263 121.094 362.196C121.714 362.162 122.288 361.892 122.84 361.621C124.652 360.743 126.397 359.832 127.985 358.638C129.55 357.468 131.058 356.713 131.981 354.89C133.895 351.153 132.409 347.899 130.068 344.781C129.899 344.545 129.707 344.308 129.437 344.196C129.167 344.083 128.795 344.139 128.66 344.398C128.57 344.556 128.593 344.747 128.615 344.927C128.953 348.428 128.345 351.839 125.868 354.563C123.56 357.085 120.644 357.94 117.345 358.334C116.647 358.413 115.927 358.593 115.218 358.706C115.15 358.706 115.071 358.728 115.037 358.796C115.004 358.864 115.037 358.942 115.071 359.01C115.443 359.618 116.175 359.899 116.771 360.259L116.76 360.248Z" fill="white"/>
</g>
<path d="M94.9795 273.174C95.306 274.705 95.8013 275.752 96.5894 275.594C96.9722 275.516 99.3478 264.912 99.9332 263.482C101.712 259.159 105.36 255.343 109.176 252.765C116.314 248.071 125.513 246.946 132.087 241.497C129.419 250.919 123.069 259.261 114.693 264.326C112.149 265.868 109.57 267.478 106.992 268.942C104.549 270.315 101.78 271.587 100.08 273.928C99.4941 274.728 99.3252 275.91 99.9445 276.675C100.417 277.26 101.205 277.452 101.825 277.88C103.041 278.724 103.446 280.48 102.928 281.865C102.41 283.26 101.115 284.274 99.6968 284.69C98.2782 285.107 96.7358 285.005 95.2947 284.645C93.7072 284.251 92.1198 283.497 91.2304 282.123C90.341 280.75 90.4535 278.668 91.782 277.722C92.3112 277.351 92.9754 277.17 93.4258 276.709C95.306 274.716 90.6675 270.844 89.4515 269.786C86.772 267.456 83.4508 265.767 80.8838 263.336C77.5738 260.195 74.838 256.717 73.3857 252.338C71.5167 246.664 71.2916 240.585 71.4267 234.619C71.9333 238.131 74.3989 241.058 77.1685 243.276C79.9381 245.493 83.1017 247.193 85.8038 249.49C89.1476 252.326 91.8496 256.131 93.347 260.262C94.8894 264.495 94.0225 268.852 94.9569 273.197L94.9795 273.174Z" fill="#BC8A4D"/>
<mask id="mask12_1480_80480" style="mask-type:luminance" maskUnits="userSpaceOnUse" x="71" y="234" width="62" height="51">
<path d="M94.9873 273.172C95.3138 274.703 95.8091 275.75 96.5972 275.593C96.98 275.514 99.3556 264.91 99.941 263.48C101.72 259.157 105.368 255.341 109.184 252.763C116.322 248.069 125.52 246.944 132.095 241.495C129.427 250.917 123.077 259.259 114.701 264.324C112.156 265.866 109.578 267.476 107 268.94C104.557 270.313 101.787 271.585 100.087 273.926C99.5019 274.726 99.3331 275.908 99.9523 276.673C100.425 277.259 101.213 277.45 101.832 277.878C103.048 278.722 103.454 280.478 102.936 281.863C102.418 283.258 101.123 284.272 99.7046 284.688C98.286 285.105 96.7436 285.003 95.3025 284.643C93.7151 284.249 92.1276 283.495 91.2382 282.122C90.3488 280.748 90.4614 278.666 91.7899 277.72C92.319 277.349 92.9833 277.168 93.4336 276.707C95.3138 274.714 90.6753 270.842 89.4594 269.784C86.7798 267.454 83.4586 265.765 80.8916 263.334C77.5816 260.193 74.8458 256.715 73.3935 252.336C71.5246 246.662 71.2994 240.583 71.4345 234.617C71.9411 238.129 74.4067 241.056 77.1763 243.274C79.9459 245.491 83.1096 247.191 85.8116 249.488C89.1554 252.324 91.8574 256.129 93.3548 260.261C94.8972 264.493 94.0303 268.85 94.9648 273.195L94.9873 273.172Z" fill="white"/>
</mask>
<g mask="url(#mask12_1480_80480)">
<path d="M79.9341 257.445C84.3024 262.837 90.2131 267.047 93.478 273.171C93.9171 273.992 94.3112 275.017 93.8496 275.839C93.3429 276.739 92.127 276.874 91.0912 276.84C86.6666 276.717 82.2758 275.523 78.4029 273.385C75.0479 271.527 72.0756 268.949 69.914 265.786C65.5682 259.403 64.8589 251.287 64.6563 243.565C64.5775 240.672 64.6112 237.599 66.1762 235.167C67.0881 233.738 69.1034 231.43 70.4431 233.276C71.8279 235.19 71.5127 237.081 71.8842 239.242C72.2332 241.257 72.8299 243.374 73.4379 245.332C74.8227 249.722 77.0181 253.865 79.9115 257.445H79.9341Z" fill="#735842"/>
<path d="M117.166 251.377C120.217 249.61 123.336 247.932 126.275 245.996C129.067 244.161 132.467 242.248 133.176 238.668C133.007 239.467 130.643 240.131 130.001 240.289C128.628 240.615 126.894 242.09 125.531 242.09L116.412 245.839C112.809 247.313 109.184 248.81 105.93 250.949C102.677 253.088 99.7833 255.936 98.2071 259.493C97.1488 261.891 96.7322 264.491 96.6534 267.092C96.5859 269.388 97.4303 272.225 96.4395 274.319C96.2594 274.701 96.2707 275.287 96.676 275.411C97.115 275.546 97.4415 275.005 97.5766 274.555C99.1641 269.388 101.709 264.525 105.266 260.439C108.632 256.589 112.821 253.899 117.155 251.377H117.166Z" fill="#735842"/>
</g>
<path d="M93.5645 359.505C94.3075 361.351 96.6381 362.353 98.4957 361.655C100.353 360.957 101.445 358.694 100.882 356.792C99.2613 351.366 91.6055 354.619 93.5645 359.505Z" fill="white"/>
<path d="M89.7108 295.632C90.0823 296.6 90.2737 297.579 90.0148 298.513C89.722 299.605 88.7088 300.202 87.9432 300.956C88.9227 300.607 90.2174 299.999 91.2757 300.281C92.1764 300.528 93.032 300.866 93.989 300.967C95.9255 301.17 97.8507 301.361 99.7871 301.553C101.116 301.688 104.144 303.072 105.371 302.419C106.317 301.924 106.497 299.673 106.993 298.761C107.589 297.669 108.535 296.453 109.301 295.44C111.35 292.716 113.241 290.273 112.059 286.615C111.079 283.564 108.411 281.785 106.092 279.804C103.773 277.823 100.845 276.146 97.6142 276.056C92.289 275.909 88.371 279.039 87.4366 284.363C87.0087 286.795 87.1776 289.339 87.9545 291.692C88.3485 292.896 89.2042 294.247 89.722 295.609L89.7108 295.632Z" fill="#BB8A4D"/>
<path d="M407.994 336.527H465.559V307.394H407.994V336.527Z" fill="#D2222D"/>
<path d="M460.859 367.282V319.113H454.915V367.282H460.859Z" fill="#D2222D"/>
<path d="M418.164 363.071V314.902H412.22V363.071H418.164Z" fill="#D2222D"/>
<path d="M125.791 307.385H68.2266V336.518H125.791V307.385Z" fill="#D2222D"/>
<path d="M78.8711 367.282V319.113H72.9266V367.282H78.8711Z" fill="#D2222D"/>
<path d="M121.566 363.063V314.895H115.622V363.063H121.566Z" fill="#D2222D"/>
<path d="M566.592 336.527H624.156V307.394H566.592V336.527Z" fill="#D2222D"/>
<path d="M576.77 363.063V314.895H570.825V363.063H576.77Z" fill="#D2222D"/>
<path d="M620.172 412.337V364.168H614.227V412.337H620.172Z" fill="#D2222D"/>
<path d="M614.297 359.548V336.527H612.383V359.548H614.297Z" fill="#861812"/>
<path d="M614.249 412.321V364.93H611.93V411.061L614.249 412.321Z" fill="#AA2B27"/>
<path d="M620.16 363.071V314.902H614.216V363.071H620.16Z" fill="#D2222D"/>
<path d="M338.024 244.666C339.724 240.726 340.748 236.842 342.741 233.037C344.914 228.884 347.188 224.707 350.352 221.173C353.73 217.39 358.222 214.711 362.894 212.629C367.566 210.535 372.475 209.026 377.192 207.034C378.172 207.034 379.872 206.043 380.784 205.661C382.123 205.098 383.227 204.49 384.364 203.623C382.9 207.856 381.482 212.009 378.656 215.634C375.65 219.484 371.664 222.557 367.06 224.392C362.849 226.058 358.785 228.355 354.664 230.302C351.095 231.991 348.112 234.884 345.837 238.013C343.732 240.906 341.424 244.598 341.311 248.223C341.233 250.7 343.552 248.955 344.756 248.02C347.988 245.51 350.172 241.987 353.043 239.127C355.869 236.313 359.212 234.051 362.781 232.216C369.919 228.557 377.811 226.621 385.569 224.617C388.631 223.829 391.603 222.737 394.474 221.443C395.926 220.79 397.356 220.396 398.673 219.54C399.315 219.124 402.479 217.48 402.569 216.771C402.31 218.64 401.668 220.385 401.072 222.175C397.683 232.317 389.351 239.398 378.588 241.019C372.914 241.874 367.262 241.131 361.588 241.503C357.366 241.784 352.221 242.55 349.812 246.399C346.58 251.544 348.19 257.803 347.008 263.431C346.108 267.72 343.439 271.795 339.431 273.889C335.209 276.095 326.394 277.626 324.818 271.491C324.108 268.722 324.604 265.863 324.885 263.071C324.998 262.024 325.077 260.966 325.369 259.953C326.09 257.499 328.128 254.718 330.064 253.041C331.809 251.533 333.881 250.396 335.513 248.775C336.605 247.694 337.36 246.219 338.013 244.7L338.024 244.666Z" fill="url(#paint0_linear_1480_80480)"/>
<mask id="mask13_1480_80480" style="mask-type:luminance" maskUnits="userSpaceOnUse" x="324" y="203" width="79" height="73">
<path d="M338.028 244.672C339.728 240.732 340.752 236.848 342.745 233.043C344.918 228.889 347.192 224.713 350.356 221.178C353.733 217.396 358.226 214.717 362.898 212.634C367.57 210.541 372.479 209.032 377.196 207.04C378.176 207.04 379.876 206.049 380.788 205.666C382.127 205.104 383.231 204.496 384.368 203.629C382.904 207.862 381.486 212.015 378.66 215.64C375.654 219.49 371.668 222.563 367.063 224.398C362.853 226.064 358.789 228.36 354.668 230.308C351.099 231.996 348.115 234.889 345.841 238.019C343.736 240.912 341.428 244.604 341.315 248.229C341.236 250.705 343.556 248.961 344.76 248.026C347.992 245.516 350.176 241.993 353.047 239.133C355.873 236.319 359.216 234.056 362.785 232.222C369.923 228.563 377.815 226.627 385.572 224.623C388.635 223.835 391.607 222.743 394.478 221.449C395.93 220.796 397.36 220.402 398.677 219.546C399.319 219.13 402.483 217.486 402.573 216.777C402.314 218.646 401.672 220.391 401.075 222.18C397.687 232.323 389.355 239.404 378.592 241.025C372.918 241.88 367.266 241.137 361.592 241.509C357.37 241.79 352.225 242.555 349.815 246.405C346.584 251.55 348.194 257.809 347.012 263.437C346.111 267.726 343.443 271.801 339.435 273.895C335.213 276.101 326.398 277.632 324.822 271.497C324.112 268.728 324.608 265.869 324.889 263.077C325.002 262.03 325.081 260.972 325.373 259.959C326.094 257.505 328.132 254.724 330.068 253.047C331.813 251.538 333.885 250.402 335.517 248.781C336.609 247.7 337.364 246.225 338.017 244.706L338.028 244.672Z" fill="white"/>
</mask>
<g mask="url(#mask13_1480_80480)">
<path d="M388.783 194.746L389.481 195.208C392.431 197.133 394.379 200.454 396.923 202.93C398.916 204.866 400.819 206.679 401.922 209.29C402.8 211.362 403.093 213.275 402.8 215.155C402.586 216.585 402.035 217.981 401.156 219.433C399.558 222.056 398.218 224.69 395.933 226.829C390.686 231.737 384.032 235.193 376.928 236.678C372.402 237.635 367.775 238.322 363.215 239.099C360.389 239.571 356.708 239.909 354.22 241.35C350.797 243.331 348.399 246.326 347.746 250.232C347.42 252.179 347.577 254.205 348.174 256.085C348.692 257.706 348.804 259.35 349.424 260.96C349.806 261.962 350.291 262.918 350.82 263.853C351.304 264.697 351.439 265.586 352.114 266.34C353.454 267.838 355.301 268.941 356.719 270.382C358.442 272.127 362.45 274.952 365.118 274.288C366.627 273.905 367.37 271.868 368.507 270.945C373.078 267.23 378.538 264.382 383.267 260.813C387.793 257.391 392.274 253.598 394.784 248.577C397.61 242.915 397.666 236.284 400.121 230.465C401.843 226.39 404.714 222.821 406.268 218.679C407.157 216.315 406.651 214.131 406.133 211.767C405.863 210.54 405.592 209.302 405.108 208.142C404.185 205.947 402.26 204.742 401.111 202.806C400.064 201.061 399.974 199.44 398.173 198.022C395.797 196.153 392.735 195.14 390.157 193.508C389.144 192.866 388.052 192.202 386.847 192.18C386.622 192.18 386.385 192.202 386.239 192.371C385.946 192.72 386.374 193.204 386.757 193.463C387.365 193.857 388.446 194.296 388.693 194.96C388.941 195.624 388.423 197.121 388.333 197.797C388.097 199.643 387.86 201.489 387.489 203.313C386.34 208.908 383.751 214.367 379.326 218.093C377.367 219.737 375.104 220.997 372.841 222.213C366.919 225.388 361.2 228.911 355.323 232.131C352.227 233.819 350.201 236.87 348.591 239.853C346.947 242.892 345.889 246.832 342.466 248.431C340.98 249.129 341.239 247.159 341.273 246.337C341.351 244.299 342.196 242.419 342.95 240.551C343.749 238.57 344.751 236.667 345.967 234.9C350.842 227.797 358.656 223.654 366.199 219.759C369.599 218.003 372.954 216.123 375.892 213.703C378.155 211.857 380.182 209.673 381.657 207.174C382.873 205.114 385.057 203.223 385.316 200.746C385.451 199.474 385.203 198.27 385.608 196.986C386.014 195.692 387.534 193.474 388.817 192.9C389.662 192.529 390.9 192.923 391.013 193.812" fill="#735842"/>
</g>
<path d="M337.951 261.321C337.242 261.186 336.443 261.366 335.756 261.839C333.898 263.133 332.851 266.026 332.367 268.131C332.941 267.096 334.135 266.42 335.339 266.443C336.319 266.454 337.332 266.555 338.199 266.015C339.089 265.464 339.685 264.518 339.663 263.449C339.629 262.21 338.875 261.501 337.94 261.321H337.951Z" fill="white"/>
<mask id="mask14_1480_80480" style="mask-type:luminance" maskUnits="userSpaceOnUse" x="332" y="261" width="8" height="8">
<path d="M337.947 261.321C337.238 261.186 336.439 261.366 335.752 261.839C333.894 263.133 332.847 266.026 332.363 268.131C332.937 267.096 334.131 266.42 335.336 266.443C336.315 266.454 337.328 266.555 338.195 266.015C339.085 265.464 339.681 264.518 339.659 263.449C339.625 262.21 338.871 261.501 337.936 261.321H337.947Z" fill="white"/>
</mask>
<g mask="url(#mask14_1480_80480)">
<path d="M338.878 265.675C340.264 265.675 341.388 264.581 341.388 263.232C341.388 261.883 340.264 260.789 338.878 260.789C337.491 260.789 336.367 261.883 336.367 263.232C336.367 264.581 337.491 265.675 338.878 265.675Z" fill="#1D1B37"/>
<path d="M333.813 265.224C333.949 265.753 334.253 266.09 334.77 266.259C335.063 266.349 335.345 266.428 335.649 266.496C335.694 266.496 335.739 266.518 335.772 266.552C335.795 266.575 335.806 266.608 335.817 266.653C335.874 266.822 335.953 267.047 335.84 267.216C335.75 267.34 335.626 267.317 335.491 267.306C335.029 267.284 334.59 267.385 334.174 267.576C333.633 267.835 333.16 268.229 332.733 268.646C332.575 268.803 332.339 268.984 332.147 268.86C332.068 268.803 332.023 268.713 331.99 268.623C331.663 267.678 331.652 266.642 331.945 265.685C332.136 265.066 332.462 264.481 332.902 263.974C333.093 263.749 333.273 263.49 333.532 263.333C333.746 263.197 334.027 263.242 334.072 263.535C334.072 263.591 334.072 263.659 334.05 263.715C334.016 263.828 333.949 263.929 333.904 264.042C333.735 264.424 333.701 264.841 333.802 265.224H333.813Z" fill="#735842"/>
</g>
<path d="M347.831 252.463C347.831 252.463 346.266 254.467 346.097 257.303C345.962 259.544 347.099 262.594 345.76 266.602C344.555 270.193 341.369 272.433 338.16 274.448C338.16 274.448 339.286 273.851 341.279 273.007C343.272 272.163 347.516 269.438 348.698 264.778C349.88 260.118 347.707 256.088 347.831 252.474V252.463Z" fill="white"/>
<path d="M329.469 270.913L329.492 270.891C328.839 270.924 328.299 271.127 327.758 271.453C326.936 271.938 325.416 272.883 326.227 273.941C326.846 273.255 327.499 272.602 328.209 272.005C328.625 271.645 329.064 271.285 329.469 270.913Z" fill="#735842"/>
<path d="M184.86 231.005C183.858 231.883 183.464 232.818 183.205 234.09C182.833 235.879 182.394 237.647 182.147 239.47C181.696 242.881 182.518 246.326 184.004 249.399C184.781 250.998 185.738 252.506 186.875 253.879C187.787 254.971 188.677 256.176 189.814 257.042C192.065 258.765 195.882 259.35 198.618 258.596C201.354 257.842 203.042 254.904 203.977 252.382C205.125 249.286 205.204 245.887 205.193 242.622C205.181 239.358 205.001 236.15 203.729 233.167C202.457 230.183 200.16 227.606 197.143 226.176C194.463 224.904 190.737 224.138 188.294 226.289C187.168 227.279 186.481 228.63 185.761 229.925C184.961 231.343 183.892 232.705 183.61 234.348C183.351 235.846 185.637 236.487 185.896 234.979C186.087 233.831 186.763 232.874 187.359 231.894C187.922 230.96 188.384 229.97 188.992 229.08C190.489 226.896 192.944 227.076 195.218 227.932C200.644 229.958 202.603 235.384 202.783 240.742C202.874 243.377 202.896 246.101 202.468 248.712C202.063 251.144 201.128 254.183 199.091 255.759C197.312 257.133 193.844 256.57 191.998 255.647C191.03 255.163 190.354 254.352 189.679 253.53C188.71 252.371 187.765 251.256 186.988 249.951C185.378 247.238 184.263 244.086 184.387 240.9C184.443 239.234 184.837 237.545 185.22 235.924C185.513 234.686 185.547 233.572 186.537 232.694C187.686 231.681 186.008 230.015 184.86 231.016V231.005Z" fill="#F29104"/>
<path d="M156.398 249.828C156.161 251.247 157.073 252.338 157.76 253.487C158.706 255.063 159.708 256.684 160.383 258.395C161.059 260.106 162.094 261.58 162.86 263.246C163.569 264.789 163.952 266.398 165.067 267.738C165.528 268.29 166.62 268.155 166.924 267.502C167.206 266.905 167.262 266.443 167.138 265.791C166.857 264.293 164.571 264.924 164.853 266.421L164.875 266.308L166.733 266.072C165.832 264.991 165.539 263.472 164.965 262.2C164.278 260.68 163.276 259.329 162.669 257.776C162.061 256.222 161.272 254.849 160.462 253.442C160.113 252.845 159.775 252.237 159.404 251.652C159.246 251.404 159.077 251.145 158.942 250.886C158.886 250.774 158.841 250.65 158.773 250.549C158.706 250.436 158.751 250.166 158.694 250.47C158.942 248.973 156.656 248.331 156.409 249.839L156.398 249.828Z" fill="white"/>
<path d="M186.268 239.731C186.561 240.091 186.741 240.553 186.921 240.98C187.158 241.543 187.428 242.084 187.721 242.613C188.329 243.705 188.937 244.797 189.522 245.9C190.074 246.947 190.817 247.892 191.312 248.973C191.762 249.975 191.943 251.078 192.55 252.024C193.102 252.89 194.408 252.733 194.723 251.742L194.825 251.404C195.275 249.941 192.99 249.322 192.539 250.774L192.438 251.112L194.611 250.83C194.014 249.896 193.845 248.77 193.372 247.78C192.832 246.643 192.055 245.63 191.481 244.504C190.907 243.378 190.265 242.32 189.668 241.217C189.072 240.114 188.734 238.999 187.957 238.054C187.552 237.558 186.707 237.626 186.279 238.054C185.795 238.538 185.874 239.236 186.279 239.731H186.268Z" fill="white"/>
<path d="M185.074 240.035C186.144 239.675 186.797 238.74 187.743 238.189C188.576 237.705 189.443 237.277 190.276 236.793C191.402 236.14 193.586 234.586 194.937 235.374C196.614 236.343 196.524 239.134 195.511 240.496C194.892 241.329 193.935 241.802 193.034 242.275C191.998 242.827 190.996 243.389 190.152 244.222C189.308 245.055 190.152 246.598 191.3 246.204C193.53 245.438 195.702 243.986 198.112 243.851C198.922 243.806 199.857 243.738 200.656 243.851C201.197 243.93 201.309 244.121 201.377 244.695C201.602 246.519 200.746 248.703 199.283 249.828C198.314 250.571 197.076 250.763 195.928 251.078C194.779 251.393 193.687 252.046 192.494 252.237L193.957 253.07L193.879 252.654C193.586 251.157 191.3 251.787 191.593 253.284L191.672 253.701C191.807 254.376 192.539 254.624 193.136 254.534C193.935 254.41 194.633 254.05 195.387 253.757C196.074 253.487 196.795 253.329 197.515 253.138C198.945 252.766 200.296 252.237 201.365 251.179C203.144 249.423 204.113 246.631 203.707 244.144C203.302 241.656 201.343 241.453 199.283 241.464C197.785 241.476 196.412 241.633 194.993 242.151C193.575 242.669 192.156 243.401 190.692 243.907L191.841 245.888C192.843 244.909 194.16 244.436 195.331 243.716C196.423 243.052 197.391 242.185 197.965 241.025C199.114 238.729 198.754 235.735 196.896 233.9C195.038 232.065 192.528 232.932 190.535 233.945C189.634 234.406 188.778 234.947 187.889 235.431C187.27 235.768 186.628 236.061 186.043 236.455C185.547 236.793 185.007 237.558 184.444 237.75C183.003 238.245 183.622 240.53 185.074 240.035Z" fill="white"/>
<path d="M157.277 252.18C157.198 251.741 158.234 250.852 158.549 250.559C159.191 249.974 159.912 249.468 160.61 248.961C162.118 247.858 163.762 247.216 165.631 247.813C167.286 248.353 168.007 249.603 167.455 251.269C167.095 252.349 166.464 253.362 165.654 254.162C164.843 254.961 163.785 255.58 162.94 256.402C162.096 257.224 162.952 258.788 164.089 258.383C166.374 257.561 168.693 256.053 171.193 255.997C173.321 255.952 173.76 257.584 173.737 259.419C173.715 261.254 172.972 262.649 171.272 263.437C170.157 263.955 168.919 264.18 167.77 264.631C167.252 264.833 166.746 265.07 166.273 265.374C165.8 265.678 165.237 266.229 164.652 266.274L165.8 267.141L165.732 266.713C165.485 265.216 163.199 265.846 163.447 267.344L163.514 267.771C163.593 268.244 164.179 268.683 164.663 268.638C166.262 268.503 167.331 267.321 168.772 266.781C170.213 266.24 171.722 265.97 173.05 265.182C175.235 263.876 176.146 261.625 176.124 259.149C176.101 256.818 175.235 254.376 172.724 253.779C169.493 253.014 166.385 255.051 163.469 256.098L164.618 258.079C165.8 256.931 167.196 256.154 168.209 254.815C169.076 253.666 169.785 252.259 169.999 250.818C170.382 248.252 168.603 246.271 166.262 245.528C163.537 244.661 161.083 245.64 158.921 247.284C157.187 248.59 154.564 250.289 154.992 252.811C155.251 254.308 157.536 253.678 157.277 252.18Z" fill="white"/>
<path d="M159.575 238.213C157.031 238.911 155.905 242.04 155.015 244.224C153.563 247.804 152.336 251.564 152.685 255.492C153.034 259.421 155.072 262.393 157.143 265.59C158.224 267.256 159.688 268.629 161.106 269.991C162.525 271.353 164.011 272.04 165.756 272.738C169.122 274.066 172.961 274.674 175.81 272.006C178.264 269.71 179.278 266.468 179.638 263.214C180.077 259.331 179.66 255.717 178.67 251.946C178.163 250.01 177.848 248.198 176.891 246.408C176.103 244.944 175.495 243.447 174.391 242.175C171.926 239.327 168.244 237.808 164.574 237.335C162.041 237.008 157.121 238.044 156.817 241.23C156.67 242.749 159.046 242.738 159.192 241.23C159.249 240.656 161.061 240.138 161.489 239.98C163.02 239.429 164.461 239.642 166.026 239.98C168.537 240.543 171.036 241.86 172.714 243.841C173.558 244.843 173.997 246.036 174.605 247.173C175.472 248.783 175.81 250.303 176.249 252.059C176.609 253.5 177.06 254.907 177.273 256.381C177.51 257.935 177.476 259.511 177.42 261.076C177.307 263.777 176.913 266.67 175.326 268.944C174.549 270.07 173.389 271.252 171.982 271.477C170.44 271.713 168.672 271.286 167.231 270.768C165.947 270.306 164.563 269.811 163.482 268.967C162.176 267.942 160.847 266.558 159.8 265.274C158.9 264.171 158.224 262.832 157.447 261.638C156.535 260.243 155.747 258.847 155.342 257.215C154.43 253.522 155.364 249.695 156.727 246.25C157.155 245.17 157.571 244.078 158.1 243.042C158.539 242.164 159.159 240.779 160.194 240.498C161.669 240.093 161.039 237.808 159.564 238.213H159.575Z" fill="#F29104"/>
<path d="M155.767 245.362C157.534 247.14 158.739 249.211 160.045 251.328C161.351 253.444 162.893 255.628 164.267 257.801C165.539 259.816 166.744 261.876 167.904 263.958C168.421 264.881 168.838 265.838 169.513 266.66C170.031 267.301 170.819 267.909 170.955 268.765C171.18 270.273 173.465 269.632 173.24 268.134C173.105 267.256 172.531 266.536 171.968 265.872C171.27 265.039 170.752 264.262 170.245 263.294C169.052 261.02 167.701 258.78 166.327 256.607C164.954 254.435 163.378 252.195 161.982 249.932C160.585 247.669 159.302 245.542 157.444 243.673C156.364 242.592 154.686 244.27 155.767 245.35V245.362Z" fill="white"/>
<path d="M159.517 243.482C161.206 245.485 162.613 247.827 163.93 250.089C165.248 252.352 166.79 254.525 167.86 256.9C168.929 259.275 170.066 261.403 171.237 263.62C171.778 264.656 172.397 265.602 173.14 266.513C173.748 267.256 174.356 268.134 175.256 268.54C176.63 269.17 177.846 267.121 176.45 266.491C175.617 266.108 174.941 265.05 174.412 264.318C173.759 263.406 173.264 262.382 172.757 261.391C171.609 259.118 170.562 256.765 169.357 254.525C168.805 253.489 168.096 252.555 167.488 251.553C166.801 250.416 166.205 249.223 165.507 248.097C164.167 245.936 162.85 243.752 161.206 241.816C160.215 240.645 158.549 242.333 159.528 243.493L159.517 243.482Z" fill="white"/>
<path d="M185.968 234.045C186.328 235.891 187.645 237.422 188.512 239.054C189.548 241.001 190.831 242.814 191.991 244.682C193.083 246.439 194.231 248.183 195.132 250.052C195.582 250.986 195.977 251.932 196.494 252.844C197.012 253.756 197.508 254.6 197.699 255.624C197.992 257.121 200.277 256.491 199.985 254.994C199.613 253.058 198.33 251.482 197.553 249.703C196.708 247.744 195.549 245.954 194.434 244.142C193.32 242.33 192.092 240.562 191.034 238.716C190.516 237.827 190.077 236.904 189.525 236.037C188.974 235.17 188.456 234.394 188.264 233.403C187.972 231.906 185.686 232.536 185.979 234.033L185.968 234.045Z" fill="white"/>
<path d="M189.085 232.684C190.346 234.136 191.201 235.892 192.147 237.547C193.228 239.461 194.365 241.329 195.39 243.277C196.414 245.224 197.427 247.149 198.283 249.142C199.06 250.943 199.533 252.721 200.816 254.264C201.784 255.446 203.462 253.757 202.494 252.586C201.278 251.112 200.906 249.119 200.096 247.431C199.116 245.382 198.125 243.344 197.056 241.352C196.054 239.506 194.962 237.716 193.937 235.892C192.98 234.192 192.046 232.493 190.762 231.007C189.76 229.847 188.094 231.536 189.085 232.684Z" fill="white"/>
<path d="M356 65.1691C362.436 65.1691 367.653 59.9528 367.653 53.5181C367.653 47.0835 362.436 41.8672 356 41.8672C349.565 41.8672 344.348 47.0835 344.348 53.5181C344.348 59.9528 349.565 65.1691 356 65.1691Z" fill="white"/>
<path d="M323.285 53.7878H388.978C388.978 53.7878 372.091 36.9023 356.441 36.9023C340.792 36.9023 323.285 53.7878 323.285 53.7878Z" fill="#861812"/>
<path d="M356.094 4.82812V38.6215" stroke="#861812" stroke-width="0.84" stroke-miterlimit="10"/>
<path d="M244.475 214.075C244.802 216.462 245.106 218.893 245.072 221.313C245.049 223.351 244.858 225.355 244.982 227.403C244.982 227.55 245.072 227.685 245.218 227.719C248.314 228.462 251.861 227.516 253.167 224.364C254.473 221.212 251.433 217.722 248.089 218.758C247.718 218.871 247.819 219.355 248.179 219.4C249.699 219.591 251.365 218.961 251.94 217.43C252.311 216.439 252.12 215.28 251.647 214.357C250.195 211.509 246.558 211.486 244.554 213.749C244.273 214.064 244.734 214.525 245.016 214.21C246.716 212.297 249.711 212.173 251.028 214.582C251.366 215.201 251.546 215.933 251.467 216.631C251.275 218.274 249.654 218.927 248.179 218.747L248.269 219.389C249.744 218.927 251.287 219.456 252.187 220.717C253.088 221.978 253.009 223.418 252.277 224.679C250.87 227.111 247.965 227.696 245.387 227.077L245.624 227.392C245.5 225.31 245.702 223.261 245.714 221.19C245.736 218.747 245.41 216.304 245.083 213.895C245.027 213.479 244.396 213.659 244.453 214.064L244.475 214.075Z" fill="white"/>
<path d="M259.762 212.98C259.762 215.513 259.74 218.068 259.943 220.601C260.123 222.841 260.28 225.082 260.258 227.333C260.258 227.749 260.911 227.749 260.911 227.333C260.933 225.082 260.776 222.853 260.596 220.601C260.393 218.08 260.404 215.513 260.415 212.98C260.415 212.564 259.762 212.564 259.762 212.98Z" fill="white"/>
<path d="M305.93 213.814C305.142 212.463 304.118 211.281 302.406 211.54C301.055 211.742 299.637 212.756 299.018 213.983C298.466 215.086 298.466 216.425 298.455 217.63C298.432 219.543 298.432 221.491 298.669 223.393C298.905 225.194 299.502 226.861 301.258 227.694C303.87 228.921 306.921 226.939 307.315 224.238C307.574 222.437 307.349 220.545 307.214 218.744C307.079 216.943 306.808 215.333 305.942 213.814C305.739 213.442 305.165 213.78 305.379 214.14C306.741 216.538 306.707 219.622 306.752 222.313C306.775 223.315 306.775 224.429 306.324 225.352C305.728 226.59 304.208 227.401 302.857 227.401C301.022 227.401 299.839 225.949 299.479 224.328C299.209 223.089 299.153 221.795 299.119 220.534C299.085 219.059 299.029 217.551 299.164 216.065C299.288 214.737 299.716 213.757 300.819 212.947C301.618 212.35 302.688 211.911 303.667 212.305C304.489 212.632 304.94 213.42 305.367 214.151C305.581 214.512 306.144 214.185 305.93 213.825V213.814Z" fill="white"/>
<path d="M309.605 218.915C311.136 218.363 312.509 217.395 313.523 216.112C314.142 215.324 314.626 214.423 314.941 213.466C315.065 213.106 315.155 212.723 315.234 212.352C315.256 212.205 315.279 212.07 315.301 211.924C315.301 211.879 315.38 211.496 315.335 211.688L314.693 211.597C314.727 212.059 314.648 212.554 314.637 213.027C314.581 214.288 314.547 215.537 314.513 216.798C314.423 220.389 314.389 224.003 314.513 227.594C314.525 228.01 315.177 228.021 315.166 227.594C315.042 224.003 315.076 220.4 315.166 216.798C315.2 215.56 315.245 214.333 315.29 213.095C315.313 212.611 315.391 212.093 315.358 211.597C315.335 211.237 314.817 211.136 314.716 211.507C314.592 211.958 314.581 212.43 314.457 212.892C314.209 213.781 313.804 214.637 313.264 215.391C312.318 216.719 310.978 217.733 309.447 218.284C309.053 218.43 309.222 219.061 309.616 218.915H309.605Z" fill="white"/>
<path d="M276.461 217.294C276.168 215.021 274.637 212.972 272.284 212.555C270.077 212.161 268.433 213.557 267.364 215.347C265.236 218.893 264.504 225.084 269.052 227.077C271.653 228.214 274.929 227.707 275.965 224.769C276.1 224.375 275.47 224.195 275.335 224.6C274.457 227.088 271.676 227.437 269.48 226.548C267.566 225.771 266.564 224.127 266.395 222.124C266.238 220.233 266.654 218.251 267.476 216.54C268.141 215.144 269.233 213.501 270.876 213.186C273.421 212.702 275.515 214.931 275.819 217.294C275.875 217.711 276.528 217.711 276.472 217.294H276.461Z" fill="white"/>
<path d="M289.16 219.816C292.02 217.744 294.463 215.212 296.332 212.206L295.724 212.037C295.893 217.215 295.994 222.394 296.039 227.572C296.039 227.988 296.692 227.999 296.692 227.572C296.658 222.394 296.546 217.215 296.377 212.037C296.377 211.711 295.938 211.598 295.769 211.868C293.968 214.773 291.603 217.238 288.834 219.242C288.496 219.489 288.822 220.052 289.16 219.804V219.816Z" fill="white"/>
<path d="M255.101 213.128C258.603 213.173 262.093 213.026 265.583 212.936C266 212.936 266.011 212.272 265.583 212.283C262.093 212.373 258.592 212.52 255.101 212.475C254.685 212.475 254.685 213.128 255.101 213.128Z" fill="white"/>
<path d="M243.723 231.783C254.857 231.783 265.992 231.783 277.127 231.783C282.868 231.783 288.61 231.772 294.341 231.693C302.762 231.592 311.183 231.513 319.605 231.524C320.021 231.524 320.021 230.871 319.605 230.871C308.132 230.871 296.66 231.096 285.176 231.13C276.958 231.153 268.728 231.13 260.509 231.13C254.914 231.13 249.318 231.13 243.723 231.13C243.306 231.13 243.306 231.783 243.723 231.783Z" fill="white"/>
<defs>
<linearGradient id="paint0_linear_1480_80480" x1="395.23" y1="248.55" x2="331.51" y2="233.673" gradientUnits="userSpaceOnUse">
<stop offset="0.39" stop-color="#B18049"/>
<stop offset="1" stop-color="#BC8A4D"/>
</linearGradient>
</defs>
</svg>
