<svg width="22" height="22" viewBox="0 0 22 22" fill="none" xmlns="http://www.w3.org/2000/svg">
<g id="rocket_stroke only">
<mask id="mask0_946_4029" style="mask-type:alpha" maskUnits="userSpaceOnUse" x="0" y="0" width="22" height="22">
<rect id="Bounding box" width="22" height="22" fill="#D9D9D9"/>
</mask>
<g mask="url(#mask0_946_4029)">
<path id="rocket_launch" d="M5.17891 9.18864L6.96641 9.94489C7.18029 9.51711 7.40182 9.10461 7.63099 8.70739C7.86016 8.31017 8.11224 7.91295 8.38724 7.51573L7.10391 7.26364L5.17891 9.18864ZM8.43307 11.0907L11.0456 13.6803C11.6872 13.4359 12.3747 13.0616 13.1081 12.5574C13.8414 12.0532 14.5289 11.4803 15.1706 10.8386C16.24 9.7692 17.0765 8.58135 17.6799 7.2751C18.2834 5.96885 18.547 4.76573 18.4706 3.66573C17.3706 3.58934 16.1636 3.85288 14.8497 4.45635C13.5359 5.05982 12.3442 5.89628 11.2747 6.96573C10.6331 7.60739 10.0602 8.29489 9.55599 9.02823C9.05182 9.76156 8.67752 10.4491 8.43307 11.0907ZM12.5122 9.60114C12.1609 9.24975 11.9852 8.81816 11.9852 8.30635C11.9852 7.79454 12.1609 7.36295 12.5122 7.01156C12.8636 6.66017 13.299 6.48448 13.8185 6.48448C14.3379 6.48448 14.7733 6.66017 15.1247 7.01156C15.4761 7.36295 15.6518 7.79454 15.6518 8.30635C15.6518 8.81816 15.4761 9.24975 15.1247 9.60114C14.7733 9.95253 14.3379 10.1282 13.8185 10.1282C13.299 10.1282 12.8636 9.95253 12.5122 9.60114ZM12.9477 16.9574L14.8727 15.0324L14.6206 13.7491C14.2234 14.0241 13.8261 14.2723 13.4289 14.4939C13.0317 14.7154 12.6192 14.9331 12.1914 15.147L12.9477 16.9574ZM20.1206 1.99281C20.4108 3.84142 20.2313 5.64038 19.582 7.38968C18.9327 9.13899 17.8136 10.8081 16.2247 12.397L16.6831 14.6657C16.7442 14.9713 16.7289 15.2692 16.6372 15.5595C16.5456 15.8498 16.3928 16.1018 16.1789 16.3157L12.3289 20.1657L10.4039 15.6511L6.48516 11.7324L1.97057 9.80739L5.79766 5.95739C6.01155 5.7435 6.26745 5.59073 6.56536 5.49906C6.86328 5.40739 7.16502 5.39211 7.47057 5.45323L9.73932 5.91156C11.3282 4.32267 12.9935 3.19975 14.7352 2.54281C16.4768 1.88586 18.272 1.70253 20.1206 1.99281ZM3.59766 14.6428C4.13238 14.1081 4.7855 13.8369 5.55703 13.8293C6.32856 13.8216 6.98168 14.0852 7.51641 14.6199C8.05113 15.1546 8.31467 15.8077 8.30703 16.5793C8.29939 17.3508 8.02821 18.0039 7.49349 18.5386C7.11155 18.9206 6.4737 19.2491 5.57995 19.5241C4.6862 19.7991 3.45252 20.0435 1.87891 20.2574C2.0928 18.6838 2.33724 17.4501 2.61224 16.5563C2.88724 15.6626 3.21571 15.0248 3.59766 14.6428ZM4.90391 15.9261C4.75113 16.0789 4.59835 16.3577 4.44557 16.7626C4.29279 17.1675 4.18585 17.5761 4.12474 17.9886C4.53724 17.9275 4.94592 17.8244 5.35078 17.6793C5.75564 17.5341 6.03446 17.3852 6.18724 17.2324C6.37057 17.0491 6.46988 16.8275 6.48516 16.5678C6.50043 16.3081 6.41641 16.0866 6.23307 15.9032C6.04974 15.7199 5.82821 15.632 5.56849 15.6397C5.30877 15.6473 5.08724 15.7428 4.90391 15.9261Z" fill="#1B263E"/>
</g>
</g>
</svg>
