<svg width="212" height="233" viewBox="0 0 212 233" fill="none" xmlns="http://www.w3.org/2000/svg">
<g id="spirale 1" clip-path="url(#clip0_1099_17417)">
<g id="Layer 4">
<path id="Vector" d="M119.835 128.246C118.614 130.41 116.97 132.404 114.878 133.94C112.794 135.448 110.27 136.544 107.486 136.67C106.112 136.732 104.666 136.553 103.301 136.014C101.918 135.529 100.687 134.613 99.6725 133.571C98.6396 132.521 97.8583 131.281 97.2655 129.988C96.6638 128.704 96.2327 127.357 95.9543 126.001C95.3795 123.28 95.2897 120.514 95.7926 117.632C96.3495 114.722 97.6517 112.055 99.2773 109.72C100.077 108.517 101.038 107.484 101.99 106.433C103.022 105.481 104.037 104.485 105.178 103.667C106.274 102.769 107.486 102.069 108.681 101.314C109.929 100.668 111.159 99.9675 112.48 99.4646C113.773 98.8719 115.147 98.4947 116.512 98.0547C117.913 97.7494 119.314 97.3632 120.778 97.2375C122.224 97.004 123.724 97.022 125.215 97.004C126.715 97.1387 128.242 97.2106 129.75 97.5967C131.277 97.8571 132.732 98.4498 134.214 98.9886C134.941 99.276 135.615 99.6801 136.316 100.03L137.357 100.587C137.708 100.776 138.004 101.018 138.327 101.234L140.24 102.59C140.824 103.093 141.39 103.613 141.965 104.134C142.243 104.395 142.539 104.655 142.809 104.925L143.563 105.778C144.066 106.352 144.587 106.918 145.054 107.52C145.907 108.75 146.868 109.953 147.551 111.274C147.919 111.92 148.305 112.567 148.638 113.231L149.554 115.252C149.877 115.925 150.12 116.608 150.362 117.308C150.605 118 150.856 118.691 151.081 119.392L151.646 121.511L151.925 122.571L152.122 123.648C153.218 129.387 153.299 135.358 151.835 141.357C151.53 142.866 150.973 144.339 150.461 145.811C150.227 146.557 149.841 147.248 149.518 147.967C149.168 148.667 148.871 149.412 148.467 150.086C147.659 151.433 146.886 152.825 145.907 154.055C145.431 154.675 144.982 155.339 144.47 155.923L142.908 157.665C140.752 159.901 138.399 161.931 135.867 163.592C134.618 164.481 133.307 165.191 132.005 165.954C131.34 166.304 130.675 166.627 130.002 166.969C129.337 167.31 128.655 167.624 127.963 167.903C125.233 169.106 122.404 170.022 119.503 170.722C116.611 171.423 113.593 171.89 110.477 171.989C104.262 172.276 97.9481 171.225 92.1553 169.07C86.3445 166.933 81.0635 163.718 76.4742 159.82C71.8848 155.914 67.8792 151.379 64.628 146.224L63.4515 144.249L62.8677 143.261L62.3379 142.228L61.2871 140.154C60.9637 139.444 60.6853 138.708 60.38 137.99C59.7962 136.535 59.1675 135.089 58.7723 133.562C58.3502 132.045 57.8113 130.554 57.5599 129C56.2037 122.84 56.0421 116.473 56.8234 110.393C57.5958 104.296 59.2753 98.4588 61.5834 92.9719C63.9095 87.485 66.8554 82.3304 70.4748 77.4901C71.337 76.2598 72.3788 75.1103 73.3398 73.9249C73.8337 73.3412 74.3816 72.7844 74.9025 72.2097C75.4234 71.635 75.9622 71.0782 76.5281 70.5484C78.7105 68.3392 81.1174 66.3816 83.5872 64.5227C86.075 62.6907 88.6975 61.0743 91.3829 59.5925C94.0862 58.1647 96.8524 56.8715 99.6815 55.8029C111.016 51.5104 123.014 50.0646 134.699 51.0075C137.627 51.232 140.537 51.6361 143.429 52.13C146.312 52.6688 149.186 53.3244 152.024 54.1326C157.691 55.776 163.268 57.9581 168.585 60.8767C173.902 63.7593 178.949 67.2796 183.449 71.3925C187.966 75.4785 191.909 80.1302 195.322 85.0334C202.138 94.9026 206.647 105.814 209.377 116.958C210.06 119.751 210.635 122.571 211.066 125.453C211.29 126.89 211.47 128.354 211.631 129.845C211.703 130.599 211.775 131.353 211.838 132.17L211.883 132.799L211.919 133.482L211.946 134.604C212.134 140.576 211.694 146.584 210.661 152.466C208.578 164.239 204.06 175.41 197.89 185.279C194.783 190.218 191.253 194.834 187.409 199.136C183.547 203.419 179.344 207.371 174.872 210.99C170.399 214.609 165.603 217.832 160.574 220.688C155.553 223.553 150.2 225.969 144.65 227.899C133.549 231.743 121.667 233.404 110.073 232.937C98.469 232.47 87.1438 230.072 76.6358 226.058C66.1099 222.062 56.2666 216.737 47.2585 210.181C42.7589 206.904 38.4031 203.356 34.3975 199.351C30.356 195.4 26.6288 191.143 23.2878 186.626C19.9289 182.118 16.9202 177.386 14.2618 172.491C11.6123 167.588 9.34009 162.506 7.44507 157.306C3.62808 146.907 1.34687 136.068 0.421813 125.166C-1.37442 103.38 2.61321 81.1629 12.5104 61.6939C15.0072 56.8446 17.8722 52.1929 21.0066 47.7746C24.2308 43.4102 27.6437 39.2075 31.4337 35.3909C38.9869 27.7398 47.519 21.1663 56.7336 15.9668C75.145 5.54976 95.9363 0.161643 116.476 0.0269406L118.398 0L120.32 0.0538811L124.155 0.161643L127.981 0.431049L129.885 0.574732L131.789 0.799237L135.579 1.25723L139.342 1.87686L141.219 2.19117L143.087 2.57731L146.806 3.36757C156.649 5.74732 166.142 9.22265 175.015 13.7577C165.495 10.8032 155.805 8.73772 146.069 7.79481L142.414 7.51642L140.591 7.38172L138.758 7.31885L135.112 7.19313L131.466 7.22905L129.652 7.24701L127.837 7.3458L124.218 7.5254L120.617 7.85767L118.82 8.02829L117.033 8.27075L113.468 8.76467L109.929 9.41124L108.16 9.73453L106.408 10.1297L102.915 10.9199C100.615 11.5665 98.2984 12.1053 96.0441 12.8686C94.9125 13.2368 93.7719 13.5601 92.6582 13.9642L89.3172 15.1855C84.9165 16.9187 80.5606 18.7506 76.4293 20.9867C74.3187 22.0194 72.3339 23.2767 70.3041 24.4261C68.3462 25.7103 66.3345 26.8957 64.4664 28.2786C49.1894 38.8842 37.038 53.4052 30.1404 69.9377C26.7096 78.2264 24.4194 86.9821 23.3237 95.8815C22.2909 104.79 22.3717 113.824 23.5842 122.66C24.8146 131.488 27.1317 140.145 30.6075 148.227C32.3318 152.268 34.2538 156.21 36.4901 159.946C38.7264 163.682 41.2142 167.238 43.9355 170.588C46.6388 173.946 49.6116 177.062 52.7999 179.918C55.9523 182.792 59.3651 185.477 62.9755 187.928C70.1694 192.85 78.0818 196.801 86.2097 199.612C94.3467 202.396 102.726 204.039 110.971 204.201C119.224 204.371 127.316 203.069 134.941 200.276C150.191 194.825 164.166 183.411 172.815 169.528C181.616 155.672 184.975 139.247 180.961 123.675C179.129 115.521 175.994 107.735 171.62 101.18C167.265 94.5794 161.633 89.2721 154.942 85.3657C148.269 81.4413 140.303 78.9269 132.238 78.0558C124.173 77.2027 115.946 77.8403 108.582 80.2919C106.741 80.8936 104.971 81.6479 103.238 82.4471C101.541 83.3002 99.888 84.2162 98.3253 85.2669C96.7895 86.3355 95.2717 87.4401 93.9066 88.7153C93.1881 89.317 92.5684 90.0084 91.8858 90.664C91.2571 91.3914 90.5656 92.02 89.9728 92.8013C84.9524 98.7911 81.1713 106.361 79.8152 113.788C79.1326 117.515 79.0428 121.224 79.5547 124.807C79.6086 125.723 79.905 126.585 80.0756 127.474C80.2193 128.381 80.5606 129.225 80.839 130.096C80.9827 130.527 81.1085 130.976 81.2611 131.407L81.809 132.691L82.0784 133.338L82.4017 133.975L83.0484 135.251C84.8716 138.627 87.3144 141.797 90.1076 144.518C92.9097 147.23 96.0621 149.538 99.4839 151.092C102.888 152.663 106.507 153.57 110.216 153.696C112.057 153.804 114.006 153.669 115.964 153.346C117.913 153.022 119.889 152.609 121.766 151.954C122.242 151.81 122.718 151.648 123.167 151.46L124.55 150.921C125.421 150.49 126.346 150.122 127.164 149.628C128.888 148.73 130.406 147.598 131.816 146.404L132.831 145.461C133.181 145.156 133.442 144.788 133.756 144.455C134.412 143.809 134.888 143.036 135.444 142.318C136.423 140.791 137.303 139.193 137.896 137.397C138.57 135.637 138.92 133.67 139.199 131.694C139.252 130.689 139.405 129.683 139.36 128.668V127.142L139.234 125.615C138.92 121.52 137.591 117.569 135.651 114.201C133.585 110.95 130.81 108.337 127.236 107.205C126.364 106.846 125.394 106.73 124.451 106.505C123.464 106.433 122.476 106.263 121.452 106.316C120.428 106.263 119.395 106.433 118.353 106.514C117.32 106.73 116.27 106.864 115.246 107.197C114.195 107.439 113.216 107.87 112.192 108.238C111.231 108.714 110.216 109.127 109.309 109.711C108.348 110.223 107.513 110.887 106.624 111.516C105.825 112.216 104.98 112.89 104.298 113.689C102.879 115.243 101.711 117.003 101.065 118.934C100.436 120.882 100.193 123.172 100.355 125.354C100.418 126.45 100.616 127.537 100.921 128.551C101.217 129.575 101.657 130.545 102.259 131.362C103.409 133.042 105.313 134.11 107.522 134.335C109.731 134.586 112.102 134.002 114.222 132.916C116.359 131.829 118.263 130.204 119.817 128.255L119.835 128.246Z" fill="url(#paint0_radial_1099_17417)"/>
</g>
</g>
<defs>
<radialGradient id="paint0_radial_1099_17417" cx="0" cy="0" r="1" gradientUnits="userSpaceOnUse" gradientTransform="translate(104.334 111.229) scale(115.246 115.234)">
<stop stop-color="#F39324"/>
<stop offset="1" stop-color="#F39324" stop-opacity="0.2"/>
</radialGradient>
<clipPath id="clip0_1099_17417">
<rect width="212" height="233" fill="white"/>
</clipPath>
</defs>
</svg>
