<svg width="80" height="167" viewBox="0 0 80 167" fill="none" xmlns="http://www.w3.org/2000/svg">
<path d="M10.6154 153.441C8.62729 151.02 7.38762 148.164 6.65266 144.588C5.71787 140.029 5.65692 135.291 6.49348 130.715C7.33344 126.099 9.45363 122.031 10.7169 117.557C12.0107 112.971 11.8177 108.243 12.7491 103.623C14.2427 96.1247 17.948 84.9039 23.5973 79.5187C27.9089 75.407 39.2008 74.9972 43.5191 79.0039C52.5486 87.3797 58.2048 100.795 61.1548 112.477C62.601 118.204 63.8406 123.982 64.8939 129.794C66.208 137.072 66.2555 146.071 62.4384 152.811C59.7628 157.543 52.5249 159.927 47.4378 161.17C37.1348 163.69 24.8946 163.693 15.6788 157.81C13.6128 156.489 11.9498 155.064 10.6188 153.441H10.6154Z" fill="#BC8A4D"/>
<mask id="mask0_1482_83977" style="mask-type:luminance" maskUnits="userSpaceOnUse" x="5" y="76" width="61" height="87">
<path d="M10.6154 153.441C8.62729 151.02 7.38762 148.164 6.65266 144.588C5.71787 140.029 5.65692 135.291 6.49348 130.715C7.33344 126.099 9.45363 122.031 10.7169 117.557C12.0107 112.971 11.8177 108.243 12.7491 103.623C14.2427 96.1247 17.948 84.9039 23.5973 79.5187C27.9089 75.407 39.2008 74.9972 43.5191 79.0039C52.5486 87.3797 58.2048 100.795 61.1548 112.477C62.601 118.204 63.8406 123.982 64.8939 129.794C66.208 137.072 66.2555 146.071 62.4384 152.811C59.7628 157.543 52.5249 159.927 47.4378 161.17C37.1348 163.69 24.8946 163.693 15.6788 157.81C13.6128 156.489 11.9498 155.064 10.6188 153.441H10.6154Z" fill="white"/>
</mask>
<g mask="url(#mask0_1482_83977)">
<path d="M74.4963 83.8472C73.1484 83.5491 71.7699 83.4238 70.3881 83.5288C67.0316 83.7828 63.7023 85.5338 62.1172 88.4364C79.5394 101.696 81.8629 125.252 78.5674 145.096C77.8426 149.455 79.6174 151.751 83.4175 148.601C86.1575 146.332 87.6545 143.572 89.1109 140.412C92.9076 132.158 94.3741 122.912 93.4867 113.916C92.4537 103.444 89.9338 91.8504 79.9899 86.052C78.2897 85.0597 76.4303 84.2739 74.5031 83.8472H74.4963Z" fill="#725741"/>
<path d="M59.8511 164.842C60.5522 165.276 61.2466 165.652 61.7512 165.977C62.8926 166.712 64.1423 167.477 65.5072 167.392C66.3133 167.342 67.0652 166.996 67.79 166.647C70.1541 165.506 72.4267 164.314 74.5029 162.752C76.5418 161.218 78.5096 160.233 79.7255 157.862C82.2216 152.988 80.2776 148.727 77.2192 144.66C76.9923 144.358 76.7416 144.047 76.3894 143.898C76.0372 143.748 75.5562 143.823 75.3767 144.155C75.265 144.362 75.292 144.609 75.3157 144.842C75.7492 149.418 74.9669 153.872 71.7324 157.418C68.7248 160.713 64.9078 161.831 60.6064 162.336C59.6885 162.444 58.7572 162.681 57.8292 162.817C57.7377 162.83 57.6361 162.851 57.5921 162.929C57.5413 163.013 57.5887 163.122 57.6395 163.206C58.117 164.002 59.0857 164.371 59.8545 164.842H59.8511Z" fill="white"/>
</g>
<path d="M31.3844 51.1495C31.8146 53.1511 32.4648 54.5093 33.4877 54.3094C33.9856 54.2112 37.0812 40.3622 37.8535 38.4892C40.1803 32.8466 44.9354 27.8577 49.9243 24.4945C59.2485 18.371 71.2483 16.8909 79.8375 9.77843C76.3524 22.0864 68.0646 32.9652 57.1249 39.5933C53.8091 41.6018 50.4392 43.7118 47.076 45.6119C43.8889 47.4103 40.2683 49.0699 38.0465 52.1215C37.2879 53.1647 37.0575 54.7159 37.8738 55.715C38.4902 56.4737 39.5198 56.7345 40.3225 57.2933C41.9144 58.3974 42.4427 60.6802 41.7653 62.499C41.0913 64.3177 39.4013 65.642 37.5453 66.1941C35.6859 66.7462 33.6807 66.6039 31.7976 66.1331C29.7282 65.6183 27.6521 64.6293 26.4972 62.8343C25.3422 61.0426 25.4777 58.3195 27.2186 57.0901C27.9061 56.6024 28.7799 56.3755 29.3591 55.7624C31.8213 53.1579 25.7588 48.108 24.167 46.7228C20.6683 43.6746 16.3331 41.4697 12.9834 38.2928C8.66513 34.198 5.08852 29.6494 3.20201 23.9323C0.756665 16.5251 0.465375 8.58962 0.644881 0.792969C1.30194 5.37884 4.52293 9.20604 8.14353 12.0985C11.7641 14.9875 15.8928 17.2093 19.4219 20.2101C23.7877 23.9154 27.3202 28.8806 29.2778 34.2691C31.2862 39.8033 30.1651 45.4832 31.381 51.1529L31.3844 51.1495Z" fill="#BC894D"/>
<mask id="mask1_1482_83977" style="mask-type:luminance" maskUnits="userSpaceOnUse" x="0" y="0" width="80" height="67">
<path d="M31.3805 51.1495C31.8107 53.1511 32.4609 54.5093 33.4838 54.3094C33.9817 54.2112 37.0773 40.3622 37.8495 38.4892C40.1763 32.8466 44.9315 27.8577 49.9204 24.4945C59.2446 18.371 71.2444 16.8909 79.8336 9.77843C76.3485 22.0864 68.0607 32.9652 57.121 39.5933C53.8052 41.6018 50.4353 43.7118 47.0721 45.6119C43.885 47.4103 40.2644 49.0699 38.0426 52.1215C37.284 53.1647 37.0536 54.7159 37.8699 55.715C38.4863 56.4737 39.5159 56.7345 40.3186 57.2933C41.9105 58.3974 42.4388 60.6802 41.7614 62.499C41.0874 64.3177 39.3974 65.642 37.5414 66.1941C35.682 66.7462 33.6768 66.6039 31.7937 66.1331C29.7243 65.6183 27.6482 64.6293 26.4932 62.8343C25.3383 61.0426 25.4738 58.3195 27.2147 57.0901C27.9022 56.6024 28.776 56.3755 29.3552 55.7624C31.8174 53.1579 25.7549 48.108 24.1631 46.7228C20.6644 43.6746 16.3292 41.4697 12.9795 38.2928C8.66122 34.198 5.08461 29.6494 3.1981 23.9323C0.752759 16.5251 0.461468 8.58962 0.640974 0.792969C1.29803 5.37884 4.51903 9.20604 8.13963 12.0985C11.7602 14.9875 15.8889 17.2093 19.418 20.2101C23.7838 23.9154 27.3162 28.8806 29.2739 34.2691C31.2823 39.8033 30.1612 45.4832 31.3771 51.1529L31.3805 51.1495Z" fill="white"/>
</mask>
<g mask="url(#mask1_1482_83977)">
<path d="M11.7587 30.6138C17.4554 37.6585 25.1776 43.1555 29.4485 51.1452C30.0242 52.2256 30.5289 53.5567 29.9328 54.6235C29.2757 55.7954 27.6805 55.9749 26.3359 55.9377C20.5612 55.7819 14.8306 54.2205 9.77737 51.4229C5.40149 49.0013 1.51325 45.6347 -1.30127 41.4993C-6.97433 33.1675 -7.90234 22.5665 -8.15975 12.4905C-8.25458 8.71744 -8.21729 4.70057 -6.17837 1.52704C-4.9828 -0.339141 -2.35119 -3.35687 -0.603543 -0.94201C1.20506 1.56091 0.788487 4.02319 1.27281 6.84448C1.72327 9.47949 2.49887 12.2364 3.30496 14.7902C5.11356 20.5242 7.97888 25.9331 11.762 30.6104L11.7587 30.6138Z" fill="#725741"/>
<path d="M60.3642 22.6853C64.3438 20.3788 68.4115 18.1875 72.2523 15.6642C75.9 13.2697 80.3402 10.7769 81.258 6.09961C81.0446 7.14278 77.9558 8.00982 77.1192 8.20965C75.3275 8.63979 73.0583 10.5568 71.2802 10.5568C67.3141 12.1859 63.3447 13.8184 59.3787 15.4475C54.681 17.378 49.9461 19.3255 45.7023 22.1163C41.4585 24.9071 37.6753 28.6225 35.6229 33.2694C34.2444 36.3921 33.6957 39.8027 33.5907 43.1964C33.4993 46.1904 34.6001 49.9058 33.3131 52.6289C33.076 53.1302 33.0963 53.8922 33.6246 54.0514C34.2004 54.2275 34.6237 53.5163 34.7999 52.9371C36.8693 46.187 40.1918 39.8433 44.842 34.509C49.228 29.476 54.7081 25.9638 60.3642 22.6819V22.6853Z" fill="#725741"/>
</g>
<path d="M29.5559 163.864C30.5212 166.272 33.566 167.583 35.9944 166.668C38.4194 165.757 39.8521 162.81 39.1103 160.324C36.9935 153.232 27.0056 157.486 29.5593 163.86L29.5559 163.864Z" fill="white"/>
<path d="M24.5276 80.4677C25.0051 81.731 25.2626 83.0079 24.9307 84.2374C24.5446 85.6632 23.2304 86.4388 22.2245 87.4312C23.5082 86.9706 25.1982 86.1747 26.5766 86.5472C27.7587 86.8656 28.8696 87.316 30.1193 87.4515C32.6426 87.7191 35.1659 87.9629 37.6891 88.2136C39.4266 88.3829 43.3723 90.1915 44.9811 89.3448C46.2106 88.6979 46.451 85.7581 47.0945 84.5727C47.8735 83.14 49.1097 81.5583 50.1055 80.2374C52.7845 76.6812 55.2502 73.4975 53.7092 68.7186C52.4289 64.7423 48.9506 62.4088 45.9159 59.8313C42.7762 57.1624 39.0744 55.049 34.8407 54.9339C27.8807 54.7476 22.7698 58.822 21.5471 65.7787C20.9883 68.959 21.2051 72.2816 22.2177 75.3501C22.7359 76.9149 23.8502 78.6794 24.5276 80.4677Z" fill="#BC8A4D"/>
</svg>
