<svg width="107" height="144" viewBox="0 0 107 144" fill="none" xmlns="http://www.w3.org/2000/svg">
<path d="M4.70907 130.191C2.72096 127.77 1.48137 124.914 0.746408 121.338C-0.188378 116.779 -0.249332 112.041 0.587233 107.465C1.42719 102.849 3.54738 98.7811 4.81069 94.307C6.10449 89.7211 5.91144 84.993 6.84284 80.3733C8.33646 72.8747 12.0417 61.6539 17.6911 56.2687C22.0026 52.157 33.2945 51.7472 37.6128 55.7539C46.6423 64.1297 52.2985 77.5452 55.2484 89.2267C56.6947 94.9539 57.9343 100.732 58.9876 106.544C60.3017 113.822 60.3491 122.821 56.5321 129.561C53.8564 134.293 46.6186 136.677 41.5315 137.92C31.2285 140.44 18.9882 140.443 9.77248 134.56C7.70646 133.239 6.04351 131.814 4.71246 130.191H4.70907Z" fill="#BC8A4D"/>
<mask id="mask0_1482_83920" style="mask-type:luminance" maskUnits="userSpaceOnUse" x="0" y="52" width="60" height="88">
<path d="M4.70907 130.191C2.72096 127.77 1.48137 124.914 0.746408 121.338C-0.188378 116.779 -0.249332 112.041 0.587233 107.465C1.42719 102.849 3.54738 98.7811 4.81069 94.307C6.10449 89.7211 5.91144 84.993 6.84284 80.3733C8.33646 72.8747 12.0417 61.6539 17.6911 56.2687C22.0026 52.157 33.2945 51.7472 37.6128 55.7539C46.6423 64.1297 52.2985 77.5452 55.2484 89.2267C56.6947 94.9539 57.9343 100.732 58.9876 106.544C60.3017 113.822 60.3491 122.821 56.5321 129.561C53.8564 134.293 46.6186 136.677 41.5315 137.92C31.2285 140.44 18.9882 140.443 9.77248 134.56C7.70646 133.239 6.04351 131.814 4.71246 130.191H4.70907Z" fill="white"/>
</mask>
<g mask="url(#mask0_1482_83920)">
<path d="M68.5901 60.5972C67.2421 60.2991 65.8636 60.1738 64.4817 60.2788C61.1253 60.5328 57.796 62.2838 56.2109 65.1864C73.6332 78.4462 75.9566 102.002 72.6612 121.846C71.9364 126.205 73.711 128.501 77.5111 125.351C80.2512 123.082 81.7482 120.322 83.2045 117.162C87.0013 108.908 88.4678 99.6617 87.5804 90.6661C86.5474 80.1938 84.0276 68.6004 74.0836 62.802C72.3834 61.8097 70.524 61.0239 68.5969 60.5972H68.5901Z" fill="#725741"/>
<path d="M53.9449 141.592C54.646 142.026 55.3403 142.402 55.8449 142.727C56.9863 143.462 58.2361 144.227 59.6011 144.142C60.4071 144.092 61.159 143.746 61.8838 143.397C64.2479 142.256 66.5205 141.064 68.5967 139.502C70.6356 137.968 72.6034 136.983 73.8193 134.612C76.3154 129.738 74.3713 125.477 71.3129 121.41C71.086 121.108 70.8354 120.797 70.4831 120.648C70.1309 120.498 69.65 120.573 69.4705 120.905C69.3587 121.112 69.3858 121.359 69.4095 121.592C69.843 126.168 69.0606 130.622 65.8261 134.168C62.8186 137.463 59.0016 138.581 54.7002 139.086C53.7824 139.194 52.8509 139.431 51.9229 139.567C51.8314 139.58 51.7298 139.601 51.6858 139.679C51.635 139.763 51.6825 139.872 51.7333 139.956C52.2108 140.752 53.1795 141.121 53.9483 141.592H53.9449Z" fill="white"/>
</g>
<path d="M31.457 26.4708C30.7458 27.2498 30.0989 28.0559 29.5367 28.8383C28.1209 30.8027 27.7856 29.2278 28.1988 27.7782C29.7805 22.2304 35.0878 18.9316 39.7211 16.2966C44.7202 13.4516 50.8369 12.9435 56.4219 13.9461C62.5183 15.04 67.47 18.5692 72.9432 21.2448C78.4605 23.9408 84.4689 25.973 90.6093 25.8239C96.7634 25.6715 103.124 23.6191 106.335 18.0205C99.6083 18.0815 93.1461 15.4973 87.1208 12.51C79.9609 8.96054 73.729 3.43989 65.7596 1.64483C57.6988 -0.170551 49.0622 1.95981 42.058 6.34246C33.4722 11.7175 26.424 20.2897 22.0346 29.3937C17.6486 38.4842 32.822 39.7678 34.529 32.2929C34.9286 30.5419 31.0303 28.6791 35.7076 27.0026C37.4586 26.376 39.5721 26.2744 41.4179 26.3896C44.307 26.5691 47.1722 27.5851 49.5769 29.1804C54.5286 32.4657 57.8308 37.651 61.0789 42.6264C64.3269 47.6017 67.8527 52.6956 73.0279 55.6118C76.6214 57.6371 80.9871 58.2976 85.0582 57.8776C87.1479 57.6608 89.224 57.1426 91.1309 56.2519C93.0208 55.3679 95.4627 53.9894 96.7193 52.2689C92.5601 52.8379 89.3663 52.1266 85.81 49.6847C82.6399 47.5069 80.1302 44.4214 78.1252 41.1666C72.8552 32.6045 67.7104 23.846 57.8749 19.9104C54.4744 18.5489 51.45 18.2068 47.8531 18.4269C43.6939 18.681 40.4323 20.3778 36.8049 22.1932C34.888 23.1517 33.0251 24.7503 31.4604 26.4708H31.457Z" fill="#BC894D"/>
<mask id="mask1_1482_83920" style="mask-type:luminance" maskUnits="userSpaceOnUse" x="21" y="0" width="86" height="58">
<path d="M31.457 26.4708C30.7458 27.2498 30.0989 28.0559 29.5367 28.8383C28.1209 30.8027 27.7856 29.2278 28.1988 27.7782C29.7805 22.2304 35.0878 18.9316 39.7211 16.2966C44.7202 13.4516 50.8369 12.9435 56.4219 13.9461C62.5183 15.04 67.47 18.5692 72.9432 21.2448C78.4605 23.9408 84.4689 25.973 90.6093 25.8239C96.7634 25.6715 103.124 23.6191 106.335 18.0205C99.6083 18.0815 93.1461 15.4973 87.1208 12.51C79.9609 8.96054 73.729 3.43989 65.7596 1.64483C57.6988 -0.170551 49.0622 1.95981 42.058 6.34246C33.4722 11.7175 26.424 20.2897 22.0346 29.3937C17.6486 38.4842 32.822 39.7678 34.529 32.2929C34.9286 30.5419 31.0303 28.6791 35.7076 27.0026C37.4586 26.376 39.5721 26.2744 41.4179 26.3896C44.307 26.5691 47.1722 27.5851 49.5769 29.1804C54.5286 32.4657 57.8308 37.651 61.0789 42.6264C64.3269 47.6017 67.8527 52.6956 73.0279 55.6118C76.6214 57.6371 80.9871 58.2976 85.0582 57.8776C87.1479 57.6608 89.224 57.1426 91.1309 56.2519C93.0208 55.3679 95.4627 53.9894 96.7193 52.2689C92.5601 52.8379 89.3663 52.1266 85.81 49.6847C82.6399 47.5069 80.1302 44.4214 78.1252 41.1666C72.8552 32.6045 67.7104 23.846 57.8749 19.9104C54.4744 18.5489 51.45 18.2068 47.8531 18.4269C43.6939 18.681 40.4323 20.3778 36.8049 22.1932C34.888 23.1517 33.0251 24.7503 31.4604 26.4708H31.457Z" fill="white"/>
</mask>
<g mask="url(#mask1_1482_83920)">
<path d="M34.0017 30.2175C34.0017 30.2175 33.9712 30.2039 33.9577 30.1972C33.1922 29.8246 33.4259 28.6798 33.751 28.1311C34.5944 26.712 36.4063 25.7298 37.8627 25.0626C44.5518 21.9873 53.0835 23.2303 59.1528 27.1625C61.5067 28.6866 63.5829 30.6408 65.1951 32.9406C69.1374 38.5628 70.4414 45.9361 76.006 50.3933C81.6757 54.9317 90.3903 55.5007 96.7847 52.2933C96.1311 52.6219 95.1894 54.969 94.5087 55.626C93.6145 56.4897 92.507 57.1569 91.4672 57.8174C89.5299 59.0434 87.2878 59.8868 84.9949 60.0459C79.9721 60.3948 74.8749 58.2373 70.9562 55.2264C65.5643 51.0876 61.693 45.3366 57.3476 40.114C55.6236 38.0412 53.788 36.0159 51.5458 34.5121C50.8685 34.0582 50.1606 33.6552 49.4256 33.2996C48.667 32.9304 47.7559 32.7204 47.0514 32.2666C45.6526 31.3623 44.3419 30.966 42.6823 30.6544C41.4089 30.4139 40.132 30.1735 38.8382 30.0854C37.988 30.0278 37.1345 30.038 36.281 30.0786C35.7222 30.1057 34.53 30.4275 33.9983 30.2209L34.0017 30.2175Z" fill="#725741"/>
<path d="M34.283 17.4892C38.1949 13.7941 43.1466 11.2776 48.5893 10.4614C52.6604 9.84836 57.524 10.5393 61.4392 11.7857C65.9167 13.2149 69.964 15.7111 74.201 17.7365C79.3119 20.1818 84.5176 21.7195 90.1703 22.2309C95.3625 22.7017 100.944 20.5442 105.865 18.9896C107.718 18.4037 108.863 17.6958 110.248 16.3377C109.601 16.9744 109.767 19.9007 109.493 20.805C109.066 22.2173 107.901 23.7313 106.678 24.5475C104.334 26.1123 101.926 27.572 99.4538 28.9234C96.0331 30.7964 92.3006 32.5034 88.4091 32.2527C83.8029 31.9547 79.0647 29.1944 75.1901 26.8438C71.1427 24.3883 67.5424 21.2555 63.3731 18.993C60.4028 17.3808 55.9592 17.1539 52.6095 17.093C48.1558 17.0117 43.5868 16.9507 39.4006 18.4646C33.8562 20.4731 31.0316 24.5645 28.3322 29.4552C28.3627 29.4043 27.9867 28.3239 27.9732 28.0936C27.9393 27.4941 28.1053 26.8269 28.2611 26.2511C28.6269 24.9065 29.3246 23.6635 30.0798 22.5052C31.2822 20.6594 32.6946 18.9761 34.2763 17.4824L34.283 17.4892Z" fill="#725741"/>
</g>
<path d="M23.6457 140.614C24.611 143.022 27.6558 144.333 30.0843 143.418C32.5093 142.507 33.942 139.56 33.2003 137.074C31.0835 129.982 21.0954 134.236 23.6491 140.61L23.6457 140.614Z" fill="white"/>
<path d="M37.6173 57.2173C37.1398 58.4806 36.8824 59.7575 37.2143 60.9869C37.6004 62.4128 38.9145 63.1884 39.9204 64.1808C38.6368 63.7201 36.9468 62.9242 35.5683 63.2968C34.3863 63.6152 33.2753 64.0656 32.0255 64.2011C29.5023 64.4687 26.9791 64.7125 24.4559 64.9631C22.7184 65.1325 18.7726 66.9411 17.1638 66.0944C16.0394 65.5017 16.1748 63.036 15.3518 61.7727C14.5119 60.4823 13.4077 59.3849 12.5542 58.1047C9.78375 53.9252 10.1191 48.2792 12.1444 43.6934C13.5466 40.5165 15.6601 37.746 17.9157 35.1313C19.7514 33.0043 20.9199 30.603 22.654 28.5234C23.1959 29.299 24.0528 30.6098 25.1332 30.6098C25.9258 30.708 26.7657 30.288 27.565 30.2779C28.5371 30.2643 29.4583 30.3591 30.3965 30.542C31.1552 30.6877 31.775 30.7215 32.3541 30.034C32.5878 29.7563 32.8723 29.3634 33.211 29.4989C33.3431 29.5497 33.4278 29.6716 33.5091 29.7868C36.4218 33.9967 39.6698 37.2921 40.591 42.5351C41.1499 45.7154 40.9331 49.0379 39.9204 52.1065C39.4022 53.6712 38.2879 55.4358 37.6105 57.2241L37.6173 57.2173Z" fill="#BC8A4D"/>
</svg>
