<svg width="260" height="553" viewBox="0 0 260 553" fill="none" xmlns="http://www.w3.org/2000/svg">
<path d="M190.715 218.77C204.955 266.275 193.219 313.948 198.631 362.064C202.609 397.453 221.611 430.323 232.198 463.954C240.17 489.272 240.249 514.613 237.729 541.35" stroke="#4E3420" stroke-width="22" stroke-linecap="round" stroke-linejoin="round"/>
<path d="M304.345 174.996C302.372 210.711 261.634 231.9 246.221 263.003C234.881 285.88 247.14 315.731 246.498 341.294C246.015 360.542 233.772 375.361 216.973 389.529" stroke="#4E3420" stroke-width="11" stroke-linecap="round" stroke-linejoin="round"/>
<path d="M152.758 292.355C152.758 292.355 191.571 313.894 195.232 357.239" stroke="#4E3420" stroke-width="11" stroke-linecap="round" stroke-linejoin="round"/>
<path d="M301.711 128.275C290.078 139.06 285.276 155.432 283.913 171.233C282.55 187.034 284.111 202.985 282.772 218.786C280.545 245.031 270.093 270.524 253.262 290.778" stroke="#4E3420" stroke-width="4" stroke-linecap="round" stroke-linejoin="round"/>
<path d="M260.945 218.049C277.673 189.863 302.215 167.738 311.296 137.547" stroke="#4E3420" stroke-width="4" stroke-linecap="round" stroke-linejoin="round"/>
<path d="M203.252 129.131C231.795 152.555 243.737 126.548 282.336 145.304C287.772 147.943 330.278 169.568 343.71 223.636C348.528 243.034 347.624 258.629 347.331 262.742C347.18 264.818 344.304 301.515 329.961 318.433C305.214 347.634 272.455 287.125 209.734 299.003C168.441 306.824 152.537 338.751 124.652 324.733C108.011 316.373 99.0088 297.64 89.2303 277.275C75.6719 249.041 60.7902 218.073 68.6748 182.818C79.0555 136.405 121.965 113.512 143.527 108.615C152.347 106.61 159.677 107.149 161 107.252C182.102 108.948 195.257 122.554 203.26 129.123L203.252 129.131Z" fill="#2B6F4A"/>
<path d="M471.459 128.41C483.448 160.114 468.424 202.905 435.435 210.711C422.463 213.778 406.615 212.272 398.318 222.708C390.267 232.827 394.736 247.471 394.609 260.396C394.443 277.972 384.157 295.104 368.713 303.504C353.276 311.904 333.307 311.246 318.457 301.84C298.853 289.43 288.226 263.661 265.864 257.48C230.245 247.638 195.275 295.12 161.01 281.268C134.694 270.634 130.51 230.886 104.368 219.824C84.0659 211.234 60.7607 224.285 38.969 220.933C7.96139 216.163 -8.77462 175.773 4.70453 147.444C18.1837 119.107 53.3673 105.556 84.3274 110.62C75.69 73.0429 95.1202 30.8304 129.274 12.9454C163.427 -4.93967 209.19 3.14307 235.15 31.6466C258.273 7.06557 294.502 -4.39289 327.562 2.40612C357.666 8.60288 366.771 33.6276 383.666 56.1801C398.587 76.0858 414.824 73.0508 433.866 82.7025C449.754 90.7536 465.349 112.22 471.467 128.402L471.459 128.41Z" fill="#204B35"/>
<path d="M243.846 515.629C244.1 510.692 244.797 505.525 245.328 500.62C245.764 497.078 246.826 493.591 246.849 489.986C246.976 485.667 245.7 481.428 244.385 477.363C241.54 467.75 237.665 458.677 233.909 449.366C233.83 449.184 234.091 448.994 234.234 449.144C236.429 451.157 238.283 453.495 239.955 455.951C244.956 463.345 247.602 472.267 247.785 481.158C247.856 484.122 247.911 487.03 248.133 489.946C248.363 492.854 248.926 495.802 248.941 498.782C248.973 501.753 248.403 504.685 247.65 507.546C246.857 510.407 245.796 513.196 244.227 515.74C244.124 515.914 243.83 515.827 243.846 515.621V515.629Z" fill="#754D24"/>
<path d="M200.852 396.105C212.651 398.3 218.42 414.094 213.665 424.387C212.342 419.046 211.193 414.141 209.133 409.22C207.088 404.315 204.56 400.155 200.844 396.105H200.852Z" fill="#412413"/>
<path d="M243.111 325.621C250.204 335.732 246.86 350.765 239.371 359.775C244.855 349.37 247.985 336.771 243.111 325.621Z" fill="#754D24"/>
<path d="M216.627 425.172C203.148 421.297 196.183 404.061 203.338 391.953C202.879 395.242 202.736 398.419 203.021 401.534C203.743 411.058 209.107 419.363 216.627 425.172Z" fill="#754D24"/>
</svg>
