<svg width="888" height="551" viewBox="0 0 888 551" fill="none" xmlns="http://www.w3.org/2000/svg">
<path d="M887.724 456.428H711.426V549.552H887.724V456.428Z" fill="#1F2C2F"/>
<path d="M727.115 462.246H718.898V465.985H727.115V462.246Z" fill="#E0F2FA"/>
<path d="M727.115 469.729H718.898V473.467H727.115V469.729Z" fill="#E0F2FA"/>
<path d="M727.115 477.205H718.898V480.944H727.115V477.205Z" fill="#E0F2FA"/>
<path d="M727.115 484.689H718.898V488.428H727.115V484.689Z" fill="#E0F2FA"/>
<path d="M727.115 492.166H718.898V495.905H727.115V492.166Z" fill="#E0F2FA"/>
<path d="M727.115 499.648H718.898V503.387H727.115V499.648Z" fill="#E0F2FA"/>
<path d="M727.115 507.131H718.898V510.87H727.115V507.131Z" fill="#E0F2FA"/>
<path d="M727.115 514.609H718.898V518.348H727.115V514.609Z" fill="#E0F2FA"/>
<path d="M727.115 522.092H718.898V525.831H727.115V522.092Z" fill="#E0F2FA"/>
<path d="M727.115 529.568H718.898V533.307H727.115V529.568Z" fill="#E0F2FA"/>
<path d="M727.115 537.051H718.898V540.79H727.115V537.051Z" fill="#E0F2FA"/>
<path d="M739.064 462.246H730.848V465.985H739.064V462.246Z" fill="#E0F2FA"/>
<path d="M739.064 469.729H730.848V473.467H739.064V469.729Z" fill="#E0F2FA"/>
<path d="M739.064 477.205H730.848V480.944H739.064V477.205Z" fill="#E0F2FA"/>
<path d="M739.064 484.688H730.848V488.426H739.064V484.688Z" fill="#E0F2FA"/>
<path d="M739.064 492.166H730.848V495.905H739.064V492.166Z" fill="#E0F2FA"/>
<path d="M739.064 499.648H730.848V503.387H739.064V499.648Z" fill="#E0F2FA"/>
<path d="M739.064 507.131H730.848V510.87H739.064V507.131Z" fill="#E0F2FA"/>
<path d="M739.064 514.609H730.848V518.348H739.064V514.609Z" fill="#E0F2FA"/>
<path d="M739.064 522.092H730.848V525.831H739.064V522.092Z" fill="#E0F2FA"/>
<path d="M739.064 529.568H730.848V533.307H739.064V529.568Z" fill="#E0F2FA"/>
<path d="M739.064 537.051H730.848V540.79H739.064V537.051Z" fill="#E0F2FA"/>
<path d="M751.021 462.246H742.805V465.985H751.021V462.246Z" fill="#E0F2FA"/>
<path d="M751.021 469.729H742.805V473.467H751.021V469.729Z" fill="#E0F2FA"/>
<path d="M751.021 477.205H742.805V480.944H751.021V477.205Z" fill="#E0F2FA"/>
<path d="M751.021 484.688H742.805V488.426H751.021V484.688Z" fill="#E0F2FA"/>
<path d="M751.021 492.166H742.805V495.905H751.021V492.166Z" fill="#E0F2FA"/>
<path d="M751.021 499.648H742.805V503.387H751.021V499.648Z" fill="#E0F2FA"/>
<path d="M751.021 507.131H742.805V510.87H751.021V507.131Z" fill="#E0F2FA"/>
<path d="M751.021 514.609H742.805V518.348H751.021V514.609Z" fill="#E0F2FA"/>
<path d="M751.021 522.09H742.805V525.829H751.021V522.09Z" fill="#E0F2FA"/>
<path d="M751.021 529.568H742.805V533.307H751.021V529.568Z" fill="#E0F2FA"/>
<path d="M751.021 537.051H742.805V540.79H751.021V537.051Z" fill="#E0F2FA"/>
<path d="M762.978 462.246H754.762V465.985H762.978V462.246Z" fill="#E0F2FA"/>
<path d="M762.978 469.729H754.762V473.467H762.978V469.729Z" fill="#E0F2FA"/>
<path d="M762.978 477.205H754.762V480.944H762.978V477.205Z" fill="#E0F2FA"/>
<path d="M762.978 484.688H754.762V488.426H762.978V484.688Z" fill="#E0F2FA"/>
<path d="M762.978 492.166H754.762V495.905H762.978V492.166Z" fill="#E0F2FA"/>
<path d="M762.978 499.648H754.762V503.387H762.978V499.648Z" fill="#E0F2FA"/>
<path d="M762.978 507.131H754.762V510.87H762.978V507.131Z" fill="#E0F2FA"/>
<path d="M762.978 514.609H754.762V518.348H762.978V514.609Z" fill="#E0F2FA"/>
<path d="M762.978 522.092H754.762V525.831H762.978V522.092Z" fill="#E0F2FA"/>
<path d="M762.978 529.568H754.762V533.307H762.978V529.568Z" fill="#E0F2FA"/>
<path d="M762.978 537.051H754.762V540.79H762.978V537.051Z" fill="#E0F2FA"/>
<path d="M774.927 462.246H766.711V465.985H774.927V462.246Z" fill="#E0F2FA"/>
<path d="M774.927 469.729H766.711V473.467H774.927V469.729Z" fill="#E0F2FA"/>
<path d="M774.927 477.205H766.711V480.944H774.927V477.205Z" fill="#E0F2FA"/>
<path d="M774.927 484.688H766.711V488.426H774.927V484.688Z" fill="#E0F2FA"/>
<path d="M774.927 492.166H766.711V495.905H774.927V492.166Z" fill="#E0F2FA"/>
<path d="M774.927 499.648H766.711V503.387H774.927V499.648Z" fill="#E0F2FA"/>
<path d="M774.927 507.131H766.711V510.87H774.927V507.131Z" fill="#E0F2FA"/>
<path d="M774.927 514.609H766.711V518.348H774.927V514.609Z" fill="#E0F2FA"/>
<path d="M774.927 522.09H766.711V525.829H774.927V522.09Z" fill="#E0F2FA"/>
<path d="M774.927 529.568H766.711V533.307H774.927V529.568Z" fill="#E0F2FA"/>
<path d="M774.927 537.051H766.711V540.79H774.927V537.051Z" fill="#E0F2FA"/>
<path d="M786.88 462.246H778.664V465.985H786.88V462.246Z" fill="#E0F2FA"/>
<path d="M786.88 469.729H778.664V473.467H786.88V469.729Z" fill="#E0F2FA"/>
<path d="M786.88 477.205H778.664V480.944H786.88V477.205Z" fill="#E0F2FA"/>
<path d="M786.88 484.688H778.664V488.426H786.88V484.688Z" fill="#E0F2FA"/>
<path d="M786.88 492.166H778.664V495.905H786.88V492.166Z" fill="#E0F2FA"/>
<path d="M786.88 499.648H778.664V503.387H786.88V499.648Z" fill="#E0F2FA"/>
<path d="M786.88 507.131H778.664V510.87H786.88V507.131Z" fill="#E0F2FA"/>
<path d="M786.88 514.609H778.664V518.348H786.88V514.609Z" fill="#E0F2FA"/>
<path d="M786.88 522.092H778.664V525.831H786.88V522.092Z" fill="#E0F2FA"/>
<path d="M786.88 529.568H778.664V533.307H786.88V529.568Z" fill="#E0F2FA"/>
<path d="M786.88 537.051H778.664V540.79H786.88V537.051Z" fill="#E0F2FA"/>
<path d="M798.837 462.246H790.621V465.985H798.837V462.246Z" fill="#E0F2FA"/>
<path d="M798.837 469.729H790.621V473.467H798.837V469.729Z" fill="#E0F2FA"/>
<path d="M798.837 477.205H790.621V480.944H798.837V477.205Z" fill="#E0F2FA"/>
<path d="M798.837 484.688H790.621V488.426H798.837V484.688Z" fill="#E0F2FA"/>
<path d="M798.837 492.166H790.621V495.905H798.837V492.166Z" fill="#E0F2FA"/>
<path d="M798.837 499.648H790.621V503.387H798.837V499.648Z" fill="#E0F2FA"/>
<path d="M798.837 507.131H790.621V510.87H798.837V507.131Z" fill="#E0F2FA"/>
<path d="M798.837 514.609H790.621V518.348H798.837V514.609Z" fill="#E0F2FA"/>
<path d="M798.837 522.092H790.621V525.831H798.837V522.092Z" fill="#E0F2FA"/>
<path d="M798.837 529.568H790.621V533.307H798.837V529.568Z" fill="#E0F2FA"/>
<path d="M798.837 537.051H790.621V540.79H798.837V537.051Z" fill="#E0F2FA"/>
<path d="M810.79 462.246H802.574V465.985H810.79V462.246Z" fill="#E0F2FA"/>
<path d="M810.79 469.729H802.574V473.467H810.79V469.729Z" fill="#E0F2FA"/>
<path d="M810.79 477.205H802.574V480.944H810.79V477.205Z" fill="#E0F2FA"/>
<path d="M810.79 484.688H802.574V488.426H810.79V484.688Z" fill="#E0F2FA"/>
<path d="M810.79 492.166H802.574V495.905H810.79V492.166Z" fill="#E0F2FA"/>
<path d="M810.79 499.648H802.574V503.387H810.79V499.648Z" fill="#E0F2FA"/>
<path d="M810.79 507.131H802.574V510.87H810.79V507.131Z" fill="#E0F2FA"/>
<path d="M810.79 514.609H802.574V518.348H810.79V514.609Z" fill="#E0F2FA"/>
<path d="M810.79 522.092H802.574V525.831H810.79V522.092Z" fill="#E0F2FA"/>
<path d="M810.79 529.568H802.574V533.307H810.79V529.568Z" fill="#E0F2FA"/>
<path d="M810.79 537.051H802.574V540.79H810.79V537.051Z" fill="#E0F2FA"/>
<path d="M822.743 462.246H814.527V465.985H822.743V462.246Z" fill="#E0F2FA"/>
<path d="M822.743 469.729H814.527V473.467H822.743V469.729Z" fill="#E0F2FA"/>
<path d="M822.743 477.205H814.527V480.944H822.743V477.205Z" fill="#E0F2FA"/>
<path d="M822.743 484.688H814.527V488.426H822.743V484.688Z" fill="#E0F2FA"/>
<path d="M822.743 492.166H814.527V495.905H822.743V492.166Z" fill="#E0F2FA"/>
<path d="M822.743 499.648H814.527V503.387H822.743V499.648Z" fill="#E0F2FA"/>
<path d="M822.743 507.131H814.527V510.87H822.743V507.131Z" fill="#E0F2FA"/>
<path d="M822.743 514.609H814.527V518.348H822.743V514.609Z" fill="#E0F2FA"/>
<path d="M822.743 522.092H814.527V525.831H822.743V522.092Z" fill="#E0F2FA"/>
<path d="M822.743 529.568H814.527V533.307H822.743V529.568Z" fill="#E0F2FA"/>
<path d="M822.743 537.051H814.527V540.79H822.743V537.051Z" fill="#E0F2FA"/>
<path d="M834.697 462.246H826.48V465.985H834.697V462.246Z" fill="#E0F2FA"/>
<path d="M834.697 469.729H826.48V473.467H834.697V469.729Z" fill="#E0F2FA"/>
<path d="M834.697 477.205H826.48V480.944H834.697V477.205Z" fill="#E0F2FA"/>
<path d="M834.697 484.688H826.48V488.426H834.697V484.688Z" fill="#E0F2FA"/>
<path d="M834.697 492.166H826.48V495.905H834.697V492.166Z" fill="#E0F2FA"/>
<path d="M834.697 499.648H826.48V503.387H834.697V499.648Z" fill="#E0F2FA"/>
<path d="M834.697 507.131H826.48V510.87H834.697V507.131Z" fill="#E0F2FA"/>
<path d="M834.697 514.609H826.48V518.348H834.697V514.609Z" fill="#E0F2FA"/>
<path d="M834.697 522.092H826.48V525.831H834.697V522.092Z" fill="#E0F2FA"/>
<path d="M834.697 529.568H826.48V533.307H834.697V529.568Z" fill="#E0F2FA"/>
<path d="M834.697 537.051H826.48V540.79H834.697V537.051Z" fill="#E0F2FA"/>
<path d="M846.642 462.246H838.426V465.985H846.642V462.246Z" fill="#E0F2FA"/>
<path d="M846.642 469.729H838.426V473.467H846.642V469.729Z" fill="#E0F2FA"/>
<path d="M846.642 477.205H838.426V480.944H846.642V477.205Z" fill="#E0F2FA"/>
<path d="M846.642 484.688H838.426V488.426H846.642V484.688Z" fill="#E0F2FA"/>
<path d="M846.642 492.166H838.426V495.905H846.642V492.166Z" fill="#E0F2FA"/>
<path d="M846.642 499.648H838.426V503.387H846.642V499.648Z" fill="#E0F2FA"/>
<path d="M846.642 507.131H838.426V510.87H846.642V507.131Z" fill="#E0F2FA"/>
<path d="M846.642 514.609H838.426V518.348H846.642V514.609Z" fill="#E0F2FA"/>
<path d="M846.642 522.092H838.426V525.831H846.642V522.092Z" fill="#E0F2FA"/>
<path d="M846.642 529.568H838.426V533.307H846.642V529.568Z" fill="#E0F2FA"/>
<path d="M846.642 537.051H838.426V540.79H846.642V537.051Z" fill="#E0F2FA"/>
<path d="M858.603 462.246H850.387V465.985H858.603V462.246Z" fill="#E0F2FA"/>
<path d="M858.603 469.729H850.387V473.467H858.603V469.729Z" fill="#E0F2FA"/>
<path d="M858.603 477.205H850.387V480.944H858.603V477.205Z" fill="#E0F2FA"/>
<path d="M858.603 484.689H850.387V488.428H858.603V484.689Z" fill="#E0F2FA"/>
<path d="M858.603 492.166H850.387V495.905H858.603V492.166Z" fill="#E0F2FA"/>
<path d="M858.603 499.648H850.387V503.387H858.603V499.648Z" fill="#E0F2FA"/>
<path d="M858.603 507.131H850.387V510.87H858.603V507.131Z" fill="#E0F2FA"/>
<path d="M858.603 514.609H850.387V518.348H858.603V514.609Z" fill="#E0F2FA"/>
<path d="M858.603 522.092H850.387V525.831H858.603V522.092Z" fill="#E0F2FA"/>
<path d="M858.603 529.568H850.387V533.307H858.603V529.568Z" fill="#E0F2FA"/>
<path d="M858.603 537.051H850.387V540.79H858.603V537.051Z" fill="#E0F2FA"/>
<path d="M870.556 462.246H862.34V465.985H870.556V462.246Z" fill="#E0F2FA"/>
<path d="M870.556 469.729H862.34V473.467H870.556V469.729Z" fill="#E0F2FA"/>
<path d="M870.556 477.205H862.34V480.944H870.556V477.205Z" fill="#E0F2FA"/>
<path d="M870.556 484.688H862.34V488.426H870.556V484.688Z" fill="#E0F2FA"/>
<path d="M870.556 492.166H862.34V495.905H870.556V492.166Z" fill="#E0F2FA"/>
<path d="M870.556 499.648H862.34V503.387H870.556V499.648Z" fill="#E0F2FA"/>
<path d="M870.556 507.131H862.34V510.87H870.556V507.131Z" fill="#E0F2FA"/>
<path d="M870.556 514.609H862.34V518.348H870.556V514.609Z" fill="#E0F2FA"/>
<path d="M870.556 522.092H862.34V525.831H870.556V522.092Z" fill="#E0F2FA"/>
<path d="M870.556 529.568H862.34V533.307H870.556V529.568Z" fill="#E0F2FA"/>
<path d="M870.556 537.051H862.34V540.79H870.556V537.051Z" fill="#E0F2FA"/>
<path d="M882.517 462.246H874.301V465.985H882.517V462.246Z" fill="#E0F2FA"/>
<path d="M882.517 469.729H874.301V473.467H882.517V469.729Z" fill="#E0F2FA"/>
<path d="M882.517 477.205H874.301V480.944H882.517V477.205Z" fill="#E0F2FA"/>
<path d="M882.517 484.689H874.301V488.428H882.517V484.689Z" fill="#E0F2FA"/>
<path d="M882.517 492.166H874.301V495.905H882.517V492.166Z" fill="#E0F2FA"/>
<path d="M882.517 499.648H874.301V503.387H882.517V499.648Z" fill="#E0F2FA"/>
<path d="M882.517 507.131H874.301V510.87H882.517V507.131Z" fill="#E0F2FA"/>
<path d="M882.517 514.609H874.301V518.348H882.517V514.609Z" fill="#E0F2FA"/>
<path d="M882.517 522.092H874.301V525.831H882.517V522.092Z" fill="#E0F2FA"/>
<path d="M882.517 529.568H874.301V533.307H882.517V529.568Z" fill="#E0F2FA"/>
<path d="M882.517 537.051H874.301V540.79H882.517V537.051Z" fill="#E0F2FA"/>
<path d="M268.479 316.219H223.664V550.079H268.479V316.219Z" fill="#F39200"/>
<path d="M223.664 316.218L246.145 276.635L268.479 316.228L223.664 316.218Z" fill="#F39200"/>
<path d="M247.047 268.551H245.238V284.416H247.047V268.551Z" fill="#F39200"/>
<path d="M237.77 320.447V549.561H227.699V320.108C227.699 316.981 229.953 314.441 232.727 314.441C235.501 314.441 237.755 316.976 237.755 320.108" fill="#E0F2FA"/>
<path d="M251.18 320.615V549.729H241.109V320.276C241.109 317.149 243.363 314.609 246.137 314.609C248.911 314.609 251.165 317.144 251.165 320.276" fill="#E0F2FA"/>
<path d="M264.364 320.447V549.561H254.293V320.108C254.293 316.981 256.547 314.441 259.321 314.441C262.095 314.441 264.348 316.976 264.348 320.108" fill="#E0F2FA"/>
<path d="M264.887 325.811H226.586V329.134H264.887V325.811Z" fill="#F39200"/>
<path d="M264.887 339.707H226.586V343.031H264.887V339.707Z" fill="#F39200"/>
<path d="M264.887 353.605H226.586V356.929H264.887V353.605Z" fill="#F39200"/>
<path d="M264.887 367.508H226.586V370.832H264.887V367.508Z" fill="#F39200"/>
<path d="M264.887 381.406H226.586V384.73H264.887V381.406Z" fill="#F39200"/>
<path d="M264.887 395.309H226.586V398.632H264.887V395.309Z" fill="#F39200"/>
<path d="M264.887 409.205H226.586V412.529H264.887V409.205Z" fill="#F39200"/>
<path d="M264.887 423.104H226.586V426.427H264.887V423.104Z" fill="#F39200"/>
<path d="M264.887 437.006H226.586V440.33H264.887V437.006Z" fill="#F39200"/>
<path d="M264.887 450.902H226.586V454.226H264.887V450.902Z" fill="#F39200"/>
<path d="M264.887 464.801H226.586V468.125H264.887V464.801Z" fill="#F39200"/>
<path d="M264.887 478.703H226.586V482.027H264.887V478.703Z" fill="#F39200"/>
<path d="M264.887 492.602H226.586V495.925H264.887V492.602Z" fill="#F39200"/>
<path d="M264.887 506.498H226.586V509.822H264.887V506.498Z" fill="#F39200"/>
<path d="M264.887 520.4H226.586V523.724H264.887V520.4Z" fill="#F39200"/>
<path d="M327.323 404.07H247.203V550.533H327.323V404.07Z" fill="#0D516E"/>
<path d="M323.552 408.598H252.027V414.942H323.552V408.598Z" fill="#E0F2FA"/>
<path d="M323.552 419.48H252.027V425.825H323.552V419.48Z" fill="#E0F2FA"/>
<path d="M323.552 430.357H252.027V436.702H323.552V430.357Z" fill="#E0F2FA"/>
<path d="M323.552 441.234H252.027V447.579H323.552V441.234Z" fill="#E0F2FA"/>
<path d="M323.552 452.113H252.027V458.457H323.552V452.113Z" fill="#E0F2FA"/>
<path d="M323.552 462.988H252.027V469.332H323.552V462.988Z" fill="#E0F2FA"/>
<path d="M323.552 473.867H252.027V480.211H323.552V473.867Z" fill="#E0F2FA"/>
<path d="M323.552 484.744H252.027V491.088H323.552V484.744Z" fill="#E0F2FA"/>
<path d="M323.552 495.621H252.027V501.965H323.552V495.621Z" fill="#E0F2FA"/>
<path d="M323.552 506.498H252.027V512.842H323.552V506.498Z" fill="#E0F2FA"/>
<path d="M323.552 517.381H252.027V523.725H323.552V517.381Z" fill="#E0F2FA"/>
<path d="M538.773 0C538.773 0 534.084 44.384 534.084 55.4586C534.084 66.5331 505.949 80.9871 505.949 80.9871H571.597C571.597 80.9871 541.704 68.3695 541.704 54.2848C541.704 40.2001 538.773 0 538.773 0Z" fill="#163339"/>
<path d="M623.907 377.488H453.102V548.847H623.907V377.488Z" fill="#163339"/>
<path d="M595.775 167.984H481.477V549.435H595.775V167.984Z" fill="#163339"/>
<path d="M579.365 80.5469H496.133V180.172H579.365V80.5469Z" fill="#163339"/>
<path d="M569.988 67.6367H505.512V82.3083H569.988V67.6367Z" fill="#163339"/>
<path d="M557.952 57.0723H518.695V67.9292H557.952V57.0723Z" fill="#163339"/>
<path d="M551.814 49.1504H526.316V56.9314H551.814V49.1504Z" fill="#163339"/>
<path d="M516.953 89.543H505.902V549.244H516.953V89.543Z" fill="#E0F2FA"/>
<path d="M543.469 89.543H532.418V549.244H543.469V89.543Z" fill="#E0F2FA"/>
<path d="M569.984 89.543H558.934V549.244H569.984V89.543Z" fill="#E0F2FA"/>
<path d="M462.921 384.531H459.793V544.153H462.921V384.531Z" fill="#E0F2FA"/>
<path d="M469.952 384.531H466.824V544.153H469.952V384.531Z" fill="#E0F2FA"/>
<path d="M476.987 384.531H473.859V544.153H476.987V384.531Z" fill="#E0F2FA"/>
<path d="M484.018 384.531H480.891V544.153H484.018V384.531Z" fill="#E0F2FA"/>
<path d="M491.054 384.531H487.926V544.153H491.054V384.531Z" fill="#E0F2FA"/>
<path d="M498.089 384.531H494.961V544.153H498.089V384.531Z" fill="#E0F2FA"/>
<path d="M581.71 384.531H578.582V544.153H581.71V384.531Z" fill="#E0F2FA"/>
<path d="M588.741 384.531H585.613V544.153H588.741V384.531Z" fill="#E0F2FA"/>
<path d="M595.772 384.531H592.645V544.153H595.772V384.531Z" fill="#E0F2FA"/>
<path d="M602.807 384.531H599.68V544.153H602.807V384.531Z" fill="#E0F2FA"/>
<path d="M609.843 384.531H606.715V544.153H609.843V384.531Z" fill="#E0F2FA"/>
<path d="M616.878 384.531H613.75V544.153H616.878V384.531Z" fill="#E0F2FA"/>
<path d="M630.625 548.853V222.562C630.625 222.562 709.168 327.024 709.168 548.853H630.625Z" fill="#DBB1D3"/>
<path d="M652.309 288.773V537.897H662.076V313.897C658.579 304.163 655.249 295.765 652.309 288.773Z" fill="#E0F2FA"/>
<path d="M664.82 321.693V537.896H674.588V352.989C671.349 341.54 668.039 331.082 664.82 321.688V321.693Z" fill="#E0F2FA"/>
<path d="M640.785 264.033V537.896H649.577V282.418C644.287 270.403 640.785 264.033 640.785 264.033Z" fill="#E0F2FA"/>
<path d="M689.828 420.422V537.901H699.793C699.793 494.407 695.77 454.971 689.828 420.422Z" fill="#E0F2FA"/>
<path d="M677.32 362.977V537.902H687.088V405.509C684.106 390.235 680.782 376.029 677.32 362.982V362.977Z" fill="#E0F2FA"/>
<path d="M427.729 145.203H350.363V548.348H427.729V145.203Z" fill="#1F2C2F"/>
<path d="M423.784 124.41H355.129V145.441H423.784V124.41Z" fill="#1F2C2F"/>
<path d="M390.509 125.19H388.164L388.947 71.9824L390.509 125.19Z" fill="#1F2C2F"/>
<path d="M389.531 125.189C392.229 125.189 394.417 122.998 394.417 120.297C394.417 117.595 392.229 115.404 389.531 115.404C386.832 115.404 384.645 117.595 384.645 120.297C384.645 122.998 386.832 125.189 389.531 125.189Z" fill="#1F2C2F"/>
<path d="M389.433 110.811C390.781 110.811 391.873 109.717 391.873 108.367C391.873 107.018 390.781 105.924 389.433 105.924C388.085 105.924 386.992 107.018 386.992 108.367C386.992 109.717 388.085 110.811 389.433 110.811Z" fill="#1F2C2F"/>
<path d="M364.249 151.553H356.043V542.393H364.249V151.553Z" fill="#DBB1D3"/>
<path d="M375.976 151.553H367.77V542.393H375.976V151.553Z" fill="#DBB1D3"/>
<path d="M387.698 151.553H379.492V542.393H387.698V151.553Z" fill="#DBB1D3"/>
<path d="M399.413 151.553H391.207V542.393H399.413V151.553Z" fill="#DBB1D3"/>
<path d="M411.14 151.553H402.934V542.393H411.14V151.553Z" fill="#DBB1D3"/>
<path d="M422.862 151.553H414.656V542.393H422.862V151.553Z" fill="#DBB1D3"/>
<path d="M305.168 292.542V548.525H372.534V292.542H305.168Z" fill="#182D34"/>
<path d="M314.789 508.391V520.32H317.492V508.391H314.789Z" fill="#0D516E"/>
<path d="M363.484 508.391V520.32H366.188V508.391H363.484Z" fill="#0D516E"/>
<path d="M336.434 438.963V450.893H339.137V438.963H336.434Z" fill="#0D516E"/>
<path d="M347.254 369.537V381.467H349.957V369.537H347.254Z" fill="#0D516E"/>
<path d="M320.199 334.82V346.75H322.903V334.82H320.199Z" fill="#0D516E"/>
<path d="M352.672 300.11V312.039H355.375V300.11H352.672Z" fill="#0D516E"/>
<path d="M309.379 525.748V537.678H312.082V525.748H309.379Z" fill="#DBB1D3"/>
<path d="M314.793 525.748V537.678H317.496V525.748H314.793Z" fill="#DBB1D3"/>
<path d="M320.199 525.748V537.678H322.903V525.748H320.199Z" fill="#DBB1D3"/>
<path d="M325.613 525.748V537.678H328.317V525.748H325.613Z" fill="#DBB1D3"/>
<path d="M331.023 525.748V537.678H333.727V525.748H331.023Z" fill="#DBB1D3"/>
<path d="M336.434 525.742V537.672H339.137V525.742H336.434Z" fill="#DBB1D3"/>
<path d="M341.848 525.748V537.678H344.551V525.748H341.848Z" fill="#DBB1D3"/>
<path d="M347.258 525.748V537.678H349.961V525.748H347.258Z" fill="#DBB1D3"/>
<path d="M352.672 525.748V537.678H355.375V525.748H352.672Z" fill="#DBB1D3"/>
<path d="M358.078 525.748V537.678H360.781V525.748H358.078Z" fill="#DBB1D3"/>
<path d="M363.492 525.748V537.678H366.196V525.748H363.492Z" fill="#DBB1D3"/>
<path d="M309.379 508.391V520.32H312.082V508.391H309.379Z" fill="#DBB1D3"/>
<path d="M320.195 508.391V520.32H322.899V508.391H320.195Z" fill="#DBB1D3"/>
<path d="M325.609 508.391V520.32H328.313V508.391H325.609Z" fill="#DBB1D3"/>
<path d="M331.023 508.391V520.32H333.727V508.391H331.023Z" fill="#DBB1D3"/>
<path d="M336.434 508.391V520.32H339.137V508.391H336.434Z" fill="#DBB1D3"/>
<path d="M341.848 508.391V520.32H344.551V508.391H341.848Z" fill="#DBB1D3"/>
<path d="M347.258 508.391V520.32H349.961V508.391H347.258Z" fill="#DBB1D3"/>
<path d="M352.672 508.391V520.32H355.375V508.391H352.672Z" fill="#DBB1D3"/>
<path d="M358.078 508.391V520.32H360.781V508.391H358.078Z" fill="#DBB1D3"/>
<path d="M309.379 491.037V502.967H312.082V491.037H309.379Z" fill="#DBB1D3"/>
<path d="M314.785 491.031V502.961H317.488V491.031H314.785Z" fill="#DBB1D3"/>
<path d="M320.195 491.031V502.961H322.899V491.031H320.195Z" fill="#DBB1D3"/>
<path d="M325.609 491.031V502.961H328.313V491.031H325.609Z" fill="#DBB1D3"/>
<path d="M331.023 491.031V502.961H333.727V491.031H331.023Z" fill="#DBB1D3"/>
<path d="M336.434 491.031V502.961H339.137V491.031H336.434Z" fill="#DBB1D3"/>
<path d="M341.848 491.037V502.967H344.551V491.037H341.848Z" fill="#DBB1D3"/>
<path d="M347.258 491.037V502.967H349.961V491.037H347.258Z" fill="#DBB1D3"/>
<path d="M352.664 491.031V502.961H355.367V491.031H352.664Z" fill="#DBB1D3"/>
<path d="M358.078 491.031V502.961H360.781V491.031H358.078Z" fill="#DBB1D3"/>
<path d="M363.488 491.031V502.961H366.192V491.031H363.488Z" fill="#DBB1D3"/>
<path d="M309.379 473.68V485.609H312.082V473.68H309.379Z" fill="#DBB1D3"/>
<path d="M314.793 473.68V485.609H317.496V473.68H314.793Z" fill="#DBB1D3"/>
<path d="M320.199 473.68V485.609H322.903V473.68H320.199Z" fill="#DBB1D3"/>
<path d="M325.613 473.674V485.604H328.317V473.674H325.613Z" fill="#DBB1D3"/>
<path d="M331.027 473.674V485.604H333.731V473.674H331.027Z" fill="#DBB1D3"/>
<path d="M336.441 473.674V485.604H339.145V473.674H336.441Z" fill="#DBB1D3"/>
<path d="M341.848 473.68V485.609H344.551V473.68H341.848Z" fill="#DBB1D3"/>
<path d="M347.258 473.68V485.609H349.961V473.68H347.258Z" fill="#DBB1D3"/>
<path d="M352.672 473.68V485.609H355.375V473.68H352.672Z" fill="#DBB1D3"/>
<path d="M358.078 473.68V485.609H360.781V473.68H358.078Z" fill="#DBB1D3"/>
<path d="M363.492 473.674V485.604H366.196V473.674H363.492Z" fill="#DBB1D3"/>
<path d="M309.379 456.321V468.25H312.082V456.321H309.379Z" fill="#DBB1D3"/>
<path d="M314.793 456.32V468.25H317.496V456.32H314.793Z" fill="#DBB1D3"/>
<path d="M320.199 456.32V468.25H322.903V456.32H320.199Z" fill="#DBB1D3"/>
<path d="M325.613 456.321V468.25H328.317V456.321H325.613Z" fill="#DBB1D3"/>
<path d="M331.023 456.317V468.246H333.727V456.317H331.023Z" fill="#DBB1D3"/>
<path d="M336.434 456.317V468.246H339.137V456.317H336.434Z" fill="#DBB1D3"/>
<path d="M341.848 456.321V468.25H344.551V456.321H341.848Z" fill="#DBB1D3"/>
<path d="M347.258 456.32V468.25H349.961V456.32H347.258Z" fill="#DBB1D3"/>
<path d="M352.672 456.32V468.25H355.375V456.32H352.672Z" fill="#DBB1D3"/>
<path d="M358.078 456.321V468.25H360.781V456.321H358.078Z" fill="#DBB1D3"/>
<path d="M363.492 456.32V468.25H366.196V456.32H363.492Z" fill="#DBB1D3"/>
<path d="M309.379 438.963V450.893H312.082V438.963H309.379Z" fill="#DBB1D3"/>
<path d="M314.793 438.963V450.893H317.496V438.963H314.793Z" fill="#DBB1D3"/>
<path d="M320.199 438.963V450.893H322.903V438.963H320.199Z" fill="#DBB1D3"/>
<path d="M325.609 438.963V450.893H328.313V438.963H325.609Z" fill="#DBB1D3"/>
<path d="M331.023 438.963V450.893H333.727V438.963H331.023Z" fill="#DBB1D3"/>
<path d="M341.848 438.963V450.893H344.551V438.963H341.848Z" fill="#DBB1D3"/>
<path d="M347.258 438.963V450.893H349.961V438.963H347.258Z" fill="#DBB1D3"/>
<path d="M352.672 438.963V450.893H355.375V438.963H352.672Z" fill="#DBB1D3"/>
<path d="M358.078 438.963V450.893H360.781V438.963H358.078Z" fill="#DBB1D3"/>
<path d="M363.488 438.963V450.893H366.192V438.963H363.488Z" fill="#DBB1D3"/>
<path d="M309.379 421.61V433.539H312.082V421.61H309.379Z" fill="#DBB1D3"/>
<path d="M314.785 421.606V433.535H317.488V421.606H314.785Z" fill="#DBB1D3"/>
<path d="M320.195 421.606V433.535H322.899V421.606H320.195Z" fill="#DBB1D3"/>
<path d="M325.609 421.606V433.535H328.313V421.606H325.609Z" fill="#DBB1D3"/>
<path d="M331.023 421.606V433.535H333.727V421.606H331.023Z" fill="#DBB1D3"/>
<path d="M336.434 421.606V433.535H339.137V421.606H336.434Z" fill="#DBB1D3"/>
<path d="M341.848 421.61V433.539H344.551V421.61H341.848Z" fill="#DBB1D3"/>
<path d="M347.258 421.61V433.539H349.961V421.61H347.258Z" fill="#DBB1D3"/>
<path d="M352.664 421.606V433.535H355.367V421.606H352.664Z" fill="#DBB1D3"/>
<path d="M358.078 421.606V433.535H360.781V421.606H358.078Z" fill="#DBB1D3"/>
<path d="M363.488 421.606V433.535H366.192V421.606H363.488Z" fill="#DBB1D3"/>
<path d="M309.379 404.252V416.182H312.082V404.252H309.379Z" fill="#DBB1D3"/>
<path d="M314.793 404.252V416.182H317.496V404.252H314.793Z" fill="#DBB1D3"/>
<path d="M320.199 404.252V416.182H322.903V404.252H320.199Z" fill="#DBB1D3"/>
<path d="M325.613 404.248V416.178H328.317V404.248H325.613Z" fill="#DBB1D3"/>
<path d="M331.027 404.248V416.178H333.731V404.248H331.027Z" fill="#DBB1D3"/>
<path d="M336.441 404.248V416.178H339.145V404.248H336.441Z" fill="#DBB1D3"/>
<path d="M341.848 404.252V416.182H344.551V404.252H341.848Z" fill="#DBB1D3"/>
<path d="M347.258 404.252V416.182H349.961V404.252H347.258Z" fill="#DBB1D3"/>
<path d="M352.672 404.252V416.182H355.375V404.252H352.672Z" fill="#DBB1D3"/>
<path d="M358.078 404.248V416.178H360.781V404.248H358.078Z" fill="#DBB1D3"/>
<path d="M363.492 404.246V416.176H366.196V404.246H363.492Z" fill="#DBB1D3"/>
<path d="M309.379 386.895V398.824H312.082V386.895H309.379Z" fill="#DBB1D3"/>
<path d="M314.793 386.895V398.824H317.496V386.895H314.793Z" fill="#DBB1D3"/>
<path d="M320.199 386.895V398.824H322.903V386.895H320.199Z" fill="#DBB1D3"/>
<path d="M325.613 386.895V398.824H328.317V386.895H325.613Z" fill="#DBB1D3"/>
<path d="M331.027 386.889V398.818H333.731V386.889H331.027Z" fill="#DBB1D3"/>
<path d="M336.434 386.889V398.818H339.137V386.889H336.434Z" fill="#DBB1D3"/>
<path d="M341.848 386.895V398.824H344.551V386.895H341.848Z" fill="#DBB1D3"/>
<path d="M347.258 386.895V398.824H349.961V386.895H347.258Z" fill="#DBB1D3"/>
<path d="M352.672 386.895V398.824H355.375V386.895H352.672Z" fill="#DBB1D3"/>
<path d="M358.078 386.895V398.824H360.781V386.895H358.078Z" fill="#DBB1D3"/>
<path d="M363.492 386.895V398.824H366.196V386.895H363.492Z" fill="#DBB1D3"/>
<path d="M309.379 369.535V381.465H312.082V369.535H309.379Z" fill="#DBB1D3"/>
<path d="M314.793 369.535V381.465H317.496V369.535H314.793Z" fill="#DBB1D3"/>
<path d="M320.199 369.535V381.465H322.903V369.535H320.199Z" fill="#DBB1D3"/>
<path d="M325.609 369.535V381.465H328.313V369.535H325.609Z" fill="#DBB1D3"/>
<path d="M331.023 369.535V381.465H333.727V369.535H331.023Z" fill="#DBB1D3"/>
<path d="M336.434 369.535V381.465H339.137V369.535H336.434Z" fill="#DBB1D3"/>
<path d="M341.848 369.535V381.465H344.551V369.535H341.848Z" fill="#DBB1D3"/>
<path d="M352.672 369.535V381.465H355.375V369.535H352.672Z" fill="#DBB1D3"/>
<path d="M358.078 369.535V381.465H360.781V369.535H358.078Z" fill="#DBB1D3"/>
<path d="M363.488 369.535V381.465H366.192V369.535H363.488Z" fill="#DBB1D3"/>
<path d="M309.379 352.184V364.113H312.082V352.184H309.379Z" fill="#DBB1D3"/>
<path d="M314.785 352.178V364.107H317.489V352.178H314.785Z" fill="#DBB1D3"/>
<path d="M320.195 352.178V364.107H322.899V352.178H320.195Z" fill="#DBB1D3"/>
<path d="M325.609 352.178V364.107H328.313V352.178H325.609Z" fill="#DBB1D3"/>
<path d="M331.023 352.178V364.107H333.727V352.178H331.023Z" fill="#DBB1D3"/>
<path d="M336.434 352.178V364.107H339.137V352.178H336.434Z" fill="#DBB1D3"/>
<path d="M341.848 352.184V364.113H344.551V352.184H341.848Z" fill="#DBB1D3"/>
<path d="M347.258 352.184V364.113H349.961V352.184H347.258Z" fill="#DBB1D3"/>
<path d="M352.664 352.178V364.107H355.367V352.178H352.664Z" fill="#DBB1D3"/>
<path d="M358.078 352.178V364.107H360.781V352.178H358.078Z" fill="#DBB1D3"/>
<path d="M363.488 352.178V364.107H366.192V352.178H363.488Z" fill="#DBB1D3"/>
<path d="M309.375 334.826V346.756H312.078V334.826H309.375Z" fill="#DBB1D3"/>
<path d="M314.785 334.824V346.754H317.489V334.824H314.785Z" fill="#DBB1D3"/>
<path d="M325.609 334.821V346.75H328.313V334.821H325.609Z" fill="#DBB1D3"/>
<path d="M331.023 334.82V346.75H333.727V334.82H331.023Z" fill="#DBB1D3"/>
<path d="M336.434 334.82V346.75H339.137V334.82H336.434Z" fill="#DBB1D3"/>
<path d="M341.848 334.824V346.754H344.551V334.824H341.848Z" fill="#DBB1D3"/>
<path d="M347.254 334.824V346.754H349.957V334.824H347.254Z" fill="#DBB1D3"/>
<path d="M352.664 334.824V346.754H355.367V334.824H352.664Z" fill="#DBB1D3"/>
<path d="M358.078 334.821V346.75H360.781V334.821H358.078Z" fill="#DBB1D3"/>
<path d="M363.488 334.82V346.75H366.192V334.82H363.488Z" fill="#DBB1D3"/>
<path d="M309.379 317.467V329.396H312.082V317.467H309.379Z" fill="#DBB1D3"/>
<path d="M314.793 317.467V329.396H317.496V317.467H314.793Z" fill="#DBB1D3"/>
<path d="M320.199 317.467V329.396H322.903V317.467H320.199Z" fill="#DBB1D3"/>
<path d="M325.613 317.467V329.396H328.317V317.467H325.613Z" fill="#DBB1D3"/>
<path d="M331.027 317.463V329.393H333.731V317.463H331.027Z" fill="#DBB1D3"/>
<path d="M336.434 317.463V329.393H339.137V317.463H336.434Z" fill="#DBB1D3"/>
<path d="M341.848 317.467V329.396H344.551V317.467H341.848Z" fill="#DBB1D3"/>
<path d="M347.258 317.467V329.396H349.961V317.467H347.258Z" fill="#DBB1D3"/>
<path d="M352.672 317.467V329.396H355.375V317.467H352.672Z" fill="#DBB1D3"/>
<path d="M358.078 317.467V329.396H360.781V317.467H358.078Z" fill="#DBB1D3"/>
<path d="M363.492 317.467V329.396H366.196V317.467H363.492Z" fill="#DBB1D3"/>
<path d="M309.379 300.11V312.039H312.082V300.11H309.379Z" fill="#DBB1D3"/>
<path d="M314.793 300.11V312.039H317.496V300.11H314.793Z" fill="#DBB1D3"/>
<path d="M320.199 300.11V312.039H322.903V300.11H320.199Z" fill="#DBB1D3"/>
<path d="M325.609 300.11V312.039H328.313V300.11H325.609Z" fill="#DBB1D3"/>
<path d="M331.023 300.11V312.039H333.727V300.11H331.023Z" fill="#DBB1D3"/>
<path d="M336.434 300.11V312.039H339.137V300.11H336.434Z" fill="#DBB1D3"/>
<path d="M341.848 300.11V312.039H344.551V300.11H341.848Z" fill="#DBB1D3"/>
<path d="M347.258 300.11V312.039H349.961V300.11H347.258Z" fill="#DBB1D3"/>
<path d="M358.078 300.11V312.039H360.781V300.11H358.078Z" fill="#DBB1D3"/>
<path d="M363.488 300.11V312.039H366.192V300.11H363.488Z" fill="#DBB1D3"/>
<path d="M0 216.4L0 548.529H67.3663L67.3663 216.4H0Z" fill="#17313A"/>
<path d="M4.20703 518.964L4.20703 534.445H6.91036L6.91036 518.964H4.20703Z" fill="#0D516E"/>
<path d="M9.62109 518.968L9.62109 534.449H12.3244V518.968H9.62109Z" fill="#0D516E"/>
<path d="M15.0234 518.968L15.0234 534.449H17.7268V518.968H15.0234Z" fill="#0D516E"/>
<path d="M20.4375 518.968V534.449H23.1408V518.968H20.4375Z" fill="#0D516E"/>
<path d="M25.8516 518.968V534.449H28.5549V518.968H25.8516Z" fill="#0D516E"/>
<path d="M31.2695 518.968V534.449H33.9729V518.968H31.2695Z" fill="#0D516E"/>
<path d="M36.6758 518.964V534.445H39.3791V518.964H36.6758Z" fill="#0D516E"/>
<path d="M42.0859 518.964V534.445H44.7893V518.964H42.0859Z" fill="#0D516E"/>
<path d="M47.5 518.968V534.449H50.2033V518.968H47.5Z" fill="#0D516E"/>
<path d="M52.9062 518.968V534.449H55.6096V518.968H52.9062Z" fill="#0D516E"/>
<path d="M58.3164 518.968V534.449H61.0197V518.968H58.3164Z" fill="#0D516E"/>
<path d="M4.20703 496.445L4.20703 511.926H6.91039L6.91039 496.445H4.20703Z" fill="#0D516E"/>
<path d="M9.62109 496.451L9.62109 511.932H12.3245V496.451H9.62109Z" fill="#0D516E"/>
<path d="M15.0313 496.451L15.0312 511.932H17.7346V496.451H15.0313Z" fill="#0D516E"/>
<path d="M20.4414 496.451V511.932H23.1448V496.451H20.4414Z" fill="#0D516E"/>
<path d="M25.8516 496.451V511.932H28.5549V496.451H25.8516Z" fill="#0D516E"/>
<path d="M31.2695 496.445V511.926H33.9729V496.445H31.2695Z" fill="#0D516E"/>
<path d="M36.6758 496.445V511.926H39.3791V496.445H36.6758Z" fill="#0D516E"/>
<path d="M42.0859 496.447V511.928H44.7893V496.447H42.0859Z" fill="#0D516E"/>
<path d="M47.5 496.451V511.932H50.2034V496.451H47.5Z" fill="#0D516E"/>
<path d="M52.9062 496.451V511.932H55.6096V496.451H52.9062Z" fill="#0D516E"/>
<path d="M58.3203 496.451V511.932H61.0237V496.451H58.3203Z" fill="#0D516E"/>
<path d="M4.20703 473.927L4.20703 489.408H6.91036L6.91036 473.927H4.20703Z" fill="#0D516E"/>
<path d="M9.62109 473.933L9.62109 489.414H12.3244V473.933H9.62109Z" fill="#0D516E"/>
<path d="M15.0313 473.933L15.0312 489.414H17.7346V473.933H15.0313Z" fill="#0D516E"/>
<path d="M20.4453 473.927V489.408H23.1486V473.927H20.4453Z" fill="#DBB1D3"/>
<path d="M25.8555 473.927V489.408H28.5588V473.927H25.8555Z" fill="#0D516E"/>
<path d="M31.2695 473.927V489.408H33.9729V473.927H31.2695Z" fill="#0D516E"/>
<path d="M36.6758 473.927V489.408H39.3791V473.927H36.6758Z" fill="#0D516E"/>
<path d="M42.0859 473.927V489.408H44.7893V473.927H42.0859Z" fill="#0D516E"/>
<path d="M47.5 473.933V489.414H50.2033V473.933H47.5Z" fill="#0D516E"/>
<path d="M52.9062 473.933V489.414H55.6096V473.933H52.9062Z" fill="#0D516E"/>
<path d="M58.3203 473.927V489.408H61.0236V473.927H58.3203Z" fill="#0D516E"/>
<path d="M4.20703 451.41L4.20703 466.891H6.91036L6.91036 451.41H4.20703Z" fill="#0D516E"/>
<path d="M9.61719 451.41L9.61719 466.891H12.3205V451.41H9.61719Z" fill="#0D516E"/>
<path d="M15.0234 451.41L15.0234 466.891H17.7268V451.41H15.0234Z" fill="#0D516E"/>
<path d="M20.4375 451.41V466.891H23.1408V451.41H20.4375Z" fill="#0D516E"/>
<path d="M25.8516 451.41V466.891H28.5549V451.41H25.8516Z" fill="#0D516E"/>
<path d="M31.2695 451.41V466.891H33.9729V451.41H31.2695Z" fill="#0D516E"/>
<path d="M36.6758 451.41V466.891H39.3791V451.41H36.6758Z" fill="#0D516E"/>
<path d="M42.0859 451.41V466.891H44.7893V451.41H42.0859Z" fill="#0D516E"/>
<path d="M47.4961 451.41V466.891H50.1994V451.41H47.4961Z" fill="#0D516E"/>
<path d="M52.9062 451.41V466.891H55.6096V451.41H52.9062Z" fill="#0D516E"/>
<path d="M58.3164 451.41V466.891H61.0197V451.41H58.3164Z" fill="#0D516E"/>
<path d="M4.20703 428.886L4.20703 444.367H6.91036L6.91036 428.886H4.20703Z" fill="#0D516E"/>
<path d="M9.62109 428.89L9.62109 444.371H12.3244V428.89H9.62109Z" fill="#0D516E"/>
<path d="M15.0313 428.89L15.0312 444.371H17.7346V428.89H15.0313Z" fill="#0D516E"/>
<path d="M20.4375 428.89V444.371H23.1408V428.89H20.4375Z" fill="#0D516E"/>
<path d="M25.8516 428.89V444.371H28.5549V428.89H25.8516Z" fill="#0D516E"/>
<path d="M31.2695 428.89V444.371H33.9729V428.89H31.2695Z" fill="#0D516E"/>
<path d="M36.6758 428.886V444.367H39.3791V428.886H36.6758Z" fill="#0D516E"/>
<path d="M42.0859 428.886V444.367H44.7893V428.886H42.0859Z" fill="#0D516E"/>
<path d="M47.5 428.89V444.371H50.2033V428.89H47.5Z" fill="#0D516E"/>
<path d="M52.9062 428.89V444.371H55.6096V428.89H52.9062Z" fill="#0D516E"/>
<path d="M58.3164 428.89V444.371H61.0197V428.89H58.3164Z" fill="#0D516E"/>
<path d="M4.20703 406.367L4.20703 421.848H6.91039L6.91039 406.367H4.20703Z" fill="#0D516E"/>
<path d="M9.62109 406.372L9.62109 421.854H12.3245V406.372H9.62109Z" fill="#0D516E"/>
<path d="M15.0313 406.372L15.0312 421.854H17.7346V406.372H15.0313Z" fill="#DBB1D3"/>
<path d="M20.4414 406.372V421.854H23.1448V406.372H20.4414Z" fill="#0D516E"/>
<path d="M25.8516 406.367V421.848H28.5549V406.367H25.8516Z" fill="#0D516E"/>
<path d="M31.2695 406.367V421.848H33.9729V406.367H31.2695Z" fill="#0D516E"/>
<path d="M36.6758 406.367V421.848H39.3791V406.367H36.6758Z" fill="#0D516E"/>
<path d="M42.0859 406.367V421.848H44.7893V406.367H42.0859Z" fill="#0D516E"/>
<path d="M47.5 406.372V421.854H50.2034V406.372H47.5Z" fill="#0D516E"/>
<path d="M52.9062 406.372V421.854H55.6096V406.372H52.9062Z" fill="#0D516E"/>
<path d="M58.3203 406.372V421.854H61.0237V406.372H58.3203Z" fill="#0D516E"/>
<path d="M4.20703 383.849L4.20703 399.33H6.91039L6.91039 383.849H4.20703Z" fill="#0D516E"/>
<path d="M9.62109 383.855L9.62109 399.336H12.3245V383.855H9.62109Z" fill="#0D516E"/>
<path d="M15.0313 383.849L15.0312 399.33H17.7346V383.849H15.0313Z" fill="#0D516E"/>
<path d="M20.4414 383.849V399.33H23.1448V383.849H20.4414Z" fill="#0D516E"/>
<path d="M25.8555 383.849V399.33H28.5588V383.849H25.8555Z" fill="#0D516E"/>
<path d="M31.2695 383.849V399.33H33.9729V383.849H31.2695Z" fill="#0D516E"/>
<path d="M36.6758 383.849V399.33H39.3791V383.849H36.6758Z" fill="#0D516E"/>
<path d="M42.0859 383.849V399.33H44.7893V383.849H42.0859Z" fill="#0D516E"/>
<path d="M47.5 383.855V399.336H50.2034V383.855H47.5Z" fill="#0D516E"/>
<path d="M52.9062 383.849V399.33H55.6096V383.849H52.9062Z" fill="#0D516E"/>
<path d="M58.3203 383.849V399.33H61.0237V383.849H58.3203Z" fill="#0D516E"/>
<path d="M4.20703 361.331L4.20703 376.812H6.91036L6.91036 361.331H4.20703Z" fill="#0D516E"/>
<path d="M9.61719 361.331L9.61719 376.812H12.3205V361.331H9.61719Z" fill="#0D516E"/>
<path d="M15.0234 361.331L15.0234 376.812H17.7268V361.331H15.0234Z" fill="#0D516E"/>
<path d="M20.4375 361.331V376.812H23.1408V361.331H20.4375Z" fill="#0D516E"/>
<path d="M25.8516 361.331V376.812H28.5549V361.331H25.8516Z" fill="#0D516E"/>
<path d="M31.2695 361.331V376.812H33.9729V361.331H31.2695Z" fill="#DBB1D3"/>
<path d="M36.6758 361.331V376.812H39.3791V361.331H36.6758Z" fill="#0D516E"/>
<path d="M42.0859 361.331V376.812H44.7893V361.331H42.0859Z" fill="#0D516E"/>
<path d="M47.4961 361.331V376.812H50.1994V361.331H47.4961Z" fill="#0D516E"/>
<path d="M52.9062 361.331V376.812H55.6096V361.331H52.9062Z" fill="#0D516E"/>
<path d="M58.3164 361.331V376.812H61.0197V361.331H58.3164Z" fill="#0D516E"/>
<path d="M4.20703 338.806L4.20703 354.287H6.91036L6.91036 338.806H4.20703Z" fill="#0D516E"/>
<path d="M9.62109 338.812L9.62109 354.293H12.3244V338.812H9.62109Z" fill="#0D516E"/>
<path d="M15.0313 338.812L15.0312 354.293H17.7346V338.812H15.0313Z" fill="#0D516E"/>
<path d="M20.4375 338.812V354.293H23.1408V338.812H20.4375Z" fill="#0D516E"/>
<path d="M25.8516 338.812V354.293H28.5549V338.812H25.8516Z" fill="#0D516E"/>
<path d="M31.2695 338.812V354.293H33.9729V338.812H31.2695Z" fill="#0D516E"/>
<path d="M36.6758 338.806V354.287H39.3791V338.806H36.6758Z" fill="#0D516E"/>
<path d="M42.0859 338.806V354.287H44.7893V338.806H42.0859Z" fill="#0D516E"/>
<path d="M47.5 338.812V354.293H50.2033V338.812H47.5Z" fill="#0D516E"/>
<path d="M52.9062 338.812V354.293H55.6096V338.812H52.9062Z" fill="#0D516E"/>
<path d="M58.3164 338.812V354.293H61.0197V338.812H58.3164Z" fill="#0D516E"/>
<path d="M4.20703 316.288L4.20703 331.77H6.91036L6.91036 316.288H4.20703Z" fill="#0D516E"/>
<path d="M9.62109 316.294L9.62109 331.775H12.3244V316.294H9.62109Z" fill="#0D516E"/>
<path d="M15.0313 316.294L15.0312 331.775H17.7346V316.294H15.0313Z" fill="#0D516E"/>
<path d="M20.4414 316.294V331.775H23.1447V316.294H20.4414Z" fill="#0D516E"/>
<path d="M25.8555 316.288V331.77H28.5588V316.288H25.8555Z" fill="#0D516E"/>
<path d="M31.2695 316.288V331.77H33.9729V316.288H31.2695Z" fill="#0D516E"/>
<path d="M36.6758 316.288V331.77H39.3791V316.288H36.6758Z" fill="#0D516E"/>
<path d="M42.0859 316.288V331.77H44.7893V316.288H42.0859Z" fill="#DBB1D3"/>
<path d="M47.5 316.294V331.775H50.2033V316.294H47.5Z" fill="#0D516E"/>
<path d="M52.9062 316.294V331.775H55.6096V316.294H52.9062Z" fill="#0D516E"/>
<path d="M58.3203 316.294V331.775H61.0236V316.294H58.3203Z" fill="#0D516E"/>
<path d="M4.20313 293.771L4.20312 309.252H6.90648L6.90648 293.771H4.20313Z" fill="#0D516E"/>
<path d="M9.61719 293.777L9.61719 309.258H12.3205V293.777H9.61719Z" fill="#0D516E"/>
<path d="M15.0234 293.771L15.0234 309.252H17.7268V293.771H15.0234Z" fill="#DBB1D3"/>
<path d="M20.4375 293.771V309.252H23.1409V293.771H20.4375Z" fill="#0D516E"/>
<path d="M25.8516 293.771V309.252H28.5549V293.771H25.8516Z" fill="#0D516E"/>
<path d="M31.2695 293.771V309.252H33.9729V293.771H31.2695Z" fill="#0D516E"/>
<path d="M36.6641 293.771V309.252H39.3674V293.771H36.6641Z" fill="#0D516E"/>
<path d="M42.082 293.771V309.252H44.7854V293.771H42.082Z" fill="#0D516E"/>
<path d="M47.4961 293.777V309.258H50.1995V293.777H47.4961Z" fill="#0D516E"/>
<path d="M52.9062 293.771V309.252H55.6096V293.771H52.9062Z" fill="#0D516E"/>
<path d="M58.3164 293.771V309.252H61.0198V293.771H58.3164Z" fill="#DBB1D3"/>
<path d="M4.20703 271.247L4.20703 286.729H6.91036L6.91036 271.247H4.20703Z" fill="#0D516E"/>
<path d="M9.61719 271.253L9.61719 286.734H12.3205V271.253H9.61719Z" fill="#0D516E"/>
<path d="M15.0234 271.253L15.0234 286.734H17.7268V271.253H15.0234Z" fill="#0D516E"/>
<path d="M20.4375 271.253V286.734H23.1408V271.253H20.4375Z" fill="#0D516E"/>
<path d="M25.8516 271.253V286.734H28.5549V271.253H25.8516Z" fill="#0D516E"/>
<path d="M31.2695 271.253V286.734H33.9729V271.253H31.2695Z" fill="#0D516E"/>
<path d="M36.6758 271.253V286.734H39.3791V271.253H36.6758Z" fill="#0D516E"/>
<path d="M42.0859 271.247V286.729H44.7893V271.247H42.0859Z" fill="#0D516E"/>
<path d="M47.4961 271.253V286.734H50.1994V271.253H47.4961Z" fill="#0D516E"/>
<path d="M52.9062 271.253V286.734H55.6096V271.253H52.9062Z" fill="#0D516E"/>
<path d="M58.3164 271.253V286.734H61.0197V271.253H58.3164Z" fill="#0D516E"/>
<path d="M4.20703 248.73L4.20703 264.211H6.91038L6.91038 248.73H4.20703Z" fill="#0D516E"/>
<path d="M9.62109 248.734L9.62109 264.215H12.3244V248.734H9.62109Z" fill="#0D516E"/>
<path d="M15.0313 248.734L15.0312 264.215H17.7346V248.734H15.0313Z" fill="#0D516E"/>
<path d="M20.4375 248.734V264.215H23.1408V248.734H20.4375Z" fill="#0D516E"/>
<path d="M25.8516 248.734V264.215H28.5549V248.734H25.8516Z" fill="#0D516E"/>
<path d="M31.2695 248.734V264.215H33.9729V248.734H31.2695Z" fill="#DBB1D3"/>
<path d="M36.6758 248.73V264.211H39.3791V248.73H36.6758Z" fill="#0D516E"/>
<path d="M42.0859 248.73V264.211H44.7893V248.73H42.0859Z" fill="#0D516E"/>
<path d="M47.5 248.734V264.215H50.2033V248.734H47.5Z" fill="#0D516E"/>
<path d="M52.9062 248.734V264.215H55.6096V248.734H52.9062Z" fill="#0D516E"/>
<path d="M58.3164 248.734V264.215H61.0198V248.734H58.3164Z" fill="#0D516E"/>
<path d="M4.20703 226.21L4.20703 241.691H6.91036L6.91036 226.21H4.20703Z" fill="#0D516E"/>
<path d="M9.62109 226.216L9.62109 241.697H12.3244V226.216H9.62109Z" fill="#0D516E"/>
<path d="M15.0313 226.216L15.0312 241.697H17.7346V226.216H15.0313Z" fill="#0D516E"/>
<path d="M20.4414 226.216V241.697H23.1447V226.216H20.4414Z" fill="#0D516E"/>
<path d="M25.8555 226.21V241.691H28.5588V226.21H25.8555Z" fill="#0D516E"/>
<path d="M31.2695 226.21V241.691H33.9729V226.21H31.2695Z" fill="#0D516E"/>
<path d="M36.6758 226.21V241.691H39.3791V226.21H36.6758Z" fill="#0D516E"/>
<path d="M42.0859 226.21V241.691H44.7893V226.21H42.0859Z" fill="#0D516E"/>
<path d="M47.5 226.216V241.697H50.2033V226.216H47.5Z" fill="#0D516E"/>
<path d="M52.9062 226.216V241.697H55.6096V226.216H52.9062Z" fill="#0D516E"/>
<path d="M58.3203 226.216V241.697H61.0236V226.216H58.3203Z" fill="#0D516E"/>
<path d="M817.084 330.545H726.055V548.853H817.084V330.545Z" fill="#0D516E"/>
<path d="M757.238 428.567V421.074H744.631V428.567H757.238Z" fill="#DBB1D3"/>
<path d="M770.977 475.379V467.887H758.369V475.379H770.977Z" fill="#DBB1D3"/>
<path d="M799.062 419.202V411.709H786.455V419.202H799.062Z" fill="#DBB1D3"/>
<path d="M812.797 494.108V486.615H800.19V494.108H812.797Z" fill="#DBB1D3"/>
<path d="M785.266 522.303V514.811H772.658V522.303H785.266Z" fill="#DBB1D3"/>
<path d="M743.438 344.297V336.805H730.83V344.297H743.438Z" fill="#60687F"/>
<path d="M757.234 344.297V336.805H744.627V344.297H757.234Z" fill="#60687F"/>
<path d="M770.977 344.297V336.805H758.369V344.297H770.977Z" fill="#60687F"/>
<path d="M743.445 353.661V346.168H730.838V353.661H743.445Z" fill="#60687F"/>
<path d="M757.238 353.661V346.168H744.631V353.661H757.238Z" fill="#60687F"/>
<path d="M770.98 353.657V346.164H758.373V353.657H770.98Z" fill="#60687F"/>
<path d="M743.445 363.026V355.533H730.838V363.026H743.445Z" fill="#60687F"/>
<path d="M757.238 363.026V355.533H744.631V363.026H757.238Z" fill="#60687F"/>
<path d="M770.98 363.02V355.527H758.373V363.02H770.98Z" fill="#60687F"/>
<path d="M743.445 372.387V364.895H730.838V372.387H743.445Z" fill="#60687F"/>
<path d="M757.238 372.391V364.898H744.631V372.391H757.238Z" fill="#60687F"/>
<path d="M770.977 372.387V364.895H758.369V372.387H770.977Z" fill="#60687F"/>
<path d="M743.438 381.75V374.258H730.83V381.75H743.438Z" fill="#60687F"/>
<path d="M757.234 381.75V374.258H744.627V381.75H757.234Z" fill="#60687F"/>
<path d="M770.977 381.75V374.258H758.369V381.75H770.977Z" fill="#60687F"/>
<path d="M743.445 391.116V383.623H730.838V391.116H743.445Z" fill="#60687F"/>
<path d="M757.238 391.114V383.621H744.631V391.114H757.238Z" fill="#60687F"/>
<path d="M770.98 391.11V383.617H758.373V391.11H770.98Z" fill="#60687F"/>
<path d="M743.445 400.479V392.986H730.838V400.479H743.445Z" fill="#60687F"/>
<path d="M757.238 400.479V392.986H744.631V400.479H757.238Z" fill="#60687F"/>
<path d="M770.98 400.475V392.982H758.373V400.475H770.98Z" fill="#60687F"/>
<path d="M743.445 409.838V402.346H730.838V409.838H743.445Z" fill="#60687F"/>
<path d="M757.238 409.838V402.346H744.631V409.838H757.238Z" fill="#60687F"/>
<path d="M770.977 409.838V402.346H758.369V409.838H770.977Z" fill="#60687F"/>
<path d="M743.438 419.204V411.711H730.83V419.204H743.438Z" fill="#60687F"/>
<path d="M757.234 419.204V411.711H744.627V419.204H757.234Z" fill="#60687F"/>
<path d="M770.977 419.204V411.711H758.369V419.204H770.977Z" fill="#60687F"/>
<path d="M743.445 428.569V421.076H730.838V428.569H743.445Z" fill="#60687F"/>
<path d="M770.98 428.563V421.07H758.373V428.563H770.98Z" fill="#60687F"/>
<path d="M743.445 437.932V430.439H730.838V437.932H743.445Z" fill="#60687F"/>
<path d="M757.238 437.932V430.439H744.631V437.932H757.238Z" fill="#60687F"/>
<path d="M770.98 437.926V430.434H758.373V437.926H770.98Z" fill="#60687F"/>
<path d="M743.445 447.291V439.799H730.838V447.291H743.445Z" fill="#60687F"/>
<path d="M757.238 447.291V439.799H744.631V447.291H757.238Z" fill="#60687F"/>
<path d="M770.977 447.291V439.799H758.369V447.291H770.977Z" fill="#60687F"/>
<path d="M743.438 456.657V449.164H730.83V456.657H743.438Z" fill="#60687F"/>
<path d="M757.234 456.657V449.164H744.627V456.657H757.234Z" fill="#60687F"/>
<path d="M770.977 456.657V449.164H758.369V456.657H770.977Z" fill="#60687F"/>
<path d="M743.445 466.02V458.527H730.838V466.02H743.445Z" fill="#60687F"/>
<path d="M757.238 466.02V458.527H744.631V466.02H757.238Z" fill="#60687F"/>
<path d="M770.98 466.016V458.523H758.373V466.016H770.98Z" fill="#60687F"/>
<path d="M743.445 475.385V467.893H730.838V475.385H743.445Z" fill="#60687F"/>
<path d="M757.238 475.385V467.893H744.631V475.385H757.238Z" fill="#60687F"/>
<path d="M743.445 484.745V477.252H730.838V484.745H743.445Z" fill="#60687F"/>
<path d="M757.238 484.745V477.252H744.631V484.745H757.238Z" fill="#60687F"/>
<path d="M770.977 484.745V477.252H758.369V484.745H770.977Z" fill="#60687F"/>
<path d="M743.438 494.11V486.617H730.83V494.11H743.438Z" fill="#60687F"/>
<path d="M757.234 494.11V486.617H744.627V494.11H757.234Z" fill="#60687F"/>
<path d="M770.977 494.11V486.617H758.369V494.11H770.977Z" fill="#60687F"/>
<path d="M743.445 503.473V495.98H730.838V503.473H743.445Z" fill="#60687F"/>
<path d="M757.238 503.473V495.98H744.631V503.473H757.238Z" fill="#60687F"/>
<path d="M770.98 503.469V495.977H758.373V503.469H770.98Z" fill="#60687F"/>
<path d="M785.266 344.297V336.805H772.658V344.297H785.266Z" fill="#60687F"/>
<path d="M799.066 344.297V336.805H786.459V344.297H799.066Z" fill="#60687F"/>
<path d="M812.805 344.297V336.805H800.198V344.297H812.805Z" fill="#60687F"/>
<path d="M785.277 353.661V346.168H772.67V353.661H785.277Z" fill="#60687F"/>
<path d="M799.066 353.661V346.168H786.459V353.661H799.066Z" fill="#60687F"/>
<path d="M812.805 353.661V346.168H800.198V353.661H812.805Z" fill="#60687F"/>
<path d="M785.266 363.02V355.527H772.658V363.02H785.266Z" fill="#60687F"/>
<path d="M799.066 363.02V355.527H786.459V363.02H799.066Z" fill="#60687F"/>
<path d="M812.805 363.026V355.533H800.198V363.026H812.805Z" fill="#60687F"/>
<path d="M785.266 372.385V364.893H772.658V372.385H785.266Z" fill="#60687F"/>
<path d="M799.066 372.387V364.895H786.459V372.387H799.066Z" fill="#60687F"/>
<path d="M812.805 372.385V364.893H800.198V372.385H812.805Z" fill="#60687F"/>
<path d="M785.266 381.75V374.258H772.658V381.75H785.266Z" fill="#60687F"/>
<path d="M799.066 381.75V374.258H786.459V381.75H799.066Z" fill="#60687F"/>
<path d="M812.805 381.75V374.258H800.198V381.75H812.805Z" fill="#60687F"/>
<path d="M785.277 391.114V383.621H772.67V391.114H785.277Z" fill="#60687F"/>
<path d="M799.066 391.116V383.623H786.459V391.116H799.066Z" fill="#60687F"/>
<path d="M812.805 391.114V383.621H800.198V391.114H812.805Z" fill="#60687F"/>
<path d="M785.266 400.475V392.982H772.658V400.475H785.266Z" fill="#60687F"/>
<path d="M799.066 400.475V392.982H786.459V400.475H799.066Z" fill="#60687F"/>
<path d="M812.805 400.479V392.986H800.198V400.479H812.805Z" fill="#60687F"/>
<path d="M785.266 409.838V402.346H772.658V409.838H785.266Z" fill="#60687F"/>
<path d="M799.066 409.838V402.346H786.459V409.838H799.066Z" fill="#60687F"/>
<path d="M812.805 409.838V402.346H800.198V409.838H812.805Z" fill="#60687F"/>
<path d="M785.266 419.204V411.711H772.658V419.204H785.266Z" fill="#60687F"/>
<path d="M812.805 419.204V411.711H800.198V419.204H812.805Z" fill="#60687F"/>
<path d="M785.277 428.569V421.076H772.67V428.569H785.277Z" fill="#60687F"/>
<path d="M799.066 428.569V421.076H786.459V428.569H799.066Z" fill="#60687F"/>
<path d="M812.805 428.569V421.076H800.198V428.569H812.805Z" fill="#60687F"/>
<path d="M785.266 437.926V430.434H772.658V437.926H785.266Z" fill="#60687F"/>
<path d="M799.066 437.926V430.434H786.459V437.926H799.066Z" fill="#60687F"/>
<path d="M812.805 437.932V430.439H800.198V437.932H812.805Z" fill="#60687F"/>
<path d="M785.266 447.291V439.799H772.658V447.291H785.266Z" fill="#60687F"/>
<path d="M799.066 447.291V439.799H786.459V447.291H799.066Z" fill="#60687F"/>
<path d="M812.805 447.291V439.799H800.198V447.291H812.805Z" fill="#60687F"/>
<path d="M785.266 456.657V449.164H772.658V456.657H785.266Z" fill="#60687F"/>
<path d="M799.066 456.657V449.164H786.459V456.657H799.066Z" fill="#60687F"/>
<path d="M812.805 456.657V449.164H800.198V456.657H812.805Z" fill="#60687F"/>
<path d="M785.277 466.016V458.523H772.67V466.016H785.277Z" fill="#60687F"/>
<path d="M799.066 466.02V458.527H786.459V466.02H799.066Z" fill="#60687F"/>
<path d="M812.805 466.02V458.527H800.198V466.02H812.805Z" fill="#60687F"/>
<path d="M785.266 475.381V467.889H772.658V475.381H785.266Z" fill="#60687F"/>
<path d="M799.066 475.381V467.889H786.459V475.381H799.066Z" fill="#60687F"/>
<path d="M812.805 475.385V467.893H800.198V475.385H812.805Z" fill="#60687F"/>
<path d="M785.266 484.745V477.252H772.658V484.745H785.266Z" fill="#60687F"/>
<path d="M799.066 484.745V477.252H786.459V484.745H799.066Z" fill="#60687F"/>
<path d="M812.805 484.745V477.252H800.198V484.745H812.805Z" fill="#60687F"/>
<path d="M785.266 494.11V486.617H772.658V494.11H785.266Z" fill="#60687F"/>
<path d="M799.066 494.11V486.617H786.459V494.11H799.066Z" fill="#60687F"/>
<path d="M785.277 503.469V495.977H772.67V503.469H785.277Z" fill="#60687F"/>
<path d="M799.066 503.473V495.98H786.459V503.473H799.066Z" fill="#60687F"/>
<path d="M812.805 503.473V495.98H800.198V503.473H812.805Z" fill="#60687F"/>
<path d="M743.445 512.946V505.453H730.838V512.946H743.445Z" fill="#60687F"/>
<path d="M757.238 512.946V505.453H744.631V512.946H757.238Z" fill="#60687F"/>
<path d="M770.977 512.94V505.447H758.369V512.94H770.977Z" fill="#60687F"/>
<path d="M743.438 522.305V514.812H730.83V522.305H743.438Z" fill="#60687F"/>
<path d="M757.234 522.305V514.812H744.627V522.305H757.234Z" fill="#60687F"/>
<path d="M770.977 522.305V514.812H758.369V522.305H770.977Z" fill="#60687F"/>
<path d="M743.445 531.668V524.176H730.838V531.668H743.445Z" fill="#60687F"/>
<path d="M757.238 531.668V524.176H744.631V531.668H757.238Z" fill="#60687F"/>
<path d="M770.98 531.664V524.172H758.373V531.664H770.98Z" fill="#60687F"/>
<path d="M743.445 541.034V533.541H730.838V541.034H743.445Z" fill="#60687F"/>
<path d="M757.238 541.034V533.541H744.631V541.034H757.238Z" fill="#60687F"/>
<path d="M770.98 541.028V533.535H758.373V541.028H770.98Z" fill="#60687F"/>
<path d="M785.266 512.94V505.447H772.658V512.94H785.266Z" fill="#60687F"/>
<path d="M799.066 512.94V505.447H786.459V512.94H799.066Z" fill="#60687F"/>
<path d="M812.805 512.94V505.447H800.198V512.94H812.805Z" fill="#60687F"/>
<path d="M799.066 522.305V514.812H786.459V522.305H799.066Z" fill="#60687F"/>
<path d="M812.805 522.305V514.812H800.198V522.305H812.805Z" fill="#60687F"/>
<path d="M785.277 531.668V524.176H772.67V531.668H785.277Z" fill="#60687F"/>
<path d="M799.066 531.668V524.176H786.459V531.668H799.066Z" fill="#60687F"/>
<path d="M812.805 531.668V524.176H800.198V531.668H812.805Z" fill="#60687F"/>
<path d="M785.266 541.028V533.535H772.658V541.028H785.266Z" fill="#60687F"/>
<path d="M799.066 541.028V533.535H786.459V541.028H799.066Z" fill="#60687F"/>
<path d="M812.805 541.034V533.541H800.198V541.034H812.805Z" fill="#60687F"/>
<path d="M739.75 446.912H676.391V549.208H739.75V446.912Z" fill="#163339"/>
<path d="M685.903 450.828H679.051V461.685H685.903V450.828Z" fill="#E0F2FA"/>
<path d="M696.18 450.828H689.328V461.685H696.18V450.828Z" fill="#E0F2FA"/>
<path d="M706.453 450.828H699.602V461.685H706.453V450.828Z" fill="#E0F2FA"/>
<path d="M716.727 450.828H709.875V461.685H716.727V450.828Z" fill="#E0F2FA"/>
<path d="M727.004 450.828H720.152V461.685H727.004V450.828Z" fill="#E0F2FA"/>
<path d="M737.274 450.828H730.422V461.685H737.274V450.828Z" fill="#E0F2FA"/>
<path d="M685.903 465.971H679.051V476.828H685.903V465.971Z" fill="#E0F2FA"/>
<path d="M696.18 465.971H689.328V476.828H696.18V465.971Z" fill="#E0F2FA"/>
<path d="M706.453 465.971H699.602V476.828H706.453V465.971Z" fill="#E0F2FA"/>
<path d="M716.727 465.971H709.875V476.828H716.727V465.971Z" fill="#E0F2FA"/>
<path d="M727.004 465.971H720.152V476.828H727.004V465.971Z" fill="#E0F2FA"/>
<path d="M737.274 465.971H730.422V476.828H737.274V465.971Z" fill="#E0F2FA"/>
<path d="M685.903 481.117H679.051V491.974H685.903V481.117Z" fill="#E0F2FA"/>
<path d="M696.18 481.117H689.328V491.974H696.18V481.117Z" fill="#E0F2FA"/>
<path d="M706.453 481.117H699.602V491.974H706.453V481.117Z" fill="#E0F2FA"/>
<path d="M716.727 481.117H709.875V491.974H716.727V481.117Z" fill="#E0F2FA"/>
<path d="M727.004 481.117H720.152V491.974H727.004V481.117Z" fill="#E0F2FA"/>
<path d="M737.274 481.117H730.422V491.974H737.274V481.117Z" fill="#E0F2FA"/>
<path d="M685.903 496.26H679.051V507.117H685.903V496.26Z" fill="#E0F2FA"/>
<path d="M696.18 496.26H689.328V507.117H696.18V496.26Z" fill="#E0F2FA"/>
<path d="M706.453 496.26H699.602V507.117H706.453V496.26Z" fill="#E0F2FA"/>
<path d="M716.727 496.26H709.875V507.117H716.727V496.26Z" fill="#E0F2FA"/>
<path d="M727.004 496.26H720.152V507.117H727.004V496.26Z" fill="#E0F2FA"/>
<path d="M737.274 496.26H730.422V507.117H737.274V496.26Z" fill="#E0F2FA"/>
<path d="M685.903 511.406H679.051V522.263H685.903V511.406Z" fill="#E0F2FA"/>
<path d="M696.18 511.406H689.328V522.263H696.18V511.406Z" fill="#E0F2FA"/>
<path d="M706.453 511.406H699.602V522.263H706.453V511.406Z" fill="#E0F2FA"/>
<path d="M716.727 511.406H709.875V522.263H716.727V511.406Z" fill="#E0F2FA"/>
<path d="M727.004 511.406H720.152V522.263H727.004V511.406Z" fill="#E0F2FA"/>
<path d="M737.274 511.406H730.422V522.263H737.274V511.406Z" fill="#E0F2FA"/>
<path d="M685.903 526.555H679.051V537.412H685.903V526.555Z" fill="#E0F2FA"/>
<path d="M696.18 526.555H689.328V537.412H696.18V526.555Z" fill="#E0F2FA"/>
<path d="M706.453 526.555H699.602V537.412H706.453V526.555Z" fill="#E0F2FA"/>
<path d="M716.727 526.555H709.875V537.412H716.727V526.555Z" fill="#E0F2FA"/>
<path d="M727.004 526.555H720.152V537.412H727.004V526.555Z" fill="#E0F2FA"/>
<path d="M737.274 526.555H730.422V537.412H737.274V526.555Z" fill="#E0F2FA"/>
<path d="M191.674 265.465H100.645V548.854H191.674V265.465Z" fill="#1A3E44"/>
<path d="M118.031 283.314V273.59H105.424V283.314H118.031Z" fill="#DBB1D3"/>
<path d="M131.832 283.314V273.59H119.225V283.314H131.832Z" fill="#DBB1D3"/>
<path d="M145.566 283.314V273.59H132.959V283.314H145.566Z" fill="#DBB1D3"/>
<path d="M118.023 295.466V285.742H105.416V295.466H118.023Z" fill="#DBB1D3"/>
<path d="M131.824 295.466V285.742H119.217V295.466H131.824Z" fill="#DBB1D3"/>
<path d="M145.566 295.47V285.746H132.959V295.47H145.566Z" fill="#DBB1D3"/>
<path d="M118.031 307.622V297.898H105.424V307.622H118.031Z" fill="#DBB1D3"/>
<path d="M131.832 307.622V297.898H119.225V307.622H131.832Z" fill="#DBB1D3"/>
<path d="M145.566 307.622V297.898H132.959V307.622H145.566Z" fill="#DBB1D3"/>
<path d="M118.023 319.774V310.051H105.416V319.774H118.023Z" fill="#DBB1D3"/>
<path d="M131.824 319.774V310.051H119.217V319.774H131.824Z" fill="#DBB1D3"/>
<path d="M145.566 319.78V310.057H132.959V319.78H145.566Z" fill="#DBB1D3"/>
<path d="M118.031 331.933V322.209H105.424V331.933H118.031Z" fill="#DBB1D3"/>
<path d="M131.832 331.933V322.209H119.225V331.933H131.832Z" fill="#DBB1D3"/>
<path d="M145.566 331.933V322.209H132.959V331.933H145.566Z" fill="#DBB1D3"/>
<path d="M118.023 344.083V334.359H105.416V344.083H118.023Z" fill="#DBB1D3"/>
<path d="M131.824 344.083V334.359H119.217V344.083H131.824Z" fill="#DBB1D3"/>
<path d="M145.566 344.089V334.365H132.959V344.089H145.566Z" fill="#DBB1D3"/>
<path d="M118.031 356.241V346.518H105.424V356.241H118.031Z" fill="#DBB1D3"/>
<path d="M131.832 356.241V346.518H119.225V356.241H131.832Z" fill="#DBB1D3"/>
<path d="M145.566 356.241V346.518H132.959V356.241H145.566Z" fill="#DBB1D3"/>
<path d="M118.031 368.394V358.67H105.424V368.394H118.031Z" fill="#FFEB89"/>
<path d="M131.832 368.394V358.67H119.225V368.394H131.832Z" fill="#DBB1D3"/>
<path d="M145.57 368.398V358.674H132.963V368.398H145.57Z" fill="#DBB1D3"/>
<path d="M118.031 380.55V370.826H105.424V380.55H118.031Z" fill="#DBB1D3"/>
<path d="M131.832 380.55V370.826H119.225V380.55H131.832Z" fill="#DBB1D3"/>
<path d="M145.566 380.55V370.826H132.959V380.55H145.566Z" fill="#DBB1D3"/>
<path d="M118.031 392.702V382.979H105.424V392.702H118.031Z" fill="#DBB1D3"/>
<path d="M131.832 392.702V382.979H119.225V392.702H131.832Z" fill="#DBB1D3"/>
<path d="M145.57 392.708V382.984H132.963V392.708H145.57Z" fill="#DBB1D3"/>
<path d="M118.031 404.86V395.137H105.424V404.86H118.031Z" fill="#DBB1D3"/>
<path d="M131.832 404.86V395.137H119.225V404.86H131.832Z" fill="#DBB1D3"/>
<path d="M145.566 404.86V395.137H132.959V404.86H145.566Z" fill="#DBB1D3"/>
<path d="M118.031 417.013V407.289H105.424V417.013H118.031Z" fill="#DBB1D3"/>
<path d="M131.832 417.013V407.289H119.225V417.013H131.832Z" fill="#DBB1D3"/>
<path d="M145.57 417.017V407.293H132.963V417.017H145.57Z" fill="#DBB1D3"/>
<path d="M118.031 429.169V419.445H105.424V429.169H118.031Z" fill="#DBB1D3"/>
<path d="M131.832 429.169V419.445H119.225V429.169H131.832Z" fill="#DBB1D3"/>
<path d="M145.566 429.169V419.445H132.959V429.169H145.566Z" fill="#DBB1D3"/>
<path d="M118.031 441.321V431.598H105.424V441.321H118.031Z" fill="#DBB1D3"/>
<path d="M131.832 441.321V431.598H119.225V441.321H131.832Z" fill="#DBB1D3"/>
<path d="M145.57 441.321V431.598H132.963V441.321H145.57Z" fill="#DBB1D3"/>
<path d="M118.031 453.478V443.754H105.424V453.478H118.031Z" fill="#DBB1D3"/>
<path d="M131.832 453.478V443.754H119.225V453.478H131.832Z" fill="#DBB1D3"/>
<path d="M145.566 453.478V443.754H132.959V453.478H145.566Z" fill="#DBB1D3"/>
<path d="M118.031 465.63V455.906H105.424V465.63H118.031Z" fill="#DBB1D3"/>
<path d="M131.832 465.63V455.906H119.225V465.63H131.832Z" fill="#DBB1D3"/>
<path d="M145.57 465.63V455.906H132.963V465.63H145.57Z" fill="#DBB1D3"/>
<path d="M118.031 477.786V468.062H105.424V477.786H118.031Z" fill="#DBB1D3"/>
<path d="M131.824 477.786V468.062H119.217V477.786H131.824Z" fill="#DBB1D3"/>
<path d="M145.566 477.786V468.062H132.959V477.786H145.566Z" fill="#DBB1D3"/>
<path d="M118.031 489.941V480.217H105.424V489.941H118.031Z" fill="#DBB1D3"/>
<path d="M131.832 489.941V480.217H119.225V489.941H131.832Z" fill="#DBB1D3"/>
<path d="M145.57 489.941V480.217H132.963V489.941H145.57Z" fill="#DBB1D3"/>
<path d="M159.855 283.308V273.584H147.248V283.308H159.855Z" fill="#DBB1D3"/>
<path d="M173.648 283.314V273.59H161.041V283.314H173.648Z" fill="#DBB1D3"/>
<path d="M187.395 283.314V273.59H174.787V283.314H187.395Z" fill="#DBB1D3"/>
<path d="M159.855 295.466V285.742H147.248V295.466H159.855Z" fill="#DBB1D3"/>
<path d="M173.648 295.466V285.742H161.041V295.466H173.648Z" fill="#DBB1D3"/>
<path d="M187.387 295.466V285.742H174.78V295.466H187.387Z" fill="#DBB1D3"/>
<path d="M159.855 307.618V297.895H147.248V307.618H159.855Z" fill="#DBB1D3"/>
<path d="M173.648 307.618V297.895H161.041V307.618H173.648Z" fill="#DBB1D3"/>
<path d="M187.395 307.622V297.898H174.787V307.622H187.395Z" fill="#DBB1D3"/>
<path d="M159.855 319.774V310.051H147.248V319.774H159.855Z" fill="#DBB1D3"/>
<path d="M173.648 319.774V310.051H161.041V319.774H173.648Z" fill="#FFEB89"/>
<path d="M187.387 319.774V310.051H174.78V319.774H187.387Z" fill="#DBB1D3"/>
<path d="M159.855 331.927V322.203H147.248V331.927H159.855Z" fill="#DBB1D3"/>
<path d="M173.648 331.927V322.203H161.041V331.927H173.648Z" fill="#DBB1D3"/>
<path d="M187.395 331.933V322.209H174.787V331.933H187.395Z" fill="#DBB1D3"/>
<path d="M159.855 344.083V334.359H147.248V344.083H159.855Z" fill="#DBB1D3"/>
<path d="M173.648 344.083V334.359H161.041V344.083H173.648Z" fill="#DBB1D3"/>
<path d="M187.387 344.083V334.359H174.78V344.083H187.387Z" fill="#DBB1D3"/>
<path d="M159.855 356.235V346.512H147.248V356.235H159.855Z" fill="#DBB1D3"/>
<path d="M173.648 356.235V346.512H161.041V356.235H173.648Z" fill="#DBB1D3"/>
<path d="M187.395 356.241V346.518H174.787V356.241H187.395Z" fill="#DBB1D3"/>
<path d="M159.859 368.394V358.67H147.252V368.394H159.859Z" fill="#DBB1D3"/>
<path d="M173.656 368.394V358.67H161.049V368.394H173.656Z" fill="#DBB1D3"/>
<path d="M187.395 368.394V358.67H174.787V368.394H187.395Z" fill="#DBB1D3"/>
<path d="M159.855 380.546V370.822H147.248V380.546H159.855Z" fill="#DBB1D3"/>
<path d="M173.648 380.546V370.822H161.041V380.546H173.648Z" fill="#DBB1D3"/>
<path d="M187.395 380.55V370.826H174.787V380.55H187.395Z" fill="#DBB1D3"/>
<path d="M159.859 392.702V382.979H147.252V392.702H159.859Z" fill="#DBB1D3"/>
<path d="M173.656 392.702V382.979H161.049V392.702H173.656Z" fill="#DBB1D3"/>
<path d="M187.395 392.702V382.979H174.787V392.702H187.395Z" fill="#DBB1D3"/>
<path d="M159.855 404.855V395.131H147.248V404.855H159.855Z" fill="#DBB1D3"/>
<path d="M173.648 404.855V395.131H161.041V404.855H173.648Z" fill="#DBB1D3"/>
<path d="M187.395 404.86V395.137H174.787V404.86H187.395Z" fill="#DBB1D3"/>
<path d="M159.859 417.013V407.289H147.252V417.013H159.859Z" fill="#FFEB89"/>
<path d="M173.648 417.013V407.289H161.041V417.013H173.648Z" fill="#DBB1D3"/>
<path d="M187.395 417.013V407.289H174.787V417.013H187.395Z" fill="#DBB1D3"/>
<path d="M159.855 429.163V419.439H147.248V429.163H159.855Z" fill="#DBB1D3"/>
<path d="M173.648 429.165V419.441H161.041V429.165H173.648Z" fill="#DBB1D3"/>
<path d="M187.395 429.169V419.445H174.787V429.169H187.395Z" fill="#DBB1D3"/>
<path d="M159.859 441.321V431.598H147.252V441.321H159.859Z" fill="#DBB1D3"/>
<path d="M173.648 441.321V431.598H161.041V441.321H173.648Z" fill="#DBB1D3"/>
<path d="M187.395 441.321V431.598H174.787V441.321H187.395Z" fill="#DBB1D3"/>
<path d="M159.855 453.474V443.75H147.248V453.474H159.855Z" fill="#DBB1D3"/>
<path d="M173.648 453.474V443.75H161.041V453.474H173.648Z" fill="#DBB1D3"/>
<path d="M187.395 453.478V443.754H174.787V453.478H187.395Z" fill="#DBB1D3"/>
<path d="M159.855 465.63V455.906H147.248V465.63H159.855Z" fill="#DBB1D3"/>
<path d="M173.648 465.63V455.906H161.041V465.63H173.648Z" fill="#DBB1D3"/>
<path d="M187.395 465.63V455.906H174.787V465.63H187.395Z" fill="#DBB1D3"/>
<path d="M159.855 477.782V468.059H147.248V477.782H159.855Z" fill="#DBB1D3"/>
<path d="M173.648 477.782V468.059H161.041V477.782H173.648Z" fill="#DBB1D3"/>
<path d="M187.395 477.786V468.062H174.787V477.786H187.395Z" fill="#DBB1D3"/>
<path d="M159.855 489.941V480.217H147.248V489.941H159.855Z" fill="#DBB1D3"/>
<path d="M173.648 489.941V480.217H161.041V489.941H173.648Z" fill="#DBB1D3"/>
<path d="M187.395 489.941V480.217H174.787V489.941H187.395Z" fill="#DBB1D3"/>
<path d="M118.031 502.233V492.51H105.424V502.233H118.031Z" fill="#DBB1D3"/>
<path d="M131.832 502.233V492.51H119.225V502.233H131.832Z" fill="#DBB1D3"/>
<path d="M145.566 502.233V492.51H132.959V502.233H145.566Z" fill="#DBB1D3"/>
<path d="M118.031 514.386V504.662H105.424V514.386H118.031Z" fill="#DBB1D3"/>
<path d="M131.832 514.386V504.662H119.225V514.386H131.832Z" fill="#DBB1D3"/>
<path d="M145.57 514.386V504.662H132.963V514.386H145.57Z" fill="#DBB1D3"/>
<path d="M118.031 526.544V516.82H105.424V526.544H118.031Z" fill="#DBB1D3"/>
<path d="M131.832 526.544V516.82H119.225V526.544H131.832Z" fill="#DBB1D3"/>
<path d="M145.566 526.544V516.82H132.959V526.544H145.566Z" fill="#DBB1D3"/>
<path d="M159.855 502.228V492.504H147.248V502.228H159.855Z" fill="#DBB1D3"/>
<path d="M173.648 502.228V492.504H161.041V502.228H173.648Z" fill="#DBB1D3"/>
<path d="M187.395 502.233V492.51H174.787V502.233H187.395Z" fill="#DBB1D3"/>
<path d="M159.859 514.386V504.662H147.252V514.386H159.859Z" fill="#DBB1D3"/>
<path d="M173.648 514.386V504.662H161.041V514.386H173.648Z" fill="#DBB1D3"/>
<path d="M187.395 514.386V504.662H174.787V514.386H187.395Z" fill="#DBB1D3"/>
<path d="M159.855 526.538V516.814H147.248V526.538H159.855Z" fill="#DBB1D3"/>
<path d="M173.648 526.538V516.814H161.041V526.538H173.648Z" fill="#DBB1D3"/>
<path d="M187.395 526.544V516.82H174.787V526.544H187.395Z" fill="#DBB1D3"/>
<path d="M154.962 432.17H23.0391V549.209H154.962V432.17Z" fill="#182D34"/>
<path d="M42.8466 436.646H28.582V449.072H42.8466V436.646Z" fill="#FFEB89"/>
<path d="M64.245 436.646H49.9805V449.072H64.245V436.646Z" fill="#FFEB89"/>
<path d="M85.6356 436.646H71.3711V449.072H85.6356V436.646Z" fill="#FFEB89"/>
<path d="M107.03 436.646H92.7656V449.072H107.03V436.646Z" fill="#0D516E"/>
<path d="M128.417 436.646H114.152V449.072H128.417V436.646Z" fill="#FFEB89"/>
<path d="M149.815 436.646H135.551V449.072H149.815V436.646Z" fill="#FFEB89"/>
<path d="M42.8466 453.973H28.582V466.398H42.8466V453.973Z" fill="#FFEB89"/>
<path d="M64.245 453.973H49.9805V466.398H64.245V453.973Z" fill="#FFEB89"/>
<path d="M85.6356 453.973H71.3711V466.398H85.6356V453.973Z" fill="#0D516E"/>
<path d="M107.03 453.973H92.7656V466.398H107.03V453.973Z" fill="#FFEB89"/>
<path d="M128.417 453.973H114.152V466.398H128.417V453.973Z" fill="#FFEB89"/>
<path d="M149.815 453.973H135.551V466.398H149.815V453.973Z" fill="#FFEB89"/>
<path d="M42.8466 471.301H28.582V483.726H42.8466V471.301Z" fill="#FFEB89"/>
<path d="M64.245 471.303H49.9805V483.728H64.245V471.303Z" fill="#FFEB89"/>
<path d="M85.6356 471.303H71.3711V483.728H85.6356V471.303Z" fill="#FFEB89"/>
<path d="M107.03 471.301H92.7656V483.726H107.03V471.301Z" fill="#FFEB89"/>
<path d="M128.417 471.303H114.152V483.728H128.417V471.303Z" fill="#FFEB89"/>
<path d="M149.815 471.303H135.551V483.728H149.815V471.303Z" fill="#FFEB89"/>
<path d="M42.8466 488.629H28.582V501.054H42.8466V488.629Z" fill="#FFEB89"/>
<path d="M64.245 488.629H49.9805V501.054H64.245V488.629Z" fill="#FFEB89"/>
<path d="M85.6356 488.629H71.3711V501.054H85.6356V488.629Z" fill="#FFEB89"/>
<path d="M107.03 488.629H92.7656V501.054H107.03V488.629Z" fill="#FFEB89"/>
<path d="M128.417 488.629H114.152V501.054H128.417V488.629Z" fill="#0D516E"/>
<path d="M149.815 488.629H135.551V501.054H149.815V488.629Z" fill="#FFEB89"/>
<path d="M42.8544 505.957H28.5898V518.382H42.8544V505.957Z" fill="#FFEB89"/>
<path d="M64.2489 505.957H49.9844V518.382H64.2489V505.957Z" fill="#FFEB89"/>
<path d="M85.6395 505.957H71.375V518.382H85.6395V505.957Z" fill="#FFEB89"/>
<path d="M107.03 505.957H92.7656V518.382H107.03V505.957Z" fill="#FFEB89"/>
<path d="M128.425 505.957H114.16V518.382H128.425V505.957Z" fill="#FFEB89"/>
<path d="M149.823 505.957H135.559V518.382H149.823V505.957Z" fill="#FFEB89"/>
<path d="M42.8466 523.285H28.582V535.71H42.8466V523.285Z" fill="#FFEB89"/>
<path d="M64.245 523.285H49.9805V535.71H64.245V523.285Z" fill="#FFEB89"/>
<path d="M85.6356 523.285H71.3711V535.71H85.6356V523.285Z" fill="#0D516E"/>
<path d="M107.03 523.285H92.7656V535.71H107.03V523.285Z" fill="#FFEB89"/>
<path d="M128.417 523.285H114.152V535.71H128.417V523.285Z" fill="#FFEB89"/>
<path d="M149.815 523.285H135.551V535.71H149.815V523.285Z" fill="#FFEB89"/>
<path d="M232.413 350.635H175.977V548.802H232.413V350.635Z" fill="#28383C"/>
<path d="M183.155 355.883H178.996V546.709H183.155V355.883Z" fill="#FFEE81"/>
<path d="M189.807 355.883H185.648V546.709H189.807V355.883Z" fill="#FFEE81"/>
<path d="M196.463 355.883H192.305V546.709H196.463V355.883Z" fill="#FFEE81"/>
<path d="M203.127 355.883H198.969V546.709H203.127V355.883Z" fill="#FFEE81"/>
<path d="M209.776 355.883H205.617V546.709H209.776V355.883Z" fill="#FFEE81"/>
<path d="M216.084 355.883H211.926V546.709H216.084V355.883Z" fill="#FFEE81"/>
<path d="M222.737 355.883H218.578V546.709H222.737V355.883Z" fill="#FFEE81"/>
<path d="M229.393 355.883H225.234V546.709H229.393V355.883Z" fill="#FFEE81"/>
<path d="M468.142 411.32H401.145V548.201H468.142V411.32Z" fill="#17313A"/>
<path d="M415.242 420.387H407.48V439.424H415.242V420.387Z" fill="#E0F2FA"/>
<path d="M426.886 420.387H419.125V439.424H426.886V420.387Z" fill="#E0F2FA"/>
<path d="M438.519 420.387H430.758V439.424H438.519V420.387Z" fill="#E0F2FA"/>
<path d="M450.164 420.387H442.402V439.424H450.164V420.387Z" fill="#E0F2FA"/>
<path d="M461.808 420.387H454.047V439.424H461.808V420.387Z" fill="#E0F2FA"/>
<path d="M415.242 443.953H407.48V462.991H415.242V443.953Z" fill="#E0F2FA"/>
<path d="M426.886 443.953H419.125V462.991H426.886V443.953Z" fill="#E0F2FA"/>
<path d="M438.519 443.953H430.758V462.991H438.519V443.953Z" fill="#E0F2FA"/>
<path d="M450.164 443.953H442.402V462.991H450.164V443.953Z" fill="#FFEE81"/>
<path d="M461.808 443.953H454.047V462.991H461.808V443.953Z" fill="#E0F2FA"/>
<path d="M415.242 467.521H407.48V486.559H415.242V467.521Z" fill="#E0F2FA"/>
<path d="M426.886 467.521H419.125V486.559H426.886V467.521Z" fill="#E0F2FA"/>
<path d="M438.519 467.521H430.758V486.559H438.519V467.521Z" fill="#E0F2FA"/>
<path d="M450.164 467.521H442.402V486.559H450.164V467.521Z" fill="#E0F2FA"/>
<path d="M461.808 467.521H454.047V486.559H461.808V467.521Z" fill="#E0F2FA"/>
<path d="M415.242 491.088H407.48V510.126H415.242V491.088Z" fill="#E0F2FA"/>
<path d="M426.886 491.088H419.125V510.126H426.886V491.088Z" fill="#FFEE81"/>
<path d="M438.519 491.088H430.758V510.126H438.519V491.088Z" fill="#E0F2FA"/>
<path d="M450.164 491.088H442.402V510.126H450.164V491.088Z" fill="#E0F2FA"/>
<path d="M461.808 491.088H454.047V510.126H461.808V491.088Z" fill="#E0F2FA"/>
<path d="M415.242 514.658H407.48V533.696H415.242V514.658Z" fill="#E0F2FA"/>
<path d="M426.886 514.658H419.125V533.696H426.886V514.658Z" fill="#E0F2FA"/>
<path d="M438.519 514.658H430.758V533.696H438.519V514.658Z" fill="#E0F2FA"/>
<path d="M450.164 514.658H442.402V533.696H450.164V514.658Z" fill="#E0F2FA"/>
<path d="M461.808 514.658H454.047V533.696H461.808V514.658Z" fill="#FFEE81"/>
</svg>
