<svg width="106" height="102" viewBox="0 0 106 102" fill="none" xmlns="http://www.w3.org/2000/svg">
<path d="M8.34764 44.4521C8.4313 43.6009 11.7324 44.3333 14.22 43.4893C15.4754 43.0636 16.3272 42.9408 21.6353 38.6211C25.6123 35.3863 25.737 34.9665 28.6573 32.7403C31.1031 30.8747 32.5659 29.7714 34.8267 28.638C36.9234 27.5863 39.1152 26.4882 42.2422 26.2196C46.3212 25.8688 50.4237 27.0634 50.4908 27.6876C50.5393 28.1275 48.5557 28.076 45.7683 28.8244C42.2983 29.7549 40.0438 31.2634 37.6812 32.8748C32.2028 36.6124 33.0651 37.9838 27.9041 41.7114C27.6963 41.8619 23.5592 44.7909 17.4827 46.3714C15.5404 46.8761 12.712 46.9045 10.1172 45.9302C9.83954 45.826 8.29263 45.0074 8.34676 44.4507L8.34764 44.4521Z" fill="#B9BFC6"/>
<path d="M8.34535 44.4528C8.13573 43.8501 10.3931 42.7594 12.5151 40.8349C16.6769 37.0604 17.158 35.9681 20.7135 32.0568C21.6953 30.9757 24.5409 27.9012 28.7852 25.9611C30.0574 25.3802 36.6529 21.8283 48.8203 24.6162C52.0681 25.3602 54.8676 26.8787 58.1747 25.4711C59.3253 24.9807 59.8448 25.0971 61.3412 24.1644C65.3692 21.6567 69.3467 22.1975 70.4951 22.2956C73.2043 22.5256 77.7905 22.9151 80.2085 26.5003C81.4533 28.3467 81.5853 30.2431 81.6294 31.0188C81.9429 36.4961 77.2547 39.6679 76.1009 39.9352C71.7092 40.9493 72.3488 43.2354 75.1643 43.2155C76.6861 43.2054 78.133 43.5982 80.8062 44.3733C85.5124 45.7373 87.7821 45.8068 92.8843 46.0723C94.6752 46.1644 96.4226 45.9519 97.2082 46.8882C97.8611 47.6684 97.7935 49.071 97.3654 49.9306C96.2463 52.1768 92.2074 51.6181 89.3419 51.278C79.2114 50.0734 74.1466 49.4718 69.9325 50.3569C63.1418 51.7821 59.1244 56.3422 57.2252 58.499C55.1293 60.88 54.2423 62.5884 53.7694 65.7038C53.2223 69.3197 54.0898 70.7359 53.1644 74.8037C52.737 76.6809 52.1189 78.582 52.021 80.626C51.9979 81.1086 51.8159 82.0776 52.2871 82.6295C52.6702 83.077 53.394 82.9836 53.4243 82.9793C54.9014 82.7674 54.5343 80.2348 56.5686 77.5494C57.2115 76.7003 57.9299 76.0522 58.9452 75.7615C59.3303 75.6515 60.5174 75.3107 61.0294 75.8572C61.6153 76.4808 61.537 78.3908 59.6471 81.3518C55.9634 87.119 53.479 89.5198 50.6331 92.3134C50.1048 92.8321 47.754 92.9097 46.7816 91.7484C45.4032 90.1044 47.8059 86.9408 46.1581 84.5597C45.6642 83.8455 44.5513 83.5839 42.7175 82.8057C40.336 81.7967 39.4074 81.8752 37.7958 82.1976C36.6113 82.4348 36.7259 83.0839 35.4499 84.2678C35.3358 84.3727 33.5959 85.9334 31.2487 85.4274C30.9083 85.3543 30.2749 85.1504 30.0385 84.4612C29.9014 84.0635 29.6371 83.2692 30.3013 82.5659C31.8067 80.9731 32.0563 81.1418 32.5125 80.3736C33.3125 79.0297 32.1466 76.6451 31.6842 75.3677C31.3041 74.3159 31.2335 74.1309 30.8789 71.6402C30.5262 69.1637 30.9252 67.3108 30.339 66.6104C29.8668 66.0457 26.6123 66.9111 24.7875 67.0161C22.3982 67.1534 20.8318 67.2309 18.1893 67.1345C17.9211 67.1242 14.2855 66.642 13.9566 65.836C13.6781 65.1529 15.8856 64.1158 18.9399 61.991C20.8365 60.6712 23.3306 57.3904 26.0934 54.1349C26.6178 53.5169 28.2916 51.291 31.4705 46.3448C32.8902 44.136 34.1981 42.8794 36.0317 41.1116C37.4768 39.7177 39.0306 38.4994 39.7432 38.0322C41.6059 36.8132 42.9777 36.0116 44.6525 35.0361C46.3424 34.0526 47.542 33.465 48.372 33.1158C50.165 32.3617 51.0247 32.1914 52.7734 31.2813C53.9516 30.6691 54.5331 30.0966 54.4165 29.6086C54.0998 28.2749 48.2972 27.847 45.8726 27.6667C39.7387 27.2136 37.1236 29.0566 34.9804 30.3964C31.3412 32.6725 32.2566 32.6218 25.3595 38.3463C19.8304 42.9349 17.1964 44.1146 14.7416 44.6467C11.9481 45.2527 8.59858 45.1792 8.34535 44.4528Z" fill="#F1F2F4"/>
<path d="M78.3849 35.67C79.0387 36.6498 79.8063 36.1795 83.1662 37.58C85.8454 38.6956 88.2002 40.1107 88.2002 40.1107C89.2238 40.7249 90.3241 41.1313 91.3426 41.7546C91.7487 42.0024 92.2749 42.3415 92.9414 42.3469C93.0524 42.3479 94.0038 42.3412 94.3321 41.685C94.573 41.2031 94.4226 40.4792 93.799 39.3105C93.4368 38.6319 91.9707 36.0346 88.0149 33.2164C86.7615 32.3226 85.7398 31.7822 83.6999 30.7011C81.2821 29.4213 80.8416 29.3979 80.5093 29.4504C78.3968 29.7868 77.139 33.7994 78.3841 35.6687L78.3849 35.67Z" fill="#F1F2F4"/>
<path d="M67.5546 33.4759C67.8062 34.7152 69.1446 35.4481 69.4156 35.5874C69.6091 35.6867 70.8253 36.2911 71.8575 35.797C72.1594 35.6526 72.6343 35.1821 73.3679 34.1412C73.9465 33.3204 74.0773 32.9582 74.0601 32.623C74.0136 31.6679 72.7565 30.8534 72.6116 30.7609C71.3264 29.9455 69.8212 30.1256 68.8669 30.7423C68.6573 30.8786 67.7509 31.4642 67.556 32.6455C67.5223 32.8542 67.4804 33.1239 67.5511 33.4762L67.5546 33.4759Z" fill="#E2E4E7"/>
<path d="M67.5536 33.4757C67.8052 34.715 69.1436 35.4479 69.4146 35.5872C69.6081 35.6865 70.9174 35.8224 71.2964 35.499C71.5939 35.2459 71.8465 34.9122 72.0245 34.3789C72.1653 33.9582 72.0396 33.6743 71.9274 33.3431C71.7951 32.9557 71.3847 32.5029 71.2488 32.393C70.5986 31.8632 69.6549 31.4627 69.1952 31.4325C68.9317 31.4153 67.7525 31.4623 67.5576 32.6437C67.5239 32.8523 67.482 33.122 67.5527 33.4744L67.5536 33.4757Z" fill="#2E3338"/>
<path d="M74.3851 32.8455C74.5585 32.8771 74.6896 32.7899 74.8411 32.6914C75.021 32.5745 75.2168 32.4452 75.1867 32.2857C75.1549 32.1178 74.8871 32.0091 74.6438 31.9095C74.3403 31.7854 74.1037 31.7756 73.9141 31.77C73.7166 31.7637 73.6186 31.7601 73.5665 31.8132C73.3507 32.0363 73.7294 32.8678 73.9417 32.8856C74.002 32.8907 74.0288 32.8271 74.1562 32.8135C74.2533 32.8042 74.3113 32.8339 74.3838 32.8464L74.3851 32.8455Z" fill="#B9BFC6"/>
<path d="M13.9979 65.9087C13.9868 65.5887 16.821 66.6594 20.6144 66.0421C24.7427 65.3705 27.4515 63.4762 29.3762 62.0976C34.5512 58.3918 37.3363 53.463 38.4982 51.087C40.3458 47.3105 40.394 45.2834 43.0563 41.5334C44.9252 38.8997 46.4233 37.7543 47.6254 37.0515C50.7051 35.2489 53.9906 35.0965 54.0617 35.2851C54.115 35.4294 52.2597 35.7026 50.2112 37.0635C49.3209 37.654 47.7891 38.8522 46.2499 41.3927C43.731 45.5499 44.6341 47.6184 42.6597 52.9784C41.8686 55.1287 40.4178 58.9435 37.0208 62.2687C34.2075 65.0219 31.2711 66.2521 29.8305 66.7636C25.5011 68.301 21.7097 67.9529 19.5923 67.7382C16.4706 67.4203 14.0097 66.2128 13.9983 65.9122L13.9979 65.9087Z" fill="#B9BFC6"/>
<path d="M73.5355 41.0092C71.893 41.3209 69.5864 40.8945 68.3997 40.6751C67.4936 40.508 65.6505 40.1996 63.0738 38.007C60.8795 36.1391 59.4136 35.2045 59.1632 35.5443C58.9248 35.8687 59.7663 37.1344 59.9425 37.3912C60.9401 38.8517 62.0921 39.6519 63.1805 40.2354C65.0126 41.2206 65.9925 41.5438 67.4201 41.672C70.0278 41.9046 70.3082 41.8628 71.7135 41.7302C72.6902 41.6378 73.0619 41.629 73.261 41.3205C73.3491 41.1843 73.7325 40.9696 73.5359 41.007L73.5355 41.0092Z" fill="#E2E4E7"/>
</svg>
