<svg width="355" height="549" viewBox="0 0 355 549" fill="none" xmlns="http://www.w3.org/2000/svg">
<path d="M160.893 545.073C160.893 545.073 190.67 506.824 185.255 446.27C179.84 385.708 150.07 344.276 152.77 280.531C155.478 216.787 215.025 207.223 220.44 153.035" stroke="#4D341F" stroke-width="6" stroke-linecap="round" stroke-linejoin="round"/>
<path d="M217.414 183.379C212.93 229.108 232.093 270.366 235.738 315.073C238.425 347.956 226.999 381.231 223.368 413.694C220.633 438.133 225.068 461.186 232.128 485.044" stroke="#4D341F" stroke-width="6" stroke-linecap="round" stroke-linejoin="round"/>
<path d="M118.766 97.9102C118.766 97.9102 139.223 167.77 153.153 300.59" stroke="#4D341F" stroke-width="5" stroke-linecap="round" stroke-linejoin="round"/>
<path d="M20.0169 70.7151C8.77368 90.8998 14.6437 121.25 36.1087 129.8C44.5534 133.158 55.3839 133.725 59.9455 141.589C64.3673 149.215 59.8966 158.639 58.6932 167.371C57.056 179.237 62.2824 191.816 71.8605 199.016C81.4316 206.222 94.9627 207.761 105.912 202.906C120.367 196.49 130.099 180.174 145.799 178.236C170.797 175.151 189.645 210.651 214.126 204.725C232.932 200.177 239.712 173.794 258.441 168.938C272.987 165.167 287.4 176.291 302.428 176.2C323.816 176.074 339.117 150.509 332.855 130.059C326.594 109.608 304.219 96.9657 282.838 97.2946C292.402 72.8211 283.51 42.4215 262.261 26.9594C241.013 11.4973 209.354 12.3859 189.009 29.0234C175.862 10.147 152.578 -1.1942 129.609 0.100137C108.697 1.28253 100.063 17.2484 86.4201 30.7655C74.3792 42.7014 63.7306 39.0423 49.9267 43.6529C38.4106 47.501 25.761 60.4164 20.0169 70.7221V70.7151Z" fill="#204B35"/>
<path d="M257.904 215.129C257.904 215.129 226.455 241.631 230.842 281.686" stroke="#4D341F" stroke-width="4" stroke-linecap="round" stroke-linejoin="round"/>
<path d="M296.741 129.423C278.935 122.392 268.643 99.4854 249.522 98.5339C233.493 97.7363 221.676 113.045 206.788 119.033C185.588 127.562 135.599 116.997 133.682 152.525C133.22 161.075 138.223 169.681 145.884 173.508C151.32 176.229 158.134 176.901 161.982 181.61C166.656 187.326 164.515 195.798 166.019 203.033C168.062 212.842 177.081 219.999 186.722 222.735C199.791 226.443 216.45 225.4 229.162 220.573C242.546 215.493 246.345 213.786 259.485 223.434C266.166 228.339 274.079 233.453 282.139 231.515C290.346 229.535 293.935 221.678 300.554 217.424C309.817 211.47 319.633 215.059 329.288 211.044C342.21 205.67 354.286 185.486 354.664 171.591C355.427 143.864 316.422 137.196 296.741 129.423Z" fill="#172A1E"/>
<path d="M72.3867 105.977C84.8823 113.708 92.1656 127.735 96.2236 141.861C100.274 155.987 101.695 170.764 105.732 184.896C112.434 208.362 126.469 229.68 145.387 245.094" stroke="#4D341F" stroke-width="4" stroke-linecap="round" stroke-linejoin="round"/>
<path d="M114.608 206.517C98.3765 180.854 75.0714 161.005 65.8711 133.285" stroke="#4D341F" stroke-width="4" stroke-linecap="round" stroke-linejoin="round"/>
<path d="M72.0646 173.116C90.3673 165.552 94.894 176.607 118.514 171.513C121.837 170.793 147.934 164.797 160.311 144.15C164.746 136.741 165.593 130.493 165.789 128.842C165.887 128.01 167.454 113.261 160.765 105.67C149.228 92.5657 125.279 114.597 90.6051 106.062C67.7758 100.444 61.507 86.7936 44.4007 90.6627C34.1929 92.9715 27.4274 99.863 20.0811 107.349C9.89431 117.732 -1.28596 129.122 0.120323 143.605C1.97438 162.663 24.4119 174.375 36.2639 177.628C41.1124 178.958 45.3312 179.195 46.0938 179.23C58.2606 179.839 66.9362 175.243 72.0716 173.123L72.0646 173.116Z" fill="#2C6E49"/>
</svg>
