<svg width="60" height="61" viewBox="0 0 60 61" fill="none" xmlns="http://www.w3.org/2000/svg">
<g id="bitcoin icon">
<path id="Path 14" d="M59.1026 38.0311C55.0944 54.1039 38.8154 63.8854 22.7401 59.877C6.6717 55.8686 -3.11042 39.5925 0.898574 23.5229C4.90386 7.44691 21.1838 -2.33435 37.2542 1.67358C53.3246 5.6815 63.1089 21.9613 59.1026 38.0311ZM43.2287 26.5003C43.826 22.5107 40.7864 20.3631 36.6299 18.9315L37.9784 13.5255L34.6862 12.7048L33.3748 17.9688C32.5089 17.7527 31.6206 17.5491 30.7373 17.3484L32.0595 12.0505L28.7688 11.2297L27.4194 16.6357C26.7031 16.4722 25.9996 16.3116 25.3163 16.142L25.32 16.1234L20.7808 14.9903L19.9049 18.5048C19.9049 18.5048 22.3474 19.0633 22.296 19.1002C23.6291 19.4336 23.8698 20.313 23.83 21.0132L22.2945 27.1752C22.411 27.2028 22.5253 27.2389 22.6364 27.2832C22.5268 27.2553 22.4098 27.2277 22.2888 27.1969L20.1362 35.8273C19.9729 36.2313 19.5597 36.8391 18.6269 36.6079C18.6598 36.6568 16.2339 36.0123 16.2339 36.0123L14.5996 39.7797L18.8835 40.8473C19.6807 41.0448 20.4616 41.2545 21.2306 41.452L19.868 46.9227L23.1563 47.7405L24.5057 42.3314C25.4036 42.5758 26.2758 42.8004 27.1284 43.0104L25.7841 48.3975L29.0749 49.2185L30.4374 43.7571C36.0507 44.8215 40.272 44.3926 42.0485 39.3168C43.4803 35.2282 41.9772 32.871 39.0238 31.3344C41.1763 30.8385 42.7957 29.4223 43.229 26.5003H43.2287ZM35.707 37.0469C34.6896 41.135 27.8071 38.926 25.5756 38.3704L27.3832 31.1257C29.6147 31.681 36.7705 32.7855 35.7073 37.0469H35.707ZM36.7254 26.4417C35.7974 30.1597 30.0698 28.2716 28.2101 27.8085L29.8493 21.2361C31.7077 21.6991 37.6924 22.5631 36.7257 26.4417H36.7254Z" fill="#BFBFBF"/>
</g>
</svg>
