<svg width="28" height="33" viewBox="0 0 28 33" fill="none" xmlns="http://www.w3.org/2000/svg">
<g id="Oeuf Bitcoin">
<path id="Vector" d="M23.3866 14.6147C24.5914 22.5763 20.5031 29.4081 14.5142 29.8882C7.63209 30.441 3.44172 25.2817 3.07472 17.2113C2.71144 9.21679 7.90683 2.22629 11.9059 1.77015C16.1487 1.28558 22.1593 6.5063 23.3866 14.6147Z" fill="#D37924"/>
<path id="Vector_2" d="M8.17474 8.73113C8.08425 9.62448 7.55946 13.6344 8.4038 17.8489C9.19858 21.8145 10.7952 23.8587 11.8572 25.0121C13.8704 27.2004 16.3492 28.1724 18.3525 28.5619C22.1214 26.137 24.3109 20.7015 23.3864 14.5982C22.1596 6.488 16.1469 1.26597 11.9027 1.75066C11.1779 1.83364 10.4128 2.13343 9.64974 2.61283C8.95397 4.6015 8.35391 6.97299 8.17474 8.73113Z" fill="#F39422"/>
<path id="Vector_3" d="M18.0583 15.6951C17.9582 15.6524 17.7979 15.6362 17.7956 15.5626C17.7932 15.489 17.885 15.4666 18.0998 15.3227C18.1244 15.306 19.1351 14.7295 19.0421 13.0211C18.9423 11.175 17.2869 10.3606 16.7539 10.1526C16.6558 10.1144 16.4977 10.0678 16.308 10.055L14.7884 10.0207L14.6787 7.16875L13.0073 7.21544L13.117 10.0674L11.8514 10.1023L11.7417 7.25037L9.92704 7.30026L10.0367 10.1522L6.81292 10.2411L6.88055 12.003L8.79819 11.9836C8.88487 11.9828 8.95604 12.0521 8.95966 12.1411L9.29908 20.9866C9.30091 21.0331 9.26544 21.071 9.22084 21.0726L7.45745 21.1216L7.3037 23.0386L10.6828 22.9456L10.7925 25.7975L12.5122 25.7502L12.4025 22.8983L13.7007 22.8627L13.8104 25.7147L15.5569 25.6663L15.4455 22.7589C15.4455 22.7589 15.9205 22.7459 16.0906 22.7416C16.2607 22.7373 17.5018 22.614 17.784 22.4845C17.8666 22.4467 20.2346 21.6047 20.1941 18.9766C20.1572 16.6045 18.1586 15.7409 18.0588 15.6972L18.0583 15.6951ZM11.8854 11.9195L14.0703 11.8587C14.0703 11.8587 15.7308 12.1423 15.784 13.5314C15.8417 15.0306 14.2665 15.4161 14.2665 15.4161L12.0221 15.4786L11.8854 11.9195ZM14.4784 20.926L12.2341 20.9885L12.0841 17.085L14.269 17.0242C14.269 17.0242 16.855 17.2225 16.9198 18.9045C16.9889 20.7058 14.4784 20.926 14.4784 20.926Z" fill="white"/>
</g>
</svg>
