<svg width="60" height="60" viewBox="0 0 60 60" fill="none" xmlns="http://www.w3.org/2000/svg">
<g id="bitcoin icon">
<path id="Path 14" d="M59.1026 37.2558C55.0944 53.3285 38.8154 63.11 22.7401 59.1016C6.6717 55.0932 -3.11042 38.8171 0.898574 22.7475C4.90386 6.67152 21.1838 -3.10974 37.2542 0.898185C53.3246 4.90611 63.1089 21.1859 59.1026 37.2558ZM43.2287 25.725C43.826 21.7354 40.7864 19.5877 36.6299 18.1561L37.9784 12.7501L34.6862 11.9294L33.3748 17.1934C32.5089 16.9773 31.6206 16.7737 30.7373 16.5731L32.0595 11.2751L28.7688 10.4544L27.4194 15.8603C26.7031 15.6968 25.9996 15.5362 25.3163 15.3666L25.32 15.348L20.7808 14.2149L19.9049 17.7294C19.9049 17.7294 22.3474 18.2879 22.296 18.3248C23.6291 18.6582 23.8698 19.5376 23.83 20.2378L22.2945 26.3998C22.411 26.4274 22.5253 26.4635 22.6364 26.5078C22.5268 26.48 22.4098 26.4523 22.2888 26.4215L20.1362 35.0519C19.9729 35.4559 19.5597 36.0637 18.6269 35.8325C18.6598 35.8814 16.2339 35.2369 16.2339 35.2369L14.5996 39.0043L18.8835 40.0719C19.6807 40.2694 20.4616 40.4791 21.2306 40.6766L19.868 46.1474L23.1563 46.9652L24.5057 41.556C25.4036 41.8004 26.2758 42.025 27.1284 42.235L25.7841 47.6221L29.0749 48.4431L30.4374 42.9817C36.0507 44.0461 40.272 43.6172 42.0485 38.5414C43.4803 34.4528 41.9772 32.0956 39.0238 30.559C41.1763 30.0631 42.7957 28.6469 43.229 25.725H43.2287ZM35.707 36.2715C34.6896 40.3596 27.8071 38.1506 25.5756 37.595L27.3832 30.3503C29.6147 30.9056 36.7705 32.0101 35.7073 36.2715H35.707ZM36.7254 25.6663C35.7974 29.3843 30.0698 27.4962 28.2101 27.0331L29.8493 20.4607C31.7077 20.9237 37.6924 21.7877 36.7257 25.6663H36.7254Z" fill="#FF5C00"/>
</g>
</svg>
