<svg width="35" height="36" viewBox="0 0 35 36" fill="none" xmlns="http://www.w3.org/2000/svg">
<mask id="mask0_3833_31702" style="mask-type:alpha" maskUnits="userSpaceOnUse" x="0" y="0" width="35" height="36">
<rect y="0.5" width="35" height="35" fill="#D9D9D9"/>
</mask>
<g mask="url(#mask0_3833_31702)">
<path d="M8.7487 32.5827C7.94661 32.5827 7.25998 32.2971 6.6888 31.7259C6.11762 31.1547 5.83203 30.4681 5.83203 29.666V6.33268C5.83203 5.5306 6.11762 4.84397 6.6888 4.27279C7.25998 3.70161 7.94661 3.41602 8.7487 3.41602H26.2487C27.0508 3.41602 27.7374 3.70161 28.3086 4.27279C28.8798 4.84397 29.1654 5.5306 29.1654 6.33268V29.666C29.1654 30.4681 28.8798 31.1547 28.3086 31.7259C27.7374 32.2971 27.0508 32.5827 26.2487 32.5827H8.7487ZM8.7487 29.666H26.2487V6.33268H23.332V16.541L19.6862 14.3535L16.0404 16.541V6.33268H8.7487V29.666Z" fill="black"/>
</g>
</svg>
