<svg width="19" height="19" viewBox="0 0 19 19" fill="none" xmlns="http://www.w3.org/2000/svg">
<g id="Close">
<path id="Vector" fill-rule="evenodd" clip-rule="evenodd" d="M14.7811 3.72521C14.7815 3.72533 14.7819 3.72552 14.7826 3.72624L15.7967 4.74032C15.7974 4.74105 15.7976 4.74138 15.7977 4.7418C15.7979 4.74219 15.7979 4.74262 15.7977 4.74301C15.7976 4.74342 15.7974 4.74375 15.7967 4.74447L10.7394 9.80175L15.7967 14.859C15.7974 14.8597 15.7976 14.8601 15.7977 14.8605C15.7979 14.8609 15.7979 14.8613 15.7977 14.8617C15.7976 14.8621 15.7974 14.8625 15.7967 14.8632L14.7826 15.8773C14.7819 15.878 14.7816 15.8782 14.7811 15.8783C14.7807 15.8784 14.7803 15.8784 14.7799 15.8783C14.7795 15.8782 14.7792 15.878 14.7785 15.8773L9.72119 10.82L4.66391 15.8773C4.6632 15.878 4.66285 15.8782 4.66245 15.8783C4.66205 15.8784 4.66162 15.8784 4.66122 15.8783C4.66083 15.8782 4.66048 15.878 4.65976 15.8773L3.64568 14.8632C3.64496 14.8625 3.64476 14.8621 3.64464 14.8617C3.6445 14.8613 3.6445 14.8609 3.64464 14.8605C3.64476 14.8601 3.64496 14.8598 3.64568 14.859L8.70294 9.80175L3.64568 4.74447C3.64496 4.74377 3.64476 4.74342 3.64464 4.74301C3.64452 4.74261 3.64452 4.74218 3.64464 4.74178C3.64476 4.7414 3.64496 4.74105 3.64568 4.74032L4.65976 3.72624C4.66048 3.72552 4.66081 3.72533 4.66123 3.72521C4.66163 3.72506 4.66206 3.72506 4.66245 3.72521C4.66285 3.72533 4.66319 3.72552 4.66391 3.72624L9.72119 8.7835L14.7785 3.72624C14.7792 3.72552 14.7795 3.72533 14.7799 3.72521C14.7803 3.72508 14.7808 3.72508 14.7812 3.72521H14.7811Z" fill="#E00000"/>
</g>
</svg>
