<svg width="41" height="40" viewBox="0 0 41 40" fill="none" xmlns="http://www.w3.org/2000/svg">
<circle cx="20.3384" cy="20" r="20" transform="rotate(90 20.3384 20)" fill="none"/>
<mask id="mask0_557_16961" style="mask-type:alpha" maskUnits="userSpaceOnUse" x="13" y="17" width="15" height="16">
<rect x="13.1372" y="17.7236" width="14.4" height="14.2769" fill="#FF5C00"/>
</mask>
<g mask="url(#mask0_557_16961)">
<path d="M22.7384 24.2669C22.9084 24.2669 23.0509 24.2099 23.1659 24.0959C23.2809 23.9819 23.3384 23.8406 23.3384 23.6721C23.3384 23.5035 23.2809 23.3622 23.1659 23.2482C23.0509 23.1342 22.9084 23.0772 22.7384 23.0772C22.5684 23.0772 22.4259 23.1342 22.3109 23.2482C22.1959 23.3622 22.1384 23.5035 22.1384 23.6721C22.1384 23.8406 22.1959 23.9819 22.3109 24.0959C22.4259 24.2099 22.5684 24.2669 22.7384 24.2669ZM17.9384 23.0772H20.9384V21.8874H17.9384V23.0772ZM15.8384 30.2157C15.4984 29.0854 15.1634 27.9576 14.8334 26.8323C14.5034 25.707 14.3384 24.5545 14.3384 23.3746C14.3384 22.4625 14.6584 21.6892 15.2984 21.0546C15.9384 20.4201 16.7184 20.1028 17.6384 20.1028H20.6384C20.9284 19.7261 21.2809 19.4336 21.6959 19.2254C22.1109 19.0172 22.5584 18.9131 23.0384 18.9131C23.2884 18.9131 23.5009 18.9998 23.6759 19.1733C23.8509 19.3468 23.9384 19.5575 23.9384 19.8054C23.9384 19.855 23.9134 19.969 23.8634 20.1474C23.8234 20.2565 23.7859 20.368 23.7509 20.4821C23.7159 20.5961 23.6884 20.7126 23.6684 20.8315L25.0334 22.1849H26.3384V26.3341L24.6434 26.8844L23.6384 30.2157H20.3384V29.0259H19.1384V30.2157H15.8384Z" fill="#FF5C00"/>
</g>
<mask id="mask1_557_16961" style="mask-type:alpha" maskUnits="userSpaceOnUse" x="14" y="8" width="12" height="13">
<rect x="14.936" y="8.80078" width="10.2" height="11.3026" fill="#FF5C00"/>
</mask>
<g mask="url(#mask1_557_16961)">
<path d="M19.211 19.409V15.6415H17.936V9.99023H22.186L21.336 13.2868H23.036L19.211 19.409Z" fill="#FF5C00"/>
</g>
</svg>
