<svg width="24" height="24" viewBox="0 0 24 24" fill="none" xmlns="http://www.w3.org/2000/svg">
<g id="Filter">
<path id="Vector" d="M19.0087 12H21.12" stroke="#FFEEE5" stroke-width="1.5"/>
<path id="Vector_2" d="M2.88 12H14.5088" stroke="#FFEEE5" stroke-width="1.5"/>
<path id="Vector_3" d="M9.95251 5.98877H21.12" stroke="#FFEEE5" stroke-width="1.5"/>
<path id="Vector_4" d="M2.88 5.98877H5.46001" stroke="#FFEEE5" stroke-width="1.5"/>
<path id="Vector_5" d="M13.125 18.0112H21.12" stroke="#FFEEE5" stroke-width="1.5"/>
<path id="Vector_6" d="M2.88 18.0112H8.625" stroke="#FFEEE5" stroke-width="1.5"/>
<path id="Vector_7" d="M7.70624 8.12256C8.94888 8.12256 9.95624 7.1152 9.95624 5.87256C9.95624 4.62992 8.94888 3.62256 7.70624 3.62256C6.4636 3.62256 5.45624 4.62992 5.45624 5.87256C5.45624 7.1152 6.4636 8.12256 7.70624 8.12256Z" stroke="#FFEEE5" stroke-width="1.5"/>
<path id="Vector_8" d="M16.7587 14.25C18.0014 14.25 19.0087 13.2426 19.0087 12C19.0087 10.7574 18.0014 9.75 16.7587 9.75C15.5161 9.75 14.5087 10.7574 14.5087 12C14.5087 13.2426 15.5161 14.25 16.7587 14.25Z" stroke="#FFEEE5" stroke-width="1.5"/>
<path id="Vector_9" d="M10.875 20.2612C12.1176 20.2612 13.125 19.2539 13.125 18.0112C13.125 16.7686 12.1176 15.7612 10.875 15.7612C9.63236 15.7612 8.625 16.7686 8.625 18.0112C8.625 19.2539 9.63236 20.2612 10.875 20.2612Z" stroke="#FFEEE5" stroke-width="1.5"/>
</g>
</svg>
