<svg width="17" height="16" viewBox="0 0 17 16" fill="none" xmlns="http://www.w3.org/2000/svg">
<path d="M8.74479 15.0538L7.56714 13.998C6.19998 12.7662 5.0697 11.7036 4.17631 10.8102C3.28292 9.91679 2.57227 9.11477 2.04435 8.40411C1.51644 7.69346 1.14758 7.04034 0.937764 6.44474C0.727953 5.84915 0.623047 5.24002 0.623047 4.61735C0.623047 3.34494 1.04944 2.28235 1.90222 1.42957C2.755 0.576782 3.8176 0.150391 5.09001 0.150391C5.79389 0.150391 6.46393 0.299289 7.10014 0.597087C7.73634 0.894884 8.28456 1.31451 8.74479 1.85596C9.20502 1.31451 9.75324 0.894884 10.3894 0.597087C11.0256 0.299289 11.6957 0.150391 12.3996 0.150391C13.672 0.150391 14.7346 0.576782 15.5874 1.42957C16.4401 2.28235 16.8665 3.34494 16.8665 4.61735C16.8665 5.24002 16.7616 5.84915 16.5518 6.44474C16.342 7.04034 15.9731 7.69346 15.4452 8.40411C14.9173 9.11477 14.2067 9.91679 13.3133 10.8102C12.4199 11.7036 11.2896 12.7662 9.92244 13.998L8.74479 15.0538Z" fill="#4D555E"/>
</svg>
