<svg width="60" height="59" viewBox="0 0 60 59" fill="none" xmlns="http://www.w3.org/2000/svg">
<g id="groups">
<mask id="mask0_1128_12259" style="mask-type:alpha" maskUnits="userSpaceOnUse" x="0" y="-1" width="60" height="60">
<rect id="Bounding box" y="-1" width="60" height="60" fill="#D9D9D9"/>
</mask>
<g mask="url(#mask0_1128_12259)">
<path id="groups_2" d="M0 44V40.0625C0 38.2708 0.916667 36.8125 2.75 35.6875C4.58333 34.5625 7 34 10 34C10.5417 34 11.0625 34.0104 11.5625 34.0312C12.0625 34.0521 12.5417 34.1042 13 34.1875C12.4167 35.0625 11.9792 35.9792 11.6875 36.9375C11.3958 37.8958 11.25 38.8958 11.25 39.9375V44H0ZM15 44V39.9375C15 38.6042 15.3646 37.3854 16.0938 36.2812C16.8229 35.1771 17.8542 34.2083 19.1875 33.375C20.5208 32.5417 22.1146 31.9167 23.9688 31.5C25.8229 31.0833 27.8333 30.875 30 30.875C32.2083 30.875 34.2396 31.0833 36.0938 31.5C37.9479 31.9167 39.5417 32.5417 40.875 33.375C42.2083 34.2083 43.2292 35.1771 43.9375 36.2812C44.6458 37.3854 45 38.6042 45 39.9375V44H15ZM48.75 44V39.9375C48.75 38.8542 48.6146 37.8333 48.3438 36.875C48.0729 35.9167 47.6667 35.0208 47.125 34.1875C47.5833 34.1042 48.0521 34.0521 48.5312 34.0312C49.0104 34.0104 49.5 34 50 34C53 34 55.4167 34.5521 57.25 35.6562C59.0833 36.7604 60 38.2292 60 40.0625V44H48.75ZM20.3125 39H39.75C39.3333 38.1667 38.1771 37.4375 36.2812 36.8125C34.3854 36.1875 32.2917 35.875 30 35.875C27.7083 35.875 25.6146 36.1875 23.7188 36.8125C21.8229 37.4375 20.6875 38.1667 20.3125 39ZM10 31.5C8.625 31.5 7.44792 31.0104 6.46875 30.0312C5.48958 29.0521 5 27.875 5 26.5C5 25.0833 5.48958 23.8958 6.46875 22.9375C7.44792 21.9792 8.625 21.5 10 21.5C11.4167 21.5 12.6042 21.9792 13.5625 22.9375C14.5208 23.8958 15 25.0833 15 26.5C15 27.875 14.5208 29.0521 13.5625 30.0312C12.6042 31.0104 11.4167 31.5 10 31.5ZM50 31.5C48.625 31.5 47.4479 31.0104 46.4688 30.0312C45.4896 29.0521 45 27.875 45 26.5C45 25.0833 45.4896 23.8958 46.4688 22.9375C47.4479 21.9792 48.625 21.5 50 21.5C51.4167 21.5 52.6042 21.9792 53.5625 22.9375C54.5208 23.8958 55 25.0833 55 26.5C55 27.875 54.5208 29.0521 53.5625 30.0312C52.6042 31.0104 51.4167 31.5 50 31.5ZM30 29C27.9167 29 26.1458 28.2708 24.6875 26.8125C23.2292 25.3542 22.5 23.5833 22.5 21.5C22.5 19.375 23.2292 17.5938 24.6875 16.1562C26.1458 14.7188 27.9167 14 30 14C32.125 14 33.9062 14.7188 35.3438 16.1562C36.7812 17.5938 37.5 19.375 37.5 21.5C37.5 23.5833 36.7812 25.3542 35.3438 26.8125C33.9062 28.2708 32.125 29 30 29ZM30 24C30.7083 24 31.3021 23.7604 31.7813 23.2812C32.2604 22.8021 32.5 22.2083 32.5 21.5C32.5 20.7917 32.2604 20.1979 31.7813 19.7188C31.3021 19.2396 30.7083 19 30 19C29.2917 19 28.6979 19.2396 28.2188 19.7188C27.7396 20.1979 27.5 20.7917 27.5 21.5C27.5 22.2083 27.7396 22.8021 28.2188 23.2812C28.6979 23.7604 29.2917 24 30 24Z" fill="#F39324"/>
</g>
</g>
</svg>
