<svg width="22" height="25" viewBox="0 0 22 25" fill="none" xmlns="http://www.w3.org/2000/svg">
<g id="nostr">
<path id="Vector" d="M21.4378 5.73933C21.3811 5.17774 21.1983 4.6704 20.8455 4.22687C20.5336 3.8344 20.1335 3.55361 19.7554 3.23771C19.5664 3.08136 19.0655 2.65698 19.0025 2.41766C18.9269 2.1273 19.0434 1.83055 19.3049 1.73482C19.6987 1.60081 20.3572 1.604 20.7384 1.62953C21.0629 1.65505 21.3968 1.54018 21.4094 1.40617C21.422 1.27215 21.2298 1.07432 20.9747 1.01369C20.773 0.965831 20.4643 0.892442 20.2784 0.767999C19.9476 0.541449 19.6105 0.126639 19.1506 0.034105C18.4953 -0.0967195 18.0385 0.152166 17.8242 0.723327C17.484 1.54018 17.7045 2.58678 18.4197 3.35258C18.741 3.69719 19.1159 3.99394 19.4751 4.30345C19.7397 4.53319 19.9728 4.78527 20.1965 5.06606C20.7951 5.82229 20.1618 7.21031 20.0106 7.36985C19.4814 7.92506 19.0214 8.02717 18.1078 7.98888C17.2099 7.95059 14.8817 6.73169 13.6499 6.6934C10.6003 6.59767 8.48321 8.02398 7.76807 8.39411C6.69692 8.94932 5.17212 8.98442 5.12486 9.00037C4.43492 9.05462 3.00462 9.10886 2.29578 9.35775C1.29709 9.63854 0.758368 10.1012 0.392918 11.135C0.279503 11.5818 0.257451 11.987 0.418122 12.2327C0.76782 12.7688 1.7098 13.2155 2.13825 13.4612C2.35878 13.5888 2.79354 13.4293 2.87861 13.3686C3.35747 13.04 3.77963 12.7815 4.3467 12.6986C4.46642 12.6794 5.26663 12.5358 5.66988 12.8358C5.96287 13.0527 6.21491 13.1836 6.5457 13.3367C7.15058 13.6143 8.48321 13.9653 8.50842 13.9717C8.68799 14.0196 8.91797 14.1121 8.91797 14.2748C8.91797 14.5046 6.80089 16.2978 6.68432 16.3425C6.1519 16.5627 5.84316 16.9169 5.74549 17.4274C5.71399 17.5933 5.64153 17.7656 5.55017 17.9028C5.20677 18.407 3.68511 20.5959 3.28186 21.1958C3.08968 21.4766 2.89121 21.617 2.61712 21.6616C2.22332 21.7255 1.92718 21.735 1.7602 22.019C1.65624 22.2009 1.7224 22.5551 1.79171 22.7848C1.87047 23.0465 1.65624 23.3719 1.64049 23.4102C1.45146 23.7836 1.3727 24.1409 1.40106 24.5015C1.41051 24.6483 1.41996 24.9897 1.65939 24.9993C1.89882 25.012 1.96183 24.8557 1.99019 24.7982C2.02484 24.728 2.15716 24.4377 2.19496 24.3675C2.34933 24.0771 2.93846 23.4517 3.00462 23.3783C3.2157 23.1422 6.36613 18.7484 6.36613 18.7484C6.5394 18.5187 6.71898 18.2825 7.01197 18.1677C7.41837 18.0081 7.68931 17.6795 7.76807 17.2455C7.78697 17.1498 9.04399 16.1734 9.57956 15.7618C9.77489 15.6118 10.9594 15.13 10.9784 15.1364C10.9784 15.1459 9.89461 16.7988 9.55751 17.6763C9.50395 17.8167 9.41574 18.2953 9.5134 18.5378C9.66462 18.9111 9.98912 19.0739 10.3577 18.9622C10.4711 18.9271 10.5719 18.8697 10.6696 18.8154C10.7137 18.7899 10.7578 18.7675 10.8019 18.7452C10.846 18.7229 10.887 18.7005 10.9311 18.6782C11.0319 18.624 11.1296 18.5729 11.2272 18.541C11.5895 18.4197 11.955 18.3049 12.3204 18.19L13.0608 17.9571C13.5775 17.7943 14.0941 17.6316 14.6108 17.4721C14.7242 17.437 14.8345 17.3955 14.9762 17.3987C15.055 17.3987 15.1401 17.4306 15.1684 17.5486C15.1684 17.555 15.2283 17.9124 15.4457 18.056C15.5559 18.1294 15.7922 18.1868 15.9686 18.1804C16.123 18.174 16.3183 18.2187 16.4191 18.3081L16.5483 18.4197C16.6428 18.4995 16.7594 18.5442 16.8381 18.5665C16.9201 18.5889 17.0713 18.5889 17.1595 18.4963C17.254 18.3942 17.2193 18.2283 17.2067 18.1772C17.1878 18.107 17.15 18.0528 17.1217 18.0049L17.0429 17.8805C16.9673 17.7592 16.8949 17.638 16.8161 17.5167C16.5987 17.1817 16.3845 16.8498 16.164 16.518C15.934 16.1734 15.578 16.0362 15.1117 16.1096C14.9321 16.1383 10.991 17.3763 10.9626 17.3827C11.1737 16.9902 12.437 15.2225 12.7898 14.9992C13.0513 14.8428 13.1616 14.6928 13.6373 14.6099C14.5667 14.4503 16.583 13.9781 17.0839 13.6111C18.0574 12.8964 18.1361 11.2723 18.1204 10.9468C18.1015 10.6213 18.2054 10.398 18.4858 10.248C18.6244 10.1746 20.124 9.33541 20.8581 8.09737C21.2991 7.37304 21.526 6.59767 21.4378 5.73933Z" fill="#28468A"/>
</g>
</svg>
