<svg width="18" height="20" viewBox="0 0 18 20" fill="none" xmlns="http://www.w3.org/2000/svg">
<g id="nostr">
<path id="Vector" d="M17.2508 4.59147C17.2054 4.1422 17.0593 3.73632 16.777 3.3815C16.5275 3.06752 16.2074 2.84288 15.9049 2.59017C15.7537 2.46509 15.353 2.12558 15.3026 1.93413C15.2421 1.70184 15.3353 1.46444 15.5445 1.38786C15.8596 1.28065 16.3863 1.2832 16.6913 1.30362C16.9509 1.32404 17.218 1.23215 17.2281 1.12493C17.2382 1.01772 17.0845 0.859456 16.8803 0.810955C16.719 0.772665 16.472 0.713954 16.3233 0.614399C16.0587 0.433159 15.789 0.101312 15.421 0.027284C14.8968 -0.0773756 14.5314 0.121733 14.36 0.578662C14.0878 1.23215 14.2642 2.06942 14.8363 2.68207C15.0934 2.95775 15.3933 3.19515 15.6806 3.44276C15.8923 3.62656 16.0788 3.82822 16.2578 4.05285C16.7367 4.65784 16.2301 5.76825 16.1091 5.89588C15.6857 6.34005 15.3177 6.42173 14.5868 6.3911C13.8685 6.36047 12.006 5.38535 11.0205 5.35472C8.58083 5.27814 6.88716 6.41918 6.31504 6.71529C5.45812 7.15946 4.23828 7.18754 4.20047 7.2003C3.64852 7.24369 2.50428 7.28709 1.93721 7.4862C1.13826 7.71083 0.70728 8.08097 0.414921 8.90804C0.324188 9.26541 0.306546 9.5896 0.435084 9.78616C0.714842 10.215 1.46842 10.5724 1.81119 10.7689C1.98761 10.871 2.33542 10.7434 2.40347 10.6949C2.78656 10.432 3.12429 10.2252 3.57795 10.1588C3.67372 10.1435 4.31389 10.0287 4.63649 10.2686C4.87088 10.4422 5.07251 10.5469 5.33715 10.6694C5.82105 10.8915 6.88716 11.1723 6.90732 11.1774C7.05098 11.2157 7.23497 11.2897 7.23497 11.4199C7.23497 11.6037 5.5413 13.0383 5.44804 13.074C5.02211 13.2501 4.77511 13.5335 4.69698 13.9419C4.67178 14.0747 4.61381 14.2125 4.54072 14.3223C4.266 14.7256 3.04868 16.4767 2.72607 16.9566C2.57233 17.1813 2.41355 17.2936 2.19428 17.3293C1.87924 17.3804 1.64233 17.388 1.50875 17.6152C1.42558 17.7607 1.4785 18.0441 1.53395 18.2279C1.59696 18.4372 1.42558 18.6975 1.41298 18.7282C1.26176 19.0268 1.19875 19.3127 1.22143 19.6012C1.22899 19.7186 1.23655 19.9918 1.4281 19.9994C1.61964 20.0096 1.67005 19.8845 1.69273 19.8386C1.72046 19.7824 1.82631 19.5501 1.85656 19.494C1.98005 19.2617 2.45136 18.7614 2.50428 18.7027C2.67315 18.5138 5.19349 14.9987 5.19349 14.9987C5.33211 14.8149 5.47577 14.626 5.71016 14.5341C6.03528 14.4065 6.25203 14.1436 6.31504 13.7964C6.33016 13.7198 7.33578 12.9387 7.76424 12.6094C7.9205 12.4894 8.86815 12.104 8.88327 12.1091C8.88327 12.1168 8.01627 13.439 7.74659 14.141C7.70375 14.2533 7.63318 14.6362 7.71131 14.8302C7.83229 15.1289 8.09188 15.2591 8.38676 15.1698C8.47749 15.1417 8.55814 15.0957 8.63627 15.0523C8.67156 15.0319 8.70684 15.014 8.74213 14.9962C8.77741 14.9783 8.81018 14.9604 8.84546 14.9426C8.92611 14.8992 9.00424 14.8583 9.08237 14.8328C9.37221 14.7358 9.66457 14.6439 9.95693 14.552L10.5492 14.3657C10.9625 14.2355 11.3759 14.1053 11.7892 13.9777C11.88 13.9496 11.9682 13.9164 12.0816 13.9189C12.1446 13.9189 12.2126 13.9445 12.2353 14.0389C12.2353 14.044 12.2832 14.3299 12.4571 14.4448C12.5453 14.5035 12.7344 14.5494 12.8755 14.5443C12.999 14.5392 13.1552 14.575 13.2359 14.6465L13.3392 14.7358C13.4148 14.7996 13.5081 14.8353 13.5711 14.8532C13.6366 14.8711 13.7576 14.8711 13.8282 14.7971C13.9038 14.7154 13.8761 14.5826 13.866 14.5418C13.8509 14.4856 13.8206 14.4422 13.7979 14.4039L13.7349 14.3044C13.6744 14.2074 13.6165 14.1104 13.5535 14.0134C13.3796 13.7454 13.2082 13.4799 13.0317 13.2144C12.8478 12.9387 12.563 12.8289 12.19 12.8877C12.0463 12.9106 8.89335 13.9011 8.87067 13.9062C9.03953 13.5922 10.0502 12.178 10.3325 11.9993C10.5417 11.8742 10.6299 11.7543 11.0104 11.6879C11.7539 11.5603 13.367 11.1825 13.7677 10.8889C14.5465 10.3171 14.6095 9.0178 14.5969 8.75743C14.5818 8.49706 14.6649 8.31837 14.8892 8.19839C15.0001 8.13968 16.1998 7.46833 16.7871 6.47789C17.1399 5.89844 17.3214 5.27814 17.2508 4.59147Z" fill="current"/>
</g>
</svg>
