<svg width="24" height="29" viewBox="0 0 24 29" fill="none" xmlns="http://www.w3.org/2000/svg">
<path d="M23.9787 6.51153C23.9143 5.87439 23.707 5.29878 23.3067 4.79558C22.9528 4.3503 22.4989 4.03173 22.07 3.67333C21.8555 3.49594 21.2872 3.01446 21.2157 2.74295C21.1299 2.41352 21.2622 2.07684 21.5589 1.96824C22.0056 1.81619 22.7527 1.81981 23.1852 1.84877C23.5533 1.87773 23.9322 1.74741 23.9465 1.59536C23.9608 1.44331 23.7428 1.21886 23.4532 1.15008C23.2245 1.09578 22.8742 1.01252 22.6633 0.87133C22.288 0.614299 21.9056 0.143678 21.3837 0.0386937C20.6403 -0.109733 20.122 0.172639 19.8789 0.820647C19.4929 1.74741 19.7431 2.93482 20.5545 3.80366C20.9191 4.19463 21.3444 4.53131 21.7519 4.88246C22.0521 5.14312 22.3166 5.42911 22.5704 5.74768C23.2495 6.60566 22.5311 8.18043 22.3595 8.36143C21.759 8.99134 21.2372 9.10719 20.2006 9.06374C19.1819 9.0203 16.5405 7.6374 15.143 7.59396C11.6831 7.48536 9.28113 9.10357 8.46976 9.5235C7.2545 10.1534 5.52453 10.1932 5.47092 10.2113C4.68815 10.2729 3.06541 10.3344 2.2612 10.6168C1.12814 10.9354 0.516937 11.4603 0.102318 12.6332C-0.026357 13.14 -0.0513764 13.5998 0.130913 13.8786C0.527661 14.4867 1.59638 14.9936 2.08248 15.2723C2.33268 15.4171 2.82594 15.2361 2.92244 15.1673C3.46574 14.7945 3.94469 14.5012 4.58807 14.4071C4.72389 14.3854 5.63176 14.2225 6.08927 14.5628C6.42168 14.8089 6.70763 14.9574 7.08293 15.1311C7.7692 15.4461 9.28113 15.8443 9.30972 15.8515C9.51346 15.9058 9.77438 16.0108 9.77438 16.1955C9.77438 16.4561 7.37245 18.4906 7.2402 18.5413C6.63614 18.7911 6.28586 19.1929 6.17506 19.7722C6.13932 19.9604 6.05711 20.1559 5.95345 20.3116C5.56385 20.8836 3.83746 23.367 3.37995 24.0476C3.16192 24.3661 2.93674 24.5254 2.62578 24.5761C2.17899 24.6485 1.843 24.6594 1.65357 24.9816C1.53561 25.1879 1.61067 25.5898 1.68931 25.8504C1.77867 26.1473 1.53561 26.5165 1.51774 26.56C1.30328 26.9835 1.21393 27.389 1.24609 27.7981C1.25682 27.9646 1.26754 28.3519 1.53919 28.3628C1.81083 28.3773 1.88232 28.1999 1.91449 28.1347C1.95381 28.0551 2.10393 27.7257 2.14682 27.646C2.32196 27.3166 2.99035 26.607 3.06541 26.5238C3.30489 26.2559 6.87919 21.2709 6.87919 21.2709C7.07578 21.0103 7.27952 20.7424 7.61193 20.612C8.07301 20.431 8.3804 20.0582 8.46976 19.5658C8.49121 19.4572 9.91735 18.3494 10.525 17.8824C10.7466 17.7123 12.0905 17.1657 12.112 17.1729C12.112 17.1838 10.8824 19.059 10.5 20.0545C10.4392 20.2138 10.3391 20.7569 10.4499 21.032C10.6215 21.4555 10.9896 21.6402 11.4078 21.5135C11.5365 21.4736 11.6509 21.4085 11.7617 21.3469C11.8117 21.318 11.8618 21.2926 11.9118 21.2673C11.9619 21.242 12.0083 21.2166 12.0584 21.1913C12.1727 21.1297 12.2835 21.0718 12.3943 21.0356C12.8054 20.898 13.22 20.7677 13.6346 20.6374L14.4746 20.3731C15.0608 20.1885 15.647 20.0039 16.2331 19.8228C16.3618 19.783 16.4869 19.736 16.6478 19.7396C16.7371 19.7396 16.8336 19.7758 16.8658 19.9097C16.8658 19.917 16.9337 20.3224 17.1803 20.4853C17.3054 20.5686 17.5735 20.6338 17.7737 20.6265C17.9488 20.6193 18.1704 20.67 18.2848 20.7713L18.4313 20.898C18.5386 20.9885 18.6708 21.0392 18.7602 21.0646C18.8531 21.0899 19.0247 21.0899 19.1248 20.9849C19.232 20.8691 19.1927 20.6808 19.1784 20.6229C19.1569 20.5433 19.114 20.4817 19.0819 20.4274L18.9925 20.2862C18.9067 20.1487 18.8245 20.0111 18.7352 19.8735C18.4885 19.4934 18.2455 19.1169 17.9953 18.7404C17.7344 18.3494 17.3305 18.1938 16.8015 18.277C16.5977 18.3096 12.1263 19.7142 12.0941 19.7215C12.3336 19.2762 13.7669 17.2706 14.1672 17.0172C14.4639 16.8398 14.589 16.6697 15.1287 16.5756C16.1831 16.3946 18.4707 15.8588 19.039 15.4425C20.1434 14.6315 20.2328 12.7889 20.2149 12.4196C20.1935 12.0504 20.3114 11.797 20.6295 11.6268C20.7868 11.5436 22.4882 10.5915 23.321 9.18683C23.8214 8.36505 24.0787 7.48536 23.9787 6.51153Z" fill="#FF5C00"/>
</svg>
