<svg width="60" height="59" viewBox="0 0 60 59" fill="none" xmlns="http://www.w3.org/2000/svg">
<g id="open source icon" clip-path="url(#clip0_441_12868)">
<path id="Vector" fill-rule="evenodd" clip-rule="evenodd" d="M29.9106 0C13.3708 0 0 13.4694 0 30.1329C0 43.4529 8.56714 54.728 20.452 58.7186C21.938 59.0186 22.4822 58.0702 22.4822 57.2724C22.4822 56.5739 22.4333 54.1794 22.4333 51.6845C14.1129 53.4808 12.3802 48.0924 12.3802 48.0924C11.0431 44.6002 9.06184 43.7027 9.06184 43.7027C6.33857 41.8567 9.2602 41.8567 9.2602 41.8567C12.281 42.0563 13.8661 44.9498 13.8661 44.9498C16.5398 49.5392 20.8482 48.2424 22.5814 47.4441C22.8288 45.4984 23.6216 44.1514 24.4635 43.4033C17.8273 42.7047 10.8453 40.1106 10.8453 28.5361C10.8453 25.2435 12.0331 22.5496 13.9151 20.4545C13.6182 19.7063 12.578 16.6127 14.2127 12.472C14.2127 12.472 16.7382 11.6737 22.4327 15.5651C24.8707 14.9055 27.385 14.57 29.9106 14.5671C32.4361 14.5671 35.0106 14.9167 37.388 15.5651C43.0831 11.6737 45.6086 12.472 45.6086 12.472C47.2433 16.6127 46.2024 19.7063 45.9055 20.4545C47.8371 22.5496 48.9759 25.2435 48.9759 28.5361C48.9759 40.1106 41.9939 42.6545 35.3082 43.4033C36.398 44.351 37.3384 46.1467 37.3384 48.9906C37.3384 53.0314 37.2894 56.2745 37.2894 57.2718C37.2894 58.0702 37.8343 59.0186 39.3196 58.7192C51.2045 54.7273 59.7716 43.4529 59.7716 30.1329C59.8206 13.4694 46.4008 0 29.9106 0Z" fill="#FF5C00"/>
</g>
<defs>
<clipPath id="clip0_441_12868">
<rect width="60" height="58.7755" fill="white"/>
</clipPath>
</defs>
</svg>
