<svg width="555" height="1345" viewBox="0 0 555 1345" fill="none" xmlns="http://www.w3.org/2000/svg">
<g clip-path="url(#clip0_1_178)">
<rect x="128.638" y="233.909" width="350.755" height="857.656" fill="white"/>
<path d="M274.688 708.572H233.124V888.205H286.546C302.561 888.205 314.541 883.711 322.365 875.088C330.188 866.465 334.222 851.404 334.222 830.149V779.138C334.222 752.539 329.699 734.2 320.286 723.997C310.873 713.795 295.592 708.451 274.688 708.451V708.572Z" fill="url(#paint0_radial_1_178)"/>
<path d="M310.873 610.558C319.92 601.206 324.443 585.295 324.443 563.19V530.518C324.443 490.559 308.795 470.519 277.622 470.033H232.88V624.768H269.432C287.891 624.768 301.949 619.91 310.995 610.436L310.873 610.558Z" fill="url(#paint1_radial_1_178)"/>
<path d="M277.5 0C124.325 0 0 123.399 0 275.704V1069.3C0 1221.48 124.202 1345 277.5 1345C430.675 1345 555 1221.6 555 1069.3V275.704C555 123.52 430.797 0 277.5 0ZM426.396 833.064C426.396 878.367 414.416 912.739 390.7 936.423C375.786 951.241 356.594 961.322 333.122 966.909V987.677C333.122 1002.5 320.898 1014.64 305.983 1014.64C291.069 1014.64 278.722 1002.5 278.722 987.677V971.888H232.88V987.677C232.88 1002.5 220.655 1014.64 205.741 1014.64C190.827 1014.64 178.602 1002.5 178.602 987.677V971.888H170.167C150.486 971.888 140.584 962.05 140.584 942.496V415.743C140.584 396.188 150.486 386.35 170.167 386.35H178.602V357.201C178.602 342.383 190.827 330.238 205.741 330.238C220.655 330.238 232.88 342.383 232.88 357.201V386.35H278.722V357.201C278.722 342.383 290.947 330.238 305.983 330.238C321.02 330.238 333.122 342.383 333.122 357.201V388.78C333.122 389.994 332.878 391.087 332.756 392.18C354.393 397.524 371.752 406.512 384.588 419.386C406.348 441.491 417.472 475.377 417.472 521.045V544.364C417.472 604.363 397.302 642.743 357.449 659.14V660.719C403.536 676.265 426.519 717.074 426.519 782.782V833.064H426.396Z" fill="url(#paint2_radial_1_178)"/>
</g>
<defs>
<radialGradient id="paint0_radial_1_178" cx="0" cy="0" r="1" gradientUnits="userSpaceOnUse" gradientTransform="translate(156.04 176.833) rotate(85.8251) scale(846.22 349.185)">
<stop stop-color="#FF9900"/>
<stop offset="1" stop-color="#FF5C00"/>
</radialGradient>
<radialGradient id="paint1_radial_1_178" cx="0" cy="0" r="1" gradientUnits="userSpaceOnUse" gradientTransform="translate(156.04 176.833) rotate(85.8251) scale(846.22 349.185)">
<stop stop-color="#FF9900"/>
<stop offset="1" stop-color="#FF5C00"/>
</radialGradient>
<radialGradient id="paint2_radial_1_178" cx="0" cy="0" r="1" gradientUnits="userSpaceOnUse" gradientTransform="translate(156.04 176.833) rotate(85.8251) scale(846.22 349.185)">
<stop stop-color="#FF9900"/>
<stop offset="1" stop-color="#FF5C00"/>
</radialGradient>
<clipPath id="clip0_1_178">
<rect width="555" height="1345" fill="white"/>
</clipPath>
</defs>
</svg>
