<svg width="45" height="46" viewBox="0 0 45 46" fill="none" xmlns="http://www.w3.org/2000/svg">
<g id="icon paynym">
<mask id="mask0_566_16612" style="mask-type:alpha" maskUnits="userSpaceOnUse" x="0" y="0" width="45" height="46">
<rect id="Bounding box" y="0.5" width="45" height="45" fill="#D9D9D9"/>
</mask>
<g mask="url(#mask0_566_16612)">
<path id="smart_toy" d="M7.5 28.625C5.9375 28.625 4.60938 28.0781 3.51562 26.9844C2.42187 25.8906 1.875 24.5625 1.875 23C1.875 21.4375 2.42187 20.1094 3.51562 19.0156C4.60938 17.9219 5.9375 17.375 7.5 17.375V13.625C7.5 12.5938 7.86719 11.7109 8.60156 10.9766C9.33594 10.2422 10.2188 9.875 11.25 9.875H16.875C16.875 8.3125 17.4219 6.98438 18.5156 5.89062C19.6094 4.79687 20.9375 4.25 22.5 4.25C24.0625 4.25 25.3906 4.79687 26.4844 5.89062C27.5781 6.98438 28.125 8.3125 28.125 9.875H33.75C34.7812 9.875 35.6641 10.2422 36.3984 10.9766C37.1328 11.7109 37.5 12.5938 37.5 13.625V17.375C39.0625 17.375 40.3906 17.9219 41.4844 19.0156C42.5781 20.1094 43.125 21.4375 43.125 23C43.125 24.5625 42.5781 25.8906 41.4844 26.9844C40.3906 28.0781 39.0625 28.625 37.5 28.625V36.125C37.5 37.1562 37.1328 38.0391 36.3984 38.7734C35.6641 39.5078 34.7812 39.875 33.75 39.875H11.25C10.2188 39.875 9.33594 39.5078 8.60156 38.7734C7.86719 38.0391 7.5 37.1562 7.5 36.125V28.625ZM16.875 24.875C17.6562 24.875 18.3203 24.6016 18.8672 24.0547C19.4141 23.5078 19.6875 22.8438 19.6875 22.0625C19.6875 21.2812 19.4141 20.6172 18.8672 20.0703C18.3203 19.5234 17.6562 19.25 16.875 19.25C16.0938 19.25 15.4297 19.5234 14.8828 20.0703C14.3359 20.6172 14.0625 21.2812 14.0625 22.0625C14.0625 22.8438 14.3359 23.5078 14.8828 24.0547C15.4297 24.6016 16.0938 24.875 16.875 24.875ZM28.125 24.875C28.9062 24.875 29.5703 24.6016 30.1172 24.0547C30.6641 23.5078 30.9375 22.8438 30.9375 22.0625C30.9375 21.2812 30.6641 20.6172 30.1172 20.0703C29.5703 19.5234 28.9062 19.25 28.125 19.25C27.3438 19.25 26.6797 19.5234 26.1328 20.0703C25.5859 20.6172 25.3125 21.2812 25.3125 22.0625C25.3125 22.8438 25.5859 23.5078 26.1328 24.0547C26.6797 24.6016 27.3438 24.875 28.125 24.875ZM15 32.375H30V28.625H15V32.375Z" fill="#F39324"/>
</g>
</g>
</svg>
