<svg width="61" height="60" viewBox="0 0 61 60" fill="none" xmlns="http://www.w3.org/2000/svg">
<circle cx="30.0698" cy="30" r="30" fill="#210C00"/>
<mask id="mask0_4034_19825" style="mask-type:alpha" maskUnits="userSpaceOnUse" x="10" y="13" width="40" height="54">
<g clip-path="url(#clip0_4034_19825)">
<path d="M26.1518 53.0435H24.4337C23.9446 53.0435 23.548 53.4398 23.548 53.9287V55.8141C23.548 56.303 23.9446 56.6993 24.4337 56.6993H26.1518C26.6409 56.6993 27.0374 56.303 27.0374 55.8141V53.9287C27.0374 53.4398 26.6409 53.0435 26.1518 53.0435Z" fill="#FF5C00"/>
<path d="M26.1518 57.434H24.4337C23.9446 57.434 23.548 57.8303 23.548 58.3191V60.2046C23.548 60.6935 23.9446 61.0898 24.4337 61.0898H26.1518C26.6409 61.0898 27.0374 60.6935 27.0374 60.2046V58.3191C27.0374 57.8303 26.6409 57.434 26.1518 57.434Z" fill="#FF5C00"/>
<path d="M30.4996 53.0008H28.7815C28.2924 53.0008 27.8959 53.3971 27.8959 53.886V55.7715C27.8959 56.2603 28.2924 56.6566 28.7815 56.6566H30.4996C30.9887 56.6566 31.3853 56.2603 31.3853 55.7715V53.886C31.3853 53.3971 30.9887 53.0008 30.4996 53.0008Z" fill="#FF5C00"/>
<path d="M30.4996 57.3913H28.7815C28.2924 57.3913 27.8959 57.7877 27.8959 58.2765V60.1619C27.8959 60.6508 28.2924 61.0471 28.7815 61.0471H30.4996C30.9887 61.0471 31.3853 60.6508 31.3853 60.1619V58.2765C31.3853 57.7877 30.9887 57.3913 30.4996 57.3913Z" fill="#FF5C00"/>
<path d="M21.804 53.0435H20.0859C19.5968 53.0435 19.2003 53.4398 19.2003 53.9287V55.8141C19.2003 56.303 19.5968 56.6993 20.0859 56.6993H21.804C22.2931 56.6993 22.6896 56.303 22.6896 55.8141V53.9287C22.6896 53.4398 22.2931 53.0435 21.804 53.0435Z" fill="#FF5C00"/>
<path d="M21.804 57.434H20.0859C19.5968 57.434 19.2003 57.8303 19.2003 58.3191V60.2046C19.2003 60.6935 19.5968 61.0898 20.0859 61.0898H21.804C22.2931 61.0898 22.6896 60.6935 22.6896 60.2046V58.3191C22.6896 57.8303 22.2931 57.434 21.804 57.434Z" fill="#FF5C00"/>
<path d="M47.8909 53.0435H46.1728C45.6837 53.0435 45.2872 53.4398 45.2872 53.9287V55.8141C45.2872 56.303 45.6837 56.6993 46.1728 56.6993H47.8909C48.38 56.6993 48.7766 56.303 48.7766 55.8141V53.9287C48.7766 53.4398 48.38 53.0435 47.8909 53.0435Z" fill="#FF5C00"/>
<path d="M47.8909 57.434H46.1728C45.6837 57.434 45.2872 57.8303 45.2872 58.3191V60.2046C45.2872 60.6935 45.6837 61.0898 46.1728 61.0898H47.8909C48.38 61.0898 48.7766 60.6935 48.7766 60.2046V58.3191C48.7766 57.8303 48.38 57.434 47.8909 57.434Z" fill="#FF5C00"/>
<path d="M13.1083 53.0435H11.3902C10.9011 53.0435 10.5046 53.4398 10.5046 53.9287V55.8141C10.5046 56.303 10.9011 56.6993 11.3902 56.6993H13.1083C13.5974 56.6993 13.994 56.303 13.994 55.8141V53.9287C13.994 53.4398 13.5974 53.0435 13.1083 53.0435Z" fill="#FF5C00"/>
<path d="M13.1083 57.434H11.3902C10.9011 57.434 10.5046 57.8303 10.5046 58.3191V60.2046C10.5046 60.6935 10.9011 61.0898 11.3902 61.0898H13.1083C13.5974 61.0898 13.994 60.6935 13.994 60.2046V58.3191C13.994 57.8303 13.5974 57.434 13.1083 57.434Z" fill="#FF5C00"/>
<path d="M39.1953 53.0435H37.4772C36.9881 53.0435 36.5916 53.4398 36.5916 53.9287V55.8141C36.5916 56.303 36.9881 56.6993 37.4772 56.6993H39.1953C39.6844 56.6993 40.0809 56.303 40.0809 55.8141V53.9287C40.0809 53.4398 39.6844 53.0435 39.1953 53.0435Z" fill="#FF5C00"/>
<path d="M39.1953 57.434H37.4772C36.9881 57.434 36.5916 57.8303 36.5916 58.3191V60.2046C36.5916 60.6935 36.9881 61.0898 37.4772 61.0898H39.1953C39.6844 61.0898 40.0809 60.6935 40.0809 60.2046V58.3191C40.0809 57.8303 39.6844 57.434 39.1953 57.434Z" fill="#FF5C00"/>
<path d="M26.1518 44.3478H24.4337C23.9446 44.3478 23.548 44.7442 23.548 45.233V47.1184C23.548 47.6073 23.9446 48.0037 24.4337 48.0037H26.1518C26.6409 48.0037 27.0374 47.6073 27.0374 47.1184V45.233C27.0374 44.7442 26.6409 44.3478 26.1518 44.3478Z" fill="#FF5C00"/>
<path d="M30.4996 44.3051H28.7815C28.2924 44.3051 27.8959 44.7015 27.8959 45.1903V47.0758C27.8959 47.5647 28.2924 47.961 28.7815 47.961H30.4996C30.9887 47.961 31.3853 47.5647 31.3853 47.0758V45.1903C31.3853 44.7015 30.9887 44.3051 30.4996 44.3051Z" fill="#FF5C00"/>
<path d="M30.4996 22.566H28.7815C28.2924 22.566 27.8959 22.9623 27.8959 23.4512V25.3367C27.8959 25.8256 28.2924 26.2218 28.7815 26.2218H30.4996C30.9887 26.2218 31.3853 25.8256 31.3853 25.3367V23.4512C31.3853 22.9623 30.9887 22.566 30.4996 22.566Z" fill="#FF5C00"/>
<path d="M21.804 44.3478H20.0859C19.5968 44.3478 19.2003 44.7442 19.2003 45.233V47.1184C19.2003 47.6073 19.5968 48.0037 20.0859 48.0037H21.804C22.2931 48.0037 22.6896 47.6073 22.6896 47.1184V45.233C22.6896 44.7442 22.2931 44.3478 21.804 44.3478Z" fill="#FF5C00"/>
<path d="M21.804 22.6087H20.0859C19.5968 22.6087 19.2003 23.005 19.2003 23.4939V25.3793C19.2003 25.8682 19.5968 26.2645 20.0859 26.2645H21.804C22.2931 26.2645 22.6896 25.8682 22.6896 25.3793V23.4939C22.6896 23.005 22.2931 22.6087 21.804 22.6087Z" fill="#FF5C00"/>
<path d="M21.804 18.2609H20.0859C19.5968 18.2609 19.2003 18.6572 19.2003 19.1461V21.0315C19.2003 21.5204 19.5968 21.9167 20.0859 21.9167H21.804C22.2931 21.9167 22.6896 21.5204 22.6896 21.0315V19.1461C22.6896 18.6572 22.2931 18.2609 21.804 18.2609Z" fill="#FF5C00"/>
<path d="M17.4562 22.6087H15.738C15.2489 22.6087 14.8524 23.005 14.8524 23.4939V25.3793C14.8524 25.8682 15.2489 26.2645 15.738 26.2645H17.4562C17.9453 26.2645 18.3418 25.8682 18.3418 25.3793V23.4939C18.3418 23.005 17.9453 22.6087 17.4562 22.6087Z" fill="#FF5C00"/>
<path d="M21.804 26.9565H20.0859C19.5968 26.9565 19.2003 27.3529 19.2003 27.8417V29.7271C19.2003 30.216 19.5968 30.6123 20.0859 30.6123H21.804C22.2931 30.6123 22.6896 30.216 22.6896 29.7271V27.8417C22.6896 27.3529 22.2931 26.9565 21.804 26.9565Z" fill="#FF5C00"/>
<path d="M21.804 31.3043H20.0859C19.5968 31.3043 19.2003 31.7007 19.2003 32.1896V34.075C19.2003 34.5638 19.5968 34.9602 20.0859 34.9602H21.804C22.2931 34.9602 22.6896 34.5638 22.6896 34.075V32.1896C22.6896 31.7007 22.2931 31.3043 21.804 31.3043Z" fill="#FF5C00"/>
<path d="M17.4562 26.9565H15.738C15.2489 26.9565 14.8524 27.3529 14.8524 27.8417V29.7271C14.8524 30.216 15.2489 30.6123 15.738 30.6123H17.4562C17.9453 30.6123 18.3418 30.216 18.3418 29.7271V27.8417C18.3418 27.3529 17.9453 26.9565 17.4562 26.9565Z" fill="#FF5C00"/>
<path d="M39.1953 44.3478H37.4772C36.9881 44.3478 36.5916 44.7442 36.5916 45.233V47.1184C36.5916 47.6073 36.9881 48.0037 37.4772 48.0037H39.1953C39.6844 48.0037 40.0809 47.6073 40.0809 47.1184V45.233C40.0809 44.7442 39.6844 44.3478 39.1953 44.3478Z" fill="#FF5C00"/>
<path d="M39.1953 22.6087H37.4772C36.9881 22.6087 36.5916 23.005 36.5916 23.4939V25.3793C36.5916 25.8682 36.9881 26.2645 37.4772 26.2645H39.1953C39.6844 26.2645 40.0809 25.8682 40.0809 25.3793V23.4939C40.0809 23.005 39.6844 22.6087 39.1953 22.6087Z" fill="#FF5C00"/>
<path d="M39.1953 18.2609H37.4772C36.9881 18.2609 36.5916 18.6572 36.5916 19.1461V21.0315C36.5916 21.5204 36.9881 21.9167 37.4772 21.9167H39.1953C39.6844 21.9167 40.0809 21.5204 40.0809 21.0315V19.1461C40.0809 18.6572 39.6844 18.2609 39.1953 18.2609Z" fill="#FF5C00"/>
<path d="M43.5431 22.6087H41.825C41.3359 22.6087 40.9393 23.005 40.9393 23.4939V25.3793C40.9393 25.8682 41.3359 26.2645 41.825 26.2645H43.5431C44.0322 26.2645 44.4287 25.8682 44.4287 25.3793V23.4939C44.4287 23.005 44.0322 22.6087 43.5431 22.6087Z" fill="#FF5C00"/>
<path d="M39.1953 26.9565H37.4772C36.9881 26.9565 36.5916 27.3529 36.5916 27.8417V29.7271C36.5916 30.216 36.9881 30.6123 37.4772 30.6123H39.1953C39.6844 30.6123 40.0809 30.216 40.0809 29.7271V27.8417C40.0809 27.3529 39.6844 26.9565 39.1953 26.9565Z" fill="#FF5C00"/>
<path d="M39.1953 31.3043H37.4772C36.9881 31.3043 36.5916 31.7007 36.5916 32.1896V34.075C36.5916 34.5638 36.9881 34.9602 37.4772 34.9602H39.1953C39.6844 34.9602 40.0809 34.5638 40.0809 34.075V32.1896C40.0809 31.7007 39.6844 31.3043 39.1953 31.3043Z" fill="#FF5C00"/>
<path d="M43.5431 26.9565H41.825C41.3359 26.9565 40.9393 27.3529 40.9393 27.8417V29.7271C40.9393 30.216 41.3359 30.6123 41.825 30.6123H43.5431C44.0322 30.6123 44.4287 30.216 44.4287 29.7271V27.8417C44.4287 27.3529 44.0322 26.9565 43.5431 26.9565Z" fill="#FF5C00"/>
<path d="M26.1518 40.0427H24.4337C23.9446 40.0427 23.548 40.439 23.548 40.9278V42.8133C23.548 43.3022 23.9446 43.6985 24.4337 43.6985H26.1518C26.6409 43.6985 27.0374 43.3022 27.0374 42.8133V40.9278C27.0374 40.439 26.6409 40.0427 26.1518 40.0427Z" fill="#FF5C00"/>
<path d="M26.1518 35.6949H24.4337C23.9446 35.6949 23.548 36.0911 23.548 36.58V38.4655C23.548 38.9543 23.9446 39.3507 24.4337 39.3507H26.1518C26.6409 39.3507 27.0374 38.9543 27.0374 38.4655V36.58C27.0374 36.0911 26.6409 35.6949 26.1518 35.6949Z" fill="#FF5C00"/>
<path d="M30.4996 40H28.7815C28.2924 40 27.8959 40.3963 27.8959 40.8852V42.7706C27.8959 43.2595 28.2924 43.6558 28.7815 43.6558H30.4996C30.9887 43.6558 31.3853 43.2595 31.3853 42.7706V40.8852C31.3853 40.3963 30.9887 40 30.4996 40Z" fill="#FF5C00"/>
<path d="M30.4996 35.6522H28.7815C28.2924 35.6522 27.8959 36.0485 27.8959 36.5374V38.4228C27.8959 38.9117 28.2924 39.308 28.7815 39.308H30.4996C30.9887 39.308 31.3853 38.9117 31.3853 38.4228V36.5374C31.3853 36.0485 30.9887 35.6522 30.4996 35.6522Z" fill="#FF5C00"/>
<path d="M47.8909 48.6957H46.1728C45.6837 48.6957 45.2872 49.092 45.2872 49.5809V51.4663C45.2872 51.9551 45.6837 52.3515 46.1728 52.3515H47.8909C48.38 52.3515 48.7766 51.9551 48.7766 51.4663V49.5809C48.7766 49.092 48.38 48.6957 47.8909 48.6957Z" fill="#FF5C00"/>
<path d="M26.1518 18.3035H24.4337C23.9446 18.3035 23.548 18.6999 23.548 19.1887V21.0742C23.548 21.5631 23.9446 21.9594 24.4337 21.9594H26.1518C26.6409 21.9594 27.0374 21.5631 27.0374 21.0742V19.1887C27.0374 18.6999 26.6409 18.3035 26.1518 18.3035Z" fill="#FF5C00"/>
<path d="M30.4996 18.2609H28.7815C28.2924 18.2609 27.8959 18.6572 27.8959 19.1461V21.0315C27.8959 21.5204 28.2924 21.9167 28.7815 21.9167H30.4996C30.9887 21.9167 31.3853 21.5204 31.3853 21.0315V19.1461C31.3853 18.6572 30.9887 18.2609 30.4996 18.2609Z" fill="#FF5C00"/>
<path d="M30.4996 13.913H28.7815C28.2924 13.913 27.8959 14.3094 27.8959 14.7982V16.6837C27.8959 17.1725 28.2924 17.5689 28.7815 17.5689H30.4996C30.9887 17.5689 31.3853 17.1725 31.3853 16.6837V14.7982C31.3853 14.3094 30.9887 13.913 30.4996 13.913Z" fill="#FF5C00"/>
<path d="M26.1518 13.913H24.4337C23.9446 13.913 23.548 14.3094 23.548 14.7982V16.6837C23.548 17.1725 23.9446 17.5689 24.4337 17.5689H26.1518C26.6409 17.5689 27.0374 17.1725 27.0374 16.6837V14.7982C27.0374 14.3094 26.6409 13.913 26.1518 13.913Z" fill="#FF5C00"/>
<path d="M26.1518 48.7383H24.4337C23.9446 48.7383 23.548 49.1346 23.548 49.6235V51.509C23.548 51.9978 23.9446 52.3942 24.4337 52.3942H26.1518C26.6409 52.3942 27.0374 51.9978 27.0374 51.509V49.6235C27.0374 49.1346 26.6409 48.7383 26.1518 48.7383Z" fill="#FF5C00"/>
<path d="M30.4996 48.6957H28.7815C28.2924 48.6957 27.8959 49.092 27.8959 49.5809V51.4663C27.8959 51.9551 28.2924 52.3515 28.7815 52.3515H30.4996C30.9887 52.3515 31.3853 51.9551 31.3853 51.4663V49.5809C31.3853 49.092 30.9887 48.6957 30.4996 48.6957Z" fill="#FF5C00"/>
<path d="M26.1518 26.9992H24.4337C23.9446 26.9992 23.548 27.3955 23.548 27.8843V29.7698C23.548 30.2587 23.9446 30.655 24.4337 30.655H26.1518C26.6409 30.655 27.0374 30.2587 27.0374 29.7698V27.8843C27.0374 27.3955 26.6409 26.9992 26.1518 26.9992Z" fill="#FF5C00"/>
<path d="M30.4996 26.9565H28.7815C28.2924 26.9565 27.8959 27.3529 27.8959 27.8417V29.7271C27.8959 30.216 28.2924 30.6123 28.7815 30.6123H30.4996C30.9887 30.6123 31.3853 30.216 31.3853 29.7271V27.8417C31.3853 27.3529 30.9887 26.9565 30.4996 26.9565Z" fill="#FF5C00"/>
<path d="M21.804 48.7383H20.0859C19.5968 48.7383 19.2003 49.1346 19.2003 49.6235V51.509C19.2003 51.9978 19.5968 52.3942 20.0859 52.3942H21.804C22.2931 52.3942 22.6896 51.9978 22.6896 51.509V49.6235C22.6896 49.1346 22.2931 48.7383 21.804 48.7383Z" fill="#FF5C00"/>
<path d="M13.1083 48.7383H11.3902C10.9011 48.7383 10.5046 49.1346 10.5046 49.6235V51.509C10.5046 51.9978 10.9011 52.3942 11.3902 52.3942H13.1083C13.5974 52.3942 13.994 51.9978 13.994 51.509V49.6235C13.994 49.1346 13.5974 48.7383 13.1083 48.7383Z" fill="#FF5C00"/>
<path d="M39.1953 48.7383H37.4772C36.9881 48.7383 36.5916 49.1346 36.5916 49.6235V51.509C36.5916 51.9978 36.9881 52.3942 37.4772 52.3942H39.1953C39.6844 52.3942 40.0809 51.9978 40.0809 51.509V49.6235C40.0809 49.1346 39.6844 48.7383 39.1953 48.7383Z" fill="#FF5C00"/>
<path d="M34.8746 53.123H33.1565C32.6673 53.123 32.2708 53.5193 32.2708 54.0082V55.8937C32.2708 56.3825 32.6673 56.7788 33.1565 56.7788H34.8746C35.3637 56.7788 35.7602 56.3825 35.7602 55.8937V54.0082C35.7602 53.5193 35.3637 53.123 34.8746 53.123Z" fill="#FF5C00"/>
<path d="M34.8746 57.5135H33.1565C32.6673 57.5135 32.2708 57.9098 32.2708 58.3987V60.2841C32.2708 60.773 32.6673 61.1693 33.1565 61.1693H34.8746C35.3637 61.1693 35.7602 60.773 35.7602 60.2841V58.3987C35.7602 57.9098 35.3637 57.5135 34.8746 57.5135Z" fill="#FF5C00"/>
<path d="M17.4833 53.123H15.7652C15.2761 53.123 14.8796 53.5193 14.8796 54.0082V55.8937C14.8796 56.3825 15.2761 56.7788 15.7652 56.7788H17.4833C17.9724 56.7788 18.369 56.3825 18.369 55.8937V54.0082C18.369 53.5193 17.9724 53.123 17.4833 53.123Z" fill="#FF5C00"/>
<path d="M17.4833 57.5135H15.7652C15.2761 57.5135 14.8796 57.9098 14.8796 58.3987V60.2841C14.8796 60.773 15.2761 61.1693 15.7652 61.1693H17.4833C17.9724 61.1693 18.369 60.773 18.369 60.2841V58.3987C18.369 57.9098 17.9724 57.5135 17.4833 57.5135Z" fill="#FF5C00"/>
<path d="M43.5703 53.123H41.8521C41.363 53.123 40.9665 53.5193 40.9665 54.0082V55.8937C40.9665 56.3825 41.363 56.7788 41.8521 56.7788H43.5703C44.0594 56.7788 44.4559 56.3825 44.4559 55.8937V54.0082C44.4559 53.5193 44.0594 53.123 43.5703 53.123Z" fill="#FF5C00"/>
<path d="M43.5703 57.5135H41.8521C41.363 57.5135 40.9665 57.9098 40.9665 58.3987V60.2841C40.9665 60.773 41.363 61.1693 41.8521 61.1693H43.5703C44.0594 61.1693 44.4559 60.773 44.4559 60.2841V58.3987C44.4559 57.9098 44.0594 57.5135 43.5703 57.5135Z" fill="#FF5C00"/>
<path d="M34.8746 44.4273H33.1565C32.6673 44.4273 32.2708 44.8237 32.2708 45.3125V47.198C32.2708 47.6869 32.6673 48.0831 33.1565 48.0831H34.8746C35.3637 48.0831 35.7602 47.6869 35.7602 47.198V45.3125C35.7602 44.8237 35.3637 44.4273 34.8746 44.4273Z" fill="#FF5C00"/>
<path d="M17.4833 44.4273H15.7652C15.2761 44.4273 14.8796 44.8237 14.8796 45.3125V47.198C14.8796 47.6869 15.2761 48.0831 15.7652 48.0831H17.4833C17.9724 48.0831 18.369 47.6869 18.369 47.198V45.3125C18.369 44.8237 17.9724 44.4273 17.4833 44.4273Z" fill="#FF5C00"/>
<path d="M43.5703 44.4273H41.8521C41.363 44.4273 40.9665 44.8237 40.9665 45.3125V47.198C40.9665 47.6869 41.363 48.0831 41.8521 48.0831H43.5703C44.0594 48.0831 44.4559 47.6869 44.4559 47.198V45.3125C44.4559 44.8237 44.0594 44.4273 43.5703 44.4273Z" fill="#FF5C00"/>
<path d="M34.8746 40.1223H33.1565C32.6673 40.1223 32.2708 40.5186 32.2708 41.0075V42.893C32.2708 43.3818 32.6673 43.7781 33.1565 43.7781H34.8746C35.3637 43.7781 35.7602 43.3818 35.7602 42.893V41.0075C35.7602 40.5186 35.3637 40.1223 34.8746 40.1223Z" fill="#FF5C00"/>
<path d="M34.8746 35.7744H33.1565C32.6673 35.7744 32.2708 36.1708 32.2708 36.6597V38.5451C32.2708 39.034 32.6673 39.4303 33.1565 39.4303H34.8746C35.3637 39.4303 35.7602 39.034 35.7602 38.5451V36.6597C35.7602 36.1708 35.3637 35.7744 34.8746 35.7744Z" fill="#FF5C00"/>
<path d="M34.8746 18.3831H33.1565C32.6673 18.3831 32.2708 18.7795 32.2708 19.2683V21.1538C32.2708 21.6427 32.6673 22.039 33.1565 22.039H34.8746C35.3637 22.039 35.7602 21.6427 35.7602 21.1538V19.2683C35.7602 18.7795 35.3637 18.3831 34.8746 18.3831Z" fill="#FF5C00"/>
<path d="M34.8475 13.913H33.1294C32.6402 13.913 32.2437 14.3094 32.2437 14.7982V16.6837C32.2437 17.1725 32.6402 17.5689 33.1294 17.5689H34.8475C35.3366 17.5689 35.7331 17.1725 35.7331 16.6837V14.7982C35.7331 14.3094 35.3366 13.913 34.8475 13.913Z" fill="#FF5C00"/>
<path d="M34.8746 48.8179H33.1565C32.6673 48.8179 32.2708 49.2143 32.2708 49.7031V51.5886C32.2708 52.0775 32.6673 52.4737 33.1565 52.4737H34.8746C35.3637 52.4737 35.7602 52.0775 35.7602 51.5886V49.7031C35.7602 49.2143 35.3637 48.8179 34.8746 48.8179Z" fill="#FF5C00"/>
<path d="M34.8746 27.0788H33.1565C32.6673 27.0788 32.2708 27.4751 32.2708 27.964V29.8495C32.2708 30.3383 32.6673 30.7346 33.1565 30.7346H34.8746C35.3637 30.7346 35.7602 30.3383 35.7602 29.8495V27.964C35.7602 27.4751 35.3637 27.0788 34.8746 27.0788Z" fill="#FF5C00"/>
<path d="M17.4833 48.8179H15.7652C15.2761 48.8179 14.8796 49.2143 14.8796 49.7031V51.5886C14.8796 52.0775 15.2761 52.4737 15.7652 52.4737H17.4833C17.9724 52.4737 18.369 52.0775 18.369 51.5886V49.7031C18.369 49.2143 17.9724 48.8179 17.4833 48.8179Z" fill="#FF5C00"/>
<path d="M43.5703 48.8179H41.8521C41.363 48.8179 40.9665 49.2143 40.9665 49.7031V51.5886C40.9665 52.0775 41.363 52.4737 41.8521 52.4737H43.5703C44.0594 52.4737 44.4559 52.0775 44.4559 51.5886V49.7031C44.4559 49.2143 44.0594 48.8179 43.5703 48.8179Z" fill="#FF5C00"/>
</g>
</mask>
<g mask="url(#mask0_4034_19825)">
<circle cx="30.0698" cy="30" r="30" fill="#FF5C00"/>
</g>
<defs>
<clipPath id="clip0_4034_19825">
<rect width="39.1304" height="52.1739" fill="white" transform="translate(10.5046 13.913)"/>
</clipPath>
</defs>
</svg>
