<svg width="32" height="32" viewBox="0 0 32 32" fill="none" xmlns="http://www.w3.org/2000/svg">
<g clip-path="url(#clip0_6871_56353)">
<path d="M31.1375 16.0574C31.1539 7.67748 24.3938 0.870962 16.0384 0.854615C7.6829 0.838267 0.89618 7.61828 0.879784 15.9982C0.863389 24.3781 7.62353 31.1846 15.979 31.201C24.3344 31.2173 31.1211 24.4373 31.1375 16.0574Z" fill="url(#paint0_radial_6871_56353)"/>
<path d="M16.1196 0.858887C18.7686 0.878348 21.3658 1.59466 23.6503 2.93586C25.9347 4.27706 27.8258 6.19592 29.1337 8.49957C30.4415 10.8032 31.1201 13.4105 31.1009 16.0595C31.0819 18.7085 30.366 21.3058 29.0252 23.5903L16.0088 15.951L16.1196 0.858887Z" fill="#FF5C00" fill-opacity="0.6"/>
<path d="M16.0937 0.903809L16.019 15.988L29.1672 23.3982" stroke="#FF5C00" stroke-opacity="0.5" stroke-width="0.347222"/>
<path d="M2.92041 23.6275L16.0587 16.0107" stroke="#FF5C00" stroke-opacity="0.5" stroke-width="0.347222"/>
<path d="M31.1574 15.689H29.9395" stroke="white" stroke-opacity="0.5" stroke-width="0.347222"/>
<path d="M29.1273 8.38135L28.1799 8.92268" stroke="white" stroke-opacity="0.5" stroke-width="0.347222"/>
<path d="M23.9847 3.23828L23.4434 4.05028" stroke="white" stroke-opacity="0.5" stroke-width="0.347222"/>
<path d="M8.69214 2.69727L9.3688 3.77993" stroke="white" stroke-opacity="0.5" stroke-width="0.347222"/>
<path d="M3.27881 7.83984L4.36147 8.51651" stroke="white" stroke-opacity="0.5" stroke-width="0.347222"/>
<path d="M0.978271 15.2832H2.3316" stroke="white" stroke-opacity="0.5" stroke-width="0.347222"/>
<path d="M8.01562 28.8167L8.82762 27.4634" stroke="white" stroke-opacity="0.5" stroke-width="0.347222"/>
<path d="M15.188 31.1171V29.6284" stroke="white" stroke-opacity="0.5" stroke-width="0.347222"/>
<path d="M23.0375 29.3581L22.3608 28.1401" stroke="white" stroke-opacity="0.5" stroke-width="0.347222"/>
<path d="M20.4597 19.6095C20.0449 19.6095 19.6864 19.5591 19.3842 19.4583C19.0819 19.3576 18.8301 19.2272 18.6286 19.0672C18.4331 18.9013 18.2849 18.7235 18.1842 18.5339C18.0834 18.3383 18.0301 18.1457 18.0242 17.9561C18.0242 17.9028 18.0419 17.8613 18.0775 17.8317C18.119 17.7961 18.1664 17.7783 18.2197 17.7783H19.0197C19.079 17.7783 19.1294 17.7902 19.1708 17.8139C19.2123 17.8376 19.2479 17.885 19.2775 17.9561C19.3308 18.1161 19.4168 18.2435 19.5353 18.3383C19.6597 18.4332 19.8019 18.5013 19.9619 18.5428C20.1219 18.5783 20.2908 18.5961 20.4686 18.5961C20.8242 18.5961 21.1057 18.5132 21.3131 18.3472C21.5264 18.1754 21.6331 17.9324 21.6331 17.6183C21.6331 17.3043 21.5353 17.0791 21.3397 16.9428C21.1442 16.8006 20.8716 16.7295 20.5219 16.7295H19.6064C19.5412 16.7295 19.4879 16.7117 19.4464 16.6761C19.4049 16.6346 19.3842 16.5813 19.3842 16.5161V16.1428C19.3842 16.0835 19.396 16.0332 19.4197 15.9917C19.4494 15.9443 19.479 15.9057 19.5086 15.8761L21.0997 14.3206H18.5575C18.4923 14.3206 18.439 14.2998 18.3975 14.2583C18.3619 14.2169 18.3442 14.1665 18.3442 14.1072V13.5206C18.3442 13.4554 18.3619 13.402 18.3975 13.3606C18.439 13.3191 18.4923 13.2983 18.5575 13.2983H22.3708C22.436 13.2983 22.4894 13.3191 22.5308 13.3606C22.5723 13.402 22.5931 13.4554 22.5931 13.5206V14.0539C22.5931 14.1072 22.5812 14.1546 22.5575 14.1961C22.5338 14.2376 22.5071 14.2732 22.4775 14.3028L20.9397 15.885L21.0464 15.8939C21.4079 15.9235 21.7279 16.0065 22.0064 16.1428C22.2908 16.2732 22.5101 16.4657 22.6642 16.7206C22.8242 16.9754 22.9042 17.2954 22.9042 17.6806C22.9042 18.0835 22.7975 18.4302 22.5842 18.7206C22.3768 19.005 22.0894 19.2243 21.7219 19.3783C21.3545 19.5324 20.9338 19.6095 20.4597 19.6095Z" fill="white"/>
<path d="M13.4925 20.267C13.4451 20.267 13.4036 20.2492 13.368 20.2137C13.3325 20.1781 13.3147 20.1337 13.3147 20.0804C13.3147 20.0567 13.3206 20.0241 13.3325 19.9826L16.3547 12.7204C16.3784 12.6789 16.411 12.6374 16.4525 12.5959C16.494 12.5544 16.5532 12.5337 16.6303 12.5337H17.208C17.2554 12.5337 17.2969 12.5515 17.3325 12.587C17.374 12.6226 17.3947 12.667 17.3947 12.7204C17.3947 12.7441 17.3858 12.7767 17.368 12.8181L14.3369 20.0804C14.3191 20.1159 14.2895 20.1544 14.248 20.1959C14.2065 20.2433 14.1443 20.267 14.0614 20.267H13.4925Z" fill="white"/>
<path d="M11.3511 19.5206C11.286 19.5206 11.2326 19.4998 11.1911 19.4583C11.1556 19.4169 11.1378 19.3665 11.1378 19.3072V14.7028L9.7867 15.7428C9.73337 15.7783 9.68003 15.7932 9.6267 15.7872C9.57337 15.7754 9.52596 15.7428 9.48448 15.6895L9.11114 15.2095C9.07559 15.1561 9.06077 15.0998 9.0667 15.0406C9.07855 14.9813 9.11114 14.9339 9.16448 14.8983L11.1556 13.3606C11.1911 13.3309 11.2267 13.3132 11.2623 13.3072C11.2978 13.3013 11.3363 13.2983 11.3778 13.2983H12.16C12.2193 13.2983 12.2697 13.3191 12.3111 13.3606C12.3526 13.402 12.3734 13.4524 12.3734 13.5117V19.3072C12.3734 19.3665 12.3526 19.4169 12.3111 19.4583C12.2697 19.4998 12.2193 19.5206 12.16 19.5206H11.3511Z" fill="white"/>
</g>
<defs>
<radialGradient id="paint0_radial_6871_56353" cx="0" cy="0" r="1" gradientUnits="userSpaceOnUse" gradientTransform="translate(16.0087 16.0278) rotate(90.1121) scale(15.1732 15.1289)">
<stop stop-color="#AD3F00"/>
<stop offset="1" stop-color="#411800"/>
</radialGradient>
<clipPath id="clip0_6871_56353">
<rect width="32" height="32" fill="white"/>
</clipPath>
</defs>
</svg>
