<svg xmlns="http://www.w3.org/2000/svg" xmlns:xlink="http://www.w3.org/1999/xlink" version="1.1" width="100" height="100" viewBox="0 0 1000 1000" xml:space="preserve">
<defs>
</defs>
<rect x="0" y="0" width="100%" height="100%" fill="rgba(255,255,255,0)"/>
<g transform="matrix(12.285 0 0 12.285 499.9995 499.9996)" id="900694">
<path style="stroke: none; stroke-width: 1; stroke-dasharray: none; stroke-linecap: butt; stroke-dashoffset: 0; stroke-linejoin: miter; stroke-miterlimit: 4; is-custom-font: none; font-file-url: none; fill: rgb(255,238,229); fill-rule: evenodd; opacity: 1;" vector-effect="non-scaling-stroke" transform=" translate(-37, -33)" d="M 48.2588 12 L 37 0 L 25.7412 12 H 0 V 66 H 74 V 12 H 48.2588 Z" stroke-linecap="round"/>
</g>
<g transform="matrix(12.7786 0 0 12.7786 505.0016 500.0014)" id="60026">
<g style="" vector-effect="non-scaling-stroke">
		<g transform="matrix(1 0 0 1 -35.4936 -5.447)">
<path style="stroke: none; stroke-width: 1; stroke-dasharray: none; stroke-linecap: butt; stroke-dashoffset: 0; stroke-linejoin: miter; stroke-miterlimit: 4; is-custom-font: none; font-file-url: none; fill: rgb(255,92,0); fill-rule: nonzero; opacity: 1;" transform=" translate(-2.0064, -27.053)" d="M 2.99431 24.9509 H 1.01847 C 0.455985 24.9509 0 25.4067 0 25.9689 V 28.1372 C 0 28.6994 0.455985 29.1551 1.01847 29.1551 H 2.99431 C 3.55679 29.1551 4.01278 28.6994 4.01278 28.1372 V 25.9689 C 4.01278 25.4067 3.55679 24.9509 2.99431 24.9509 Z" stroke-linecap="round"/>
</g>
		<g transform="matrix(1 0 0 1 -0.4634 -30.398)">
<path style="stroke: none; stroke-width: 1; stroke-dasharray: none; stroke-linecap: butt; stroke-dashoffset: 0; stroke-linejoin: miter; stroke-miterlimit: 4; is-custom-font: none; font-file-url: none; fill: rgb(255,92,0); fill-rule: nonzero; opacity: 1;" transform=" translate(-37.0366, -2.102)" d="M 36.0487 4.2041 L 38.0245 4.2041 C 38.587 4.2041 39.043 3.74834 39.043 3.18614 L 39.043 1.01787 C 39.043 0.455667 38.587 -0.0000911158 38.0245 -0.0000911649 L 36.0487 -0.0000913377 C 35.4862 -0.0000913868 35.0302 0.455667 35.0302 1.01787 L 35.0302 3.18614 C 35.0302 3.74834 35.4862 4.2041 36.0487 4.2041 Z" stroke-linecap="round"/>
</g>
		<g transform="matrix(1 0 0 1 -35.4936 14.553)">
<path style="stroke: none; stroke-width: 1; stroke-dasharray: none; stroke-linecap: butt; stroke-dashoffset: 0; stroke-linejoin: miter; stroke-miterlimit: 4; is-custom-font: none; font-file-url: none; fill: rgb(255,92,0); fill-rule: nonzero; opacity: 1;" transform=" translate(-2.0064, -47.053)" d="M 2.99431 44.9509 H 1.01847 C 0.455985 44.9509 0 45.4067 0 45.9689 V 48.1372 C 0 48.6994 0.455985 49.1551 1.01847 49.1551 H 2.99431 C 3.55679 49.1551 4.01278 48.6994 4.01278 48.1372 V 45.9689 C 4.01278 45.4067 3.55679 44.9509 2.99431 44.9509 Z" stroke-linecap="round"/>
</g>
		<g transform="matrix(1 0 0 1 9.5064 -5.3979)">
<path style="stroke: none; stroke-width: 1; stroke-dasharray: none; stroke-linecap: butt; stroke-dashoffset: 0; stroke-linejoin: miter; stroke-miterlimit: 4; is-custom-font: none; font-file-url: none; fill: rgb(255,92,0); fill-rule: nonzero; opacity: 1;" transform=" translate(-47.0064, -27.1021)" d="M 47.9943 25 H 46.0185 C 45.456 25 45 25.4558 45 26.018 V 28.1862 C 45 28.7484 45.456 29.2042 46.0185 29.2042 H 47.9943 C 48.5568 29.2042 49.0128 28.7484 49.0128 28.1862 V 26.018 C 49.0128 25.4558 48.5568 25 47.9943 25 Z" stroke-linecap="round"/>
</g>
		<g transform="matrix(1 0 0 1 4.5064 -10.3979)">
<path style="stroke: none; stroke-width: 1; stroke-dasharray: none; stroke-linecap: butt; stroke-dashoffset: 0; stroke-linejoin: miter; stroke-miterlimit: 4; is-custom-font: none; font-file-url: none; fill: rgb(255,92,0); fill-rule: nonzero; opacity: 1;" transform=" translate(-42.0064, -22.1021)" d="M 42.9943 20 H 41.0185 C 40.456 20 40 20.4558 40 21.018 V 23.1862 C 40 23.7484 40.456 24.2042 41.0185 24.2042 H 42.9943 C 43.5568 24.2042 44.0128 23.7484 44.0128 23.1862 V 21.018 C 44.0128 20.4558 43.5568 20 42.9943 20 Z" stroke-linecap="round"/>
</g>
		<g transform="matrix(1 0 0 1 -0.4936 -10.3979)">
<path style="stroke: none; stroke-width: 1; stroke-dasharray: none; stroke-linecap: butt; stroke-dashoffset: 0; stroke-linejoin: miter; stroke-miterlimit: 4; is-custom-font: none; font-file-url: none; fill: rgb(255,92,0); fill-rule: nonzero; opacity: 1;" transform=" translate(-37.0064, -22.1021)" d="M 37.9943 20 H 36.0185 C 35.456 20 35 20.4558 35 21.018 V 23.1862 C 35 23.7484 35.456 24.2042 36.0185 24.2042 H 37.9943 C 38.5568 24.2042 39.0128 23.7484 39.0128 23.1862 V 21.018 C 39.0128 20.4558 38.5568 20 37.9943 20 Z" stroke-linecap="round"/>
</g>
		<g transform="matrix(1 0 0 1 -5.4936 -5.3979)">
<path style="stroke: none; stroke-width: 1; stroke-dasharray: none; stroke-linecap: butt; stroke-dashoffset: 0; stroke-linejoin: miter; stroke-miterlimit: 4; is-custom-font: none; font-file-url: none; fill: rgb(255,92,0); fill-rule: nonzero; opacity: 1;" transform=" translate(-32.0064, -27.1021)" d="M 32.9943 25 H 31.0185 C 30.456 25 30 25.4558 30 26.018 V 28.1862 C 30 28.7484 30.456 29.2042 31.0185 29.2042 H 32.9943 C 33.5568 29.2042 34.0128 28.7484 34.0128 28.1862 V 26.018 C 34.0128 25.4558 33.5568 25 32.9943 25 Z" stroke-linecap="round"/>
</g>
		<g transform="matrix(1 0 0 1 -35.4936 4.553)">
<path style="stroke: none; stroke-width: 1; stroke-dasharray: none; stroke-linecap: butt; stroke-dashoffset: 0; stroke-linejoin: miter; stroke-miterlimit: 4; is-custom-font: none; font-file-url: none; fill: rgb(255,92,0); fill-rule: nonzero; opacity: 1;" transform=" translate(-2.0064, -37.053)" d="M 2.99431 34.9509 H 1.01847 C 0.455985 34.9509 0 35.4067 0 35.9689 V 38.1372 C 0 38.6994 0.455985 39.1551 1.01847 39.1551 H 2.99431 C 3.55679 39.1551 4.01278 38.6994 4.01278 38.1372 V 35.9689 C 4.01278 35.4067 3.55679 34.9509 2.99431 34.9509 Z" stroke-linecap="round"/>
</g>
		<g transform="matrix(1 0 0 1 -35.4936 -15.447)">
<path style="stroke: none; stroke-width: 1; stroke-dasharray: none; stroke-linecap: butt; stroke-dashoffset: 0; stroke-linejoin: miter; stroke-miterlimit: 4; is-custom-font: none; font-file-url: none; fill: rgb(255,92,0); fill-rule: nonzero; opacity: 1;" transform=" translate(-2.0064, -17.053)" d="M 2.99431 14.9509 H 1.01847 C 0.455985 14.9509 0 15.4067 0 15.9689 V 18.1372 C 0 18.6994 0.455985 19.1551 1.01847 19.1551 H 2.99431 C 3.55679 19.1551 4.01278 18.6994 4.01278 18.1372 V 15.9689 C 4.01278 15.4067 3.55679 14.9509 2.99431 14.9509 Z" stroke-linecap="round"/>
</g>
		<g transform="matrix(1 0 0 1 -25.4936 29.553)">
<path style="stroke: none; stroke-width: 1; stroke-dasharray: none; stroke-linecap: butt; stroke-dashoffset: 0; stroke-linejoin: miter; stroke-miterlimit: 4; is-custom-font: none; font-file-url: none; fill: rgb(255,92,0); fill-rule: nonzero; opacity: 1;" transform=" translate(-12.0064, -62.053)" d="M 12.9943 59.9509 H 11.0185 C 10.456 59.9509 10 60.4067 10 60.9689 V 63.1372 C 10 63.6994 10.456 64.1551 11.0185 64.1551 H 12.9943 C 13.5568 64.1551 14.0128 63.6994 14.0128 63.1372 V 60.9689 C 14.0128 60.4067 13.5568 59.9509 12.9943 59.9509 Z" stroke-linecap="round"/>
</g>
		<g transform="matrix(1 0 0 1 -30.4936 29.5039)">
<path style="stroke: none; stroke-width: 1; stroke-dasharray: none; stroke-linecap: butt; stroke-dashoffset: 0; stroke-linejoin: miter; stroke-miterlimit: 4; is-custom-font: none; font-file-url: none; fill: rgb(255,92,0); fill-rule: nonzero; opacity: 1;" transform=" translate(-7.0064, -62.0039)" d="M 7.99431 59.9019 H 6.01847 C 5.45598 59.9019 5 60.3576 5 60.9198 V 63.0881 C 5 63.6503 5.45598 64.106 6.01847 64.106 H 7.99431 C 8.55679 64.106 9.01278 63.6503 9.01278 63.0881 V 60.9198 C 9.01278 60.3576 8.55679 59.9019 7.99431 59.9019 Z" stroke-linecap="round"/>
</g>
		<g transform="matrix(1 0 0 1 -35.4936 29.5039)">
<path style="stroke: none; stroke-width: 1; stroke-dasharray: none; stroke-linecap: butt; stroke-dashoffset: 0; stroke-linejoin: miter; stroke-miterlimit: 4; is-custom-font: none; font-file-url: none; fill: rgb(255,92,0); fill-rule: nonzero; opacity: 1;" transform=" translate(-2.0064, -62.0039)" d="M 2.99431 59.9019 H 1.01847 C 0.455985 59.9019 0 60.3576 0 60.9198 V 63.0881 C 0 63.6503 0.455985 64.106 1.01847 64.106 H 2.99431 C 3.55679 64.106 4.01278 63.6503 4.01278 63.0881 V 60.9198 C 4.01278 60.3576 3.55679 59.9019 2.99431 59.9019 Z" stroke-linecap="round"/>
</g>
		<g transform="matrix(1 0 0 1 34.5064 29.5039)">
<path style="stroke: none; stroke-width: 1; stroke-dasharray: none; stroke-linecap: butt; stroke-dashoffset: 0; stroke-linejoin: miter; stroke-miterlimit: 4; is-custom-font: none; font-file-url: none; fill: rgb(255,92,0); fill-rule: nonzero; opacity: 1;" transform=" translate(-72.0064, -62.0039)" d="M 72.9943 59.9019 H 71.0185 C 70.456 59.9019 70 60.3576 70 60.9198 V 63.0881 C 70 63.6503 70.456 64.106 71.0185 64.106 H 72.9943 C 73.5568 64.106 74.0128 63.6503 74.0128 63.0881 V 60.9198 C 74.0128 60.3576 73.5568 59.9019 72.9943 59.9019 Z" stroke-linecap="round"/>
</g>
		<g transform="matrix(1 0 0 1 24.5064 29.553)">
<path style="stroke: none; stroke-width: 1; stroke-dasharray: none; stroke-linecap: butt; stroke-dashoffset: 0; stroke-linejoin: miter; stroke-miterlimit: 4; is-custom-font: none; font-file-url: none; fill: rgb(255,92,0); fill-rule: nonzero; opacity: 1;" transform=" translate(-62.0064, -62.053)" d="M 62.9943 59.9509 H 61.0185 C 60.456 59.9509 60 60.4067 60 60.9689 V 63.1372 C 60 63.6994 60.456 64.1551 61.0185 64.1551 H 62.9943 C 63.5568 64.1551 64.0128 63.6994 64.0128 63.1372 V 60.9689 C 64.0128 60.4067 63.5568 59.9509 62.9943 59.9509 Z" stroke-linecap="round"/>
</g>
		<g transform="matrix(1 0 0 1 4.5064 4.553)">
<path style="stroke: none; stroke-width: 1; stroke-dasharray: none; stroke-linecap: butt; stroke-dashoffset: 0; stroke-linejoin: miter; stroke-miterlimit: 4; is-custom-font: none; font-file-url: none; fill: rgb(255,92,0); fill-rule: nonzero; opacity: 1;" transform=" translate(-42.0064, -37.053)" d="M 42.9943 34.9509 H 41.0185 C 40.456 34.9509 40 35.4067 40 35.9689 V 38.1372 C 40 38.6994 40.456 39.1551 41.0185 39.1551 H 42.9943 C 43.5568 39.1551 44.0128 38.6994 44.0128 38.1372 V 35.9689 C 44.0128 35.4067 43.5568 34.9509 42.9943 34.9509 Z" stroke-linecap="round"/>
</g>
		<g transform="matrix(1 0 0 1 19.5064 29.553)">
<path style="stroke: none; stroke-width: 1; stroke-dasharray: none; stroke-linecap: butt; stroke-dashoffset: 0; stroke-linejoin: miter; stroke-miterlimit: 4; is-custom-font: none; font-file-url: none; fill: rgb(255,92,0); fill-rule: nonzero; opacity: 1;" transform=" translate(-57.0064, -62.053)" d="M 57.9943 59.9509 H 56.0185 C 55.456 59.9509 55 60.4067 55 60.9689 V 63.1372 C 55 63.6994 55.456 64.1551 56.0185 64.1551 H 57.9943 C 58.5568 64.1551 59.0128 63.6994 59.0128 63.1372 V 60.9689 C 59.0128 60.4067 58.5568 59.9509 57.9943 59.9509 Z" stroke-linecap="round"/>
</g>
		<g transform="matrix(1 0 0 1 -15.4936 29.553)">
<path style="stroke: none; stroke-width: 1; stroke-dasharray: none; stroke-linecap: butt; stroke-dashoffset: 0; stroke-linejoin: miter; stroke-miterlimit: 4; is-custom-font: none; font-file-url: none; fill: rgb(255,92,0); fill-rule: nonzero; opacity: 1;" transform=" translate(-22.0064, -62.053)" d="M 22.9943 59.9509 H 21.0185 C 20.456 59.9509 20 60.4067 20 60.9689 V 63.1372 C 20 63.6994 20.456 64.1551 21.0185 64.1551 H 22.9943 C 23.5568 64.1551 24.0128 63.6994 24.0128 63.1372 V 60.9689 C 24.0128 60.4067 23.5568 59.9509 22.9943 59.9509 Z" stroke-linecap="round"/>
</g>
		<g transform="matrix(1 0 0 1 9.5064 29.553)">
<path style="stroke: none; stroke-width: 1; stroke-dasharray: none; stroke-linecap: butt; stroke-dashoffset: 0; stroke-linejoin: miter; stroke-miterlimit: 4; is-custom-font: none; font-file-url: none; fill: rgb(255,92,0); fill-rule: nonzero; opacity: 1;" transform=" translate(-47.0064, -62.053)" d="M 47.9943 59.9509 H 46.0185 C 45.456 59.9509 45 60.4067 45 60.9689 V 63.1372 C 45 63.6994 45.456 64.1551 46.0185 64.1551 H 47.9943 C 48.5568 64.1551 49.0128 63.6994 49.0128 63.1372 V 60.9689 C 49.0128 60.4067 48.5568 59.9509 47.9943 59.9509 Z" stroke-linecap="round"/>
</g>
		<g transform="matrix(1 0 0 1 -35.4936 -0.3979)">
<path style="stroke: none; stroke-width: 1; stroke-dasharray: none; stroke-linecap: butt; stroke-dashoffset: 0; stroke-linejoin: miter; stroke-miterlimit: 4; is-custom-font: none; font-file-url: none; fill: rgb(255,92,0); fill-rule: nonzero; opacity: 1;" transform=" translate(-2.0064, -32.1021)" d="M 2.99431 30 H 1.01847 C 0.455985 30 0 30.4558 0 31.018 V 33.1862 C 0 33.7484 0.455985 34.2042 1.01847 34.2042 H 2.99431 C 3.55679 34.2042 4.01278 33.7484 4.01278 33.1862 V 31.018 C 4.01278 30.4558 3.55679 30 2.99431 30 Z" stroke-linecap="round"/>
</g>
		<g transform="matrix(1 0 0 1 -35.4936 19.6021)">
<path style="stroke: none; stroke-width: 1; stroke-dasharray: none; stroke-linecap: butt; stroke-dashoffset: 0; stroke-linejoin: miter; stroke-miterlimit: 4; is-custom-font: none; font-file-url: none; fill: rgb(255,92,0); fill-rule: nonzero; opacity: 1;" transform=" translate(-2.0064, -52.1021)" d="M 2.99431 50 H 1.01847 C 0.455985 50 0 50.4558 0 51.018 V 53.1862 C 0 53.7484 0.455985 54.2042 1.01847 54.2042 H 2.99431 C 3.55679 54.2042 4.01278 53.7484 4.01278 53.1862 V 51.018 C 4.01278 50.4558 3.55679 50 2.99431 50 Z" stroke-linecap="round"/>
</g>
		<g transform="matrix(1 0 0 1 -25.4936 -20.3488)">
<path style="stroke: none; stroke-width: 1; stroke-dasharray: none; stroke-linecap: butt; stroke-dashoffset: 0; stroke-linejoin: miter; stroke-miterlimit: 4; is-custom-font: none; font-file-url: none; fill: rgb(255,92,0); fill-rule: nonzero; opacity: 1;" transform=" translate(-12.0064, -12.1512)" d="M 12.9943 10.0491 H 11.0185 C 10.456 10.0491 10 10.5048 10 11.067 V 13.2353 C 10 13.7975 10.456 14.2533 11.0185 14.2533 H 12.9943 C 13.5568 14.2533 14.0128 13.7975 14.0128 13.2353 V 11.067 C 14.0128 10.5048 13.5568 10.0491 12.9943 10.0491 Z" stroke-linecap="round"/>
</g>
		<g transform="matrix(1 0 0 1 -30.4936 -20.3979)">
<path style="stroke: none; stroke-width: 1; stroke-dasharray: none; stroke-linecap: butt; stroke-dashoffset: 0; stroke-linejoin: miter; stroke-miterlimit: 4; is-custom-font: none; font-file-url: none; fill: rgb(255,92,0); fill-rule: nonzero; opacity: 1;" transform=" translate(-7.0064, -12.1021)" d="M 7.99431 10 H 6.01847 C 5.45598 10 5 10.4558 5 11.018 V 13.1862 C 5 13.7484 5.45598 14.2042 6.01847 14.2042 H 7.99431 C 8.55679 14.2042 9.01278 13.7484 9.01278 13.1862 V 11.018 C 9.01278 10.4558 8.55679 10 7.99431 10 Z" stroke-linecap="round"/>
</g>
		<g transform="matrix(1 0 0 1 -35.4936 -20.3979)">
<path style="stroke: none; stroke-width: 1; stroke-dasharray: none; stroke-linecap: butt; stroke-dashoffset: 0; stroke-linejoin: miter; stroke-miterlimit: 4; is-custom-font: none; font-file-url: none; fill: rgb(255,92,0); fill-rule: nonzero; opacity: 1;" transform=" translate(-2.0064, -12.1021)" d="M 2.99431 10 H 1.01847 C 0.455985 10 0 10.4558 0 11.018 V 13.1862 C 0 13.7484 0.455985 14.2042 1.01847 14.2042 H 2.99431 C 3.55679 14.2042 4.01278 13.7484 4.01278 13.1862 V 11.018 C 4.01278 10.4558 3.55679 10 2.99431 10 Z" stroke-linecap="round"/>
</g>
		<g transform="matrix(1 0 0 1 34.5064 -20.3979)">
<path style="stroke: none; stroke-width: 1; stroke-dasharray: none; stroke-linecap: butt; stroke-dashoffset: 0; stroke-linejoin: miter; stroke-miterlimit: 4; is-custom-font: none; font-file-url: none; fill: rgb(255,92,0); fill-rule: nonzero; opacity: 1;" transform=" translate(-72.0064, -12.1021)" d="M 72.9943 10 H 71.0185 C 70.456 10 70 10.4558 70 11.018 V 13.1862 C 70 13.7484 70.456 14.2042 71.0185 14.2042 H 72.9943 C 73.5568 14.2042 74.0128 13.7484 74.0128 13.1862 V 11.018 C 74.0128 10.4558 73.5568 10 72.9943 10 Z" stroke-linecap="round"/>
</g>
		<g transform="matrix(1 0 0 1 -35.4936 24.553)">
<path style="stroke: none; stroke-width: 1; stroke-dasharray: none; stroke-linecap: butt; stroke-dashoffset: 0; stroke-linejoin: miter; stroke-miterlimit: 4; is-custom-font: none; font-file-url: none; fill: rgb(255,92,0); fill-rule: nonzero; opacity: 1;" transform=" translate(-2.0064, -57.053)" d="M 2.99431 54.9509 H 1.01847 C 0.455985 54.9509 0 55.4067 0 55.9689 V 58.1372 C 0 58.6994 0.455985 59.1551 1.01847 59.1551 H 2.99431 C 3.55679 59.1551 4.01278 58.6994 4.01278 58.1372 V 55.9689 C 4.01278 55.4067 3.55679 54.9509 2.99431 54.9509 Z" stroke-linecap="round"/>
</g>
		<g transform="matrix(1 0 0 1 -0.4936 29.6021)">
<path style="stroke: none; stroke-width: 1; stroke-dasharray: none; stroke-linecap: butt; stroke-dashoffset: 0; stroke-linejoin: miter; stroke-miterlimit: 4; is-custom-font: none; font-file-url: none; fill: rgb(255,92,0); fill-rule: nonzero; opacity: 1;" transform=" translate(-37.0064, -62.1021)" d="M 37.9943 60 H 36.0185 C 35.456 60 35 60.4558 35 61.018 V 63.1862 C 35 63.7484 35.456 64.2042 36.0185 64.2042 H 37.9943 C 38.5568 64.2042 39.0128 63.7484 39.0128 63.1862 V 61.018 C 39.0128 60.4558 38.5568 60 37.9943 60 Z" stroke-linecap="round"/>
</g>
		<g transform="matrix(1 0 0 1 24.5064 -20.3488)">
<path style="stroke: none; stroke-width: 1; stroke-dasharray: none; stroke-linecap: butt; stroke-dashoffset: 0; stroke-linejoin: miter; stroke-miterlimit: 4; is-custom-font: none; font-file-url: none; fill: rgb(255,92,0); fill-rule: nonzero; opacity: 1;" transform=" translate(-62.0064, -12.1512)" d="M 62.9943 10.0491 H 61.0185 C 60.456 10.0491 60 10.5048 60 11.067 V 13.2353 C 60 13.7975 60.456 14.2533 61.0185 14.2533 H 62.9943 C 63.5568 14.2533 64.0128 13.7975 64.0128 13.2353 V 11.067 C 64.0128 10.5048 63.5568 10.0491 62.9943 10.0491 Z" stroke-linecap="round"/>
</g>
		<g transform="matrix(1 0 0 1 9.5064 -0.3979)">
<path style="stroke: none; stroke-width: 1; stroke-dasharray: none; stroke-linecap: butt; stroke-dashoffset: 0; stroke-linejoin: miter; stroke-miterlimit: 4; is-custom-font: none; font-file-url: none; fill: rgb(255,92,0); fill-rule: nonzero; opacity: 1;" transform=" translate(-47.0064, -32.1021)" d="M 47.9943 30 H 46.0185 C 45.456 30 45 30.4558 45 31.018 V 33.1862 C 45 33.7484 45.456 34.2042 46.0185 34.2042 H 47.9943 C 48.5568 34.2042 49.0128 33.7484 49.0128 33.1862 V 31.018 C 49.0128 30.4558 48.5568 30 47.9943 30 Z" stroke-linecap="round"/>
</g>
		<g transform="matrix(1 0 0 1 -0.4936 19.6021)">
<path style="stroke: none; stroke-width: 1; stroke-dasharray: none; stroke-linecap: butt; stroke-dashoffset: 0; stroke-linejoin: miter; stroke-miterlimit: 4; is-custom-font: none; font-file-url: none; fill: rgb(255,92,0); fill-rule: nonzero; opacity: 1;" transform=" translate(-37.0064, -52.1021)" d="M 37.9943 50 H 36.0185 C 35.456 50 35 50.4558 35 51.018 V 53.1862 C 35 53.7484 35.456 54.2042 36.0185 54.2042 H 37.9943 C 38.5568 54.2042 39.0128 53.7484 39.0128 53.1862 V 51.018 C 39.0128 50.4558 38.5568 50 37.9943 50 Z" stroke-linecap="round"/>
</g>
		<g transform="matrix(1 0 0 1 -5.4936 29.6021)">
<path style="stroke: none; stroke-width: 1; stroke-dasharray: none; stroke-linecap: butt; stroke-dashoffset: 0; stroke-linejoin: miter; stroke-miterlimit: 4; is-custom-font: none; font-file-url: none; fill: rgb(255,92,0); fill-rule: nonzero; opacity: 1;" transform=" translate(-32.0064, -62.1021)" d="M 32.9943 60 H 31.0185 C 30.456 60 30 60.4558 30 61.018 V 63.1862 C 30 63.7484 30.456 64.2042 31.0185 64.2042 H 32.9943 C 33.5568 64.2042 34.0128 63.7484 34.0128 63.1862 V 61.018 C 34.0128 60.4558 33.5568 60 32.9943 60 Z" stroke-linecap="round"/>
</g>
		<g transform="matrix(1 0 0 1 19.5064 -20.3488)">
<path style="stroke: none; stroke-width: 1; stroke-dasharray: none; stroke-linecap: butt; stroke-dashoffset: 0; stroke-linejoin: miter; stroke-miterlimit: 4; is-custom-font: none; font-file-url: none; fill: rgb(255,92,0); fill-rule: nonzero; opacity: 1;" transform=" translate(-57.0064, -12.1512)" d="M 57.9943 10.0491 H 56.0185 C 55.456 10.0491 55 10.5048 55 11.067 V 13.2353 C 55 13.7975 55.456 14.2533 56.0185 14.2533 H 57.9943 C 58.5568 14.2533 59.0128 13.7975 59.0128 13.2353 V 11.067 C 59.0128 10.5048 58.5568 10.0491 57.9943 10.0491 Z" stroke-linecap="round"/>
</g>
		<g transform="matrix(1 0 0 1 -15.4936 -20.3488)">
<path style="stroke: none; stroke-width: 1; stroke-dasharray: none; stroke-linecap: butt; stroke-dashoffset: 0; stroke-linejoin: miter; stroke-miterlimit: 4; is-custom-font: none; font-file-url: none; fill: rgb(255,92,0); fill-rule: nonzero; opacity: 1;" transform=" translate(-22.0064, -12.1512)" d="M 22.9943 10.0491 H 21.0185 C 20.456 10.0491 20 10.5048 20 11.067 V 13.2353 C 20 13.7975 20.456 14.2533 21.0185 14.2533 H 22.9943 C 23.5568 14.2533 24.0128 13.7975 24.0128 13.2353 V 11.067 C 24.0128 10.5048 23.5568 10.0491 22.9943 10.0491 Z" stroke-linecap="round"/>
</g>
		<g transform="matrix(1 0 0 1 9.5064 -20.3488)">
<path style="stroke: none; stroke-width: 1; stroke-dasharray: none; stroke-linecap: butt; stroke-dashoffset: 0; stroke-linejoin: miter; stroke-miterlimit: 4; is-custom-font: none; font-file-url: none; fill: rgb(255,92,0); fill-rule: nonzero; opacity: 1;" transform=" translate(-47.0064, -12.1512)" d="M 47.9943 10.0491 H 46.0185 C 45.456 10.0491 45 10.5048 45 11.067 V 13.2353 C 45 13.7975 45.456 14.2533 46.0185 14.2533 H 47.9943 C 48.5568 14.2533 49.0128 13.7975 49.0128 13.2353 V 11.067 C 49.0128 10.5048 48.5568 10.0491 47.9943 10.0491 Z" stroke-linecap="round"/>
</g>
		<g transform="matrix(1 0 0 1 -35.4936 9.6021)">
<path style="stroke: none; stroke-width: 1; stroke-dasharray: none; stroke-linecap: butt; stroke-dashoffset: 0; stroke-linejoin: miter; stroke-miterlimit: 4; is-custom-font: none; font-file-url: none; fill: rgb(255,92,0); fill-rule: nonzero; opacity: 1;" transform=" translate(-2.0064, -42.1021)" d="M 2.99431 40 H 1.01847 C 0.455985 40 0 40.4558 0 41.018 V 43.1862 C 0 43.7484 0.455985 44.2042 1.01847 44.2042 H 2.99431 C 3.55679 44.2042 4.01278 43.7484 4.01278 43.1862 V 41.018 C 4.01278 40.4558 3.55679 40 2.99431 40 Z" stroke-linecap="round"/>
</g>
		<g transform="matrix(1 0 0 1 -35.4936 -10.3979)">
<path style="stroke: none; stroke-width: 1; stroke-dasharray: none; stroke-linecap: butt; stroke-dashoffset: 0; stroke-linejoin: miter; stroke-miterlimit: 4; is-custom-font: none; font-file-url: none; fill: rgb(255,92,0); fill-rule: nonzero; opacity: 1;" transform=" translate(-2.0064, -22.1021)" d="M 2.99431 20 H 1.01847 C 0.455985 20 0 20.4558 0 21.018 V 23.1862 C 0 23.7484 0.455985 24.2042 1.01847 24.2042 H 2.99431 C 3.55679 24.2042 4.01278 23.7484 4.01278 23.1862 V 21.018 C 4.01278 20.4558 3.55679 20 2.99431 20 Z" stroke-linecap="round"/>
</g>
		<g transform="matrix(1 0 0 1 -0.4936 9.6021)">
<path style="stroke: none; stroke-width: 1; stroke-dasharray: none; stroke-linecap: butt; stroke-dashoffset: 0; stroke-linejoin: miter; stroke-miterlimit: 4; is-custom-font: none; font-file-url: none; fill: rgb(255,92,0); fill-rule: nonzero; opacity: 1;" transform=" translate(-37.0064, -42.1021)" d="M 37.9943 40 H 36.0185 C 35.456 40 35 40.4558 35 41.018 V 43.1862 C 35 43.7484 35.456 44.2042 36.0185 44.2042 H 37.9943 C 38.5568 44.2042 39.0128 43.7484 39.0128 43.1862 V 41.018 C 39.0128 40.4558 38.5568 40 37.9943 40 Z" stroke-linecap="round"/>
</g>
		<g transform="matrix(1 0 0 1 4.5366 -25.4471)">
<path style="stroke: none; stroke-width: 1; stroke-dasharray: none; stroke-linecap: butt; stroke-dashoffset: 0; stroke-linejoin: miter; stroke-miterlimit: 4; is-custom-font: none; font-file-url: none; fill: rgb(255,92,0); fill-rule: nonzero; opacity: 1;" transform=" translate(-42.0366, -7.0529)" d="M 41.0487 9.15503 L 43.0245 9.15503 C 43.587 9.15503 44.043 8.69927 44.043 8.13707 L 44.043 5.9688 C 44.043 5.40659 43.587 4.95084 43.0245 4.95084 L 41.0487 4.95084 C 40.4862 4.95084 40.0302 5.40659 40.0302 5.9688 L 40.0302 8.13706 C 40.0302 8.69927 40.4862 9.15503 41.0487 9.15503 Z" stroke-linecap="round"/>
</g>
		<g transform="matrix(1 0 0 1 34.5064 -5.3979)">
<path style="stroke: none; stroke-width: 1; stroke-dasharray: none; stroke-linecap: butt; stroke-dashoffset: 0; stroke-linejoin: miter; stroke-miterlimit: 4; is-custom-font: none; font-file-url: none; fill: rgb(255,92,0); fill-rule: nonzero; opacity: 1;" transform=" translate(-72.0064, -27.1021)" d="M 72.9943 25 H 71.0185 C 70.456 25 70 25.4558 70 26.018 V 28.1862 C 70 28.7484 70.456 29.2042 71.0185 29.2042 H 72.9943 C 73.5568 29.2042 74.0128 28.7484 74.0128 28.1862 V 26.018 C 74.0128 25.4558 73.5568 25 72.9943 25 Z" stroke-linecap="round"/>
</g>
		<g transform="matrix(1 0 0 1 34.5064 14.6021)">
<path style="stroke: none; stroke-width: 1; stroke-dasharray: none; stroke-linecap: butt; stroke-dashoffset: 0; stroke-linejoin: miter; stroke-miterlimit: 4; is-custom-font: none; font-file-url: none; fill: rgb(255,92,0); fill-rule: nonzero; opacity: 1;" transform=" translate(-72.0064, -47.1021)" d="M 72.9943 45 H 71.0185 C 70.456 45 70 45.4558 70 46.018 V 48.1862 C 70 48.7484 70.456 49.2042 71.0185 49.2042 H 72.9943 C 73.5568 49.2042 74.0128 48.7484 74.0128 48.1862 V 46.018 C 74.0128 45.4558 73.5568 45 72.9943 45 Z" stroke-linecap="round"/>
</g>
		<g transform="matrix(1 0 0 1 -20.4624 29.6446)">
<path style="stroke: none; stroke-width: 1; stroke-dasharray: none; stroke-linecap: butt; stroke-dashoffset: 0; stroke-linejoin: miter; stroke-miterlimit: 4; is-custom-font: none; font-file-url: none; fill: rgb(255,92,0); fill-rule: nonzero; opacity: 1;" transform=" translate(-17.0376, -62.1446)" d="M 18.0256 60.0425 H 16.0497 C 15.4872 60.0425 15.0312 60.4982 15.0312 61.0604 V 63.2287 C 15.0312 63.7909 15.4872 64.2467 16.0497 64.2467 H 18.0256 C 18.588 64.2467 19.044 63.7909 19.044 63.2287 V 61.0604 C 19.044 60.4982 18.588 60.0425 18.0256 60.0425 Z" stroke-linecap="round"/>
</g>
		<g transform="matrix(1 0 0 1 29.5376 29.6446)">
<path style="stroke: none; stroke-width: 1; stroke-dasharray: none; stroke-linecap: butt; stroke-dashoffset: 0; stroke-linejoin: miter; stroke-miterlimit: 4; is-custom-font: none; font-file-url: none; fill: rgb(255,92,0); fill-rule: nonzero; opacity: 1;" transform=" translate(-67.0376, -62.1446)" d="M 68.0256 60.0425 H 66.0497 C 65.4872 60.0425 65.0312 60.4982 65.0312 61.0604 V 63.2287 C 65.0312 63.7909 65.4872 64.2467 66.0497 64.2467 H 68.0256 C 68.588 64.2467 69.044 63.7909 69.044 63.2287 V 61.0604 C 69.044 60.4982 68.588 60.0425 68.0256 60.0425 Z" stroke-linecap="round"/>
</g>
		<g transform="matrix(1 0 0 1 34.5064 4.6021)">
<path style="stroke: none; stroke-width: 1; stroke-dasharray: none; stroke-linecap: butt; stroke-dashoffset: 0; stroke-linejoin: miter; stroke-miterlimit: 4; is-custom-font: none; font-file-url: none; fill: rgb(255,92,0); fill-rule: nonzero; opacity: 1;" transform=" translate(-72.0064, -37.1021)" d="M 72.9943 35 H 71.0185 C 70.456 35 70 35.4558 70 36.018 V 38.1862 C 70 38.7484 70.456 39.2042 71.0185 39.2042 H 72.9943 C 73.5568 39.2042 74.0128 38.7484 74.0128 38.1862 V 36.018 C 74.0128 35.4558 73.5568 35 72.9943 35 Z" stroke-linecap="round"/>
</g>
		<g transform="matrix(1 0 0 1 34.5064 -15.3979)">
<path style="stroke: none; stroke-width: 1; stroke-dasharray: none; stroke-linecap: butt; stroke-dashoffset: 0; stroke-linejoin: miter; stroke-miterlimit: 4; is-custom-font: none; font-file-url: none; fill: rgb(255,92,0); fill-rule: nonzero; opacity: 1;" transform=" translate(-72.0064, -17.1021)" d="M 72.9943 15 H 71.0185 C 70.456 15 70 15.4558 70 16.018 V 18.1862 C 70 18.7484 70.456 19.2042 71.0185 19.2042 H 72.9943 C 73.5568 19.2042 74.0128 18.7484 74.0128 18.1862 V 16.018 C 74.0128 15.4558 73.5568 15 72.9943 15 Z" stroke-linecap="round"/>
</g>
		<g transform="matrix(1 0 0 1 -10.4624 29.6446)">
<path style="stroke: none; stroke-width: 1; stroke-dasharray: none; stroke-linecap: butt; stroke-dashoffset: 0; stroke-linejoin: miter; stroke-miterlimit: 4; is-custom-font: none; font-file-url: none; fill: rgb(255,92,0); fill-rule: nonzero; opacity: 1;" transform=" translate(-27.0376, -62.1446)" d="M 28.0256 60.0425 H 26.0497 C 25.4872 60.0425 25.0312 60.4982 25.0312 61.0604 V 63.2287 C 25.0312 63.7909 25.4872 64.2467 26.0497 64.2467 H 28.0256 C 28.588 64.2467 29.044 63.7909 29.044 63.2287 V 61.0604 C 29.044 60.4982 28.588 60.0425 28.0256 60.0425 Z" stroke-linecap="round"/>
</g>
		<g transform="matrix(1 0 0 1 14.5376 29.6446)">
<path style="stroke: none; stroke-width: 1; stroke-dasharray: none; stroke-linecap: butt; stroke-dashoffset: 0; stroke-linejoin: miter; stroke-miterlimit: 4; is-custom-font: none; font-file-url: none; fill: rgb(255,92,0); fill-rule: nonzero; opacity: 1;" transform=" translate(-52.0376, -62.1446)" d="M 53.0256 60.0425 H 51.0497 C 50.4872 60.0425 50.0312 60.4982 50.0312 61.0604 V 63.2287 C 50.0312 63.7909 50.4872 64.2467 51.0497 64.2467 H 53.0256 C 53.588 64.2467 54.044 63.7909 54.044 63.2287 V 61.0604 C 54.044 60.4982 53.588 60.0425 53.0256 60.0425 Z" stroke-linecap="round"/>
</g>
		<g transform="matrix(1 0 0 1 -20.4624 -20.2573)">
<path style="stroke: none; stroke-width: 1; stroke-dasharray: none; stroke-linecap: butt; stroke-dashoffset: 0; stroke-linejoin: miter; stroke-miterlimit: 4; is-custom-font: none; font-file-url: none; fill: rgb(255,92,0); fill-rule: nonzero; opacity: 1;" transform=" translate(-17.0376, -12.2427)" d="M 18.0256 10.1406 H 16.0497 C 15.4872 10.1406 15.0312 10.5964 15.0312 11.1586 V 13.3269 C 15.0312 13.8891 15.4872 14.3448 16.0497 14.3448 H 18.0256 C 18.588 14.3448 19.044 13.8891 19.044 13.3269 V 11.1586 C 19.044 10.5964 18.588 10.1406 18.0256 10.1406 Z" stroke-linecap="round"/>
</g>
		<g transform="matrix(1 0 0 1 4.5376 29.6936)">
<path style="stroke: none; stroke-width: 1; stroke-dasharray: none; stroke-linecap: butt; stroke-dashoffset: 0; stroke-linejoin: miter; stroke-miterlimit: 4; is-custom-font: none; font-file-url: none; fill: rgb(255,92,0); fill-rule: nonzero; opacity: 1;" transform=" translate(-42.0376, -62.1936)" d="M 43.0256 60.0916 H 41.0497 C 40.4872 60.0916 40.0312 60.5473 40.0312 61.1095 V 63.2778 C 40.0312 63.84 40.4872 64.2957 41.0497 64.2957 H 43.0256 C 43.588 64.2957 44.044 63.84 44.044 63.2778 V 61.1095 C 44.044 60.5473 43.588 60.0916 43.0256 60.0916 Z" stroke-linecap="round"/>
</g>
		<g transform="matrix(1 0 0 1 29.5376 -20.2573)">
<path style="stroke: none; stroke-width: 1; stroke-dasharray: none; stroke-linecap: butt; stroke-dashoffset: 0; stroke-linejoin: miter; stroke-miterlimit: 4; is-custom-font: none; font-file-url: none; fill: rgb(255,92,0); fill-rule: nonzero; opacity: 1;" transform=" translate(-67.0376, -12.2427)" d="M 68.0256 10.1406 H 66.0497 C 65.4872 10.1406 65.0312 10.5964 65.0312 11.1586 V 13.3269 C 65.0312 13.8891 65.4872 14.3448 66.0497 14.3448 H 68.0256 C 68.588 14.3448 69.044 13.8891 69.044 13.3269 V 11.1586 C 69.044 10.5964 68.588 10.1406 68.0256 10.1406 Z" stroke-linecap="round"/>
</g>
		<g transform="matrix(1 0 0 1 34.5064 -0.3488)">
<path style="stroke: none; stroke-width: 1; stroke-dasharray: none; stroke-linecap: butt; stroke-dashoffset: 0; stroke-linejoin: miter; stroke-miterlimit: 4; is-custom-font: none; font-file-url: none; fill: rgb(255,92,0); fill-rule: nonzero; opacity: 1;" transform=" translate(-72.0064, -32.1512)" d="M 72.9943 30.0491 H 71.0185 C 70.456 30.0491 70 30.5048 70 31.067 V 33.2353 C 70 33.7975 70.456 34.2533 71.0185 34.2533 H 72.9943 C 73.5568 34.2533 74.0128 33.7975 74.0128 33.2353 V 31.067 C 74.0128 30.5048 73.5568 30.0491 72.9943 30.0491 Z" stroke-linecap="round"/>
</g>
		<g transform="matrix(1 0 0 1 34.5064 19.6512)">
<path style="stroke: none; stroke-width: 1; stroke-dasharray: none; stroke-linecap: butt; stroke-dashoffset: 0; stroke-linejoin: miter; stroke-miterlimit: 4; is-custom-font: none; font-file-url: none; fill: rgb(255,92,0); fill-rule: nonzero; opacity: 1;" transform=" translate(-72.0064, -52.1512)" d="M 72.9943 50.0491 H 71.0185 C 70.456 50.0491 70 50.5048 70 51.067 V 53.2353 C 70 53.7975 70.456 54.2533 71.0185 54.2533 H 72.9943 C 73.5568 54.2533 74.0128 53.7975 74.0128 53.2353 V 51.067 C 74.0128 50.5048 73.5568 50.0491 72.9943 50.0491 Z" stroke-linecap="round"/>
</g>
		<g transform="matrix(1 0 0 1 -10.4624 -20.2573)">
<path style="stroke: none; stroke-width: 1; stroke-dasharray: none; stroke-linecap: butt; stroke-dashoffset: 0; stroke-linejoin: miter; stroke-miterlimit: 4; is-custom-font: none; font-file-url: none; fill: rgb(255,92,0); fill-rule: nonzero; opacity: 1;" transform=" translate(-27.0376, -12.2427)" d="M 28.0256 10.1406 H 26.0497 C 25.4872 10.1406 25.0312 10.5964 25.0312 11.1586 V 13.3269 C 25.0312 13.8891 25.4872 14.3448 26.0497 14.3448 H 28.0256 C 28.588 14.3448 29.044 13.8891 29.044 13.3269 V 11.1586 C 29.044 10.5964 28.588 10.1406 28.0256 10.1406 Z" stroke-linecap="round"/>
</g>
		<g transform="matrix(1 0 0 1 34.5064 24.6021)">
<path style="stroke: none; stroke-width: 1; stroke-dasharray: none; stroke-linecap: butt; stroke-dashoffset: 0; stroke-linejoin: miter; stroke-miterlimit: 4; is-custom-font: none; font-file-url: none; fill: rgb(255,92,0); fill-rule: nonzero; opacity: 1;" transform=" translate(-72.0064, -57.1021)" d="M 72.9943 55 H 71.0185 C 70.456 55 70 55.4558 70 56.018 V 58.1862 C 70 58.7484 70.456 59.2042 71.0185 59.2042 H 72.9943 C 73.5568 59.2042 74.0128 58.7484 74.0128 58.1862 V 56.018 C 74.0128 55.4558 73.5568 55 72.9943 55 Z" stroke-linecap="round"/>
</g>
		<g transform="matrix(1 0 0 1 14.5376 -20.2573)">
<path style="stroke: none; stroke-width: 1; stroke-dasharray: none; stroke-linecap: butt; stroke-dashoffset: 0; stroke-linejoin: miter; stroke-miterlimit: 4; is-custom-font: none; font-file-url: none; fill: rgb(255,92,0); fill-rule: nonzero; opacity: 1;" transform=" translate(-52.0376, -12.2427)" d="M 53.0256 10.1406 H 51.0497 C 50.4872 10.1406 50.0312 10.5964 50.0312 11.1586 V 13.3269 C 50.0312 13.8891 50.4872 14.3448 51.0497 14.3448 H 53.0256 C 53.588 14.3448 54.044 13.8891 54.044 13.3269 V 11.1586 C 54.044 10.5964 53.588 10.1406 53.0256 10.1406 Z" stroke-linecap="round"/>
</g>
		<g transform="matrix(1 0 0 1 -5.4947 -25.5386)">
<path style="stroke: none; stroke-width: 1; stroke-dasharray: none; stroke-linecap: butt; stroke-dashoffset: 0; stroke-linejoin: miter; stroke-miterlimit: 4; is-custom-font: none; font-file-url: none; fill: rgb(255,92,0); fill-rule: nonzero; opacity: 1;" transform=" translate(-32.0053, -6.9614)" d="M 31.0174 9.06348 L 32.9932 9.06348 C 33.5557 9.06348 34.0117 8.60772 34.0117 8.04551 L 34.0117 5.87725 C 34.0117 5.31504 33.5557 4.85928 32.9932 4.85928 L 31.0174 4.85928 C 30.4549 4.85928 29.9989 5.31504 29.9989 5.87725 L 29.9989 8.04551 C 29.9989 8.60772 30.4549 9.06348 31.0174 9.06348 Z" stroke-linecap="round"/>
</g>
		<g transform="matrix(1 0 0 1 34.5064 9.6512)">
<path style="stroke: none; stroke-width: 1; stroke-dasharray: none; stroke-linecap: butt; stroke-dashoffset: 0; stroke-linejoin: miter; stroke-miterlimit: 4; is-custom-font: none; font-file-url: none; fill: rgb(255,92,0); fill-rule: nonzero; opacity: 1;" transform=" translate(-72.0064, -42.1512)" d="M 72.9943 40.0491 H 71.0185 C 70.456 40.0491 70 40.5048 70 41.067 V 43.2353 C 70 43.7975 70.456 44.2533 71.0185 44.2533 H 72.9943 C 73.5568 44.2533 74.0128 43.7975 74.0128 43.2353 V 41.067 C 74.0128 40.5048 73.5568 40.0491 72.9943 40.0491 Z" stroke-linecap="round"/>
</g>
		<g transform="matrix(1 0 0 1 34.5064 -10.3488)">
<path style="stroke: none; stroke-width: 1; stroke-dasharray: none; stroke-linecap: butt; stroke-dashoffset: 0; stroke-linejoin: miter; stroke-miterlimit: 4; is-custom-font: none; font-file-url: none; fill: rgb(255,92,0); fill-rule: nonzero; opacity: 1;" transform=" translate(-72.0064, -22.1512)" d="M 72.9943 20.0491 H 71.0185 C 70.456 20.0491 70 20.5048 70 21.067 V 23.2353 C 70 23.7975 70.456 24.2533 71.0185 24.2533 H 72.9943 C 73.5568 24.2533 74.0128 23.7975 74.0128 23.2353 V 21.067 C 74.0128 20.5048 73.5568 20.0491 72.9943 20.0491 Z" stroke-linecap="round"/>
</g>
</g>
</g>
</svg>
