<svg width="74" height="65" viewBox="0 0 74 65" fill="none" xmlns="http://www.w3.org/2000/svg">
<g id="ICON QUESTION">
<path id="Vector" d="M2.98793 14.9509H1.01209C0.449607 14.9509 -0.00637817 15.4067 -0.00637817 15.9689V18.1372C-0.00637817 18.6994 0.449607 19.1551 1.01209 19.1551H2.98793C3.55042 19.1551 4.0064 18.6994 4.0064 18.1372V15.9689C4.0064 15.4067 3.55042 14.9509 2.98793 14.9509Z" fill="#FF5C00"/>
<path id="Vector_2" d="M37.9879 59.9509H36.0121C35.4496 59.9509 34.9936 60.4067 34.9936 60.9689V63.1372C34.9936 63.6994 35.4496 64.1551 36.0121 64.1551H37.9879C38.5504 64.1551 39.0064 63.6994 39.0064 63.1372V60.9689C39.0064 60.4067 38.5504 59.9509 37.9879 59.9509Z" fill="#FF5C00"/>
<path id="Vector_3" d="M2.98793 34.9509H1.01209C0.449607 34.9509 -0.00637817 35.4067 -0.00637817 35.9689V38.1372C-0.00637817 38.6994 0.449607 39.1551 1.01209 39.1551H2.98793C3.55042 39.1551 4.0064 38.6994 4.0064 38.1372V35.9689C4.0064 35.4067 3.55042 34.9509 2.98793 34.9509Z" fill="#FF5C00"/>
<path id="Vector_4" d="M47.9879 15H46.0121C45.4496 15 44.9936 15.4558 44.9936 16.018V18.1862C44.9936 18.7484 45.4496 19.2042 46.0121 19.2042H47.9879C48.5504 19.2042 49.0064 18.7484 49.0064 18.1862V16.018C49.0064 15.4558 48.5504 15 47.9879 15Z" fill="#FF5C00"/>
<path id="Vector_5" d="M42.9879 10H41.0121C40.4496 10 39.9936 10.4558 39.9936 11.018V13.1862C39.9936 13.7484 40.4496 14.2042 41.0121 14.2042H42.9879C43.5504 14.2042 44.0064 13.7484 44.0064 13.1862V11.018C44.0064 10.4558 43.5504 10 42.9879 10Z" fill="#FF5C00"/>
<path id="Vector_6" d="M37.9879 10H36.0121C35.4496 10 34.9936 10.4558 34.9936 11.018V13.1862C34.9936 13.7484 35.4496 14.2042 36.0121 14.2042H37.9879C38.5504 14.2042 39.0064 13.7484 39.0064 13.1862V11.018C39.0064 10.4558 38.5504 10 37.9879 10Z" fill="#FF5C00"/>
<path id="Vector_7" d="M32.9879 15H31.0121C30.4496 15 29.9936 15.4558 29.9936 16.018V18.1862C29.9936 18.7484 30.4496 19.2042 31.0121 19.2042H32.9879C33.5504 19.2042 34.0064 18.7484 34.0064 18.1862V16.018C34.0064 15.4558 33.5504 15 32.9879 15Z" fill="#FF5C00"/>
<path id="Vector_8" d="M2.98793 24.9509H1.01209C0.449607 24.9509 -0.00637817 25.4067 -0.00637817 25.9689V28.1372C-0.00637817 28.6994 0.449607 29.1551 1.01209 29.1551H2.98793C3.55042 29.1551 4.0064 28.6994 4.0064 28.1372V25.9689C4.0064 25.4067 3.55042 24.9509 2.98793 24.9509Z" fill="#FF5C00"/>
<path id="Vector_9" d="M2.98793 4.95093H1.01209C0.449607 4.95093 -0.00637817 5.40669 -0.00637817 5.96889V8.13716C-0.00637817 8.69936 0.449607 9.15512 1.01209 9.15512H2.98793C3.55042 9.15512 4.0064 8.69936 4.0064 8.13716V5.96889C4.0064 5.40669 3.55042 4.95093 2.98793 4.95093Z" fill="#FF5C00"/>
<path id="Vector_10" d="M12.9879 49.9509H11.0121C10.4496 49.9509 9.99362 50.4067 9.99362 50.9689V53.1372C9.99362 53.6994 10.4496 54.1551 11.0121 54.1551H12.9879C13.5504 54.1551 14.0064 53.6994 14.0064 53.1372V50.9689C14.0064 50.4067 13.5504 49.9509 12.9879 49.9509Z" fill="#FF5C00"/>
<path id="Vector_11" d="M7.98793 49.9019H6.01209C5.44961 49.9019 4.99362 50.3576 4.99362 50.9198V53.0881C4.99362 53.6503 5.44961 54.106 6.01209 54.106H7.98793C8.55042 54.106 9.0064 53.6503 9.0064 53.0881V50.9198C9.0064 50.3576 8.55042 49.9019 7.98793 49.9019Z" fill="#FF5C00"/>
<path id="Vector_12" d="M2.98793 49.9019H1.01209C0.449607 49.9019 -0.00637817 50.3576 -0.00637817 50.9198V53.0881C-0.00637817 53.6503 0.449607 54.106 1.01209 54.106H2.98793C3.55042 54.106 4.0064 53.6503 4.0064 53.0881V50.9198C4.0064 50.3576 3.55042 49.9019 2.98793 49.9019Z" fill="#FF5C00"/>
<path id="Vector_13" d="M72.9879 49.9019H71.0121C70.4496 49.9019 69.9936 50.3576 69.9936 50.9198V53.0881C69.9936 53.6503 70.4496 54.106 71.0121 54.106H72.9879C73.5504 54.106 74.0064 53.6503 74.0064 53.0881V50.9198C74.0064 50.3576 73.5504 49.9019 72.9879 49.9019Z" fill="#FF5C00"/>
<path id="Vector_14" d="M62.9879 49.9509H61.0121C60.4496 49.9509 59.9936 50.4067 59.9936 50.9689V53.1372C59.9936 53.6994 60.4496 54.1551 61.0121 54.1551H62.9879C63.5504 54.1551 64.0064 53.6994 64.0064 53.1372V50.9689C64.0064 50.4067 63.5504 49.9509 62.9879 49.9509Z" fill="#FF5C00"/>
<path id="Vector_15" d="M42.9879 24.9509H41.0121C40.4496 24.9509 39.9936 25.4067 39.9936 25.9689V28.1372C39.9936 28.6994 40.4496 29.1551 41.0121 29.1551H42.9879C43.5504 29.1551 44.0064 28.6994 44.0064 28.1372V25.9689C44.0064 25.4067 43.5504 24.9509 42.9879 24.9509Z" fill="#FF5C00"/>
<path id="Vector_16" d="M57.9879 49.9509H56.0121C55.4496 49.9509 54.9936 50.4067 54.9936 50.9689V53.1372C54.9936 53.6994 55.4496 54.1551 56.0121 54.1551H57.9879C58.5504 54.1551 59.0064 53.6994 59.0064 53.1372V50.9689C59.0064 50.4067 58.5504 49.9509 57.9879 49.9509Z" fill="#FF5C00"/>
<path id="Vector_17" d="M22.9879 49.9509H21.0121C20.4496 49.9509 19.9936 50.4067 19.9936 50.9689V53.1372C19.9936 53.6994 20.4496 54.1551 21.0121 54.1551H22.9879C23.5504 54.1551 24.0064 53.6994 24.0064 53.1372V50.9689C24.0064 50.4067 23.5504 49.9509 22.9879 49.9509Z" fill="#FF5C00"/>
<path id="Vector_18" d="M47.9879 49.9509H46.0121C45.4496 49.9509 44.9936 50.4067 44.9936 50.9689V53.1372C44.9936 53.6994 45.4496 54.1551 46.0121 54.1551H47.9879C48.5504 54.1551 49.0064 53.6994 49.0064 53.1372V50.9689C49.0064 50.4067 48.5504 49.9509 47.9879 49.9509Z" fill="#FF5C00"/>
<path id="Vector_19" d="M2.98793 20H1.01209C0.449607 20 -0.00637817 20.4558 -0.00637817 21.018V23.1862C-0.00637817 23.7484 0.449607 24.2042 1.01209 24.2042H2.98793C3.55042 24.2042 4.0064 23.7484 4.0064 23.1862V21.018C4.0064 20.4558 3.55042 20 2.98793 20Z" fill="#FF5C00"/>
<path id="Vector_20" d="M2.98793 40H1.01209C0.449607 40 -0.00637817 40.4558 -0.00637817 41.018V43.1862C-0.00637817 43.7484 0.449607 44.2042 1.01209 44.2042H2.98793C3.55042 44.2042 4.0064 43.7484 4.0064 43.1862V41.018C4.0064 40.4558 3.55042 40 2.98793 40Z" fill="#FF5C00"/>
<path id="Vector_21" d="M12.9879 0.0490723H11.0121C10.4496 0.0490723 9.99362 0.50483 9.99362 1.06704V3.2353C9.99362 3.79751 10.4496 4.25326 11.0121 4.25326H12.9879C13.5504 4.25326 14.0064 3.79751 14.0064 3.2353V1.06704C14.0064 0.50483 13.5504 0.0490723 12.9879 0.0490723Z" fill="#FF5C00"/>
<path id="Vector_22" d="M7.98793 0H6.01209C5.44961 0 4.99362 0.455758 4.99362 1.01796V3.18623C4.99362 3.74843 5.44961 4.20419 6.01209 4.20419H7.98793C8.55042 4.20419 9.0064 3.74843 9.0064 3.18623V1.01796C9.0064 0.455758 8.55042 0 7.98793 0Z" fill="#FF5C00"/>
<path id="Vector_23" d="M2.98793 0H1.01209C0.449607 0 -0.00637817 0.455758 -0.00637817 1.01796V3.18623C-0.00637817 3.74843 0.449607 4.20419 1.01209 4.20419H2.98793C3.55042 4.20419 4.0064 3.74843 4.0064 3.18623V1.01796C4.0064 0.455758 3.55042 0 2.98793 0Z" fill="#FF5C00"/>
<path id="Vector_24" d="M72.9879 0H71.0121C70.4496 0 69.9936 0.455758 69.9936 1.01796V3.18623C69.9936 3.74843 70.4496 4.20419 71.0121 4.20419H72.9879C73.5504 4.20419 74.0064 3.74843 74.0064 3.18623V1.01796C74.0064 0.455758 73.5504 0 72.9879 0Z" fill="#FF5C00"/>
<path id="Vector_25" d="M2.98793 44.9509H1.01209C0.449607 44.9509 -0.00637817 45.4067 -0.00637817 45.9689V48.1372C-0.00637817 48.6994 0.449607 49.1551 1.01209 49.1551H2.98793C3.55042 49.1551 4.0064 48.6994 4.0064 48.1372V45.9689C4.0064 45.4067 3.55042 44.9509 2.98793 44.9509Z" fill="#FF5C00"/>
<path id="Vector_26" d="M37.9879 0.0490723H36.0121C35.4496 0.0490723 34.9936 0.50483 34.9936 1.06704V3.2353C34.9936 3.79751 35.4496 4.25326 36.0121 4.25326H37.9879C38.5504 4.25326 39.0064 3.79751 39.0064 3.2353V1.06704C39.0064 0.50483 38.5504 0.0490723 37.9879 0.0490723Z" fill="#FF5C00"/>
<path id="Vector_27" d="M62.9879 0.0490723H61.0121C60.4496 0.0490723 59.9936 0.50483 59.9936 1.06704V3.2353C59.9936 3.79751 60.4496 4.25326 61.0121 4.25326H62.9879C63.5504 4.25326 64.0064 3.79751 64.0064 3.2353V1.06704C64.0064 0.50483 63.5504 0.0490723 62.9879 0.0490723Z" fill="#FF5C00"/>
<path id="Vector_28" d="M47.9879 20H46.0121C45.4496 20 44.9936 20.4558 44.9936 21.018V23.1862C44.9936 23.7484 45.4496 24.2042 46.0121 24.2042H47.9879C48.5504 24.2042 49.0064 23.7484 49.0064 23.1862V21.018C49.0064 20.4558 48.5504 20 47.9879 20Z" fill="#FF5C00"/>
<path id="Vector_29" d="M37.9879 40H36.0121C35.4496 40 34.9936 40.4558 34.9936 41.018V43.1862C34.9936 43.7484 35.4496 44.2042 36.0121 44.2042H37.9879C38.5504 44.2042 39.0064 43.7484 39.0064 43.1862V41.018C39.0064 40.4558 38.5504 40 37.9879 40Z" fill="#FF5C00"/>
<path id="Vector_30" d="M32.9879 0.0490723H31.0121C30.4496 0.0490723 29.9936 0.50483 29.9936 1.06704V3.2353C29.9936 3.79751 30.4496 4.25326 31.0121 4.25326H32.9879C33.5504 4.25326 34.0064 3.79751 34.0064 3.2353V1.06704C34.0064 0.50483 33.5504 0.0490723 32.9879 0.0490723Z" fill="#FF5C00"/>
<path id="Vector_31" d="M57.9879 0.0490723H56.0121C55.4496 0.0490723 54.9936 0.50483 54.9936 1.06704V3.2353C54.9936 3.79751 55.4496 4.25326 56.0121 4.25326H57.9879C58.5504 4.25326 59.0064 3.79751 59.0064 3.2353V1.06704C59.0064 0.50483 58.5504 0.0490723 57.9879 0.0490723Z" fill="#FF5C00"/>
<path id="Vector_32" d="M22.9879 0.0490723H21.0121C20.4496 0.0490723 19.9936 0.50483 19.9936 1.06704V3.2353C19.9936 3.79751 20.4496 4.25326 21.0121 4.25326H22.9879C23.5504 4.25326 24.0064 3.79751 24.0064 3.2353V1.06704C24.0064 0.50483 23.5504 0.0490723 22.9879 0.0490723Z" fill="#FF5C00"/>
<path id="Vector_33" d="M47.9879 0.0490723H46.0121C45.4496 0.0490723 44.9936 0.50483 44.9936 1.06704V3.2353C44.9936 3.79751 45.4496 4.25326 46.0121 4.25326H47.9879C48.5504 4.25326 49.0064 3.79751 49.0064 3.2353V1.06704C49.0064 0.50483 48.5504 0.0490723 47.9879 0.0490723Z" fill="#FF5C00"/>
<path id="Vector_34" d="M2.98793 30H1.01209C0.449607 30 -0.00637817 30.4558 -0.00637817 31.018V33.1862C-0.00637817 33.7484 0.449607 34.2042 1.01209 34.2042H2.98793C3.55042 34.2042 4.0064 33.7484 4.0064 33.1862V31.018C4.0064 30.4558 3.55042 30 2.98793 30Z" fill="#FF5C00"/>
<path id="Vector_35" d="M2.98793 10H1.01209C0.449607 10 -0.00637817 10.4558 -0.00637817 11.018V13.1862C-0.00637817 13.7484 0.449607 14.2042 1.01209 14.2042H2.98793C3.55042 14.2042 4.0064 13.7484 4.0064 13.1862V11.018C4.0064 10.4558 3.55042 10 2.98793 10Z" fill="#FF5C00"/>
<path id="Vector_36" d="M37.9879 30H36.0121C35.4496 30 34.9936 30.4558 34.9936 31.018V33.1862C34.9936 33.7484 35.4496 34.2042 36.0121 34.2042H37.9879C38.5504 34.2042 39.0064 33.7484 39.0064 33.1862V31.018C39.0064 30.4558 38.5504 30 37.9879 30Z" fill="#FF5C00"/>
<path id="Vector_37" d="M37.9879 25H36.0121C35.4496 25 34.9936 25.4558 34.9936 26.018V28.1862C34.9936 28.7484 35.4496 29.2042 36.0121 29.2042H37.9879C38.5504 29.2042 39.0064 28.7484 39.0064 28.1862V26.018C39.0064 25.4558 38.5504 25 37.9879 25Z" fill="#FF5C00"/>
<path id="Vector_38" d="M32.9879 55H31.0121C30.4496 55 29.9936 55.4558 29.9936 56.018V58.1862C29.9936 58.7484 30.4496 59.2042 31.0121 59.2042H32.9879C33.5504 59.2042 34.0064 58.7484 34.0064 58.1862V56.018C34.0064 55.4558 33.5504 55 32.9879 55Z" fill="#FF5C00"/>
<path id="Vector_39" d="M72.9879 15H71.0121C70.4496 15 69.9936 15.4558 69.9936 16.018V18.1862C69.9936 18.7484 70.4496 19.2042 71.0121 19.2042H72.9879C73.5504 19.2042 74.0064 18.7484 74.0064 18.1862V16.018C74.0064 15.4558 73.5504 15 72.9879 15Z" fill="#FF5C00"/>
<path id="Vector_40" d="M72.9879 35H71.0121C70.4496 35 69.9936 35.4558 69.9936 36.018V38.1862C69.9936 38.7484 70.4496 39.2042 71.0121 39.2042H72.9879C73.5504 39.2042 74.0064 38.7484 74.0064 38.1862V36.018C74.0064 35.4558 73.5504 35 72.9879 35Z" fill="#FF5C00"/>
<path id="Vector_41" d="M18.0192 50.0425H16.0433C15.4809 50.0425 15.0249 50.4982 15.0249 51.0604V53.2287C15.0249 53.7909 15.4809 54.2467 16.0433 54.2467H18.0192C18.5817 54.2467 19.0377 53.7909 19.0377 53.2287V51.0604C19.0377 50.4982 18.5817 50.0425 18.0192 50.0425Z" fill="#FF5C00"/>
<path id="Vector_42" d="M68.0192 50.0425H66.0433C65.4809 50.0425 65.0249 50.4982 65.0249 51.0604V53.2287C65.0249 53.7909 65.4809 54.2467 66.0433 54.2467H68.0192C68.5817 54.2467 69.0377 53.7909 69.0377 53.2287V51.0604C69.0377 50.4982 68.5817 50.0425 68.0192 50.0425Z" fill="#FF5C00"/>
<path id="Vector_43" d="M72.9879 25H71.0121C70.4496 25 69.9936 25.4558 69.9936 26.018V28.1862C69.9936 28.7484 70.4496 29.2042 71.0121 29.2042H72.9879C73.5504 29.2042 74.0064 28.7484 74.0064 28.1862V26.018C74.0064 25.4558 73.5504 25 72.9879 25Z" fill="#FF5C00"/>
<path id="Vector_44" d="M72.9879 5H71.0121C70.4496 5 69.9936 5.45576 69.9936 6.01796V8.18623C69.9936 8.74843 70.4496 9.20419 71.0121 9.20419H72.9879C73.5504 9.20419 74.0064 8.74843 74.0064 8.18623V6.01796C74.0064 5.45576 73.5504 5 72.9879 5Z" fill="#FF5C00"/>
<path id="Vector_45" d="M28.0192 50.0425H26.0433C25.4809 50.0425 25.0249 50.4982 25.0249 51.0604V53.2287C25.0249 53.7909 25.4809 54.2467 26.0433 54.2467H28.0192C28.5817 54.2467 29.0377 53.7909 29.0377 53.2287V51.0604C29.0377 50.4982 28.5817 50.0425 28.0192 50.0425Z" fill="#FF5C00"/>
<path id="Vector_46" d="M53.0192 50.0425H51.0433C50.4809 50.0425 50.0249 50.4982 50.0249 51.0604V53.2287C50.0249 53.7909 50.4809 54.2467 51.0433 54.2467H53.0192C53.5817 54.2467 54.0377 53.7909 54.0377 53.2287V51.0604C54.0377 50.4982 53.5817 50.0425 53.0192 50.0425Z" fill="#FF5C00"/>
<path id="Vector_47" d="M18.0192 0.140625H16.0433C15.4809 0.140625 15.0249 0.596383 15.0249 1.15859V3.32685C15.0249 3.88906 15.4809 4.34482 16.0433 4.34482H18.0192C18.5817 4.34482 19.0377 3.88906 19.0377 3.32685V1.15859C19.0377 0.596383 18.5817 0.140625 18.0192 0.140625Z" fill="#FF5C00"/>
<path id="Vector_48" d="M43.0192 0.140625H41.0433C40.4809 0.140625 40.0249 0.596383 40.0249 1.15859V3.32685C40.0249 3.88906 40.4809 4.34482 41.0433 4.34482H43.0192C43.5817 4.34482 44.0377 3.88906 44.0377 3.32685V1.15859C44.0377 0.596383 43.5817 0.140625 43.0192 0.140625Z" fill="#FF5C00"/>
<path id="Vector_49" d="M68.0192 0.140625H66.0433C65.4809 0.140625 65.0249 0.596383 65.0249 1.15859V3.32685C65.0249 3.88906 65.4809 4.34482 66.0433 4.34482H68.0192C68.5817 4.34482 69.0377 3.88906 69.0377 3.32685V1.15859C69.0377 0.596383 68.5817 0.140625 68.0192 0.140625Z" fill="#FF5C00"/>
<path id="Vector_50" d="M72.9879 20.0491H71.0121C70.4496 20.0491 69.9936 20.5048 69.9936 21.067V23.2353C69.9936 23.7975 70.4496 24.2533 71.0121 24.2533H72.9879C73.5504 24.2533 74.0064 23.7975 74.0064 23.2353V21.067C74.0064 20.5048 73.5504 20.0491 72.9879 20.0491Z" fill="#FF5C00"/>
<path id="Vector_51" d="M72.9879 40.0491H71.0121C70.4496 40.0491 69.9936 40.5048 69.9936 41.067V43.2353C69.9936 43.7975 70.4496 44.2533 71.0121 44.2533H72.9879C73.5504 44.2533 74.0064 43.7975 74.0064 43.2353V41.067C74.0064 40.5048 73.5504 40.0491 72.9879 40.0491Z" fill="#FF5C00"/>
<path id="Vector_52" d="M28.0192 0.140625H26.0433C25.4809 0.140625 25.0249 0.596383 25.0249 1.15859V3.32685C25.0249 3.88906 25.4809 4.34482 26.0433 4.34482H28.0192C28.5817 4.34482 29.0377 3.88906 29.0377 3.32685V1.15859C29.0377 0.596383 28.5817 0.140625 28.0192 0.140625Z" fill="#FF5C00"/>
<path id="Vector_53" d="M72.9879 45H71.0121C70.4496 45 69.9936 45.4558 69.9936 46.018V48.1862C69.9936 48.7484 70.4496 49.2042 71.0121 49.2042H72.9879C73.5504 49.2042 74.0064 48.7484 74.0064 48.1862V46.018C74.0064 45.4558 73.5504 45 72.9879 45Z" fill="#FF5C00"/>
<path id="Vector_54" d="M53.0192 0.140625H51.0433C50.4809 0.140625 50.0249 0.596383 50.0249 1.15859V3.32685C50.0249 3.88906 50.4809 4.34482 51.0433 4.34482H53.0192C53.5817 4.34482 54.0377 3.88906 54.0377 3.32685V1.15859C54.0377 0.596383 53.5817 0.140625 53.0192 0.140625Z" fill="#FF5C00"/>
<path id="Vector_55" d="M43.0192 55.0916H41.0433C40.4809 55.0916 40.0249 55.5473 40.0249 56.1095V58.2778C40.0249 58.84 40.4809 59.2957 41.0433 59.2957H43.0192C43.5817 59.2957 44.0377 58.84 44.0377 58.2778V56.1095C44.0377 55.5473 43.5817 55.0916 43.0192 55.0916Z" fill="#FF5C00"/>
<path id="Vector_56" d="M72.9879 30.0491H71.0121C70.4496 30.0491 69.9936 30.5048 69.9936 31.067V33.2353C69.9936 33.7975 70.4496 34.2533 71.0121 34.2533H72.9879C73.5504 34.2533 74.0064 33.7975 74.0064 33.2353V31.067C74.0064 30.5048 73.5504 30.0491 72.9879 30.0491Z" fill="#FF5C00"/>
<path id="Vector_57" d="M72.9879 10.0491H71.0121C70.4496 10.0491 69.9936 10.5048 69.9936 11.067V13.2353C69.9936 13.7975 70.4496 14.2533 71.0121 14.2533H72.9879C73.5504 14.2533 74.0064 13.7975 74.0064 13.2353V11.067C74.0064 10.5048 73.5504 10.0491 72.9879 10.0491Z" fill="#FF5C00"/>
</g>
</svg>
