<svg width="40" height="40" viewBox="0 0 40 40" fill="none" xmlns="http://www.w3.org/2000/svg">
<mask id="mask0_6860_833" style="mask-type:alpha" maskUnits="userSpaceOnUse" x="0" y="0" width="40" height="40">
<rect width="40" height="40" fill="#D9D9D9"/>
</mask>
<g mask="url(#mask0_6860_833)">
<path d="M10.9167 27.5L13.3334 23.3333C11.5 23.3333 9.93058 22.6806 8.62502 21.375C7.31946 20.0694 6.66669 18.5 6.66669 16.6667C6.66669 14.8333 7.31946 13.2639 8.62502 11.9583C9.93058 10.6528 11.5 10 13.3334 10C15.1667 10 16.7361 10.6528 18.0417 11.9583C19.3472 13.2639 20 14.8333 20 16.6667C20 17.3056 19.9236 17.8958 19.7709 18.4375C19.6181 18.9792 19.3889 19.5 19.0834 20L13.7917 29.1667C13.6528 29.4167 13.4584 29.6181 13.2084 29.7708C12.9584 29.9236 12.6806 30 12.375 30C11.7361 30 11.257 29.7222 10.9375 29.1667C10.6181 28.6111 10.6111 28.0556 10.9167 27.5ZM25.9167 27.5L28.3334 23.3333C26.5 23.3333 24.9306 22.6806 23.625 21.375C22.3195 20.0694 21.6667 18.5 21.6667 16.6667C21.6667 14.8333 22.3195 13.2639 23.625 11.9583C24.9306 10.6528 26.5 10 28.3334 10C30.1667 10 31.7361 10.6528 33.0417 11.9583C34.3472 13.2639 35 14.8333 35 16.6667C35 17.3056 34.9236 17.8958 34.7709 18.4375C34.6181 18.9792 34.3889 19.5 34.0834 20L28.7917 29.1667C28.6528 29.4167 28.4584 29.6181 28.2084 29.7708C27.9584 29.9236 27.6806 30 27.375 30C26.7361 30 26.257 29.7222 25.9375 29.1667C25.6181 28.6111 25.6111 28.0556 25.9167 27.5Z" fill="#1C1B1F"/>
</g>
</svg>
