<svg width="40" height="40" viewBox="0 0 40 40" fill="none" xmlns="http://www.w3.org/2000/svg">
<mask id="mask0_6815_827" style="mask-type:alpha" maskUnits="userSpaceOnUse" x="0" y="0" width="40" height="40">
<rect x="40" y="40" width="40" height="40" transform="rotate(-180 40 40)" fill="#D9D9D9"/>
</mask>
<g mask="url(#mask0_6815_827)">
<path d="M29.0834 12.5L26.6667 16.6667C28.5 16.6667 30.0695 17.3194 31.375 18.625C32.6806 19.9306 33.3334 21.5 33.3334 23.3333C33.3334 25.1667 32.6806 26.7361 31.375 28.0417C30.0695 29.3472 28.5 30 26.6667 30C24.8334 30 23.2639 29.3472 21.9584 28.0417C20.6528 26.7361 20 25.1667 20 23.3333C20 22.6944 20.0764 22.1042 20.2292 21.5625C20.382 21.0208 20.6112 20.5 20.9167 20L26.2084 10.8333C26.3473 10.5833 26.5417 10.3819 26.7917 10.2292C27.0417 10.0764 27.3195 10 27.625 10C28.2639 10 28.7431 10.2778 29.0625 10.8333C29.382 11.3889 29.3889 11.9444 29.0834 12.5ZM14.0834 12.5L11.6667 16.6667C13.5 16.6667 15.0695 17.3194 16.375 18.625C17.6806 19.9306 18.3334 21.5 18.3334 23.3333C18.3334 25.1667 17.6806 26.7361 16.375 28.0417C15.0695 29.3472 13.5 30 11.6667 30C9.83337 30 8.26393 29.3472 6.95837 28.0417C5.65282 26.7361 5.00004 25.1667 5.00004 23.3333C5.00004 22.6944 5.07643 22.1042 5.2292 21.5625C5.38198 21.0208 5.61115 20.5 5.91671 20L11.2084 10.8333C11.3473 10.5833 11.5417 10.3819 11.7917 10.2292C12.0417 10.0764 12.3195 10 12.625 10C13.2639 10 13.7431 10.2778 14.0625 10.8333C14.382 11.3889 14.3889 11.9444 14.0834 12.5Z" fill="#1C1B1F"/>
</g>
</svg>
