<svg width="73" height="65" viewBox="0 0 73 65" fill="none" xmlns="http://www.w3.org/2000/svg">
<g clip-path="url(#clip0_566_16605)">
<path d="M42.5044 33.5332C41.7406 34.4507 41.3567 35.6098 40.9862 36.2432C40.0584 37.8309 40.0577 37.9417 38.9585 39.4243C38.0739 40.6176 37.1879 41.7143 36.2082 42.3773C35.4862 42.8651 36.8485 37.1917 39.7311 34.6453C40.4653 33.9971 40.9801 32.8179 41.3769 33.124C41.4174 33.1549 43.0159 32.9191 42.5044 33.5332Z" fill="#A04C17"/>
<path d="M30.6498 45.2251C29.6666 45.796 28.8906 45.8424 27.3731 46.7477C26.9284 47.0132 26.3893 47.4178 26.1497 48.039C26.0789 48.2239 25.9534 48.5622 26.1012 48.9153C26.2192 49.1968 26.4541 49.3502 26.5195 49.3914C26.7597 49.5435 26.8825 49.6343 27.2415 49.6691C27.7604 49.72 27.9514 49.7039 28.0877 49.7374C28.7105 49.8921 26.5776 53.146 23.7995 53.3715C23.4035 53.4037 21.6551 53.5455 20.6288 52.4031C19.5451 51.1969 20.0404 49.4204 20.1302 49.0989C21.0816 45.6858 25.9082 44.5679 27.1794 44.2735C27.616 44.1723 29.9507 44.3695 30.865 44.3198C31.4284 44.2889 30.7321 45.1775 30.6491 45.2258L30.6498 45.2251Z" fill="#A04C17"/>
<path d="M34.7065 9.36348C35.6532 8.52971 36.9123 7.41952 38.9582 6.17337C40.5864 5.18109 42.2423 5.05222 43.6256 4.94397C44.6263 4.86601 46.3732 4.84023 48.3894 5.40532C50.8948 6.107 51.2019 6.98845 54.1189 8.35638C54.8739 8.71012 57.0663 9.68823 60.0096 10.2314C61.8173 10.5645 64.6297 11.0523 67.7026 10.0774C68.7977 9.73011 70.8349 8.34865 70.739 7.83382C70.6891 7.56578 69.9529 8.06579 69.6986 8.01811C66.7964 7.47428 62.1277 7.74297 59.849 7.46462C55.5102 6.93562 56.0035 3.95814 50.5143 2.88467C49.9974 2.78351 47.4178 2.30605 44.1411 2.88467C41.4515 3.35955 39.7653 4.2861 37.6715 5.4356C35.7902 6.46912 35.0142 7.18755 35.0001 8.01746C34.994 8.35574 34.44 9.59931 34.7079 9.36348H34.7065Z" fill="#A04C17"/>
<path d="M36.3944 11.593C37.4315 11.3211 37.9767 11.1723 39.2743 11.1446C41.3984 11.0982 42.9551 11.6684 43.4828 11.8901C44.86 12.4687 45.7797 13.6381 47.6191 15.9784C48.6812 17.3289 49.5469 18.6137 50.3391 19.7896C51.943 22.1698 51.8978 22.3335 52.5442 22.9553C54.2419 24.5899 56.2703 25.1138 57.1151 25.3219C57.1151 25.3219 59.8708 26.0004 62.5227 25.2607C63.0928 25.1015 63.7028 24.7478 63.8958 24.6357C64.2642 24.4218 64.2933 24.3625 64.2926 24.318C64.2872 23.9714 62.4849 23.8309 61.3418 23.57C58.5449 22.9321 56.7743 20.9114 55.7197 19.7072C53.5942 17.2812 54.5361 16.5261 52.4471 13.8566C51.555 12.7167 49.8978 10.6549 46.943 9.6149C45.084 8.96025 43.472 9.07623 40.248 9.30755C37.8492 9.47959 36.8923 9.8475 36.5462 10.5369C36.3768 10.8752 36.0354 11.6871 36.3944 11.593Z" fill="#A04C17"/>
<path d="M5.77216 59.3404C5.05825 57.4859 3.41115 54.3686 3.21817 52.2017C2.89091 48.5284 2.40507 43.6101 5.76676 38.7338C7.34234 36.4477 9.77892 34.6829 14.6507 31.1519C16.0259 30.1557 18.2358 29.2137 20.4018 27.2994C22.6231 25.3361 23.7493 24.1028 23.7493 24.1028C24.5914 23.1808 24.9774 22.6531 25.0799 22.7091C25.3768 22.8722 22.7216 27.6364 21.3458 30.3323C14.9355 42.8911 14.4213 53.3699 8.1696 58.2005C7.17365 58.9705 6.26001 60.6084 5.77148 59.3404H5.77216Z" fill="#A04C17"/>
<path d="M65.5066 6.84979C62.821 6.14553 62.597 5.32658 58.039 2.9973C54.8466 1.36584 53.2501 0.550107 51.2576 0.210541C47.8567 -0.369363 45.0821 0.390955 43.7042 0.784001C41.8473 1.31429 37.4316 2.65322 35.0348 5.84527C34.1212 7.06242 34.0045 6.97222 31.7089 10.8041C31.2926 11.4993 31.0868 12.1965 30.6576 12.7506C28.2386 15.8744 27.8864 16.069 27.138 17.1766C26.244 18.5013 26.4977 18.5928 24.8202 22.5046C23.5422 25.484 22.9032 26.9737 22.2453 27.9145C20.8641 29.8881 19.8978 30.073 16.2365 32.9145C12.7352 35.6317 10.9841 36.9906 9.45512 39.0622C7.02933 42.3483 6.24796 45.6389 5.93554 47.0126C5.3377 49.6447 5.33162 51.9225 5.335 53.1603C5.34714 57.8001 6.37144 60.353 5.2493 60.9471C4.49424 61.3466 2.86738 60.8085 1.90179 60.1275C1.31676 59.7151 0.874118 59.179 0.614333 59.3079C0.345101 59.4413 0.490176 60.1797 0.528637 60.3736C0.77965 61.6475 1.61569 62.6095 2.41731 63.3247C3.48951 64.2809 4.60355 64.8885 5.16428 65.1282C5.22771 65.1552 5.29654 65.1823 5.36671 65.2087H36.6489C36.551 64.7912 36.0355 64.3795 35.636 64.0624C34.0605 62.8105 31.9316 62.9967 31.2582 62.9967C29.6596 62.9967 28.4795 62.7622 28.0611 62.2467C27.8735 62.0154 27.9282 61.4529 27.9943 61.2518C28.2244 60.5514 28.7062 59.9496 30.7939 58.1584C32.3938 56.7859 33.132 56.4122 33.4896 55.2924C33.9748 53.775 33.2521 51.5984 33.0146 51.3039C32.4687 50.6274 31.935 49.4121 28.9268 49.6364C24.3965 49.9746 23.3357 53.1989 22.497 52.7717C19.8735 51.4347 23.495 47.4405 24.75 46.7162C27.1407 45.338 29.912 45.6202 32.1158 44.8006C32.9707 44.4823 35.3 43.6163 37.0085 41.5222C37.4957 40.9249 38.2811 39.5293 40.0018 36.7889C40.7946 35.526 41.1968 35.0692 41.9674 34.1291C42.6212 33.3321 43.3547 32.7006 44.6368 32.1375C45.6179 31.7064 46.2413 31.2302 46.2137 31.113C46.1212 30.7206 44.3122 31.0543 43.9282 31.1645C43.5355 31.2773 42.2022 31.7663 41.3425 32.2811C40.271 32.9229 40.0227 33.2483 39.572 33.4016C37.0827 34.2509 36.5011 33.2863 35.881 32.7522C35.4383 32.3714 34.5315 30.6233 34.3979 30.3649C34.078 29.7483 33.5996 28.9003 33.9309 28.39C34.2852 27.8442 34.912 27.7721 35.4626 27.8339C36.2265 27.9203 36.1954 28.457 37.1792 28.8178C38.381 29.2586 39.6273 29.2566 40.5807 29.1458C41.7164 29.0137 42.2049 28.8385 42.6732 28.2444C42.9073 27.9473 43.0544 27.5955 43.1455 26.2927C43.294 24.167 43.1482 23.714 43.0004 22.1741C42.883 20.944 39.8419 15.1811 35.5983 13.5986C34.8553 13.3215 35.3128 11.9852 37.0942 11.2319C38.524 10.6275 40.0085 10.2699 40.7157 10.2332C42.4863 10.1411 43.8803 10.1147 44.1759 10.1565C45.1577 10.2951 45.4728 10.3202 46.3486 10.6024C47.7326 11.0483 47.8932 11.3279 48.7144 11.8782C50.4094 13.0135 51.0686 13.759 52.4593 16.3609C54.0646 19.3648 53.5167 19.676 54.7609 21.2862C55.9654 22.8442 57.46 23.3474 59.3689 23.9222C61.4283 24.5427 64.3177 24.7469 64.4762 24.3113C64.6105 23.9421 62.4027 23.8017 60.0983 21.9756C58.2535 20.513 57.8878 19.5168 56.3858 16.8525C55.3446 15.0058 54.5896 14.1965 53.9182 13.328C52.2825 11.2126 51.4411 10.8138 50.1469 10.0341C49.4661 9.62367 48.3183 9.01477 46.9013 8.5328C45.0666 7.90908 42.9573 7.92713 41.1502 8.18422C36.1826 8.89105 33.9296 13.2764 32.9741 12.8769C31.4383 12.2345 36.7872 7.11977 37.8236 6.44257C38.6388 5.90971 42.4161 3.43029 48.682 3.98378C50.2177 4.11909 51.3129 4.64745 51.9438 4.96768C53.7987 5.90777 53.8439 6.65714 55.5491 7.59078C56.7515 8.24865 57.7603 8.44066 59.3257 8.73835C60.0531 8.87688 61.655 9.11077 64.9371 9.23513C66.2266 9.2841 67.1233 9.14041 68.2522 8.90201C69.1551 8.71128 70.7772 8.23899 70.7414 7.83627C70.6989 7.35689 68.3595 7.60109 65.5052 6.85237L65.5066 6.84979Z" fill="#F39324"/>
<path d="M40.5235 26.9518C41.0437 27.8158 41.3352 28.2991 41.9236 28.4273C42.1416 28.475 42.2576 28.4427 42.3258 28.4118C42.5417 28.3145 42.651 28.1038 42.5242 27.9047C42.288 27.5323 42.3238 27.4653 41.5154 26.8287C41.3784 26.7204 41.0889 26.6186 40.7968 26.6135C40.757 26.6128 40.5329 26.6083 40.4749 26.7211C40.4337 26.8003 40.4938 26.9028 40.5235 26.9518Z" fill="#A04C17"/>
<path d="M29.1758 19.3896C29.4848 19.4147 29.2527 21.0462 29.9484 22.9141C30.3694 24.0443 30.9659 24.8207 31.3647 25.3323C31.9464 26.0778 33.0125 27.3381 33.8539 27.668C34.0098 27.7293 34.335 27.8787 34.3627 27.9883C34.3627 27.9883 33.9572 28.0714 33.4922 27.9831C33.057 27.9 32.6765 27.8021 32.2655 27.5746C30.7034 26.7106 29.6474 25.6062 29.2824 25.0243C28.5584 23.871 28.5368 22.8155 28.4882 22.4012C28.4274 21.8832 28.3647 20.8729 28.8532 19.8194C29.0462 19.4038 29.1373 19.3857 29.1751 19.3889L29.1758 19.3896Z" fill="white"/>
<path d="M34.1487 20.6958C33.476 21.2377 33.6292 22.2583 33.6663 22.4626C33.6926 22.6075 33.8707 23.5161 34.6636 23.9684C34.8957 24.1011 35.4153 24.2313 36.4173 24.3337C37.2074 24.4143 37.4989 24.3762 37.7047 24.2603C38.2904 23.9297 38.2284 22.931 38.2196 22.8163C38.1433 21.8002 37.3323 20.9709 36.4983 20.6036C36.3154 20.5231 35.5219 20.1745 34.6798 20.4348C34.5306 20.4812 34.3404 20.5418 34.1487 20.6958Z" fill="white"/>
<path d="M34.1487 20.6966C33.476 21.2385 33.6292 22.2592 33.6663 22.4634C33.6926 22.6084 34.2128 23.4235 34.5941 23.5446C34.893 23.6393 35.2223 23.6825 35.644 23.6187C35.9773 23.5685 36.0995 23.4042 36.258 23.2334C36.4436 23.033 36.5414 22.6471 36.5489 22.5317C36.5853 21.9802 36.4038 21.2978 36.2095 21.0162C36.0988 20.8552 35.5219 20.1754 34.6804 20.4357C34.5313 20.4821 34.341 20.5426 34.1494 20.6966H34.1487Z" fill="#1A1933"/>
<path d="M37.7118 24.5235C37.7726 24.6356 37.8879 24.6859 38.0209 24.7432C38.1794 24.8122 38.3522 24.8869 38.4392 24.8186C38.531 24.7464 38.4763 24.5538 38.4271 24.3785C38.365 24.1601 38.2618 24.017 38.1788 23.9043C38.0917 23.7857 38.0479 23.7264 37.9912 23.7136C37.7489 23.6569 37.3947 24.1433 37.4824 24.2748C37.5074 24.3128 37.56 24.307 37.6282 24.3792C37.6794 24.4339 37.6875 24.4771 37.7132 24.5241L37.7118 24.5235Z" fill="#A04C17"/>
<path d="M24.6712 22.8684L24.6422 22.8851L24.6348 22.8722L24.6645 22.8574L24.6712 22.8684Z" fill="#EDEDED"/>
<path d="M24.5838 22.9185L24.5271 22.9526L24.5156 22.9346L24.5743 22.9023L24.5838 22.9185Z" fill="#EDEDED"/>
<path d="M24.4739 22.9881L24.4185 23.0248L24.4023 23.0009L24.4597 22.9668L24.4739 22.9881Z" fill="#EDEDED"/>
<path d="M24.3659 23.0609L24.3113 23.0989L24.291 23.0712L24.347 23.0352L24.3659 23.0609Z" fill="#EDEDED"/>
<path d="M24.2553 23.139L24.2034 23.179L24.1777 23.148L24.2324 23.1094L24.2553 23.139Z" fill="#EDEDED"/>
<path d="M24.1532 23.2197L24.1033 23.2622L24.0723 23.2287L24.1249 23.1875L24.1532 23.2197Z" fill="#EDEDED"/>
<path d="M24.055 23.3076L24.0085 23.3533L23.9707 23.3185L24.0206 23.2734L24.055 23.3076Z" fill="#EDEDED"/>
<path d="M23.9614 23.4007L23.9202 23.4496L23.875 23.4155L23.9202 23.3652L23.9614 23.4007Z" fill="#EDEDED"/>
<path d="M23.8853 23.499L23.8529 23.5525L23.7969 23.5235L23.8347 23.4668L23.8853 23.499Z" fill="#EDEDED"/>
<path d="M23.8271 23.6085L23.8103 23.6658L23.7441 23.6529L23.7657 23.5859L23.8271 23.6085Z" fill="#EDEDED"/>
<path d="M23.8059 23.7272L23.8052 23.791L23.7344 23.7897L23.7371 23.7246L23.8059 23.7272Z" fill="#EDEDED"/>
<path d="M23.804 23.8535L23.8047 23.9173L23.7305 23.9179L23.7311 23.8535H23.804Z" fill="#EDEDED"/>
<path d="M23.8067 23.9805L23.8094 24.0443L23.7311 24.0462L23.7305 23.9818L23.8067 23.9805Z" fill="#EDEDED"/>
<path d="M23.8108 24.1074L23.8141 24.1712L23.7318 24.1744L23.7305 24.1094L23.8108 24.1074Z" fill="#EDEDED"/>
<path d="M23.818 24.2363L23.8221 24.3001L23.7364 24.304L23.7344 24.2396L23.818 24.2363Z" fill="#EDEDED"/>
<path d="M23.8273 24.3672L23.832 24.431L23.7429 24.4361L23.7402 24.3711L23.8273 24.3672Z" fill="#EDEDED"/>
<path d="M23.8385 24.4941L23.8439 24.5579L23.7514 24.5637L23.748 24.4993L23.8385 24.4941Z" fill="#EDEDED"/>
<path d="M23.8497 24.6211L23.8557 24.6855L23.7599 24.692L23.7559 24.6275L23.8497 24.6211Z" fill="#EDEDED"/>
<path d="M23.8596 24.748L23.8656 24.8118L23.7664 24.8202L23.7617 24.7558L23.8596 24.748Z" fill="#EDEDED"/>
<path d="M23.874 24.8789L23.8807 24.9427L23.7795 24.9517L23.7734 24.8873L23.874 24.8789Z" fill="#EDEDED"/>
<path d="M23.889 25.0059L23.8964 25.0703L23.7932 25.0806L23.7871 25.0155L23.889 25.0059Z" fill="#EDEDED"/>
<path d="M23.9001 25.1348L23.9082 25.1986L23.8036 25.2102L23.7969 25.1457L23.9001 25.1348Z" fill="#EDEDED"/>
<path d="M23.9158 25.2617L23.9239 25.3255L23.8186 25.3384L23.8105 25.274L23.9158 25.2617Z" fill="#EDEDED"/>
<path d="M23.9328 25.3906L23.9422 25.4538L23.8349 25.4679L23.8262 25.4035L23.9328 25.3906Z" fill="#EDEDED"/>
<path d="M23.953 25.5156L23.9631 25.5794L23.8552 25.5949L23.8457 25.5304L23.953 25.5156Z" fill="#EDEDED"/>
<path d="M23.9739 25.6426L23.9847 25.7057L23.8754 25.7231L23.8652 25.6587L23.9739 25.6426Z" fill="#EDEDED"/>
<path d="M23.998 25.7695L24.0101 25.8327L23.8995 25.852L23.8887 25.7876L23.998 25.7695Z" fill="#EDEDED"/>
<path d="M24.0215 25.8945L24.0343 25.9577L23.923 25.9783L23.9102 25.9145L24.0215 25.8945Z" fill="#EDEDED"/>
<path d="M24.0495 26.0215L24.0644 26.084L23.9517 26.1078L23.9375 26.044L24.0495 26.0215Z" fill="#EDEDED"/>
<path d="M24.0763 26.1465L24.0918 26.209L23.9784 26.2348L23.9629 26.171L24.0763 26.1465Z" fill="#EDEDED"/>
<path d="M24.1075 26.2695L24.125 26.3307L24.011 26.3604L23.9941 26.2966L24.1075 26.2695Z" fill="#EDEDED"/>
<path d="M24.1433 26.3926L24.1622 26.4531L24.0482 26.486L24.0293 26.4235L24.1433 26.3926Z" fill="#EDEDED"/>
<path d="M24.187 26.5156L24.2086 26.5762L24.0939 26.6136L24.0723 26.5511L24.187 26.5156Z" fill="#EDEDED"/>
<path d="M24.2273 26.6348L24.2503 26.694L24.1382 26.7366L24.1133 26.6747L24.2273 26.6348Z" fill="#EDEDED"/>
<path d="M24.2767 26.752L24.303 26.8112L24.193 26.8563L24.166 26.7971L24.2767 26.752Z" fill="#EDEDED"/>
<path d="M24.3293 26.8691L24.3563 26.9278L24.2484 26.9735L24.2207 26.9149L24.3293 26.8691Z" fill="#EDEDED"/>
<path d="M24.3827 26.9863L24.4097 27.045L24.3031 27.0907L24.2754 27.0314L24.3827 26.9863Z" fill="#EDEDED"/>
<path d="M24.4386 27.1055L24.4656 27.1641L24.3604 27.2099L24.332 27.1512L24.4386 27.1055Z" fill="#EDEDED"/>
<path d="M24.4894 27.2227L24.517 27.2813L24.4131 27.327L24.3848 27.2684L24.4894 27.2227Z" fill="#EDEDED"/>
<path d="M24.5492 27.3398L24.5769 27.3985L24.4737 27.4436L24.4453 27.3849L24.5492 27.3398Z" fill="#EDEDED"/>
<path d="M24.6045 27.4551L24.6322 27.5137L24.5303 27.5588L24.502 27.5008L24.6045 27.4551Z" fill="#EDEDED"/>
<path d="M24.6598 27.5742L24.6881 27.6322L24.5876 27.6773L24.5586 27.6193L24.6598 27.5742Z" fill="#EDEDED"/>
<path d="M24.7164 27.6895L24.7447 27.7481L24.6469 27.7925L24.6172 27.7339L24.7164 27.6895Z" fill="#EDEDED"/>
<path d="M24.7736 27.8066L24.8019 27.8653L24.7081 27.9084L24.6777 27.8505L24.7736 27.8066Z" fill="#EDEDED"/>
<path d="M24.8288 27.9238L24.8571 27.9818L24.7667 28.0237L24.7363 27.9657L24.8288 27.9238Z" fill="#EDEDED"/>
<path d="M24.8853 28.041L24.9143 28.099L24.8272 28.1396L24.7969 28.0823L24.8853 28.041Z" fill="#EDEDED"/>
<path d="M24.947 28.1562L24.9754 28.2142L24.8924 28.2535L24.8613 28.1962L24.947 28.1562Z" fill="#EDEDED"/>
<path d="M24.9977 28.2734L25.0267 28.3314L24.9471 28.3694L24.916 28.3115L24.9977 28.2734Z" fill="#EDEDED"/>
<path d="M25.0587 28.3906L25.0878 28.4486L25.0115 28.4853L24.9805 28.428L25.0587 28.3906Z" fill="#EDEDED"/>
<path d="M25.1179 28.5059L25.1469 28.5645L25.074 28.5993L25.043 28.5419L25.1179 28.5059Z" fill="#EDEDED"/>
<path d="M25.1783 28.6211L25.208 28.6791L25.1385 28.7132L25.1074 28.6559L25.1783 28.6211Z" fill="#EDEDED"/>
<path d="M25.2374 28.7383L25.2678 28.7963L25.2016 28.8285L25.1699 28.7711L25.2374 28.7383Z" fill="#EDEDED"/>
<path d="M25.2985 28.8535L25.3288 28.9115L25.2668 28.9424L25.2344 28.8851L25.2985 28.8535Z" fill="#EDEDED"/>
<path d="M25.3576 28.9688L25.388 29.0267L25.3293 29.0557L25.2969 28.999L25.3576 28.9688Z" fill="#EDEDED"/>
<path d="M25.4161 29.084L25.4464 29.1413L25.3911 29.169L25.3594 29.1123L25.4161 29.084Z" fill="#EDEDED"/>
<path d="M25.481 29.1973L25.5114 29.2546L25.4601 29.281L25.4277 29.2243L25.481 29.1973Z" fill="#EDEDED"/>
<path d="M25.5402 29.3145L25.5712 29.3718L25.5233 29.3969L25.4902 29.3402L25.5402 29.3145Z" fill="#EDEDED"/>
<path d="M25.6032 29.4277L25.6349 29.4844L25.589 29.5083L25.5566 29.4516L25.6032 29.4277Z" fill="#EDEDED"/>
<path d="M25.667 29.541L25.6987 29.5977L25.6542 29.6216L25.6211 29.5649L25.667 29.541Z" fill="#EDEDED"/>
<path d="M25.7314 29.6543L25.7638 29.711L25.7206 29.7342L25.6875 29.6775L25.7314 29.6543Z" fill="#EDEDED"/>
<path d="M25.7971 29.7676L25.8295 29.8243L25.7876 29.8468L25.7539 29.7908L25.7971 29.7676Z" fill="#EDEDED"/>
<path d="M25.8634 29.8809L25.8965 29.9369L25.856 29.9588L25.8223 29.9028L25.8634 29.8809Z" fill="#EDEDED"/>
<path d="M25.9285 29.9922L25.9615 30.0482L25.9231 30.0695L25.8887 30.0141L25.9285 29.9922Z" fill="#EDEDED"/>
<path d="M25.9974 30.1055L26.0312 30.1615L25.9934 30.1821L25.959 30.1267L25.9974 30.1055Z" fill="#EDEDED"/>
<path d="M26.0625 30.2168L26.0962 30.2722L26.0605 30.2928L26.0254 30.2374L26.0625 30.2168Z" fill="#EDEDED"/>
<path d="M26.1308 30.3281L26.1652 30.3842L26.1308 30.4035L26.0957 30.3487L26.1308 30.3281Z" fill="#EDEDED"/>
<path d="M26.2011 30.4395L26.2369 30.4942L26.2011 30.5155L26.166 30.4601L26.2011 30.4395Z" fill="#EDEDED"/>
<path d="M26.2721 30.5488L26.3079 30.603L26.2714 30.6249L26.2363 30.5694L26.2721 30.5488Z" fill="#EDEDED"/>
<path d="M26.3431 30.6582L26.3795 30.713L26.3424 30.7355L26.3066 30.6801L26.3431 30.6582Z" fill="#EDEDED"/>
<path d="M26.4147 30.7656L26.4512 30.8197L26.4134 30.8429L26.377 30.7888L26.4147 30.7656Z" fill="#EDEDED"/>
<path d="M26.4896 30.875L26.5267 30.9291L26.4876 30.953L26.4512 30.8988L26.4896 30.875Z" fill="#EDEDED"/>
<path d="M26.5645 30.9844L26.6023 31.0379L26.5632 31.0636L26.5254 31.0095L26.5645 30.9844Z" fill="#EDEDED"/>
<path d="M26.6394 31.0898L26.6779 31.1433L26.6374 31.1697L26.5996 31.1156L26.6394 31.0898Z" fill="#EDEDED"/>
<path d="M26.7182 31.1953L26.7567 31.2481L26.7162 31.2752L26.6777 31.2224L26.7182 31.1953Z" fill="#EDEDED"/>
<path d="M26.7951 31.3008L26.8349 31.353L26.793 31.3813L26.7539 31.3285L26.7951 31.3008Z" fill="#EDEDED"/>
<path d="M26.8706 31.4043L26.9111 31.4558L26.8673 31.4868L26.8281 31.4339L26.8706 31.4043Z" fill="#EDEDED"/>
<path d="M26.9566 31.5098L26.9978 31.5607L26.9519 31.5942L26.9121 31.542L26.9566 31.5098Z" fill="#EDEDED"/>
<path d="M27.0368 31.6094L27.0786 31.6596L27.0314 31.6957L26.9902 31.6435L27.0368 31.6094Z" fill="#EDEDED"/>
<path d="M27.1228 31.7109L27.166 31.7606L27.1167 31.7992L27.0742 31.7483L27.1228 31.7109Z" fill="#EDEDED"/>
<path d="M27.2088 31.8086L27.2527 31.8569L27.2021 31.8988L27.1582 31.8485L27.2088 31.8086Z" fill="#EDEDED"/>
<path d="M27.2954 31.9062L27.3406 31.9539L27.2887 31.9984L27.2441 31.9494L27.2954 31.9062Z" fill="#EDEDED"/>
<path d="M27.3905 32L27.4371 32.0464L27.3838 32.0947L27.3379 32.0464L27.3905 32Z" fill="#EDEDED"/>
<path d="M27.4837 32.0938L27.5316 32.1389L27.4776 32.1904L27.4297 32.144L27.4837 32.0938Z" fill="#EDEDED"/>
<path d="M27.5794 32.1816L27.6286 32.2248L27.5746 32.2809L27.5254 32.2358L27.5794 32.1816Z" fill="#EDEDED"/>
<path d="M27.6809 32.2656L27.7322 32.3062L27.6789 32.3674L27.627 32.3243L27.6809 32.2656Z" fill="#EDEDED"/>
<path d="M27.7811 32.3457L27.8345 32.3837L27.7832 32.4507L27.7285 32.4101L27.7811 32.3457Z" fill="#EDEDED"/>
<path d="M27.8917 32.418L27.9477 32.4515L27.8998 32.5249L27.8418 32.4882L27.8917 32.418Z" fill="#EDEDED"/>
<path d="M28.0035 32.4844L28.0622 32.5121L28.0211 32.5933L27.959 32.5617L28.0035 32.4844Z" fill="#EDEDED"/>
<path d="M28.1204 32.5352L28.1805 32.5551L28.1515 32.6441L28.084 32.6202L28.1204 32.5352Z" fill="#EDEDED"/>
<path d="M28.2471 32.5742L28.3119 32.5916L28.2829 32.6844L28.2188 32.6657L28.2471 32.5742Z" fill="#EDEDED"/>
<path d="M28.3747 32.6094L28.4402 32.6268L28.4105 32.7221L28.3457 32.7034L28.3747 32.6094Z" fill="#EDEDED"/>
<path d="M28.5043 32.6445L28.5691 32.6619L28.5401 32.7592L28.4746 32.7405L28.5043 32.6445Z" fill="#EDEDED"/>
<path d="M28.6391 32.6777L28.7038 32.6945L28.6742 32.7944L28.6094 32.7757L28.6391 32.6777Z" fill="#EDEDED"/>
<path d="M28.7699 32.7129L28.8354 32.7296L28.8057 32.8314L28.7402 32.8134L28.7699 32.7129Z" fill="#EDEDED"/>
<path d="M28.8988 32.7461L28.9643 32.7628L28.9339 32.8672L28.8691 32.8492L28.8988 32.7461Z" fill="#EDEDED"/>
<path d="M29.0265 32.7793L29.0912 32.7954L29.0615 32.9017L28.9961 32.8843L29.0265 32.7793Z" fill="#EDEDED"/>
<path d="M29.1573 32.8105L29.2228 32.8267L29.1924 32.9355L29.127 32.9182L29.1573 32.8105Z" fill="#EDEDED"/>
<path d="M29.2901 32.8438L29.3556 32.8592L29.3252 32.9707L29.2598 32.9539L29.2901 32.8438Z" fill="#EDEDED"/>
<path d="M29.4203 32.875L29.4858 32.8905L29.4561 33.0032L29.3906 32.9871L29.4203 32.875Z" fill="#EDEDED"/>
<path d="M29.5512 32.9043L29.6166 32.9191L29.5876 33.0338L29.5215 33.0183L29.5512 32.9043Z" fill="#EDEDED"/>
<path d="M29.6826 32.9336L29.7481 32.9478L29.7204 33.0638L29.6543 33.0489L29.6826 32.9336Z" fill="#EDEDED"/>
<path d="M29.8128 32.9609L29.8783 32.9745L29.8513 33.0924L29.7852 33.0776L29.8128 32.9609Z" fill="#EDEDED"/>
<path d="M29.945 32.9902L30.0104 33.0031L29.9841 33.1223L29.918 33.1088L29.945 32.9902Z" fill="#EDEDED"/>
<path d="M30.0745 33.0137L30.1406 33.0259L30.115 33.147L30.0488 33.1335L30.0745 33.0137Z" fill="#EDEDED"/>
<path d="M30.2086 33.0391L30.2747 33.0507L30.2504 33.1731L30.1836 33.1608L30.2086 33.0391Z" fill="#EDEDED"/>
<path d="M30.34 33.0625L30.4061 33.0735L30.3832 33.1972L30.3164 33.1856L30.34 33.0625Z" fill="#EDEDED"/>
<path d="M30.4728 33.084L30.5389 33.0943L30.518 33.2193L30.4512 33.2083L30.4728 33.084Z" fill="#EDEDED"/>
<path d="M30.6042 33.1035L30.6704 33.1125L30.6515 33.2395L30.584 33.2292L30.6042 33.1035Z" fill="#EDEDED"/>
<path d="M30.7389 33.123L30.805 33.1314L30.7882 33.2596L30.7207 33.2506L30.7389 33.123Z" fill="#EDEDED"/>
<path d="M30.8717 33.1387L30.9385 33.1458L30.9236 33.2759L30.8555 33.2682L30.8717 33.1387Z" fill="#EDEDED"/>
<path d="M31.0018 33.1504L31.0686 33.1562L31.0564 33.2876L30.9883 33.2812L31.0018 33.1504Z" fill="#EDEDED"/>
<path d="M31.1377 33.1621L31.2046 33.1666L31.1951 33.2994L31.127 33.2942L31.1377 33.1621Z" fill="#EDEDED"/>
<path d="M31.2718 33.1699L31.3379 33.1731L31.3325 33.3072L31.2637 33.3039L31.2718 33.1699Z" fill="#EDEDED"/>
<path d="M31.4044 33.1738L31.4712 33.1751L31.4692 33.3111L31.4004 33.3091L31.4044 33.1738Z" fill="#EDEDED"/>
<path d="M31.5371 33.1764L31.6032 33.1758L31.6059 33.3124L31.5371 33.313V33.1764Z" fill="#EDEDED"/>
<path d="M31.6719 33.1731L31.738 33.1699L31.7454 33.3065L31.6766 33.3091L31.6719 33.1731Z" fill="#EDEDED"/>
<path d="M31.8027 33.1673L31.8689 33.1621L31.8817 33.2974L31.8129 33.3032L31.8027 33.1673Z" fill="#EDEDED"/>
<path d="M31.9316 33.1542L31.9971 33.1465L32.0167 33.2805L31.9478 33.2895L31.9316 33.1542Z" fill="#EDEDED"/>
<path d="M32.0625 33.1366L32.1273 33.125L32.1543 33.2577L32.0861 33.2693L32.0625 33.1366Z" fill="#EDEDED"/>
<path d="M32.1934 33.1144L32.2568 33.0996L32.2925 33.2298L32.2244 33.2452L32.1934 33.1144Z" fill="#EDEDED"/>
<path d="M32.3223 33.0812L32.3837 33.0625L32.4289 33.1894L32.3621 33.2101L32.3223 33.0812Z" fill="#EDEDED"/>
<path d="M32.4453 33.0408L32.5054 33.0176L32.5607 33.14L32.4952 33.1658L32.4453 33.0408Z" fill="#EDEDED"/>
<path d="M32.5664 32.9939L32.6258 32.9668L32.6872 33.086L32.6251 33.1143L32.5664 32.9939Z" fill="#EDEDED"/>
<path d="M32.6816 32.9378L32.7397 32.9082L32.8065 33.0242L32.7451 33.0551L32.6816 32.9378Z" fill="#EDEDED"/>
<path d="M32.7988 32.8773L32.8562 32.8457L32.927 32.9591L32.8677 32.992L32.7988 32.8773Z" fill="#EDEDED"/>
<path d="M32.9102 32.8134L32.9662 32.7793L33.0411 32.8901L32.983 32.9249L32.9102 32.8134Z" fill="#EDEDED"/>
<path d="M33.0234 32.7444L33.0788 32.709L33.157 32.8159L33.1004 32.8533L33.0234 32.7444Z" fill="#EDEDED"/>
<path d="M33.1367 32.6728L33.19 32.6348L33.2724 32.7391L33.217 32.7785L33.1367 32.6728Z" fill="#EDEDED"/>
<path d="M33.2383 32.5979L33.2909 32.5586L33.3759 32.6591L33.3226 32.7003L33.2383 32.5979Z" fill="#EDEDED"/>
<path d="M33.3438 32.5152L33.3944 32.4746L33.4828 32.5719L33.4308 32.6151L33.3438 32.5152Z" fill="#EDEDED"/>
<path d="M33.4414 32.4338L33.4907 32.3906L33.5824 32.4853L33.5318 32.5298L33.4414 32.4338Z" fill="#EDEDED"/>
<path d="M33.5449 32.3466L33.5928 32.3027L33.6866 32.3929L33.6374 32.4393L33.5449 32.3466Z" fill="#EDEDED"/>
<path d="M33.6367 32.2586L33.6826 32.2129L33.7777 32.2979L33.7312 32.3463L33.6367 32.2586Z" fill="#EDEDED"/>
<path d="M33.7266 32.1681L33.7711 32.1211L33.8676 32.2016L33.8224 32.2513L33.7266 32.1681Z" fill="#EDEDED"/>
<path d="M33.8184 32.0718L33.8609 32.0234L33.9587 32.0988L33.9155 32.1497L33.8184 32.0718Z" fill="#EDEDED"/>
<path d="M33.9043 31.9734L33.9448 31.9238L34.0433 31.9947L34.0021 32.0469L33.9043 31.9734Z" fill="#EDEDED"/>
<path d="M33.9805 31.8738L34.0196 31.8223L34.1188 31.888L34.0797 31.9421L33.9805 31.8738Z" fill="#EDEDED"/>
<path d="M34.0586 31.7716L34.095 31.7188L34.1949 31.7793L34.1585 31.8347L34.0586 31.7716Z" fill="#EDEDED"/>
<path d="M34.1289 31.6635L34.1626 31.6094L34.2632 31.6641L34.2288 31.7215L34.1289 31.6635Z" fill="#EDEDED"/>
<path d="M34.1992 31.5535L34.2309 31.498L34.3321 31.5477L34.3004 31.6063L34.1992 31.5535Z" fill="#EDEDED"/>
<path d="M34.2598 31.4421L34.2881 31.3848L34.3893 31.4286L34.3603 31.4885L34.2598 31.4421Z" fill="#EDEDED"/>
<path d="M34.3145 31.3262L34.3401 31.2676L34.4413 31.3056L34.4157 31.3668L34.3145 31.3262Z" fill="#EDEDED"/>
<path d="M34.3652 31.2116L34.3875 31.1523L34.4887 31.1839L34.4664 31.2464L34.3652 31.2116Z" fill="#EDEDED"/>
<path d="M34.4062 31.0918L34.4245 31.0312L34.525 31.0564L34.5075 31.1202L34.4062 31.0918Z" fill="#EDEDED"/>
<path d="M34.4414 30.972L34.4549 30.9102L34.5548 30.9282L34.5413 30.9933L34.4414 30.972Z" fill="#EDEDED"/>
<path d="M34.4668 30.8451L34.4762 30.7832L34.5734 30.7935L34.5653 30.8599L34.4668 30.8451Z" fill="#EDEDED"/>
<path d="M34.4844 30.7207L34.4884 30.6582L34.5822 30.6614L34.5795 30.7278L34.4844 30.7207Z" fill="#EDEDED"/>
<path d="M34.4929 30.597L34.4922 30.5338L34.5826 30.5312L34.5846 30.597H34.4929Z" fill="#EDEDED"/>
<path d="M34.4884 30.4713L34.4844 30.4081L34.5701 30.4004L34.5761 30.4661L34.4884 30.4713Z" fill="#EDEDED"/>
<path d="M34.4788 30.3436L34.4707 30.2805L34.5524 30.2695L34.5625 30.334L34.4788 30.3436Z" fill="#EDEDED"/>
<path d="M34.46 30.2173L34.4492 30.1542L34.5261 30.1406L34.539 30.2044L34.46 30.2173Z" fill="#EDEDED"/>
<path d="M34.4373 30.0903L34.4238 30.0278L34.496 30.0117L34.5122 30.0755L34.4373 30.0903Z" fill="#EDEDED"/>
<path d="M34.4088 29.9666L34.3926 29.9041L34.4607 29.8867L34.4789 29.9499L34.4088 29.9666Z" fill="#EDEDED"/>
<path d="M34.3756 29.8416L34.3574 29.7804L34.4209 29.7617L34.4418 29.8236L34.3756 29.8416Z" fill="#EDEDED"/>
<path d="M34.3386 29.7173L34.3184 29.656L34.3777 29.6367L34.4007 29.6986L34.3386 29.7173Z" fill="#EDEDED"/>
<path d="M34.295 29.5975L34.2734 29.5369L34.3274 29.5176L34.3517 29.5781L34.295 29.5975Z" fill="#EDEDED"/>
<path d="M34.2541 29.4757L34.2305 29.4152L34.2784 29.3965L34.3054 29.4564L34.2541 29.4757Z" fill="#EDEDED"/>
<path d="M34.2066 29.3566L34.1816 29.2967L34.2235 29.2793L34.2518 29.3379L34.2066 29.3566Z" fill="#EDEDED"/>
<path d="M34.1513 29.2355L34.125 29.1763L34.1614 29.1602L34.1911 29.2181L34.1513 29.2355Z" fill="#EDEDED"/>
<path d="M34.1006 29.1164L34.0723 29.0578L34.104 29.043L34.135 29.101L34.1006 29.1164Z" fill="#EDEDED"/>
<path d="M34.0414 29.0006L34.0117 28.9426L34.0374 28.9297L34.0697 28.9864L34.0414 29.0006Z" fill="#EDEDED"/>
<path d="M33.9842 28.886L33.9531 28.8293L33.9734 28.8184L34.0071 28.8744L33.9842 28.886Z" fill="#EDEDED"/>
<path d="M33.9191 28.7721L33.8867 28.7154L33.9016 28.707L33.9367 28.7624L33.9191 28.7721Z" fill="#EDEDED"/>
<path d="M33.8504 28.6572L33.834 28.6301L33.8452 28.623L33.8629 28.6495L33.8504 28.6572Z" fill="#EDEDED"/>
<path d="M24.4958 23.2604C23.487 23.8242 23.3021 24.7694 23.5579 25.7939C23.7846 26.7424 24.2225 27.6271 24.6152 28.5201C25.2286 29.8455 25.7866 31.2283 26.7326 32.3771C27.3615 33.1484 28.2509 33.6774 29.1915 34.0389C30.1281 34.3978 31.178 34.573 32.1713 34.3437C34.0033 33.8991 35.2725 32.3978 34.8514 30.5575C34.6875 29.8481 34.3454 29.1709 33.8366 28.6277L33.8379 28.6265C34.3487 29.1683 34.6935 29.8462 34.8595 30.5556C35.2873 32.4061 34.0194 33.91 32.1746 34.3578C31.1773 34.5879 30.1247 34.412 29.1861 34.0498C28.2455 33.6858 27.3548 33.1536 26.7272 32.3804C25.7839 31.2283 25.2191 29.8494 24.6038 28.524C24.2077 27.6316 23.7718 26.745 23.5484 25.7952C23.2961 24.7707 23.4816 23.8158 24.4965 23.2598L24.4958 23.2604Z" fill="#EDEDED"/>
<path d="M24.543 23.4217L24.514 23.4378L24.5039 23.4185L24.5336 23.4043L24.543 23.4217Z" fill="#EDEDED"/>
<path d="M24.4576 23.4705L24.401 23.504L24.3848 23.4775L24.4441 23.4473L24.4576 23.4705Z" fill="#EDEDED"/>
<path d="M24.3458 23.5381L24.2905 23.5742L24.2676 23.5413L24.3263 23.5078L24.3458 23.5381Z" fill="#EDEDED"/>
<path d="M24.2392 23.6123L24.1853 23.6503L24.1562 23.6129L24.2129 23.5762L24.2392 23.6123Z" fill="#EDEDED"/>
<path d="M24.1339 23.6903L24.0826 23.7309L24.0469 23.6897L24.1015 23.6504L24.1339 23.6903Z" fill="#EDEDED"/>
<path d="M24.0332 23.7756L23.9846 23.8188L23.9414 23.7737L23.994 23.7324L24.0332 23.7756Z" fill="#EDEDED"/>
<path d="M23.9344 23.8622L23.8885 23.9079L23.8379 23.8609L23.8878 23.8164L23.9344 23.8622Z" fill="#EDEDED"/>
<path d="M23.846 23.9539L23.8028 24.0023L23.7441 23.9539L23.7914 23.9062L23.846 23.9539Z" fill="#EDEDED"/>
<path d="M23.7596 24.0529L23.7198 24.1038L23.6523 24.0542L23.6969 24.0039L23.7596 24.0529Z" fill="#EDEDED"/>
<path d="M23.681 24.1544L23.6453 24.2073L23.5684 24.1589L23.6095 24.1055L23.681 24.1544Z" fill="#EDEDED"/>
<path d="M23.6116 24.2612L23.5792 24.3153L23.4941 24.2689L23.5306 24.2129L23.6116 24.2612Z" fill="#EDEDED"/>
<path d="M23.5492 24.3732L23.5202 24.4299L23.4277 24.3868L23.4608 24.3281L23.5492 24.3732Z" fill="#EDEDED"/>
<path d="M23.4953 24.4866L23.4703 24.5445L23.3711 24.5052L23.3994 24.4453L23.4953 24.4866Z" fill="#EDEDED"/>
<path d="M23.4452 24.6012L23.4243 24.6605L23.3184 24.6263L23.3427 24.5645L23.4452 24.6012Z" fill="#EDEDED"/>
<path d="M23.4043 24.721L23.3881 24.7816L23.2754 24.7532L23.295 24.6895L23.4043 24.721Z" fill="#EDEDED"/>
<path d="M23.3757 24.8441L23.3629 24.9053L23.2441 24.8828L23.2597 24.8184L23.3757 24.8441Z" fill="#EDEDED"/>
<path d="M23.3517 24.9666L23.3429 25.0285L23.2188 25.0123L23.2302 24.9473L23.3517 24.9666Z" fill="#EDEDED"/>
<path d="M23.3354 25.0917L23.3307 25.1542L23.2012 25.1438L23.2086 25.0781L23.3354 25.0917Z" fill="#EDEDED"/>
<path d="M23.3277 25.2161L23.3264 25.2786L23.1914 25.2747L23.1955 25.209L23.3277 25.2161Z" fill="#EDEDED"/>
<path d="M23.3252 25.3424L23.3265 25.4049L23.1875 25.4075L23.1882 25.3418L23.3252 25.3424Z" fill="#EDEDED"/>
<path d="M23.3292 25.4668L23.3339 25.5293L23.1902 25.5377L23.1875 25.472L23.3292 25.4668Z" fill="#EDEDED"/>
<path d="M23.3411 25.5918L23.3478 25.6549L23.2 25.6691L23.1953 25.6034L23.3411 25.5918Z" fill="#EDEDED"/>
<path d="M23.3588 25.7188L23.3682 25.7812L23.2171 25.8012L23.209 25.7361L23.3588 25.7188Z" fill="#EDEDED"/>
<path d="M23.3784 25.8418L23.3899 25.9043L23.2367 25.9294L23.2266 25.8643L23.3784 25.8418Z" fill="#EDEDED"/>
<path d="M23.4012 25.9668L23.4147 26.0287L23.2602 26.0583L23.248 25.9939L23.4012 25.9668Z" fill="#EDEDED"/>
<path d="M23.4267 26.0918L23.4415 26.153L23.2857 26.1872L23.2715 26.1234L23.4267 26.0918Z" fill="#EDEDED"/>
<path d="M23.458 26.2129L23.4749 26.2741L23.317 26.3128L23.3008 26.249L23.458 26.2129Z" fill="#EDEDED"/>
<path d="M23.4906 26.3359L23.5088 26.3971L23.3496 26.4397L23.332 26.3765L23.4906 26.3359Z" fill="#EDEDED"/>
<path d="M23.531 26.459L23.5506 26.5196L23.3893 26.5653L23.3711 26.5028L23.531 26.459Z" fill="#EDEDED"/>
<path d="M23.5682 26.5801L23.5884 26.6406L23.4258 26.6903L23.4062 26.6278L23.5682 26.5801Z" fill="#EDEDED"/>
<path d="M23.6086 26.7012L23.6302 26.7617L23.4669 26.8146L23.4453 26.7527L23.6086 26.7012Z" fill="#EDEDED"/>
<path d="M23.6535 26.8223L23.6758 26.8822L23.5125 26.9376L23.4902 26.8757L23.6535 26.8223Z" fill="#EDEDED"/>
<path d="M23.6972 26.9414L23.7201 27.0013L23.5561 27.0587L23.5332 26.9975L23.6972 26.9414Z" fill="#EDEDED"/>
<path d="M23.7428 27.0625L23.7664 27.1224L23.6024 27.1817L23.5781 27.1211L23.7428 27.0625Z" fill="#EDEDED"/>
<path d="M23.7916 27.1816L23.8159 27.2409L23.6512 27.3028L23.627 27.2422L23.7916 27.1816Z" fill="#EDEDED"/>
<path d="M23.8431 27.2988L23.868 27.3581L23.7027 27.4219L23.6777 27.3613L23.8431 27.2988Z" fill="#EDEDED"/>
<path d="M23.8919 27.418L23.9175 27.4766L23.7515 27.5423L23.7266 27.4824L23.8919 27.418Z" fill="#EDEDED"/>
<path d="M23.946 27.5371L23.9723 27.5964L23.8056 27.6634L23.7793 27.6035L23.946 27.5371Z" fill="#EDEDED"/>
<path d="M23.9955 27.6543L24.0218 27.7129L23.8551 27.7819L23.8281 27.722L23.9955 27.6543Z" fill="#EDEDED"/>
<path d="M24.052 27.7708L23.8848 27.8398L23.9116 27.899L24.0788 27.8299L24.052 27.7708Z" fill="#EDEDED"/>
<path d="M24.1076 27.8892L23.9414 27.959L23.9686 28.018L24.1347 27.9482L24.1076 27.8892Z" fill="#EDEDED"/>
<path d="M24.1593 28.0078L23.9941 28.0781L24.0216 28.137L24.1868 28.0667L24.1593 28.0078Z" fill="#EDEDED"/>
<path d="M24.2154 28.125L24.2431 28.1836L24.0791 28.2545L24.0508 28.1959L24.2154 28.125Z" fill="#EDEDED"/>
<path d="M24.2668 28.2422L24.2951 28.3008L24.1312 28.3717L24.1035 28.3131L24.2668 28.2422Z" fill="#EDEDED"/>
<path d="M24.3254 28.3594L24.3531 28.4187L24.1905 28.4889L24.1621 28.4309L24.3254 28.3594Z" fill="#EDEDED"/>
<path d="M24.38 28.4766L24.407 28.5352L24.2471 28.6048L24.2188 28.5461L24.38 28.4766Z" fill="#EDEDED"/>
<path d="M24.434 28.5938L24.4616 28.6524L24.3037 28.7213L24.2754 28.6627L24.434 28.5938Z" fill="#EDEDED"/>
<path d="M24.4918 28.7148L24.5195 28.7735L24.3643 28.8411L24.3359 28.7831L24.4918 28.7148Z" fill="#EDEDED"/>
<path d="M24.5445 28.832L24.5721 28.8907L24.419 28.9577L24.3906 28.899L24.5445 28.832Z" fill="#EDEDED"/>
<path d="M24.5984 28.9492L24.6261 29.0085L24.4763 29.0736L24.4473 29.0156L24.5984 28.9492Z" fill="#EDEDED"/>
<path d="M24.651 29.0684L24.678 29.1276L24.5329 29.1908L24.5039 29.1328L24.651 29.0684Z" fill="#EDEDED"/>
<path d="M24.7068 29.1855L24.7338 29.2448L24.5935 29.3067L24.5645 29.248L24.7068 29.1855Z" fill="#EDEDED"/>
<path d="M24.7614 29.3047L24.789 29.364L24.6527 29.4232L24.623 29.3653L24.7614 29.3047Z" fill="#EDEDED"/>
<path d="M24.8172 29.4219L24.8442 29.4812L24.7126 29.5391L24.6836 29.4812L24.8172 29.4219Z" fill="#EDEDED"/>
<path d="M24.8737 29.541L24.9007 29.5997L24.7732 29.6564L24.7441 29.5977L24.8737 29.541Z" fill="#EDEDED"/>
<path d="M24.9243 29.6582L24.9513 29.7175L24.8285 29.7716L24.7988 29.7136L24.9243 29.6582Z" fill="#EDEDED"/>
<path d="M24.9802 29.7773L25.0078 29.8366L24.8891 29.8895L24.8594 29.8308L24.9802 29.7773Z" fill="#EDEDED"/>
<path d="M25.0321 29.8945L25.0597 29.9538L24.9457 30.0047L24.916 29.9467L25.0321 29.8945Z" fill="#EDEDED"/>
<path d="M25.0905 30.0137L25.1182 30.0729L25.0082 30.1219L24.9785 30.0639L25.0905 30.0137Z" fill="#EDEDED"/>
<path d="M25.1464 30.1289L25.174 30.1875L25.0688 30.2352L25.0391 30.1772L25.1464 30.1289Z" fill="#EDEDED"/>
<path d="M25.2028 30.248L25.2305 30.3067L25.13 30.3524L25.0996 30.2944L25.2028 30.248Z" fill="#EDEDED"/>
<path d="M25.2567 30.3672L25.2844 30.4258L25.1886 30.4696L25.1582 30.4123L25.2567 30.3672Z" fill="#EDEDED"/>
<path d="M25.3132 30.4844L25.3409 30.543L25.2491 30.5849L25.2188 30.5269L25.3132 30.4844Z" fill="#EDEDED"/>
<path d="M25.3703 30.5996L25.3987 30.6582L25.3116 30.6982L25.2812 30.6402L25.3703 30.5996Z" fill="#EDEDED"/>
<path d="M25.4229 30.7168L25.4513 30.7754L25.3689 30.8141L25.3379 30.7561L25.4229 30.7168Z" fill="#EDEDED"/>
<path d="M25.4826 30.834L25.5117 30.8926L25.4334 30.9293L25.4023 30.8714L25.4826 30.834Z" fill="#EDEDED"/>
<path d="M25.5365 30.9531L25.5655 31.0118L25.492 31.0466L25.4609 30.9892L25.5365 30.9531Z" fill="#EDEDED"/>
<path d="M25.5969 31.0684L25.6266 31.1263L25.5564 31.1599L25.5254 31.1025L25.5969 31.0684Z" fill="#EDEDED"/>
<path d="M25.6606 31.1836L25.6903 31.2416L25.6228 31.2744L25.5918 31.2171L25.6606 31.1836Z" fill="#EDEDED"/>
<path d="M25.7185 31.2988L25.7488 31.3568L25.6841 31.3884L25.6523 31.331L25.7185 31.2988Z" fill="#EDEDED"/>
<path d="M25.7783 31.4141L25.8086 31.4721L25.7466 31.5023L25.7148 31.445L25.7783 31.4141Z" fill="#EDEDED"/>
<path d="M25.8374 31.5312L25.8678 31.5886L25.8091 31.6182L25.7773 31.5615L25.8374 31.5312Z" fill="#EDEDED"/>
<path d="M25.8998 31.6465L25.9315 31.7038L25.8735 31.7328L25.8418 31.6761L25.8998 31.6465Z" fill="#EDEDED"/>
<path d="M25.9617 31.7598L25.9934 31.8171L25.9367 31.8461L25.9043 31.7894L25.9617 31.7598Z" fill="#EDEDED"/>
<path d="M26.0287 31.873L26.0604 31.9297L26.005 31.9587L25.9727 31.902L26.0287 31.873Z" fill="#EDEDED"/>
<path d="M26.0898 31.9844L26.1222 32.0411L26.0675 32.0694L26.0352 32.0134L26.0898 31.9844Z" fill="#EDEDED"/>
<path d="M26.1555 32.0996L26.1879 32.1557L26.1346 32.1847L26.1016 32.1286L26.1555 32.0996Z" fill="#EDEDED"/>
<path d="M26.2193 32.2109L26.2531 32.267L26.1998 32.296L26.166 32.2399L26.2193 32.2109Z" fill="#EDEDED"/>
<path d="M26.2896 32.3223L26.324 32.3777L26.2701 32.408L26.2363 32.3525L26.2896 32.3223Z" fill="#EDEDED"/>
<path d="M26.3574 32.4336L26.3925 32.4884L26.3371 32.5206L26.3027 32.4645L26.3574 32.4336Z" fill="#EDEDED"/>
<path d="M26.4284 32.5469L26.4635 32.601L26.4081 32.6345L26.373 32.5791L26.4284 32.5469Z" fill="#EDEDED"/>
<path d="M26.5 32.6543L26.5358 32.7084L26.4791 32.7432L26.4434 32.6878L26.5 32.6543Z" fill="#EDEDED"/>
<path d="M26.571 32.7617L26.6081 32.8158L26.5501 32.8513L26.5137 32.7972L26.571 32.7617Z" fill="#EDEDED"/>
<path d="M26.6459 32.8691L26.683 32.9226L26.625 32.96L26.5879 32.9059L26.6459 32.8691Z" fill="#EDEDED"/>
<path d="M26.724 32.9766L26.7625 33.0294L26.7038 33.0681L26.666 33.0146L26.724 32.9766Z" fill="#EDEDED"/>
<path d="M26.797 33.0801L26.8361 33.1323L26.7767 33.1722L26.7383 33.1194L26.797 33.0801Z" fill="#EDEDED"/>
<path d="M26.8804 33.1855L26.9202 33.2371L26.8601 33.279L26.8203 33.2268L26.8804 33.1855Z" fill="#EDEDED"/>
<path d="M26.9592 33.2891L26.9997 33.34L26.9389 33.3838L26.8984 33.3316L26.9592 33.2891Z" fill="#EDEDED"/>
<path d="M27.0367 33.3906L27.0785 33.4409L27.0158 33.4879L26.9746 33.4364L27.0367 33.3906Z" fill="#EDEDED"/>
<path d="M27.1227 33.4883L27.1659 33.5379L27.1004 33.5888L27.0586 33.5379L27.1227 33.4883Z" fill="#EDEDED"/>
<path d="M27.2107 33.5859L27.2552 33.6343L27.1884 33.689L27.1445 33.6388L27.2107 33.5859Z" fill="#EDEDED"/>
<path d="M27.3006 33.6836L27.3458 33.7313L27.277 33.7899L27.2324 33.7403L27.3006 33.6836Z" fill="#EDEDED"/>
<path d="M27.3937 33.7773L27.4396 33.8237L27.3694 33.8869L27.3242 33.8386L27.3937 33.7773Z" fill="#EDEDED"/>
<path d="M27.483 33.8691L27.5302 33.9142L27.4587 33.9813L27.4121 33.9342L27.483 33.8691Z" fill="#EDEDED"/>
<path d="M27.5813 33.959L27.6299 34.0034L27.5577 34.0743L27.5098 34.0286L27.5813 33.959Z" fill="#EDEDED"/>
<path d="M27.6783 34.0469L27.7276 34.0894L27.6554 34.1654L27.6055 34.1203L27.6783 34.0469Z" fill="#EDEDED"/>
<path d="M27.776 34.1309L27.8266 34.1721L27.7537 34.2533L27.7031 34.2095L27.776 34.1309Z" fill="#EDEDED"/>
<path d="M27.8802 34.2148L27.9321 34.2548L27.8586 34.3405L27.8066 34.2986L27.8802 34.2148Z" fill="#EDEDED"/>
<path d="M27.9857 34.291L28.039 34.3297L27.9654 34.4212L27.9121 34.3799L27.9857 34.291Z" fill="#EDEDED"/>
<path d="M28.095 34.3672L28.149 34.4033L28.0755 34.5012L28.0215 34.4613L28.095 34.3672Z" fill="#EDEDED"/>
<path d="M28.2018 34.4395L28.2571 34.4742L28.1849 34.5773L28.1289 34.5393L28.2018 34.4395Z" fill="#EDEDED"/>
<path d="M28.3105 34.5098L28.3672 34.5426L28.295 34.6515L28.2383 34.6154L28.3105 34.5098Z" fill="#EDEDED"/>
<path d="M28.4263 34.5742L28.4843 34.6058L28.4142 34.7205L28.3555 34.6857L28.4263 34.5742Z" fill="#EDEDED"/>
<path d="M28.5441 34.6348L28.6028 34.6644L28.534 34.7855L28.4746 34.7527L28.5441 34.6348Z" fill="#EDEDED"/>
<path d="M28.6619 34.6953L28.7213 34.7237L28.6545 34.85L28.5938 34.819L28.6619 34.6953Z" fill="#EDEDED"/>
<path d="M28.781 34.75L28.841 34.7764L28.7762 34.9079L28.7148 34.8795L28.781 34.75Z" fill="#EDEDED"/>
<path d="M28.9013 34.8027L28.962 34.8279L28.9006 34.9638L28.8379 34.9374L28.9013 34.8027Z" fill="#EDEDED"/>
<path d="M29.0235 34.8516L29.0856 34.8741L29.0276 35.0146L28.9648 34.9901L29.0235 34.8516Z" fill="#EDEDED"/>
<path d="M29.1465 34.8945L29.2093 34.9158L29.1539 35.0608L29.0898 35.0376L29.1465 34.8945Z" fill="#EDEDED"/>
<path d="M29.2715 34.9375L29.3342 34.9575L29.2809 35.1057L29.2168 35.0838L29.2715 34.9375Z" fill="#EDEDED"/>
<path d="M29.3964 34.9785L29.4598 34.9978L29.4085 35.1493L29.3438 35.1286L29.3964 34.9785Z" fill="#EDEDED"/>
<path d="M29.5252 35.0156L29.5886 35.0337L29.5394 35.1889L29.4746 35.169L29.5252 35.0156Z" fill="#EDEDED"/>
<path d="M29.6541 35.0508L29.7182 35.0682L29.6702 35.2273L29.6055 35.208L29.6541 35.0508Z" fill="#EDEDED"/>
<path d="M29.7816 35.0859L29.8457 35.102L29.7998 35.2644L29.7344 35.2464L29.7816 35.0859Z" fill="#EDEDED"/>
<path d="M29.9098 35.1152L29.9745 35.1301L29.9307 35.2963L29.8652 35.2795L29.9098 35.1152Z" fill="#EDEDED"/>
<path d="M30.0386 35.1465L30.1034 35.16L30.0622 35.3301L29.9961 35.314L30.0386 35.1465Z" fill="#EDEDED"/>
<path d="M30.1687 35.1738L30.2342 35.1867L30.1957 35.3588L30.1289 35.3446L30.1687 35.1738Z" fill="#EDEDED"/>
<path d="M30.3027 35.1992L30.3675 35.2115L30.3324 35.3854L30.2656 35.3719L30.3027 35.1992Z" fill="#EDEDED"/>
<path d="M30.4341 35.2227L30.5003 35.2336L30.4679 35.4102L30.4004 35.3979L30.4341 35.2227Z" fill="#EDEDED"/>
<path d="M30.5642 35.2441L30.6304 35.2545L30.6007 35.4323L30.5332 35.422L30.5642 35.2441Z" fill="#EDEDED"/>
<path d="M30.6956 35.2637L30.7618 35.272L30.7361 35.4525L30.668 35.4428L30.6956 35.2637Z" fill="#EDEDED"/>
<path d="M30.829 35.2793L30.8944 35.2864L30.8728 35.4687L30.8047 35.461L30.829 35.2793Z" fill="#EDEDED"/>
<path d="M30.9597 35.293L31.0258 35.2988L31.0076 35.4837L30.9395 35.4766L30.9597 35.293Z" fill="#EDEDED"/>
<path d="M31.0924 35.3027L31.1585 35.3072L31.1443 35.4935L31.0762 35.4883L31.0924 35.3027Z" fill="#EDEDED"/>
<path d="M31.2244 35.3105L31.2905 35.3138L31.281 35.5019L31.2129 35.498L31.2244 35.3105Z" fill="#EDEDED"/>
<path d="M31.3564 35.3184L31.4225 35.3196L31.4178 35.5104L31.3496 35.5078L31.3564 35.3184Z" fill="#EDEDED"/>
<path d="M31.4903 35.3203H31.5564L31.5571 35.5123L31.4883 35.5117L31.4903 35.3203Z" fill="#EDEDED"/>
<path d="M31.6211 35.3203L31.6872 35.3184L31.6933 35.5117L31.6245 35.513L31.6211 35.3203Z" fill="#EDEDED"/>
<path d="M31.752 35.3118L31.8181 35.3086L31.8302 35.5032L31.7614 35.5064L31.752 35.3118Z" fill="#EDEDED"/>
<path d="M31.8848 35.304L31.9502 35.2988L31.9691 35.4947L31.9003 35.4999L31.8848 35.304Z" fill="#EDEDED"/>
<path d="M32.0156 35.2922L32.0811 35.2852L32.106 35.4823L32.0379 35.4894L32.0156 35.2922Z" fill="#EDEDED"/>
<path d="M32.1465 35.2753L32.2113 35.2656L32.2437 35.4634L32.1748 35.4731L32.1465 35.2753Z" fill="#EDEDED"/>
<path d="M32.2754 35.2557L32.3395 35.2441L32.38 35.442L32.3112 35.4535L32.2754 35.2557Z" fill="#EDEDED"/>
<path d="M32.4023 35.231L32.4664 35.2168L32.5144 35.4153L32.4462 35.4294L32.4023 35.231Z" fill="#EDEDED"/>
<path d="M32.5293 35.2036L32.5927 35.1875L32.6487 35.3853L32.5813 35.4021L32.5293 35.2036Z" fill="#EDEDED"/>
<path d="M32.6562 35.171L32.719 35.1523L32.7838 35.3489L32.717 35.3682L32.6562 35.171Z" fill="#EDEDED"/>
<path d="M32.7793 35.1319L32.8407 35.1113L32.9136 35.3053L32.8481 35.3272L32.7793 35.1319Z" fill="#EDEDED"/>
<path d="M32.9023 35.0896L32.9624 35.0664L33.0447 35.2565L32.9793 35.2816L32.9023 35.0896Z" fill="#EDEDED"/>
<path d="M33.0234 35.0433L33.0828 35.0176L33.1739 35.2051L33.1098 35.2321L33.0234 35.0433Z" fill="#EDEDED"/>
<path d="M33.1426 34.9912L33.2006 34.9629L33.3005 35.1459L33.2377 35.1762L33.1426 34.9912Z" fill="#EDEDED"/>
<path d="M33.2578 34.9333L33.3145 34.9023L33.4231 35.0808L33.3617 35.1137L33.2578 34.9333Z" fill="#EDEDED"/>
<path d="M33.3711 34.8694L33.4257 34.8359L33.5438 35.0099L33.4845 35.0453L33.3711 34.8694Z" fill="#EDEDED"/>
<path d="M33.4766 34.803L33.5299 34.7676L33.6567 34.9351L33.5987 34.9738L33.4766 34.803Z" fill="#EDEDED"/>
<path d="M33.582 34.7294L33.6326 34.6914L33.7676 34.8531L33.7123 34.8944L33.582 34.7294Z" fill="#EDEDED"/>
<path d="M33.6875 34.6513L33.7374 34.6113L33.8791 34.7666L33.8258 34.8098L33.6875 34.6513Z" fill="#EDEDED"/>
<path d="M33.7832 34.5718L33.8311 34.5293L33.9789 34.6781L33.9283 34.7232L33.7832 34.5718Z" fill="#EDEDED"/>
<path d="M33.8789 34.4852L33.9255 34.4414L34.078 34.5832L34.0294 34.6302L33.8789 34.4852Z" fill="#EDEDED"/>
<path d="M33.9727 34.3973L34.0172 34.3516L34.1744 34.4862L34.1279 34.5358L33.9727 34.3973Z" fill="#EDEDED"/>
<path d="M34.0605 34.3049L34.1031 34.2578L34.2643 34.3854L34.2198 34.4363L34.0605 34.3049Z" fill="#EDEDED"/>
<path d="M34.1426 34.2098L34.1831 34.1602L34.3484 34.2819L34.3059 34.3341L34.1426 34.2098Z" fill="#EDEDED"/>
<path d="M34.2266 34.1108L34.265 34.0605L34.4344 34.1746L34.3939 34.2287L34.2266 34.1108Z" fill="#EDEDED"/>
<path d="M34.3008 34.0066L34.3379 33.9551L34.51 34.0627L34.4715 34.1181L34.3008 34.0066Z" fill="#EDEDED"/>
<path d="M34.375 33.905L34.4094 33.8516L34.5842 33.9527L34.5484 34.0094L34.375 33.905Z" fill="#EDEDED"/>
<path d="M34.4414 33.7983L34.4745 33.7441L34.6519 33.8382L34.6175 33.8956L34.4414 33.7983Z" fill="#EDEDED"/>
<path d="M34.5078 33.6863L34.5395 33.6309L34.7177 33.7185L34.686 33.7771L34.5078 33.6863Z" fill="#EDEDED"/>
<path d="M34.5684 33.5762L34.598 33.5195L34.7762 33.6001L34.7472 33.66L34.5684 33.5762Z" fill="#EDEDED"/>
<path d="M34.625 33.4636L34.6527 33.4062L34.8308 33.4797L34.8038 33.5403L34.625 33.4636Z" fill="#EDEDED"/>
<path d="M34.6777 33.349L34.7034 33.291L34.8815 33.3574L34.8565 33.4192L34.6777 33.349Z" fill="#EDEDED"/>
<path d="M34.7266 33.2325L34.7502 33.1738L34.9276 33.2331L34.9047 33.2956L34.7266 33.2325Z" fill="#EDEDED"/>
<path d="M34.7715 33.112L34.7924 33.0527L34.9692 33.1056L34.9489 33.1687L34.7715 33.112Z" fill="#EDEDED"/>
<path d="M34.8105 32.9916L34.8294 32.9316L35.0049 32.978L34.9867 33.0418L34.8105 32.9916Z" fill="#EDEDED"/>
<path d="M34.8496 32.8711L34.8665 32.8105L35.0406 32.8511L35.0244 32.9149L34.8496 32.8711Z" fill="#EDEDED"/>
<path d="M34.8848 32.7494L34.8996 32.6875L35.0717 32.7223L35.0575 32.7867L34.8848 32.7494Z" fill="#EDEDED"/>
<path d="M34.9121 32.6263L34.9249 32.5645L35.095 32.5934L35.0835 32.6585L34.9121 32.6263Z" fill="#EDEDED"/>
<path d="M34.9375 32.502L34.9476 32.4395L35.1156 32.4627L35.1062 32.5277L34.9375 32.502Z" fill="#EDEDED"/>
<path d="M34.9551 32.377L34.9632 32.3145L35.1292 32.3319L35.1217 32.3969L34.9551 32.377Z" fill="#EDEDED"/>
<path d="M34.9727 32.252L34.9794 32.1895L35.1427 32.2011L35.1373 32.2668L34.9727 32.252Z" fill="#EDEDED"/>
<path d="M34.9824 32.1256L34.9865 32.0625L35.1471 32.0689L35.1444 32.1347L34.9824 32.1256Z" fill="#EDEDED"/>
<path d="M34.9941 31.9993L34.9962 31.9355L35.1534 31.9375L35.1527 32.0032L34.9941 31.9993Z" fill="#EDEDED"/>
<path d="M34.9941 31.8717V31.8079L35.1487 31.8047L35.15 31.8704L34.9941 31.8717Z" fill="#EDEDED"/>
<path d="M34.9929 31.7453L34.9902 31.6822L35.1414 31.6738L35.1454 31.7396L34.9929 31.7453Z" fill="#EDEDED"/>
<path d="M34.9871 31.619L34.9824 31.5559L35.1282 31.543L35.1349 31.6087L34.9871 31.619Z" fill="#EDEDED"/>
<path d="M34.9787 31.492L34.9727 31.4289L35.1123 31.4121L35.1218 31.4772L34.9787 31.492Z" fill="#EDEDED"/>
<path d="M34.9639 31.367L34.9551 31.3045L35.0894 31.2832L35.1008 31.3483L34.9639 31.367Z" fill="#EDEDED"/>
<path d="M34.9483 31.2413L34.9375 31.1788L35.0657 31.1543L35.0799 31.2187L34.9483 31.2413Z" fill="#EDEDED"/>
<path d="M34.9237 31.1169L34.9102 31.0544L35.033 31.0273L35.0498 31.0911L34.9237 31.1169Z" fill="#EDEDED"/>
<path d="M34.8931 30.9925L34.877 30.9307L34.9944 30.9004L35.0126 30.9635L34.8931 30.9925Z" fill="#EDEDED"/>
<path d="M34.86 30.8675L34.8418 30.8063L34.9525 30.7734L34.9734 30.8359L34.86 30.8675Z" fill="#EDEDED"/>
<path d="M34.823 30.7464L34.8027 30.6852L34.9073 30.6504L34.9309 30.7122L34.823 30.7464Z" fill="#EDEDED"/>
<path d="M34.784 30.6234L34.7617 30.5634L34.8609 30.5273L34.8866 30.5879L34.784 30.6234Z" fill="#EDEDED"/>
<path d="M34.7379 30.5055L34.7129 30.4462L34.806 30.4082L34.8337 30.4688L34.7379 30.5055Z" fill="#EDEDED"/>
<path d="M34.6891 30.3844L34.6621 30.3258L34.7498 30.2871L34.7788 30.3464L34.6891 30.3844Z" fill="#EDEDED"/>
<path d="M34.6319 30.2692L34.6035 30.2112L34.6852 30.1719L34.7162 30.2299L34.6319 30.2692Z" fill="#EDEDED"/>
<path d="M34.5733 30.152L34.543 30.0953L34.6172 30.0566L34.6509 30.1133L34.5733 30.152Z" fill="#EDEDED"/>
<path d="M34.5141 30.0387L34.4824 29.9827L34.5492 29.9453L34.5843 30.0014L34.5141 30.0387Z" fill="#EDEDED"/>
<path d="M34.4465 29.9268L34.4121 29.8714L34.4722 29.8359L34.5093 29.8901L34.4465 29.9268Z" fill="#EDEDED"/>
<path d="M34.3815 29.8168L34.3457 29.7627L34.3983 29.7285L34.4375 29.782L34.3815 29.8168Z" fill="#EDEDED"/>
<path d="M34.3073 29.7081L34.2695 29.6546L34.3161 29.623L34.3566 29.6752L34.3073 29.7081Z" fill="#EDEDED"/>
<path d="M34.2312 29.6027L34.1914 29.5505L34.2312 29.5215L34.2737 29.5717L34.2312 29.6027Z" fill="#EDEDED"/>
<path d="M34.1544 29.4986L34.1133 29.4476L34.147 29.4219L34.1909 29.4708L34.1544 29.4986Z" fill="#EDEDED"/>
<path d="M34.0672 29.3983L34.0254 29.3481L34.0517 29.3262L34.0976 29.3739L34.0672 29.3983Z" fill="#EDEDED"/>
<path d="M33.9859 29.3001L33.9414 29.2518L33.961 29.2344L34.0082 29.2801L33.9859 29.3001Z" fill="#EDEDED"/>
<path d="M33.8855 29.1936L33.8633 29.1704L33.8774 29.1562L33.9017 29.1788L33.8855 29.1936Z" fill="#EDEDED"/>
<path d="M40.4716 32.7958C40.4716 32.7958 40.1517 32.6476 40.0512 32.7429C39.9507 32.8383 39.7496 33.4975 39.9648 33.895C40.1808 34.2932 40.6261 35.0342 41.1436 35.089C41.6612 35.1437 42.006 34.9066 42.006 34.5928C42.006 34.279 41.8123 34.1225 41.8123 34.1225" stroke="#EDEDED" stroke-width="0.25" stroke-miterlimit="10"/>
<path d="M40.291 32.9598C40.291 32.9598 39.9711 32.8116 39.8706 32.907C39.6412 33.1248 39.6837 33.7118 39.7842 34.0597C39.9246 34.543 40.3436 35.3864 41.044 35.4515C41.125 35.4592 41.5528 35.4908 41.7303 35.2215C41.8672 35.014 41.7707 34.7556 41.7498 34.7021" stroke="#EDEDED" stroke-width="2" stroke-miterlimit="10"/>
<path d="M39.8231 33.3417C39.8231 33.3417 39.456 33.1851 39.3406 33.2856C39.0775 33.515 39.1261 34.1342 39.2414 34.5008C39.4027 35.0105 39.8831 35.8997 40.6875 35.968C40.7806 35.9757 41.2718 36.0092 41.4756 35.7257C41.6328 35.5073 41.5221 35.2341 41.4979 35.1787" stroke="#EDEDED" stroke-width="0.25" stroke-miterlimit="10"/>
<path d="M39.4892 33.4582C39.4892 33.4582 39.0944 33.2958 38.9703 33.4002C38.6875 33.638 38.7395 34.2798 38.8636 34.6599C39.0364 35.1876 39.5533 36.1097 40.4176 36.1812C40.5175 36.1896 41.0452 36.2237 41.2645 35.9299C41.4332 35.7031 41.3144 35.4209 41.2888 35.3622" stroke="#EDEDED" stroke-miterlimit="10"/>
<g clip-path="url(#clip1_566_16605)">
<path d="M40.2737 45.5463C40.2874 45.1159 40.3572 44.3609 40.9544 43.6543C42.2232 42.1547 48.4572 36.9573 49.6253 36.4947C50.9845 35.9584 66.5152 36.3221 67.7932 36.3428C67.8401 36.3428 68.0689 36.3669 68.1147 36.3785C68.5059 36.4763 70.1362 36.9896 70.1179 38.4328C70.071 42.1202 70.5458 50.7874 70.1179 52.8153C69.69 54.842 66.664 61.2615 65.1355 63.6887C63.3954 66.4531 61.3498 66.33 60.6164 66.269C59.8831 66.208 45.2401 65.9686 43.4565 65.9951C41.5024 66.0239 40.586 65.4496 40.3423 63.8533C40.1261 62.4377 40.165 48.7906 40.2714 45.5486L40.2737 45.5463Z" fill="#F1C926"/>
<path d="M44.6608 44.8074L61.4145 44.9708C61.4512 44.9708 61.5679 44.9374 61.593 44.9098L68.438 37.4625C68.4792 37.4176 68.5444 37.4073 68.597 37.436C68.668 37.4752 68.6874 37.5672 68.6382 37.6317L62.1868 45.7005C62.0861 45.7799 62.1216 46.2851 62.1216 46.315L62.4774 64.5138C62.4785 64.5909 62.4374 64.6623 62.3699 64.6991C62.2371 64.7705 62.0747 64.6784 62.069 64.5265L61.2967 46.5498C61.2738 45.9962 61.2281 45.9732 60.9935 45.9755L44.6482 45.4427C44.5406 45.4358 41.9756 45.3333 41.9951 45.0974C41.9379 44.7314 44.5463 44.8085 44.6596 44.8085L44.6608 44.8074Z" fill="#F09B28"/>
<path d="M57.5185 36.0514C55.4809 37.6546 50.773 42.3801 49.6404 43.6069C49.5146 43.7439 49.343 43.9568 49.2457 44.0753C48.549 44.9258 48.5421 45.972 48.533 46.3863C48.3934 53.0395 48.6188 59.1564 48.5455 65.8107C48.5455 65.8579 48.5284 65.95 48.5867 66.0363C48.8613 66.4426 49.6496 66.385 51.9457 66.3689C52.6585 66.3643 53.2179 66.156 52.9662 66.0939C52.8003 66.0524 52.8518 65.6116 52.8461 65.3067C52.7706 60.7998 52.5029 54.8314 52.6859 47.3979C52.6985 46.8754 52.8209 45.1502 53.2271 44.6323C53.5451 44.2284 53.9478 43.615 54.0714 43.4446C55.0507 42.1004 61.112 36.2217 61.4015 36.224C61.89 36.2286 58.2679 35.4576 57.5162 36.0503L57.5185 36.0514Z" fill="#F39421"/>
<path d="M44.7539 40.1648C44.8729 40.0474 63.5476 40.548 65.1596 40.708C65.3152 40.723 65.3312 40.708 65.4422 40.8818C65.7854 41.4192 65.7671 43.6059 65.7477 44.0916C65.4754 50.655 66.7018 54.5772 66.5394 61.1441L66.3517 61.5181C66.3655 61.5181 66.243 61.7379 66.1652 61.8841C66.0211 62.1557 66.9958 61.5688 67.426 60.9392C67.9603 60.1555 67.8711 59.5697 67.8539 59.2187C67.6857 55.8098 67.1674 45.6522 67.3196 42.4642C67.3505 41.8197 67.3448 40.6136 67.0748 39.953C67.0164 39.8092 66.8162 39.4535 66.3369 39.3005C63.5819 38.4178 50.7363 38.7216 47.7537 38.2566C47.5306 38.2221 46.7629 38.1726 46.2561 38.4718C44.8409 39.3062 44.3169 40.5952 44.7528 40.1659L44.7539 40.1648Z" fill="#F39421"/>
<path d="M56.3689 37.2555C56.9581 36.3164 59.2051 37.2705 61.0665 36.275C63.6189 34.91 65.0765 31.2951 65.2939 30.2778C65.3282 30.1166 65.6714 30.4561 65.6714 30.4561C66.5214 31.4988 67.0374 32.5818 67.1244 32.8362C67.7078 34.551 66.5123 36.5604 64.1315 38.045C61.9246 39.4215 58.3791 40.0614 56.9341 38.8944C56.4387 38.495 56.0475 37.7677 56.3689 37.2544V37.2555Z" fill="#D1781D"/>
<path d="M55.175 36.716C54.9508 35.7999 52.7611 35.6951 51.4728 34.2749C49.7052 32.3265 49.5291 29.0949 49.6435 28.2559C49.6618 28.1224 49.2705 28.2513 49.2705 28.2513C48.2431 28.7208 47.6173 28.9337 47.4697 29.0926C46.4709 30.1617 46.7638 32.506 48.3507 34.4821C49.8219 36.3143 52.6455 38.082 54.2152 37.7356C54.7529 37.6171 55.2986 37.2166 55.1762 36.716H55.175Z" fill="#D27920"/>
<path d="M53.7019 37.4402C53.9227 36.2456 54.1481 34.7771 53.2969 33.1475C52.1299 30.9136 48.5284 29.4209 47.4976 29.1608C47.334 29.1194 47.7184 28.8593 47.7184 28.8593C48.8785 28.2298 49.4928 27.8845 49.764 27.8316C51.5945 27.476 54.1149 28.6245 55.4226 30.7249C56.6353 32.6722 56.9556 35.6794 55.6102 36.7946C55.1491 37.1767 53.528 38.3771 53.7007 37.4391L53.7019 37.4402Z" fill="#F3941E"/>
<path d="M56.0182 37.0321C57.2286 37.0091 57.0788 34.5646 58.8315 33.4678C61.234 31.9636 65.5861 32.5771 66.737 32.9166C66.9189 32.9707 66.6935 32.4965 66.6935 32.4965C65.9213 31.2179 65.5186 30.5285 65.2852 30.3225C63.7052 28.9265 60.6002 28.5973 58.1359 29.8909C55.8512 31.0901 54.4005 33.2503 54.8604 36.8307C54.9474 37.5028 55.3569 37.0448 56.0182 37.0321Z" fill="#D1781D"/>
<path d="M67.3691 43.4892C65.4082 42.9714 65.7834 42.1381 63.43 41.5201C62.7173 41.3325 61.5103 41.649 60.0161 41.2312C58.6352 40.8445 58.2611 40.5039 57.8001 39.8663C57.6239 39.6223 57.1422 38.8927 57.0702 38.3828L55.3438 38.5808V39.6718C55.3758 39.6649 55.409 39.6626 55.4433 39.6649C55.8163 39.6879 55.9902 40.2116 56.3849 40.8342C56.3849 40.8342 57.315 42.3004 59.1569 43.2786C60.8696 44.1878 61.2998 43.0128 63.6554 43.7033C65.6919 44.3006 67.1563 45.7035 68.0498 45.0844C68.1974 44.9819 68.2592 44.8726 68.5727 44.6597C69.4021 44.0958 70.0508 44.4778 70.0508 44.349C70.0508 44.1717 68.7774 43.8621 67.3702 43.4904L67.3691 43.4892Z" fill="#D27920"/>
<path d="M54.9057 39.3223L53.7422 39.4558C53.5099 39.6042 53.5351 39.8079 53.3772 39.9691C53.0443 40.3109 53.0386 40.2821 52.6908 40.5422C51.1303 41.7092 49.5148 42.0855 48.1923 42.402C44.9431 43.1777 43.9924 43.4585 43.5897 44.3148C43.457 44.5979 43.5039 44.6865 43.2236 45.4311C42.6778 46.8778 41.8942 47.1413 42.0143 47.2714C42.2294 47.5038 44.0622 45.8961 46.5185 44.7406C50.1578 43.0281 52.6759 44.3827 54.2078 42.3491C54.5018 41.9578 55.0338 40.518 55.2272 40.1405L54.9068 39.3223H54.9057Z" fill="#D27920"/>
<path d="M67.3277 43.8701C65.3668 43.3522 65.7421 42.519 63.3887 41.901C62.6759 41.7134 61.4689 42.0299 59.9748 41.6121C58.5939 41.2254 58.2198 40.8847 57.7587 40.2472C57.5825 40.0032 57.1009 39.2735 57.0288 38.7637L53.4719 39.1711C53.2396 39.3195 53.2648 39.5232 53.1069 39.6844C52.774 40.0262 52.7683 39.9974 52.4205 40.2575C50.86 41.4245 49.2445 41.8008 47.922 42.1173C44.6728 42.893 43.7221 43.1738 43.3194 44.0301C43.1867 44.3132 43.2336 44.4018 42.9533 45.1464C42.4076 46.5931 41.8916 47.142 42.0117 47.2721C42.2268 47.5046 43.7919 45.6114 46.2482 44.4559C49.8875 42.7434 52.4056 44.098 53.9375 42.0644C54.5954 41.192 54.8333 40.0112 55.4019 40.0457C55.7749 40.0688 55.9488 40.5924 56.3435 41.215C56.3435 41.215 57.2736 42.6813 59.1156 43.6595C60.8283 44.5687 61.2584 43.3936 63.6141 44.0842C65.6505 44.6815 67.1149 46.0844 68.0085 45.4652C68.156 45.3628 68.2178 45.2535 68.5313 45.0405C69.3608 44.4766 70.0495 44.4789 70.0483 44.35C70.0483 44.1728 68.7361 44.2441 67.3289 43.8713L67.3277 43.8701Z" fill="#F3941E"/>
<path d="M56.3325 37.0321C57.5429 37.0091 57.3931 34.5646 59.1458 33.4678C61.5483 31.9636 65.9004 32.5771 67.0513 32.9166C67.2332 32.9707 67.0078 32.4965 67.0078 32.4965C66.2356 31.2179 65.8329 30.5285 65.5995 30.3225C64.0195 28.9265 60.9145 28.5973 58.4502 29.8909C56.1655 31.0901 54.6061 33.5657 54.955 36.4463C55.0363 37.1196 55.6724 37.0459 56.3325 37.0332V37.0321Z" fill="#F3941E"/>
<path d="M55.4395 36.4846C55.4417 36.2809 54.0689 36.1416 53.6696 36.3545C53.2234 36.5916 53.244 37.4087 53.2772 38.7622C53.3058 39.9004 53.4819 40.096 53.5906 40.1823C53.8881 40.4194 54.1592 40.2215 55.1603 40.2215C56.2769 40.2215 56.5572 40.4678 56.8467 40.2215C57.0698 40.0316 57.4061 39.8336 57.4221 38.5377C57.4404 37.0094 57.3077 36.6814 57.0652 36.5122C56.778 36.3108 55.9817 36.2602 55.7083 36.4754C55.6259 36.541 55.4372 36.6054 55.4383 36.4846H55.4395Z" fill="#D1781D"/>
<path d="M55.4348 36.4637C55.4143 36.4775 55.4108 36.4936 55.4062 36.5016C55.1145 36.9942 55.0825 37.0621 55.0081 37.2877C54.9292 37.5271 54.9051 37.6237 54.9063 37.8896C54.9086 38.2878 55.1523 38.785 55.1397 38.7148C55.0951 38.4673 54.9681 37.9886 55.2015 37.2497C55.3628 36.7376 55.6888 36.4821 55.7117 36.4786C55.7609 36.4694 55.5001 36.4222 55.4348 36.4648V36.4637Z" fill="#F0C827"/>
</g>
</g>
<defs>
<clipPath id="clip0_566_16605">
<rect width="72.0909" height="65" fill="white" transform="translate(0.455078)"/>
</clipPath>
<clipPath id="clip1_566_16605">
<rect width="30.6386" height="38.9441" fill="white" transform="translate(40.1055 26.2637)"/>
</clipPath>
</defs>
</svg>
