<svg width="59" height="61" viewBox="0 0 59 61" fill="none" xmlns="http://www.w3.org/2000/svg">
<g id="Lapin qui tient un stylo">
<g id="Group 9056">
<g id="Group">
<path id="Vector" d="M32.7386 44.0314L31.7082 45.4512L20.2953 37.1099C19.8055 36.7524 19.6338 36.1434 19.92 35.7488C20.2037 35.3581 20.836 35.3313 21.3258 35.6901L32.7386 44.0314Z" fill="#9A1921"/>
<path id="Vector_2" d="M34.2858 46.2523L32.7375 44.0332L31.707 45.453L34.2858 46.2523Z" fill="#B68754"/>
<path id="Vector_3" d="M34.2874 46.2509L33.7111 45.4248L33.3281 45.9534L34.2874 46.2509Z" fill="#010101"/>
</g>
<g id="Group_2">
<path id="Vector_4" d="M23.8481 45.0167C22.9097 46.2305 22.4381 47.7644 21.983 48.6037C20.8444 50.7045 20.8428 50.8509 19.4924 52.8137C18.4051 54.3919 17.3179 55.844 16.1131 56.7207C15.2261 57.3659 16.8992 49.8584 20.4406 46.4893C21.3426 45.6313 21.9747 44.0719 22.4629 44.4771C22.5126 44.5179 24.4753 44.2064 23.8481 45.0184V45.0167Z" fill="#A04C17"/>
<path id="Vector_5" d="M9.28297 60.4889C8.0749 61.2448 7.12168 61.3061 5.25828 62.5029C4.71217 62.8536 4.05022 63.3898 3.75565 64.2103C3.66794 64.4555 3.51404 64.9032 3.69608 65.3697C3.84171 65.7425 4.12965 65.9451 4.21074 65.9996C4.50531 66.2005 4.6559 66.3213 5.09776 66.3673C5.73489 66.4337 5.96989 66.4133 6.13703 66.4575C6.90159 66.6618 4.28189 70.9672 0.869522 71.2668C0.382986 71.3094 -1.76338 71.4966 -3.02441 69.9849C-4.35493 68.388 -3.7476 66.0387 -3.63673 65.6131C-2.46838 61.0967 3.46108 59.6173 5.02164 59.2274C5.55782 59.093 8.42574 59.3551 9.5494 59.2887C10.2411 59.2479 9.38557 60.4225 9.28463 60.4872L9.28297 60.4889Z" fill="#A04C17"/>
<path id="Vector_6" d="M14.2734 13.0357C15.4368 11.9326 16.9824 10.4634 19.4962 8.81381C21.4953 7.50126 23.5308 7.32931 25.2287 7.18631C26.4583 7.08246 28.6047 7.04842 31.0804 7.79578C34.1585 8.72529 34.5342 9.89142 38.1186 11.7011C39.0454 12.1692 41.7395 13.463 45.3538 14.1815C47.5746 14.6224 51.0284 15.2676 54.8032 13.9789C56.1486 13.5192 58.6508 11.6908 58.5333 11.0099C58.4721 10.6558 57.5668 11.3163 57.2557 11.2533C53.6911 10.5332 47.9553 10.889 45.1569 10.5213C39.8281 9.82161 40.4338 5.88227 33.6902 4.46076C33.0563 4.32627 29.8856 3.69468 25.8609 4.46076C22.5577 5.08895 20.4858 6.31469 17.9142 7.83663C15.6023 9.20366 14.6507 10.1553 14.6325 11.2533C14.6259 11.7011 13.9441 13.3456 14.2734 13.034V13.0357Z" fill="#A04C17"/>
<path id="Vector_7" d="M16.3428 15.9886C17.6171 15.6294 18.2857 15.4319 19.881 15.3944C22.4907 15.3331 24.4021 16.0873 25.0508 16.3801C26.7421 17.1462 27.8724 18.6937 30.1313 21.7903C31.4354 23.5779 32.4994 25.2786 33.4725 26.8345C35.4418 29.984 35.3872 30.2002 36.1816 31.0241C38.2667 33.1879 40.7573 33.8808 41.7966 34.1566C41.7966 34.1566 45.1808 35.0537 48.4393 34.0749C49.1393 33.8638 49.889 33.3956 50.1256 33.2475C50.5774 32.9649 50.6138 32.8866 50.6138 32.827C50.6072 32.369 48.393 32.1818 46.9896 31.8379C43.5541 30.9935 41.3796 28.319 40.0838 26.7273C37.4724 23.5166 38.6291 22.5173 36.0641 18.9865C34.9685 17.4782 32.933 14.7492 29.3039 13.3737C27.0201 12.5071 25.0409 12.6604 21.0808 12.9668C18.1351 13.1949 16.9584 13.6818 16.5331 14.5943C16.3246 15.042 15.9059 16.1162 16.3461 15.992L16.3428 15.9886Z" fill="#A04C17"/>
<path id="Vector_8" d="M-21.2765 79.1679C-22.1536 76.7147 -24.1759 72.5881 -24.4142 69.7212C-24.8163 64.8609 -25.4137 58.3526 -21.2848 51.8988C-19.3486 48.8736 -16.3565 46.5379 -10.3725 41.8666C-8.68448 40.5489 -5.96882 39.3028 -3.30777 36.7696C-0.578867 34.1717 0.804634 32.5391 0.804634 32.5391C1.83894 31.3185 2.31389 30.6205 2.43966 30.6954C2.80373 30.9116 -0.456402 37.2156 -2.14604 40.7821C-10.02 57.401 -10.6521 71.267 -18.3308 77.6595C-19.5538 78.6775 -20.6774 80.8447 -21.2765 79.1679Z" fill="#A04C17"/>
<path id="Vector_9" d="M52.1002 9.70922C48.802 8.77801 48.5256 7.69357 42.9271 4.61223C39.0051 2.45358 37.0457 1.37426 34.5981 0.924825C30.4212 0.157043 27.0138 1.16317 25.3192 1.68411C23.0388 2.3855 17.614 4.15769 14.67 8.38134C13.548 9.99181 13.404 9.87265 10.5841 14.9441C10.0727 15.8634 9.81953 16.7861 9.29328 17.5198C6.32111 21.6532 5.88918 21.9103 4.97072 23.3761C3.87188 25.1295 4.18466 25.2504 2.12433 30.4257C0.555496 34.3685 -0.230572 36.3398 -1.03815 37.5843C-2.73441 40.1958 -3.92096 40.4409 -8.41894 44.1998C-12.72 47.7953 -14.8697 49.593 -16.748 52.3339C-19.7268 56.6818 -20.6883 61.0365 -21.0705 62.8547C-21.8053 66.3378 -21.8119 69.3511 -21.8086 70.9888C-21.7937 77.1276 -20.536 80.5069 -21.9145 81.2934C-22.8413 81.8211 -24.8404 81.1095 -26.0269 80.209C-26.7451 79.6625 -27.2896 78.9543 -27.609 79.1245C-27.94 79.3016 -27.7612 80.2787 -27.7149 80.5341C-27.4071 82.2195 -26.3794 83.4929 -25.3948 84.4394C-24.0775 85.7043 -22.7089 86.5078 -22.0204 86.8262C-21.9427 86.8619 -21.8583 86.8977 -21.7722 86.9334H16.6526C16.5318 86.3801 15.8996 85.8371 15.4081 85.4166C13.4735 83.7602 10.8588 84.007 10.0314 84.007C8.06702 84.007 6.61732 83.6972 6.10431 83.0145C5.87428 82.7081 5.94048 81.9641 6.02157 81.6969C6.30455 80.7707 6.89535 79.974 9.46042 77.6043C11.4248 75.7878 12.3316 75.2941 12.7718 73.8113C13.3676 71.8042 12.4806 68.9237 12.1893 68.5339C11.5191 67.6384 10.8638 66.0297 7.16841 66.3276C1.60303 66.7753 0.300646 71.0415 -0.728693 70.4763C-3.95075 68.7075 0.497572 63.4216 2.03827 62.4632C4.97569 60.6399 8.37814 61.0127 11.0855 59.9283C12.1364 59.5078 14.9977 58.3604 17.0961 55.5906C17.6951 54.8007 18.6583 52.9535 20.7732 49.3274C21.7479 47.6557 22.2411 47.0513 23.1877 45.8086C23.9903 44.7531 24.8922 43.9189 26.4677 43.1733C27.6724 42.603 28.4386 41.9731 28.4055 41.8182C28.293 41.2989 26.0688 41.7399 25.5989 41.8863C25.1156 42.0361 23.479 42.683 22.4231 43.3639C21.1075 44.2134 20.8014 44.6441 20.2486 44.8467C17.1904 45.9703 16.4771 44.6935 15.7142 43.987C15.1698 43.4831 14.056 41.1695 13.8922 40.8274C13.5 40.0119 12.9125 38.89 13.3196 38.2142C13.7549 37.4924 14.5244 37.397 15.2012 37.4787C16.1395 37.5928 16.1015 38.3027 17.3095 38.7811C18.7857 39.3633 20.3165 39.3616 21.4881 39.2152C22.8832 39.0398 23.4823 38.8083 24.0582 38.0218C24.3461 37.6286 24.5265 37.1638 24.6374 35.4393C24.8194 32.6269 24.6407 32.0277 24.4586 29.9899C24.3147 28.3624 20.5779 20.7374 15.3667 18.6417C14.4532 18.274 15.0159 16.5069 17.2036 15.5093C18.9595 14.7092 20.7831 14.2359 21.652 14.1882C23.8265 14.0656 25.5393 14.0316 25.9017 14.0861C27.1081 14.2682 27.4953 14.3023 28.571 14.6751C30.2706 15.2641 30.4675 15.6353 31.477 16.3639C33.5589 17.8654 34.3698 18.8528 36.0759 22.295C38.0469 26.2701 37.375 26.6821 38.9041 28.8118C40.3836 30.8734 42.2189 31.5391 44.5638 32.3C47.0941 33.1206 50.6422 33.3913 50.8375 32.8159C51.003 32.3273 48.2906 32.1417 45.4608 29.7243C43.1952 27.7887 42.7451 26.471 40.9016 22.9454C39.6223 20.5024 38.6956 19.4316 37.8698 18.2808C35.8608 15.482 34.8265 14.9543 33.2378 13.9227C32.4021 13.3796 30.9921 12.5743 29.2512 11.9359C26.9972 11.1103 24.4073 11.1341 22.1865 11.4746C16.0849 12.4109 13.3163 18.2127 12.1446 17.6832C10.2581 16.8338 16.828 10.065 18.1022 9.16955C19.1034 8.46476 23.7437 5.18424 31.4389 5.91627C33.3255 6.09502 34.6709 6.79471 35.4454 7.21861C37.7242 8.46306 37.7788 9.45386 39.8739 10.6898C41.3501 11.5597 42.5896 11.8151 44.5125 12.2083C45.4062 12.3922 47.3738 12.7003 51.4051 12.8655C52.9889 12.9301 54.091 12.7395 55.4778 12.4245C56.5866 12.1726 58.5791 11.5478 58.536 11.0149C58.4847 10.38 55.6102 10.7034 52.1051 9.71261L52.1002 9.70922Z" fill="#F39324"/>
<path id="Vector_10" d="M21.4139 36.3084C22.0527 37.4524 22.4102 38.0908 23.1334 38.261C23.4015 38.324 23.5438 38.2815 23.6282 38.2406C23.8946 38.1112 24.027 37.8337 23.8715 37.5698C23.5819 37.0778 23.6249 36.9876 22.632 36.1466C22.4632 36.0036 22.109 35.8692 21.7482 35.8624C21.6986 35.8624 21.4239 35.8555 21.3527 36.0053C21.3031 36.1109 21.3759 36.2454 21.4123 36.3101L21.4139 36.3084Z" fill="#A04C17"/>
<path id="Vector_11" d="M7.47244 26.3032C7.85306 26.3373 7.56676 28.4959 8.42068 30.9678C8.93701 32.4625 9.67012 33.4908 10.16 34.1666C10.8749 35.154 12.1839 36.8206 13.2182 37.2582C13.4102 37.3399 13.809 37.5374 13.8437 37.6821C13.8437 37.6821 13.3456 37.7927 12.7747 37.6752C12.2402 37.5646 11.7718 37.4352 11.2671 37.1339C9.34743 35.9899 8.05165 34.5292 7.60318 33.7597C6.71451 32.2327 6.68803 30.8367 6.62845 30.2885C6.55398 29.6025 6.47619 28.2661 7.07692 26.8718C7.31357 26.322 7.4261 26.2981 7.47244 26.3032Z" fill="white"/>
<path id="Vector_12" d="M13.5809 28.0318C12.7551 28.7485 12.9421 30.1002 12.9884 30.3691C13.0199 30.5615 13.24 31.7634 14.213 32.3609C14.4977 32.5363 15.1365 32.7082 16.3677 32.8444C17.3375 32.9517 17.6966 32.9006 17.9481 32.7474C18.668 32.3099 18.5919 30.9888 18.5803 30.8356C18.4859 29.4907 17.4897 28.3926 16.4653 27.9075C16.2403 27.8002 15.2655 27.3389 14.2312 27.6845C14.0475 27.7457 13.8142 27.8258 13.5792 28.03L13.5809 28.0318Z" fill="white"/>
<path id="Vector_13" d="M13.5809 28.0331C12.7551 28.7498 12.9421 30.1015 12.9884 30.3705C13.0199 30.5628 13.6603 31.6404 14.127 31.8022C14.4944 31.9281 14.8982 31.9843 15.4161 31.8992C15.8249 31.8328 15.9755 31.6149 16.1708 31.3885C16.3991 31.1229 16.5183 30.6122 16.5282 30.4607C16.5729 29.7303 16.3495 28.8281 16.1112 28.4553C15.9755 28.2425 15.2672 27.3419 14.2329 27.6875C14.0492 27.7488 13.8159 27.8288 13.5809 28.0331Z" fill="#1A1933"/>
<path id="Vector_14" d="M17.9599 33.0942C18.0343 33.2423 18.1767 33.3087 18.3388 33.3853C18.5341 33.4755 18.7459 33.5759 18.8518 33.484C18.9644 33.3887 18.8982 33.1333 18.837 32.9018C18.7608 32.6124 18.6351 32.4234 18.5325 32.2736C18.4249 32.117 18.3719 32.0387 18.3024 32.0217C18.0045 31.9468 17.5693 32.5903 17.6769 32.7639C17.7083 32.8133 17.7712 32.8065 17.8556 32.9018C17.9185 32.9733 17.9284 33.0312 17.9599 33.0925V33.0942Z" fill="#A04C17"/>
</g>
</g>
</g>
</svg>
