<svg width="18" height="18" viewBox="0 0 18 18" fill="none" xmlns="http://www.w3.org/2000/svg">
<path d="M15.9848 13.4999L13.2733 10.7882C12.7218 10.2366 11.9121 10.1382 11.2723 10.4444L10.3402 9.5122C11.005 8.66921 11.4021 7.60584 11.4021 6.45142C11.4021 3.72124 9.18111 1.5 6.45107 1.5C3.72103 1.5 1.5 3.72124 1.5 6.45145C1.5 9.18167 3.72103 11.4029 6.45107 11.4029C7.60543 11.4029 8.66871 11.0057 9.51161 10.3409L10.4437 11.273C10.1373 11.9132 10.2362 12.7229 10.7875 13.2743L13.499 15.986C14.1844 16.6714 15.2995 16.6714 15.9848 15.986C16.6717 15.299 16.6719 14.187 15.9848 13.4999ZM6.45107 10.231C4.36721 10.231 2.67185 8.5355 2.67185 6.45145C2.67185 4.36741 4.36721 2.67194 6.45107 2.67194C8.53494 2.67194 10.2303 4.36741 10.2303 6.45145C10.2303 8.5355 8.53494 10.231 6.45107 10.231ZM15.1562 15.1573C14.9278 15.3857 14.5561 15.3858 14.3276 15.1573L11.6161 12.4456C11.3871 12.2166 11.3871 11.8459 11.6161 11.6169C11.845 11.3879 12.2157 11.3878 12.4447 11.6169L15.1562 14.3286C15.3852 14.5576 15.3852 14.9282 15.1562 15.1573Z" fill="#E3DDD9"/>
</svg>
