<svg width="48" height="49" viewBox="0 0 48 49" fill="none" xmlns="http://www.w3.org/2000/svg">
<g id="ICON THUMB UP">
<path id="Vector" d="M39.7377 33.2049H38.2561C37.8344 33.2049 37.4924 32.8649 37.4924 32.4455V30.828C37.4924 30.4086 37.8344 30.0686 38.2561 30.0686H39.7377C40.1595 30.0686 40.5014 30.4086 40.5014 30.828V32.4455C40.5014 32.8649 40.1595 33.2049 39.7377 33.2049Z" fill="#E00000"/>
<path id="Vector_2" d="M17.2424 14.5554H15.7608C15.339 14.5554 14.9971 14.2154 14.9971 13.796V12.1785C14.9971 11.7591 15.339 11.4191 15.7608 11.4191H17.2424C17.6641 11.4191 18.0061 11.7591 18.0061 12.1785V13.796C18.0061 14.2154 17.6641 14.5554 17.2424 14.5554Z" fill="#E00000"/>
<path id="Vector_3" d="M35.9884 33.2049H34.5069C34.0851 33.2049 33.7432 32.8649 33.7432 32.4455V30.828C33.7432 30.4086 34.0851 30.0686 34.5069 30.0686H35.9884C36.4102 30.0686 36.7521 30.4086 36.7521 30.828V32.4455C36.7521 32.8649 36.4102 33.2049 35.9884 33.2049Z" fill="#E00000"/>
<path id="Vector_4" d="M2.24528 14.5554H0.763701C0.34192 14.5554 0 14.2154 0 13.796V12.1785C0 11.7591 0.34192 11.4191 0.763701 11.4191H2.24528C2.66706 11.4191 3.00898 11.7591 3.00898 12.1785V13.796C3.00898 14.2154 2.66706 14.5554 2.24528 14.5554Z" fill="#E00000"/>
<path id="Vector_5" d="M28.4902 48.1245H27.0086C26.5868 48.1245 26.2449 47.7845 26.2449 47.3651V45.7476C26.2449 45.3282 26.5868 44.9882 27.0086 44.9882H28.4902C28.9119 44.9882 29.2539 45.3282 29.2539 45.7476V47.3651C29.2539 47.7845 28.9119 48.1245 28.4902 48.1245Z" fill="#E00000"/>
<path id="Vector_6" d="M47.2362 14.5554H45.7547C45.3329 14.5554 44.991 14.2154 44.991 13.796V12.1785C44.991 11.7591 45.3329 11.4191 45.7547 11.4191H47.2362C47.658 11.4191 48 11.7591 48 12.1785V13.796C48 14.2154 47.658 14.5554 47.2362 14.5554Z" fill="#E00000"/>
<path id="Vector_7" d="M47.2362 33.2049H45.7547C45.3329 33.2049 44.991 32.8649 44.991 32.4455V30.828C44.991 30.4086 45.3329 30.0686 45.7547 30.0686H47.2362C47.658 30.0686 48 30.4086 48 30.828V32.4455C48 32.8649 47.658 33.2049 47.2362 33.2049Z" fill="#E00000"/>
<path id="Vector_8" d="M39.7377 25.7451H38.2561C37.8344 25.7451 37.4924 25.4051 37.4924 24.9857V23.3682C37.4924 22.9488 37.8344 22.6088 38.2561 22.6088H39.7377C40.1595 22.6088 40.5014 22.9488 40.5014 23.3682V24.9857C40.5014 25.4051 40.1595 25.7451 39.7377 25.7451Z" fill="#E00000"/>
<path id="Vector_9" d="M17.2424 7.09554H15.7608C15.339 7.09554 14.9971 6.75555 14.9971 6.33615V4.71867C14.9971 4.29928 15.339 3.95929 15.7608 3.95929H17.2424C17.6641 3.95929 18.0061 4.29928 18.0061 4.71867V6.33615C18.0061 6.75555 17.6641 7.09554 17.2424 7.09554Z" fill="#E00000"/>
<path id="Vector_10" d="M17.2424 25.7451H15.7608C15.339 25.7451 14.9971 25.4051 14.9971 24.9857V23.3682C14.9971 22.9488 15.339 22.6088 15.7608 22.6088H17.2424C17.6641 22.6088 18.0061 22.9488 18.0061 23.3682V24.9857C18.0061 25.4051 17.6641 25.7451 17.2424 25.7451Z" fill="#E00000"/>
<path id="Vector_11" d="M35.9884 25.7451H34.5069C34.0851 25.7451 33.7432 25.4051 33.7432 24.9857V23.3682C33.7432 22.9488 34.0851 22.6088 34.5069 22.6088H35.9884C36.4102 22.6088 36.7521 22.9488 36.7521 23.3682V24.9857C36.7521 25.4051 36.4102 25.7451 35.9884 25.7451Z" fill="#E00000"/>
<path id="Vector_12" d="M2.24528 7.09554H0.763701C0.34192 7.09554 0 6.75555 0 6.33615V4.71867C0 4.29928 0.34192 3.95929 0.763701 3.95929H2.24528C2.66706 3.95929 3.00898 4.29928 3.00898 4.71867V6.33615C3.00898 6.75555 2.66706 7.09554 2.24528 7.09554Z" fill="#E00000"/>
<path id="Vector_13" d="M47.2362 7.09554H45.7547C45.3329 7.09554 44.991 6.75555 44.991 6.33615V4.71867C44.991 4.29928 45.3329 3.95929 45.7547 3.95929H47.2362C47.658 3.95929 48 4.29928 48 4.71867V6.33615C48 6.75555 47.658 7.09554 47.2362 7.09554Z" fill="#E00000"/>
<path id="Vector_14" d="M2.24528 25.7451H0.763701C0.34192 25.7451 0 25.4051 0 24.9857V23.3682C0 22.9488 0.34192 22.6088 0.763701 22.6088H2.24528C2.66706 22.6088 3.00898 22.9488 3.00898 23.3682V24.9857C3.00898 25.4051 2.66706 25.7451 2.24528 25.7451Z" fill="#E00000"/>
<path id="Vector_15" d="M47.2362 25.7451H45.7547C45.3329 25.7451 44.991 25.4051 44.991 24.9857V23.3682C44.991 22.9488 45.3329 22.6088 45.7547 22.6088H47.2362C47.658 22.6088 48 22.9488 48 23.3682V24.9857C48 25.4051 47.658 25.7451 47.2362 25.7451Z" fill="#E00000"/>
<path id="Vector_16" d="M39.7377 10.7888H38.2561C37.8344 10.7888 37.4924 10.4488 37.4924 10.0295V8.41197C37.4924 7.99257 37.8344 7.65258 38.2561 7.65258H39.7377C40.1595 7.65258 40.5014 7.99257 40.5014 8.41197V10.0295C40.5014 10.4488 40.1595 10.7888 39.7377 10.7888Z" fill="#E00000"/>
<path id="Vector_17" d="M20.9916 29.4384H19.51C19.0883 29.4384 18.7463 29.0984 18.7463 28.679V27.0615C18.7463 26.6421 19.0883 26.3021 19.51 26.3021H20.9916C21.4134 26.3021 21.7553 26.6421 21.7553 27.0615V28.679C21.7553 29.0984 21.4134 29.4384 20.9916 29.4384Z" fill="#E00000"/>
<path id="Vector_18" d="M17.2424 10.7888H15.7608C15.339 10.7888 14.9971 10.4488 14.9971 10.0295V8.41197C14.9971 7.99257 15.339 7.65258 15.7608 7.65258H17.2424C17.6641 7.65258 18.0061 7.99257 18.0061 8.41197V10.0295C18.0061 10.4488 17.6641 10.7888 17.2424 10.7888Z" fill="#E00000"/>
<path id="Vector_19" d="M35.9884 10.7888H34.5069C34.0851 10.7888 33.7432 10.4488 33.7432 10.0295V8.41197C33.7432 7.99257 34.0851 7.65258 34.5069 7.65258H35.9884C36.4102 7.65258 36.7521 7.99257 36.7521 8.41197V10.0295C36.7521 10.4488 36.4102 10.7888 35.9884 10.7888Z" fill="#E00000"/>
<path id="Vector_20" d="M17.2424 29.4384H15.7608C15.339 29.4384 14.9971 29.0984 14.9971 28.679V27.0615C14.9971 26.6421 15.339 26.3021 15.7608 26.3021H17.2424C17.6641 26.3021 18.0061 26.6421 18.0061 27.0615V28.679C18.0061 29.0984 17.6641 29.4384 17.2424 29.4384Z" fill="#E00000"/>
<path id="Vector_21" d="M2.24528 10.7888H0.763701C0.34192 10.7888 0 10.4488 0 10.0295V8.41197C0 7.99257 0.34192 7.65258 0.763701 7.65258H2.24528C2.66706 7.65258 3.00898 7.99257 3.00898 8.41197V10.0295C3.00898 10.4488 2.66706 10.7888 2.24528 10.7888Z" fill="#E00000"/>
<path id="Vector_22" d="M47.2362 10.7888H45.7547C45.3329 10.7888 44.991 10.4488 44.991 10.0295V8.41197C44.991 7.99257 45.3329 7.65258 45.7547 7.65258H47.2362C47.658 7.65258 48 7.99257 48 8.41197V10.0295C48 10.4488 47.658 10.7888 47.2362 10.7888Z" fill="#E00000"/>
<path id="Vector_23" d="M2.24528 29.4384H0.763701C0.34192 29.4384 0 29.0984 0 28.679V27.0615C0 26.6421 0.34192 26.3021 0.763701 26.3021H2.24528C2.66706 26.3021 3.00898 26.6421 3.00898 27.0615V28.679C3.00898 29.0984 2.66706 29.4384 2.24528 29.4384Z" fill="#E00000"/>
<path id="Vector_24" d="M47.2362 29.4384H45.7547C45.3329 29.4384 44.991 29.0984 44.991 28.679V27.0615C44.991 26.6421 45.3329 26.3021 45.7547 26.3021H47.2362C47.658 26.3021 48 26.6421 48 27.0615V28.679C48 29.0984 47.658 29.4384 47.2362 29.4384Z" fill="#E00000"/>
<path id="Vector_25" d="M20.9916 3.32903H19.51C19.0883 3.32903 18.7463 2.98904 18.7463 2.56964V0.952161C18.7463 0.532766 19.0883 0.19278 19.51 0.19278H20.9916C21.4134 0.19278 21.7553 0.532766 21.7553 0.952161V2.56964C21.7553 2.98904 21.4134 3.32903 20.9916 3.32903Z" fill="#E00000"/>
<path id="Vector_26" d="M39.7377 3.32903H38.2561C37.8344 3.32903 37.4924 2.98904 37.4924 2.56964V0.952161C37.4924 0.532766 37.8344 0.19278 38.2561 0.19278H39.7377C40.1595 0.19278 40.5014 0.532766 40.5014 0.952161V2.56964C40.5014 2.98904 40.1595 3.32903 39.7377 3.32903Z" fill="#E00000"/>
<path id="Vector_27" d="M39.7377 18.2852H38.2561C37.8344 18.2852 37.4924 17.9453 37.4924 17.5259V15.9084C37.4924 15.489 37.8344 15.149 38.2561 15.149H39.7377C40.1595 15.149 40.5014 15.489 40.5014 15.9084V17.5259C40.5014 17.9453 40.1595 18.2852 39.7377 18.2852Z" fill="#E00000"/>
<path id="Vector_28" d="M17.2424 3.32903H15.7608C15.339 3.32903 14.9971 2.98904 14.9971 2.56964V0.952161C14.9971 0.532766 15.339 0.19278 15.7608 0.19278H17.2424C17.6641 0.19278 18.0061 0.532766 18.0061 0.952161V2.56964C18.0061 2.98904 17.6641 3.32903 17.2424 3.32903Z" fill="#E00000"/>
<path id="Vector_29" d="M35.9884 3.32903H34.5069C34.0851 3.32903 33.7432 2.98904 33.7432 2.56964V0.952161C33.7432 0.532766 34.0851 0.19278 34.5069 0.19278H35.9884C36.4102 0.19278 36.7521 0.532766 36.7521 0.952161V2.56964C36.7521 2.98904 36.4102 3.32903 35.9884 3.32903Z" fill="#E00000"/>
<path id="Vector_30" d="M17.2424 21.9785H15.7608C15.339 21.9785 14.9971 21.6386 14.9971 21.2192V19.6017C14.9971 19.1823 15.339 18.8423 15.7608 18.8423H17.2424C17.6641 18.8423 18.0061 19.1823 18.0061 19.6017V21.2192C18.0061 21.6386 17.6641 21.9785 17.2424 21.9785Z" fill="#E00000"/>
<path id="Vector_31" d="M17.2424 18.2852H15.7608C15.339 18.2852 14.9971 17.9453 14.9971 17.5259V15.9084C14.9971 15.489 15.339 15.149 15.7608 15.149H17.2424C17.6641 15.149 18.0061 15.489 18.0061 15.9084V17.5259C18.0061 17.9453 17.6641 18.2852 17.2424 18.2852Z" fill="#E00000"/>
<path id="Vector_32" d="M35.9884 18.2852H34.5069C34.0851 18.2852 33.7432 17.9453 33.7432 17.5259V15.9084C33.7432 15.489 34.0851 15.149 34.5069 15.149H35.9884C36.4102 15.149 36.7521 15.489 36.7521 15.9084V17.5259C36.7521 17.9453 36.4102 18.2852 35.9884 18.2852Z" fill="#E00000"/>
<path id="Vector_33" d="M2.24528 3.32903H0.763701C0.34192 3.32903 0 2.98904 0 2.56964V0.952161C0 0.532766 0.34192 0.19278 0.763701 0.19278H2.24528C2.66706 0.19278 3.00898 0.532766 3.00898 0.952161V2.56964C3.00898 2.98904 2.66706 3.32903 2.24528 3.32903Z" fill="#E00000"/>
<path id="Vector_34" d="M28.4902 3.32903H27.0086C26.5868 3.32903 26.2449 2.98904 26.2449 2.56964V0.952161C26.2449 0.532766 26.5868 0.19278 27.0086 0.19278H28.4902C28.9119 0.19278 29.2539 0.532766 29.2539 0.952161V2.56964C29.2539 2.98904 28.9119 3.32903 28.4902 3.32903Z" fill="#E00000"/>
<path id="Vector_35" d="M47.2362 3.32903H45.7547C45.3329 3.32903 44.991 2.98904 44.991 2.56964V0.952161C44.991 0.532766 45.3329 0.19278 45.7547 0.19278H47.2362C47.658 0.19278 48 0.532766 48 0.952161V2.56964C48 2.98904 47.658 3.32903 47.2362 3.32903Z" fill="#E00000"/>
<path id="Vector_36" d="M2.24528 21.9785H0.763701C0.34192 21.9785 0 21.6386 0 21.2192V19.6017C0 19.1823 0.34192 18.8423 0.763701 18.8423H2.24528C2.66706 18.8423 3.00898 19.1823 3.00898 19.6017V21.2192C3.00898 21.6386 2.66706 21.9785 2.24528 21.9785Z" fill="#E00000"/>
<path id="Vector_37" d="M2.24528 18.2852H0.763701C0.34192 18.2852 0 17.9453 0 17.5259V15.9084C0 15.489 0.34192 15.149 0.763701 15.149H2.24528C2.66706 15.149 3.00898 15.489 3.00898 15.9084V17.5259C3.00898 17.9453 2.66706 18.2852 2.24528 18.2852Z" fill="#E00000"/>
<path id="Vector_38" d="M47.2362 21.9785H45.7547C45.3329 21.9785 44.991 21.6386 44.991 21.2192V19.6017C44.991 19.1823 45.3329 18.8423 45.7547 18.8423H47.2362C47.658 18.8423 48 19.1823 48 19.6017V21.2192C48 21.6386 47.658 21.9785 47.2362 21.9785Z" fill="#E00000"/>
<path id="Vector_39" d="M47.2362 18.2852H45.7547C45.3329 18.2852 44.991 17.9453 44.991 17.5259V15.9084C44.991 15.489 45.3329 15.149 45.7547 15.149H47.2362C47.658 15.149 48 15.489 48 15.9084V17.5259C48 17.9453 47.658 18.2852 47.2362 18.2852Z" fill="#E00000"/>
<path id="Vector_40" d="M24.7643 33.1367H23.2827C22.861 33.1367 22.519 32.7967 22.519 32.3773V30.7598C22.519 30.3404 22.861 30.0004 23.2827 30.0004H24.7643C25.1861 30.0004 25.528 30.3404 25.528 30.7598V32.3773C25.528 32.7967 25.1861 33.1367 24.7643 33.1367Z" fill="#E00000"/>
<path id="Vector_41" d="M43.5104 33.1367H42.0288C41.6071 33.1367 41.2651 32.7967 41.2651 32.3773V30.7598C41.2651 30.3404 41.6071 30.0004 42.0288 30.0004H43.5104C43.9322 30.0004 44.2741 30.3404 44.2741 30.7598V32.3773C44.2741 32.7967 43.9322 33.1367 43.5104 33.1367Z" fill="#E00000"/>
<path id="Vector_42" d="M32.2626 14.4872H30.781C30.3593 14.4872 30.0173 14.1472 30.0173 13.7278V12.1103C30.0173 11.6909 30.3593 11.3509 30.781 11.3509H32.2626C32.6844 11.3509 33.0263 11.6909 33.0263 12.1103V13.7278C33.0263 14.1472 32.6844 14.4872 32.2626 14.4872Z" fill="#E00000"/>
<path id="Vector_43" d="M32.2626 33.1367H30.781C30.3593 33.1367 30.0173 32.7967 30.0173 32.3773V30.7598C30.0173 30.3404 30.3593 30.0004 30.781 30.0004H32.2626C32.6844 30.0004 33.0263 30.3404 33.0263 30.7598V32.3773C33.0263 32.7967 32.6844 33.1367 32.2626 33.1367Z" fill="#E00000"/>
<path id="Vector_44" d="M24.7643 40.5965H23.2827C22.861 40.5965 22.519 40.2565 22.519 39.8371V38.2196C22.519 37.8002 22.861 37.4602 23.2827 37.4602H24.7643C25.1861 37.4602 25.528 37.8002 25.528 38.2196V39.8371C25.528 40.2565 25.1861 40.5965 24.7643 40.5965Z" fill="#E00000"/>
<path id="Vector_45" d="M43.5104 25.6768H42.0288C41.6071 25.6768 41.2651 25.3369 41.2651 24.9175V23.3C41.2651 22.8806 41.6071 22.5406 42.0288 22.5406H43.5104C43.9322 22.5406 44.2741 22.8806 44.2741 23.3V24.9175C44.2741 25.3369 43.9322 25.6768 43.5104 25.6768Z" fill="#E00000"/>
<path id="Vector_46" d="M32.2626 40.5965H30.781C30.3593 40.5965 30.0173 40.2565 30.0173 39.8371V38.2196C30.0173 37.8002 30.3593 37.4602 30.781 37.4602H32.2626C32.6844 37.4602 33.0263 37.8002 33.0263 38.2196V39.8371C33.0263 40.2565 32.6844 40.5965 32.2626 40.5965Z" fill="#E00000"/>
<path id="Vector_47" d="M32.2626 7.02733H30.781C30.3593 7.02733 30.0173 6.68734 30.0173 6.26795V4.65046C30.0173 4.23107 30.3593 3.89108 30.781 3.89108H32.2626C32.6844 3.89108 33.0263 4.23107 33.0263 4.65046V6.26795C33.0263 6.68734 32.6844 7.02733 32.2626 7.02733Z" fill="#E00000"/>
<path id="Vector_48" d="M32.2626 25.6768H30.781C30.3593 25.6768 30.0173 25.3369 30.0173 24.9175V23.3C30.0173 22.8806 30.3593 22.5406 30.781 22.5406H32.2626C32.6844 22.5406 33.0263 22.8806 33.0263 23.3V24.9175C33.0263 25.3369 32.6844 25.6768 32.2626 25.6768Z" fill="#E00000"/>
<path id="Vector_49" d="M24.7643 44.2897H23.2827C22.861 44.2897 22.519 43.9497 22.519 43.5303V41.9128C22.519 41.4934 22.861 41.1534 23.2827 41.1534H24.7643C25.1861 41.1534 25.528 41.4934 25.528 41.9128V43.5303C25.528 43.9497 25.1861 44.2897 24.7643 44.2897Z" fill="#E00000"/>
<path id="Vector_50" d="M43.5104 10.7205H42.0288C41.6071 10.7205 41.2651 10.3805 41.2651 9.96115V8.34367C41.2651 7.92427 41.6071 7.58429 42.0288 7.58429H43.5104C43.9322 7.58429 44.2741 7.92427 44.2741 8.34367V9.96115C44.2741 10.3805 43.9322 10.7205 43.5104 10.7205Z" fill="#E00000"/>
<path id="Vector_51" d="M32.2626 44.2897H30.781C30.3593 44.2897 30.0173 43.9497 30.0173 43.5303V41.9128C30.0173 41.4934 30.3593 41.1534 30.781 41.1534H32.2626C32.6844 41.1534 33.0263 41.4934 33.0263 41.9128V43.5303C33.0263 43.9497 32.6844 44.2897 32.2626 44.2897Z" fill="#E00000"/>
<path id="Vector_52" d="M32.2626 10.7205H30.781C30.3593 10.7205 30.0173 10.3805 30.0173 9.96115V8.34367C30.0173 7.92427 30.3593 7.58429 30.781 7.58429H32.2626C32.6844 7.58429 33.0263 7.92427 33.0263 8.34367V9.96115C33.0263 10.3805 32.6844 10.7205 32.2626 10.7205Z" fill="#E00000"/>
<path id="Vector_53" d="M13.5165 29.3701H12.0349C11.6132 29.3701 11.2712 29.0301 11.2712 28.6107V26.9932C11.2712 26.5738 11.6132 26.2338 12.0349 26.2338H13.5165C13.9383 26.2338 14.2802 26.5738 14.2802 26.9932V28.6107C14.2802 29.0301 13.9383 29.3701 13.5165 29.3701Z" fill="#E00000"/>
<path id="Vector_54" d="M9.74382 29.475H8.26224C7.84046 29.475 7.49854 29.135 7.49854 28.7156V27.0981C7.49854 26.6787 7.84046 26.3387 8.26224 26.3387H9.74382C10.1656 26.3387 10.5075 26.6787 10.5075 27.0981V28.7156C10.5075 29.135 10.1656 29.475 9.74382 29.475Z" fill="#E00000"/>
<path id="Vector_55" d="M5.99455 29.475H4.51297C4.09119 29.475 3.74927 29.135 3.74927 28.7156V27.0981C3.74927 26.6787 4.09119 26.3387 4.51297 26.3387H5.99455C6.41633 26.3387 6.75825 26.6787 6.75825 27.0981V28.7156C6.75825 29.135 6.41633 29.475 5.99455 29.475Z" fill="#E00000"/>
<path id="Vector_56" d="M32.2626 29.3701H30.781C30.3593 29.3701 30.0173 29.0301 30.0173 28.6107V26.9932C30.0173 26.5738 30.3593 26.2338 30.781 26.2338H32.2626C32.6844 26.2338 33.0263 26.5738 33.0263 26.9932V28.6107C33.0263 29.0301 32.6844 29.3701 32.2626 29.3701Z" fill="#E00000"/>
<path id="Vector_57" d="M24.7643 36.8299H23.2827C22.861 36.8299 22.519 36.4899 22.519 36.0705V34.453C22.519 34.0336 22.861 33.6936 23.2827 33.6936H24.7643C25.1861 33.6936 25.528 34.0336 25.528 34.453V36.0705C25.528 36.4899 25.1861 36.8299 24.7643 36.8299Z" fill="#E00000"/>
<path id="Vector_58" d="M24.7643 3.26073H23.2827C22.861 3.26073 22.519 2.92074 22.519 2.50135V0.883862C22.519 0.464468 22.861 0.124481 23.2827 0.124481H24.7643C25.1861 0.124481 25.528 0.464468 25.528 0.883862V2.50135C25.528 2.92074 25.1861 3.26073 24.7643 3.26073Z" fill="#E00000"/>
<path id="Vector_59" d="M43.5104 3.26073H42.0288C41.6071 3.26073 41.2651 2.92074 41.2651 2.50135V0.883862C41.2651 0.464468 41.6071 0.124481 42.0288 0.124481H43.5104C43.9322 0.124481 44.2741 0.464468 44.2741 0.883862V2.50135C44.2741 2.92074 43.9322 3.26073 43.5104 3.26073Z" fill="#E00000"/>
<path id="Vector_60" d="M43.5104 18.2169H42.0288C41.6071 18.2169 41.2651 17.877 41.2651 17.4576V15.8401C41.2651 15.4207 41.6071 15.0807 42.0288 15.0807H43.5104C43.9322 15.0807 44.2741 15.4207 44.2741 15.8401V17.4576C44.2741 17.877 43.9322 18.2169 43.5104 18.2169Z" fill="#E00000"/>
<path id="Vector_61" d="M13.5165 3.26073H12.0349C11.6132 3.26073 11.2712 2.92074 11.2712 2.50135V0.883862C11.2712 0.464468 11.6132 0.124481 12.0349 0.124481H13.5165C13.9383 0.124481 14.2802 0.464468 14.2802 0.883862V2.50135C14.2802 2.92074 13.9383 3.26073 13.5165 3.26073Z" fill="#E00000"/>
<path id="Vector_62" d="M9.74382 3.36563H8.26224C7.84046 3.36563 7.49854 3.02564 7.49854 2.60625V0.988767C7.49854 0.569372 7.84046 0.229385 8.26224 0.229385H9.74382C10.1656 0.229385 10.5075 0.569372 10.5075 0.988767V2.60625C10.5075 3.02564 10.1656 3.36563 9.74382 3.36563Z" fill="#E00000"/>
<path id="Vector_63" d="M5.99455 3.36563H4.51297C4.09119 3.36563 3.74927 3.02564 3.74927 2.60625V0.988767C3.74927 0.569372 4.09119 0.229385 4.51297 0.229385H5.99455C6.41633 0.229385 6.75825 0.569372 6.75825 0.988767V2.60625C6.75825 3.02564 6.41633 3.36563 5.99455 3.36563Z" fill="#E00000"/>
<path id="Vector_64" d="M32.2626 36.8299H30.781C30.3593 36.8299 30.0173 36.4899 30.0173 36.0705V34.453C30.0173 34.0336 30.3593 33.6936 30.781 33.6936H32.2626C32.6844 33.6936 33.0263 34.0336 33.0263 34.453V36.0705C33.0263 36.4899 32.6844 36.8299 32.2626 36.8299Z" fill="#E00000"/>
<path id="Vector_65" d="M32.2626 3.26073H30.781C30.3593 3.26073 30.0173 2.92074 30.0173 2.50135V0.883862C30.0173 0.464468 30.3593 0.124481 30.781 0.124481H32.2626C32.6844 0.124481 33.0263 0.464468 33.0263 0.883862V2.50135C33.0263 2.92074 32.6844 3.26073 32.2626 3.26073Z" fill="#E00000"/>
<path id="Vector_66" d="M32.2626 21.9102H30.781C30.3593 21.9102 30.0173 21.5703 30.0173 21.1509V19.5334C30.0173 19.114 30.3593 18.774 30.781 18.774H32.2626C32.6844 18.774 33.0263 19.114 33.0263 19.5334V21.1509C33.0263 21.5703 32.6844 21.9102 32.2626 21.9102Z" fill="#E00000"/>
<path id="Vector_67" d="M32.2626 18.2169H30.781C30.3593 18.2169 30.0173 17.877 30.0173 17.4576V15.8401C30.0173 15.4207 30.3593 15.0807 30.781 15.0807H32.2626C32.6844 15.0807 33.0263 15.4207 33.0263 15.8401V17.4576C33.0263 17.877 32.6844 18.2169 32.2626 18.2169Z" fill="#E00000"/>
</g>
</svg>
