<svg width="32" height="34" viewBox="0 0 32 34" fill="none" xmlns="http://www.w3.org/2000/svg">
<mask id="mask0_7118_1335" style="mask-type:alpha" maskUnits="userSpaceOnUse" x="6" y="13" width="21" height="21">
<rect x="6.1543" y="13.3345" width="19.9385" height="19.8706" fill="#D9D9D9"/>
</mask>
<g mask="url(#mask0_7118_1335)">
<path d="M19.4491 22.4412C19.6845 22.4412 19.8818 22.3619 20.0411 22.2032C20.2003 22.0445 20.2799 21.8479 20.2799 21.6133C20.2799 21.3787 20.2003 21.1821 20.0411 21.0234C19.8818 20.8647 19.6845 20.7853 19.4491 20.7853C19.2137 20.7853 19.0164 20.8647 18.8572 21.0234C18.698 21.1821 18.6184 21.3787 18.6184 21.6133C18.6184 21.8479 18.698 22.0445 18.8572 22.2032C19.0164 22.3619 19.2137 22.4412 19.4491 22.4412ZM12.803 20.7853H16.9568V19.1295H12.803V20.7853ZM9.89528 30.7206C9.42451 29.1475 8.96067 27.5779 8.50374 26.0117C8.04682 24.4455 7.81836 22.8414 7.81836 21.1993C7.81836 19.9298 8.26144 18.8535 9.14759 17.9703C10.0337 17.0872 11.1137 16.6456 12.3876 16.6456H16.5414C16.943 16.1213 17.4311 15.7142 18.0057 15.4244C18.5803 15.1346 19.1999 14.9897 19.8645 14.9897C20.2107 14.9897 20.5049 15.1105 20.7472 15.352C20.9895 15.5935 21.1107 15.8867 21.1107 16.2317C21.1107 16.3007 21.0761 16.4593 21.0068 16.7077C20.9514 16.8595 20.8995 17.0148 20.8511 17.1734C20.8026 17.3321 20.7645 17.4943 20.7368 17.6599L22.6268 19.5434H24.4337V25.3183L22.0868 26.0842L20.6953 30.7206H16.1261V29.0647H14.4645V30.7206H9.89528Z" fill="#FF5C00"/>
</g>
<mask id="mask1_7118_1335" style="mask-type:alpha" maskUnits="userSpaceOnUse" x="8" y="0" width="15" height="17">
<rect x="8.64453" y="0.916992" width="14.1231" height="15.7309" fill="#D9D9D9"/>
</mask>
<g mask="url(#mask1_7118_1335)">
<path d="M14.5642 15.6813V10.4377H12.7988V2.57227H18.6834L17.5065 7.16044H19.8604L14.5642 15.6813Z" fill="#FF5C00"/>
</g>
</svg>
