<svg width="25" height="20" viewBox="0 0 25 20" fill="none" xmlns="http://www.w3.org/2000/svg">
<g id="Twitter">
<path id="path2" d="M24.6088 2.36736C23.7034 2.76818 22.7318 3.04017 21.7101 3.16185C22.7533 2.53735 23.5531 1.54782 23.9289 0.368614C22.9537 0.946587 21.8729 1.36709 20.7224 1.59256C19.8009 0.611971 18.4893 0 17.0381 0C14.2503 0 11.9904 2.26 11.9904 5.04966C11.9904 5.44332 12.0351 5.82804 12.121 6.19844C7.92321 5.9873 4.20496 3.97602 1.71419 0.923325C1.28117 1.67129 1.03066 2.53735 1.03066 3.46068C1.03066 5.21249 1.92176 6.75852 3.27629 7.66395C2.44782 7.63711 1.66946 7.40986 0.989509 7.0323V7.09672C0.989509 9.54281 2.72875 11.5827 5.03879 12.048C4.61472 12.1625 4.16917 12.2233 3.70931 12.2233C3.38365 12.2233 3.06694 12.1929 2.75917 12.1338C3.40154 14.138 5.26604 15.5999 7.47588 15.6393C5.74737 16.9938 3.56974 17.8008 1.20602 17.8008C0.798048 17.8008 0.397234 17.7776 0 17.7311C2.23489 19.1644 4.88849 20 7.73712 20C17.0256 20 22.102 12.3074 22.102 5.63479C22.102 5.41827 22.0966 5.19996 22.0877 4.98166C23.0736 4.26769 23.9307 3.38016 24.6053 2.36915V2.36557L24.6088 2.36736Z" fill="white"/>
</g>
</svg>
