<svg width="31" height="25" viewBox="0 0 31 25" fill="none" xmlns="http://www.w3.org/2000/svg">
<g id="Twitter">
<path id="path2" d="M30.761 2.9592C29.6293 3.46023 28.4148 3.80021 27.1376 3.95231C28.4416 3.17169 29.4414 1.93478 29.9111 0.460768C28.6921 1.18323 27.3412 1.70887 25.903 1.9907C24.7511 0.764964 23.1116 0 21.2977 0C17.8129 0 14.988 2.825 14.988 6.31207C14.988 6.80415 15.0439 7.28505 15.1513 7.74805C9.90402 7.48412 5.2562 4.97003 2.14274 1.15416C1.60146 2.08911 1.28833 3.17169 1.28833 4.32585C1.28833 6.51561 2.4022 8.44815 4.09536 9.57994C3.05978 9.54639 2.08682 9.26232 1.23689 8.79037V8.87089C1.23689 11.9285 3.41094 14.4784 6.29849 15.0599C5.7684 15.2031 5.21146 15.2791 4.63664 15.2791C4.22956 15.2791 3.83367 15.2411 3.44896 15.1673C4.25193 17.6725 6.58255 19.4999 9.34485 19.5491C7.18422 21.2423 4.46218 22.2511 1.50752 22.2511C0.99756 22.2511 0.496543 22.222 0 22.1638C2.79361 23.9554 6.11061 25 9.6714 25C21.282 25 27.6275 15.3843 27.6275 7.04348C27.6275 6.77284 27.6207 6.49996 27.6096 6.22707C28.842 5.33462 29.9133 4.22519 30.7566 2.96144V2.95697L30.761 2.9592Z" fill="#28468A"/>
</g>
</svg>
