<svg width="60" height="59" viewBox="0 0 60 59" fill="none" xmlns="http://www.w3.org/2000/svg">
<g id="visibility_off">
<mask id="mask0_547_7260" style="mask-type:alpha" maskUnits="userSpaceOnUse" x="0" y="0" width="60" height="60">
<rect id="Bounding box" width="60" height="60" fill="#D9D9D9"/>
</mask>
<g mask="url(#mask0_547_7260)">
<path id="visibility_off_2" d="M40.25 33.25L36.625 29.625C37 27.6667 36.4375 25.8333 34.9375 24.125C33.4375 22.4167 31.5 21.75 29.125 22.125L25.5 18.5C26.2083 18.1667 26.9271 17.9167 27.6562 17.75C28.3854 17.5833 29.1667 17.5 30 17.5C33.125 17.5 35.7812 18.5938 37.9687 20.7813C40.1562 22.9688 41.25 25.625 41.25 28.75C41.25 29.5833 41.1667 30.3646 41 31.0938C40.8333 31.8229 40.5833 32.5417 40.25 33.25ZM48.25 41.125L44.625 37.625C46.2083 36.4167 47.6146 35.0938 48.8437 33.6563C50.0729 32.2188 51.125 30.5833 52 28.75C49.9167 24.5417 46.9271 21.1979 43.0312 18.7188C39.1354 16.2396 34.7917 15 30 15C28.7917 15 27.6042 15.0833 26.4375 15.25C25.2708 15.4167 24.125 15.6667 23 16L19.125 12.125C20.8333 11.4167 22.5833 10.8854 24.375 10.5313C26.1667 10.1771 28.0417 10 30 10C36.2917 10 41.8958 11.7396 46.8125 15.2188C51.7292 18.6979 55.2917 23.2083 57.5 28.75C56.5417 31.2083 55.2812 33.4896 53.7187 35.5938C52.1562 37.6979 50.3333 39.5417 48.25 41.125ZM49.5 56.5L39 46.125C37.5417 46.5833 36.0729 46.9271 34.5938 47.1563C33.1146 47.3854 31.5833 47.5 30 47.5C23.7083 47.5 18.1042 45.7604 13.1875 42.2813C8.27083 38.8021 4.70833 34.2917 2.5 28.75C3.375 26.5417 4.47917 24.4896 5.8125 22.5938C7.14583 20.6979 8.66667 19 10.375 17.5L3.5 10.5L7 7L53 53L49.5 56.5ZM13.875 21C12.6667 22.0833 11.5625 23.2708 10.5625 24.5625C9.5625 25.8542 8.70833 27.25 8 28.75C10.0833 32.9583 13.0729 36.3021 16.9687 38.7813C20.8646 41.2604 25.2083 42.5 30 42.5C30.8333 42.5 31.6458 42.4479 32.4375 42.3438C33.2292 42.2396 34.0417 42.125 34.875 42L32.625 39.625C32.1667 39.75 31.7292 39.8438 31.3125 39.9063C30.8958 39.9688 30.4583 40 30 40C26.875 40 24.2187 38.9063 22.0312 36.7188C19.8437 34.5313 18.75 31.875 18.75 28.75C18.75 28.2917 18.7812 27.8542 18.8437 27.4375C18.9062 27.0208 19 26.5833 19.125 26.125L13.875 21Z" fill="#FF5C00"/>
</g>
</g>
</svg>
