<svg width="60" height="60" viewBox="0 0 60 60" fill="none" xmlns="http://www.w3.org/2000/svg">
<g id="visibility_off">
<mask id="mask0_1128_1857" style="mask-type:alpha" maskUnits="userSpaceOnUse" x="0" y="0" width="60" height="61">
<rect id="Bounding box" y="0.775391" width="60" height="60" fill="#D9D9D9"/>
</mask>
<g mask="url(#mask0_1128_1857)">
<path id="visibility_off_2" d="M40.25 34.0249L36.625 30.3999C37 28.4416 36.4375 26.6082 34.9375 24.8999C33.4375 23.1916 31.5 22.5249 29.125 22.8999L25.5 19.2749C26.2083 18.9416 26.9271 18.6916 27.6562 18.5249C28.3854 18.3582 29.1667 18.2749 30 18.2749C33.125 18.2749 35.7812 19.3687 37.9687 21.5562C40.1562 23.7437 41.25 26.3999 41.25 29.5249C41.25 30.3582 41.1667 31.1395 41 31.8687C40.8333 32.5978 40.5833 33.3166 40.25 34.0249ZM48.25 41.8999L44.625 38.3999C46.2083 37.1916 47.6146 35.8687 48.8437 34.4312C50.0729 32.9937 51.125 31.3582 52 29.5249C49.9167 25.3166 46.9271 21.9728 43.0312 19.4937C39.1354 17.0145 34.7917 15.7749 30 15.7749C28.7917 15.7749 27.6042 15.8582 26.4375 16.0249C25.2708 16.1916 24.125 16.4416 23 16.7749L19.125 12.8999C20.8333 12.1916 22.5833 11.6603 24.375 11.3062C26.1667 10.952 28.0417 10.7749 30 10.7749C36.2917 10.7749 41.8958 12.5145 46.8125 15.9937C51.7292 19.4728 55.2917 23.9832 57.5 29.5249C56.5417 31.9832 55.2812 34.2645 53.7187 36.3687C52.1562 38.4728 50.3333 40.3166 48.25 41.8999ZM49.5 57.2749L39 46.8999C37.5417 47.3582 36.0729 47.702 34.5938 47.9312C33.1146 48.1603 31.5833 48.2749 30 48.2749C23.7083 48.2749 18.1042 46.5353 13.1875 43.0562C8.27083 39.577 4.70833 35.0666 2.5 29.5249C3.375 27.3166 4.47917 25.2645 5.8125 23.3687C7.14583 21.4728 8.66667 19.7749 10.375 18.2749L3.5 11.2749L7 7.7749L53 53.7749L49.5 57.2749ZM13.875 21.7749C12.6667 22.8582 11.5625 24.0457 10.5625 25.3374C9.5625 26.6291 8.70833 28.0249 8 29.5249C10.0833 33.7332 13.0729 37.077 16.9687 39.5562C20.8646 42.0353 25.2083 43.2749 30 43.2749C30.8333 43.2749 31.6458 43.2228 32.4375 43.1187C33.2292 43.0145 34.0417 42.8999 34.875 42.7749L32.625 40.3999C32.1667 40.5249 31.7292 40.6187 31.3125 40.6812C30.8958 40.7437 30.4583 40.7749 30 40.7749C26.875 40.7749 24.2187 39.6812 22.0312 37.4937C19.8437 35.3062 18.75 32.6499 18.75 29.5249C18.75 29.0666 18.7812 28.6291 18.8437 28.2124C18.9062 27.7957 19 27.3582 19.125 26.8999L13.875 21.7749Z" fill="#F39324"/>
</g>
</g>
</svg>
