<svg width="94" height="80" viewBox="0 0 94 80" fill="none" xmlns="http://www.w3.org/2000/svg">
<g id="ICON WARNING">
<path id="Vector" d="M4.5893 18.6436H2.12548C1.42407 18.6436 0.855469 19.2119 0.855469 19.9129V22.6167C0.855469 23.3178 1.42407 23.8861 2.12548 23.8861H4.5893C5.29071 23.8861 5.85931 23.3178 5.85931 22.6167V19.9129C5.85931 19.2119 5.29071 18.6436 4.5893 18.6436Z" fill="#FF0000"/>
<path id="Vector_2" d="M48.2338 74.7573H45.77C45.0686 74.7573 44.5 75.3256 44.5 76.0267V78.7305C44.5 79.4315 45.0686 79.9999 45.77 79.9999H48.2338C48.9352 79.9999 49.5038 79.4315 49.5038 78.7305V76.0267C49.5038 75.3256 48.9352 74.7573 48.2338 74.7573Z" fill="#FF0000"/>
<path id="Vector_3" d="M4.5893 43.583H2.12548C1.42407 43.583 0.855469 44.1513 0.855469 44.8524V47.5562C0.855469 48.2572 1.42407 48.8255 2.12548 48.8255H4.5893C5.29071 48.8255 5.85931 48.2572 5.85931 47.5562V44.8524C5.85931 44.1513 5.29071 43.583 4.5893 43.583Z" fill="#FF0000"/>
<path id="Vector_4" d="M48.2338 18.6436H45.77C45.0686 18.6436 44.5 19.2119 44.5 19.9129V22.6167C44.5 23.3178 45.0686 23.8861 45.77 23.8861H48.2338C48.9352 23.8861 49.5038 23.3178 49.5038 22.6167V19.9129C49.5038 19.2119 48.9352 18.6436 48.2338 18.6436Z" fill="#FF0000"/>
<path id="Vector_5" d="M4.5893 31.1133H2.12548C1.42407 31.1133 0.855469 31.6816 0.855469 32.3827V35.0864C0.855469 35.7875 1.42407 36.3558 2.12548 36.3558H4.5893C5.29071 36.3558 5.85931 35.7875 5.85931 35.0864V32.3827C5.85931 31.6816 5.29071 31.1133 4.5893 31.1133Z" fill="#FF0000"/>
<path id="Vector_6" d="M4.5893 6.17383H2.12548C1.42407 6.17383 0.855469 6.74215 0.855469 7.44321V10.147C0.855469 10.848 1.42407 11.4164 2.12548 11.4164H4.5893C5.29071 11.4164 5.85931 10.848 5.85931 10.147V7.44321C5.85931 6.74215 5.29071 6.17383 4.5893 6.17383Z" fill="#FF0000"/>
<path id="Vector_7" d="M17.0581 62.2876H14.5942C13.8928 62.2876 13.3242 62.8559 13.3242 63.557V66.2608C13.3242 66.9618 13.8928 67.5301 14.5942 67.5301H17.0581C17.7595 67.5301 18.3281 66.9618 18.3281 66.2608V63.557C18.3281 62.8559 17.7595 62.2876 17.0581 62.2876Z" fill="#FF0000"/>
<path id="Vector_8" d="M10.8237 62.2266H8.35985C7.65845 62.2266 7.08984 62.7949 7.08984 63.4959V66.1997C7.08984 66.9008 7.65845 67.4691 8.35985 67.4691H10.8237C11.5251 67.4691 12.0937 66.9008 12.0937 66.1997V63.4959C12.0937 62.7949 11.5251 62.2266 10.8237 62.2266Z" fill="#FF0000"/>
<path id="Vector_9" d="M4.5893 62.2266H2.12548C1.42407 62.2266 0.855469 62.7949 0.855469 63.4959V66.1997C0.855469 66.9008 1.42407 67.4691 2.12548 67.4691H4.5893C5.29071 67.4691 5.85931 66.9008 5.85931 66.1997V63.4959C5.85931 62.7949 5.29071 62.2266 4.5893 62.2266Z" fill="#FF0000"/>
<path id="Vector_10" d="M91.8784 62.2266H89.4145C88.7131 62.2266 88.1445 62.7949 88.1445 63.4959V66.1997C88.1445 66.9008 88.7131 67.4691 89.4145 67.4691H91.8784C92.5798 67.4691 93.1484 66.9008 93.1484 66.1997V63.4959C93.1484 62.7949 92.5798 62.2266 91.8784 62.2266Z" fill="#FF0000"/>
<path id="Vector_11" d="M79.4096 62.2876H76.9458C76.2444 62.2876 75.6758 62.8559 75.6758 63.557V66.2608C75.6758 66.9618 76.2444 67.5301 76.9458 67.5301H79.4096C80.111 67.5301 80.6796 66.9618 80.6796 66.2608V63.557C80.6796 62.8559 80.111 62.2876 79.4096 62.2876Z" fill="#FF0000"/>
<path id="Vector_12" d="M48.2338 31.1133H45.77C45.0686 31.1133 44.5 31.6816 44.5 32.3827V35.0864C44.5 35.7875 45.0686 36.3558 45.77 36.3558H48.2338C48.9352 36.3558 49.5038 35.7875 49.5038 35.0864V32.3827C49.5038 31.6816 48.9352 31.1133 48.2338 31.1133Z" fill="#FF0000"/>
<path id="Vector_13" d="M73.1713 62.2876H70.7075C70.0061 62.2876 69.4375 62.8559 69.4375 63.557V66.2608C69.4375 66.9618 70.0061 67.5301 70.7075 67.5301H73.1713C73.8727 67.5301 74.4413 66.9618 74.4413 66.2608V63.557C74.4413 62.8559 73.8727 62.2876 73.1713 62.2876Z" fill="#FF0000"/>
<path id="Vector_14" d="M29.5307 62.2876H27.0669C26.3655 62.2876 25.7969 62.8559 25.7969 63.557V66.2608C25.7969 66.9618 26.3655 67.5301 27.0669 67.5301H29.5307C30.2321 67.5301 30.8007 66.9618 30.8007 66.2608V63.557C30.8007 62.8559 30.2321 62.2876 29.5307 62.2876Z" fill="#FF0000"/>
<path id="Vector_15" d="M60.7026 62.2876H58.2388C57.5374 62.2876 56.9688 62.8559 56.9688 63.557V66.2608C56.9688 66.9618 57.5374 67.5301 58.2388 67.5301H60.7026C61.404 67.5301 61.9726 66.9618 61.9726 66.2608V63.557C61.9726 62.8559 61.404 62.2876 60.7026 62.2876Z" fill="#FF0000"/>
<path id="Vector_16" d="M4.5893 24.9395H2.12548C1.42407 24.9395 0.855469 25.5078 0.855469 26.2088V28.9126C0.855469 29.6137 1.42407 30.182 2.12548 30.182H4.5893C5.29071 30.182 5.85931 29.6137 5.85931 28.9126V26.2088C5.85931 25.5078 5.29071 24.9395 4.5893 24.9395Z" fill="#FF0000"/>
<path id="Vector_17" d="M4.5893 49.8789H2.12548C1.42407 49.8789 0.855469 50.4472 0.855469 51.1483V53.8521C0.855469 54.5531 1.42407 55.1214 2.12548 55.1214H4.5893C5.29071 55.1214 5.85931 54.5531 5.85931 53.8521V51.1483C5.85931 50.4472 5.29071 49.8789 4.5893 49.8789Z" fill="#FF0000"/>
<path id="Vector_18" d="M17.0581 0.0610352H14.5942C13.8928 0.0610352 13.3242 0.629355 13.3242 1.33041V4.03419C13.3242 4.73525 13.8928 5.30357 14.5942 5.30357H17.0581C17.7595 5.30357 18.3281 4.73525 18.3281 4.03419V1.33041C18.3281 0.629355 17.7595 0.0610352 17.0581 0.0610352Z" fill="#FF0000"/>
<path id="Vector_19" d="M10.8237 0H8.35985C7.65845 0 7.08984 0.56832 7.08984 1.26938V3.97316C7.08984 4.67421 7.65845 5.24253 8.35985 5.24253H10.8237C11.5251 5.24253 12.0937 4.67421 12.0937 3.97316V1.26938C12.0937 0.56832 11.5251 0 10.8237 0Z" fill="#FF0000"/>
<path id="Vector_20" d="M4.5893 0H2.12548C1.42407 0 0.855469 0.56832 0.855469 1.26938V3.97316C0.855469 4.67421 1.42407 5.24253 2.12548 5.24253H4.5893C5.29071 5.24253 5.85931 4.67421 5.85931 3.97316V1.26938C5.85931 0.56832 5.29071 0 4.5893 0Z" fill="#FF0000"/>
<path id="Vector_21" d="M91.8784 0H89.4145C88.7131 0 88.1445 0.56832 88.1445 1.26938V3.97316C88.1445 4.67421 88.7131 5.24253 89.4145 5.24253H91.8784C92.5798 5.24253 93.1484 4.67421 93.1484 3.97316V1.26938C93.1484 0.56832 92.5798 0 91.8784 0Z" fill="#FF0000"/>
<path id="Vector_22" d="M4.5893 56.0527H2.12548C1.42407 56.0527 0.855469 56.6211 0.855469 57.3221V60.0259C0.855469 60.7269 1.42407 61.2953 2.12548 61.2953H4.5893C5.29071 61.2953 5.85931 60.7269 5.85931 60.0259V57.3221C5.85931 56.6211 5.29071 56.0527 4.5893 56.0527Z" fill="#FF0000"/>
<path id="Vector_23" d="M48.2338 0.0610352H45.77C45.0686 0.0610352 44.5 0.629355 44.5 1.33041V4.03419C44.5 4.73525 45.0686 5.30357 45.77 5.30357H48.2338C48.9352 5.30357 49.5038 4.73525 49.5038 4.03419V1.33041C49.5038 0.629355 48.9352 0.0610352 48.2338 0.0610352Z" fill="#FF0000"/>
<path id="Vector_24" d="M79.4096 0.0610352H76.9458C76.2444 0.0610352 75.6758 0.629355 75.6758 1.33041V4.03419C75.6758 4.73525 76.2444 5.30357 76.9458 5.30357H79.4096C80.111 5.30357 80.6796 4.73525 80.6796 4.03419V1.33041C80.6796 0.629355 80.111 0.0610352 79.4096 0.0610352Z" fill="#FF0000"/>
<path id="Vector_25" d="M48.2338 24.9395H45.77C45.0686 24.9395 44.5 25.5078 44.5 26.2088V28.9126C44.5 29.6137 45.0686 30.182 45.77 30.182H48.2338C48.9352 30.182 49.5038 29.6137 49.5038 28.9126V26.2088C49.5038 25.5078 48.9352 24.9395 48.2338 24.9395Z" fill="#FF0000"/>
<path id="Vector_26" d="M48.2338 49.8789H45.77C45.0686 49.8789 44.5 50.4472 44.5 51.1483V53.8521C44.5 54.5531 45.0686 55.1214 45.77 55.1214H48.2338C48.9352 55.1214 49.5038 54.5531 49.5038 53.8521V51.1483C49.5038 50.4472 48.9352 49.8789 48.2338 49.8789Z" fill="#FF0000"/>
<path id="Vector_27" d="M41.9995 0.0610352H39.5356C38.8342 0.0610352 38.2656 0.629355 38.2656 1.33041V4.03419C38.2656 4.73525 38.8342 5.30357 39.5356 5.30357H41.9995C42.7009 5.30357 43.2695 4.73525 43.2695 4.03419V1.33041C43.2695 0.629355 42.7009 0.0610352 41.9995 0.0610352Z" fill="#FF0000"/>
<path id="Vector_28" d="M73.1713 0.0610352H70.7075C70.0061 0.0610352 69.4375 0.629355 69.4375 1.33041V4.03419C69.4375 4.73525 70.0061 5.30357 70.7075 5.30357H73.1713C73.8727 5.30357 74.4413 4.73525 74.4413 4.03419V1.33041C74.4413 0.629355 73.8727 0.0610352 73.1713 0.0610352Z" fill="#FF0000"/>
<path id="Vector_29" d="M29.5307 0.0610352H27.0669C26.3655 0.0610352 25.7969 0.629355 25.7969 1.33041V4.03419C25.7969 4.73525 26.3655 5.30357 27.0669 5.30357H29.5307C30.2321 5.30357 30.8007 4.73525 30.8007 4.03419V1.33041C30.8007 0.629355 30.2321 0.0610352 29.5307 0.0610352Z" fill="#FF0000"/>
<path id="Vector_30" d="M60.7026 0.0610352H58.2388C57.5374 0.0610352 56.9688 0.629355 56.9688 1.33041V4.03419C56.9688 4.73525 57.5374 5.30357 58.2388 5.30357H60.7026C61.404 5.30357 61.9726 4.73525 61.9726 4.03419V1.33041C61.9726 0.629355 61.404 0.0610352 60.7026 0.0610352Z" fill="#FF0000"/>
<path id="Vector_31" d="M4.5893 37.4092H2.12548C1.42407 37.4092 0.855469 37.9775 0.855469 38.6786V41.3823C0.855469 42.0834 1.42407 42.6517 2.12548 42.6517H4.5893C5.29071 42.6517 5.85931 42.0834 5.85931 41.3823V38.6786C5.85931 37.9775 5.29071 37.4092 4.5893 37.4092Z" fill="#FF0000"/>
<path id="Vector_32" d="M4.5893 12.4697H2.12548C1.42407 12.4697 0.855469 13.038 0.855469 13.7391V16.4429C0.855469 17.1439 1.42407 17.7123 2.12548 17.7123H4.5893C5.29071 17.7123 5.85931 17.1439 5.85931 16.4429V13.7391C5.85931 13.038 5.29071 12.4697 4.5893 12.4697Z" fill="#FF0000"/>
<path id="Vector_33" d="M48.2338 37.4092H45.77C45.0686 37.4092 44.5 37.9775 44.5 38.6786V41.3823C44.5 42.0834 45.0686 42.6517 45.77 42.6517H48.2338C48.9352 42.6517 49.5038 42.0834 49.5038 41.3823V38.6786C49.5038 37.9775 48.9352 37.4092 48.2338 37.4092Z" fill="#FF0000"/>
<path id="Vector_34" d="M41.9995 68.584H39.5356C38.8342 68.584 38.2656 69.1523 38.2656 69.8534V72.5571C38.2656 73.2582 38.8342 73.8265 39.5356 73.8265H41.9995C42.7009 73.8265 43.2695 73.2582 43.2695 72.5571V69.8534C43.2695 69.1523 42.7009 68.584 41.9995 68.584Z" fill="#FF0000"/>
<path id="Vector_35" d="M91.8784 18.7046H89.4145C88.7131 18.7046 88.1445 19.2729 88.1445 19.974V22.6777C88.1445 23.3788 88.7131 23.9471 89.4145 23.9471H91.8784C92.5798 23.9471 93.1484 23.3788 93.1484 22.6777V19.974C93.1484 19.2729 92.5798 18.7046 91.8784 18.7046Z" fill="#FF0000"/>
<path id="Vector_36" d="M91.8784 43.644H89.4145C88.7131 43.644 88.1445 44.2124 88.1445 44.9134V47.6172C88.1445 48.3183 88.7131 48.8866 89.4145 48.8866H91.8784C92.5798 48.8866 93.1484 48.3183 93.1484 47.6172V44.9134C93.1484 44.2124 92.5798 43.644 91.8784 43.644Z" fill="#FF0000"/>
<path id="Vector_37" d="M23.3315 62.4019H20.8677C20.1663 62.4019 19.5977 62.9702 19.5977 63.6712V66.375C19.5977 67.0761 20.1663 67.6444 20.8677 67.6444H23.3315C24.0329 67.6444 24.6015 67.0761 24.6015 66.375V63.6712C24.6015 62.9702 24.0329 62.4019 23.3315 62.4019Z" fill="#FF0000"/>
<path id="Vector_38" d="M85.6831 62.4019H83.2192C82.5178 62.4019 81.9492 62.9702 81.9492 63.6712V66.375C81.9492 67.0761 82.5178 67.6444 83.2192 67.6444H85.6831C86.3845 67.6444 86.9531 67.0761 86.9531 66.375V63.6712C86.9531 62.9702 86.3845 62.4019 85.6831 62.4019Z" fill="#FF0000"/>
<path id="Vector_39" d="M91.8784 31.1743H89.4145C88.7131 31.1743 88.1445 31.7426 88.1445 32.4437V35.1475C88.1445 35.8485 88.7131 36.4169 89.4145 36.4169H91.8784C92.5798 36.4169 93.1484 35.8485 93.1484 35.1475V32.4437C93.1484 31.7426 92.5798 31.1743 91.8784 31.1743Z" fill="#FF0000"/>
<path id="Vector_40" d="M91.8784 6.23486H89.4145C88.7131 6.23486 88.1445 6.80318 88.1445 7.50424V10.208C88.1445 10.9091 88.7131 11.4774 89.4145 11.4774H91.8784C92.5798 11.4774 93.1484 10.9091 93.1484 10.208V7.50424C93.1484 6.80318 92.5798 6.23486 91.8784 6.23486Z" fill="#FF0000"/>
<path id="Vector_41" d="M35.8041 62.4019H33.3403C32.6389 62.4019 32.0703 62.9702 32.0703 63.6712V66.375C32.0703 67.0761 32.6389 67.6444 33.3403 67.6444H35.8041C36.5056 67.6444 37.0742 67.0761 37.0742 66.375V63.6712C37.0742 62.9702 36.5056 62.4019 35.8041 62.4019Z" fill="#FF0000"/>
<path id="Vector_42" d="M66.976 62.4019H64.5122C63.8108 62.4019 63.2422 62.9702 63.2422 63.6712V66.375C63.2422 67.0761 63.8108 67.6444 64.5122 67.6444H66.976C67.6774 67.6444 68.246 67.0761 68.246 66.375V63.6712C68.246 62.9702 67.6774 62.4019 66.976 62.4019Z" fill="#FF0000"/>
<path id="Vector_43" d="M23.3315 0.175293H20.8677C20.1663 0.175293 19.5977 0.743613 19.5977 1.44467V4.14845C19.5977 4.84951 20.1663 5.41783 20.8677 5.41783H23.3315C24.0329 5.41783 24.6015 4.84951 24.6015 4.14845V1.44467C24.6015 0.743613 24.0329 0.175293 23.3315 0.175293Z" fill="#FF0000"/>
<path id="Vector_44" d="M54.5073 0.175293H52.0434C51.342 0.175293 50.7734 0.743613 50.7734 1.44467V4.14845C50.7734 4.84951 51.342 5.41783 52.0434 5.41783H54.5073C55.2087 5.41783 55.7773 4.84951 55.7773 4.14845V1.44467C55.7773 0.743613 55.2087 0.175293 54.5073 0.175293Z" fill="#FF0000"/>
<path id="Vector_45" d="M85.6831 0.175293H83.2192C82.5178 0.175293 81.9492 0.743613 81.9492 1.44467V4.14845C81.9492 4.84951 82.5178 5.41783 83.2192 5.41783H85.6831C86.3845 5.41783 86.9531 4.84951 86.9531 4.14845V1.44467C86.9531 0.743613 86.3845 0.175293 85.6831 0.175293Z" fill="#FF0000"/>
<path id="Vector_46" d="M91.8784 25.001H89.4145C88.7131 25.001 88.1445 25.5693 88.1445 26.2704V28.9741C88.1445 29.6752 88.7131 30.2435 89.4145 30.2435H91.8784C92.5798 30.2435 93.1484 29.6752 93.1484 28.9741V26.2704C93.1484 25.5693 92.5798 25.001 91.8784 25.001Z" fill="#FF0000"/>
<path id="Vector_47" d="M91.8784 49.9404H89.4145C88.7131 49.9404 88.1445 50.5087 88.1445 51.2098V53.9136C88.1445 54.6146 88.7131 55.183 89.4145 55.183H91.8784C92.5798 55.183 93.1484 54.6146 93.1484 53.9136V51.2098C93.1484 50.5087 92.5798 49.9404 91.8784 49.9404Z" fill="#FF0000"/>
<path id="Vector_48" d="M35.8041 0.175293H33.3403C32.6389 0.175293 32.0703 0.743613 32.0703 1.44467V4.14845C32.0703 4.84951 32.6389 5.41783 33.3403 5.41783H35.8041C36.5056 5.41783 37.0742 4.84951 37.0742 4.14845V1.44467C37.0742 0.743613 36.5056 0.175293 35.8041 0.175293Z" fill="#FF0000"/>
<path id="Vector_49" d="M91.8784 56.1138H89.4145C88.7131 56.1138 88.1445 56.6821 88.1445 57.3831V60.0869C88.1445 60.788 88.7131 61.3563 89.4145 61.3563H91.8784C92.5798 61.3563 93.1484 60.788 93.1484 60.0869V57.3831C93.1484 56.6821 92.5798 56.1138 91.8784 56.1138Z" fill="#FF0000"/>
<path id="Vector_50" d="M66.976 0.175293H64.5122C63.8108 0.175293 63.2422 0.743613 63.2422 1.44467V4.14845C63.2422 4.84951 63.8108 5.41783 64.5122 5.41783H66.976C67.6774 5.41783 68.246 4.84951 68.246 4.14845V1.44467C68.246 0.743613 67.6774 0.175293 66.976 0.175293Z" fill="#FF0000"/>
<path id="Vector_51" d="M54.5073 68.6978H52.0434C51.342 68.6978 50.7734 69.2661 50.7734 69.9671V72.6709C50.7734 73.372 51.342 73.9403 52.0434 73.9403H54.5073C55.2087 73.9403 55.7773 73.372 55.7773 72.6709V69.9671C55.7773 69.2661 55.2087 68.6978 54.5073 68.6978Z" fill="#FF0000"/>
<path id="Vector_52" d="M91.8784 37.4707H89.4145C88.7131 37.4707 88.1445 38.039 88.1445 38.7401V41.4439C88.1445 42.1449 88.7131 42.7132 89.4145 42.7132H91.8784C92.5798 42.7132 93.1484 42.1449 93.1484 41.4439V38.7401C93.1484 38.039 92.5798 37.4707 91.8784 37.4707Z" fill="#FF0000"/>
<path id="Vector_53" d="M91.8784 12.5308H89.4145C88.7131 12.5308 88.1445 13.0991 88.1445 13.8001V16.5039C88.1445 17.205 88.7131 17.7733 89.4145 17.7733H91.8784C92.5798 17.7733 93.1484 17.205 93.1484 16.5039V13.8001C93.1484 13.0991 92.5798 12.5308 91.8784 12.5308Z" fill="#FF0000"/>
</g>
</svg>
