<svg width="20" height="20" viewBox="0 0 20 20" fill="none" xmlns="http://www.w3.org/2000/svg">
<g id="web icon">
<path id="path20" d="M15.7385 14.5676C15.3188 14.4598 14.8781 14.3643 14.4198 14.2818C14.5566 13.6779 14.6645 13.0449 14.7406 12.3954C14.8186 11.7304 14.8636 11.0459 14.8751 10.3556H19.1777C19.112 12.0953 18.5651 13.7515 17.5828 15.1838C17.043 14.9508 16.4242 14.7441 15.7385 14.5676ZM5.1248 10.3556C5.13633 11.0459 5.18143 11.7304 5.25941 12.3954C5.3355 13.0449 5.44332 13.6779 5.58016 14.2818C5.12184 14.3643 4.68123 14.4598 4.26172 14.5676C3.57587 14.7441 2.95714 14.9508 2.41712 15.1838C1.43498 13.7516 0.887891 12.0953 0.822243 10.3556H5.1248ZM4.27005 5.41638C4.68832 5.52363 5.12745 5.61869 5.5842 5.70075C5.44785 6.29905 5.3402 6.92629 5.26354 7.56977C5.18703 8.21227 5.14129 8.87331 5.12686 9.54019H0.826842C0.910397 7.83268 1.45869 6.20838 2.42675 4.80231C2.96669 5.03452 3.58502 5.24056 4.27005 5.41638ZM10.4077 9.54019V6.07107C11.3076 6.05791 12.1922 6.00152 13.0424 5.90273C13.2334 5.88047 13.4223 5.85625 13.6088 5.82993C13.8745 6.9791 14.0279 8.24932 14.0575 9.54019H10.4077ZM13.0459 14.0796C12.1946 13.9805 11.309 13.9239 10.4077 13.9108V10.3556H14.0596C14.0362 11.6756 13.8833 12.9766 13.6129 14.1525C13.4262 14.1262 13.2372 14.1018 13.0459 14.0796ZM10.4077 19.1353V14.7264C11.2773 14.7394 12.1312 14.7942 12.9517 14.8896C13.1049 14.9074 13.2565 14.9267 13.4068 14.9473C13.0567 16.1555 12.5831 17.1744 12.0237 17.9172C11.6584 18.4021 11.1017 18.9678 10.4077 19.1353ZM7.04855 14.8896C7.86876 14.7942 8.72269 14.7394 9.59227 14.7264V19.1354C8.89826 18.9678 8.34159 18.4022 7.97633 17.9172C7.41694 17.1744 6.94328 16.1555 6.5931 14.9473C6.74346 14.9267 6.8953 14.9074 7.04855 14.8896ZM9.59227 10.3556V13.9108C8.69103 13.9239 7.80545 13.9806 6.95432 14.0796C6.76291 14.1018 6.57382 14.1262 6.38709 14.1525C6.11672 12.9766 5.96381 11.6756 5.94047 10.3556H9.59227ZM6.9577 5.90273C7.80792 6.00152 8.69235 6.05791 9.59227 6.07107V9.54019H5.94254C5.97205 8.24932 6.12554 6.9791 6.39122 5.82993C6.57777 5.85625 6.76662 5.88047 6.9577 5.90273ZM9.59227 0.864721V5.25551C8.72392 5.24251 7.87115 5.18791 7.05176 5.09269C6.89916 5.07498 6.748 5.0558 6.59829 5.03516C6.94871 3.83189 7.4218 2.81743 7.98004 2.07791C8.34448 1.59514 8.89991 1.03193 9.59227 0.864721ZM10.4077 0.864721C11.1 1.03176 11.6555 1.59497 12.0199 2.07791C12.5781 2.81743 13.0513 3.83189 13.4018 5.03533C13.2521 5.0558 13.1009 5.07498 12.9483 5.09269C12.129 5.18791 11.276 5.24251 10.4077 5.25551V0.864721ZM14.8732 9.54019C14.8587 8.87331 14.8129 8.21227 14.7364 7.56977C14.6598 6.92629 14.5521 6.29905 14.4158 5.70091C14.8725 5.61885 15.3118 5.52379 15.73 5.41638C16.4149 5.24056 17.0332 5.03452 17.5734 4.80231C18.5414 6.20822 19.0896 7.83252 19.1731 9.54019H14.8732ZM12.2859 1.09855C12.323 1.10798 12.3599 1.11773 12.3968 1.12748C12.401 1.12861 12.405 1.12975 12.4091 1.13089C12.445 1.14047 12.4809 1.15039 12.5167 1.16046C12.5216 1.16176 12.5266 1.16323 12.5316 1.16452C12.5669 1.1746 12.602 1.18484 12.6371 1.19523C12.6425 1.1967 12.6477 1.19832 12.6529 1.19995C12.688 1.21035 12.7227 1.22091 12.7577 1.2318C12.7627 1.23342 12.7679 1.23505 12.7729 1.23667C12.808 1.24772 12.8431 1.25877 12.8781 1.27031C12.8826 1.27177 12.887 1.27323 12.8916 1.2747C12.9271 1.2864 12.9627 1.29842 12.9983 1.31045C13.0016 1.31158 13.0048 1.31272 13.0079 1.31386C13.0448 1.32653 13.0815 1.33937 13.1182 1.35253C13.1192 1.35286 13.1202 1.35318 13.1213 1.35367C13.1589 1.36716 13.1964 1.38081 13.2338 1.39478C13.2347 1.39511 13.2357 1.39543 13.2365 1.39576C13.2731 1.40957 13.3097 1.42338 13.3459 1.43752C13.349 1.43882 13.3519 1.43995 13.355 1.44109C13.3901 1.45474 13.4249 1.46872 13.4598 1.48285C13.464 1.48448 13.4683 1.4861 13.4725 1.48789C13.5066 1.5017 13.5406 1.51584 13.5745 1.53014C13.5794 1.53209 13.584 1.53404 13.5887 1.53615C13.6223 1.55029 13.6559 1.56475 13.6894 1.57937C13.6943 1.58149 13.6992 1.5836 13.704 1.58571C13.7373 1.6005 13.7708 1.61529 13.8041 1.6304C13.8087 1.63251 13.8131 1.63462 13.8176 1.63657C13.8514 1.65201 13.8851 1.66761 13.9187 1.68337C13.9223 1.685 13.9258 1.68678 13.9294 1.68841C13.964 1.70482 13.9983 1.72123 14.0326 1.73797C14.0347 1.73895 14.0367 1.73992 14.0388 1.74106C14.1104 1.776 14.1814 1.8119 14.2521 1.84879C14.2539 1.84977 14.2559 1.85074 14.2578 1.85172C14.2916 1.86943 14.3254 1.88747 14.3591 1.9055C14.3625 1.90745 14.3659 1.90924 14.3693 1.91103C14.402 1.92874 14.4346 1.94678 14.4671 1.96482C14.4713 1.96709 14.4756 1.96953 14.4799 1.97196C14.512 1.98984 14.5436 2.00788 14.5755 2.02624C14.58 2.02884 14.5846 2.03127 14.5891 2.03404C14.6207 2.05224 14.6522 2.07076 14.6837 2.08945C14.6881 2.09205 14.6927 2.09465 14.697 2.09725C14.7286 2.1161 14.7603 2.13527 14.7915 2.15445C14.7955 2.15689 14.7993 2.15916 14.8032 2.1616C14.8352 2.18126 14.867 2.20124 14.8989 2.22123C14.9018 2.22302 14.9044 2.22481 14.9073 2.22659C14.9401 2.24739 14.973 2.26852 15.0056 2.2898C15.0064 2.29029 15.0074 2.29094 15.0084 2.29159C15.0419 2.31337 15.0752 2.33547 15.1083 2.35773C15.1091 2.35838 15.1099 2.35887 15.1108 2.35935C15.1431 2.38113 15.1754 2.40323 15.2076 2.42549C15.2102 2.42728 15.213 2.42906 15.2156 2.43101C15.2466 2.45246 15.2773 2.47408 15.3082 2.49585C15.3119 2.49861 15.3157 2.50121 15.3194 2.50397C15.3495 2.52542 15.3794 2.54704 15.4091 2.56881C15.4133 2.5719 15.4177 2.57498 15.4219 2.57807C15.4513 2.59985 15.4808 2.62162 15.5098 2.64372C15.5142 2.64697 15.5186 2.65022 15.523 2.65363C15.5523 2.67573 15.5813 2.69799 15.6103 2.72042C15.6145 2.72351 15.6184 2.72676 15.6226 2.72984C15.6519 2.75275 15.6811 2.77567 15.7102 2.7989C15.7135 2.80167 15.7169 2.80427 15.7203 2.80703C15.7502 2.83092 15.7797 2.8548 15.8093 2.87918C15.8114 2.8808 15.8134 2.88259 15.8155 2.88421C15.8772 2.93491 15.9383 2.98675 15.999 3.03907C16.0007 3.0407 16.0025 3.04232 16.0045 3.04411C16.0336 3.06913 16.0623 3.09464 16.0909 3.12016C16.0942 3.12308 16.0974 3.12584 16.1007 3.12877C16.1285 3.15363 16.1561 3.17866 16.1837 3.20384C16.1876 3.20758 16.1915 3.21099 16.1956 3.21473C16.2225 3.23959 16.2495 3.26462 16.2763 3.28996C16.2806 3.29386 16.2846 3.29776 16.2888 3.30166C16.3155 3.32701 16.3421 3.35236 16.3685 3.37787C16.3725 3.38194 16.3768 3.38584 16.3807 3.38974C16.4073 3.41557 16.4338 3.44157 16.46 3.46773C16.4637 3.47131 16.4673 3.47488 16.4708 3.47846C16.4977 3.50511 16.5243 3.53208 16.5506 3.55922C16.5534 3.56182 16.5562 3.56474 16.5589 3.56751C16.5862 3.59562 16.6135 3.62373 16.6405 3.65217C16.6418 3.65347 16.6429 3.65477 16.6441 3.65607C16.6717 3.68499 16.699 3.71424 16.7263 3.74365C16.7273 3.74479 16.7282 3.74576 16.7292 3.7469C16.756 3.77583 16.7827 3.80491 16.8092 3.83432C16.8118 3.83725 16.8142 3.84001 16.8168 3.84294C16.8423 3.87121 16.8677 3.89965 16.8927 3.92841C16.8963 3.93231 16.8995 3.93621 16.9029 3.93995C16.9276 3.96822 16.9522 3.99649 16.9764 4.02509C16.9801 4.02948 16.9838 4.03387 16.9877 4.03826C17.0118 4.06653 17.0357 4.09513 17.0594 4.12373C17.0613 4.12584 17.0631 4.12812 17.0651 4.13039C16.27 4.45051 15.2944 4.71619 14.2136 4.90793C13.8326 3.56588 13.3036 2.42484 12.6709 1.58652C12.5346 1.40599 12.394 1.24041 12.2497 1.08978C12.2593 1.09205 12.2689 1.09433 12.2785 1.09676C12.2809 1.09741 12.2833 1.09806 12.2859 1.09855ZM2.94073 4.1234C2.96439 4.09497 2.98821 4.06669 3.01219 4.03858C3.01608 4.03387 3.01994 4.02932 3.02383 4.02477C3.04806 3.99633 3.07246 3.96822 3.09694 3.94011C3.1004 3.93621 3.10394 3.93231 3.10742 3.92825C3.13255 3.89965 3.15777 3.87121 3.18317 3.84294C3.1858 3.84001 3.18844 3.83709 3.191 3.83432C3.21746 3.80491 3.24399 3.77583 3.27071 3.7469C3.27178 3.74576 3.27285 3.74463 3.27393 3.74349C3.30105 3.71408 3.32841 3.68499 3.35585 3.65607C3.35711 3.65477 3.35826 3.65347 3.3595 3.65217C3.38653 3.62373 3.41374 3.59562 3.4411 3.56751C3.44381 3.56474 3.44654 3.56182 3.44934 3.55906C3.47581 3.53208 3.50243 3.50511 3.52914 3.47846C3.53276 3.47488 3.53639 3.47115 3.54001 3.46773C3.56632 3.44157 3.59277 3.41557 3.61933 3.38974C3.62336 3.38584 3.62748 3.38194 3.63151 3.37787C3.65798 3.35236 3.68452 3.32701 3.71123 3.30166C3.71536 3.29776 3.71955 3.29386 3.72368 3.28996C3.75056 3.26462 3.77751 3.23959 3.80464 3.21473C3.8085 3.21099 3.81247 3.20758 3.81634 3.20384C3.84386 3.17866 3.87157 3.15363 3.89942 3.12877C3.90264 3.12584 3.90585 3.12308 3.90907 3.12016C3.93775 3.09464 3.96653 3.06913 3.99555 3.04411C3.99744 3.04232 3.99934 3.0407 4.00116 3.03923C4.06174 2.98659 4.1229 2.93491 4.18465 2.88421C4.18671 2.88243 4.18869 2.8808 4.19074 2.87918C4.22027 2.8548 4.25002 2.83075 4.27985 2.80703C4.28323 2.80427 4.28653 2.80167 4.28983 2.7989C4.31893 2.77567 4.3482 2.75275 4.37754 2.72984C4.38157 2.72676 4.38562 2.72351 4.38973 2.72042C4.41867 2.69799 4.44786 2.67573 4.47704 2.65363C4.48141 2.65022 4.48577 2.64697 4.49014 2.64372C4.51932 2.62162 4.54867 2.59985 4.57818 2.57807C4.58247 2.57498 4.58676 2.5719 4.59105 2.56881C4.6208 2.54704 4.65064 2.52542 4.68065 2.50397C4.68443 2.50121 4.68824 2.49861 4.69202 2.49585C4.72269 2.47408 4.75345 2.45246 4.78443 2.43101C4.78715 2.42906 4.78988 2.42727 4.79259 2.42533C4.82465 2.40323 4.85689 2.38113 4.88929 2.35951C4.8901 2.35886 4.89093 2.35822 4.89176 2.35773C4.92489 2.33547 4.95821 2.31337 4.99166 2.29176C4.99257 2.29094 4.99357 2.29029 4.99456 2.28964C5.0272 2.26835 5.05993 2.24755 5.09282 2.22659C5.09561 2.22481 5.09842 2.22302 5.10122 2.22123C5.13295 2.20124 5.16487 2.18142 5.19685 2.16176C5.20071 2.15932 5.20468 2.15689 5.20863 2.15445C5.23996 2.13527 5.27145 2.1161 5.30302 2.09741C5.30747 2.09465 5.31201 2.09205 5.31654 2.08928C5.34787 2.07076 5.37935 2.05224 5.41092 2.03404C5.41555 2.03144 5.42015 2.02868 5.42478 2.02608C5.45643 2.00788 5.48825 1.98984 5.52015 1.97196C5.52452 1.96953 5.52881 1.96709 5.53308 1.96482C5.56548 1.94678 5.59805 1.92874 5.63069 1.91119C5.63415 1.90924 5.6377 1.90745 5.64124 1.9055C5.67479 1.8873 5.70851 1.86943 5.74231 1.85172C5.74429 1.85074 5.74626 1.84961 5.74824 1.84863C5.81872 1.81191 5.8897 1.776 5.96108 1.74106C5.96331 1.74008 5.96545 1.73895 5.9676 1.73797C6.0018 1.72123 6.0361 1.70482 6.07047 1.68857C6.07418 1.68678 6.0779 1.685 6.0816 1.68337C6.11508 1.66761 6.1487 1.65201 6.18233 1.63657C6.18695 1.63462 6.19148 1.63251 6.1961 1.6304C6.22933 1.61529 6.2627 1.6005 6.2961 1.58571C6.30104 1.5836 6.30589 1.58149 6.31085 1.57937C6.34423 1.56475 6.3777 1.55029 6.41126 1.53615C6.41603 1.53404 6.42089 1.53209 6.42577 1.52998C6.45965 1.51584 6.49353 1.5017 6.52757 1.48789C6.53186 1.4861 6.53622 1.48448 6.54051 1.48269C6.57521 1.46872 6.61009 1.45474 6.64504 1.44109C6.64817 1.43995 6.65129 1.43865 6.65443 1.43752C6.6907 1.42338 6.72697 1.40957 6.7634 1.39592C6.76447 1.39543 6.76555 1.39511 6.76662 1.39462C6.80388 1.38081 6.84122 1.36716 6.87864 1.35367C6.87981 1.35334 6.88087 1.35286 6.88202 1.35253C6.91855 1.33937 6.95523 1.32653 6.99192 1.31386C6.9953 1.31272 6.9986 1.31158 7.00188 1.31045C7.03733 1.29826 7.07286 1.2864 7.10848 1.2747C7.11301 1.27323 7.11754 1.27177 7.12208 1.27031C7.15703 1.25877 7.19198 1.24772 7.2271 1.23667C7.2322 1.23505 7.2374 1.23342 7.2426 1.2318C7.27737 1.22091 7.31224 1.21035 7.34712 1.19995C7.35248 1.19832 7.35784 1.1967 7.3631 1.19523C7.39822 1.18484 7.43334 1.1746 7.46855 1.16452C7.47349 1.16323 7.47851 1.16176 7.48355 1.1603C7.51923 1.15039 7.55501 1.14047 7.59087 1.13089C7.59508 1.12975 7.59919 1.12861 7.6034 1.12748C7.64026 1.11773 7.67718 1.10798 7.71427 1.09871C7.71674 1.09806 7.7193 1.09741 7.72178 1.09676C7.73126 1.09433 7.74073 1.09205 7.75022 1.08978C7.60596 1.24041 7.46541 1.40599 7.32914 1.58652C6.69639 2.42484 6.16733 3.56572 5.78641 4.90793C4.70546 4.71602 3.72977 4.45051 2.93496 4.13039C2.93694 4.12812 2.93883 4.12584 2.94073 4.1234ZM7.64297 18.8737C7.62822 18.8697 7.61338 18.8658 7.59863 18.8618C7.57232 18.8546 7.54603 18.8473 7.51982 18.8399C7.50448 18.8355 7.48915 18.8312 7.47381 18.8267C7.44809 18.8194 7.42246 18.8119 7.39682 18.8042C7.38108 18.7995 7.36533 18.7948 7.34959 18.79C7.32939 18.7839 7.30929 18.7777 7.28909 18.7714C7.26798 18.7649 7.24687 18.7582 7.22586 18.7515C7.20872 18.7461 7.19156 18.7406 7.1745 18.735C7.15059 18.7272 7.12669 18.7193 7.10287 18.7114C7.08729 18.7062 7.07178 18.7009 7.05622 18.6956C7.0309 18.6871 7.00568 18.6783 6.98046 18.6695C6.96587 18.6644 6.95136 18.6593 6.93677 18.6541C6.9108 18.6449 6.88483 18.6355 6.85895 18.626C6.84494 18.621 6.831 18.6158 6.81707 18.6107C6.79086 18.6009 6.76473 18.5911 6.7386 18.5811C6.72482 18.5759 6.71114 18.5706 6.69738 18.5653C6.67248 18.5557 6.64767 18.5459 6.62286 18.5361C6.60786 18.5301 6.59293 18.5242 6.57793 18.5182C6.55888 18.5105 6.53994 18.5028 6.52089 18.4949C6.50927 18.4901 6.49764 18.4853 6.48602 18.4805C6.45766 18.4687 6.42939 18.4568 6.40112 18.4447C6.39163 18.4407 6.38215 18.4366 6.37268 18.4325C6.34234 18.4194 6.31209 18.4062 6.28191 18.3929C6.27301 18.3889 6.2641 18.3849 6.25521 18.3809C6.22453 18.3672 6.19387 18.3533 6.16329 18.3392C6.15481 18.3353 6.14631 18.3313 6.13774 18.3273C6.1069 18.3131 6.07616 18.2986 6.04541 18.2839C6.03718 18.2799 6.02892 18.276 6.02076 18.272C5.98969 18.2571 5.95869 18.2419 5.92787 18.2267C5.92003 18.2228 5.91228 18.2189 5.90453 18.2151C5.87312 18.1994 5.84173 18.1836 5.81048 18.1675C5.80331 18.1638 5.79613 18.1602 5.78896 18.1565C5.7564 18.1396 5.724 18.1227 5.69161 18.1054C5.68584 18.1024 5.67998 18.0993 5.67423 18.0962C5.61669 18.0654 5.55939 18.0341 5.5025 18.0021C5.49979 18.0007 5.49716 17.9991 5.49451 17.9976C5.45965 17.978 5.42486 17.9581 5.39023 17.9381C5.38315 17.934 5.37614 17.9298 5.36904 17.9257C5.33896 17.9082 5.30895 17.8905 5.27912 17.8726C5.27086 17.8676 5.26263 17.8627 5.25439 17.8576C5.22587 17.8405 5.19742 17.8231 5.16906 17.8056C5.16016 17.8001 5.15127 17.7946 5.14236 17.7891C5.1149 17.772 5.08754 17.7547 5.06025 17.7373C5.05078 17.7313 5.04137 17.7252 5.03198 17.7192C5.00561 17.7023 4.97938 17.6853 4.95325 17.6681C4.94303 17.6614 4.93281 17.6547 4.92267 17.6479C4.89794 17.6316 4.8733 17.615 4.84873 17.5985C4.83736 17.5907 4.8259 17.5831 4.81461 17.5753C4.79326 17.5607 4.77199 17.546 4.7508 17.5314C4.73637 17.5213 4.72195 17.5113 4.70761 17.5011C4.69202 17.4901 4.67652 17.4792 4.66103 17.4681C4.64116 17.454 4.62137 17.4399 4.60168 17.4255C4.58684 17.4148 4.572 17.4039 4.55717 17.393C4.53705 17.3783 4.51685 17.3634 4.49682 17.3484C4.48273 17.3379 4.4688 17.3273 4.45478 17.3168C4.43731 17.3036 4.41991 17.2903 4.40252 17.277C4.38627 17.2646 4.37012 17.2521 4.35397 17.2396C4.33755 17.2268 4.32116 17.214 4.30483 17.2011C4.28819 17.188 4.27153 17.1748 4.25496 17.1615C4.23848 17.1483 4.22207 17.1351 4.20567 17.1218C4.18993 17.1091 4.17418 17.0962 4.15852 17.0833C4.14113 17.0691 4.12373 17.0547 4.10642 17.0402C4.09298 17.029 4.07955 17.0177 4.06611 17.0064C4.04666 16.99 4.02729 16.9735 4.008 16.957C3.99802 16.9484 3.98804 16.9398 3.97807 16.9313C3.9554 16.9116 3.93289 16.8919 3.91047 16.8721C3.90091 16.8637 3.89134 16.8552 3.88179 16.8468C3.85912 16.8265 3.83645 16.8061 3.81395 16.7857C3.80496 16.7775 3.79597 16.7693 3.78707 16.7612C3.76408 16.7402 3.74125 16.719 3.7185 16.6978C3.71024 16.69 3.70208 16.6824 3.69385 16.6746C3.67051 16.6527 3.64726 16.6306 3.62418 16.6084C3.61692 16.6014 3.60959 16.5943 3.60226 16.5873C3.57843 16.5642 3.55468 16.541 3.53103 16.5177C3.52493 16.5117 3.51892 16.5056 3.51281 16.4995C3.48818 16.475 3.46361 16.4503 3.4392 16.4255C3.43467 16.421 3.43021 16.4164 3.42576 16.4118C3.40145 16.3869 3.37721 16.362 3.35314 16.3368C3.3496 16.333 3.34598 16.3292 3.34235 16.3255C3.31736 16.2993 3.29247 16.2729 3.26782 16.2464C3.26411 16.2424 3.26041 16.2385 3.25678 16.2345C3.23181 16.2076 3.20699 16.1804 3.18234 16.1532C3.17813 16.1486 3.17393 16.1441 3.16981 16.1395C3.14549 16.1124 3.12134 16.0853 3.09728 16.058C3.09299 16.0531 3.08862 16.0482 3.08424 16.0433C3.06034 16.016 3.0366 15.9885 3.01302 15.961C3.00881 15.956 3.00454 15.951 3.00033 15.9461C2.97667 15.9183 2.95318 15.8904 2.92976 15.8623C2.92796 15.8601 2.92622 15.858 2.92441 15.8557C3.71997 15.5343 4.69763 15.2675 5.78146 15.0748C6.16189 16.4214 6.6912 17.5663 7.32495 18.4078C7.45914 18.586 7.59747 18.7498 7.73941 18.8989C7.73431 18.8976 7.72911 18.8964 7.72401 18.8951C7.69697 18.888 7.66993 18.881 7.64297 18.8737ZM17.0701 15.8623C17.0469 15.8904 17.0233 15.9183 16.9996 15.9461C16.9954 15.951 16.9912 15.956 16.9871 15.9609C16.9634 15.9885 16.9395 16.016 16.9156 16.0434C16.9114 16.0482 16.9071 16.053 16.9029 16.0579C16.8789 16.0852 16.8545 16.1124 16.8301 16.1396C16.8261 16.144 16.822 16.1486 16.8179 16.1531C16.7931 16.1804 16.7682 16.2076 16.7432 16.2346C16.7396 16.2385 16.7359 16.2423 16.7325 16.2461C16.7076 16.2729 16.6826 16.2993 16.6574 16.3257C16.654 16.3293 16.6506 16.3329 16.6472 16.3366C16.6228 16.3619 16.5984 16.3871 16.574 16.4121C16.5696 16.4165 16.5653 16.421 16.561 16.4254C16.5365 16.4503 16.5118 16.4751 16.4869 16.4998C16.4809 16.5057 16.4751 16.5116 16.4691 16.5175C16.4453 16.541 16.4214 16.5643 16.3974 16.5875C16.3902 16.5944 16.3833 16.6014 16.3761 16.6083C16.3527 16.6306 16.3295 16.6528 16.3059 16.6749C16.2979 16.6825 16.2898 16.69 16.2819 16.6976C16.2589 16.719 16.2359 16.7402 16.2128 16.7614C16.204 16.7694 16.1952 16.7774 16.1865 16.7853C16.1637 16.806 16.1408 16.8266 16.1179 16.847C16.1086 16.8552 16.0994 16.8635 16.09 16.8717C16.0674 16.8918 16.0446 16.9117 16.0217 16.9315C16.012 16.9398 16.0022 16.9481 15.9926 16.9566C15.9728 16.9735 15.953 16.9904 15.933 17.0073C15.9201 17.0181 15.9071 17.0289 15.8943 17.0397C15.8764 17.0546 15.8586 17.0693 15.8407 17.084C15.8256 17.0965 15.8105 17.1087 15.7954 17.121C15.7785 17.1348 15.7614 17.1485 15.7443 17.1621C15.7284 17.1748 15.7125 17.1874 15.6966 17.2C15.6797 17.2134 15.6626 17.2267 15.6455 17.24C15.6303 17.2518 15.615 17.2637 15.5995 17.2755C15.5813 17.2894 15.5631 17.3034 15.5448 17.3172C15.5311 17.3275 15.5175 17.3379 15.5037 17.3481C15.4834 17.3633 15.4629 17.3785 15.4424 17.3935C15.4279 17.4041 15.4133 17.4146 15.3989 17.4252C15.3789 17.4397 15.3587 17.4541 15.3386 17.4685C15.3235 17.4793 15.3084 17.4901 15.2931 17.5007C15.2773 17.5118 15.2616 17.5228 15.2458 17.5338C15.226 17.5475 15.206 17.5612 15.1862 17.5748C15.174 17.5832 15.1616 17.5915 15.1493 17.5998C15.1257 17.6158 15.102 17.6317 15.0783 17.6474C15.0674 17.6546 15.0565 17.6619 15.0454 17.669C15.0202 17.6856 14.9947 17.7022 14.9692 17.7186C14.959 17.7251 14.9489 17.7316 14.9387 17.7381C14.9122 17.7549 14.8857 17.7717 14.8591 17.7882C14.8495 17.7942 14.8399 17.8002 14.8301 17.8062C14.8027 17.8231 14.7752 17.8399 14.7476 17.8565C14.7385 17.862 14.7294 17.8675 14.7201 17.873C14.6915 17.8901 14.6629 17.9071 14.6342 17.9238C14.6259 17.9287 14.6174 17.9336 14.6091 17.9385C14.5774 17.9569 14.5456 17.975 14.5137 17.993C14.5082 17.9962 14.5025 17.9993 14.497 18.0025C14.4782 18.013 14.4593 18.0236 14.4403 18.034C14.4384 18.0352 14.4361 18.0364 14.434 18.0375C14.3982 18.0572 14.3625 18.0767 14.3266 18.0959C14.3194 18.0997 14.3121 18.1035 14.3049 18.1073C14.2741 18.1237 14.243 18.14 14.2118 18.1561C14.2039 18.1602 14.1957 18.1644 14.1876 18.1686C14.1572 18.1841 14.1268 18.1995 14.0965 18.2147C14.088 18.2189 14.0794 18.2231 14.0708 18.2274C14.0407 18.2423 14.0107 18.2569 13.9806 18.2715C13.9715 18.2758 13.9626 18.2801 13.9535 18.2845C13.9237 18.2987 13.8938 18.3127 13.8639 18.3267C13.8545 18.331 13.8452 18.3353 13.8358 18.3397C13.8064 18.3532 13.7767 18.3667 13.7471 18.3799C13.7372 18.3844 13.7273 18.3888 13.7174 18.3932C13.6886 18.406 13.6597 18.4186 13.6307 18.4311C13.62 18.4357 13.6091 18.4404 13.5984 18.445C13.5739 18.4555 13.549 18.4659 13.5243 18.4762C13.509 18.4826 13.4939 18.4889 13.4787 18.4952C13.46 18.5028 13.4413 18.5104 13.4228 18.5179C13.4049 18.5251 13.387 18.5323 13.3691 18.5393C13.3472 18.548 13.3254 18.5566 13.3033 18.5651C13.2885 18.5708 13.2737 18.5765 13.259 18.5821C13.2339 18.5916 13.2089 18.6011 13.1837 18.6104C13.1691 18.6159 13.1543 18.6212 13.1397 18.6267C13.1145 18.6358 13.0893 18.6449 13.0641 18.6539C13.049 18.6592 13.0337 18.6646 13.0185 18.6699C12.9939 18.6785 12.9694 18.687 12.9447 18.6953C12.9286 18.7008 12.9125 18.7063 12.8964 18.7117C12.8734 18.7194 12.8501 18.7271 12.8269 18.7346C12.809 18.7403 12.7913 18.7461 12.7736 18.7518C12.7533 18.7582 12.7331 18.7646 12.713 18.7708C12.692 18.7774 12.6711 18.7839 12.6499 18.7902C12.6345 18.7949 12.6192 18.7995 12.6036 18.8041C12.5778 18.8119 12.5518 18.8194 12.5258 18.8269C12.5108 18.8313 12.4957 18.8355 12.4808 18.8397C12.4541 18.8472 12.4276 18.8547 12.401 18.8619C12.3865 18.8658 12.3721 18.8697 12.3576 18.8736C12.3303 18.8809 12.3032 18.888 12.2759 18.8951C12.2707 18.8965 12.2656 18.8977 12.2604 18.899C12.4024 18.7498 12.5409 18.586 12.6749 18.4078C13.3088 17.5663 13.8381 16.4214 14.2185 15.0748C15.3025 15.2675 16.2801 15.5343 17.0757 15.8557C17.0739 15.858 17.0721 15.8601 17.0701 15.8623ZM19.9999 10C19.9999 9.98169 19.9999 9.96332 19.9998 9.94513C19.9941 8.86486 19.8168 7.80262 19.4729 6.78849C19.193 5.9622 18.8066 5.17865 18.3217 4.45294L18.3327 4.44774L18.0379 4.04996C17.5846 3.43849 17.0609 2.87804 16.4809 2.38421C15.8984 1.88795 15.2591 1.4588 14.5809 1.10879C14.5378 1.08653 14.4944 1.06459 14.451 1.04281C14.4075 1.0212 14.3638 0.999916 14.3201 0.978954C14.2981 0.968391 14.2762 0.957993 14.2542 0.947594C13.8368 0.751299 13.406 0.583929 12.9657 0.447433C12.7804 0.38991 12.5934 0.337748 12.405 0.291273C12.2606 0.255688 12.1152 0.223188 11.9691 0.194101C11.9683 0.193939 11.9676 0.193777 11.967 0.193615C11.9653 0.193289 11.9637 0.192963 11.9619 0.192638C11.3305 0.0671921 10.6847 0.00251961 10.036 0.000244141C10.0357 0.000244141 10.0352 0.000244141 10.0347 0.000244141C10.0118 -8.01086e-05 9.98776 -8.01086e-05 9.96566 0.000244141C9.96518 0.000244141 9.96485 0.000244141 9.96453 0.000244141C9.89238 0.000570297 9.82023 0.00154305 9.74823 0.00333214C9.17392 0.0176315 8.60273 0.0806789 8.04286 0.191826C7.89274 0.221563 7.74338 0.254711 7.59508 0.291273C6.84172 0.477331 6.10971 0.752274 5.41917 1.10879C4.74108 1.4588 4.10173 1.88795 3.51908 2.38421C2.93925 2.87804 2.41546 3.43849 1.96208 4.04996L1.66719 4.44774L1.6783 4.45294C1.19346 5.17881 0.807018 5.9622 0.527022 6.78849C0.18323 7.80279 0.00597997 8.86486 0.000146389 9.94513C1.63924e-05 9.96332 0 9.98169 0 10C0 11.0875 0.173594 12.1569 0.515923 13.1787C0.795058 14.0119 1.18227 14.8021 1.66949 15.5338L1.65846 15.5391L1.95178 15.9361C1.96176 15.9497 1.97206 15.9631 1.98212 15.9767C2.00058 16.0013 2.01896 16.0261 2.03768 16.0507C2.04369 16.0586 2.04988 16.0664 2.05597 16.0744C2.07897 16.1044 2.10198 16.1344 2.12529 16.1641C2.12983 16.1699 2.13444 16.1756 2.13898 16.1814C2.16405 16.2132 2.18919 16.2448 2.21457 16.2763C2.21803 16.2806 2.22159 16.2849 2.22505 16.2892C2.25167 16.322 2.27838 16.3547 2.30542 16.3872C2.30961 16.3923 2.31398 16.3974 2.31827 16.4025C2.34465 16.4341 2.37112 16.4656 2.39783 16.4968C2.4021 16.5019 2.40656 16.5068 2.41085 16.5118C2.43772 16.5431 2.4646 16.5741 2.4918 16.6051C2.49625 16.6102 2.50087 16.6152 2.5054 16.6203C2.53252 16.6511 2.55981 16.6816 2.58725 16.712C2.59203 16.7173 2.59699 16.7225 2.60176 16.7277C2.62913 16.7578 2.65657 16.7878 2.68428 16.8176C2.6894 16.823 2.69466 16.8285 2.69978 16.834C2.72731 16.8633 2.75493 16.8927 2.78278 16.9217C2.78831 16.9274 2.79383 16.933 2.79928 16.9387C2.82696 16.9674 2.85475 16.996 2.88278 17.0245C2.88847 17.0302 2.89416 17.0358 2.89984 17.0415C2.92787 17.0697 2.95589 17.0978 2.98426 17.1258C2.99011 17.1316 2.99612 17.1373 3.00197 17.143C3.03025 17.1707 3.05852 17.1983 3.08714 17.2256C3.09323 17.2315 3.0995 17.2373 3.1056 17.2432C3.13411 17.2702 3.16265 17.2973 3.19141 17.324C3.19775 17.33 3.20418 17.3358 3.21054 17.3417C3.23922 17.3682 3.26799 17.3947 3.297 17.4209C3.30368 17.427 3.31052 17.4329 3.3172 17.439C3.34606 17.4648 3.3749 17.4907 3.40408 17.5163C3.41084 17.5223 3.41777 17.5281 3.42453 17.5341C3.45264 17.5586 3.48083 17.5831 3.50919 17.6074C3.51026 17.6083 3.51133 17.6092 3.5124 17.6101C3.51265 17.6103 3.51299 17.6106 3.51323 17.6108C3.5204 17.6169 3.52774 17.623 3.53499 17.629C3.56401 17.6538 3.5932 17.6783 3.62253 17.7027C3.63111 17.7098 3.63985 17.7168 3.64843 17.7238C3.67685 17.7473 3.7053 17.7706 3.7339 17.7937C3.74372 17.8016 3.7536 17.8093 3.76341 17.8171C3.79103 17.8392 3.81872 17.8613 3.84659 17.883C3.85764 17.8917 3.86885 17.9001 3.87989 17.9087C3.90668 17.9294 3.93348 17.9503 3.96052 17.9707C3.97254 17.9799 3.98474 17.9889 3.99687 17.9979C4.02308 18.0176 4.04929 18.0374 4.07568 18.0569C4.08877 18.0664 4.10189 18.0758 4.11498 18.0854C4.14063 18.104 4.16627 18.1228 4.19206 18.1413C4.206 18.1512 4.22001 18.1609 4.23395 18.1707C4.25917 18.1885 4.28431 18.2064 4.30962 18.224C4.3243 18.2342 4.33913 18.2442 4.35389 18.2542C4.3787 18.2712 4.40343 18.2883 4.42832 18.305C4.44381 18.3154 4.45948 18.3256 4.47498 18.3359C4.49938 18.3521 4.52369 18.3684 4.54818 18.3843C4.56433 18.3949 4.58066 18.4052 4.59682 18.4155C4.62088 18.431 4.64495 18.4466 4.66911 18.4619C4.68601 18.4725 4.70299 18.4829 4.71989 18.4934C4.74363 18.5083 4.76729 18.5231 4.79111 18.5377C4.80874 18.5485 4.82647 18.559 4.84412 18.5696C4.86744 18.5837 4.89069 18.5979 4.91419 18.6117C4.93248 18.6225 4.95086 18.6332 4.96924 18.6439C4.99225 18.6572 5.01516 18.6708 5.03824 18.6839C5.05712 18.6947 5.07608 18.7053 5.09504 18.716C5.11779 18.7289 5.14046 18.7417 5.16329 18.7544C5.18274 18.7652 5.20237 18.7757 5.22198 18.7864C5.24441 18.7986 5.26675 18.811 5.28934 18.823C5.30954 18.8338 5.32982 18.8444 5.35008 18.855C5.37054 18.8658 5.3909 18.8767 5.41142 18.8873C5.41357 18.8885 5.41579 18.8895 5.41794 18.8907C5.41891 18.8912 5.4199 18.8917 5.4209 18.8922C5.43013 18.8969 5.43929 18.9016 5.44852 18.9063C5.45939 18.9119 5.4702 18.9175 5.48108 18.923C5.49236 18.9287 5.50365 18.9344 5.51495 18.9401C5.52535 18.9453 5.53573 18.9505 5.5462 18.9557C5.5579 18.9616 5.56977 18.9674 5.58155 18.9732C5.59153 18.9781 5.60151 18.983 5.61149 18.988C5.62377 18.9939 5.63614 18.9999 5.64842 19.0059C5.65798 19.0105 5.66745 19.0151 5.67702 19.0197C5.68971 19.0258 5.7024 19.0318 5.71519 19.0378C5.72442 19.0422 5.73357 19.0467 5.7428 19.0509C5.75591 19.0571 5.76901 19.0632 5.7822 19.0693C5.79111 19.0735 5.79993 19.0776 5.80882 19.0818C5.82226 19.0879 5.83578 19.0941 5.8493 19.1003C5.85788 19.1042 5.86654 19.1082 5.8751 19.1121C5.88887 19.1184 5.90265 19.1245 5.91641 19.1306C5.92481 19.1345 5.93323 19.1382 5.94163 19.1419C5.95581 19.1482 5.96998 19.1545 5.98409 19.1607C5.99216 19.1642 6.00024 19.1677 6.00824 19.1713C6.02283 19.1776 6.03742 19.1839 6.05201 19.1902C6.05976 19.1935 6.06742 19.1968 6.07517 19.2001C6.09 19.2065 6.10486 19.2128 6.11969 19.219C6.12726 19.2222 6.13477 19.2254 6.14236 19.2285C6.15744 19.2349 6.17252 19.2411 6.1877 19.2473C6.19502 19.2503 6.20229 19.2534 6.20962 19.2564C6.22496 19.2627 6.24036 19.2689 6.2557 19.2751C6.26287 19.278 6.27005 19.2809 6.27721 19.2838C6.2928 19.2901 6.30838 19.2963 6.32403 19.3024C6.33097 19.3052 6.33797 19.308 6.34497 19.3107C6.3608 19.3169 6.37663 19.3231 6.39254 19.3292C6.3993 19.3318 6.40606 19.3345 6.4129 19.3371C6.42897 19.3432 6.44514 19.3494 6.46121 19.3555C6.4678 19.358 6.4744 19.3605 6.481 19.363C6.4974 19.3691 6.51379 19.3752 6.53028 19.3813C6.53656 19.3836 6.54289 19.386 6.54925 19.3883C6.5659 19.3944 6.58254 19.4005 6.59928 19.4066C6.60539 19.4088 6.61156 19.411 6.61774 19.4132C6.63464 19.4193 6.65154 19.4254 6.66844 19.4313C6.67447 19.4334 6.6804 19.4356 6.68641 19.4376C6.70347 19.4436 6.72053 19.4496 6.73769 19.4554C6.74354 19.4575 6.74939 19.4596 6.75524 19.4615C6.77257 19.4675 6.78987 19.4733 6.80709 19.4792C6.81286 19.4811 6.81855 19.4831 6.82424 19.485C6.84189 19.4908 6.85943 19.4967 6.87708 19.5024C6.88253 19.5042 6.88789 19.506 6.89332 19.5078C6.91121 19.5136 6.92901 19.5193 6.94691 19.5251C6.95217 19.5267 6.95745 19.5285 6.96273 19.5301C6.98079 19.5359 6.99892 19.5416 7.01714 19.5473C7.02208 19.5488 7.02711 19.5504 7.03213 19.552C7.05061 19.5577 7.06907 19.5633 7.08761 19.569C7.09231 19.5704 7.09694 19.5719 7.10163 19.5733C7.1205 19.579 7.13938 19.5846 7.15826 19.5902C7.16263 19.5915 7.16701 19.5929 7.17138 19.5941C7.19057 19.5998 7.20977 19.6053 7.22898 19.6109C7.23303 19.6121 7.23707 19.6132 7.24119 19.6144C7.26082 19.62 7.28043 19.6256 7.30004 19.631C7.30376 19.6321 7.30739 19.6332 7.31109 19.6342C7.33113 19.6398 7.35108 19.6452 7.3711 19.6507C7.37448 19.6515 7.37786 19.6525 7.38124 19.6534C7.40168 19.659 7.42222 19.6644 7.44275 19.6699C7.44562 19.6706 7.44843 19.6714 7.45131 19.6722C7.47233 19.6777 7.49336 19.6831 7.51445 19.6885C7.51684 19.689 7.51923 19.6897 7.52162 19.6903C7.54315 19.6958 7.56474 19.7013 7.58634 19.7066C7.58782 19.7069 7.58922 19.7074 7.59071 19.7077C7.59112 19.7078 7.59152 19.7079 7.59195 19.708C7.59681 19.7092 7.60175 19.7105 7.60662 19.7117C7.62425 19.716 7.64198 19.7202 7.65971 19.7245C7.66135 19.7249 7.66293 19.7253 7.66457 19.7257C7.68782 19.7313 7.71114 19.7367 7.73447 19.7421C7.7353 19.7423 7.73611 19.7425 7.73702 19.7427C7.76093 19.7482 7.78493 19.7537 7.80891 19.759C7.80916 19.7591 7.80948 19.7592 7.80972 19.7592C8.52509 19.919 9.26089 20 10.0001 20C10.7393 20 11.4751 19.919 12.1906 19.7592C12.2149 19.7538 12.2391 19.7482 12.2633 19.7426C12.2638 19.7426 12.2643 19.7424 12.265 19.7423C12.2885 19.7368 12.3121 19.7313 12.3358 19.7256C12.3371 19.7253 12.3383 19.725 12.3394 19.7247C12.3574 19.7204 12.3755 19.7161 12.3935 19.7117C12.3984 19.7104 12.4034 19.7092 12.4085 19.7079C12.4088 19.7078 12.4091 19.7078 12.4094 19.7077C12.4106 19.7074 12.4115 19.7072 12.4127 19.7069C12.4348 19.7014 12.4567 19.6959 12.4788 19.6903C12.4808 19.6898 12.4827 19.6892 12.4847 19.6887C12.5061 19.6833 12.5276 19.6777 12.549 19.6721C12.5515 19.6714 12.5539 19.6708 12.5563 19.6701C12.5773 19.6646 12.5983 19.6591 12.6192 19.6534C12.6221 19.6525 12.6251 19.6517 12.628 19.6509C12.6485 19.6454 12.6688 19.6398 12.6892 19.6341C12.6927 19.6332 12.6959 19.6323 12.6993 19.6313C12.7191 19.6257 12.7391 19.6201 12.7591 19.6144C12.7629 19.6133 12.7666 19.6121 12.7703 19.6111C12.79 19.6055 12.8093 19.5998 12.829 19.5941C12.8331 19.5929 12.8371 19.5916 12.8413 19.5904C12.8604 19.5847 12.8795 19.579 12.8985 19.5732C12.9031 19.5719 12.9075 19.5705 12.9119 19.5692C12.9307 19.5635 12.9494 19.5577 12.9681 19.552C12.973 19.5505 12.9777 19.5489 12.9824 19.5474C13.0008 19.5417 13.0191 19.536 13.0376 19.5301C13.0427 19.5285 13.0476 19.5269 13.0526 19.5253C13.0706 19.5195 13.0888 19.5136 13.1069 19.5078C13.1121 19.506 13.1174 19.5042 13.1226 19.5025C13.1405 19.4967 13.1582 19.4908 13.1759 19.4849C13.1814 19.4831 13.187 19.4812 13.1923 19.4793C13.2099 19.4734 13.2274 19.4675 13.245 19.4615C13.2507 19.4596 13.2562 19.4576 13.2619 19.4556C13.2793 19.4497 13.2965 19.4436 13.3139 19.4376C13.3197 19.4356 13.3254 19.4335 13.3313 19.4314C13.3483 19.4254 13.3654 19.4193 13.3825 19.4132C13.3885 19.4111 13.3945 19.4089 13.4005 19.4067C13.4174 19.4006 13.4341 19.3945 13.4509 19.3883C13.4572 19.386 13.4634 19.3837 13.4696 19.3814C13.4861 19.3753 13.5027 19.3691 13.5193 19.363C13.5256 19.3606 13.532 19.3581 13.5383 19.3557C13.5547 19.3495 13.5709 19.3433 13.5874 19.3371C13.5939 19.3345 13.6005 19.332 13.607 19.3294C13.6231 19.3232 13.6392 19.317 13.6553 19.3106C13.6619 19.308 13.6686 19.3053 13.6753 19.3027C13.6912 19.2964 13.7071 19.2901 13.723 19.2837C13.7299 19.281 13.7367 19.2782 13.7435 19.2755C13.7591 19.2691 13.7749 19.2627 13.7906 19.2563C13.7975 19.2535 13.8045 19.2506 13.8114 19.2478C13.8269 19.2414 13.8425 19.2349 13.8581 19.2284C13.8651 19.2254 13.8721 19.2225 13.879 19.2195C13.8945 19.2131 13.9098 19.2066 13.9252 19.2001C13.9323 19.1969 13.9397 19.1938 13.9468 19.1907C13.9619 19.1842 13.977 19.1777 13.9921 19.1711C13.9996 19.1679 14.0069 19.1646 14.0144 19.1614C14.0292 19.1549 14.044 19.1484 14.0588 19.1418C14.0664 19.1384 14.074 19.135 14.0815 19.1316C14.0963 19.125 14.1109 19.1185 14.1254 19.1119C14.1332 19.1084 14.1408 19.1048 14.1485 19.1014C14.1629 19.0948 14.1772 19.0882 14.1917 19.0815C14.1995 19.0779 14.2074 19.0743 14.2152 19.0706C14.2295 19.064 14.2437 19.0574 14.2578 19.0507C14.2658 19.0469 14.2737 19.0431 14.2819 19.0393C14.2958 19.0327 14.3098 19.0261 14.3236 19.0194C14.3319 19.0155 14.34 19.0115 14.3483 19.0075C14.362 19.0009 14.3758 18.9942 14.3893 18.9876C14.3977 18.9835 14.406 18.9793 14.4145 18.9752C14.4279 18.9686 14.4413 18.962 14.4546 18.9553C14.4632 18.951 14.4718 18.9467 14.4804 18.9424C14.4936 18.9358 14.5068 18.9292 14.5199 18.9225C14.5287 18.9181 14.5373 18.9136 14.5461 18.9092C14.5571 18.9035 14.5682 18.8979 14.5791 18.8922C14.5804 18.8916 14.5815 18.8909 14.5828 18.8904C14.5848 18.8893 14.5867 18.8883 14.5887 18.8873C14.6077 18.8775 14.6264 18.8674 14.6452 18.8575C14.6671 18.8459 14.6892 18.8346 14.711 18.8229C14.7328 18.8112 14.7544 18.7994 14.7759 18.7877C14.7962 18.7765 14.8166 18.7656 14.837 18.7543C14.8595 18.7418 14.8821 18.729 14.9047 18.7162C14.9239 18.7055 14.9429 18.6948 14.9617 18.684C14.9853 18.6706 15.0085 18.6568 15.0319 18.6432C15.05 18.6328 15.0679 18.6224 15.0859 18.6118C15.1098 18.5976 15.1337 18.5831 15.1576 18.5687C15.1746 18.5584 15.1918 18.5482 15.2089 18.5378C15.2333 18.5229 15.2575 18.5076 15.2819 18.4924C15.2981 18.4823 15.3145 18.4723 15.3309 18.4619C15.3556 18.4464 15.38 18.4305 15.4047 18.4146C15.4203 18.4045 15.4361 18.3946 15.4518 18.3844C15.4767 18.3682 15.5014 18.3517 15.5261 18.3353C15.5412 18.3252 15.5566 18.3152 15.5718 18.305C15.5966 18.2883 15.6215 18.2712 15.6462 18.2542C15.661 18.2441 15.6758 18.2342 15.6904 18.224C15.7156 18.2066 15.7404 18.1889 15.7655 18.1712C15.7796 18.1612 15.7939 18.1513 15.808 18.1412C15.8334 18.1232 15.8586 18.1048 15.8836 18.0864C15.8972 18.0765 15.9109 18.0668 15.9245 18.0568C15.95 18.0379 15.9756 18.0188 16.0009 17.9997C16.0137 17.99 16.0267 17.9805 16.0396 17.9707C16.0657 17.9509 16.0914 17.9309 16.1173 17.911C16.1293 17.9016 16.1415 17.8923 16.1537 17.8829C16.1801 17.8623 16.2063 17.8412 16.2326 17.8203C16.2438 17.8113 16.255 17.8026 16.2663 17.7935C16.2936 17.7716 16.3207 17.7493 16.3478 17.7271C16.3577 17.7188 16.3678 17.7108 16.3777 17.7026C16.4063 17.6788 16.4349 17.6547 16.4632 17.6306C16.471 17.6239 16.479 17.6175 16.4868 17.6108C16.4871 17.6106 16.4874 17.6103 16.4877 17.61C16.4887 17.6092 16.4899 17.6083 16.4908 17.6074C16.5189 17.5834 16.5469 17.5591 16.5747 17.5347C16.5818 17.5286 16.589 17.5225 16.5961 17.5163C16.6252 17.4907 16.654 17.4649 16.6827 17.439C16.6894 17.4329 16.6962 17.427 16.703 17.4209C16.7321 17.3946 16.7611 17.368 16.7898 17.3414C16.7962 17.3356 16.8025 17.3298 16.8087 17.324C16.8378 17.2969 16.8667 17.2696 16.8956 17.2421C16.9013 17.2366 16.9071 17.2312 16.913 17.2257C16.9419 17.1978 16.9708 17.1698 16.9994 17.1416C17.005 17.1363 17.0103 17.1312 17.0159 17.1258C17.0446 17.0974 17.0732 17.0687 17.1018 17.0399C17.1068 17.0347 17.1121 17.0297 17.1173 17.0245C17.1465 16.9948 17.1754 16.965 17.2043 16.935C17.2086 16.9305 17.213 16.9262 17.217 16.9218C17.2463 16.8915 17.275 16.8609 17.3036 16.8303C17.3077 16.8261 17.3116 16.8219 17.3157 16.8176C17.3444 16.7867 17.373 16.7555 17.4015 16.7242C17.4052 16.7201 17.4089 16.7161 17.4127 16.7121C17.4419 16.6798 17.4708 16.6473 17.4996 16.6147C17.5024 16.6115 17.5053 16.6084 17.5082 16.6051C17.5371 16.5723 17.5657 16.5391 17.5943 16.5058C17.5969 16.5029 17.5995 16.4999 17.6021 16.4968C17.6319 16.4621 17.6613 16.4272 17.6905 16.3921C17.6918 16.3905 17.6931 16.3889 17.6946 16.3873C17.723 16.3529 17.7515 16.3184 17.7794 16.2836C17.7814 16.2812 17.7835 16.2788 17.7854 16.2764C17.8144 16.2404 17.8431 16.2043 17.8717 16.1679C17.8727 16.1667 17.8737 16.1654 17.8746 16.1642C17.901 16.1307 17.927 16.0968 17.953 16.0629C17.9561 16.0589 17.9591 16.0548 17.9622 16.0507C17.9822 16.0246 18.0017 15.9982 18.0214 15.9719C18.0303 15.9599 18.0394 15.9481 18.0482 15.9361L18.3415 15.5391L18.3304 15.5338C18.8178 14.8021 19.2048 14.0119 19.484 13.1787C19.8264 12.1569 19.9999 11.0875 19.9999 10Z" fill="white"/>
</g>
</svg>
