<svg width="25" height="25" viewBox="0 0 25 25" fill="none" xmlns="http://www.w3.org/2000/svg">
<g id="web icon">
<path id="path20" d="M19.6731 18.2096C19.1484 18.0748 18.5976 17.9554 18.0248 17.8522C18.1958 17.0973 18.3307 16.3061 18.4257 15.4943C18.5232 14.6631 18.5795 13.8073 18.5939 12.9445H23.9721C23.8901 15.1191 23.2064 17.1894 21.9785 18.9797C21.3037 18.6885 20.5303 18.4301 19.6731 18.2096ZM6.406 12.9445C6.42042 13.8073 6.47678 14.6631 6.57426 15.4943C6.66938 16.3061 6.80415 17.0973 6.9752 17.8522C6.4023 17.9554 5.85154 18.0748 5.32715 18.2096C4.46984 18.4301 3.69643 18.6885 3.0214 18.9797C1.79373 17.1896 1.10986 15.1191 1.0278 12.9445H6.406ZM5.33757 6.77047C5.8604 6.90453 6.40931 7.02336 6.98025 7.12593C6.80982 7.87382 6.67525 8.65786 6.57942 9.46221C6.48379 10.2653 6.42661 11.0916 6.40858 11.9252H1.03355C1.138 9.79086 1.82336 7.76048 3.03344 6.00289C3.70837 6.29314 4.48128 6.5507 5.33757 6.77047ZM13.0096 11.9252V7.58884C14.1344 7.57239 15.2402 7.50191 16.3029 7.37841C16.5418 7.35058 16.7778 7.32032 17.011 7.28741C17.3431 8.72387 17.5349 10.3117 17.5718 11.9252H13.0096ZM16.3074 17.5996C15.2433 17.4756 14.1363 17.4049 13.0096 17.3885V12.9445H17.5745C17.5452 14.5945 17.3541 16.2207 17.0161 17.6906C16.7827 17.6578 16.5465 17.6273 16.3074 17.5996ZM13.0096 23.9192V18.408C14.0967 18.4243 15.1641 18.4927 16.1896 18.612C16.3811 18.6343 16.5707 18.6584 16.7585 18.6842C16.3208 20.1943 15.7289 21.4679 15.0296 22.3965C14.573 23.0026 13.8771 23.7097 13.0096 23.9192ZM8.81068 18.612C9.83595 18.4927 10.9034 18.4243 11.9903 18.408V23.9193C11.1228 23.7098 10.427 23.0027 9.97041 22.3965C9.27117 21.4679 8.6791 20.1943 8.24138 18.6842C8.42933 18.6584 8.61912 18.6343 8.81068 18.612ZM11.9903 12.9445V17.3885C10.8638 17.4049 9.75681 17.4757 8.6929 17.5995C8.45364 17.6273 8.21727 17.6578 7.98387 17.6906C7.6459 16.2207 7.45476 14.5945 7.42559 12.9445H11.9903ZM8.69712 7.37841C9.7599 7.50191 10.8654 7.57239 11.9903 7.58884V11.9252H7.42817C7.46506 10.3117 7.65693 8.72387 7.98903 7.28741C8.22221 7.32032 8.45827 7.35058 8.69712 7.37841ZM11.9903 1.0809V6.56938C10.9049 6.55313 9.83893 6.48489 8.81471 6.36586C8.62396 6.34372 8.43499 6.31975 8.24786 6.29395C8.68589 4.78986 9.27725 3.52178 9.97504 2.59739C10.4306 1.99392 11.1249 1.28991 11.9903 1.0809ZM13.0096 1.0809C13.8751 1.28971 14.5693 1.99372 15.0249 2.59739C15.7226 3.52178 16.3141 4.78986 16.7522 6.29416C16.5652 6.31975 16.3761 6.34372 16.1853 6.36586C15.1612 6.48489 14.095 6.55313 13.0096 6.56938V1.0809ZM18.5915 11.9252C18.5734 11.0916 18.5161 10.2653 18.4205 9.46221C18.3248 8.65786 18.1901 7.87382 18.0197 7.12613C18.5907 7.02356 19.1397 6.90473 19.6625 6.77047C20.5187 6.5507 21.2915 6.29314 21.9667 6.00289C23.1767 7.76027 23.862 9.79065 23.9664 11.9252H18.5915ZM15.3574 1.37319C15.4037 1.38497 15.4498 1.39716 15.4959 1.40934C15.5012 1.41076 15.5063 1.41219 15.5114 1.41361C15.5563 1.42559 15.6012 1.43798 15.6459 1.45058C15.6519 1.4522 15.6582 1.45403 15.6645 1.45565C15.7086 1.46825 15.7525 1.48104 15.7964 1.49404C15.8031 1.49587 15.8096 1.4979 15.8161 1.49993C15.8599 1.51293 15.9034 1.52614 15.9471 1.53975C15.9534 1.54178 15.9599 1.54381 15.9662 1.54584C16.01 1.55965 16.0539 1.57346 16.0976 1.58788C16.1033 1.58971 16.1088 1.59154 16.1144 1.59337C16.1589 1.60799 16.2034 1.62302 16.2479 1.63806C16.252 1.63948 16.256 1.6409 16.2599 1.64232C16.306 1.65816 16.3519 1.67421 16.3978 1.69066C16.399 1.69107 16.4002 1.69147 16.4017 1.69208C16.4486 1.70894 16.4955 1.72601 16.5422 1.74347C16.5434 1.74388 16.5447 1.74429 16.5457 1.74469C16.5914 1.76196 16.6371 1.77922 16.6824 1.79689C16.6862 1.79852 16.6899 1.79994 16.6937 1.80136C16.7376 1.81843 16.7811 1.83589 16.8248 1.85356C16.83 1.85559 16.8353 1.85763 16.8406 1.85986C16.8833 1.87713 16.9257 1.8948 16.9682 1.91267C16.9743 1.91511 16.9799 1.91755 16.9858 1.92019C17.0279 1.93786 17.0699 1.95594 17.1118 1.97422C17.1179 1.97686 17.1239 1.9795 17.13 1.98214C17.1717 2.00062 17.2135 2.01911 17.2552 2.038C17.2609 2.04064 17.2663 2.04328 17.272 2.04572C17.3143 2.06501 17.3563 2.08451 17.3984 2.10421C17.4028 2.10625 17.4073 2.10848 17.4118 2.11051C17.455 2.13103 17.4979 2.15154 17.5407 2.17246C17.5434 2.17368 17.5458 2.1749 17.5485 2.17632C17.638 2.21999 17.7268 2.26488 17.8152 2.31099C17.8174 2.31221 17.8198 2.31343 17.8223 2.31464C17.8645 2.33678 17.9068 2.35933 17.9488 2.38188C17.9531 2.38432 17.9573 2.38655 17.9616 2.38878C18.0024 2.41092 18.0433 2.43347 18.0839 2.45602C18.0892 2.45886 18.0945 2.46191 18.0999 2.46495C18.14 2.4873 18.1796 2.50984 18.2194 2.53279C18.2251 2.53605 18.2307 2.53909 18.2364 2.54255C18.2758 2.56529 18.3152 2.58845 18.3546 2.61181C18.3601 2.61506 18.3658 2.61831 18.3713 2.62156C18.4107 2.64512 18.4503 2.66909 18.4893 2.69306C18.4944 2.6961 18.4991 2.69895 18.5039 2.70199C18.544 2.72657 18.5838 2.75155 18.6236 2.77654C18.6272 2.77877 18.6305 2.78101 18.6341 2.78324C18.6752 2.80924 18.7162 2.83565 18.757 2.86226C18.758 2.86287 18.7593 2.86368 18.7605 2.86449C18.8023 2.89171 18.844 2.91933 18.8854 2.94716C18.8864 2.94797 18.8874 2.94858 18.8884 2.94919C18.9289 2.97641 18.9693 3.00403 19.0095 3.03186C19.0128 3.03409 19.0162 3.03633 19.0195 3.03876C19.0583 3.06558 19.0966 3.09259 19.1352 3.11981C19.1399 3.12326 19.1446 3.12651 19.1493 3.12997C19.1868 3.15678 19.2242 3.18379 19.2614 3.21101C19.2667 3.21487 19.2721 3.21873 19.2774 3.22259C19.3142 3.24981 19.3509 3.27703 19.3873 3.30465C19.3928 3.30871 19.3983 3.31277 19.4038 3.31704C19.4403 3.34466 19.4767 3.37249 19.5128 3.40052C19.5181 3.40438 19.523 3.40844 19.5283 3.4123C19.5648 3.44094 19.6014 3.46958 19.6378 3.49863C19.6418 3.50208 19.6461 3.50533 19.6503 3.50878C19.6877 3.53864 19.7247 3.5685 19.7617 3.59897C19.7643 3.601 19.7667 3.60323 19.7694 3.60526C19.8466 3.66864 19.9229 3.73343 19.9987 3.79884C20.0009 3.80087 20.0032 3.8029 20.0056 3.80514C20.042 3.83642 20.0779 3.86831 20.1137 3.90019C20.1177 3.90385 20.1218 3.9073 20.1258 3.91096C20.1606 3.94204 20.1951 3.97332 20.2296 4.0048C20.2345 4.00947 20.2394 4.01374 20.2445 4.01841C20.2782 4.04949 20.3119 4.08077 20.3454 4.11246C20.3507 4.11733 20.3558 4.1222 20.3611 4.12708C20.3944 4.15877 20.4277 4.19045 20.4606 4.22234C20.4657 4.22742 20.4709 4.23229 20.4758 4.23717C20.5091 4.26946 20.5422 4.30196 20.5749 4.33467C20.5796 4.33913 20.5841 4.34361 20.5886 4.34807C20.6221 4.38138 20.6554 4.4151 20.6883 4.44902C20.6917 4.45227 20.6952 4.45593 20.6986 4.45938C20.7328 4.49452 20.7669 4.52966 20.8006 4.56521C20.8022 4.56683 20.8037 4.56846 20.8051 4.57008C20.8396 4.60624 20.8737 4.6428 20.9079 4.67956C20.9091 4.68099 20.9103 4.68221 20.9115 4.68363C20.945 4.71978 20.9783 4.75614 21.0114 4.7929C21.0147 4.79656 21.0177 4.80001 21.021 4.80367C21.0529 4.83901 21.0846 4.87456 21.1159 4.91051C21.1203 4.91538 21.1244 4.92026 21.1286 4.92493C21.1595 4.96027 21.1902 4.99562 21.2205 5.03136C21.2251 5.03685 21.2298 5.04233 21.2347 5.04782C21.2647 5.08316 21.2946 5.11891 21.3243 5.15466C21.3267 5.1573 21.3289 5.16014 21.3314 5.16299C20.3375 5.56313 19.118 5.89523 17.767 6.13491C17.2907 4.45735 16.6296 3.03105 15.8386 1.98316C15.6682 1.75749 15.4925 1.55051 15.3121 1.36222C15.3241 1.36506 15.3361 1.36791 15.3481 1.37095C15.3511 1.37177 15.3542 1.37258 15.3574 1.37319ZM3.67591 5.15425C3.70548 5.11871 3.73526 5.08336 3.76524 5.04823C3.7701 5.04234 3.77493 5.03665 3.77979 5.03096C3.81007 4.99541 3.84058 4.96027 3.87117 4.92513C3.8755 4.92026 3.87992 4.91538 3.88427 4.91031C3.91569 4.87456 3.94722 4.83901 3.97896 4.80367C3.98225 4.80001 3.98555 4.79636 3.98875 4.7929C4.02182 4.75614 4.05499 4.71978 4.08838 4.68363C4.08973 4.68221 4.09107 4.68078 4.09241 4.67936C4.12631 4.6426 4.16051 4.60624 4.19482 4.57008C4.19638 4.56846 4.19783 4.56683 4.19937 4.56521C4.23317 4.52966 4.26717 4.49452 4.30138 4.45938C4.30477 4.45593 4.30818 4.45227 4.31167 4.44882C4.34476 4.4151 4.37803 4.38138 4.41143 4.34807C4.41596 4.34361 4.42048 4.33893 4.42501 4.33467C4.4579 4.30196 4.49097 4.26946 4.52416 4.23717C4.52919 4.23229 4.53435 4.22742 4.53939 4.22234C4.57248 4.19045 4.60565 4.15877 4.63904 4.12708C4.6442 4.1222 4.64944 4.11733 4.6546 4.11246C4.6882 4.08077 4.72189 4.04949 4.75579 4.01841C4.76063 4.01374 4.76558 4.00947 4.77042 4.0048C4.80483 3.97332 4.83946 3.94204 4.87427 3.91096C4.8783 3.9073 4.88232 3.90385 4.88634 3.90019C4.92219 3.86831 4.95816 3.83642 4.99444 3.80514C4.99679 3.8029 4.99917 3.80087 5.00145 3.79904C5.07717 3.73323 5.15362 3.66864 5.23081 3.60526C5.23339 3.60303 5.23587 3.601 5.23843 3.59897C5.27533 3.5685 5.31252 3.53844 5.34982 3.50878C5.35404 3.50533 5.35816 3.50208 5.36229 3.49863C5.39867 3.46958 5.43525 3.44094 5.47193 3.4123C5.47697 3.40844 5.48203 3.40438 5.48717 3.40052C5.52334 3.37249 5.55982 3.34466 5.5963 3.31704C5.60177 3.31277 5.60721 3.30871 5.61267 3.30465C5.64915 3.27703 5.68584 3.24981 5.72272 3.22259C5.72809 3.21873 5.73345 3.21487 5.73881 3.21101C5.776 3.18379 5.81329 3.15678 5.85081 3.12997C5.85554 3.12651 5.8603 3.12326 5.86503 3.11981C5.90336 3.09259 5.94181 3.06558 5.98054 3.03876C5.98393 3.03633 5.98735 3.03409 5.99074 3.03166C6.03081 3.00403 6.07111 2.97641 6.11162 2.94939C6.11263 2.94858 6.11367 2.94777 6.1147 2.94716C6.15612 2.91933 6.19776 2.89171 6.23958 2.86469C6.24072 2.86368 6.24196 2.86286 6.2432 2.86205C6.284 2.83544 6.32491 2.80944 6.36602 2.78324C6.36952 2.78101 6.37303 2.77877 6.37652 2.77654C6.41619 2.75155 6.45609 2.72678 6.49606 2.7022C6.50089 2.69915 6.50585 2.6961 6.51079 2.69306C6.54995 2.66909 6.58931 2.64512 6.62878 2.62176C6.63434 2.61831 6.64001 2.61506 6.64568 2.6116C6.68484 2.58845 6.72418 2.56529 6.76365 2.54255C6.76944 2.5393 6.77519 2.53584 6.78097 2.53259C6.82054 2.50984 6.86031 2.4873 6.90019 2.46495C6.90565 2.46191 6.91101 2.45886 6.91635 2.45602C6.95686 2.43347 6.99756 2.41092 7.03837 2.38899C7.04269 2.38655 7.04712 2.38432 7.05155 2.38188C7.09349 2.35913 7.13564 2.33678 7.17789 2.31464C7.18037 2.31343 7.18283 2.31201 7.1853 2.31079C7.2734 2.26488 7.36212 2.21999 7.45135 2.17632C7.45413 2.1751 7.45681 2.17368 7.45949 2.17246C7.50225 2.15154 7.54513 2.13103 7.58809 2.11071C7.59272 2.10848 7.59737 2.10625 7.602 2.10421C7.64385 2.08451 7.68587 2.06501 7.72792 2.04572C7.73368 2.04328 7.73935 2.04064 7.74512 2.038C7.78666 2.01911 7.82838 2.00062 7.87012 1.98214C7.8763 1.9795 7.88237 1.97686 7.88856 1.97422C7.93028 1.95594 7.97213 1.93786 8.01407 1.92019C8.02004 1.91755 8.02612 1.91511 8.03221 1.91247C8.07456 1.8948 8.11691 1.87713 8.15946 1.85986C8.16483 1.85763 8.17027 1.8556 8.17563 1.85336C8.21902 1.83589 8.26261 1.81843 8.3063 1.80136C8.31022 1.79994 8.31412 1.79832 8.31804 1.79689C8.36337 1.77922 8.40871 1.76196 8.45425 1.7449C8.45559 1.74429 8.45693 1.74388 8.45827 1.74327C8.50485 1.72601 8.55152 1.70894 8.5983 1.69208C8.59976 1.69168 8.60109 1.69107 8.60253 1.69066C8.64819 1.67421 8.69403 1.65816 8.7399 1.64232C8.74412 1.6409 8.74824 1.63948 8.75235 1.63806C8.79667 1.62282 8.84107 1.60799 8.8856 1.59337C8.89126 1.59154 8.89693 1.58971 8.90259 1.58788C8.94629 1.57346 8.98998 1.55965 9.03387 1.54584C9.04025 1.54381 9.04675 1.54178 9.05325 1.53975C9.09671 1.52614 9.14031 1.51293 9.1839 1.49993C9.1906 1.4979 9.1973 1.49587 9.20388 1.49404C9.24778 1.48104 9.29167 1.46825 9.33569 1.45565C9.34186 1.45403 9.34814 1.4522 9.35443 1.45037C9.39904 1.43798 9.44376 1.42559 9.48859 1.41361C9.49385 1.41219 9.49899 1.41076 9.50425 1.40934C9.55032 1.39716 9.59647 1.38497 9.64284 1.37339C9.64593 1.37258 9.64912 1.37177 9.65223 1.37095C9.66407 1.36791 9.67591 1.36506 9.68777 1.36222C9.50744 1.55051 9.33177 1.75749 9.16143 1.98316C8.37048 3.03105 7.70917 4.45715 7.23302 6.13491C5.88183 5.89503 4.66222 5.56313 3.6687 5.16299C3.67118 5.16014 3.67353 5.1573 3.67591 5.15425ZM9.55371 23.5921C9.53527 23.5872 9.51673 23.5822 9.49828 23.5772C9.4654 23.5682 9.43253 23.5592 9.39977 23.5499C9.3806 23.5444 9.36144 23.539 9.34227 23.5334C9.31011 23.5242 9.27808 23.5149 9.24603 23.5053C9.22635 23.4994 9.20667 23.4935 9.18698 23.4876C9.16174 23.4798 9.13661 23.4721 9.11136 23.4643C9.08498 23.4561 9.05859 23.4478 9.03233 23.4394C9.0109 23.4326 8.98945 23.4257 8.96812 23.4187C8.93824 23.409 8.90836 23.3991 8.87859 23.3892C8.85911 23.3828 8.83973 23.3762 8.82027 23.3696C8.78863 23.3589 8.7571 23.3479 8.72558 23.3369C8.70734 23.3305 8.6892 23.3241 8.67096 23.3176C8.6385 23.3061 8.60604 23.2943 8.57368 23.2825C8.55618 23.2762 8.53875 23.2697 8.52134 23.2633C8.48858 23.2512 8.45592 23.2388 8.42325 23.2263C8.40603 23.2198 8.38893 23.2133 8.37172 23.2067C8.34061 23.1946 8.30959 23.1823 8.27857 23.1701C8.25982 23.1627 8.24116 23.1553 8.22241 23.1477C8.1986 23.1381 8.17492 23.1285 8.15112 23.1187C8.13659 23.1127 8.12205 23.1066 8.10753 23.1006C8.07208 23.0859 8.03674 23.0711 8.0014 23.0559C7.98953 23.0509 7.97769 23.0457 7.96585 23.0407C7.92793 23.0243 7.89011 23.0078 7.85239 22.9911C7.84126 22.9862 7.83013 22.9811 7.81902 22.9762C7.78067 22.959 7.74234 22.9416 7.70411 22.924C7.69351 22.9191 7.68288 22.9141 7.67218 22.9092C7.63363 22.8914 7.5952 22.8732 7.55677 22.8549C7.54647 22.8499 7.53615 22.845 7.52596 22.84C7.48712 22.8214 7.44836 22.8024 7.40983 22.7834C7.40004 22.7785 7.39035 22.7737 7.38066 22.7688C7.3414 22.7493 7.30216 22.7295 7.2631 22.7094C7.25414 22.7048 7.24516 22.7002 7.23621 22.6956C7.1955 22.6745 7.155 22.6533 7.11452 22.6318C7.10731 22.628 7.09997 22.6242 7.09278 22.6203C7.02086 22.5818 6.94924 22.5427 6.87813 22.5027C6.87473 22.5008 6.87144 22.4989 6.86813 22.497C6.82456 22.4725 6.78108 22.4477 6.73779 22.4226C6.72893 22.4175 6.72018 22.4123 6.7113 22.4072C6.67371 22.3852 6.63619 22.3631 6.5989 22.3407C6.58858 22.3345 6.57828 22.3283 6.56798 22.322C6.53234 22.3006 6.49677 22.2789 6.46133 22.257C6.45019 22.2501 6.43908 22.2432 6.42795 22.2363C6.39363 22.215 6.35942 22.1933 6.32532 22.1716C6.31348 22.1641 6.30171 22.1566 6.28997 22.149C6.25701 22.1279 6.22422 22.1066 6.19156 22.0852C6.17879 22.0768 6.16601 22.0684 6.15334 22.0599C6.12242 22.0395 6.09163 22.0188 6.06092 21.9981C6.0467 21.9884 6.03238 21.9788 6.01826 21.9691C5.99157 21.9509 5.96498 21.9326 5.9385 21.9142C5.92046 21.9016 5.90244 21.8891 5.88451 21.8764C5.86503 21.8627 5.84565 21.849 5.82629 21.8352C5.80145 21.8175 5.77671 21.7998 5.75209 21.7819C5.73355 21.7685 5.715 21.7549 5.69646 21.7413C5.67131 21.7229 5.64607 21.7042 5.62102 21.6855C5.60341 21.6724 5.586 21.6592 5.56847 21.646C5.54664 21.6295 5.52488 21.6129 5.50315 21.5962C5.48284 21.5808 5.46265 21.5651 5.44246 21.5495C5.42194 21.5335 5.40145 21.5175 5.38104 21.5013C5.36024 21.4849 5.33942 21.4684 5.3187 21.4519C5.2981 21.4354 5.27759 21.4189 5.25709 21.4022C5.23741 21.3863 5.21773 21.3703 5.19815 21.3542C5.17641 21.3364 5.15466 21.3183 5.13303 21.3003C5.11623 21.2863 5.09943 21.2722 5.08263 21.258C5.05832 21.2375 5.03411 21.2169 5.01 21.1962C4.99753 21.1855 4.98505 21.1748 4.97258 21.1641C4.94425 21.1395 4.91612 21.1149 4.88809 21.0901C4.87614 21.0796 4.86418 21.0691 4.85224 21.0585C4.8239 21.0331 4.79556 21.0077 4.76743 20.9821C4.7562 20.9719 4.74497 20.9617 4.73384 20.9515C4.7051 20.9252 4.67656 20.8987 4.64812 20.8723C4.6378 20.8626 4.6276 20.853 4.61731 20.8433C4.58814 20.8159 4.55907 20.7883 4.53023 20.7606C4.52115 20.7518 4.51199 20.7429 4.50283 20.7341C4.47303 20.7052 4.44336 20.6763 4.41378 20.6471C4.40617 20.6396 4.39865 20.632 4.39101 20.6244C4.36022 20.5937 4.32951 20.5629 4.299 20.5319C4.29333 20.5262 4.28777 20.5205 4.2822 20.5147C4.25181 20.4837 4.22151 20.4525 4.19143 20.421C4.187 20.4163 4.18247 20.4116 4.17794 20.4069C4.1467 20.3741 4.11558 20.3411 4.08477 20.308C4.08014 20.3031 4.07551 20.2981 4.07098 20.2932C4.03976 20.2596 4.00874 20.2256 3.97793 20.1916C3.97267 20.1858 3.96741 20.1801 3.96227 20.1744C3.93186 20.1406 3.90168 20.1067 3.8716 20.0726C3.86623 20.0664 3.86077 20.0603 3.85531 20.0541C3.82543 20.02 3.79575 19.9857 3.76628 19.9513C3.76102 19.945 3.75568 19.9388 3.75041 19.9326C3.72084 19.8979 3.69147 19.863 3.6622 19.8279C3.65995 19.8252 3.65777 19.8225 3.65552 19.8197C4.64997 19.4178 5.87204 19.0844 7.22682 18.8436C7.70236 20.5267 8.364 21.9579 9.15619 23.0098C9.32393 23.2325 9.49684 23.4373 9.67426 23.6237C9.66789 23.622 9.66139 23.6205 9.65501 23.6188C9.62121 23.6101 9.58741 23.6012 9.55371 23.5921ZM21.3377 19.8279C21.3086 19.863 21.2792 19.8979 21.2495 19.9326C21.2442 19.9388 21.2389 19.945 21.2339 19.9512C21.2042 19.9857 21.1744 20.02 21.1445 20.0542C21.1392 20.0603 21.1339 20.0663 21.1286 20.0723C21.0986 20.1066 21.0681 20.1406 21.0377 20.1745C21.0326 20.18 21.0275 20.1857 21.0224 20.1914C20.9913 20.2256 20.9603 20.2595 20.929 20.2933C20.9245 20.2981 20.9198 20.3028 20.9156 20.3077C20.8845 20.3411 20.8532 20.3741 20.8217 20.4071C20.8175 20.4117 20.8132 20.4162 20.8089 20.4207C20.7785 20.4524 20.748 20.4839 20.7175 20.5151C20.712 20.5207 20.7066 20.5262 20.7013 20.5317C20.6706 20.5629 20.6397 20.5939 20.6087 20.6248C20.6011 20.6322 20.5938 20.6395 20.5863 20.6469C20.5567 20.6763 20.5268 20.7054 20.4967 20.7344C20.4878 20.743 20.4791 20.7517 20.4701 20.7604C20.4409 20.7883 20.4118 20.816 20.3824 20.8436C20.3724 20.8531 20.3623 20.8625 20.3523 20.8719C20.3237 20.8987 20.2948 20.9253 20.266 20.9518C20.255 20.9618 20.2441 20.9718 20.2331 20.9817C20.2047 21.0075 20.176 21.0332 20.1474 21.0588C20.1358 21.0691 20.1242 21.0794 20.1124 21.0897C20.0842 21.1147 20.0558 21.1396 20.0271 21.1644C20.0149 21.1748 20.0028 21.1852 19.9908 21.1957C19.966 21.2169 19.9412 21.238 19.9162 21.2591C19.9002 21.2727 19.8839 21.2862 19.8679 21.2996C19.8455 21.3182 19.8232 21.3367 19.8009 21.355C19.782 21.3706 19.7631 21.3859 19.7442 21.4013C19.7231 21.4185 19.7017 21.4356 19.6804 21.4526C19.6605 21.4684 19.6406 21.4843 19.6207 21.5C19.5996 21.5168 19.5782 21.5334 19.5569 21.55C19.5378 21.5648 19.5187 21.5796 19.4994 21.5944C19.4767 21.6118 19.4539 21.6292 19.431 21.6465C19.4139 21.6594 19.3969 21.6724 19.3796 21.6852C19.3542 21.7041 19.3286 21.7231 19.303 21.7418C19.2849 21.7551 19.2667 21.7683 19.2486 21.7815C19.2236 21.7996 19.1984 21.8176 19.1732 21.8357C19.1543 21.8491 19.1354 21.8626 19.1163 21.8759C19.0966 21.8898 19.0769 21.9035 19.0572 21.9172C19.0325 21.9344 19.0075 21.9515 18.9827 21.9685C18.9675 21.979 18.952 21.9894 18.9366 21.9997C18.9071 22.0197 18.8775 22.0396 18.8478 22.0593C18.8342 22.0683 18.8206 22.0773 18.8068 22.0863C18.7753 22.107 18.7434 22.1277 18.7115 22.1482C18.6987 22.1564 18.6861 22.1645 18.6733 22.1726C18.6402 22.1937 18.6071 22.2146 18.5738 22.2353C18.5618 22.2428 18.5498 22.2502 18.5377 22.2577C18.5033 22.2789 18.469 22.2999 18.4345 22.3206C18.4231 22.3275 18.4117 22.3344 18.4001 22.3412C18.3644 22.3626 18.3286 22.3839 18.2927 22.4048C18.2823 22.4109 18.2718 22.4171 18.2614 22.4231C18.2218 22.4461 18.182 22.4688 18.1422 22.4912C18.1353 22.4953 18.1282 22.4992 18.1213 22.5031C18.0977 22.5163 18.0741 22.5295 18.0504 22.5426C18.0479 22.544 18.0451 22.5454 18.0425 22.5469C17.9978 22.5715 17.9531 22.5958 17.9082 22.6198C17.8993 22.6246 17.8901 22.6293 17.8812 22.6342C17.8426 22.6547 17.8038 22.675 17.7648 22.6951C17.7548 22.7003 17.7447 22.7055 17.7345 22.7107C17.6965 22.7301 17.6586 22.7494 17.6206 22.7683C17.61 22.7737 17.5992 22.7789 17.5885 22.7843C17.5509 22.8028 17.5133 22.8212 17.4757 22.8393C17.4644 22.8448 17.4532 22.8501 17.4418 22.8556C17.4047 22.8733 17.3673 22.8909 17.3299 22.9084C17.3181 22.9137 17.3066 22.9192 17.2948 22.9246C17.258 22.9415 17.2208 22.9583 17.1839 22.9749C17.1715 22.9805 17.1591 22.9861 17.1467 22.9915C17.1107 23.0075 17.0746 23.0232 17.0384 23.0389C17.025 23.0447 17.0114 23.0505 16.998 23.0563C16.9673 23.0694 16.9363 23.0824 16.9054 23.0953C16.8863 23.1032 16.8674 23.1111 16.8483 23.119C16.825 23.1286 16.8016 23.138 16.7784 23.1474C16.7561 23.1564 16.7338 23.1653 16.7114 23.1741C16.684 23.185 16.6568 23.1957 16.6292 23.2064C16.6107 23.2135 16.5922 23.2206 16.5737 23.2276C16.5424 23.2395 16.5111 23.2514 16.4797 23.263C16.4614 23.2698 16.4429 23.2765 16.4246 23.2833C16.3931 23.2948 16.3616 23.3061 16.3302 23.3173C16.3113 23.324 16.2922 23.3307 16.2731 23.3374C16.2424 23.3481 16.2117 23.3588 16.1809 23.3692C16.1608 23.3761 16.1406 23.3829 16.1205 23.3896C16.0917 23.3992 16.0627 23.4088 16.0336 23.4182C16.0113 23.4254 15.9891 23.4326 15.967 23.4397C15.9416 23.4478 15.9164 23.4557 15.8912 23.4635C15.865 23.4717 15.8388 23.4798 15.8124 23.4878C15.7931 23.4936 15.774 23.4994 15.7545 23.5052C15.7222 23.5149 15.6897 23.5242 15.6572 23.5336C15.6385 23.5391 15.6196 23.5444 15.601 23.5497C15.5676 23.5591 15.5345 23.5683 15.5012 23.5774C15.4832 23.5822 15.4651 23.5872 15.447 23.592C15.4129 23.6011 15.379 23.6101 15.3448 23.6189C15.3383 23.6206 15.332 23.6221 15.3255 23.6238C15.5031 23.4373 15.6761 23.2325 15.8437 23.0098C16.6361 21.9579 17.2976 20.5267 17.7731 18.8436C19.1281 19.0844 20.3501 19.4178 21.3446 19.8197C21.3423 19.8225 21.3401 19.8252 21.3377 19.8279ZM24.9999 12.5001C24.9999 12.4771 24.9999 12.4542 24.9997 12.4314C24.9926 11.0811 24.771 9.75328 24.3412 8.48561C23.9912 7.45275 23.5082 6.47331 22.9021 5.56618L22.9159 5.55968L22.5474 5.06244C21.9807 4.29811 21.3261 3.59755 20.6011 2.98027C19.873 2.35994 19.0739 1.8235 18.2261 1.38598C18.1722 1.35816 18.118 1.33074 18.0638 1.30352C18.0093 1.2765 17.9547 1.2499 17.9001 1.22369C17.8726 1.21049 17.8452 1.19749 17.8178 1.18449C17.296 0.939123 16.7575 0.72991 16.2071 0.55929C15.9755 0.487385 15.7417 0.422182 15.5063 0.36409C15.3257 0.319607 15.1439 0.278984 14.9613 0.242626C14.9603 0.242422 14.9595 0.24222 14.9587 0.242018C14.9567 0.241611 14.9546 0.241203 14.9524 0.240797C14.1631 0.0839882 13.3559 0.00314903 12.545 0.000305176C12.5446 0.000305176 12.544 0.000305176 12.5434 0.000305176C12.5148 -0.000101089 12.4847 -0.000101089 12.4571 0.000305176C12.4565 0.000305176 12.4561 0.000305176 12.4557 0.000305176C12.3655 0.000711441 12.2753 0.00192833 12.1853 0.00416374C11.4674 0.0220375 10.7534 0.100847 10.0536 0.239782C9.86593 0.276953 9.67922 0.31839 9.49386 0.36409C8.55215 0.596663 7.63714 0.940342 6.77397 1.38598C5.92635 1.8235 5.12716 2.35994 4.39885 2.98027C3.67406 3.59755 3.01933 4.29811 2.4526 5.06244L2.08398 5.55968L2.09788 5.56618C1.49183 6.47351 1.00877 7.45275 0.658777 8.48561C0.229038 9.75348 0.00747497 11.0811 0.000182986 12.4314C2.04905e-05 12.4542 0 12.4771 0 12.5001C0 13.8593 0.216993 15.1961 0.644904 16.4734C0.993822 17.5149 1.47783 18.5026 2.08687 19.4173L2.07308 19.4239L2.43973 19.9201C2.4522 19.9372 2.46508 19.9538 2.47765 19.9708C2.50072 20.0017 2.5237 20.0327 2.5471 20.0634C2.55461 20.0733 2.56235 20.0831 2.56997 20.0929C2.59871 20.1305 2.62747 20.168 2.65662 20.2052C2.66228 20.2124 2.66805 20.2195 2.67372 20.2267C2.70506 20.2665 2.73648 20.306 2.76821 20.3454C2.77254 20.3508 2.77699 20.3561 2.78131 20.3615C2.81458 20.4025 2.84798 20.4434 2.88177 20.484C2.88702 20.4904 2.89248 20.4968 2.89784 20.5032C2.93081 20.5426 2.9639 20.582 2.99729 20.621C3.00263 20.6273 3.0082 20.6335 3.01356 20.6398C3.04715 20.6788 3.08075 20.7177 3.11475 20.7563C3.12032 20.7627 3.12609 20.769 3.13175 20.7754C3.16566 20.8138 3.19976 20.8521 3.23406 20.89C3.24004 20.8966 3.24623 20.9031 3.2522 20.9096C3.28641 20.9473 3.32072 20.9848 3.35535 21.022C3.36175 21.0288 3.36833 21.0356 3.37472 21.0425C3.40913 21.0791 3.44366 21.1159 3.47848 21.1521C3.48538 21.1592 3.49229 21.1662 3.49909 21.1733C3.53371 21.2093 3.56844 21.2451 3.60348 21.2806C3.61059 21.2877 3.6177 21.2947 3.62481 21.3018C3.65984 21.3372 3.69486 21.3723 3.73033 21.4072C3.73764 21.4145 3.74515 21.4216 3.75247 21.4288C3.78781 21.4634 3.82315 21.4979 3.85892 21.532C3.86654 21.5394 3.87438 21.5466 3.882 21.554C3.91764 21.5878 3.95331 21.6216 3.98926 21.6551C3.99718 21.6625 4.00523 21.6697 4.01317 21.6771C4.04902 21.7103 4.08499 21.7434 4.12125 21.7761C4.1296 21.7837 4.13815 21.7912 4.1465 21.7987C4.18257 21.8311 4.21863 21.8634 4.25511 21.8953C4.26356 21.9029 4.27221 21.9101 4.28066 21.9176C4.3158 21.9482 4.35104 21.9789 4.38648 22.0092C4.38782 22.0103 4.38916 22.0115 4.3905 22.0126C4.39081 22.0129 4.39124 22.0132 4.39154 22.0135C4.4005 22.0212 4.40968 22.0287 4.41874 22.0363C4.45502 22.0672 4.4915 22.0979 4.52816 22.1283C4.53888 22.1373 4.54981 22.146 4.56054 22.1548C4.59606 22.1841 4.63163 22.2132 4.66738 22.2421C4.67964 22.252 4.69199 22.2616 4.70426 22.2714C4.73879 22.299 4.7734 22.3266 4.80824 22.3538C4.82205 22.3646 4.83607 22.3751 4.84986 22.3858C4.88335 22.4118 4.91685 22.4379 4.95065 22.4634C4.96568 22.4749 4.98093 22.4861 4.99608 22.4974C5.02885 22.522 5.06161 22.5468 5.0946 22.5711C5.11097 22.583 5.12736 22.5948 5.14373 22.6067C5.17578 22.63 5.20784 22.6535 5.24007 22.6766C5.2575 22.689 5.27501 22.7011 5.29244 22.7134C5.32396 22.7356 5.35538 22.758 5.38703 22.78C5.40537 22.7927 5.42391 22.8052 5.44236 22.8178C5.47337 22.839 5.50429 22.8603 5.53541 22.8813C5.55476 22.8942 5.57434 22.907 5.59372 22.9199C5.62423 22.9401 5.65462 22.9605 5.68523 22.9804C5.70542 22.9936 5.72583 23.0064 5.74602 23.0194C5.7761 23.0388 5.80618 23.0583 5.83639 23.0773C5.85751 23.0906 5.87874 23.1036 5.89986 23.1168C5.92954 23.1353 5.95911 23.1539 5.98889 23.1721C6.01093 23.1856 6.03309 23.1987 6.05515 23.212C6.0843 23.2296 6.11336 23.2474 6.14273 23.2647C6.1656 23.2782 6.18858 23.2915 6.21155 23.3048C6.24031 23.3215 6.26895 23.3384 6.29779 23.3549C6.3214 23.3684 6.3451 23.3816 6.3688 23.395C6.39724 23.4111 6.42558 23.4272 6.45411 23.443C6.47843 23.4565 6.50296 23.4696 6.52748 23.483C6.55551 23.4983 6.58344 23.5137 6.61167 23.5288C6.63692 23.5423 6.66227 23.5555 6.6876 23.5687C6.71317 23.5822 6.73862 23.5959 6.76428 23.6091C6.76696 23.6106 6.76974 23.6119 6.77242 23.6134C6.77364 23.614 6.77488 23.6146 6.77612 23.6152C6.78766 23.6212 6.79911 23.627 6.81065 23.6328C6.82424 23.6399 6.83775 23.6469 6.85136 23.6538C6.86545 23.6609 6.87957 23.668 6.89368 23.6751C6.90668 23.6816 6.91966 23.6882 6.93274 23.6947C6.94737 23.702 6.96222 23.7092 6.97694 23.7165C6.98942 23.7226 7.00189 23.7288 7.01436 23.735C7.02971 23.7424 7.04517 23.7499 7.06053 23.7573C7.07247 23.7631 7.08431 23.7689 7.09628 23.7746C7.11214 23.7822 7.128 23.7898 7.14399 23.7973C7.15553 23.8028 7.16696 23.8083 7.1785 23.8137C7.19489 23.8214 7.21126 23.829 7.22776 23.8367C7.23889 23.8419 7.24992 23.8471 7.26103 23.8522C7.27782 23.8599 7.29472 23.8677 7.31162 23.8754C7.32235 23.8802 7.33317 23.8853 7.34388 23.8901C7.36108 23.898 7.37831 23.9056 7.39551 23.9133C7.40601 23.9181 7.41653 23.9228 7.42704 23.9274C7.44477 23.9353 7.46248 23.9431 7.48011 23.9508C7.49021 23.9553 7.5003 23.9597 7.51029 23.9641C7.52853 23.9721 7.54677 23.9799 7.56501 23.9877C7.5747 23.9918 7.58427 23.9961 7.59396 24.0002C7.6125 24.0081 7.63107 24.0159 7.64961 24.0238C7.65908 24.0277 7.66846 24.0317 7.67795 24.0356C7.6968 24.0436 7.71565 24.0514 7.73462 24.0591C7.74378 24.0629 7.75286 24.0667 7.76202 24.0705C7.78119 24.0784 7.80045 24.0861 7.81962 24.0938C7.82858 24.0975 7.83756 24.1012 7.84652 24.1048C7.866 24.1126 7.88548 24.1203 7.90504 24.1279C7.91371 24.1315 7.92246 24.135 7.93122 24.1384C7.951 24.1461 7.97079 24.1538 7.99067 24.1615C7.99912 24.1647 8.00757 24.1681 8.01612 24.1713C8.03621 24.1791 8.05642 24.1867 8.07651 24.1944C8.08476 24.1975 8.093 24.2006 8.10125 24.2037C8.12174 24.2114 8.14224 24.219 8.16286 24.2267C8.1707 24.2295 8.17862 24.2325 8.18656 24.2354C8.20738 24.2431 8.22818 24.2507 8.2491 24.2582C8.25674 24.261 8.26446 24.2638 8.27217 24.2665C8.2933 24.2742 8.31442 24.2817 8.33555 24.2891C8.34308 24.2918 8.3505 24.2945 8.35801 24.297C8.37934 24.3046 8.40067 24.312 8.42212 24.3193C8.42943 24.3219 8.43674 24.3244 8.44405 24.3269C8.46571 24.3343 8.48734 24.3416 8.50887 24.349C8.51608 24.3513 8.52319 24.3538 8.5303 24.3562C8.55236 24.3635 8.57429 24.3708 8.59635 24.378C8.60316 24.3803 8.60986 24.3825 8.61664 24.3847C8.63901 24.392 8.66127 24.3992 8.68363 24.4064C8.69021 24.4084 8.69682 24.4106 8.70342 24.4127C8.72598 24.4199 8.74865 24.427 8.77142 24.4341C8.77759 24.436 8.78389 24.438 8.79017 24.44C8.81326 24.4472 8.83634 24.4542 8.85951 24.4613C8.86538 24.463 8.87117 24.4649 8.87704 24.4666C8.90062 24.4738 8.92423 24.4808 8.94783 24.4878C8.95329 24.4894 8.95876 24.4911 8.96422 24.4926C8.98821 24.4997 9.01222 24.5066 9.03623 24.5136C9.04128 24.5151 9.04634 24.5165 9.05148 24.518C9.07602 24.525 9.10054 24.532 9.12505 24.5388C9.1297 24.5401 9.13423 24.5415 9.13886 24.5427C9.16391 24.5497 9.18885 24.5565 9.21387 24.5633C9.2181 24.5644 9.22233 24.5657 9.22655 24.5668C9.2521 24.5737 9.27778 24.5805 9.30343 24.5873C9.30703 24.5882 9.31054 24.5893 9.31413 24.5902C9.34042 24.5971 9.3667 24.6039 9.39307 24.6106C9.39605 24.6113 9.39904 24.6121 9.40203 24.6129C9.42894 24.6198 9.45593 24.6266 9.48293 24.6333C9.48477 24.6337 9.48652 24.6342 9.48839 24.6346C9.4889 24.6347 9.48941 24.6349 9.48993 24.635C9.49601 24.6365 9.50218 24.6381 9.50828 24.6396C9.53032 24.645 9.55247 24.6503 9.57464 24.6556C9.57669 24.6561 9.57866 24.6566 9.58071 24.6571C9.60978 24.6641 9.63892 24.6709 9.66809 24.6777C9.66913 24.6779 9.67014 24.6781 9.67128 24.6784C9.70116 24.6853 9.73116 24.6921 9.76114 24.6988C9.76145 24.6989 9.76185 24.699 9.76216 24.699C10.6564 24.8988 11.5761 25 12.5001 25C13.4241 25 14.3439 24.8988 15.2382 24.699C15.2687 24.6922 15.2989 24.6853 15.3292 24.6783C15.3298 24.6782 15.3304 24.678 15.3312 24.6779C15.3607 24.671 15.3901 24.6641 15.4198 24.657C15.4214 24.6567 15.4228 24.6562 15.4242 24.6559C15.4468 24.6505 15.4693 24.6451 15.4919 24.6396C15.498 24.638 15.5043 24.6365 15.5106 24.6349C15.511 24.6348 15.5114 24.6347 15.5118 24.6346C15.5132 24.6343 15.5144 24.634 15.5159 24.6336C15.5435 24.6268 15.5709 24.6199 15.5985 24.6129C15.601 24.6122 15.6034 24.6115 15.6058 24.6109C15.6326 24.6041 15.6595 24.5971 15.6863 24.5901C15.6893 24.5893 15.6924 24.5884 15.6954 24.5876C15.7216 24.5807 15.7478 24.5738 15.774 24.5667C15.7777 24.5657 15.7813 24.5647 15.785 24.5636C15.8106 24.5567 15.836 24.5497 15.8616 24.5426C15.8658 24.5415 15.8699 24.5403 15.8742 24.5391C15.8989 24.5321 15.9239 24.5251 15.9489 24.518C15.9536 24.5166 15.9582 24.5152 15.9629 24.5138C15.9875 24.5068 16.0117 24.4997 16.0362 24.4926C16.0413 24.4911 16.0464 24.4895 16.0517 24.488C16.0754 24.4809 16.0994 24.4738 16.1232 24.4665C16.1289 24.4649 16.1344 24.4632 16.1398 24.4615C16.1634 24.4544 16.1868 24.4472 16.2101 24.44C16.2162 24.4381 16.2221 24.4361 16.228 24.4343C16.2509 24.4272 16.2739 24.42 16.2971 24.4127C16.3033 24.4106 16.3094 24.4086 16.3157 24.4066C16.3383 24.3994 16.361 24.392 16.3836 24.3847C16.3901 24.3826 16.3968 24.3803 16.4033 24.3781C16.4256 24.3708 16.4478 24.3635 16.4699 24.3561C16.4768 24.3538 16.4837 24.3514 16.4904 24.3492C16.5124 24.3418 16.5343 24.3343 16.5562 24.3269C16.5633 24.3244 16.5702 24.322 16.5774 24.3195C16.5991 24.3121 16.6206 24.3046 16.6424 24.297C16.6497 24.2945 16.6568 24.2919 16.6641 24.2893C16.6854 24.2818 16.7067 24.2742 16.7281 24.2665C16.7356 24.2639 16.7431 24.2611 16.7506 24.2584C16.7717 24.2508 16.7927 24.2432 16.8136 24.2354C16.8215 24.2325 16.8292 24.2297 16.8369 24.2268C16.8577 24.2191 16.8784 24.2114 16.8991 24.2037C16.907 24.2007 16.9149 24.1976 16.9229 24.1946C16.9434 24.1869 16.9637 24.1792 16.9842 24.1713C16.9923 24.1681 17.0007 24.165 17.0088 24.1617C17.0289 24.154 17.049 24.1462 17.0691 24.1383C17.0774 24.135 17.0858 24.1317 17.0941 24.1284C17.114 24.1205 17.1339 24.1126 17.1538 24.1047C17.1623 24.1013 17.1709 24.0978 17.1794 24.0944C17.1989 24.0864 17.2186 24.0784 17.2383 24.0703C17.2468 24.0668 17.2556 24.0632 17.2643 24.0597C17.2836 24.0517 17.3031 24.0437 17.3226 24.0355C17.3313 24.0318 17.3401 24.0281 17.3488 24.0244C17.3681 24.0164 17.3872 24.0082 17.4065 24.0001C17.4154 23.9962 17.4246 23.9922 17.4335 23.9883C17.4524 23.9803 17.4713 23.9722 17.4902 23.9639C17.4995 23.9599 17.5087 23.9558 17.518 23.9517C17.5365 23.9436 17.555 23.9355 17.5735 23.9272C17.583 23.923 17.5925 23.9188 17.6019 23.9144C17.6204 23.9063 17.6387 23.8982 17.6567 23.8899C17.6665 23.8855 17.676 23.8811 17.6856 23.8767C17.7037 23.8685 17.7215 23.8603 17.7396 23.8519C17.7494 23.8474 17.7593 23.8428 17.7691 23.8382C17.7869 23.83 17.8046 23.8217 17.8223 23.8134C17.8322 23.8086 17.8422 23.8039 17.8523 23.7992C17.8698 23.7909 17.8873 23.7827 17.9045 23.7742C17.9149 23.7694 17.9251 23.7643 17.9354 23.7594C17.9525 23.7511 17.9697 23.7428 17.9866 23.7344C17.9972 23.7294 18.0075 23.7241 18.0181 23.719C18.0349 23.7107 18.0516 23.7025 18.0683 23.6941C18.079 23.6888 18.0898 23.6833 18.1005 23.678C18.117 23.6697 18.1335 23.6615 18.1499 23.6531C18.1609 23.6476 18.1716 23.642 18.1826 23.6364C18.1964 23.6293 18.2102 23.6223 18.2238 23.6152C18.2255 23.6145 18.2269 23.6137 18.2285 23.613C18.2309 23.6116 18.2334 23.6104 18.2358 23.6091C18.2596 23.5969 18.2829 23.5843 18.3065 23.5718C18.3339 23.5574 18.3616 23.5432 18.3888 23.5286C18.416 23.514 18.443 23.4992 18.4698 23.4846C18.4952 23.4707 18.5208 23.4569 18.5462 23.4429C18.5744 23.4273 18.6027 23.4112 18.6309 23.3952C18.6549 23.3818 18.6786 23.3685 18.7022 23.355C18.7316 23.3382 18.7607 23.321 18.7899 23.304C18.8125 23.291 18.8348 23.278 18.8574 23.2648C18.8872 23.2469 18.9171 23.2289 18.9469 23.2109C18.9683 23.198 18.9898 23.1852 19.0111 23.1723C19.0416 23.1536 19.0719 23.1345 19.1023 23.1156C19.1226 23.1029 19.1432 23.0903 19.1637 23.0774C19.1945 23.058 19.225 23.0381 19.2559 23.0183C19.2754 23.0056 19.2951 22.9933 19.3148 22.9805C19.3459 22.9603 19.3767 22.9397 19.4076 22.9192C19.4265 22.9065 19.4458 22.894 19.4647 22.8813C19.4958 22.8603 19.5268 22.839 19.5577 22.8178C19.5762 22.8051 19.5947 22.7927 19.613 22.78C19.6445 22.7582 19.6755 22.7361 19.7068 22.714C19.7245 22.7015 19.7424 22.6892 19.76 22.6765C19.7917 22.654 19.8232 22.631 19.8545 22.608C19.8715 22.5956 19.8886 22.5835 19.9057 22.571C19.9376 22.5474 19.9694 22.5235 20.0011 22.4996C20.0172 22.4875 20.0334 22.4756 20.0495 22.4633C20.0822 22.4387 20.1143 22.4136 20.1466 22.3887C20.1616 22.377 20.1768 22.3654 20.1921 22.3537C20.2252 22.3278 20.2579 22.3015 20.2908 22.2754C20.3048 22.2641 20.3188 22.2532 20.3328 22.2419C20.367 22.2145 20.4009 22.1867 20.4348 22.1588C20.4472 22.1485 20.4598 22.1385 20.4722 22.1282C20.5079 22.0984 20.5437 22.0684 20.579 22.0383C20.5888 22.0299 20.5987 22.0219 20.6085 22.0135C20.6089 22.0132 20.6093 22.0129 20.6097 22.0125C20.6109 22.0115 20.6123 22.0103 20.6135 22.0092C20.6487 21.9792 20.6836 21.9488 20.7183 21.9184C20.7273 21.9107 20.7362 21.9031 20.7452 21.8953C20.7815 21.8634 20.8175 21.8312 20.8534 21.7988C20.8617 21.7912 20.8703 21.7837 20.8788 21.7761C20.9152 21.7433 20.9513 21.71 20.9873 21.6767C20.9952 21.6695 21.0031 21.6623 21.0108 21.6551C21.0472 21.6212 21.0834 21.5869 21.1195 21.5526C21.1266 21.5457 21.1339 21.539 21.1412 21.5321C21.1774 21.4973 21.2136 21.4623 21.2493 21.427C21.2562 21.4204 21.2629 21.4139 21.2698 21.4072C21.3058 21.3717 21.3415 21.3358 21.3773 21.2999C21.3836 21.2934 21.3901 21.2871 21.3966 21.2806C21.4331 21.2435 21.4693 21.2062 21.5054 21.1687C21.5107 21.1631 21.5162 21.1578 21.5213 21.1522C21.5578 21.1144 21.5938 21.0762 21.6295 21.0379C21.6346 21.0326 21.6395 21.0273 21.6446 21.022C21.6805 20.9833 21.7163 20.9444 21.7518 20.9052C21.7565 20.9002 21.7612 20.8951 21.7658 20.8901C21.8024 20.8498 21.8386 20.8092 21.8745 20.7684C21.878 20.7644 21.8816 20.7605 21.8853 20.7564C21.9214 20.7153 21.9572 20.6739 21.9929 20.6323C21.9962 20.6286 21.9994 20.6249 22.0027 20.621C22.0398 20.5776 22.0766 20.534 22.1132 20.4902C22.1148 20.4881 22.1164 20.4862 22.1182 20.4841C22.1538 20.4411 22.1893 20.3979 22.2243 20.3545C22.2267 20.3515 22.2294 20.3485 22.2318 20.3455C22.2679 20.3005 22.3039 20.2553 22.3396 20.2099C22.3409 20.2084 22.3421 20.2068 22.3433 20.2053C22.3762 20.1633 22.4087 20.121 22.4412 20.0786C22.4451 20.0736 22.4489 20.0685 22.4528 20.0634C22.4778 20.0307 22.5021 19.9977 22.5267 19.9649C22.5379 19.9499 22.5493 19.9351 22.5602 19.9201L22.9269 19.4239L22.9131 19.4173C23.5222 18.5026 24.006 17.5149 24.355 16.4734C24.783 15.1961 24.9999 13.8593 24.9999 12.5001Z" fill="#28468A"/>
</g>
</svg>
