<svg width="36" height="36" viewBox="0 0 25 25" fill="none" xmlns="http://www.w3.org/2000/svg">
<path d="M1.16427 11.6649H0.396011C0.1773 11.6649 0 11.8421 0 12.0607V12.9038C0 13.1224 0.1773 13.2996 0.396011 13.2996H1.16427C1.38298 13.2996 1.56028 13.1224 1.56028 12.9038V12.0607C1.56028 11.8421 1.38298 11.6649 1.16427 11.6649Z" fill="#FF5C00"/>
<path d="M6.9967 11.6458H6.22844C6.00973 11.6458 5.83243 11.823 5.83243 12.0416V12.8847C5.83243 13.1033 6.00973 13.2805 6.22844 13.2805H6.9967C7.21541 13.2805 7.39271 13.1033 7.39271 12.8847V12.0416C7.39271 11.823 7.21541 11.6458 6.9967 11.6458Z" fill="#FF5C00"/>
<path d="M18.6616 11.6458H17.8933C17.6746 11.6458 17.4973 11.823 17.4973 12.0416V12.8847C17.4973 13.1033 17.6746 13.2805 17.8933 13.2805H18.6616C18.8803 13.2805 19.0576 13.1033 19.0576 12.8847V12.0416C19.0576 11.823 18.8803 11.6458 18.6616 11.6458Z" fill="#FF5C00"/>
<path d="M22.5499 19.3868H21.7816C21.5629 19.3868 21.3856 19.564 21.3856 19.7826V20.6257C21.3856 20.8443 21.5629 21.0215 21.7816 21.0215H22.5499C22.7686 21.0215 22.9459 20.8443 22.9459 20.6257V19.7826C22.9459 19.564 22.7686 19.3868 22.5499 19.3868Z" fill="#FF5C00"/>
<path d="M16.7174 19.3868H15.9492C15.7305 19.3868 15.5532 19.564 15.5532 19.7826V20.6257C15.5532 20.8443 15.7305 21.0215 15.9492 21.0215H16.7174C16.9361 21.0215 17.1134 20.8443 17.1134 20.6257V19.7826C17.1134 19.564 16.9361 19.3868 16.7174 19.3868Z" fill="#FF5C00"/>
<path d="M16.7174 3.88829H15.9492C15.7305 3.88829 15.5532 4.0655 15.5532 4.2841V5.12719C15.5532 5.34579 15.7305 5.523 15.9492 5.523H16.7174C16.9361 5.523 17.1134 5.34579 17.1134 5.12719V4.2841C17.1134 4.0655 16.9361 3.88829 16.7174 3.88829Z" fill="#FF5C00"/>
<path d="M22.5377 3.85274H21.7695C21.5507 3.85274 21.3734 4.02995 21.3734 4.24855V5.09164C21.3734 5.31024 21.5507 5.48745 21.7695 5.48745H22.5377C22.7564 5.48745 22.9337 5.31024 22.9337 5.09164V4.24855C22.9337 4.02995 22.7564 3.85274 22.5377 3.85274Z" fill="#FF5C00"/>
<path d="M24.494 11.6649H23.7258C23.507 11.6649 23.3297 11.8421 23.3297 12.0607V12.9038C23.3297 13.1224 23.507 13.2996 23.7258 13.2996H24.494C24.7127 13.2996 24.89 13.1224 24.89 12.9038V12.0607C24.89 11.8421 24.7127 11.6649 24.494 11.6649Z" fill="#FF5C00"/>
<path d="M3.09628 19.3868H2.32802C2.10931 19.3868 1.93201 19.564 1.93201 19.7826V20.6257C1.93201 20.8443 2.10931 21.0215 2.32802 21.0215H3.09628C3.31499 21.0215 3.49229 20.8443 3.49229 20.6257V19.7826C3.49229 19.564 3.31499 19.3868 3.09628 19.3868Z" fill="#FF5C00"/>
<path d="M8.92871 19.3868H8.16045C7.94173 19.3868 7.76443 19.564 7.76443 19.7826V20.6257C7.76443 20.8443 7.94173 21.0215 8.16045 21.0215H8.92871C9.14742 21.0215 9.32472 20.8443 9.32472 20.6257V19.7826C9.32472 19.564 9.14742 19.3868 8.92871 19.3868Z" fill="#FF5C00"/>
<path d="M8.92871 3.8336H8.16045C7.94173 3.8336 7.76443 4.01081 7.76443 4.22942V5.0725C7.76443 5.2911 7.94173 5.46831 8.16045 5.46831H8.92871C9.14742 5.46831 9.32472 5.2911 9.32472 5.0725V4.22942C9.32472 4.01081 9.14742 3.8336 8.92871 3.8336Z" fill="#FF5C00"/>
<path d="M3.09628 3.8336H2.32802C2.10931 3.8336 1.93201 4.01081 1.93201 4.22942V5.0725C1.93201 5.2911 2.10931 5.46831 2.32802 5.46831H3.09628C3.31499 5.46831 3.49229 5.2911 3.49229 5.0725V4.22942C3.49229 4.01081 3.31499 3.8336 3.09628 3.8336Z" fill="#FF5C00"/>
<path d="M10.885 23.3297H10.1167C9.89803 23.3297 9.72073 23.507 9.72073 23.7256V24.5686C9.72073 24.7872 9.89803 24.9645 10.1167 24.9645H10.885C11.1037 24.9645 11.281 24.7872 11.281 24.5686V23.7256C11.281 23.507 11.1037 23.3297 10.885 23.3297Z" fill="#FF5C00"/>
<path d="M8.94085 23.3297H8.17259C7.95388 23.3297 7.77658 23.507 7.77658 23.7256V24.5686C7.77658 24.7872 7.95388 24.9645 8.17259 24.9645H8.94085C9.15956 24.9645 9.33686 24.7872 9.33686 24.5686V23.7256C9.33686 23.507 9.15956 23.3297 8.94085 23.3297Z" fill="#FF5C00"/>
<path d="M14.7733 23.3297H14.005C13.7863 23.3297 13.609 23.507 13.609 23.7256V24.5686C13.609 24.7872 13.7863 24.9645 14.005 24.9645H14.7733C14.992 24.9645 15.1693 24.7872 15.1693 24.5686V23.7256C15.1693 23.507 14.992 23.3297 14.7733 23.3297Z" fill="#FF5C00"/>
<path d="M16.7174 23.3297H15.9492C15.7305 23.3297 15.5532 23.507 15.5532 23.7256V24.5686C15.5532 24.7872 15.7305 24.9645 15.9492 24.9645H16.7174C16.9361 24.9645 17.1134 24.7872 17.1134 24.5686V23.7256C17.1134 23.507 16.9361 23.3297 16.7174 23.3297Z" fill="#FF5C00"/>
<path d="M10.885 0H10.1167C9.89803 0 9.72073 0.177212 9.72073 0.395814V1.2389C9.72073 1.4575 9.89803 1.63471 10.1167 1.63471H10.885C11.1037 1.63471 11.281 1.4575 11.281 1.2389V0.395814C11.281 0.177212 11.1037 0 10.885 0Z" fill="#FF5C00"/>
<path d="M18.6616 15.5532H17.8933C17.6746 15.5532 17.4973 15.7304 17.4973 15.949V16.7921C17.4973 17.0107 17.6746 17.1879 17.8933 17.1879H18.6616C18.8803 17.1879 19.0576 17.0107 19.0576 16.7921V15.949C19.0576 15.7304 18.8803 15.5532 18.6616 15.5532Z" fill="#FF5C00"/>
<path d="M18.6616 7.77658H17.8933C17.6746 7.77658 17.4973 7.95379 17.4973 8.17239V9.01548C17.4973 9.23408 17.6746 9.41129 17.8933 9.41129H18.6616C18.8803 9.41129 19.0576 9.23408 19.0576 9.01548V8.17239C19.0576 7.95379 18.8803 7.77658 18.6616 7.77658Z" fill="#FF5C00"/>
<path d="M8.94085 0H8.17259C7.95388 0 7.77658 0.177212 7.77658 0.395814V1.2389C7.77658 1.4575 7.95388 1.63471 8.17259 1.63471H8.94085C9.15956 1.63471 9.33686 1.4575 9.33686 1.2389V0.395814C9.33686 0.177212 9.15956 0 8.94085 0Z" fill="#FF5C00"/>
<path d="M14.7733 0H14.005C13.7863 0 13.609 0.177212 13.609 0.395814V1.2389C13.609 1.4575 13.7863 1.63471 14.005 1.63471H14.7733C14.992 1.63471 15.1693 1.4575 15.1693 1.2389V0.395814C15.1693 0.177212 14.992 0 14.7733 0Z" fill="#FF5C00"/>
<path d="M1.16427 13.6281H0.396011C0.1773 13.6281 0 13.8053 0 14.0239V14.867C0 15.0856 0.1773 15.2628 0.396011 15.2628H1.16427C1.38298 15.2628 1.56028 15.0856 1.56028 14.867V14.0239C1.56028 13.8053 1.38298 13.6281 1.16427 13.6281Z" fill="#FF5C00"/>
<path d="M6.9967 13.609H6.22844C6.00973 13.609 5.83243 13.7862 5.83243 14.0048V14.8479C5.83243 15.0665 6.00973 15.2437 6.22844 15.2437H6.9967C7.21541 15.2437 7.39271 15.0665 7.39271 14.8479V14.0048C7.39271 13.7862 7.21541 13.609 6.9967 13.609Z" fill="#FF5C00"/>
<path d="M18.6616 13.609H17.8933C17.6746 13.609 17.4973 13.7862 17.4973 14.0048V14.8479C17.4973 15.0665 17.6746 15.2437 17.8933 15.2437H18.6616C18.8803 15.2437 19.0576 15.0665 19.0576 14.8479V14.0048C19.0576 13.7862 18.8803 13.609 18.6616 13.609Z" fill="#FF5C00"/>
<path d="M20.6057 21.35H19.8374C19.6187 21.35 19.4414 21.5272 19.4414 21.7458V22.5889C19.4414 22.8075 19.6187 22.9847 19.8374 22.9847H20.6057C20.8244 22.9847 21.0017 22.8075 21.0017 22.5889V21.7458C21.0017 21.5272 20.8244 21.35 20.6057 21.35Z" fill="#FF5C00"/>
<path d="M14.7733 21.35H14.005C13.7863 21.35 13.609 21.5272 13.609 21.7458V22.5889C13.609 22.8075 13.7863 22.9847 14.005 22.9847H14.7733C14.992 22.9847 15.1693 22.8075 15.1693 22.5889V21.7458C15.1693 21.5272 14.992 21.35 14.7733 21.35Z" fill="#FF5C00"/>
<path d="M24.494 13.6281H23.7258C23.507 13.6281 23.3297 13.8053 23.3297 14.0239V14.867C23.3297 15.0856 23.507 15.2628 23.7258 15.2628H24.494C24.7127 15.2628 24.89 15.0856 24.89 14.867V14.0239C24.89 13.8053 24.7127 13.6281 24.494 13.6281Z" fill="#FF5C00"/>
<path d="M1.16427 9.73981H0.396011C0.1773 9.73981 0 9.91702 0 10.1356V10.9787C0 11.1973 0.1773 11.3745 0.396011 11.3745H1.16427C1.38298 11.3745 1.56028 11.1973 1.56028 10.9787V10.1356C1.56028 9.91702 1.38298 9.73981 1.16427 9.73981Z" fill="#FF5C00"/>
<path d="M6.9967 9.72072H6.22844C6.00973 9.72072 5.83243 9.89793 5.83243 10.1165V10.9596C5.83243 11.1782 6.00973 11.3554 6.22844 11.3554H6.9967C7.21541 11.3554 7.39271 11.1782 7.39271 10.9596V10.1165C7.39271 9.89793 7.21541 9.72072 6.9967 9.72072Z" fill="#FF5C00"/>
<path d="M18.6616 9.72072H17.8933C17.6746 9.72072 17.4973 9.89793 17.4973 10.1165V10.9596C17.4973 11.1782 17.6746 11.3554 17.8933 11.3554H18.6616C18.8803 11.3554 19.0576 11.1782 19.0576 10.9596V10.1165C19.0576 9.89793 18.8803 9.72072 18.6616 9.72072Z" fill="#FF5C00"/>
<path d="M14.7733 1.96323H14.005C13.7863 1.96323 13.609 2.14044 13.609 2.35904V3.20212C13.609 3.42073 13.7863 3.59794 14.005 3.59794H14.7733C14.992 3.59794 15.1693 3.42073 15.1693 3.20212V2.35904C15.1693 2.14044 14.992 1.96323 14.7733 1.96323Z" fill="#FF5C00"/>
<path d="M20.5936 1.92767H19.8253C19.6066 1.92767 19.4293 2.10489 19.4293 2.32349V3.16657C19.4293 3.38517 19.6066 3.56239 19.8253 3.56239H20.5936C20.8123 3.56239 20.9896 3.38517 20.9896 3.16657V2.32349C20.9896 2.10489 20.8123 1.92767 20.5936 1.92767Z" fill="#FF5C00"/>
<path d="M24.494 9.73981H23.7258C23.507 9.73981 23.3297 9.91702 23.3297 10.1356V10.9787C23.3297 11.1973 23.507 11.3745 23.7258 11.3745H24.494C24.7127 11.3745 24.89 11.1973 24.89 10.9787V10.1356C24.89 9.91702 24.7127 9.73981 24.494 9.73981Z" fill="#FF5C00"/>
<path d="M12.8413 11.7004H12.073C11.8543 11.7004 11.677 11.8776 11.677 12.0962V12.9393C11.677 13.1579 11.8543 13.3351 12.073 13.3351H12.8413C13.06 13.3351 13.2373 13.1579 13.2373 12.9393V12.0962C13.2373 11.8776 13.06 11.7004 12.8413 11.7004Z" fill="#FF5C00"/>
<path d="M12.8413 19.477H12.073C11.8543 19.477 11.677 19.6542 11.677 19.8728V20.7159C11.677 20.9345 11.8543 21.1117 12.073 21.1117H12.8413C13.06 21.1117 13.2373 20.9345 13.2373 20.7159V19.8728C13.2373 19.6542 13.06 19.477 12.8413 19.477Z" fill="#FF5C00"/>
<path d="M12.8413 3.92384H12.073C11.8543 3.92384 11.677 4.10106 11.677 4.31966V5.16274C11.677 5.38134 11.8543 5.55856 12.073 5.55856H12.8413C13.06 5.55856 13.2373 5.38134 13.2373 5.16274V4.31966C13.2373 4.10106 13.06 3.92384 12.8413 3.92384Z" fill="#FF5C00"/>
<path d="M1.16427 15.5532H0.396011C0.1773 15.5532 0 15.7304 0 15.949V16.7921C0 17.0107 0.1773 17.1879 0.396011 17.1879H1.16427C1.38298 17.1879 1.56028 17.0107 1.56028 16.7921V15.949C1.56028 15.7304 1.38298 15.5532 1.16427 15.5532Z" fill="#FF5C00"/>
<path d="M1.16427 17.4973H0.396011C0.1773 17.4973 0 17.6745 0 17.8931V18.7362C0 18.9548 0.1773 19.132 0.396011 19.132H1.16427C1.38298 19.132 1.56028 18.9548 1.56028 18.7362V17.8931C1.56028 17.6745 1.38298 17.4973 1.16427 17.4973Z" fill="#FF5C00"/>
<path d="M1.16427 5.83243H0.396011C0.1773 5.83243 0 6.00964 0 6.22824V7.07133C0 7.28993 0.1773 7.46714 0.396011 7.46714H1.16427C1.38298 7.46714 1.56028 7.28993 1.56028 7.07133V6.22824C1.56028 6.00964 1.38298 5.83243 1.16427 5.83243Z" fill="#FF5C00"/>
<path d="M24.494 5.83243H23.7258C23.507 5.83243 23.3297 6.00964 23.3297 6.22824V7.07133C23.3297 7.28993 23.507 7.46714 23.7258 7.46714H24.494C24.7127 7.46714 24.89 7.28993 24.89 7.07133V6.22824C24.89 6.00964 24.7127 5.83243 24.494 5.83243Z" fill="#FF5C00"/>
<path d="M24.494 17.4973H23.7258C23.507 17.4973 23.3297 17.6745 23.3297 17.8931V18.7362C23.3297 18.9548 23.507 19.132 23.7258 19.132H24.494C24.7127 19.132 24.89 18.9548 24.89 18.7362V17.8931C24.89 17.6745 24.7127 17.4973 24.494 17.4973Z" fill="#FF5C00"/>
<path d="M3.10843 15.5532H2.34016C2.12145 15.5532 1.94415 15.7304 1.94415 15.949V16.7921C1.94415 17.0107 2.12145 17.1879 2.34016 17.1879H3.10843C3.32714 17.1879 3.50444 17.0107 3.50444 16.7921V15.949C3.50444 15.7304 3.32714 15.5532 3.10843 15.5532Z" fill="#FF5C00"/>
<path d="M3.10843 7.77658H2.34016C2.12145 7.77658 1.94415 7.95379 1.94415 8.17239V9.01548C1.94415 9.23408 2.12145 9.41129 2.34016 9.41129H3.10843C3.32714 9.41129 3.50444 9.23408 3.50444 9.01548V8.17239C3.50444 7.95379 3.32714 7.77658 3.10843 7.77658Z" fill="#FF5C00"/>
<path d="M8.94085 15.5532H8.17259C7.95388 15.5532 7.77658 15.7304 7.77658 15.949V16.7921C7.77658 17.0107 7.95388 17.1879 8.17259 17.1879H8.94085C9.15956 17.1879 9.33686 17.0107 9.33686 16.7921V15.949C9.33686 15.7304 9.15956 15.5532 8.94085 15.5532Z" fill="#FF5C00"/>
<path d="M8.94085 7.77658H8.17259C7.95388 7.77658 7.77658 7.95379 7.77658 8.17239V9.01548C7.77658 9.23408 7.95388 9.41129 8.17259 9.41129H8.94085C9.15956 9.41129 9.33686 9.23408 9.33686 9.01548V8.17239C9.33686 7.95379 9.15956 7.77658 8.94085 7.77658Z" fill="#FF5C00"/>
<path d="M14.7733 15.5532H14.005C13.7863 15.5532 13.609 15.7304 13.609 15.949V16.7921C13.609 17.0107 13.7863 17.1879 14.005 17.1879H14.7733C14.992 17.1879 15.1693 17.0107 15.1693 16.7921V15.949C15.1693 15.7304 14.992 15.5532 14.7733 15.5532Z" fill="#FF5C00"/>
<path d="M14.7733 7.77658H14.005C13.7863 7.77658 13.609 7.95379 13.609 8.17239V9.01548C13.609 9.23408 13.7863 9.41129 14.005 9.41129H14.7733C14.992 9.41129 15.1693 9.23408 15.1693 9.01548V8.17239C15.1693 7.95379 14.992 7.77658 14.7733 7.77658Z" fill="#FF5C00"/>
<path d="M20.6057 15.5532H19.8374C19.6187 15.5532 19.4414 15.7304 19.4414 15.949V16.7921C19.4414 17.0107 19.6187 17.1879 19.8374 17.1879H20.6057C20.8244 17.1879 21.0017 17.0107 21.0017 16.7921V15.949C21.0017 15.7304 20.8244 15.5532 20.6057 15.5532Z" fill="#FF5C00"/>
<path d="M20.6057 7.77658H19.8374C19.6187 7.77658 19.4414 7.95379 19.4414 8.17239V9.01548C19.4414 9.23408 19.6187 9.41129 19.8374 9.41129H20.6057C20.8244 9.41129 21.0017 9.23408 21.0017 9.01548V8.17239C21.0017 7.95379 20.8244 7.77658 20.6057 7.77658Z" fill="#FF5C00"/>
<path d="M5.05255 15.5532H4.28429C4.06558 15.5532 3.88828 15.7304 3.88828 15.949V16.7921C3.88828 17.0107 4.06558 17.1879 4.28429 17.1879H5.05255C5.27126 17.1879 5.44856 17.0107 5.44856 16.7921V15.949C5.44856 15.7304 5.27126 15.5532 5.05255 15.5532Z" fill="#FF5C00"/>
<path d="M5.05255 7.77658H4.28429C4.06558 7.77658 3.88828 7.95379 3.88828 8.17239V9.01548C3.88828 9.23408 4.06558 9.41129 4.28429 9.41129H5.05255C5.27126 9.41129 5.44856 9.23408 5.44856 9.01548V8.17239C5.44856 7.95379 5.27126 7.77658 5.05255 7.77658Z" fill="#FF5C00"/>
<path d="M10.885 15.5532H10.1167C9.89803 15.5532 9.72073 15.7304 9.72073 15.949V16.7921C9.72073 17.0107 9.89803 17.1879 10.1167 17.1879H10.885C11.1037 17.1879 11.281 17.0107 11.281 16.7921V15.949C11.281 15.7304 11.1037 15.5532 10.885 15.5532Z" fill="#FF5C00"/>
<path d="M10.885 7.77658H10.1167C9.89803 7.77658 9.72073 7.95379 9.72073 8.17239V9.01548C9.72073 9.23408 9.89803 9.41129 10.1167 9.41129H10.885C11.1037 9.41129 11.281 9.23408 11.281 9.01548V8.17239C11.281 7.95379 11.1037 7.77658 10.885 7.77658Z" fill="#FF5C00"/>
<path d="M16.7174 15.5532H15.9492C15.7305 15.5532 15.5532 15.7304 15.5532 15.949V16.7921C15.5532 17.0107 15.7305 17.1879 15.9492 17.1879H16.7174C16.9361 17.1879 17.1134 17.0107 17.1134 16.7921V15.949C17.1134 15.7304 16.9361 15.5532 16.7174 15.5532Z" fill="#FF5C00"/>
<path d="M16.7174 7.77658H15.9492C15.7305 7.77658 15.5532 7.95379 15.5532 8.17239V9.01548C15.5532 9.23408 15.7305 9.41129 15.9492 9.41129H16.7174C16.9361 9.41129 17.1134 9.23408 17.1134 9.01548V8.17239C17.1134 7.95379 16.9361 7.77658 16.7174 7.77658Z" fill="#FF5C00"/>
<path d="M22.5499 15.5532H21.7816C21.5629 15.5532 21.3856 15.7304 21.3856 15.949V16.7921C21.3856 17.0107 21.5629 17.1879 21.7816 17.1879H22.5499C22.7686 17.1879 22.9459 17.0107 22.9459 16.7921V15.949C22.9459 15.7304 22.7686 15.5532 22.5499 15.5532Z" fill="#FF5C00"/>
<path d="M22.5499 7.77658H21.7816C21.5629 7.77658 21.3856 7.95379 21.3856 8.17239V9.01548C21.3856 9.23408 21.5629 9.41129 21.7816 9.41129H22.5499C22.7686 9.41129 22.9459 9.23408 22.9459 9.01548V8.17239C22.9459 7.95379 22.7686 7.77658 22.5499 7.77658Z" fill="#FF5C00"/>
<path d="M12.8413 15.5887H12.073C11.8543 15.5887 11.677 15.7659 11.677 15.9845V16.8276C11.677 17.0462 11.8543 17.2234 12.073 17.2234H12.8413C13.06 17.2234 13.2373 17.0462 13.2373 16.8276V15.9845C13.2373 15.7659 13.06 15.5887 12.8413 15.5887Z" fill="#FF5C00"/>
<path d="M12.8413 23.3653H12.073C11.8543 23.3653 11.677 23.5425 11.677 23.7611V24.6042C11.677 24.8228 11.8543 25 12.073 25H12.8413C13.06 25 13.2373 24.8228 13.2373 24.6042V23.7611C13.2373 23.5425 13.06 23.3653 12.8413 23.3653Z" fill="#FF5C00"/>
<path d="M1.16427 7.77658H0.396011C0.1773 7.77658 0 7.95379 0 8.17239V9.01548C0 9.23408 0.1773 9.41129 0.396011 9.41129H1.16427C1.38298 9.41129 1.56028 9.23408 1.56028 9.01548V8.17239C1.56028 7.95379 1.38298 7.77658 1.16427 7.77658Z" fill="#FF5C00"/>
<path d="M12.8413 7.81213H12.073C11.8543 7.81213 11.677 7.98935 11.677 8.20795V9.05103C11.677 9.26963 11.8543 9.44685 12.073 9.44685H12.8413C13.06 9.44685 13.2373 9.26963 13.2373 9.05103V8.20795C13.2373 7.98935 13.06 7.81213 12.8413 7.81213Z" fill="#FF5C00"/>
<path d="M24.494 7.77658H23.7258C23.507 7.77658 23.3297 7.95379 23.3297 8.17239V9.01548C23.3297 9.23408 23.507 9.41129 23.7258 9.41129H24.494C24.7127 9.41129 24.89 9.23408 24.89 9.01548V8.17239C24.89 7.95379 24.7127 7.77658 24.494 7.77658Z" fill="#FF5C00"/>
<path d="M24.494 15.5532H23.7258C23.507 15.5532 23.3297 15.7304 23.3297 15.949V16.7921C23.3297 17.0107 23.507 17.1879 23.7258 17.1879H24.494C24.7127 17.1879 24.89 17.0107 24.89 16.7921V15.949C24.89 15.7304 24.7127 15.5532 24.494 15.5532Z" fill="#FF5C00"/>
<path d="M12.8413 0.035553H12.073C11.8543 0.035553 11.677 0.212765 11.677 0.431367V1.27445C11.677 1.49305 11.8543 1.67026 12.073 1.67026H12.8413C13.06 1.67026 13.2373 1.49305 13.2373 1.27445V0.431367C13.2373 0.212765 13.06 0.035553 12.8413 0.035553Z" fill="#FF5C00"/>
<path d="M7.00885 15.5887H6.24058C6.02187 15.5887 5.84457 15.7659 5.84457 15.9845V16.8276C5.84457 17.0462 6.02187 17.2234 6.24058 17.2234H7.00885C7.22756 17.2234 7.40486 17.0462 7.40486 16.8276V15.9845C7.40486 15.7659 7.22756 15.5887 7.00885 15.5887Z" fill="#FF5C00"/>
<path d="M7.00885 7.81213H6.24058C6.02187 7.81213 5.84457 7.98935 5.84457 8.20795V9.05103C5.84457 9.26963 6.02187 9.44685 6.24058 9.44685H7.00885C7.22756 9.44685 7.40486 9.26963 7.40486 9.05103V8.20795C7.40486 7.98935 7.22756 7.81213 7.00885 7.81213Z" fill="#FF5C00"/>
<path d="M16.7296 0.035553H15.9613C15.7426 0.035553 15.5653 0.212765 15.5653 0.431367V1.27445C15.5653 1.49305 15.7426 1.67026 15.9613 1.67026H16.7296C16.9483 1.67026 17.1256 1.49305 17.1256 1.27445V0.431367C17.1256 0.212765 16.9483 0.035553 16.7296 0.035553Z" fill="#FF5C00"/>
<path d="M12.8413 13.6637H12.073C11.8543 13.6637 11.677 13.8409 11.677 14.0595V14.9026C11.677 15.1212 11.8543 15.2984 12.073 15.2984H12.8413C13.06 15.2984 13.2373 15.1212 13.2373 14.9026V14.0595C13.2373 13.8409 13.06 13.6637 12.8413 13.6637Z" fill="#FF5C00"/>
<path d="M12.8413 21.4403H12.073C11.8543 21.4403 11.677 21.6175 11.677 21.8361V22.6792C11.677 22.8978 11.8543 23.075 12.073 23.075H12.8413C13.06 23.075 13.2373 22.8978 13.2373 22.6792V21.8361C13.2373 21.6175 13.06 21.4403 12.8413 21.4403Z" fill="#FF5C00"/>
<path d="M6.9967 5.83243H6.22844C6.00973 5.83243 5.83243 6.00964 5.83243 6.22824V7.07133C5.83243 7.28993 6.00973 7.46714 6.22844 7.46714H6.9967C7.21541 7.46714 7.39271 7.28993 7.39271 7.07133V6.22824C7.39271 6.00964 7.21541 5.83243 6.9967 5.83243Z" fill="#FF5C00"/>
<path d="M12.8413 5.88712H12.073C11.8543 5.88712 11.677 6.06433 11.677 6.28293V7.12601C11.677 7.34462 11.8543 7.52183 12.073 7.52183H12.8413C13.06 7.52183 13.2373 7.34462 13.2373 7.12601V6.28293C13.2373 6.06433 13.06 5.88712 12.8413 5.88712Z" fill="#FF5C00"/>
<path d="M18.6737 5.88712H17.9055C17.6868 5.88712 17.5095 6.06433 17.5095 6.28293V7.12601C17.5095 7.34462 17.6868 7.52183 17.9055 7.52183H18.6737C18.8924 7.52183 19.0697 7.34462 19.0697 7.12601V6.28293C19.0697 6.06433 18.8924 5.88712 18.6737 5.88712Z" fill="#FF5C00"/>
<path d="M5.05255 21.3856H4.28429C4.06558 21.3856 3.88828 21.5628 3.88828 21.7814V22.6245C3.88828 22.8431 4.06558 23.0203 4.28429 23.0203H5.05255C5.27126 23.0203 5.44856 22.8431 5.44856 22.6245V21.7814C5.44856 21.5628 5.27126 21.3856 5.05255 21.3856Z" fill="#FF5C00"/>
<path d="M10.885 21.3856H10.1167C9.89803 21.3856 9.72073 21.5628 9.72073 21.7814V22.6245C9.72073 22.8431 9.89803 23.0203 10.1167 23.0203H10.885C11.1037 23.0203 11.281 22.8431 11.281 22.6245V21.7814C11.281 21.5628 11.1037 21.3856 10.885 21.3856Z" fill="#FF5C00"/>
<path d="M6.9967 17.4973H6.22844C6.00973 17.4973 5.83243 17.6745 5.83243 17.8931V18.7362C5.83243 18.9548 6.00973 19.132 6.22844 19.132H6.9967C7.21541 19.132 7.39271 18.9548 7.39271 18.7362V17.8931C7.39271 17.6745 7.21541 17.4973 6.9967 17.4973Z" fill="#FF5C00"/>
<path d="M12.8413 17.552H12.073C11.8543 17.552 11.677 17.7292 11.677 17.9478V18.7909C11.677 19.0095 11.8543 19.1867 12.073 19.1867H12.8413C13.06 19.1867 13.2373 19.0095 13.2373 18.7909V17.9478C13.2373 17.7292 13.06 17.552 12.8413 17.552Z" fill="#FF5C00"/>
<path d="M18.6737 17.4973H17.9055C17.6868 17.4973 17.5095 17.6745 17.5095 17.8931V18.7362C17.5095 18.9548 17.6868 19.132 17.9055 19.132H18.6737C18.8924 19.132 19.0697 18.9548 19.0697 18.7362V17.8931C19.0697 17.6745 18.8924 17.4973 18.6737 17.4973Z" fill="#FF5C00"/>
<path d="M12.8413 9.77541H12.073C11.8543 9.77541 11.677 9.95262 11.677 10.1712V11.0143C11.677 11.2329 11.8543 11.4101 12.073 11.4101H12.8413C13.06 11.4101 13.2373 11.2329 13.2373 11.0143V10.1712C13.2373 9.95262 13.06 9.77541 12.8413 9.77541Z" fill="#FF5C00"/>
<path d="M12.8413 1.99883H12.073C11.8543 1.99883 11.677 2.17604 11.677 2.39464V3.23772C11.677 3.45633 11.8543 3.63354 12.073 3.63354H12.8413C13.06 3.63354 13.2373 3.45633 13.2373 3.23772V2.39464C13.2373 2.17604 13.06 1.99883 12.8413 1.99883Z" fill="#FF5C00"/>
<path d="M10.885 1.94414H10.1167C9.89803 1.94414 9.72073 2.12135 9.72073 2.33995V3.18304C9.72073 3.40164 9.89803 3.57885 10.1167 3.57885H10.885C11.1037 3.57885 11.281 3.40164 11.281 3.18304V2.33995C11.281 2.12135 11.1037 1.94414 10.885 1.94414Z" fill="#FF5C00"/>
<path d="M5.05255 1.94414H4.28429C4.06558 1.94414 3.88828 2.12135 3.88828 2.33995V3.18304C3.88828 3.40164 4.06558 3.57885 4.28429 3.57885H5.05255C5.27126 3.57885 5.44856 3.40164 5.44856 3.18304V2.33995C5.44856 2.12135 5.27126 1.94414 5.05255 1.94414Z" fill="#FF5C00"/>
</svg>
