<svg width="24" height="25" viewBox="0 0 24 25" fill="none" xmlns="http://www.w3.org/2000/svg">
<path d="M12 22.1818C10.6 22.1818 9.29167 21.9193 8.075 21.3943C6.85833 20.8693 5.8 20.1568 4.9 19.2568C4 18.3568 3.29167 17.2943 2.775 16.0693C2.25833 14.8443 2 13.5318 2 12.1318C2 10.7318 2.25833 9.42759 2.775 8.21926C3.29167 7.01093 4 5.95676 4.9 5.05676C5.8 4.15676 6.85833 3.45259 8.075 2.94426C9.29167 2.43593 10.6 2.18176 12 2.18176C13.4 2.18176 14.7083 2.43593 15.925 2.94426C17.1417 3.45259 18.2 4.15676 19.1 5.05676C20 5.95676 20.7083 7.01093 21.225 8.21926C21.7417 9.42759 22 10.7318 22 12.1318C22 13.5318 21.7417 14.8443 21.225 16.0693C20.7083 17.2943 20 18.3568 19.1 19.2568C18.2 20.1568 17.1417 20.8693 15.925 21.3943C14.7083 21.9193 13.4 22.1818 12 22.1818ZM12 20.7318C12.5833 20.1318 13.0708 19.4443 13.4625 18.6693C13.8542 17.8943 14.175 16.9735 14.425 15.9068H9.6C9.83333 16.9068 10.1458 17.8068 10.5375 18.6068C10.9292 19.4068 11.4167 20.1151 12 20.7318ZM9.875 20.4318C9.45833 19.7985 9.1 19.1151 8.8 18.3818C8.5 17.6485 8.25 16.8235 8.05 15.9068H4.3C4.93333 17.0901 5.66667 18.0193 6.5 18.6943C7.33333 19.3693 8.45833 19.9485 9.875 20.4318ZM14.15 20.4068C15.35 20.0235 16.4292 19.4485 17.3875 18.6818C18.3458 17.9151 19.1167 16.9901 19.7 15.9068H15.975C15.7583 16.8068 15.5042 17.6235 15.2125 18.3568C14.9208 19.0901 14.5667 19.7735 14.15 20.4068ZM3.8 14.4068H7.775C7.725 13.9568 7.69583 13.5526 7.6875 13.1943C7.67917 12.836 7.675 12.4818 7.675 12.1318C7.675 11.7151 7.68333 11.3443 7.7 11.0193C7.71667 10.6943 7.75 10.3318 7.8 9.93176H3.8C3.68333 10.3318 3.60417 10.6901 3.5625 11.0068C3.52083 11.3235 3.5 11.6985 3.5 12.1318C3.5 12.5651 3.52083 12.9526 3.5625 13.2943C3.60417 13.636 3.68333 14.0068 3.8 14.4068ZM9.325 14.4068H14.7C14.7667 13.8901 14.8083 13.4693 14.825 13.1443C14.8417 12.8193 14.85 12.4818 14.85 12.1318C14.85 11.7985 14.8417 11.4776 14.825 11.1693C14.8083 10.861 14.7667 10.4485 14.7 9.93176H9.325C9.25833 10.4485 9.21667 10.861 9.2 11.1693C9.18333 11.4776 9.175 11.7985 9.175 12.1318C9.175 12.4818 9.18333 12.8193 9.2 13.1443C9.21667 13.4693 9.25833 13.8901 9.325 14.4068ZM16.2 14.4068H20.2C20.3167 14.0068 20.3958 13.636 20.4375 13.2943C20.4792 12.9526 20.5 12.5651 20.5 12.1318C20.5 11.6985 20.4792 11.3235 20.4375 11.0068C20.3958 10.6901 20.3167 10.3318 20.2 9.93176H16.225C16.275 10.5151 16.3083 10.961 16.325 11.2693C16.3417 11.5776 16.35 11.8651 16.35 12.1318C16.35 12.4985 16.3375 12.8443 16.3125 13.1693C16.2875 13.4943 16.25 13.9068 16.2 14.4068ZM15.95 8.43176H19.7C19.15 7.28176 18.3958 6.32343 17.4375 5.55676C16.4792 4.79009 15.375 4.24843 14.125 3.93176C14.5417 4.54843 14.8958 5.21509 15.1875 5.93176C15.4792 6.64843 15.7333 7.48176 15.95 8.43176ZM9.6 8.43176H14.45C14.2667 7.54843 13.9583 6.69426 13.525 5.86926C13.0917 5.04426 12.5833 4.31509 12 3.68176C11.4667 4.13176 11.0167 4.72343 10.65 5.45676C10.2833 6.19009 9.93333 7.18176 9.6 8.43176ZM4.3 8.43176H8.075C8.25833 7.53176 8.49167 6.72759 8.775 6.01926C9.05833 5.31093 9.41667 4.62343 9.85 3.95676C8.6 4.27343 7.50833 4.80676 6.575 5.55676C5.64167 6.30676 4.88333 7.26509 4.3 8.43176Z" fill="#FF5C00"/>
</svg>
