<svg width="32" height="32" viewBox="0 0 32 32" fill="none" xmlns="http://www.w3.org/2000/svg">
<path d="M3.70872 16.1399H2.79256C2.53174 16.1399 2.32031 16.3504 2.32031 16.61V17.6113C2.32031 17.8709 2.53174 18.0813 2.79256 18.0813H3.70872C3.96953 18.0813 4.18097 17.8709 4.18097 17.6113V16.61C4.18097 16.3504 3.96953 16.1399 3.70872 16.1399Z" fill="#D6CCC6"/>
<path d="M1.38841 16.1626H0.472247C0.211432 16.1626 0 16.3731 0 16.6327V17.634C0 17.8936 0.211432 18.104 0.472247 18.104H1.38841C1.64922 18.104 1.86065 17.8936 1.86065 17.634V16.6327C1.86065 16.3731 1.64922 16.1626 1.38841 16.1626Z" fill="#D6CCC6"/>
<path d="M6.02903 25.3984H5.11287C4.85206 25.3984 4.64062 25.6089 4.64062 25.8685V26.8698C4.64062 27.1294 4.85206 27.3399 5.11287 27.3399H6.02903C6.28985 27.3399 6.50128 27.1294 6.50128 26.8698V25.8685C6.50128 25.6089 6.28985 25.3984 6.02903 25.3984Z" fill="#D6CCC6"/>
<path d="M3.70872 30.0164H2.79256C2.53174 30.0164 2.32031 30.2268 2.32031 30.4864V31.4877C2.32031 31.7473 2.53174 31.9578 2.79256 31.9578H3.70872C3.96953 31.9578 4.18097 31.7473 4.18097 31.4877V30.4864C4.18097 30.2268 3.96953 30.0164 3.70872 30.0164Z" fill="#D6CCC6"/>
<path d="M1.38841 25.3984H0.472247C0.211432 25.3984 0 25.6089 0 25.8685V26.8698C0 27.1294 0.211432 27.3399 0.472247 27.3399H1.38841C1.64922 27.3399 1.86065 27.1294 1.86065 26.8698V25.8685C1.86065 25.6089 1.64922 25.3984 1.38841 25.3984Z" fill="#D6CCC6"/>
<path d="M1.38841 27.73H0.472247C0.211432 27.73 0 27.9404 0 28.2001V29.2013C0 29.461 0.211432 29.6714 0.472247 29.6714H1.38841C1.64922 29.6714 1.86065 29.461 1.86065 29.2013V28.2001C1.86065 27.9404 1.64922 27.73 1.38841 27.73Z" fill="#D6CCC6"/>
<path d="M1.38841 30.0391H0.472247C0.211432 30.0391 0 30.2495 0 30.5091V31.5104C0 31.7701 0.211432 31.9805 0.472247 31.9805H1.38841C1.64922 31.9805 1.86065 31.7701 1.86065 31.5104V30.5091C1.86065 30.2495 1.64922 30.0391 1.38841 30.0391Z" fill="#D6CCC6"/>
<path d="M3.70872 6.9043H2.79256C2.53174 6.9043 2.32031 7.11476 2.32031 7.37438V8.37566C2.32031 8.63528 2.53174 8.84575 2.79256 8.84575H3.70872C3.96953 8.84575 4.18097 8.63528 4.18097 8.37566V7.37438C4.18097 7.11476 3.96953 6.9043 3.70872 6.9043Z" fill="#D6CCC6"/>
<path d="M1.38841 6.92676H0.472247C0.211432 6.92676 0 7.13722 0 7.39684V8.39812C0 8.65775 0.211432 8.86821 0.472247 8.86821H1.38841C1.64922 8.86821 1.86065 8.65775 1.86065 8.39812V7.39684C1.86065 7.13722 1.64922 6.92676 1.38841 6.92676Z" fill="#D6CCC6"/>
<path d="M15.3025 6.9043H14.3863C14.1255 6.9043 13.9141 7.11476 13.9141 7.37438V8.37566C13.9141 8.63528 14.1255 8.84575 14.3863 8.84575H15.3025C15.5633 8.84575 15.7747 8.63528 15.7747 8.37566V7.37438C15.7747 7.11476 15.5633 6.9043 15.3025 6.9043Z" fill="#D6CCC6"/>
<path d="M26.8884 6.9043H25.9722C25.7114 6.9043 25.5 7.11476 25.5 7.37438V8.37566C25.5 8.63528 25.7114 8.84575 25.9722 8.84575H26.8884C27.1492 8.84575 27.3607 8.63528 27.3607 8.37566V7.37438C27.3607 7.11476 27.1492 6.9043 26.8884 6.9043Z" fill="#D6CCC6"/>
<path d="M24.5759 6.9043H23.6597C23.3989 6.9043 23.1875 7.11476 23.1875 7.37438V8.37566C23.1875 8.63528 23.3989 8.84575 23.6597 8.84575H24.5759C24.8367 8.84575 25.0482 8.63528 25.0482 8.37566V7.37438C25.0482 7.11476 24.8367 6.9043 24.5759 6.9043Z" fill="#D6CCC6"/>
<path d="M8.34153 16.1399H7.42537C7.16456 16.1399 6.95312 16.3504 6.95312 16.61V17.6113C6.95312 17.8709 7.16456 18.0813 7.42537 18.0813H8.34153C8.60235 18.0813 8.81378 17.8709 8.81378 17.6113V16.61C8.81378 16.3504 8.60235 16.1399 8.34153 16.1399Z" fill="#D6CCC6"/>
<path d="M31.529 16.1399H30.6129C30.3521 16.1399 30.1406 16.3504 30.1406 16.61V17.6113C30.1406 17.8709 30.3521 18.0813 30.6129 18.0813H31.529C31.7898 18.0813 32.0013 17.8709 32.0013 17.6113V16.61C32.0013 16.3504 31.7898 16.1399 31.529 16.1399Z" fill="#D6CCC6"/>
<path d="M31.529 25.3757H30.6129C30.3521 25.3757 30.1406 25.5862 30.1406 25.8458V26.8471C30.1406 27.1067 30.3521 27.3172 30.6129 27.3172H31.529C31.7898 27.3172 32.0013 27.1067 32.0013 26.8471V25.8458C32.0013 25.5862 31.7898 25.3757 31.529 25.3757Z" fill="#D6CCC6"/>
<path d="M8.34153 6.9043H7.42537C7.16456 6.9043 6.95312 7.11476 6.95312 7.37438V8.37566C6.95312 8.63528 7.16456 8.84575 7.42537 8.84575H8.34153C8.60235 8.84575 8.81378 8.63528 8.81378 8.37566V7.37438C8.81378 7.11476 8.60235 6.9043 8.34153 6.9043Z" fill="#D6CCC6"/>
<path d="M19.9353 6.9043H19.0191C18.7583 6.9043 18.5469 7.11476 18.5469 7.37438V8.37566C18.5469 8.63528 18.7583 8.84575 19.0191 8.84575H19.9353C20.1961 8.84575 20.4075 8.63528 20.4075 8.37566V7.37438C20.4075 7.11476 20.1961 6.9043 19.9353 6.9043Z" fill="#D6CCC6"/>
<path d="M31.529 6.9043H30.6129C30.3521 6.9043 30.1406 7.11476 30.1406 7.37438V8.37566C30.1406 8.63528 30.3521 8.84575 30.6129 8.84575H31.529C31.7898 8.84575 32.0013 8.63528 32.0013 8.37566V7.37438C32.0013 7.11476 31.7898 6.9043 31.529 6.9043Z" fill="#D6CCC6"/>
<path d="M3.70872 20.7578H2.79256C2.53174 20.7578 2.32031 20.9683 2.32031 21.2279V22.2292C2.32031 22.4888 2.53174 22.6993 2.79256 22.6993H3.70872C3.96953 22.6993 4.18097 22.4888 4.18097 22.2292V21.2279C4.18097 20.9683 3.96953 20.7578 3.70872 20.7578Z" fill="#D6CCC6"/>
<path d="M1.38841 20.7805H0.472247C0.211432 20.7805 0 20.991 0 21.2506V22.2519C0 22.5115 0.211432 22.722 0.472247 22.722H1.38841C1.64922 22.722 1.86065 22.5115 1.86065 22.2519V21.2506C1.86065 20.991 1.64922 20.7805 1.38841 20.7805Z" fill="#D6CCC6"/>
<path d="M26.8884 29.9937H25.9722C25.7114 29.9937 25.5 30.2041 25.5 30.4637V31.465C25.5 31.7246 25.7114 31.9351 25.9722 31.9351H26.8884C27.1492 31.9351 27.3607 31.7246 27.3607 31.465V30.4637C27.3607 30.2041 27.1492 29.9937 26.8884 29.9937Z" fill="#D6CCC6"/>
<path d="M3.70872 11.522H2.79256C2.53174 11.522 2.32031 11.7324 2.32031 11.9921V12.9933C2.32031 13.253 2.53174 13.4634 2.79256 13.4634H3.70872C3.96953 13.4634 4.18097 13.253 4.18097 12.9933V11.9921C4.18097 11.7324 3.96953 11.522 3.70872 11.522Z" fill="#D6CCC6"/>
<path d="M1.38841 11.5447H0.472247C0.211432 11.5447 0 11.7551 0 12.0148V13.016C0 13.2757 0.211432 13.4861 0.472247 13.4861H1.38841C1.64922 13.4861 1.86065 13.2757 1.86065 13.016V12.0148C1.86065 11.7551 1.64922 11.5447 1.38841 11.5447Z" fill="#D6CCC6"/>
<path d="M26.8884 11.522H25.9722C25.7114 11.522 25.5 11.7324 25.5 11.9921V12.9933C25.5 13.253 25.7114 13.4634 25.9722 13.4634H26.8884C27.1492 13.4634 27.3607 13.253 27.3607 12.9933V11.9921C27.3607 11.7324 27.1492 11.522 26.8884 11.522Z" fill="#D6CCC6"/>
<path d="M24.5759 29.9937H23.6597C23.3989 29.9937 23.1875 30.2041 23.1875 30.4637V31.465C23.1875 31.7246 23.3989 31.9351 23.6597 31.9351H24.5759C24.8367 31.9351 25.0482 31.7246 25.0482 31.465V30.4637C25.0482 30.2041 24.8367 29.9937 24.5759 29.9937Z" fill="#D6CCC6"/>
<path d="M24.5759 11.522H23.6597C23.3989 11.522 23.1875 11.7324 23.1875 11.9921V12.9933C23.1875 13.253 23.3989 13.4634 23.6597 13.4634H24.5759C24.8367 13.4634 25.0482 13.253 25.0482 12.9933V11.9921C25.0482 11.7324 24.8367 11.522 24.5759 11.522Z" fill="#D6CCC6"/>
<path d="M8.34153 20.7578H7.42537C7.16456 20.7578 6.95312 20.9683 6.95312 21.2279V22.2292C6.95312 22.4888 7.16456 22.6993 7.42537 22.6993H8.34153C8.60235 22.6993 8.81378 22.4888 8.81378 22.2292V21.2279C8.81378 20.9683 8.60235 20.7578 8.34153 20.7578Z" fill="#D6CCC6"/>
<path d="M31.529 20.7578H30.6129C30.3521 20.7578 30.1406 20.9683 30.1406 21.2279V22.2292C30.1406 22.4888 30.3521 22.6993 30.6129 22.6993H31.529C31.7898 22.6993 32.0013 22.4888 32.0013 22.2292V21.2279C32.0013 20.9683 31.7898 20.7578 31.529 20.7578Z" fill="#D6CCC6"/>
<path d="M19.9353 29.9937H19.0191C18.7583 29.9937 18.5469 30.2041 18.5469 30.4637V31.465C18.5469 31.7246 18.7583 31.9351 19.0191 31.9351H19.9353C20.1961 31.9351 20.4075 31.7246 20.4075 31.465V30.4637C20.4075 30.2041 20.1961 29.9937 19.9353 29.9937Z" fill="#D6CCC6"/>
<path d="M31.529 29.9937H30.6129C30.3521 29.9937 30.1406 30.2041 30.1406 30.4637V31.465C30.1406 31.7246 30.3521 31.9351 30.6129 31.9351H31.529C31.7898 31.9351 32.0013 31.7246 32.0013 31.465V30.4637C32.0013 30.2041 31.7898 29.9937 31.529 29.9937Z" fill="#D6CCC6"/>
<path d="M8.34153 11.522H7.42537C7.16456 11.522 6.95312 11.7324 6.95312 11.9921V12.9933C6.95312 13.253 7.16456 13.4634 7.42537 13.4634H8.34153C8.60235 13.4634 8.81378 13.253 8.81378 12.9933V11.9921C8.81378 11.7324 8.60235 11.522 8.34153 11.522Z" fill="#D6CCC6"/>
<path d="M31.529 11.522H30.6129C30.3521 11.522 30.1406 11.7324 30.1406 11.9921V12.9933C30.1406 13.253 30.3521 13.4634 30.6129 13.4634H31.529C31.7898 13.4634 32.0013 13.253 32.0013 12.9933V11.9921C32.0013 11.7324 31.7898 11.522 31.529 11.522Z" fill="#D6CCC6"/>
<path d="M8.34153 2.28638H7.42537C7.16456 2.28638 6.95312 2.49684 6.95312 2.75646V3.75774C6.95312 4.01737 7.16456 4.22783 7.42537 4.22783H8.34153C8.60235 4.22783 8.81378 4.01737 8.81378 3.75774V2.75646C8.81378 2.49684 8.60235 2.28638 8.34153 2.28638Z" fill="#D6CCC6"/>
<path d="M3.70872 18.4717H2.79256C2.53174 18.4717 2.32031 18.6821 2.32031 18.9418V19.943C2.32031 20.2027 2.53174 20.4131 2.79256 20.4131H3.70872C3.96953 20.4131 4.18097 20.2027 4.18097 19.943V18.9418C4.18097 18.6821 3.96953 18.4717 3.70872 18.4717Z" fill="#D6CCC6"/>
<path d="M1.38841 18.4941H0.472247C0.211432 18.4941 0 18.7046 0 18.9642V19.9655C0 20.2251 0.211432 20.4356 0.472247 20.4356H1.38841C1.64922 20.4356 1.86065 20.2251 1.86065 19.9655V18.9642C1.86065 18.7046 1.64922 18.4941 1.38841 18.4941Z" fill="#D6CCC6"/>
<path d="M15.3025 30.0164H14.3863C14.1255 30.0164 13.9141 30.2268 13.9141 30.4864V31.4877C13.9141 31.7473 14.1255 31.9578 14.3863 31.9578H15.3025C15.5633 31.9578 15.7747 31.7473 15.7747 31.4877V30.4864C15.7747 30.2268 15.5633 30.0164 15.3025 30.0164Z" fill="#D6CCC6"/>
<path d="M3.70872 9.23584H2.79256C2.53174 9.23584 2.32031 9.4463 2.32031 9.70592V10.7072C2.32031 10.9668 2.53174 11.1773 2.79256 11.1773H3.70872C3.96953 11.1773 4.18097 10.9668 4.18097 10.7072V9.70592C4.18097 9.4463 3.96953 9.23584 3.70872 9.23584Z" fill="#D6CCC6"/>
<path d="M1.38841 9.25854H0.472247C0.211432 9.25854 0 9.46901 0 9.72863V10.7299C0 10.9895 0.211432 11.2 0.472247 11.2H1.38841C1.64922 11.2 1.86065 10.9895 1.86065 10.7299V9.72863C1.86065 9.46901 1.64922 9.25854 1.38841 9.25854Z" fill="#D6CCC6"/>
<path d="M12.9822 27.7073H12.066C11.8052 27.7073 11.5938 27.9177 11.5938 28.1774V29.1786C11.5938 29.4383 11.8052 29.6487 12.066 29.6487H12.9822C13.243 29.6487 13.4544 29.4383 13.4544 29.1786V28.1774C13.4544 27.9177 13.243 27.7073 12.9822 27.7073Z" fill="#D6CCC6"/>
<path d="M12.9822 30.0164H12.066C11.8052 30.0164 11.5938 30.2268 11.5938 30.4864V31.4877C11.5938 31.7473 11.8052 31.9578 12.066 31.9578H12.9822C13.243 31.9578 13.4544 31.7473 13.4544 31.4877V30.4864C13.4544 30.2268 13.243 30.0164 12.9822 30.0164Z" fill="#D6CCC6"/>
<path d="M8.34153 18.4717H7.42537C7.16456 18.4717 6.95312 18.6821 6.95312 18.9418V19.943C6.95312 20.2027 7.16456 20.4131 7.42537 20.4131H8.34153C8.60235 20.4131 8.81378 20.2027 8.81378 19.943V18.9418C8.81378 18.6821 8.60235 18.4717 8.34153 18.4717Z" fill="#D6CCC6"/>
<path d="M31.529 18.4717H30.6129C30.3521 18.4717 30.1406 18.6821 30.1406 18.9418V19.943C30.1406 20.2027 30.3521 20.4131 30.6129 20.4131H31.529C31.7898 20.4131 32.0013 20.2027 32.0013 19.943V18.9418C32.0013 18.6821 31.7898 18.4717 31.529 18.4717Z" fill="#D6CCC6"/>
<path d="M31.529 27.7073H30.6129C30.3521 27.7073 30.1406 27.9177 30.1406 28.1774V29.1786C30.1406 29.4383 30.3521 29.6487 30.6129 29.6487H31.529C31.7898 29.6487 32.0013 29.4383 32.0013 29.1786V28.1774C32.0013 27.9177 31.7898 27.7073 31.529 27.7073Z" fill="#D6CCC6"/>
<path d="M8.34153 9.23584H7.42537C7.16456 9.23584 6.95312 9.4463 6.95312 9.70592V10.7072C6.95312 10.9668 7.16456 11.1773 7.42537 11.1773H8.34153C8.60235 11.1773 8.81378 10.9668 8.81378 10.7072V9.70592C8.81378 9.4463 8.60235 9.23584 8.34153 9.23584Z" fill="#D6CCC6"/>
<path d="M31.529 9.23584H30.6129C30.3521 9.23584 30.1406 9.4463 30.1406 9.70592V10.7072C30.1406 10.9668 30.3521 11.1773 30.6129 11.1773H31.529C31.7898 11.1773 32.0013 10.9668 32.0013 10.7072V9.70592C32.0013 9.4463 31.7898 9.23584 31.529 9.23584Z" fill="#D6CCC6"/>
<path d="M8.34153 0H7.42537C7.16456 0 6.95312 0.210464 6.95312 0.470085V1.47137C6.95312 1.73099 7.16456 1.94145 7.42537 1.94145H8.34153C8.60235 1.94145 8.81378 1.73099 8.81378 1.47137V0.470085C8.81378 0.210464 8.60235 0 8.34153 0Z" fill="#D6CCC6"/>
<path d="M3.70872 23.0896H2.79256C2.53174 23.0896 2.32031 23.3001 2.32031 23.5597V24.561C2.32031 24.8206 2.53174 25.0311 2.79256 25.0311H3.70872C3.96953 25.0311 4.18097 24.8206 4.18097 24.561V23.5597C4.18097 23.3001 3.96953 23.0896 3.70872 23.0896Z" fill="#D6CCC6"/>
<path d="M1.38841 23.1121H0.472247C0.211432 23.1121 0 23.3225 0 23.5821V24.5834C0 24.8431 0.211432 25.0535 0.472247 25.0535H1.38841C1.64922 25.0535 1.86065 24.8431 1.86065 24.5834V23.5821C1.86065 23.3225 1.64922 23.1121 1.38841 23.1121Z" fill="#D6CCC6"/>
<path d="M3.70872 13.8538H2.79256C2.53174 13.8538 2.32031 14.0642 2.32031 14.3238V15.3251C2.32031 15.5847 2.53174 15.7952 2.79256 15.7952H3.70872C3.96953 15.7952 4.18097 15.5847 4.18097 15.3251V14.3238C4.18097 14.0642 3.96953 13.8538 3.70872 13.8538Z" fill="#D6CCC6"/>
<path d="M1.38841 13.8765H0.472247C0.211432 13.8765 0 14.0869 0 14.3465V15.3478C0 15.6075 0.211432 15.8179 0.472247 15.8179H1.38841C1.64922 15.8179 1.86065 15.6075 1.86065 15.3478V14.3465C1.86065 14.0869 1.64922 13.8765 1.38841 13.8765Z" fill="#D6CCC6"/>
<path d="M26.8884 13.8538H25.9722C25.7114 13.8538 25.5 14.0642 25.5 14.3238V15.3251C25.5 15.5847 25.7114 15.7952 25.9722 15.7952H26.8884C27.1492 15.7952 27.3607 15.5847 27.3607 15.3251V14.3238C27.3607 14.0642 27.1492 13.8538 26.8884 13.8538Z" fill="#D6CCC6"/>
<path d="M24.5759 13.8538H23.6597C23.3989 13.8538 23.1875 14.0642 23.1875 14.3238V15.3251C23.1875 15.5847 23.3989 15.7952 23.6597 15.7952H24.5759C24.8367 15.7952 25.0482 15.5847 25.0482 15.3251V14.3238C25.0482 14.0642 24.8367 13.8538 24.5759 13.8538Z" fill="#D6CCC6"/>
<path d="M12.9822 4.61792H12.066C11.8052 4.61792 11.5938 4.82838 11.5938 5.08801V6.08929C11.5938 6.34891 11.8052 6.55937 12.066 6.55937H12.9822C13.243 6.55937 13.4544 6.34891 13.4544 6.08929V5.08801C13.4544 4.82838 13.243 4.61792 12.9822 4.61792Z" fill="#D6CCC6"/>
<path d="M8.34153 23.0896H7.42537C7.16456 23.0896 6.95312 23.3001 6.95312 23.5597V24.561C6.95312 24.8206 7.16456 25.0311 7.42537 25.0311H8.34153C8.60235 25.0311 8.81378 24.8206 8.81378 24.561V23.5597C8.81378 23.3001 8.60235 23.0896 8.34153 23.0896Z" fill="#D6CCC6"/>
<path d="M31.529 23.0896H30.6129C30.3521 23.0896 30.1406 23.3001 30.1406 23.5597V24.561C30.1406 24.8206 30.3521 25.0311 30.6129 25.0311H31.529C31.7898 25.0311 32.0013 24.8206 32.0013 24.561V23.5597C32.0013 23.3001 31.7898 23.0896 31.529 23.0896Z" fill="#D6CCC6"/>
<path d="M8.34153 13.8538H7.42537C7.16456 13.8538 6.95312 14.0642 6.95312 14.3238V15.3251C6.95312 15.5847 7.16456 15.7952 7.42537 15.7952H8.34153C8.60235 15.7952 8.81378 15.5847 8.81378 15.3251V14.3238C8.81378 14.0642 8.60235 13.8538 8.34153 13.8538Z" fill="#D6CCC6"/>
<path d="M31.529 13.8538H30.6129C30.3521 13.8538 30.1406 14.0642 30.1406 14.3238V15.3251C30.1406 15.5847 30.3521 15.7952 30.6129 15.7952H31.529C31.7898 15.7952 32.0013 15.5847 32.0013 15.3251V14.3238C32.0013 14.0642 31.7898 13.8538 31.529 13.8538Z" fill="#D6CCC6"/>
<path d="M8.34153 4.61792H7.42537C7.16456 4.61792 6.95312 4.82838 6.95312 5.08801V6.08929C6.95312 6.34891 7.16456 6.55937 7.42537 6.55937H8.34153C8.60235 6.55937 8.81378 6.34891 8.81378 6.08929V5.08801C8.81378 4.82838 8.60235 4.61792 8.34153 4.61792Z" fill="#D6CCC6"/>
<path d="M17.6306 16.1821H16.7144C16.4536 16.1821 16.2422 16.3926 16.2422 16.6522V17.6535C16.2422 17.9131 16.4536 18.1236 16.7144 18.1236H17.6306C17.8914 18.1236 18.1028 17.9131 18.1028 17.6535V16.6522C18.1028 16.3926 17.8914 16.1821 17.6306 16.1821Z" fill="#D6CCC6"/>
<path d="M8.34153 27.7073H7.42537C7.16456 27.7073 6.95312 27.9177 6.95312 28.1774V29.1786C6.95312 29.4383 7.16456 29.6487 7.42537 29.6487H8.34153C8.60235 29.6487 8.81378 29.4383 8.81378 29.1786V28.1774C8.81378 27.9177 8.60235 27.7073 8.34153 27.7073Z" fill="#D6CCC6"/>
<path d="M6.03684 30.0586H5.12068C4.85987 30.0586 4.64844 30.2691 4.64844 30.5287V31.53C4.64844 31.7896 4.85987 32 5.12068 32H6.03684C6.29766 32 6.50909 31.7896 6.50909 31.53V30.5287C6.50909 30.2691 6.29766 30.0586 6.03684 30.0586Z" fill="#D6CCC6"/>
<path d="M17.6306 25.418H16.7144C16.4536 25.418 16.2422 25.6284 16.2422 25.8881V26.8893C16.2422 27.149 16.4536 27.3594 16.7144 27.3594H17.6306C17.8914 27.3594 18.1028 27.149 18.1028 26.8893V25.8881C18.1028 25.6284 17.8914 25.418 17.6306 25.418Z" fill="#D6CCC6"/>
<path d="M17.6306 6.94629H16.7144C16.4536 6.94629 16.2422 7.15675 16.2422 7.41637V8.41766C16.2422 8.67728 16.4536 8.88774 16.7144 8.88774H17.6306C17.8914 8.88774 18.1028 8.67728 18.1028 8.41766V7.41637C18.1028 7.15675 17.8914 6.94629 17.6306 6.94629Z" fill="#D6CCC6"/>
<path d="M29.2243 6.94629H28.3082C28.0474 6.94629 27.8359 7.15675 27.8359 7.41637V8.41766C27.8359 8.67728 28.0474 8.88774 28.3082 8.88774H29.2243C29.4852 8.88774 29.6966 8.67728 29.6966 8.41766V7.41637C29.6966 7.15675 29.4852 6.94629 29.2243 6.94629Z" fill="#D6CCC6"/>
<path d="M10.6775 25.418H9.76131C9.50049 25.418 9.28906 25.6284 9.28906 25.8881V26.8893C9.28906 27.149 9.50049 27.3594 9.76131 27.3594H10.6775C10.9383 27.3594 11.1497 27.149 11.1497 26.8893V25.8881C11.1497 25.6284 10.9383 25.418 10.6775 25.418Z" fill="#D6CCC6"/>
<path d="M10.6775 30.0586H9.76131C9.50049 30.0586 9.28906 30.2691 9.28906 30.5287V31.53C9.28906 31.7896 9.50049 32 9.76131 32H10.6775C10.9383 32 11.1497 31.7896 11.1497 31.53V30.5287C11.1497 30.2691 10.9383 30.0586 10.6775 30.0586Z" fill="#D6CCC6"/>
<path d="M8.34153 30.0391H7.42537C7.16456 30.0391 6.95312 30.2495 6.95312 30.5091V31.5104C6.95312 31.7701 7.16456 31.9805 7.42537 31.9805H8.34153C8.60235 31.9805 8.81378 31.7701 8.81378 31.5104V30.5091C8.81378 30.2495 8.60235 30.0391 8.34153 30.0391Z" fill="#D6CCC6"/>
<path d="M22.2712 6.94629H21.3551C21.0942 6.94629 20.8828 7.15675 20.8828 7.41637V8.41766C20.8828 8.67728 21.0942 8.88774 21.3551 8.88774H22.2712C22.532 8.88774 22.7435 8.67728 22.7435 8.41766V7.41637C22.7435 7.15675 22.532 6.94629 22.2712 6.94629Z" fill="#D6CCC6"/>
<path d="M17.6306 20.8H16.7144C16.4536 20.8 16.2422 21.0105 16.2422 21.2701V22.2714C16.2422 22.531 16.4536 22.7415 16.7144 22.7415H17.6306C17.8914 22.7415 18.1028 22.531 18.1028 22.2714V21.2701C18.1028 21.0105 17.8914 20.8 17.6306 20.8Z" fill="#D6CCC6"/>
<path d="M17.6306 30.0359H16.7144C16.4536 30.0359 16.2422 30.2464 16.2422 30.506V31.5073C16.2422 31.7669 16.4536 31.9773 16.7144 31.9773H17.6306C17.8914 31.9773 18.1028 31.7669 18.1028 31.5073V30.506C18.1028 30.2464 17.8914 30.0359 17.6306 30.0359Z" fill="#D6CCC6"/>
<path d="M29.2243 30.0359H28.3082C28.0474 30.0359 27.8359 30.2464 27.8359 30.506V31.5073C27.8359 31.7669 28.0474 31.9773 28.3082 31.9773H29.2243C29.4852 31.9773 29.6966 31.7669 29.6966 31.5073V30.506C29.6966 30.2464 29.4852 30.0359 29.2243 30.0359Z" fill="#D6CCC6"/>
<path d="M17.6306 11.5642H16.7144C16.4536 11.5642 16.2422 11.7747 16.2422 12.0343V13.0356C16.2422 13.2952 16.4536 13.5057 16.7144 13.5057H17.6306C17.8914 13.5057 18.1028 13.2952 18.1028 13.0356V12.0343C18.1028 11.7747 17.8914 11.5642 17.6306 11.5642Z" fill="#D6CCC6"/>
<path d="M22.2712 30.0359H21.3551C21.0942 30.0359 20.8828 30.2464 20.8828 30.506V31.5073C20.8828 31.7669 21.0942 31.9773 21.3551 31.9773H22.2712C22.532 31.9773 22.7435 31.7669 22.7435 31.5073V30.506C22.7435 30.2464 22.532 30.0359 22.2712 30.0359Z" fill="#D6CCC6"/>
<path d="M22.2712 11.5642H21.3551C21.0942 11.5642 20.8828 11.7747 20.8828 12.0343V13.0356C20.8828 13.2952 21.0942 13.5057 21.3551 13.5057H22.2712C22.532 13.5057 22.7435 13.2952 22.7435 13.0356V12.0343C22.7435 11.7747 22.532 11.5642 22.2712 11.5642Z" fill="#D6CCC6"/>
<path d="M10.6775 2.32861H9.76131C9.50049 2.32861 9.28906 2.53908 9.28906 2.7987V3.79998C9.28906 4.0596 9.50049 4.27007 9.76131 4.27007H10.6775C10.9383 4.27007 11.1497 4.0596 11.1497 3.79998V2.7987C11.1497 2.53908 10.9383 2.32861 10.6775 2.32861Z" fill="#D6CCC6"/>
<path d="M17.6306 18.5139H16.7144C16.4536 18.5139 16.2422 18.7244 16.2422 18.984V19.9853C16.2422 20.2449 16.4536 20.4554 16.7144 20.4554H17.6306C17.8914 20.4554 18.1028 20.2449 18.1028 19.9853V18.984C18.1028 18.7244 17.8914 18.5139 17.6306 18.5139Z" fill="#D6CCC6"/>
<path d="M17.6306 27.7498H16.7144C16.4536 27.7498 16.2422 27.9602 16.2422 28.2198V29.2211C16.2422 29.4807 16.4536 29.6912 16.7144 29.6912H17.6306C17.8914 29.6912 18.1028 29.4807 18.1028 29.2211V28.2198C18.1028 27.9602 17.8914 27.7498 17.6306 27.7498Z" fill="#D6CCC6"/>
<path d="M17.6306 9.27808H16.7144C16.4536 9.27808 16.2422 9.48854 16.2422 9.74816V10.7494C16.2422 11.0091 16.4536 11.2195 16.7144 11.2195H17.6306C17.8914 11.2195 18.1028 11.0091 18.1028 10.7494V9.74816C18.1028 9.48854 17.8914 9.27808 17.6306 9.27808Z" fill="#D6CCC6"/>
<path d="M17.6306 23.1318H16.7144C16.4536 23.1318 16.2422 23.3423 16.2422 23.6019V24.6032C16.2422 24.8628 16.4536 25.0733 16.7144 25.0733H17.6306C17.8914 25.0733 18.1028 24.8628 18.1028 24.6032V23.6019C18.1028 23.3423 17.8914 23.1318 17.6306 23.1318Z" fill="#D6CCC6"/>
<path d="M17.6306 13.896H16.7144C16.4536 13.896 16.2422 14.1065 16.2422 14.3661V15.3674C16.2422 15.627 16.4536 15.8374 16.7144 15.8374H17.6306C17.8914 15.8374 18.1028 15.627 18.1028 15.3674V14.3661C18.1028 14.1065 17.8914 13.896 17.6306 13.896Z" fill="#D6CCC6"/>
<path d="M6.03684 4.66016H5.12068C4.85987 4.66016 4.64844 4.87062 4.64844 5.13024V6.13152C4.64844 6.39114 4.85987 6.60161 5.12068 6.60161H6.03684C6.29766 6.60161 6.50909 6.39114 6.50909 6.13152V5.13024C6.50909 4.87062 6.29766 4.66016 6.03684 4.66016Z" fill="#D6CCC6"/>
<path d="M3.70872 4.61792H2.79256C2.53174 4.61792 2.32031 4.82838 2.32031 5.08801V6.08929C2.32031 6.34891 2.53174 6.55937 2.79256 6.55937H3.70872C3.96953 6.55937 4.18097 6.34891 4.18097 6.08929V5.08801C4.18097 4.82838 3.96953 4.61792 3.70872 4.61792Z" fill="#D6CCC6"/>
<path d="M22.2712 13.896H21.3551C21.0942 13.896 20.8828 14.1065 20.8828 14.3661V15.3674C20.8828 15.627 21.0942 15.8374 21.3551 15.8374H22.2712C22.532 15.8374 22.7435 15.627 22.7435 15.3674V14.3661C22.7435 14.1065 22.532 13.896 22.2712 13.896Z" fill="#D6CCC6"/>
</svg>
