<?xml version="1.0" encoding="UTF-8"?><svg xmlns="http://www.w3.org/2000/svg" xmlns:xlink="http://www.w3.org/1999/xlink" viewBox="0 0 320.68 678.46"><defs><style>.g{fill:#fff;}.h{fill:#a04d18;}.i{fill:#a04c17;}.j{clip-path:url(#e);}.k{clip-path:url(#d);}.l{fill:#1a1933;}.m{fill:none;}.n{fill:#f29222;}.o{fill:#f29224;}.p{clip-path:url(#f);}</style><clipPath id="d"><path class="o" d="M15.46,640.89c-3.56-3.84-7.18-7.74-9.63-12.59-4.62-9.16-3.31-18.27,.81-34.86,4.68-18.84,8.02-27.26,12.59-42.78,2.85-9.67,7.11-24.18,9.72-39.55,3.12-18.44,.06-16.54,2.36-50.3,0,0,3.01-44.22,14.55-59.58,.39-.51,2.49-3.22,4.8-7.2,2.08-3.59,3.13-6.15,3.89-7.79,0,0,2.87-6.17,10.03-13.84,10.34-11.07,49.78-19.02,75.37-1.87,11.7,7.84,16.35,18.91,18.78,25.01,26.14,65.41,16.24,105.06,32.93,175.92,6.85,29.1,14.49,47.76,3.15,67.64-10.03,17.59-28.69,25.22-40.03,29.86-54.26,22.19-108.31-4.61-120.17-12.21-10.88-6.97-19.14-15.87-19.14-15.87Z"/></clipPath><clipPath id="e"><path class="o" d="M86.68,237.7c2.09,3.52,4.34,6.93,6.71,10.22,1.35,1.87,2.52,3.27,4.74,3.53-4.01-.47-5.79-40.81-5.49-45.27,1.37-19.96,7.3-39.7,18.08-56.62,16.5-25.91,44.67-44.65,75.25-47.56,30.58-2.91,62.75,11,79.77,36.58,11.91,17.89,15.49,37.06,20.28,57.23,2.51,10.56,21.71,45.87,34.64,45.85-26.36,.03-52.57-8.67-73.95-24.03-21.6-15.53-34.47-36.1-61.08-45.63-16.39-5.87-35.74-6.08-50.21,3.59-14.04,9.38-18.44,28.32-19.6,44.26-1.16,15.88,13.38,30.45,10.59,45.07-4.83,25.29-47.78,19.23-53.03-3.07-2.02-8.58,5.02-10.81,.15-19.12-4.93-8.41-20.63-16.12-27.58-24.11-20.78-23.87-29.32-57.87-22.28-88.73,12.48-54.72,72.39-95.66,125.53-100.69,19.28-1.83,38.81-.58,57.95-3.45,19.13-2.86,37.32-10.51,49.74-25.76-3.39,35.49-31.43,63.53-62.97,76.71-28.09,11.74-59.33,17.49-83.59,35.9-39.44,29.92-48.32,83.65-23.65,125.1Z"/></clipPath><clipPath id="f"><polygon class="m" points="178.61 483.17 184.31 532.05 131.26 507.61 96.33 511.02 105.3 493.56 140.32 480.09 178.61 483.17"/></clipPath></defs><g id="a"/><g id="b"><g id="c"><g><g><path class="o" d="M15.46,640.89c-3.56-3.84-7.18-7.74-9.63-12.59-4.62-9.16-3.31-18.27,.81-34.86,4.68-18.84,8.02-27.26,12.59-42.78,2.85-9.67,7.11-24.18,9.72-39.55,3.12-18.44,.06-16.54,2.36-50.3,0,0,3.01-44.22,14.55-59.58,.39-.51,2.49-3.22,4.8-7.2,2.08-3.59,3.13-6.15,3.89-7.79,0,0,2.87-6.17,10.03-13.84,10.34-11.07,49.78-19.02,75.37-1.87,11.7,7.84,16.35,18.91,18.78,25.01,26.14,65.41,16.24,105.06,32.93,175.92,6.85,29.1,14.49,47.76,3.15,67.64-10.03,17.59-28.69,25.22-40.03,29.86-54.26,22.19-108.31-4.61-120.17-12.21-10.88-6.97-19.14-15.87-19.14-15.87Z"/><g class="k"><path class="o" d="M257.16,388.13c-5.1-1.09-10.32-1.54-15.55-1.16-12.7,.92-25.3,7.29-31.3,17.82,65.92,48.16,74.71,133.71,62.24,205.79-2.74,15.83,3.97,24.17,18.35,12.74,10.37-8.24,16.03-18.26,21.54-29.75,14.36-29.97,19.91-63.55,16.55-96.23-3.91-38.03-13.45-80.14-51.07-101.2-6.43-3.6-13.47-6.46-20.76-8.01Z"/><path class="o" d="M201.76,682.3c2.65,1.57,5.28,2.94,7.19,4.12,4.32,2.67,9.05,5.45,14.22,5.14,3.05-.18,5.89-1.44,8.63-2.71,8.94-4.15,17.55-8.48,25.4-14.14,7.72-5.57,15.16-9.15,19.76-17.77,9.45-17.71,2.09-33.17-9.48-47.95-.86-1.1-1.81-2.22-3.14-2.77-1.33-.54-3.16-.27-3.84,.94-.42,.75-.31,1.65-.23,2.49,1.64,16.62-1.32,32.8-13.55,45.67-11.38,11.97-25.82,16.02-42.1,17.86-3.47,.39-7,1.25-10.51,1.75-.34,.05-.73,.13-.9,.41-.19,.31-.01,.7,.18,1.01,1.81,2.89,5.47,4.23,8.38,5.95Z"/></g></g><g><path class="o" d="M86.68,237.7c2.09,3.52,4.34,6.93,6.71,10.22,1.35,1.87,2.52,3.27,4.74,3.53-4.01-.47-5.79-40.81-5.49-45.27,1.37-19.96,7.3-39.7,18.08-56.62,16.5-25.91,44.67-44.65,75.25-47.56,30.58-2.91,62.75,11,79.77,36.58,11.91,17.89,15.49,37.06,20.28,57.23,2.51,10.56,21.71,45.87,34.64,45.85-26.36,.03-52.57-8.67-73.95-24.03-21.6-15.53-34.47-36.1-61.08-45.63-16.39-5.87-35.74-6.08-50.21,3.59-14.04,9.38-18.44,28.32-19.6,44.26-1.16,15.88,13.38,30.45,10.59,45.07-4.83,25.29-47.78,19.23-53.03-3.07-2.02-8.58,5.02-10.81,.15-19.12-4.93-8.41-20.63-16.12-27.58-24.11-20.78-23.87-29.32-57.87-22.28-88.73,12.48-54.72,72.39-95.66,125.53-100.69,19.28-1.83,38.81-.58,57.95-3.45,19.13-2.86,37.32-10.51,49.74-25.76-3.39,35.49-31.43,63.53-62.97,76.71-28.09,11.74-59.33,17.49-83.59,35.9-39.44,29.92-48.32,83.65-23.65,125.1Z"/><g class="j"><path class="h" d="M48.66,160.11c-.91,12.63,.91,25.67,5.69,38.33,7.58,20.09,22.31,37.4,40.92,48.1-4.09-20.12-8.2-40.43-7.83-60.96,.29-16.37,3.36-34.8,12.39-48.83,8.24-12.8,27.68-29.98,40.69-38.03,19.65-12.17,44.72-12.12,65.71-21.14,30.66-13.17,51.93-45.7,51.71-79.07,.06,9.53-26.53,36.41-34.67,42.35-15.19,11.08-34.68,17.23-52.53,22.4-28.36,8.21-58.06,14.3-82.75,30.48-23.62,15.48-37.42,40.02-39.32,66.37Z"/></g></g><path class="o" d="M61.11,374.66c.92,8.36-2.49,15.56-3.68,17.99-3.78,7.73-9.34,12.24-12.27,14.3,5.82-2.07,13.48-5.62,19.72-3.97,5.35,1.42,10.39,3.45,16.05,4.04,11.43,1.2,22.87,2.29,34.31,3.4,7.88,.76,25.76,8.86,33.05,5.07,5.24-2.72,6.53-11.84,8.21-19.36,.27-1.21,.47-2.31,.21-3.69-1.15-6.19-9.46-6.98-12.82-10.61-8.68-9.36,18.93-34.07,17.32-64.67-.68-12.99-6.42-23-16.34-40.32-7.43-12.98-15.36-22.82-21.48-29.59-2.46,3.47-6.34,9.35-11.23,9.35-3.59,.43-7.4-1.43-11.02-1.49-4.4-.07-8.58,.37-12.84,1.18-3.44,.66-6.25,.81-8.87-2.28-1.06-1.24-2.36-3-3.89-2.4-.75,.29-1.21,1.02-1.35,1.29-2.32,4.48-7.01,2.75-19.95,29.08-8.02,16.33-12.04,24.49-13.11,32.02-.84,5.89-3.02,21.29,4.73,36,6.29,11.95,14.02,13.6,15.24,24.64Z"/><g><path class="h" d="M38.79,467.44c.46-1.76,3.6-2.66,4.9-3.04,2.78-.8,5.15-.54,6.43-.38,8.66,1.05,12.99,1.58,16.52,2.82,4.09,1.43,8.43,2.95,12.74,6.78,5.48,4.85,7.55,10.43,8.32,13.12,.99,3.42,1.09,6.4,1,8.46-.87,.65-2.1,1.35-3.3,1.08-1.94-.42-2.59-3.04-3.24-4.5-1.05-2.33-3.16-4.05-17.52-9.38-9.96-3.7-12.28-4.1-17.29-6.94-3.28-1.86-9.27-5.31-8.55-8.02Z"/><path class="h" d="M60.56,440c1.42,.74-.1,5.83-1.49,9.11-1.71,4.03-2.98,4.72-11.96,16.04-5.13,6.47-7.54,9.8-7.63,12.14-.01,.26-.02,1.31-.79,1.88-1.18,.88-3.37,.06-3.93-.14-3.45-1.28-7.23-5.92-6.61-10.26,.74-5.21,6.99-4.37,15.65-13.59,2.71-2.88,4.62-5.66,9.75-10.41,5.52-5.11,6.62-4.97,7-4.77Z"/><path class="h" d="M87.94,498.54c-.7,.47-4.26,2.77-8.38,1.86-2.39-.53-4.15-1.97-4.84-2.6-1.5-1.38-1.36-2.09-3.07-3.69-.67-.62-1.99-1.83-4.01-2.6-3.38-1.28-6.55-.5-7.2-.33-2.75,.74-4.56,2.4-7.27,5.62-6.51,7.73-4.65,8.36-8.34,11.56-6.06,5.26-14.43,6.74-15.97,7.01-.5,.09-.92,.15-1.2,.19,.35-1.13,.84-2.77,1.36-4.76,.44-1.7,.72-2.92,.76-3.09,.78-3.29,7.84-12.6,24.02-19,6.37-2.52,9.91-3.87,14.95-3.47,9,.72,14.81,7.22,15.73,8.24,1.71,1.9,2.79,3.73,3.46,5.06Z"/><path class="o" d="M54.09,387.25c-1.78,2.18-4.27,5.28-7.18,9.04-1.07,1.39-10.88,14.12-18.25,25.44-15.68,24.08-21.54,43.59-26.15,59.46-2.81,9.67-3.45,14.11-.94,18.21,5.9,9.68,26.73,13.44,38.7,6.5,8.41-4.87,8.18-12.55,17.94-15.18,1.45-.39,8.43-1.88,14.16,1.3,3.36,1.87,4.86,4.57,9.83,6.07,2.16,.65,4.52,1.36,5.74,.43,2.91-2.22-.52-13.88-8.5-21.25-14.62-13.49-38.38-9.65-41.06-6.5-.18,.22-1.19,1.5-1.89,1.3-.63-.18-.79-1.5-.71-2.38,.12-1.35,.85-2.31,1.02-2.53,4.01-5.15,13.37-11.85,13.37-11.85,3.46-5.11,6.92-10.21,10.38-15.32"/></g><path class="n" d="M156.45,389.27c5.93,17.06,12.49,29.96,17.39,38.59,7.62,13.42,13.24,27.75,21.13,41.03,.39,.66,3.28,5.51,4.06,12.3,.25,2.16,1.39,12.09-4.12,15.18-1.64,.92-3.29,.9-5.03,.87-12.49-.26-18.73-.39-19.82-.58-20.82-3.62-33.47-12.31-38.47-7.88-.95,.84-.59,1.25-2.41,3.25-4.04,4.44-8.83,5.8-9.83,6.07-3.01,.8-4.62,1.23-5.74,.43-3.05-2.18,.9-11.21,3.67-15.75,1.85-3.04,3.44-4.51,4.82-5.49,2.63-1.88,5.27-2.55,7.13-2.96,7.42-1.65,25.07-4.23,32.25-2.17,.55,.16,2.53,.77,3.56-.07,.81-.66,.75-1.97,.71-2.38-.12-1.35-.85-2.31-1.02-2.53-4.01-5.15-13.37-11.85-13.37-11.85-3.46-5.11-6.92-10.21-10.38-15.32"/><path class="h" d="M133.99,426.35c4.66,8.34,8.12,14.65,10.03,18.12,0,0,2.15,3.93,5.39,8.74,6.79,10.08,8.85,12.48,11.92,14.01,2.3,1.14,4.49,2.23,7.26,1.95,2.04-.2,3.11-1.02,5.01-.49,.1,.03,2.32,.68,3.33,2.64,.26,.5,.78,1.5,.32,2.51-.1,.22-.41,.8-1.07,1.11-1.02,.48-2.15-.02-3.77-.57-1.42-.48-2.94-.72-4.37-1.19-2.49-.82-4.8-.78-9.3-1.54-3.95-.67-6.81-.62-12.53-.51-8.58,.15-12.87,.23-16.52,1.41-2.45,.79-10.49,3.89-16.05,16.04,.17-1.87,.7-4.71,2.36-7.81,1.06-1.97,3.06-4.93,6.61-7.48,2.08-1.49,3.87-2.25,5.78-3.04,2.23-.92,7.51-3.05,14.4-3.14,6.46-.09,9.06,1.68,9.91,.54,1.27-1.7-4.51-5.69-10.62-15.18-2.01-3.12-4.86-7.62-6.61-13.88-1.39-4.99-1.58-9.31-1.49-12.25Z"/><path class="n" d="M106.33,616.6c-1.24-17.76-2.47-32.64-12.9-48.56-11.29-17.23-25.76-24.12-28.63-25.44-7.63-3.5-20.39-9.53-30.84-4.91-9.63,4.26-12.07,15.21-15.59,32.31-3.97,19.27-7.7,37.4,1.81,58.17,2.99,6.53,9.58,18.34,23.85,29.49-2.41-2.25-6.32-5.02-11.64-5.78-8.5-1.22-15.19,3.45-19.76,6.65-3.16,2.2-6.9,4.89-9.12,9.83-1.88,4.17-1.8,7.99-1.57,10.12l99.04-.56c6.22-25.54,6.37-46.82,5.36-61.3Z"/><path class="n" d="M104.37,616.28c1.24-17.76,2.47-32.64,12.9-48.56,11.4-17.41,25.28-23.98,28.63-25.44,7.16-3.13,18.1-7.91,26.87-3.76,7.39,3.5,9.85,13.32,14.79,32.95,2.68,10.65,4.01,15.98,4.09,23.41,.12,11.65-2.71,20.1-7.24,33.24-2.59,7.51-6.54,17.5-12.59,28.91,1.58-1.33,4.43-3.35,8.5-4.34,9.05-2.18,16.74,2.58,19.53,4.31,3.4,2.11,7.67,4.76,9.1,9.85,1.23,4.37-.3,8.17-1.06,9.76-32.72,.32-65.45,.63-98.17,.95-6.22-25.54-6.37-46.82-5.36-61.3Z"/><path class="n" d="M72.95,517.93c-15.27,11.69-19.49,26.63-22.38,36.86-4.19,14.82-8.34,29.5,.8,44.91,9.9,16.69,28.59,22.81,32.08,23.89,3.88,1.2,27.23,8.04,48.19-3.49,2.49-1.37,14.61-8.32,20.06-21.71,7.62-18.74-3-37.35-11.57-52.37-3.87-6.78-7.51-11.41-12.88-18.22-10.18-12.92-15.41-19.42-22.13-21.13-13.12-3.33-26.93,7.25-32.16,11.26Z"/><g><path class="i" d="M81.06,314.47c.25,.66,.92,1.08,1.69,1.57,.92,.58,1.92,1.22,2.55,1,.67-.23,.55-1.29,.45-2.25-.13-1.2-.61-2.08-1-2.78-.41-.73-.61-1.1-.96-1.25-1.46-.65-4.27,1.29-3.88,2.09,.11,.23,.45,.28,.79,.74,.26,.35,.26,.58,.36,.86Z"/><path class="g" d="M81.85,312.18c4.13-2.89,4.16-9.38,4.13-10.68-.02-.92-.22-6.73-4.17-10.14-1.15-1-3.88-2.2-9.26-3.58-4.24-1.09-5.86-1.07-7.08-.49-3.48,1.63-3.98,7.91-4.03,8.64-.45,6.4,3.28,12.18,7.52,15.09,.93,.64,4.96,3.4,9.77,2.4,.85-.18,1.94-.42,3.12-1.24Z"/><path class="l" d="M81.96,312.5c4.34-2.76,4.29-9.07,4.25-10.33-.03-.9-2.37-6.25-4.48-7.29-1.65-.81-3.52-1.33-6.02-1.27-1.97,.04-2.81,.94-3.87,1.86-1.24,1.07-2.12,3.33-2.26,4.03-.66,3.31-.17,7.6,.72,9.46,.51,1.06,3.29,5.64,8.38,4.72,.9-.16,2.05-.38,3.29-1.17Z"/></g><g><path class="i" d="M120.97,314.64c-.29,.64-.98,1.03-1.77,1.48-.95,.53-1.98,1.11-2.6,.86-.65-.27-.48-1.32-.32-2.27,.2-1.19,.73-2.04,1.16-2.71,.45-.71,.67-1.06,1.03-1.19,1.49-.56,4.19,1.54,3.75,2.31-.13,.22-.46,.25-.83,.7-.28,.34-.29,.57-.41,.84Z"/><path class="g" d="M120.32,312.16c-3.98-3.34-3.67-10.23-3.57-11.61,.07-.98,.58-7.13,4.72-10.49,1.21-.98,4-2.08,9.47-3.19,4.31-.88,5.93-.75,7.13-.06,3.4,1.96,3.57,8.66,3.58,9.44,.11,6.83-3.93,12.72-8.34,15.53-.97,.62-5.16,3.29-9.93,1.91-.84-.24-1.93-.57-3.06-1.52Z"/><path class="l" d="M120.2,312.62c-4.17-3-3.76-9.3-3.65-10.56,.08-.9,2.73-6.1,4.89-7.02,1.7-.71,3.59-1.12,6.08-.92,1.97,.16,2.76,1.11,3.76,2.08,1.18,1.14,1.93,3.45,2.03,4.15,.47,3.35-.26,7.59-1.26,9.4-.57,1.03-3.61,5.44-8.63,4.23-.89-.21-2.03-.5-3.22-1.35Z"/></g><path class="i" d="M92.81,331.63c.74,1.68,1.6,3.61,3.52,4.3,.73,.26,1.36,.22,2.61,.13,1.89-.13,4.29-.3,5.87-1.96,.35-.37,.21-.33,1.56-3,1.55-3.04,1.93-3.45,1.69-4.01-.53-1.28-3.43-1.23-4.82-1.21-2.73,.05-3,.78-5.6,.91-3.47,.18-4.92-1.03-5.74-.13-.86,.95,.08,3.07,.91,4.95Z"/><path class="i" d="M91.07,349.43c2.89-.17,3.56-.11,4.16-.25,.21-.05,.31-.09,.47-.15,1.9-.75,2.03-2.42,2.93-2.5,.86-.08,.85,1.41,2.55,2.18,.92,.41,2.01,.46,3.25,.51,.63,.03,.61-.01,1.3,0,1.88,.06,2.87,.1,3.22,.62,.43,.65-.15,2.04-1,2.89-1.41,1.4-3.11,.82-8.99,.72-4.89-.08-6.55-.05-8.62-1.03-1.24-.59-2.97-1.71-2.71-2.38,.19-.48,1.31-.49,3.45-.62Z"/><path class="o" d="M62.33,559.91c-5.35-5.78-10.7-11.56-16.05-17.34"/><path class="h" d="M5.7,597.28c.75,.07-2.89,11.86,2.82,23.48,2.5,5.09,5.92,8.37,8.5,10.84,7.03,6.74,14.57,10.26,19.32,12.05,2.96-.3,7.42-.55,12.77-.05,8.47,.78,14.38,3.04,23.56,6.47,7.73,2.89,17.36,7.17,16.91,8.38-.15,.39-1.38,.54-2.24,.43-1.32-.16-2.21-.95-2.36-1.08-1.73-1.47-12.97-5.06-28.79-6.4-7.13-.6-16.93-.9-28.61,.38-2.03-1.58-4.9-3.92-8.13-6.95-5.38-5.03-8.92-8.34-11.97-13.67-1.28-2.24-3.51-6.23-4.35-11.82-.67-4.4-.18-7.81,.68-13.76,.51-3.56,1.42-8.34,1.9-8.3Z"/><path class="h" d="M195.61,587.4c1.55,6.5,4.29,20.61,1.24,34.08-1.29,5.71-3.16,9.23-4.01,10.73-3.47,6.08-8.05,10.03-11.12,12.26-4.81-.88-11.22-1.54-18.66-.88-8.38,.75-14.16,2.95-23.56,6.47-7.73,2.89-17.36,7.17-16.91,8.38,.15,.39,1.38,.54,2.24,.43,1.32-.16,2.21-.95,2.36-1.08,1.73-1.47,12.97-5.06,28.79-6.4,7.13-.6,16.93-.9,28.61,.38,2.22-1.35,5.32-3.56,8.13-6.95,4.93-5.94,6.16-12.08,7.31-18.26,.44-2.34,1.3-7.74,.94-15.07-.28-5.74-1.4-14.22-5.37-24.11Z"/><g class="p"><path class="h" d="M112.56,494.77c-.1,.5-.26,1.77,.45,3.08,.44,.8,1.02,1.28,1.18,1.41,.63,.5,1.32,.71,2.71,1.14,1.3,.4,1.99,.47,2.24,.49,.56,.05,1.03,.03,1.36,0,1.13-.21,2.83-.66,4.54-1.73,.51-.32,1.52-.97,3.3-3.04,2.64-3.06,3.95-5.31,3.95-5.31,.21-.36,.7-1.22,1.71-1.63,.55-.22,1.06-.23,1.42-.22,4.3,.18,7.26,1.84,7.26,1.84,5.7,3.21,11.72,5.93,17.29,9.32,8.3,5.05,10.78,6.48,14.85,7.9,2.76,.96,4.99,1.48,7.24,1.95,4.71,.98,9.06,1.68,11.85,2.1-1.3-2.67-2.59-5.39-3.87-8.18-1.04-2.26-2.04-4.5-3.01-6.71-7.68,0-13.74-.99-17.84-1.89-10.83-2.38-18.26-4.01-24.01-7.29-1.36-.78-5.55-2.89-10.97-2.89-.39,0-.77,.05-1.23,.15-8.03,1.69-11.31,11.19-17.78,10.41-1.2-.14-2.12-.6-2.64-.89Z"/></g></g></g></g></svg>