<svg width="53" height="50" viewBox="0 0 53 50" fill="none" xmlns="http://www.w3.org/2000/svg">
<path d="M0 22.9858C0.609173 18.1367 2.8109 13.4123 6.12364 9.57308C9.43929 5.73673 13.9066 2.78256 18.8902 1.32289C21.3733 0.585801 23.9753 0.20855 26.5774 0.223059C29.1794 0.225961 31.7727 0.640937 34.2558 1.38383C39.2221 2.89864 43.669 5.88473 46.9586 9.7472L44.9251 11.6915C41.5369 8.58352 37.4932 6.31711 33.1709 5.15924C28.8487 4.01298 24.2683 3.98396 19.9374 5.0954C15.5977 6.19233 11.5279 8.42972 8.11071 11.5087C4.67323 14.5789 1.94645 18.5168 0.00290075 22.9829L0 22.9858Z" fill="#1B263E"/>
<path d="M35.2344 13.7625L52.999 23.4782L52.5291 3.22852L35.2344 13.7625Z" fill="#1B263E"/>
<path d="M8.28382 38.882C11.7329 41.9145 15.8115 44.1345 20.1627 45.185C20.6994 45.3388 21.2534 45.423 21.7988 45.5391C22.0743 45.5884 22.3499 45.6232 22.6255 45.6638C22.9011 45.7045 23.1767 45.7538 23.4522 45.777L24.2819 45.8641C24.5604 45.8931 24.8388 45.896 25.1144 45.9134C25.6714 45.9569 26.2283 45.9395 26.7853 45.9424C29.0131 45.8931 31.2294 45.5739 33.3876 44.9964C35.5516 44.4189 37.6199 43.5048 39.5924 42.405L40.3263 41.9784C40.4482 41.9058 40.5758 41.8391 40.6947 41.7636L41.0457 41.5257C41.5128 41.2036 41.9914 40.896 42.4555 40.5651C42.8965 40.2082 43.349 39.8571 43.8015 39.503C44.0336 39.3347 44.2367 39.1316 44.4484 38.9401L45.0837 38.3568C45.2926 38.1594 45.5217 37.9795 45.719 37.7706L46.3136 37.1438C46.7082 36.723 47.1259 36.3138 47.4798 35.8553C47.8453 35.4055 48.234 34.9644 48.585 34.5001L49.609 33.0695C50.9143 31.1107 52.0312 28.9951 53 26.752C52.71 29.1722 52.0544 31.575 51.0768 33.8704L50.2675 35.5622C50.2036 35.7073 50.1253 35.8437 50.0441 35.9743L49.8062 36.3777L49.3247 37.1902C49.1594 37.4572 49.0143 37.7416 48.8229 37.9911L48.2717 38.7601L47.7176 39.5292C47.5349 39.7874 47.3173 40.0167 47.1143 40.2633L46.4906 40.983C46.2817 41.221 46.0816 41.4705 45.8466 41.6882C45.3941 42.1351 44.9416 42.5849 44.4803 43.026C43.5056 43.8472 42.5339 44.6917 41.449 45.3794L40.6512 45.9221L39.8129 46.4009L38.9717 46.8768C38.8295 46.9523 38.6932 47.0394 38.5452 47.1061L38.1043 47.3063C37.5154 47.5704 36.9324 47.8519 36.3348 48.1015C35.7285 48.3249 35.1165 48.5367 34.5044 48.7486C34.2027 48.8647 33.8836 48.9314 33.5703 49.0156L32.6275 49.2564C32.3114 49.329 32.001 49.4334 31.679 49.4799L30.7159 49.6366L29.7528 49.7875L29.5121 49.8252L29.2684 49.8426L28.7811 49.8774C28.1342 49.9181 27.4844 49.9848 26.8346 49.9964C24.2384 50.008 21.6276 49.7004 19.1387 48.9662C14.1377 47.5646 9.65011 44.6395 6.28516 40.8466L8.27512 38.8733L8.28382 38.882Z" fill="#1B263E"/>
<path d="M0.835438 47.4803L0 27.2422L17.9387 36.6357L0.835438 47.4803Z" fill="#1B263E"/>
<path d="M0.724609 22.7969C1.0599 20.4323 1.764 18.0899 2.80619 15.8818C3.3203 14.7721 3.93499 13.71 4.61116 12.6814C5.28453 11.65 6.04451 10.6689 6.86876 9.74368C10.1574 6.02616 14.5944 3.23941 19.4868 1.91452C24.3708 0.564474 29.6823 0.740567 34.4713 2.3841C39.2771 3.9941 43.5074 7.07433 46.5724 10.9596L44.7814 12.5444C41.5487 9.36355 37.6482 6.95135 33.404 5.71031C29.1766 4.44691 24.6474 4.28759 20.3557 5.32458C16.064 6.3448 12.0126 8.48588 8.64579 11.5158C5.26776 14.5262 2.57428 18.3974 0.724609 22.7969Z" fill="#D9D9D9"/>
<path d="M36.0879 14.2237L51.7738 23.2715L51.7654 5.15625L36.0879 14.2237Z" fill="#D9D9D9"/>
<path d="M7.90645 37.5048C8.74746 38.2679 9.5773 39.0338 10.4938 39.6906C10.9324 40.04 11.4046 40.3475 11.8656 40.6689C12.092 40.8338 12.3406 40.9652 12.5753 41.1161C12.8156 41.2587 13.0475 41.4152 13.2934 41.5494C13.7824 41.8177 14.2602 42.1056 14.7659 42.3376C15.0173 42.4578 15.2632 42.5892 15.5147 42.701L16.2775 43.0308C16.5289 43.1482 16.7888 43.246 17.0486 43.3439L17.8254 43.6374L18.6161 43.8889L19.0101 44.0147L19.4096 44.1237L20.2087 44.3417C20.477 44.406 20.748 44.4591 21.0162 44.5178C21.5527 44.6464 22.1003 44.7135 22.6424 44.8029C22.9134 44.8532 23.1872 44.8672 23.461 44.9036C23.7348 44.9287 24.0059 44.9762 24.2825 44.9874C24.8329 45.0126 25.3805 45.0657 25.931 45.0517C28.1271 45.0377 30.3288 44.8253 32.4635 44.2579C36.7189 43.1286 40.7535 40.954 44.0421 37.843L44.6708 37.27C44.8719 37.0716 45.0592 36.8592 45.2575 36.6551L45.8415 36.0318L46.1377 35.7215L46.4087 35.3917L47.4956 34.0584L48.4931 32.6469C48.5741 32.5267 48.6635 32.4121 48.7417 32.2891L48.9653 31.9174L49.4151 31.1711C49.5632 30.9195 49.7252 30.6763 49.8705 30.422L50.2729 29.6421L50.678 28.8595C50.7451 28.7281 50.8177 28.5968 50.8792 28.4654L51.058 28.0601C51.2955 27.5206 51.5302 26.9728 51.7817 26.4277C51.6951 27.0175 51.5861 27.6045 51.4855 28.1998L51.4073 28.6471C51.3765 28.7952 51.329 28.9378 51.2927 29.0831L51.0524 29.9552L50.8093 30.8329C50.7143 31.1208 50.6082 31.4031 50.4992 31.6882L50.1751 32.5407L50.013 32.9683C49.9571 33.1109 49.8845 33.2451 49.8202 33.382L49.0183 35.0339L48.0739 36.616L47.8337 37.0129L47.5654 37.3874L47.0206 38.1365C46.8362 38.3853 46.6601 38.6397 46.4702 38.8828L45.8638 39.5872C42.6618 43.3886 38.2528 46.2117 33.4023 47.6568C30.9743 48.3947 28.4233 48.6686 25.8919 48.6826C25.2576 48.691 24.6233 48.6267 23.9919 48.5903C23.6762 48.5736 23.3604 48.5204 23.0475 48.4869C22.7346 48.445 22.416 48.4198 22.1059 48.3611C21.4828 48.2409 20.8569 48.1431 20.245 47.9782C19.9377 47.8999 19.6303 47.8301 19.323 47.7462L18.4149 47.4723C15.9981 46.7176 13.7293 45.5632 11.6505 44.1656C9.58289 42.7485 7.7388 41.0351 6.16016 39.126L7.91204 37.5132L7.90645 37.5048Z" fill="#D9D9D9"/>
<path d="M1.07107 45.01L0.724609 26.9004L16.5781 35.6519L1.07107 45.01Z" fill="#D9D9D9"/>
</svg>
