<svg width="42" height="56" viewBox="0 0 42 56" fill="none" xmlns="http://www.w3.org/2000/svg">
<g clip-path="url(#clip0_922_121041)">
<path d="M41.9113 38.2082L21.2214 47.0364C20.9795 47.1402 21.2692 47.4038 21.6509 47.4257L23.5116 47.5355C23.9069 47.5595 24.1966 47.833 23.9274 47.9308L1.74822 55.9725C1.40743 56.0963 0.804213 55.7668 1.09048 55.6151L25.0725 42.9038C25.2838 42.792 24.9907 42.5445 24.6226 42.5225L22.8505 42.4247C22.4858 42.4047 22.1927 42.1611 22.3938 42.0473L32.4712 36.3655C32.5462 36.3236 32.6723 36.3136 32.812 36.3355L41.5739 37.8289C41.9215 37.8888 42.126 38.1144 41.9113 38.2062V38.2082Z" fill="#1B263E"/>
<path d="M41.5051 37.9718L20.8152 46.8001C20.5732 46.9039 20.8629 47.1674 21.2446 47.1894L23.1054 47.2992C23.5007 47.3231 23.7904 47.5966 23.5211 47.6945L1.34197 55.7381C1.00118 55.8619 0.397963 55.5325 0.684234 55.3807L24.6662 42.6694C24.8775 42.5576 24.5844 42.3101 24.2164 42.2881L22.4442 42.1903C22.0796 42.1703 21.7865 41.9268 21.9875 41.813L32.065 36.1311C32.1399 36.0892 32.266 36.0792 32.4058 36.1012L41.1677 37.5945C41.5153 37.6544 41.7198 37.88 41.5051 37.9718Z" fill="#1B263E"/>
<path d="M24.4532 0.558348L12.4639 28.4266C12.3242 28.754 12.999 28.9956 13.4659 28.7839L15.7322 27.7578C16.2127 27.5402 16.9045 27.8017 16.7239 28.1351L2.0014 55.6839C1.77647 56.1072 0.655246 55.9594 0.781342 55.5242L11.4211 19.1611C11.5165 18.8397 10.8553 18.6241 10.4055 18.8297L8.25505 19.816C7.81201 20.0196 7.15768 19.81 7.23947 19.4925L11.2643 3.65682C11.295 3.54102 11.4245 3.4392 11.6153 3.38929L23.5705 0.157065C24.0477 0.0272962 24.5759 0.268865 24.4498 0.558348H24.4532Z" fill="#F39323"/>
<path d="M23.6803 0.437254L11.691 28.3055C11.5512 28.6329 12.226 28.8745 12.6929 28.6628L14.9592 27.6367C15.4398 27.4191 16.1316 27.6806 15.951 28.014L1.23187 55.5628C1.00694 55.9861 -0.114285 55.8383 0.0118103 55.4031L10.6515 19.04C10.747 18.7186 10.0858 18.503 9.63596 18.7086L7.48552 19.6949C7.04248 19.8985 6.38815 19.6889 6.46994 19.3714L10.4914 3.53372C10.522 3.41793 10.6515 3.31611 10.8424 3.2662L22.801 0.0359708C23.2781 -0.0937975 23.8064 0.147771 23.6803 0.437254Z" fill="#F2CA25"/>
</g>
<defs>
<clipPath id="clip0_922_121041">
<rect width="42" height="56" fill="white"/>
</clipPath>
</defs>
</svg>
