<svg width="81" height="57" viewBox="0 0 81 57" fill="none" xmlns="http://www.w3.org/2000/svg">
<path d="M74.0215 35.6589C74.4633 35.2178 77.6433 31.1812 79.0961 29.8612C80.5489 28.5413 80.7865 28.03 80.9773 27.5889C81.1681 27.1478 80.0267 27.101 80.0267 27.101C76.3077 27.4887 58.0344 26.5798 57.8603 26.5731C57.6996 26.5564 40.4539 24.7352 38.1409 23.8864C38.1409 23.8864 37.0797 23.7661 36.3266 24.1604C35.5734 24.5547 34.6998 25.0226 33.1733 26.3325C31.6469 27.6457 25.9028 31.4852 25.3505 31.9163C24.7982 32.3507 21.337 35.1978 19.9277 37.2662C18.5185 39.3347 14.9669 45.4799 15.1812 46.6562C15.3954 47.8324 17.8524 53.9476 18.5754 54.5491C19.2984 55.1472 21.0792 56.3034 23.8074 56.6175H23.8141C26.7598 56.7412 30.6662 56.0227 32.5206 55.6217C34.3784 55.2207 49.2006 50.4288 51.8283 49.4731C54.456 48.5174 64.2873 42.8534 67.4204 40.9186C70.5502 38.9805 73.5796 36.1 74.0215 35.6589ZM34.4755 36.9154C31.4361 36.5912 29.5414 35.8628 30.2477 35.288C30.9507 34.7132 33.9868 34.5127 37.0262 34.8369C40.0656 35.161 41.9602 35.8895 41.2539 36.4642C40.5476 37.039 37.5149 37.2395 34.4755 36.9154ZM56.4176 38.5995C53.1874 38.4425 51.0584 37.8443 51.6643 37.2629C52.2702 36.6815 55.3765 36.3373 58.6068 36.4943C61.837 36.6514 63.9659 37.2495 63.3601 37.831C62.7542 38.4124 59.6478 38.7566 56.4176 38.5995Z" fill="#1E2734"/>
<path d="M48.9424 15.9032C48.8855 15.1145 47.6001 8.04035 47.5632 5.67783C47.5264 3.31531 47.2051 2.43646 46.9239 1.6846C46.6427 0.932737 45.5347 0.99957 45.5347 0.99957C42.5053 2.11567 24.6705 2.93102 24.5031 2.94105C24.3357 2.93436 6.50088 2.11567 3.4715 0.99957C3.47485 0.99957 2.36686 0.936079 2.08568 1.6846C1.8045 2.43312 1.48315 3.31531 1.44633 5.67783C1.40951 8.04035 0.124117 15.1179 0.067211 15.9032C0.0103055 16.6918 -0.203927 21.8345 0.659698 25.4368C1.52332 29.0357 4.67656 39.6453 6.10589 41.5567C7.53523 43.4681 16.2083 53.2724 17.5037 54.1713C18.7992 55.0702 21.6545 56.7544 24.5031 56.9248H24.5098C27.3584 56.7544 30.2138 55.0702 31.5092 54.1713C32.8046 53.2724 41.481 43.4681 42.907 41.5567C44.333 39.6453 47.4896 29.0357 48.3532 25.4368C49.2169 21.8379 49.0026 16.6918 48.9457 15.9032H48.9424ZM13.7245 23.0007C10.578 22.8504 8.06411 21.8847 8.11432 20.8488C8.16453 19.8095 10.7554 19.0911 13.9053 19.2448C17.0518 19.3951 19.5657 20.3609 19.5155 21.3968C19.4653 22.4327 16.8744 23.1545 13.7245 23.0007ZM35.7604 23.0007C32.6138 23.1511 30.0196 22.4327 29.9694 21.3968C29.9192 20.3609 32.4297 19.3951 35.5796 19.2448C38.7262 19.0944 41.3204 19.8129 41.3706 20.8488C41.4208 21.8847 38.9103 22.8504 35.7604 23.0007Z" fill="#D9D9D9"/>
</svg>
