<svg width="65" height="83" viewBox="0 0 65 83" fill="none" xmlns="http://www.w3.org/2000/svg">
<g clip-path="url(#clip0_1014_24346)">
<path d="M63.5387 15.9665L28.2912 0.10996C27.9297 -0.0525095 27.52 -0.0331102 27.1777 0.156033C26.8379 0.350026 26.6041 0.691939 26.5511 1.07993L17.8435 64.9158C17.7664 65.4881 18.0845 66.0386 18.6171 66.2495L53.0356 80.0182C53.1826 80.0764 53.3392 80.1055 53.4959 80.1055C53.7104 80.1055 53.9225 80.0497 54.1129 79.9406C54.4406 79.749 54.6672 79.4217 54.725 79.0458L64.2641 17.2978C64.3485 16.7376 64.0545 16.192 63.5435 15.9641L63.5387 15.9665Z" fill="#7A2E36"/>
<path d="M11.7654 11.842C11.7654 11.842 13.1656 10.278 14.5635 9.65234C14.5635 9.65234 57.1714 16.5367 59.661 17.6327L50.6424 80.6878L5.54492 76.1508L11.7654 11.842Z" fill="#FFF8C6"/>
<path d="M60.7045 18.4356C60.4972 18.164 60.1936 17.9918 59.8562 17.9482L10.0951 12.1066C9.45645 12.0484 8.81296 12.5042 8.71896 13.1808L0.0113258 77.0167C-0.0344658 77.3586 0.0595275 77.7054 0.276435 77.9745C0.490933 78.2413 0.806654 78.4086 1.14889 78.4377L50.0833 82.1939C50.1146 82.1963 50.1459 82.1963 50.1772 82.1963C50.787 82.1963 51.3124 81.7526 51.4064 81.1366L60.9431 19.3862C60.9937 19.0491 60.9094 18.7072 60.7045 18.4356Z" fill="#6F2626"/>
<path d="M64.5845 16.1169C64.2833 15.9156 63.8904 15.9083 63.5795 16.0999L60.1379 18.229C59.9041 18.372 59.7475 18.6097 59.7065 18.8813L49.8107 81.917C49.7529 82.2783 49.9095 82.6396 50.2132 82.8433C50.3698 82.9475 50.5506 83.0033 50.7314 83.0033C50.9025 83.0033 51.0688 82.9572 51.2206 82.8651L54.6646 80.736C54.8984 80.5929 55.055 80.3553 55.096 80.0837L64.9894 17.048C65.0473 16.6867 64.8906 16.3254 64.5869 16.1193L64.5845 16.1169Z" fill="#532222"/>
</g>
<defs>
<clipPath id="clip0_1014_24346">
<rect width="65" height="83" fill="white"/>
</clipPath>
</defs>
</svg>
