<svg width="58" height="84" viewBox="0 0 58 84" fill="none" xmlns="http://www.w3.org/2000/svg">
<g clip-path="url(#clip0_915_91566)">
<path d="M32.7874 62.668H26.1387V294.846H32.7874V62.668Z" fill="#282828"/>
<path d="M18.4961 45.5943V8.94274C18.4961 8.94274 21.7168 0.0621672 29.8589 0.253033C38.001 0.443899 40.6531 8.37544 40.6531 8.37544V45.5943H18.4961Z" fill="#A09B98"/>
<path d="M18.5547 33.4531C21.8285 33.2622 26.2929 33.3258 29.5774 33.2675C32.8778 33.2251 37.2996 33.0183 40.6 33.1085C34.0311 36.4698 25.2353 36.5918 18.56 33.4531H18.5547Z" fill="#878787"/>
<path d="M18.5547 34.832C21.8285 34.6411 26.2929 34.7047 29.5774 34.6464C32.8778 34.604 37.2996 34.3972 40.6 34.4874C34.0311 37.8487 25.2353 37.9707 18.56 34.832H18.5547Z" fill="#878787"/>
<path d="M18.5547 36.2109C21.8285 36.02 26.2929 36.0836 29.5774 36.0253C32.8778 35.9829 37.2996 35.7761 40.6 35.8663C34.0311 39.2276 25.2353 39.3496 18.56 36.2109H18.5547Z" fill="#878787"/>
<path d="M18.5547 37.5898C21.8285 37.3989 26.2929 37.4625 29.5774 37.4042C32.8778 37.3618 37.2996 37.155 40.6 37.2452C34.0311 40.6065 25.2353 40.7285 18.56 37.5898H18.5547Z" fill="#878787"/>
<path d="M18.5547 38.9648C21.8285 38.7739 26.2929 38.8375 29.5774 38.7792C32.8778 38.7368 37.2996 38.53 40.6 38.6202C34.0311 41.9815 25.2353 42.1035 18.56 38.9648H18.5547Z" fill="#878787"/>
<path d="M18.5547 40.5546C21.8285 40.3638 26.2929 40.4274 29.5774 40.3691C32.8778 40.3267 37.2996 40.1199 40.6 40.21C34.0311 43.5714 25.2353 43.6933 18.56 40.5546H18.5547Z" fill="#878787"/>
<path d="M18.5547 41.9335C21.8285 41.7427 26.2929 41.8063 29.5774 41.748C32.8778 41.7056 37.2996 41.4988 40.6 41.5889C34.0311 44.9503 25.2353 45.0722 18.56 41.9335H18.5547Z" fill="#878787"/>
<path d="M18.5547 43.3085C21.8285 43.1177 26.2929 43.1813 29.5774 43.123C32.8778 43.0806 37.2996 42.8738 40.6 42.9639C34.0311 46.3253 25.2353 46.4472 18.56 43.3085H18.5547Z" fill="#878787"/>
<mask id="mask0_915_91566" style="mask-type:luminance" maskUnits="userSpaceOnUse" x="18" y="0" width="23" height="46">
<path d="M18.4961 45.7232V9.07164C18.4961 9.07164 21.7168 0.191073 29.8589 0.381939C38.001 0.572805 40.6531 8.50435 40.6531 8.50435V45.7232H18.4961Z" fill="white"/>
</mask>
<g mask="url(#mask0_915_91566)">
<path d="M18.9688 0.487769C24.5385 0.710445 29.8904 0.964933 35.423 0.455958C37.246 0.31811 39.0795 0.11664 41.0088 0C34.5886 4.07711 25.5643 4.27858 18.9688 0.487769Z" fill="#878787"/>
<path d="M18.9688 2.51948C22.2426 2.32861 26.7069 2.39223 29.9914 2.33391C33.2918 2.2915 37.7137 2.08473 41.0141 2.17486C34.4451 5.53622 25.6493 5.65816 18.9741 2.51948H18.9688Z" fill="#878787"/>
<path d="M18.9688 3.89838C22.2426 3.70752 26.7069 3.77114 29.9914 3.71282C33.2918 3.6704 37.7137 3.46363 41.0141 3.55376C34.4451 6.91513 25.6493 7.03707 18.9741 3.89838H18.9688Z" fill="#878787"/>
<path d="M18.9688 5.27338C22.2426 5.08252 26.7069 5.14614 29.9914 5.08782C33.2918 5.0454 37.7137 4.83863 41.0141 4.92876C34.4451 8.29013 25.6493 8.41207 18.9741 5.27338H18.9688Z" fill="#878787"/>
<path d="M18.9688 6.65229C22.2426 6.46142 26.7069 6.52504 29.9914 6.46672C33.2918 6.42431 37.7137 6.21754 41.0141 6.30767C34.4451 9.66903 25.6493 9.79097 18.9741 6.65229H18.9688Z" fill="#878787"/>
</g>
<path d="M44.4731 39.3125L44.4359 62.6459C44.4359 62.6459 44.9727 68.4355 37.7978 68.4355H21.3276C14.1528 68.4355 14.6895 62.6459 14.6895 62.6459L14.6523 39.3125" stroke="#6F7070" stroke-width="4.58" stroke-miterlimit="10"/>
<path d="M41.9807 36.0793L29.5124 35.8672L17.0441 36.0793C17.0441 36.0793 16.3798 56.8412 18.3675 62.2226C20.3552 67.604 29.5071 67.5138 29.5071 67.5138C29.5071 67.5138 38.659 67.6093 40.652 62.2226C42.645 56.8359 41.9754 36.0793 41.9754 36.0793H41.9807Z" fill="#373839"/>
<path d="M41.9819 36.0768L29.5137 35.8594V67.5113" fill="#373839"/>
<path d="M43.1568 42.9663C38.9795 43.2898 34.446 43.4859 29.6043 43.4859C24.7627 43.4859 20.2292 43.2845 16.0519 42.9663C15.7383 42.3195 15.2812 41.1531 15.2812 39.6474C15.2812 37.9932 15.8233 36.7314 16.1635 36.0793C20.5056 35.9414 24.9912 35.8672 29.6043 35.8672C34.2175 35.8672 38.6978 35.9414 43.0452 36.0793C43.38 36.7102 43.869 37.8448 43.9274 39.3293C43.9965 41.01 43.481 42.3036 43.1568 42.9663Z" fill="#464749"/>
<path d="M16.2587 44.47C15.9185 44.6131 15.302 44.8252 14.5048 44.8093C13.8139 44.7934 13.2665 44.6131 12.9423 44.47C12.5809 43.1445 12.2302 41.3313 12.2248 39.1575C12.2142 36.9043 12.5756 35.0274 12.9423 33.6702C13.2984 33.5429 13.8405 33.3945 14.5048 33.3839C15.2648 33.3679 15.876 33.5376 16.2587 33.6702C16.652 34.9532 17.0772 36.83 17.0718 39.1257C17.0665 41.3631 16.6467 43.1975 16.2587 44.4647V44.47Z" fill="#6F7070"/>
<path d="M46.0155 44.439C45.6913 44.5769 45.1014 44.7783 44.3414 44.7624C43.677 44.7465 43.1615 44.5716 42.8479 44.439C42.5025 43.1719 42.1677 41.4382 42.1623 39.3705C42.1517 37.2232 42.4972 35.4259 42.8479 34.1323C43.1881 34.0103 43.7036 33.8725 44.3414 33.8566C45.0695 33.8407 45.6488 33.9997 46.0155 34.1323C46.3928 35.357 46.7968 37.149 46.7914 39.3387C46.7861 41.4753 46.3875 43.2302 46.0155 44.439Z" fill="#6F7070"/>
<path d="M33.0586 64.2113C34.0418 63.1298 34.8709 62.2762 35.5512 61.3589C36.2049 60.4364 36.9915 59.7048 37.4273 58.5278C38.3255 56.1048 39.0057 53.5759 39.2927 50.9727H39.5372C39.973 53.6501 39.8401 56.3911 39.298 59.0686C39.0376 60.4841 38.4849 62.1065 37.2944 63.0502C36.1252 64.0311 34.6371 64.5984 33.1436 64.434L33.0586 64.206V64.2113Z" fill="#464749"/>
<path d="M39.3812 67.9641C44.2813 67.6194 44.2707 62.1373 44.5311 58.4102H44.6215L44.6906 59.9901C44.7543 62.5509 44.9031 65.9441 42.6444 67.6672C41.6559 68.3405 40.3803 68.4518 39.3652 68.0542L39.3759 67.9641H39.3812Z" fill="#B2B2B2"/>
<path d="M44.793 44.1206C44.8833 42.9436 45.2447 41.9998 45.6167 40.9289C45.9037 39.8685 46.0472 38.771 46.0525 37.6629L46.1429 37.6523C46.4086 38.7498 46.4884 39.9162 46.3342 41.072C46.2651 42.249 45.8559 43.4207 44.8727 44.1683L44.793 44.1259V44.1206Z" fill="#B2B2B2"/>
</g>
<defs>
<clipPath id="clip0_915_91566">
<rect width="58" height="84" fill="white"/>
</clipPath>
</defs>
</svg>
