<svg width="60" height="30" viewBox="0 0 60 30" fill="none" xmlns="http://www.w3.org/2000/svg">
<path d="M0 30V26.0625C0 24.2708 0.916667 22.8125 2.75 21.6875C4.58333 20.5625 7 20 10 20C10.5417 20 11.0625 20.0104 11.5625 20.0312C12.0625 20.0521 12.5417 20.1042 13 20.1875C12.4167 21.0625 11.9792 21.9792 11.6875 22.9375C11.3958 23.8958 11.25 24.8958 11.25 25.9375V30H0ZM15 30V25.9375C15 24.6042 15.3646 23.3854 16.0938 22.2813C16.8229 21.1771 17.8542 20.2083 19.1875 19.375C20.5208 18.5417 22.1146 17.9167 23.9688 17.5C25.8229 17.0833 27.8333 16.875 30 16.875C32.2083 16.875 34.2396 17.0833 36.0938 17.5C37.9479 17.9167 39.5417 18.5417 40.875 19.375C42.2083 20.2083 43.2292 21.1771 43.9375 22.2813C44.6458 23.3854 45 24.6042 45 25.9375V30H15ZM48.75 30V25.9375C48.75 24.8542 48.6146 23.8333 48.3437 22.875C48.0729 21.9167 47.6667 21.0208 47.125 20.1875C47.5833 20.1042 48.0521 20.0521 48.5313 20.0312C49.0104 20.0104 49.5 20 50 20C53 20 55.4167 20.5521 57.25 21.6563C59.0833 22.7604 60 24.2292 60 26.0625V30H48.75ZM20.3125 25H39.75C39.3333 24.1667 38.1771 23.4375 36.2812 22.8125C34.3854 22.1875 32.2917 21.875 30 21.875C27.7083 21.875 25.6146 22.1875 23.7188 22.8125C21.8229 23.4375 20.6875 24.1667 20.3125 25ZM10 17.5C8.625 17.5 7.44792 17.0104 6.46875 16.0312C5.48958 15.0521 5 13.875 5 12.5C5 11.0833 5.48958 9.89583 6.46875 8.9375C7.44792 7.97917 8.625 7.5 10 7.5C11.4167 7.5 12.6042 7.97917 13.5625 8.9375C14.5208 9.89583 15 11.0833 15 12.5C15 13.875 14.5208 15.0521 13.5625 16.0312C12.6042 17.0104 11.4167 17.5 10 17.5ZM50 17.5C48.625 17.5 47.4479 17.0104 46.4687 16.0312C45.4896 15.0521 45 13.875 45 12.5C45 11.0833 45.4896 9.89583 46.4687 8.9375C47.4479 7.97917 48.625 7.5 50 7.5C51.4167 7.5 52.6042 7.97917 53.5625 8.9375C54.5208 9.89583 55 11.0833 55 12.5C55 13.875 54.5208 15.0521 53.5625 16.0312C52.6042 17.0104 51.4167 17.5 50 17.5ZM30 15C27.9167 15 26.1458 14.2708 24.6875 12.8125C23.2292 11.3542 22.5 9.58333 22.5 7.5C22.5 5.375 23.2292 3.59375 24.6875 2.15625C26.1458 0.71875 27.9167 0 30 0C32.125 0 33.9062 0.71875 35.3437 2.15625C36.7812 3.59375 37.5 5.375 37.5 7.5C37.5 9.58333 36.7812 11.3542 35.3437 12.8125C33.9062 14.2708 32.125 15 30 15ZM30 10C30.7083 10 31.3021 9.76042 31.7813 9.28125C32.2604 8.80208 32.5 8.20833 32.5 7.5C32.5 6.79167 32.2604 6.19792 31.7813 5.71875C31.3021 5.23958 30.7083 5 30 5C29.2917 5 28.6979 5.23958 28.2188 5.71875C27.7396 6.19792 27.5 6.79167 27.5 7.5C27.5 8.20833 27.7396 8.80208 28.2188 9.28125C28.6979 9.76042 29.2917 10 30 10Z" fill="#F2870D"/>
</svg>
