<svg width="33" height="46" viewBox="0 0 33 46" fill="none" xmlns="http://www.w3.org/2000/svg">
<path d="M7.5 45.5V40.5H0V35.5H5V10.5H0V5.5H7.5V0.5H12.5V5.5H17.5V0.5H22.5V5.8125C24.6667 6.39583 26.4583 7.57292 27.875 9.34375C29.2917 11.1146 30 13.1667 30 15.5C30 16.7083 29.7917 17.8646 29.375 18.9688C28.9583 20.0729 28.375 21.0625 27.625 21.9375C29.0833 22.8125 30.2604 24 31.1563 25.5C32.0521 27 32.5 28.6667 32.5 30.5C32.5 33.25 31.5208 35.6042 29.5625 37.5625C27.6042 39.5208 25.25 40.5 22.5 40.5V45.5H17.5V40.5H12.5V45.5H7.5ZM10 20.5H20C21.375 20.5 22.5521 20.0104 23.5313 19.0312C24.5104 18.0521 25 16.875 25 15.5C25 14.125 24.5104 12.9479 23.5313 11.9688C22.5521 10.9896 21.375 10.5 20 10.5H10V20.5ZM10 35.5H22.5C23.875 35.5 25.0521 35.0104 26.0313 34.0313C27.0104 33.0521 27.5 31.875 27.5 30.5C27.5 29.125 27.0104 27.9479 26.0313 26.9688C25.0521 25.9896 23.875 25.5 22.5 25.5H10V35.5Z" fill="#F2870D"/>
</svg>
