<svg width="312" height="301" viewBox="0 0 312 301" fill="none" xmlns="http://www.w3.org/2000/svg">
<g clip-path="url(#clip0_1501_78812)">
<path d="M52.0115 146.574L57.1094 143.904L54.0497 138.135L48.9519 140.805L52.0115 146.574Z" fill="#F6F4C3"/>
<path d="M105.688 133.733C109.963 134.664 112.288 135 113.188 137.285C113.475 138.018 113.125 138.863 113.225 139.633C113.588 142.552 113.65 143.831 113.713 144.8C115.2 169.778 115.95 182.274 115.675 185.95C115.263 191.453 114.438 199.377 116.513 208.804C117.55 213.512 114.938 210.991 115.688 210.804C121.763 209.301 123.213 215.127 122.613 216.878C121.975 218.741 120.013 219.635 118.988 220.058C111.925 223.002 99.4377 224.343 95.4877 224.803C88.5377 225.622 82.6877 226.678 79.8752 227.225C72.0127 228.74 66.9127 229.15 66.8252 229.845C66.7252 230.715 64.8377 231.336 62.3127 230.802C60.6877 230.466 60.1002 229.895 59.2252 228.554C58.1127 226.877 57.8502 224.927 57.8877 223.821C58.1752 215.971 55.0752 195.39 55.1377 181.553C55.2127 164.922 59.9127 159.407 55.6877 148.874C55.3752 148.104 53.2627 139.894 50.9377 141.483C50.0252 142.105 50.5877 144.601 51.5252 144.887C52.1252 145.073 52.2877 143.843 52.7502 143.856C52.8377 143.856 52.8127 145.023 52.4377 145.259C51.2002 146.03 49.8252 145.135 49.5627 144.539C48.7502 142.688 50.1752 138.974 50.5627 138.08C55.5377 126.715 99.5377 132.391 105.688 133.733Z" fill="#B58653"/>
<path d="M57.686 182.198C57.761 165.567 61.161 159.27 56.936 148.737C56.6235 147.967 53.3735 139.769 50.6985 140.688C49.6485 141.048 48.8985 143.719 51.161 145.172C51.586 145.445 52.161 145.259 52.386 144.799C52.611 144.34 52.411 143.868 52.7485 143.88C52.961 143.88 53.6485 144.911 52.7735 145.954C52.2985 146.526 51.836 146.687 51.486 146.7C48.2235 146.762 47.6735 140.44 48.1485 139.061C53.1235 124.851 89.8235 129.671 106.911 130.23C110.586 130.354 112.824 134.838 113.736 137.123C114.024 137.856 114.386 138.701 114.486 139.483C114.849 142.402 114.911 143.681 114.974 144.65C116.461 169.629 117.211 182.124 116.936 185.8C116.524 191.303 115.699 199.227 117.773 208.655C117.786 208.729 117.811 208.816 117.824 208.891C117.999 209.711 118.674 210.344 119.511 210.443C123.436 210.903 124.386 215.25 123.874 216.716C123.236 218.579 121.273 219.473 120.249 219.896C113.186 222.839 100.699 224.181 96.7485 224.64C89.7985 225.46 83.9485 226.516 81.136 227.063C73.2735 228.578 68.961 229.87 68.286 230.056C65.4735 230.838 66.111 231.161 63.5735 230.627C61.9485 230.292 60.411 229.286 59.661 227.845C58.736 226.056 59.061 224.218 59.1485 223.647C60.011 218.356 57.636 195.998 57.6985 182.161L57.686 182.198Z" fill="#F6F4C3"/>
<path d="M60.3851 226.701C61.3226 227.447 63.1476 227.869 64.2351 227.683C66.1101 227.372 67.7601 225.472 67.2351 223.571C66.9851 222.665 66.3976 221.895 65.4226 221.721C63.5601 221.385 62.8476 224.143 62.7101 223.609C62.6101 223.236 63.0851 220.516 65.1351 220.354C66.3851 220.255 68.8476 220.802 69.6476 224.019C70.3976 227.024 68.0351 230.689 65.0351 230.962C62.9476 231.148 60.4226 229.459 59.5101 227.894C58.2726 225.77 59.2226 222.59 59.2351 222.913C59.3226 224.491 59.4226 225.944 60.3976 226.714L60.3851 226.701Z" fill="#B58653"/>
<path d="M65.7117 220.083C65.7367 220.244 72.1742 219.101 82.4742 218.07C94.6742 216.853 97.5367 217.251 104.312 215.363C109.537 213.897 114.299 211.86 114.287 211.823C114.287 211.798 111.899 212.692 108.962 213.599C108.187 213.835 103.374 215.301 97.5492 216.332C89.1367 217.81 87.8992 216.754 77.5992 218.008C71.1367 218.803 65.6867 219.946 65.6992 220.083H65.7117Z" fill="#B58653"/>
<path d="M122.199 211.648C119.899 209.512 117.049 210.257 114.874 211.71C114.212 212.145 113.562 212.741 113.599 212.778C113.624 212.816 114.399 212.269 115.249 211.76C119.124 209.437 122.299 211.735 122.212 211.648H122.199Z" fill="#B58653"/>
<path d="M63.2475 223.671C63.9475 223.497 66.3975 223.199 66.9725 223.186C67.035 223.186 65.96 223 65.8225 223C64.3475 223.037 63.1475 223.696 63.235 223.671H63.2475Z" fill="#B58653"/>
<path d="M52.6369 143.892C52.6369 143.892 52.9119 143.73 52.9244 143.73C53.2494 143.619 53.5994 143.221 53.7619 143.32C53.8244 143.37 53.7869 143.482 53.7869 143.507C53.9244 144.153 54.8619 145.047 54.3744 145.32C53.6619 145.73 53.3744 145.879 52.6494 146.227C52.5244 146.289 52.8619 146.016 52.9744 145.32C53.0369 144.96 53.1244 144.302 52.8994 144.016C52.7369 143.805 52.4869 144.004 52.6119 143.892H52.6369Z" fill="#B58653"/>
<path d="M99.0626 174.027C98.8213 173.929 98.4446 173.897 98.4331 173.733C98.4215 173.569 98.6377 173.503 99.14 173.154C99.1944 173.113 101.567 171.706 101.304 167.699C101.017 163.377 97.1066 161.555 95.8326 161.103C95.6047 161.019 95.2288 160.919 94.7847 160.9L91.2028 160.899L90.8764 154.213L86.9421 154.413L87.2685 161.1L84.2908 161.256L83.9644 154.57L79.6932 154.794L80.0196 161.48L72.4204 161.87L72.6283 166L77.1411 165.847C77.3431 165.849 77.5163 166.002 77.5274 166.207L78.5528 186.922C78.5516 187.031 78.4697 187.126 78.3754 187.125L74.2255 187.336L73.9174 191.842L81.8804 191.429L82.2068 198.115L86.2624 197.903L85.9361 191.217L88.9946 191.061L89.321 197.747L93.4304 197.535L93.092 190.726L94.6145 190.648C95.0188 190.625 97.9449 190.276 98.595 189.956C98.7846 189.863 104.357 187.754 104.186 181.603C104.035 176.039 99.3038 174.126 99.076 174.028L99.0626 174.027ZM84.4163 165.522L89.5633 165.253C89.5633 165.253 93.4886 165.832 93.6394 169.086C93.814 172.6 90.1129 173.596 90.1129 173.596L84.8178 173.862L84.4029 165.521L84.4163 165.522ZM90.7578 186.49L85.4627 186.756L85.0167 177.609L90.1637 177.341C90.1637 177.341 96.26 177.657 96.4567 181.595C96.6635 185.82 90.7579 186.476 90.7579 186.476L90.7578 186.49Z" fill="#F39422"/>
</g>
<ellipse cx="185.996" cy="279.5" rx="116" ry="21.5" fill="#17284F"/>
<path d="M116.051 142.279C119.191 146.17 120.765 151.089 122.287 153.782C126.099 160.516 126.106 160.989 130.621 167.283C134.254 172.347 137.894 177 141.923 179.813C144.891 181.881 139.294 157.811 127.442 147.003C124.423 144.253 122.313 139.246 120.682 140.545C120.515 140.678 113.946 139.675 116.051 142.279Z" fill="#6B5746"/>
<path d="M164.769 191.882C168.811 194.304 171.996 194.499 178.233 198.34C180.062 199.469 182.275 201.184 183.26 203.82C183.554 204.602 184.066 206.039 183.458 207.534C182.972 208.732 182.006 209.382 181.738 209.558C180.753 210.202 180.247 210.586 178.77 210.738C176.64 210.952 175.853 210.883 175.29 211.028C172.732 211.683 181.495 225.487 192.912 226.446C194.543 226.585 201.726 227.184 205.941 222.341C210.392 217.22 208.358 209.684 207.994 208.322C204.086 193.844 184.245 189.095 179.026 187.847C177.228 187.418 167.634 188.257 163.88 188.042C161.564 187.91 164.423 191.681 164.769 191.882Z" fill="#6B5746"/>
<path d="M148.096 39.7253C144.207 36.1876 139.032 31.477 130.622 26.1863C123.931 21.9738 117.126 21.4252 111.439 20.9712C107.327 20.6369 100.144 20.5298 91.8607 22.926C81.5629 25.9025 80.303 29.642 68.3166 35.4435C65.2144 36.9443 56.2022 41.0937 44.107 43.4017C36.6747 44.8143 25.1168 46.8827 12.4908 42.7522C7.98792 41.2766 -0.378263 35.4183 0.0119038 33.2301C0.21657 32.095 3.24193 34.2138 4.2909 34.012C16.2197 31.704 35.4083 32.8454 44.7722 31.6662C62.6047 29.4213 60.5771 16.7903 83.1364 12.231C85.2599 11.8022 95.8647 9.77796 109.329 12.231C120.381 14.2426 127.315 18.1776 135.918 23.0584C143.651 27.4411 146.836 30.4933 146.9 34.012C146.925 35.4498 149.202 40.7216 148.102 39.7253L148.096 39.7253Z" fill="#6B5746"/>
<path d="M141.165 49.1903C136.905 48.0363 134.66 47.4057 129.332 47.2859C120.602 47.0904 114.205 49.5056 112.037 50.4515C106.377 52.9045 102.596 57.8674 95.0361 67.7994C90.6739 73.5316 87.1113 78.98 83.8556 83.9744C77.2676 94.0703 77.4531 94.764 74.7923 97.4062C67.8141 104.343 59.48 106.569 56.0068 107.445C56.0068 107.445 44.6792 110.321 33.7802 107.187C31.4392 106.512 28.9318 105.011 28.1387 104.532C26.6228 103.624 26.5077 103.372 26.5077 103.183C26.5269 101.713 33.9336 101.114 38.6348 100.011C50.1287 97.3053 57.4076 88.7291 61.7378 83.6212C70.4749 73.3298 66.6053 70.12 75.1889 58.8007C78.8539 53.964 85.6658 45.2175 97.8121 40.8033C105.456 38.0286 112.076 38.5205 125.328 39.4979C135.185 40.2294 139.119 41.787 140.538 44.713C141.236 46.1508 142.636 49.5939 141.165 49.1903Z" fill="#6B5746"/>
<path d="M267.024 251.787C269.96 243.917 276.727 230.693 277.52 221.499C278.863 205.911 280.865 185.044 267.049 164.354C260.576 154.655 250.56 147.164 230.54 132.187C224.892 127.962 215.81 123.964 206.906 115.842C197.779 107.511 193.148 102.277 193.148 102.277C189.688 98.3676 188.101 96.129 187.679 96.3623C186.458 97.056 197.369 117.273 203.024 128.706C229.369 181.992 231.48 226.456 257.174 246.95C261.267 250.217 265.022 257.166 267.03 251.787L267.024 251.787Z" fill="#6B5746"/>
<path d="M21.5306 29.0622C32.5639 26.0732 33.485 22.5986 52.2193 12.717C65.3378 5.79298 71.9004 2.33097 80.0874 0.893194C94.0631 -1.56616 105.467 1.65621 111.128 3.32731C118.759 5.57856 136.905 11.2603 146.755 24.8056C150.509 29.9703 150.989 29.5856 160.423 45.8489C162.138 48.8001 162.982 51.7576 164.747 54.1097C174.687 67.365 176.139 68.1911 179.209 72.8891C182.887 78.5141 181.838 78.8988 188.733 95.4962C193.984 108.14 196.606 114.458 199.318 118.45C204.992 126.825 208.964 127.607 224.014 139.664C238.405 151.191 245.601 156.961 251.882 165.745C261.854 179.688 265.064 193.65 266.344 199.483C268.8 210.651 268.825 220.312 268.813 225.564C268.761 245.252 264.553 256.086 269.164 258.602C272.267 260.298 278.957 258.015 282.923 255.121C285.328 253.374 287.144 251.098 288.212 251.646C289.319 252.214 288.724 255.348 288.564 256.168C287.534 261.572 284.099 265.652 280.805 268.685C276.398 272.74 271.819 275.319 269.516 276.334C269.254 276.448 268.973 276.561 268.685 276.675L140.128 276.675C140.531 274.903 142.648 273.156 144.292 271.813C150.765 266.503 159.515 267.291 162.285 267.291C168.853 267.291 173.702 266.295 175.422 264.107C176.196 263.123 175.966 260.739 175.697 259.882C174.751 256.912 172.774 254.358 164.191 246.759C157.615 240.939 154.584 239.349 153.112 234.595C151.117 228.156 154.091 218.918 155.063 217.676C157.308 214.806 159.502 209.648 171.866 210.6C190.485 212.032 194.841 225.716 198.289 223.906C209.073 218.231 194.189 201.286 189.027 198.215C179.202 192.369 167.811 193.561 158.754 190.087C155.242 188.737 145.667 185.061 138.644 176.176C136.642 173.641 133.412 167.719 126.345 156.091C123.083 150.731 121.432 148.795 118.266 144.803C115.58 141.423 112.567 138.743 107.297 136.353C103.261 134.524 100.702 132.506 100.817 132.008C101.195 130.343 108.634 131.756 110.207 132.223C111.819 132.702 117.3 134.776 120.831 136.958C125.232 139.683 126.255 141.064 128.104 141.713C138.331 145.314 140.723 141.221 143.269 138.957C145.085 137.343 148.814 129.927 149.364 128.83C150.676 126.213 152.646 122.618 151.283 120.449C149.831 118.135 147.254 117.826 144.989 118.091C141.849 118.456 141.977 120.733 137.934 122.265C132.997 124.132 127.873 124.126 123.959 123.659C119.29 123.098 117.287 122.354 115.362 119.831C114.403 118.57 113.795 117.082 113.424 111.551C112.817 102.534 113.412 100.61 114.019 94.0774C114.505 88.856 127.003 64.4075 144.439 57.6916C147.497 56.5123 145.61 50.8432 138.293 47.6524C132.414 45.0858 126.319 43.5724 123.409 43.4147C116.136 43.0238 110.405 42.9103 109.19 43.0868C105.154 43.6733 103.862 43.7805 100.261 44.9786C94.5748 46.8704 93.916 48.056 90.5388 50.3892C83.5734 55.207 80.8614 58.3726 75.1496 69.4082C68.5552 82.1527 70.8066 83.4769 65.6897 90.3064C60.7391 96.9151 54.5987 99.0528 46.7506 101.493C38.2884 104.129 26.4109 104.993 25.7649 103.145C25.2148 101.582 34.2845 100.983 43.7572 93.2324C51.3367 87.0273 52.8398 82.7959 59.0121 71.4955C63.2912 63.6634 66.3932 60.2266 69.1563 56.5439C75.8787 47.5704 79.339 45.8741 84.6542 42.5697C87.4558 40.8293 92.1698 38.2438 97.9903 36.2006C105.531 33.5521 114.198 33.6341 121.624 34.725C142.041 37.7267 151.302 56.3295 155.223 54.6332C161.536 51.909 139.553 30.2036 135.293 27.3344C131.941 25.0705 116.418 14.5521 90.6667 16.8979C84.3537 17.4718 79.8572 19.7167 77.2604 21.0725C69.6362 25.0642 69.4506 28.2424 62.4468 32.2026C57.5089 34.9962 53.3578 35.8097 46.9233 37.0709C43.9363 37.6573 37.3483 38.6537 23.8652 39.1771C18.5692 39.3852 14.8786 38.7735 10.2414 37.7645C6.53159 36.9574 -0.133206 34.9521 0.0139189 33.2431C0.186618 31.2063 9.80637 32.2468 21.5306 29.0685L21.5306 29.0622Z" fill="#B58653"/>
<path d="M124.201 114.35C122.065 118.013 120.869 120.063 118.444 120.611C117.549 120.813 117.069 120.675 116.788 120.548C115.899 120.139 115.451 119.243 115.969 118.398C116.941 116.822 116.794 116.531 120.114 113.832C120.677 113.372 121.866 112.943 123.069 112.918C123.235 112.918 124.156 112.899 124.393 113.372C124.559 113.706 124.316 114.141 124.195 114.35L124.201 114.35Z" fill="#6B5746"/>
<path d="M170.832 82.2725C169.559 82.3797 170.512 89.3037 167.659 97.2304C165.932 102.023 163.476 105.321 161.839 107.49C159.447 110.656 155.065 116.003 151.611 117.403C150.972 117.662 149.635 118.299 149.52 118.766C149.52 118.766 151.189 119.119 153.095 118.74C154.886 118.387 156.447 117.971 158.136 117.006C164.557 113.336 168.894 108.651 170.39 106.185C173.365 101.291 173.454 96.8142 173.653 95.0548C173.902 92.8603 174.158 88.5722 172.156 84.1012C171.363 82.3356 170.992 82.2599 170.832 82.2725Z" fill="white"/>
<path d="M150.398 87.8146C153.161 90.1163 152.535 94.4486 152.381 95.3125C152.272 95.9305 151.543 99.7835 148.281 101.7C147.328 102.262 145.192 102.817 141.073 103.252C137.824 103.592 136.627 103.435 135.783 102.943C133.372 101.543 133.634 97.3052 133.666 96.8133C133.979 92.5 137.312 88.9812 140.74 87.4236C141.495 87.0831 144.757 85.6012 148.217 86.7047C148.831 86.9002 149.612 87.1588 150.398 87.8146Z" fill="white"/>
<path d="M150.398 87.8155C153.161 90.1172 152.535 94.4494 152.381 95.3134C152.272 95.9314 150.136 99.387 148.569 99.9041C147.341 100.308 145.985 100.491 144.252 100.219C142.883 100.005 142.377 99.3051 141.725 98.5799C140.964 97.7286 140.561 96.089 140.529 95.6035C140.382 93.2639 141.124 90.3631 141.923 89.1713C142.378 88.4902 144.751 85.6021 148.211 86.7056C148.825 86.9011 149.605 87.1597 150.392 87.8155L150.398 87.8155Z" fill="#1C1B33"/>
<path d="M135.748 104.047C135.499 104.527 135.025 104.735 134.475 104.981C133.823 105.271 133.113 105.592 132.755 105.302C132.377 104.993 132.601 104.18 132.806 103.436C133.062 102.509 133.484 101.903 133.829 101.424C134.187 100.92 134.366 100.674 134.603 100.617C135.594 100.377 137.053 102.439 136.695 103.001C136.592 103.158 136.375 103.139 136.1 103.442C135.889 103.675 135.857 103.858 135.748 104.054L135.748 104.047Z" fill="#6B5746"/>
<path d="M122.805 66.0659C112.245 65.6434 101.692 65.2272 91.1316 64.8047C90.671 66.4127 90.3192 68.7018 91.1187 71.0981C92.8201 76.1808 98.5639 78.2744 102.152 79.586C104.244 80.3491 107.141 81.1247 110.742 81.295C122.524 81.9571 134.312 82.6192 146.094 83.2877C138.329 77.5492 130.564 71.8044 122.793 66.0659L122.805 66.0659Z" fill="#293B50"/>
<path d="M123.055 64.855C112.495 64.4325 101.941 64.0163 91.3814 63.5938C90.9209 65.2018 90.5691 67.4909 91.3686 69.8872C93.07 74.9698 98.8137 77.0634 102.402 78.3751C104.494 79.1381 107.391 79.9137 110.992 80.084C122.774 80.7461 134.562 81.4083 146.344 82.0767C138.579 76.3382 130.814 70.5934 123.042 64.855L123.055 64.855Z" fill="#035E5D"/>
<path d="M117.791 64.823C117.791 64.823 129.017 40.4881 138.112 39.1259C139.506 38.9179 143.881 38.0602 149.018 37.7323C152.836 37.4864 155.996 37.5305 158.171 37.6188C161.183 38.1674 165.417 39.2079 170.183 41.3331C174.11 43.0861 178.529 45.0599 182.597 49.2345C189.352 56.1648 190.944 64.8545 191.405 67.5346C193.592 80.3989 188.488 90.7471 186.87 93.7614C184.324 93.3389 180.672 92.702 176.297 91.8065C167.554 90.0219 157.627 87.5625 151.998 85.7149C145.461 83.5708 132.957 78.3873 117.791 64.823Z" fill="#077986"/>
<path d="M272.749 97.5827C272.058 95.1612 270.843 90.7722 267.856 85.7841C266.436 83.4131 262.906 77.4665 257.098 73.9855C254.469 72.409 250.67 70.9208 237.538 71.8415C226.383 72.6234 218.491 73.172 208.199 77.2016C198.311 81.0735 189.318 84.5923 187.661 92.2163C186.81 96.126 188.793 100.149 192.554 108.303C197.94 120.001 201.745 121.42 205.27 131.894C207.15 137.481 207.879 142.475 208.206 144.764C209.613 154.652 207.943 156.317 209.184 161.923C211.225 171.149 216.572 170.443 221.9 181.226C222.821 183.086 223.441 184.688 223.889 186.182C226.467 194.79 227.055 200.667 227.771 204.817C228.616 209.717 230.976 216.432 237.73 224.12C239.201 224.851 241.427 225.784 244.254 226.264C249.653 227.184 253.906 225.904 261.658 223.047C274.451 218.331 280.84 215.972 286.45 212.321C293.249 207.9 296.645 205.687 298.187 202.666C301.922 195.345 298.455 188.44 292.321 166.205C287.275 147.911 288.97 150.219 283.52 130.815C277.297 108.669 277.719 115.013 272.762 97.5701L272.749 97.5827Z" fill="#673616"/>
<path d="M231.793 175.31C230.232 171.779 228.774 168.21 227.418 164.596C226.132 160.945 224.853 157.338 223.094 153.863L222.992 153.895C223.619 157.742 224.988 161.386 226.612 164.911C228.16 168.462 229.855 171.943 231.697 175.348L231.793 175.304L231.793 175.31Z" fill="#2C190F"/>
<path d="M245.978 189.227C244.571 185.633 243.241 182.013 241.961 178.381C240.848 174.66 239.569 171.009 237.286 167.793L237.081 167.856C237.132 171.823 238.546 175.537 240.349 179.018C241.974 182.543 243.797 185.986 245.786 189.322L245.984 189.227L245.978 189.227Z" fill="#2C190F"/>
<path d="M216.563 161.4C217.19 157.635 217.376 153.788 217.107 149.973C216.928 146.145 216.148 142.305 214.389 138.855L214.286 138.887C214.9 142.652 215.7 146.297 216.244 150.055C216.71 153.807 216.774 157.61 216.461 161.387L216.57 161.4L216.563 161.4Z" fill="#2C190F"/>
<path d="M206.183 135.117C210.961 135.073 217.888 134.486 225.762 131.901C234.147 129.145 240.339 125.197 244.253 122.246C246.428 124.031 248.603 125.822 250.777 127.606C246.121 131.232 239.232 135.804 230.111 139.405C221.636 142.747 214.019 144.153 208.358 144.765C207.635 141.549 206.906 138.333 206.183 135.11L206.183 135.117Z" fill="#7C7C7D"/>
<path d="M221.411 180.16C226.656 179.656 232.956 178.653 239.903 176.673C247.297 174.567 253.501 171.918 258.394 169.434C260.569 170.777 262.743 172.114 264.918 173.457C259.878 176.698 252.957 180.457 244.252 183.376C236.807 185.873 230.078 187.078 224.673 187.664C223.586 185.161 222.499 182.657 221.411 180.16Z" fill="#7C7C7D"/>
<path d="M226.85 198.392C228.942 198.178 231.513 198.096 234.436 198.392C236.662 198.619 238.626 199.023 240.282 199.464C240.206 201.797 240.365 204.774 241.255 208.04C243.832 217.524 250.612 222.557 252.953 224.127C251.271 224.991 247.785 226.492 243.205 226.271C238.491 226.044 235.057 224.102 233.458 223.055C229.108 224.253 225.418 224.865 222.738 225.199C217.403 225.874 213.7 226.302 209.088 225.199C205.647 224.373 202.986 223.004 201.291 221.983C199.366 221.693 197 221.094 194.467 219.839C187.789 216.528 184.226 210.771 182.768 208.04C182.883 207.523 183.516 204.477 181.796 201.608C180.459 199.382 178.508 198.606 177.894 198.392C177.888 198.392 177.881 198.392 177.881 198.392C177.881 198.367 183.165 199.483 187.635 202.686C190.603 204.812 190.955 206.237 193.482 206.974C195.4 207.536 197.147 207.29 198.355 206.974C199.443 207.7 201.093 208.614 203.229 209.119C204.342 209.383 205.897 209.61 210.054 209.119C214.96 208.538 217.352 207.819 219.802 206.974C223.045 205.858 224.682 205.272 225.75 203.758C227.106 201.829 226.991 199.559 226.838 198.398L226.85 198.392Z" fill="#A65317"/>
<path d="M207.267 131.901C205.975 130.709 204.158 129.177 201.83 127.613C196.944 124.334 192.601 122.795 190.95 122.253C190.95 122.253 185.264 120.38 178.983 120.109C164.457 119.478 151.115 128.048 148.525 129.763C149.222 128.748 150.283 126.913 150.699 124.403C150.993 122.65 150.872 121.156 150.699 120.115C154.038 118.425 158.822 116.332 164.841 114.755C170.284 113.324 175.625 111.905 182.245 112.611C190.707 113.513 197.046 117.334 200.736 120.115C202.233 118.135 203.538 117.984 203.998 117.971C206.877 117.895 209.634 122.524 209.435 126.547C209.307 129.133 207.983 131.025 207.261 131.907L207.267 131.901Z" fill="#A65317"/>
<path d="M200.745 119.03C202.075 117.403 203.859 115.511 206.181 113.67C207.435 112.674 220.119 102.931 235.553 106.166C238.367 106.759 240.599 107.635 242.077 108.31C244.13 105.964 247.66 102.508 252.957 99.7337C257.095 97.5582 261.962 94.7078 268.186 95.4456C270.041 95.6663 271.531 96.133 272.535 96.5176C271.652 92.2548 269.51 85.3875 263.836 79.3589C262.045 77.4545 259.41 74.7114 255.138 72.9268C252.88 71.9809 250.347 71.3818 239.908 71.8548C228.817 72.3592 222.824 72.6746 214.893 75.0709C212.245 75.8717 210.224 76.6789 206.194 78.2869C198.487 81.3643 194.579 82.9597 192.052 85.7911C191.144 86.8127 188.061 90.363 187.703 95.4456C187.549 97.5771 189.052 101.153 192.052 108.316C193.696 112.245 194.905 114.704 197.489 116.892C198.723 117.939 199.907 118.62 200.751 119.036L200.745 119.03Z" fill="#F39324"/>
<path d="M278.648 101.929C276.64 99.2368 274.018 96.8972 270.436 95.945C265.274 94.5766 260.592 97.0675 254.465 100.435C247.013 104.528 243.29 106.577 241.231 109.907C236.069 118.249 239.856 130.098 246.252 149.294C249.514 159.094 252.898 166.913 255.379 172.229C254.612 175.067 253.978 178.617 254.01 182.697C254.087 193.821 259 202.082 261.66 205.903C264.2 206.616 266.739 207.335 269.272 208.047C272.457 208.445 276.128 208.564 280.152 208.047C296.43 205.966 306.881 195.006 310.597 190.674C310.61 186.752 310.194 180.648 307.86 173.724C305.711 167.348 302.749 162.694 300.555 159.762C300.383 152.447 299.474 146.614 298.732 142.811C298.732 142.811 295.023 123.83 278.655 101.929L278.648 101.929Z" fill="#A65317"/>
<path d="M283.792 108.999C281.073 104.799 278.854 103.759 277.255 103.494C275.892 103.273 274.511 103.652 271.805 104.421C269.413 105.102 267.469 105.651 264.961 106.912C262.94 107.927 259.09 109.914 255.553 114.227C254.753 115.204 254.35 115.69 254.005 116.333C251.312 121.29 253.896 128.081 254.926 130.843C257.926 138.915 262.326 152.164 268.16 169.228C265.659 175.572 265.352 180.964 265.422 184.186C265.505 188.14 266.202 191.179 266.791 193.658C268.16 199.447 270.168 203.981 271.812 207.121C276.839 207.064 285.711 206.289 295.382 201.61C302.5 198.166 307.49 193.841 310.598 190.669C310.675 186.942 310.393 181.689 308.775 175.711C306.607 167.74 303.019 162.058 300.562 158.76C300.716 157.152 300.786 155.267 300.684 153.179C300.556 150.632 300.198 148.412 299.789 146.596C299.789 146.596 296.833 129.141 283.805 108.999L283.792 108.999Z" fill="#F39324"/>
<path d="M300.754 158.627C298.675 159.27 296.705 160.046 294.664 160.683C292.688 161.2 290.756 162.209 288.665 161.944L288.473 161.912L288.364 162.001C286.938 163.174 285.275 164.025 283.586 164.775C280.97 165.929 278.476 167.43 275.738 168.036C273.212 168.382 270.704 168.71 268.184 169.335L268.184 169.549C270.493 170.098 272.866 170.255 275.22 170.249C276.729 170.299 278.373 169.77 279.608 169.089C281.322 168.187 282.915 167.191 284.36 165.98C285.799 164.775 287.2 163.571 288.793 162.574L288.492 162.638C291.876 163.729 295.438 162.915 298.304 160.948C299.238 160.336 300.127 159.655 300.875 158.804L300.754 158.627Z" fill="#673616"/>
<path d="M262.743 78.2798C261.086 78.45 258.834 78.759 256.218 79.3518C251.581 80.4049 248.415 81.8427 242.077 84.7119C237.657 86.7172 235.732 87.8208 234.465 90.072C233.774 91.2954 233.499 92.4683 233.378 93.2881C235.06 95.1232 237.024 97.6077 238.815 100.792C240.375 103.567 241.392 106.152 242.077 108.296C245.914 105.597 249.272 103.453 251.869 101.864C261.233 96.1132 264.687 95.1169 268.186 95.4322C270.066 95.5961 271.569 96.1069 272.535 96.5042C272.126 94.089 271.256 90.627 269.273 86.8497C267.156 82.8264 264.597 80.0139 262.749 78.2734L262.743 78.2798Z" fill="#C16716"/>
<path d="M242.078 108.309C241.547 105.61 240.236 100.988 236.641 96.5105C235.752 95.4069 234.415 93.7673 232.292 92.2224C227.527 88.7666 222.16 88.445 211.626 87.9343C210.513 87.8775 207.622 87.8964 201.834 87.9343C194.804 87.9784 192.086 88.0856 189.866 90.0783C189.591 90.3306 188.395 91.4341 187.692 93.2944C186.911 95.3565 187.167 97.2104 192.041 108.309C193.864 112.458 194.945 114.741 197.478 116.885C198.712 117.932 199.895 118.607 200.74 119.029C202.767 116.948 205.991 114.06 210.532 111.525C213.487 109.873 219.979 106.342 229.024 106.165C231.921 106.108 236.597 106.367 242.078 108.309Z" fill="#A65317"/>
<path d="M262.74 78.1712C259.811 77.692 256.792 77.9316 253.984 78.8397C251.265 79.9432 248.713 81.3936 245.803 81.9296C244.377 82.2323 242.97 82.5602 241.588 83.0016C239.464 83.6701 236.963 84.3385 235.46 86.2556C234.322 87.7438 234.168 89.6545 233.727 91.3824C233.855 91.2941 234.072 91.294 234.175 91.4265C234.258 91.5589 234.2 91.5148 234.2 91.5022C234.098 91.3067 234.092 90.84 234.04 90.6256L233.823 90.6004C233.721 90.8652 233.612 91.1301 233.561 91.4139C233.548 91.5968 233.478 91.6472 233.644 91.912C233.765 92.0634 234.047 92.0949 234.213 91.9625C235.013 91.1679 235.441 90.0392 235.998 89.1122C236.567 87.9708 237.341 87.1951 238.531 86.6276C240.27 85.7195 242.413 84.906 244.281 84.0295C246.225 83.0899 248.118 81.8918 250.184 81.2864C253.018 80.6053 255.653 80.5612 258.595 79.6468C259.977 79.2748 261.365 78.9216 262.766 78.3856L262.746 78.1712L262.74 78.1712Z" fill="#673616"/>
<path d="M232.874 92.6577C229.836 90.6208 226.363 89.2272 222.768 88.5524C220.958 88.2497 219.103 88.2246 217.306 87.9912C214.594 87.6759 211.926 86.957 209.215 86.585C203.746 85.9859 198.047 86.2886 192.911 88.3633C192.054 88.6975 191.203 89.0443 190.384 89.4416L190.448 89.6497C192.303 89.593 194.068 89.2966 195.84 89.1263C199.39 88.8425 202.914 88.6092 206.471 88.3948C210.021 88.3128 213.679 87.9092 217.197 88.6723C220.696 89.5614 223.875 90.9487 227.501 91.6866C229.241 92.1091 230.974 92.5568 232.804 92.8595L232.887 92.664L232.874 92.6577Z" fill="#673616"/>
<path d="M273.133 96.9585C270.402 94.5874 266.251 93.4334 262.765 94.8838C259.356 96.1072 256.203 97.7341 253.247 99.8025C251.054 101.392 249.301 103.214 246.998 104.551C244.67 105.825 242.176 107.136 240.775 109.495C236.956 115.719 237.66 123.576 239.579 130.298C241.946 138.667 244.683 146.89 247.958 154.993L248.169 154.936C246.871 148.081 245.137 141.34 243.263 134.637C241.824 129.725 240.02 124.863 239.784 119.717C239.4 114.88 240.142 108.845 245.054 106.449C246.615 105.705 248.265 104.986 249.819 104.084C254.252 101.31 258.607 98.5287 263.379 96.4477C264.159 96.1387 264.946 95.8297 265.72 95.6784C268.234 95.3 270.728 96.0189 273.031 97.1414L273.152 96.9648L273.133 96.9585Z" fill="#502A12"/>
<path d="M251.332 117.37C249.036 116.45 246.509 115.75 244.008 115.725C243.164 115.788 242.32 115.933 241.52 116.298L241.52 116.406C243.19 116.847 244.757 116.841 246.426 116.841C248.051 116.916 249.675 117.143 251.3 117.478L251.332 117.377L251.332 117.37Z" fill="#502A12"/>
<path d="M267.045 169.34C265.356 169.813 263.642 170.059 261.915 170.141C260.099 170.015 258.429 170.084 256.772 170.979L256.747 171.194C258.301 172.518 260.361 172.512 262.184 171.837C263.962 171.383 265.67 170.607 267.141 169.535L267.045 169.346L267.045 169.34Z" fill="#502A12"/>
<path d="M281.763 117.314C278.495 117.314 275.201 117.895 272.124 119.036C268.933 120.013 265.914 121.867 264.302 124.85L264.449 125.008C265.255 124.718 265.991 124.371 266.707 124.024C268.882 123.066 270.762 121.76 272.828 120.606C274.222 119.906 275.674 119.295 277.171 118.784C278.661 118.248 280.216 117.857 281.789 117.529L281.77 117.314L281.763 117.314Z" fill="#502A12"/>
<path d="M281.682 118.555C283.064 122.017 283.825 125.548 284.286 129.218L284.471 128.733C282.936 131.255 280.358 133.141 277.442 133.797C274.602 134.509 271.717 134.78 268.826 134.509L269.715 135.045C268.781 133.595 267.867 132.132 267.01 130.631C266.108 129.105 265.411 127.509 264.477 125.977L264.266 126.034C264.362 126.929 264.502 127.818 264.675 128.714C265.238 131.577 266.453 134.295 268.033 136.754C270.623 137.038 273.265 136.748 275.728 135.934C279.463 134.471 282.635 132.069 285.738 129.59C286.384 125.574 284.836 121.241 281.861 118.441L281.682 118.561L281.682 118.555Z" fill="#502A12"/>
<path d="M280.64 104.582C283.589 110.081 286.832 115.384 289.953 120.795C294.68 130.027 297.564 140.022 299.669 150.137L299.777 150.124C299.541 143.881 298.127 137.67 295.754 131.875C294.245 127.984 292.102 124.377 290.266 120.637C288.501 116.873 286.768 113.064 284.407 109.602C283.269 107.849 282.047 106.152 280.736 104.525L280.646 104.582L280.64 104.582Z" fill="#502A12"/>
<path d="M308.046 174.836C309.382 180.159 309.836 185.563 309.587 191.03L309.773 190.627C308.73 192.014 307.611 193.382 306.325 194.574C303.767 196.983 300.62 198.698 297.396 200.067C289.356 203.598 280.734 205.269 271.99 206.322L271.99 206.537C277.331 207.413 282.883 206.972 288.141 205.679C291.646 204.746 295.061 203.371 298.176 201.523C302.782 198.579 306.926 195.085 311.033 191.503C312.05 187.234 311.576 182.687 310.099 178.576C309.613 177.239 309.005 175.952 308.25 174.748L308.052 174.83L308.046 174.836Z" fill="#502A12"/>
<path d="M272.082 206.375C270.061 202.585 268.571 198.542 267.649 194.374C267.093 191.354 266.792 188.005 266.191 184.978C266.012 183.925 265.833 182.859 265.571 181.768L265.353 181.756C263.53 187.154 265.033 192.817 267.074 197.918C268.321 200.951 269.939 203.859 271.897 206.488L272.082 206.375Z" fill="#502A12"/>
<path d="M206.793 132.518C212.109 129.384 212.639 119.761 205.693 118.398L205.584 118.581C209 123.267 211.085 127.485 206.659 132.347L206.793 132.511L206.793 132.518Z" fill="#502A12"/>
<path d="M234.436 94.4106C236.15 95.7285 237.532 97.3996 238.517 99.2473C239.438 101.183 240.052 103.113 240.941 105.099L241.05 105.087C241.485 101.7 239.483 98.5725 237.148 96.2708C236.342 95.5204 235.453 94.852 234.5 94.3223L234.442 94.4106L234.436 94.4106Z" fill="#502A12"/>
<path d="M253.458 222.487C250.446 224.795 246.653 227.229 242.7 226.075C238.862 224.94 235.312 223.338 231.782 221.402L231.712 221.484C235.153 225.306 240.577 227.008 245.674 226.699C247.74 226.718 249.941 226.277 251.533 224.883C252.346 224.227 253.043 223.446 253.535 222.55L253.452 222.481L253.458 222.487Z" fill="#502A12"/>
<path d="M227.344 198.928C227.024 201.658 225.7 204.099 223.283 205.48C218.62 208.645 212.716 209.093 207.209 209.074C204.408 209.087 201.708 208.633 199.144 207.466L199.086 207.561C201.331 209.358 204.318 210.152 207.177 210.222C211.507 210.386 215.691 209.194 219.701 207.731C222.381 206.867 225.592 206.003 226.826 203.159C227.472 201.829 227.67 200.334 227.447 198.94L227.338 198.94L227.344 198.928Z" fill="#502A12"/>
<path d="M227.343 205.354C226.262 210.071 226.748 215.936 230.618 219.334L230.707 219.271C229.76 216.989 228.75 214.895 228.008 212.562C227.355 210.254 227.183 207.801 227.451 205.367L227.343 205.348L227.343 205.354Z" fill="#502A12"/>
<path d="M199.064 209.678C199.845 211.368 200.395 213.134 200.651 214.924C200.836 216.772 200.874 218.506 201.232 220.367L201.341 220.379C202.166 218.595 202.071 216.583 201.508 214.754C201.028 212.913 200.235 211.16 199.16 209.621L199.064 209.672L199.064 209.678Z" fill="#502A12"/>
<path d="M201.776 222.075C208.524 226.767 219.398 227.839 226.344 223.015L226.267 222.813C223.024 223.135 220.082 223.438 216.948 223.948C213.916 224.547 210.827 224.497 207.788 223.885C205.754 223.494 203.778 222.794 201.885 221.893L201.776 222.075Z" fill="#502A12"/>
<path d="M199.133 221.395C198.013 220.563 196.856 219.895 195.609 219.308C194.317 218.848 193.056 218.268 192.11 217.246C190.191 215.342 188.266 213.437 186.104 211.76L186.021 211.823C186.891 213.74 188.298 215.348 189.993 216.584C191.074 217.454 192.417 217.965 193.53 218.785C194.604 219.649 195.679 220.582 197.041 220.998C197.7 221.231 198.378 221.427 199.095 221.484L199.133 221.383L199.133 221.395Z" fill="#502A12"/>
<path d="M201.336 119.478C199.539 117.668 197.358 116.325 194.959 115.486C193.75 115.114 192.458 114.956 191.268 114.565C188.851 113.827 186.746 112.27 184.277 111.62C180.587 110.359 176.199 110.908 172.962 113.039L173.033 113.241C176.858 113.071 180.145 113.027 183.81 113.594C186.177 114.067 188.78 114.174 191.012 115.208C192.145 115.713 193.155 116.501 194.223 117.119C195.291 117.737 196.443 118.172 197.594 118.614C198.765 119.03 199.935 119.433 201.227 119.667L201.33 119.478L201.336 119.478Z" fill="#502A12"/>
<path d="M188.124 93.8383C187.913 97.5652 188.399 101.349 189.55 104.924C190.542 108.607 192.493 112.094 195.761 114.276L195.934 114.144C195.601 113.236 195.217 112.391 194.833 111.558C193.433 108.222 191.322 105.265 190.203 101.809C189.269 99.23 188.68 96.5625 188.341 93.832L188.124 93.832L188.124 93.8383Z" fill="#502A12"/>
<defs>
<clipPath id="clip0_1501_78812">
<rect width="76" height="102" fill="white" transform="translate(48 129)"/>
</clipPath>
</defs>
</svg>
