<svg width="56" height="50" viewBox="0 0 56 50" fill="none" xmlns="http://www.w3.org/2000/svg">
<path d="M38.25 26.25L34.625 22.625C35 20.6667 34.4375 18.8333 32.9375 17.125C31.4375 15.4167 29.5 14.75 27.125 15.125L23.5 11.5C24.2083 11.1667 24.9271 10.9167 25.6562 10.75C26.3854 10.5833 27.1667 10.5 28 10.5C31.125 10.5 33.7812 11.5938 35.9687 13.7813C38.1562 15.9688 39.25 18.625 39.25 21.75C39.25 22.5833 39.1667 23.3646 39 24.0938C38.8333 24.8229 38.5833 25.5417 38.25 26.25ZM46.25 34.125L42.625 30.625C44.2083 29.4167 45.6146 28.0938 46.8437 26.6563C48.0729 25.2188 49.125 23.5833 50 21.75C47.9167 17.5417 44.9271 14.1979 41.0312 11.7188C37.1354 9.23958 32.7917 8 28 8C26.7917 8 25.6042 8.08333 24.4375 8.25C23.2708 8.41667 22.125 8.66667 21 9L17.125 5.125C18.8333 4.41667 20.5833 3.88542 22.375 3.53125C24.1667 3.17708 26.0417 3 28 3C34.2917 3 39.8958 4.73958 44.8125 8.21875C49.7292 11.6979 53.2917 16.2083 55.5 21.75C54.5417 24.2083 53.2812 26.4896 51.7187 28.5938C50.1562 30.6979 48.3333 32.5417 46.25 34.125ZM47.5 49.5L37 39.125C35.5417 39.5833 34.0729 39.9271 32.5937 40.1563C31.1146 40.3854 29.5833 40.5 28 40.5C21.7083 40.5 16.1042 38.7604 11.1875 35.2813C6.27083 31.8021 2.70833 27.2917 0.5 21.75C1.375 19.5417 2.47917 17.4896 3.8125 15.5938C5.14583 13.6979 6.66667 12 8.375 10.5L1.5 3.5L5 0L51 46L47.5 49.5ZM11.875 14C10.6667 15.0833 9.5625 16.2708 8.5625 17.5625C7.5625 18.8542 6.70833 20.25 6 21.75C8.08333 25.9583 11.0729 29.3021 14.9687 31.7813C18.8646 34.2604 23.2083 35.5 28 35.5C28.8333 35.5 29.6458 35.4479 30.4375 35.3438C31.2292 35.2396 32.0417 35.125 32.875 35L30.625 32.625C30.1667 32.75 29.7292 32.8438 29.3125 32.9063C28.8958 32.9688 28.4583 33 28 33C24.875 33 22.2187 31.9063 20.0312 29.7188C17.8437 27.5313 16.75 24.875 16.75 21.75C16.75 21.2917 16.7812 20.8542 16.8437 20.4375C16.9062 20.0208 17 19.5833 17.125 19.125L11.875 14Z" fill="#F2870D"/>
</svg>
