<svg width="24" height="24" viewBox="0 0 24 24" fill="none" xmlns="http://www.w3.org/2000/svg">
<path d="M23.1977 5.98047H22.4074C22.1824 5.98047 22 6.16277 22 6.38765V7.25496C22 7.47984 22.1824 7.66215 22.4074 7.66215H23.1977C23.4227 7.66215 23.6051 7.47984 23.6051 7.25496V6.38765C23.6051 6.16277 23.4227 5.98047 23.1977 5.98047Z" fill="#DE9220"/>
<path d="M9.19772 21.9805H8.40739C8.18239 21.9805 8 22.1628 8 22.3877V23.255C8 23.4798 8.18239 23.6621 8.40739 23.6621H9.19772C9.42272 23.6621 9.60511 23.4798 9.60511 23.255V22.3877C9.60511 22.1628 9.42272 21.9805 9.19772 21.9805Z" fill="#DE9220"/>
<path d="M11.1977 22H10.4074C10.1824 22 10 22.1823 10 22.4072V23.2745C10 23.4994 10.1824 23.6817 10.4074 23.6817H11.1977C11.4227 23.6817 11.6051 23.4994 11.6051 23.2745V22.4072C11.6051 22.1823 11.4227 22 11.1977 22Z" fill="#DE9220"/>
<path d="M21.186 14H20.3957C20.1707 14 19.9883 14.1823 19.9883 14.4072V15.2745C19.9883 15.4994 20.1707 15.6817 20.3957 15.6817H21.186C21.411 15.6817 21.5934 15.4994 21.5934 15.2745V14.4072C21.5934 14.1823 21.411 14 21.186 14Z" fill="#DE9220"/>
<path d="M1.19772 9.98047H0.407388C0.182394 9.98047 0 10.1628 0 10.3877V11.255C0 11.4798 0.182394 11.6621 0.407388 11.6621H1.19772C1.42272 11.6621 1.60511 11.4798 1.60511 11.255V10.3877C1.60511 10.1628 1.42272 9.98047 1.19772 9.98047Z" fill="#DE9220"/>
<path d="M3.19772 7.98047H2.40739C2.18239 7.98047 2 8.16277 2 8.38765V9.25496C2 9.47984 2.18239 9.66215 2.40739 9.66215H3.19772C3.42272 9.66215 3.60511 9.47984 3.60511 9.25496V8.38765C3.60511 8.16277 3.42272 7.98047 3.19772 7.98047Z" fill="#DE9220"/>
<path d="M5.19772 17.9805H4.40739C4.18239 17.9805 4 18.1628 4 18.3877V19.255C4 19.4798 4.18239 19.6621 4.40739 19.6621H5.19772C5.42272 19.6621 5.60511 19.4798 5.60511 19.255V18.3877C5.60511 18.1628 5.42272 17.9805 5.19772 17.9805Z" fill="#DE9220"/>
<path d="M23.2094 9.98047H22.4191C22.1941 9.98047 22.0117 10.1628 22.0117 10.3877V11.255C22.0117 11.4798 22.1941 11.6621 22.4191 11.6621H23.2094C23.4344 11.6621 23.6168 11.4798 23.6168 11.255V10.3877C23.6168 10.1628 23.4344 9.98047 23.2094 9.98047Z" fill="#DE9220"/>
<path d="M15.1977 0H14.4074C14.1824 0 14 0.182303 14 0.407186V1.27449C14 1.49937 14.1824 1.68168 14.4074 1.68168H15.1977C15.4227 1.68168 15.6051 1.49937 15.6051 1.27449V0.407186C15.6051 0.182303 15.4227 0 15.1977 0Z" fill="#DE9220"/>
<path d="M8.79928 11.6184H8.00895C7.78396 11.6184 7.60156 11.8007 7.60156 12.0256V12.8929C7.60156 13.1178 7.78396 13.3001 8.00895 13.3001H8.79928C9.02428 13.3001 9.20667 13.1178 9.20667 12.8929V12.0256C9.20667 11.8007 9.02428 11.6184 8.79928 11.6184Z" fill="#DE9220"/>
<path d="M13.1977 0H12.4074C12.1824 0 12 0.182303 12 0.407186V1.27449C12 1.49937 12.1824 1.68168 12.4074 1.68168H13.1977C13.4227 1.68168 13.6051 1.49937 13.6051 1.27449V0.407186C13.6051 0.182303 13.4227 0 13.1977 0Z" fill="#DE9220"/>
<path d="M6.79929 11.6375H6.00895C5.78396 11.6375 5.60156 11.8198 5.60156 12.0446V12.9119C5.60156 13.1368 5.78396 13.3191 6.00895 13.3191H6.79929C7.02428 13.3191 7.20667 13.1368 7.20667 12.9119V12.0446C7.20667 11.8198 7.02428 11.6375 6.79929 11.6375Z" fill="#DE9220"/>
<path d="M19.186 0H18.3957C18.1707 0 17.9883 0.182303 17.9883 0.407186V1.27449C17.9883 1.49937 18.1707 1.68168 18.3957 1.68168H19.186C19.411 1.68168 19.5934 1.49937 19.5934 1.27449V0.407186C19.5934 0.182303 19.411 0 19.186 0Z" fill="#DE9220"/>
<path d="M12.7837 11.5811H11.9933C11.7683 11.5811 11.5859 11.7634 11.5859 11.9882V12.8555C11.5859 13.0804 11.7683 13.2627 11.9933 13.2627H12.7837C13.0087 13.2627 13.191 13.0804 13.191 12.8555V11.9882C13.191 11.7634 13.0087 11.5811 12.7837 11.5811Z" fill="#DE9220"/>
<path d="M23.2094 8H22.4191C22.1941 8 22.0117 8.1823 22.0117 8.40719V9.27449C22.0117 9.49937 22.1941 9.68168 22.4191 9.68168H23.2094C23.4344 9.68168 23.6168 9.49937 23.6168 9.27449V8.40719C23.6168 8.1823 23.4344 8 23.2094 8Z" fill="#DE9220"/>
<path d="M17.186 18H16.3957C16.1707 18 15.9883 18.1823 15.9883 18.4072V19.2745C15.9883 19.4994 16.1707 19.6817 16.3957 19.6817H17.186C17.411 19.6817 17.5934 19.4994 17.5934 19.2745V18.4072C17.5934 18.1823 17.411 18 17.186 18Z" fill="#DE9220"/>
<path d="M15.186 20H14.3957C14.1707 20 13.9883 20.1823 13.9883 20.4072V21.2745C13.9883 21.4994 14.1707 21.6817 14.3957 21.6817H15.186C15.411 21.6817 15.5934 21.4994 15.5934 21.2745V20.4072C15.5934 20.1823 15.411 20 15.186 20Z" fill="#DE9220"/>
<path d="M7.19772 4H6.40739C6.18239 4 6 4.1823 6 4.40719V5.27449C6 5.49937 6.18239 5.68168 6.40739 5.68168H7.19772C7.42272 5.68168 7.60511 5.49937 7.60511 5.27449V4.40719C7.60511 4.1823 7.42272 4 7.19772 4Z" fill="#DE9220"/>
<path d="M23.2094 4H22.4191C22.1941 4 22.0117 4.1823 22.0117 4.40719V5.27449C22.0117 5.49937 22.1941 5.68168 22.4191 5.68168H23.2094C23.4344 5.68168 23.6168 5.49937 23.6168 5.27449V4.40719C23.6168 4.1823 23.4344 4 23.2094 4Z" fill="#DE9220"/>
<path d="M1.19772 14.0195H0.407388C0.182394 14.0195 0 14.2018 0 14.4267V15.294C0 15.5189 0.182394 15.7012 0.407388 15.7012H1.19772C1.42272 15.7012 1.60511 15.5189 1.60511 15.294V14.4267C1.60511 14.2018 1.42272 14.0195 1.19772 14.0195Z" fill="#DE9220"/>
<path d="M1.19772 12H0.407388C0.182394 12 0 12.1823 0 12.4072V13.2745C0 13.4994 0.182394 13.6817 0.407388 13.6817H1.19772C1.42272 13.6817 1.60511 13.4994 1.60511 13.2745V12.4072C1.60511 12.1823 1.42272 12 1.19772 12Z" fill="#DE9220"/>
<path d="M11.1977 0H10.4074C10.1824 0 10 0.182303 10 0.407186V1.27449C10 1.49937 10.1824 1.68168 10.4074 1.68168H11.1977C11.4227 1.68168 11.6051 1.49937 11.6051 1.27449V0.407186C11.6051 0.182303 11.4227 0 11.1977 0Z" fill="#DE9220"/>
<path d="M17.2094 0.0366211H16.4191C16.1941 0.0366211 16.0117 0.218924 16.0117 0.443807V1.31111C16.0117 1.53599 16.1941 1.7183 16.4191 1.7183H17.2094C17.4344 1.7183 17.6168 1.53599 17.6168 1.31111V0.443807C17.6168 0.218924 17.4344 0.0366211 17.2094 0.0366211Z" fill="#DE9220"/>
<path d="M10.811 11.6362H10.0207C9.79568 11.6362 9.61328 11.8185 9.61328 12.0434V12.9107C9.61328 13.1356 9.79568 13.3179 10.0207 13.3179H10.811C11.036 13.3179 11.2184 13.1356 11.2184 12.9107V12.0434C11.2184 11.8185 11.036 11.6362 10.811 11.6362Z" fill="#DE9220"/>
<path d="M21.2094 0.0366211H20.4191C20.1941 0.0366211 20.0117 0.218924 20.0117 0.443807V1.31111C20.0117 1.53599 20.1941 1.7183 20.4191 1.7183H21.2094C21.4344 1.7183 21.6168 1.53599 21.6168 1.31111V0.443807C21.6168 0.218924 21.4344 0.0366211 21.2094 0.0366211Z" fill="#DE9220"/>
<path d="M14.811 11.5986H14.0207C13.7957 11.5986 13.6133 11.7809 13.6133 12.0058V12.8731C13.6133 13.098 13.7957 13.2803 14.0207 13.2803H14.811C15.036 13.2803 15.2184 13.098 15.2184 12.8731V12.0058C15.2184 11.7809 15.036 11.5986 14.811 11.5986Z" fill="#DE9220"/>
<path d="M16.7993 11.5801H16.009C15.784 11.5801 15.6016 11.7624 15.6016 11.9873V12.8546C15.6016 13.0795 15.784 13.2618 16.009 13.2618H16.7993C17.0243 13.2618 17.2067 13.0795 17.2067 12.8546V11.9873C17.2067 11.7624 17.0243 11.5801 16.7993 11.5801Z" fill="#DE9220"/>
<path d="M23.1977 2H22.4074C22.1824 2 22 2.1823 22 2.40719V3.27449C22 3.49937 22.1824 3.68168 22.4074 3.68168H23.1977C23.4227 3.68168 23.6051 3.49937 23.6051 3.27449V2.40719C23.6051 2.1823 23.4227 2 23.1977 2Z" fill="#DE9220"/>
<path d="M19.1977 16.0562H18.4074C18.1824 16.0562 18 16.2385 18 16.4633V17.3306C18 17.5555 18.1824 17.7378 18.4074 17.7378H19.1977C19.4227 17.7378 19.6051 17.5555 19.6051 17.3306V16.4633C19.6051 16.2385 19.4227 16.0562 19.1977 16.0562Z" fill="#DE9220"/>
<path d="M9.20944 2.01709H8.41911C8.19411 2.01709 8.01172 2.19939 8.01172 2.42428V3.29158C8.01172 3.51646 8.19411 3.69877 8.41911 3.69877H9.20944C9.43444 3.69877 9.61683 3.51646 9.61683 3.29158V2.42428C9.61683 2.19939 9.43444 2.01709 9.20944 2.01709Z" fill="#DE9220"/>
<path d="M5.20944 6.01709H4.41911C4.19411 6.01709 4.01172 6.19939 4.01172 6.42428V7.29158C4.01172 7.51646 4.19411 7.69877 4.41911 7.69877H5.20944C5.43444 7.69877 5.61683 7.51646 5.61683 7.29158V6.42428C5.61683 6.19939 5.43444 6.01709 5.20944 6.01709Z" fill="#DE9220"/>
<path d="M23.2094 11.9805H22.4191C22.1941 11.9805 22.0117 12.1628 22.0117 12.3877V13.255C22.0117 13.4798 22.1941 13.6621 22.4191 13.6621H23.2094C23.4344 13.6621 23.6168 13.4798 23.6168 13.255V12.3877C23.6168 12.1628 23.4344 11.9805 23.2094 11.9805Z" fill="#DE9220"/>
<path d="M3.20944 16.0562H2.41911C2.19411 16.0562 2.01172 16.2385 2.01172 16.4633V17.3306C2.01172 17.5555 2.19411 17.7378 2.41911 17.7378H3.20944C3.43444 17.7378 3.61683 17.5555 3.61683 17.3306V16.4633C3.61683 16.2385 3.43444 16.0562 3.20944 16.0562Z" fill="#DE9220"/>
<path d="M7.20944 20.0366H6.41911C6.19411 20.0366 6.01172 20.2189 6.01172 20.4438V21.3111C6.01172 21.536 6.19411 21.7183 6.41911 21.7183H7.20944C7.43444 21.7183 7.61683 21.536 7.61683 21.3111V20.4438C7.61683 20.2189 7.43444 20.0366 7.20944 20.0366Z" fill="#DE9220"/>
<path d="M13.1977 22.0366H12.4074C12.1824 22.0366 12 22.2189 12 22.4438V23.3111C12 23.536 12.1824 23.7183 12.4074 23.7183H13.1977C13.4227 23.7183 13.6051 23.536 13.6051 23.3111V22.4438C13.6051 22.2189 13.4227 22.0366 13.1977 22.0366Z" fill="#DE9220"/>
<path d="M12.7641 8.04321H11.9738C11.7488 8.04321 11.5664 8.22552 11.5664 8.4504V9.3177C11.5664 9.54259 11.7488 9.72489 11.9738 9.72489H12.7641C12.9891 9.72489 13.1715 9.54259 13.1715 9.3177V8.4504C13.1715 8.22552 12.9891 8.04321 12.7641 8.04321Z" fill="#DE9220"/>
<path d="M12.8462 16.8428H12.0558C11.8308 16.8428 11.6484 17.0251 11.6484 17.25V18.1173C11.6484 18.3421 11.8308 18.5245 12.0558 18.5245H12.8462C13.0712 18.5245 13.2535 18.3421 13.2535 18.1173V17.25C13.2535 17.0251 13.0712 16.8428 12.8462 16.8428Z" fill="#DE9220"/>
<path d="M10.7446 6H9.95426C9.72927 6 9.54688 6.1823 9.54688 6.40719V7.27449C9.54688 7.49937 9.72927 7.68168 9.95426 7.68168H10.7446C10.9696 7.68168 11.152 7.49937 11.152 7.27449V6.40719C11.152 6.1823 10.9696 6 10.7446 6Z" fill="#DE9220"/>
<path d="M10.8266 14.7996H10.0363C9.8113 14.7996 9.62891 14.9819 9.62891 15.2067V16.0741C9.62891 16.2989 9.8113 16.4812 10.0363 16.4812H10.8266C11.0516 16.4812 11.234 16.2989 11.234 16.0741V15.2067C11.234 14.9819 11.0516 14.7996 10.8266 14.7996Z" fill="#DE9220"/>
<path d="M12.7446 6.04321H11.9543C11.7293 6.04321 11.5469 6.22552 11.5469 6.4504V7.3177C11.5469 7.54259 11.7293 7.72489 11.9543 7.72489H12.7446C12.9696 7.72489 13.152 7.54259 13.152 7.3177V6.4504C13.152 6.22552 12.9696 6.04321 12.7446 6.04321Z" fill="#DE9220"/>
<path d="M12.8266 14.843H12.0363C11.8113 14.843 11.6289 15.0253 11.6289 15.2502V16.1175C11.6289 16.3424 11.8113 16.5247 12.0363 16.5247H12.8266C13.0516 16.5247 13.234 16.3424 13.234 16.1175V15.2502C13.234 15.0253 13.0516 14.843 12.8266 14.843Z" fill="#DE9220"/>
<path d="M10.7641 8.06201H9.97379C9.7488 8.06201 9.56641 8.24431 9.56641 8.4692V9.3365C9.56641 9.56139 9.7488 9.74369 9.97379 9.74369H10.7641C10.9891 9.74369 11.1715 9.56139 11.1715 9.3365V8.4692C11.1715 8.24431 10.9891 8.06201 10.7641 8.06201Z" fill="#DE9220"/>
<path d="M10.8462 16.8616H10.0558C9.83083 16.8616 9.64844 17.0439 9.64844 17.2688V18.1361C9.64844 18.3609 9.83083 18.5432 10.0558 18.5432H10.8462C11.0712 18.5432 11.2535 18.3609 11.2535 18.1361V17.2688C11.2535 17.0439 11.0712 16.8616 10.8462 16.8616Z" fill="#DE9220"/>
</svg>
