<svg width="110" height="86" viewBox="0 0 110 86" fill="none" xmlns="http://www.w3.org/2000/svg">
<path d="M34.6281 66.4069L33.3003 62.0385L23.3013 29.1439L49.9747 20.9365C51.8825 20.2902 54.2421 19.5622 57.1577 18.7263L83.8407 10.5159L93.8397 43.4105L95.1675 47.7788C97.3483 54.953 86.5961 62.9749 71.3463 68.0246C71.3505 68.0386 71.3548 68.0526 71.359 68.0665C70.65 68.3736 69.4702 68.7251 68.5216 68.9845C67.5954 69.302 66.4176 69.6759 65.6591 69.8204C65.6549 69.8064 65.6506 69.7924 65.6464 69.7785C50.1806 74.18 36.9619 75.2436 34.6281 66.4069Z" fill="#2E1202"/>
<path d="M2.20641 38.5562L48.8673 5.07884C51.0281 3.16241 54.7968 2.01232 57.245 2.53157L106.061 6.97275C108.508 7.48763 108.743 9.47695 106.583 11.3978L61.8819 43.8715C59.7211 45.7879 55.9524 46.938 53.5033 46.419L2.72942 42.9821C0.279272 42.4596 0.0456166 40.4727 2.20641 38.5562Z" fill="#2E1202"/>
<g filter="url(#filter0_f_1029_33651)">
<path d="M29.7814 44.1052L35.1303 60.655L36.4011 64.8357C38.6347 73.2928 51.2855 72.2749 66.0869 68.0624C66.091 68.0758 66.0951 68.0892 66.0992 68.1026C66.825 67.9643 67.9522 67.6065 68.8386 67.3026C69.7465 67.0544 70.8756 66.7179 71.5542 66.4241C71.5501 66.4107 71.5461 66.3973 71.542 66.3839C86.1367 61.5511 96.4271 53.8738 94.3399 47.0078L93.0691 42.8271L87.9141 24.7656" stroke="#5C2100" stroke-width="3.15859" stroke-miterlimit="10"/>
</g>
<g filter="url(#filter1_f_1029_33651)">
<path d="M5.38909 38.1779L50.0456 6.13856C52.1135 4.30445 55.7204 3.20377 58.0634 3.70071L104.782 7.95111C107.124 8.44388 107.349 10.3477 105.282 12.186L62.5011 43.2648C60.4332 45.0989 56.8263 46.1996 54.4824 45.7029L5.88964 42.4136C3.54474 41.9136 3.32112 40.012 5.38909 38.1779Z" stroke="#5C2100" stroke-width="3.15859" stroke-miterlimit="10"/>
</g>
<path d="M27.7111 44.7486L33.3002 62.0413L34.628 66.4096C36.9618 75.2463 50.1805 74.1828 65.6463 69.7812C65.6505 69.7952 65.6548 69.8092 65.659 69.8232C66.4175 69.6786 67.5953 69.3048 68.5215 68.9873C69.4701 68.7279 70.6499 68.3763 71.359 68.0693C71.3547 68.0553 71.3505 68.0413 71.3462 68.0274C86.596 62.9777 97.3482 54.9557 95.1674 47.7816L93.8396 43.4132L88.4531 24.541" stroke="#FF5C00" stroke-width="0.821233" stroke-miterlimit="10"/>
<path d="M2.20641 38.5562L48.8673 5.07884C51.0281 3.16241 54.7968 2.01232 57.245 2.53157L106.061 6.97275C108.508 7.48763 108.743 9.47695 106.583 11.3978L61.8819 43.8715C59.7211 45.7879 55.9524 46.938 53.5033 46.419L2.72942 42.9821C0.279269 42.4596 0.0456188 40.4727 2.20641 38.5562Z" stroke="#FF5C00" stroke-width="0.821233" stroke-miterlimit="10"/>
<path d="M34.9007 83.6803C34.85 83.2059 33.6917 66.2997 33.4941 63.4078L33.3877 63.2321C33.357 63.1802 33.3246 63.1279 33.2924 63.0765C33.7935 62.9053 34.2832 62.7024 34.7589 62.4689C34.9521 62.7911 35.1541 63.1097 35.3487 63.4314L38.6221 68.855L42.3996 75.1119C43.1614 76.3741 43.9234 77.6366 44.6854 78.8994C44.7231 78.9609 44.7601 79.0226 44.7971 79.0844C45.0152 79.4451 44.7705 79.9995 44.4063 80.1469C43.9684 80.3245 43.5893 80.1318 43.356 79.7455C42.8137 78.8477 42.2709 77.9484 41.7277 77.0476C40.5326 75.0685 39.3379 73.0894 38.1433 71.1103L37.047 69.2934C39.3079 76.3254 41.6835 83.6584 41.8949 84.1523C41.969 84.3174 41.9756 84.5052 41.913 84.6745C41.8505 84.8438 41.7241 84.9807 41.5615 85.055C41.399 85.1293 41.2136 85.135 41.0462 85.0708C40.8789 85.0066 40.7432 84.8778 40.6691 84.7127C40.4065 84.1211 37.0861 73.8243 35.1426 67.7713C35.6189 74.7129 36.2043 83.1934 36.2395 83.5407C36.2547 83.6832 36.2253 83.8267 36.1555 83.9509C36.0856 84.0752 35.9789 84.1738 35.8504 84.2328C35.7844 84.2634 35.714 84.2828 35.6418 84.2903C35.4642 84.3083 35.2865 84.2542 35.1476 84.1399C35.0087 84.0255 34.9199 83.8603 34.9007 83.6803Z" fill="#4C3636"/>
<path d="M31.9028 80.8282C31.9142 80.3517 32.9469 63.4477 33.1237 60.5561C33.0963 60.4932 33.0683 60.4312 33.0409 60.3682C32.9227 60.0996 32.7886 59.8334 32.6844 59.5588C32.4973 59.0636 32.3624 58.5405 32.2031 58.0358L31.152 54.7088C30.8162 53.6443 30.4799 52.5797 30.1429 51.515C29.9223 50.8167 29.6896 50.1221 29.5186 49.4093C29.1895 48.037 28.958 46.4556 29.4336 45.0877C29.5185 44.84 29.6253 44.6004 29.7526 44.372C29.7511 44.2477 29.7849 44.1256 29.85 44.0203C31.0127 42.1503 32.2513 40.3275 33.5463 38.5486C34.7899 36.8408 36.0845 35.1724 37.4301 33.5435C38.7641 31.9198 40.1362 30.329 41.531 28.758C42.9496 27.1613 44.388 25.5862 45.8368 24.0154C46.5633 23.2273 47.2825 22.4313 48.022 21.656C48.7824 20.8591 49.6008 20.078 50.5544 19.5233C50.8259 19.3678 51.106 19.2281 51.3932 19.1047C51.5677 19.0284 51.8388 19.0785 51.9987 19.1646C52.1841 19.2658 52.3233 19.4362 52.3864 19.6393C52.4483 19.843 52.4276 20.0631 52.3289 20.2509C52.2221 20.4295 52.059 20.5664 51.8656 20.6397C51.423 20.8562 51.0035 21.1179 50.6136 21.4206C50.5202 21.4931 50.4297 21.5696 50.3372 21.6426L50.3023 21.6727L50.138 21.8182C49.9424 21.9943 49.7564 22.175 49.5724 22.3594C48.8242 23.1088 48.1186 23.9031 47.4001 24.682C45.9667 26.2354 44.5375 27.7943 43.1287 29.3712C41.745 30.9211 40.3809 32.4893 39.0536 34.0883C37.7262 35.6872 36.4266 37.328 35.1851 39.0046C34.8778 39.4201 34.5737 39.8377 34.2726 40.2575C34.1198 40.4725 33.9672 40.6875 33.8149 40.9024L33.7964 40.9291L33.7907 40.9376L33.779 40.9538L33.7582 40.9837L33.675 41.1034C33.5972 41.2119 33.522 41.3205 33.4492 41.4291L33.1628 41.8533C33.7651 41.4792 34.3662 41.103 34.9662 40.7246C37.0222 39.4271 39.0636 38.1067 41.0903 36.7633C45.1571 34.0664 49.1618 31.2765 53.1045 28.3936C54.0873 27.6753 55.0699 26.9563 56.0401 26.2209C56.8701 25.6041 57.6456 24.9158 58.3578 24.1635C59.0989 23.3742 59.7326 22.5979 60.1744 21.6218C60.2025 21.5585 60.2296 21.4947 60.2545 21.4291C60.2593 21.4175 60.262 21.41 60.2651 21.404L60.2761 21.3636C60.3029 21.2714 60.332 21.1784 60.3568 21.0825C60.3674 21.0381 60.376 20.9926 60.3841 20.9481C60.3841 20.9481 60.3936 20.8755 60.3997 20.8383C60.4003 20.8238 60.4017 20.8091 60.4013 20.8025C60.4017 20.7411 60.4034 20.6809 60.4005 20.6196C60.3977 20.5583 60.339 20.3025 60.3982 20.5136C60.3763 20.4414 60.3652 20.3667 60.3432 20.2945C60.3383 20.2783 60.3157 20.2038 60.2952 20.153C60.3209 20.2375 60.2672 20.0935 60.2578 20.0763C60.231 20.0265 60.2028 19.9773 60.1732 19.9292C60.1325 19.8636 60.089 19.7997 60.0442 19.737C60.0211 19.7047 59.9629 19.6335 59.9498 19.6149C59.8417 19.4918 59.7301 19.3733 59.6131 19.2589C59.3258 18.9777 59.0181 18.7169 58.714 18.4543C58.3867 18.1727 58.3811 17.6326 58.6672 17.3194C58.8117 17.1662 59.0097 17.076 59.2192 17.0678C59.4288 17.0596 59.6335 17.1341 59.7902 17.2754C60.4137 17.8128 61.0748 18.3588 61.5135 19.0698C61.7441 19.4423 61.8949 19.8592 61.9563 20.2937C62.0177 20.7282 61.9883 21.1706 61.87 21.5924C61.5669 22.6997 60.8608 23.6832 60.1444 24.5539C59.4281 25.4246 58.6009 26.1932 57.7343 26.9111C56.8445 27.6486 55.9 28.3207 54.9702 29.0058C53.9703 29.7426 52.9669 30.4733 51.9601 31.1982C49.9849 32.6181 47.9942 34.0148 45.9878 35.3883C41.9626 38.1492 37.8765 40.8154 33.7295 43.387C33.2171 43.7054 32.7041 44.0217 32.1905 44.336C32.0036 44.4507 31.8201 44.5685 31.6272 44.669C31.6424 44.6643 31.65 44.662 31.6416 44.6646C31.5961 44.6979 31.5395 44.7195 31.492 44.7518C31.4698 44.7661 31.4483 44.7828 31.4273 44.7985L31.4122 44.8116C31.3674 44.8556 31.3239 44.9009 31.2836 44.9486L31.2318 45.0108C31.1554 45.1502 31.0647 45.2806 31.0014 45.4278C30.9982 45.4364 30.9942 45.4451 30.9912 45.4545L30.9977 45.4239C30.9884 45.4696 30.9664 45.5175 30.9521 45.5606C30.9141 45.679 30.8832 45.7986 30.857 45.9201C30.8308 46.0415 30.8123 46.164 30.7949 46.287L30.7884 46.3285L30.7855 46.3655C30.78 46.4512 30.7753 46.5367 30.772 46.6217C30.7622 46.9772 30.7772 47.3331 30.8167 47.6867C30.8264 47.7761 30.8379 47.8658 30.8499 47.9545C30.8576 48.0127 30.8671 48.0711 30.8748 48.1292C30.8764 48.1346 30.8773 48.1377 30.8785 48.1415C30.8797 48.1453 30.8832 48.1569 30.886 48.1661C30.9289 48.3974 30.9748 48.6277 31.0288 48.8573C31.1253 49.2703 31.241 49.6783 31.3689 50.0826C31.6202 50.8785 31.8714 51.6738 32.1224 52.4686L34.0816 58.671C34.3161 59.4121 34.6638 60.1108 34.9762 60.8212C35.8292 62.7549 36.6814 64.6886 37.5328 66.6222L40.4812 73.3158L42.2657 77.3665C42.2948 77.4323 42.324 77.4981 42.3526 77.5649C42.5229 77.9503 42.2115 78.467 41.8265 78.567C41.3644 78.6865 41.0153 78.4452 40.8334 78.0324L39.5625 75.1469C38.6291 73.0307 37.6963 70.914 36.7642 68.7969C36.4794 68.1497 36.194 67.5021 35.9079 66.8542C37.249 74.1163 38.6639 81.6926 38.8118 82.2091C38.8645 82.3823 38.8469 82.5694 38.7631 82.7291C38.6792 82.8888 38.5359 83.0081 38.3647 83.0608C38.1934 83.1135 38.0083 83.0953 37.8499 83.01C37.6916 82.9248 37.5731 82.7797 37.5205 82.6065C37.3336 81.9918 35.3624 71.3505 34.2113 65.0986C33.7883 72.039 33.2741 80.5189 33.2647 80.8679C33.2613 81.011 33.2134 81.1493 33.1279 81.2632C33.0424 81.377 32.9235 81.4608 32.7882 81.5027C32.7187 81.5241 32.6462 81.534 32.5736 81.5317C32.4837 81.5309 32.3948 81.5119 32.3121 81.4758C32.2295 81.4398 32.1547 81.3875 32.0923 81.322C32.0298 81.2565 31.9809 81.1791 31.9483 81.0943C31.9158 81.0095 31.9003 80.919 31.9028 80.8282Z" fill="#4C3636"/>
<path d="M48.414 22.8161C48.9953 24.7286 52.3937 25.3778 56.0052 24.2665C59.6167 23.1552 62.0728 20.7046 61.4915 18.7922C60.9101 16.8797 57.2993 15.5316 53.6878 16.6428C50.0763 17.7541 47.8326 20.9036 48.414 22.8161Z" fill="#4C3636"/>
<path d="M33.8867 60.8401C34.1472 60.7585 34.3647 60.575 34.4916 60.3295C34.6185 60.0839 34.6446 59.7964 34.5642 59.5295L33.7144 56.7339C33.5459 56.1797 33.6273 57.3605 33.0851 57.5273L32.8907 57.5098C32.3485 57.6767 31.5735 56.7866 31.7407 57.3368L32.59 60.1308C32.63 60.2639 32.6953 60.3878 32.7822 60.4955C32.8691 60.6032 32.9758 60.6926 33.0962 60.7585C33.2167 60.8244 33.3485 60.8655 33.4842 60.8795C33.6198 60.8935 33.7566 60.8801 33.8867 60.8401Z" fill="#4C3636"/>
<path d="M99.7684 9.05085L92.1818 8.3223L84.5953 7.59376L80.3048 7.18132C80.0142 7.15375 80.0661 6.69902 80.3578 6.72706L87.9447 7.45644L95.5312 8.18498L99.8193 8.59853C100.11 8.62609 100.058 9.07962 99.7667 9.05158L99.7684 9.05085Z" fill="#4C3636"/>
<path d="M78.6725 6.74411C78.5075 6.81548 78.3277 6.84523 78.1486 6.83079C77.9696 6.81634 77.7967 6.75813 77.6451 6.66121C77.5968 6.62536 77.5645 6.57184 77.555 6.5122C77.5455 6.45256 77.5598 6.39157 77.5946 6.34238C77.6308 6.29455 77.6839 6.26258 77.7429 6.25311C77.8019 6.24364 77.8623 6.25739 77.9115 6.29151L77.9584 6.31969L77.9074 6.29131C77.9715 6.32575 78.0395 6.35205 78.11 6.3696L78.0534 6.35565C78.1274 6.37316 78.2033 6.38158 78.2794 6.38073L78.2204 6.3818C78.2965 6.37972 78.3721 6.3682 78.4454 6.3475L78.3864 6.36452C78.4212 6.35397 78.4554 6.34123 78.4887 6.3264C78.5439 6.3021 78.6064 6.30083 78.6624 6.32289C78.7185 6.34494 78.7636 6.3885 78.7877 6.44399C78.8119 6.49948 78.8132 6.56235 78.7912 6.61877C78.7693 6.67519 78.726 6.72054 78.6709 6.74484L78.6725 6.74411Z" fill="#4C3636"/>
<defs>
<filter id="filter0_f_1029_33651" x="27.0178" y="23.0627" width="70.4409" height="51.0191" filterUnits="userSpaceOnUse" color-interpolation-filters="sRGB">
<feFlood flood-opacity="0" result="BackgroundImageFix"/>
<feBlend mode="normal" in="SourceGraphic" in2="BackgroundImageFix" result="shape"/>
<feGaussianBlur stdDeviation="0.631718" result="effect1_foregroundBlur_1029_33651"/>
</filter>
<filter id="filter1_f_1029_33651" x="1.135" y="0.736565" width="108.402" height="47.9292" filterUnits="userSpaceOnUse" color-interpolation-filters="sRGB">
<feFlood flood-opacity="0" result="BackgroundImageFix"/>
<feBlend mode="normal" in="SourceGraphic" in2="BackgroundImageFix" result="shape"/>
<feGaussianBlur stdDeviation="0.631718" result="effect1_foregroundBlur_1029_33651"/>
</filter>
</defs>
</svg>
