<svg width="80" height="81" viewBox="0 0 80 81" fill="none" xmlns="http://www.w3.org/2000/svg">
<g id="sand clock empty">
<path id="Vector" d="M17.3244 13.9563H14.69C13.94 13.9563 13.332 14.564 13.332 15.3136V18.2046C13.332 18.9542 13.94 19.5619 14.69 19.5619H17.3244C18.0744 19.5619 18.6824 18.9542 18.6824 18.2046V15.3136C18.6824 14.564 18.0744 13.9563 17.3244 13.9563Z" fill="#FF5C00"/>
<path id="Vector_2" d="M50.6604 73.891H48.0259C47.2759 73.891 46.668 74.4987 46.668 75.2483V78.1393C46.668 78.8889 47.2759 79.4966 48.0259 79.4966H50.6604C51.4104 79.4966 52.0183 78.8889 52.0183 78.1393V75.2483C52.0183 74.4987 51.4104 73.891 50.6604 73.891Z" fill="#FF5C00"/>
<path id="Vector_3" d="M50.6174 67.2897H47.983C47.233 67.2897 46.625 67.8974 46.625 68.647V71.538C46.625 72.2876 47.233 72.8953 47.983 72.8953H50.6174C51.3674 72.8953 51.9754 72.2876 51.9754 71.538V68.647C51.9754 67.8974 51.3674 67.2897 50.6174 67.2897Z" fill="#FF5C00"/>
<path id="Vector_4" d="M50.6174 60.623H47.983C47.233 60.623 46.625 61.2307 46.625 61.9803V64.8714C46.625 65.621 47.233 66.2286 47.983 66.2286H50.6174C51.3674 66.2286 51.9754 65.621 51.9754 64.8714V61.9803C51.9754 61.2307 51.3674 60.623 50.6174 60.623Z" fill="#FF5C00"/>
<path id="Vector_5" d="M50.6604 53.9564H48.0259C47.2759 53.9564 46.668 54.5641 46.668 55.3137V58.2047C46.668 58.9543 47.2759 59.562 48.0259 59.562H50.6604C51.4104 59.562 52.0183 58.9543 52.0183 58.2047V55.3137C52.0183 54.5641 51.4104 53.9564 50.6604 53.9564Z" fill="#FF5C00"/>
<path id="Vector_6" d="M43.9924 73.891H41.358C40.608 73.891 40 74.4987 40 75.2483V78.1393C40 78.8889 40.608 79.4966 41.358 79.4966H43.9924C44.7424 79.4966 45.3504 78.8889 45.3504 78.1393V75.2483C45.3504 74.4987 44.7424 73.891 43.9924 73.891Z" fill="#FF5C00"/>
<path id="Vector_7" d="M43.9494 67.2897H41.315C40.565 67.2897 39.957 67.8974 39.957 68.647V71.538C39.957 72.2876 40.565 72.8953 41.315 72.8953H43.9494C44.6994 72.8953 45.3074 72.2876 45.3074 71.538V68.647C45.3074 67.8974 44.6994 67.2897 43.9494 67.2897Z" fill="#FF5C00"/>
<path id="Vector_8" d="M43.9494 60.623H41.315C40.565 60.623 39.957 61.2307 39.957 61.9803V64.8714C39.957 65.621 40.565 66.2286 41.315 66.2286H43.9494C44.6994 66.2286 45.3074 65.621 45.3074 64.8714V61.9803C45.3074 61.2307 44.6994 60.623 43.9494 60.623Z" fill="#FF5C00"/>
<path id="Vector_9" d="M43.9924 53.9564H41.358C40.608 53.9564 40 54.5641 40 55.3137V58.2047C40 58.9543 40.608 59.562 41.358 59.562H43.9924C44.7424 59.562 45.3504 58.9543 45.3504 58.2047V55.3137C45.3504 54.5641 44.7424 53.9564 43.9924 53.9564Z" fill="#FF5C00"/>
<path id="Vector_10" d="M43.9924 40.623H41.358C40.608 40.623 40 41.2307 40 41.9803V44.8714C40 45.621 40.608 46.2286 41.358 46.2286H43.9924C44.7424 46.2286 45.3504 45.621 45.3504 44.8714V41.9803C45.3504 41.2307 44.7424 40.623 43.9924 40.623Z" fill="#FF5C00"/>
<path id="Vector_11" d="M43.9494 33.9564H41.315C40.565 33.9564 39.957 34.5641 39.957 35.3137V38.2047C39.957 38.9543 40.565 39.562 41.315 39.562H43.9494C44.6994 39.562 45.3074 38.9543 45.3074 38.2047V35.3137C45.3074 34.5641 44.6994 33.9564 43.9494 33.9564Z" fill="#FF5C00"/>
<path id="Vector_12" d="M30.6604 73.891H28.0259C27.2759 73.891 26.668 74.4987 26.668 75.2483V78.1393C26.668 78.8889 27.2759 79.4966 28.0259 79.4966H30.6604C31.4104 79.4966 32.0183 78.8889 32.0183 78.1393V75.2483C32.0183 74.4987 31.4104 73.891 30.6604 73.891Z" fill="#FF5C00"/>
<path id="Vector_13" d="M30.6174 67.2897H27.983C27.233 67.2897 26.625 67.8974 26.625 68.647V71.538C26.625 72.2876 27.233 72.8953 27.983 72.8953H30.6174C31.3674 72.8953 31.9754 72.2876 31.9754 71.538V68.647C31.9754 67.8974 31.3674 67.2897 30.6174 67.2897Z" fill="#FF5C00"/>
<path id="Vector_14" d="M30.6174 60.623H27.983C27.233 60.623 26.625 61.2307 26.625 61.9803V64.8714C26.625 65.621 27.233 66.2286 27.983 66.2286H30.6174C31.3674 66.2286 31.9754 65.621 31.9754 64.8714V61.9803C31.9754 61.2307 31.3674 60.623 30.6174 60.623Z" fill="#FF5C00"/>
<path id="Vector_15" d="M30.6604 53.9564H28.0259C27.2759 53.9564 26.668 54.5641 26.668 55.3137V58.2047C26.668 58.9543 27.2759 59.562 28.0259 59.562H30.6604C31.4104 59.562 32.0183 58.9543 32.0183 58.2047V55.3137C32.0183 54.5641 31.4104 53.9564 30.6604 53.9564Z" fill="#FF5C00"/>
<path id="Vector_16" d="M63.9924 13.9563H61.358C60.608 13.9563 60 14.564 60 15.3136V18.2046C60 18.9542 60.608 19.5619 61.358 19.5619H63.9924C64.7424 19.5619 65.3504 18.9542 65.3504 18.2046V15.3136C65.3504 14.564 64.7424 13.9563 63.9924 13.9563Z" fill="#FF5C00"/>
<path id="Vector_17" d="M17.3244 60.5576H14.69C13.94 60.5576 13.332 61.1653 13.332 61.9149V64.8059C13.332 65.5555 13.94 66.1632 14.69 66.1632H17.3244C18.0744 66.1632 18.6824 65.5555 18.6824 64.8059V61.9149C18.6824 61.1653 18.0744 60.5576 17.3244 60.5576Z" fill="#FF5C00"/>
<path id="Vector_18" d="M50.6604 0.623047H48.0259C47.2759 0.623047 46.668 1.23072 46.668 1.98033V4.87135C46.668 5.62096 47.2759 6.22864 48.0259 6.22864H50.6604C51.4104 6.22864 52.0183 5.62096 52.0183 4.87135V1.98033C52.0183 1.23072 51.4104 0.623047 50.6604 0.623047Z" fill="#FF5C00"/>
<path id="Vector_19" d="M43.9924 0.623047H41.358C40.608 0.623047 40 1.23072 40 1.98033V4.87135C40 5.62096 40.608 6.22864 41.358 6.22864H43.9924C44.7424 6.22864 45.3504 5.62096 45.3504 4.87135V1.98033C45.3504 1.23072 44.7424 0.623047 43.9924 0.623047Z" fill="#FF5C00"/>
<path id="Vector_20" d="M30.6604 0.623047H28.0259C27.2759 0.623047 26.668 1.23072 26.668 1.98033V4.87135C26.668 5.62096 27.2759 6.22864 28.0259 6.22864H30.6604C31.4104 6.22864 32.0183 5.62096 32.0183 4.87135V1.98033C32.0183 1.23072 31.4104 0.623047 30.6604 0.623047Z" fill="#FF5C00"/>
<path id="Vector_21" d="M63.9924 60.5576H61.358C60.608 60.5576 60 61.1653 60 61.9149V64.8059C60 65.5555 60.608 66.1632 61.358 66.1632H63.9924C64.7424 66.1632 65.3504 65.5555 65.3504 64.8059V61.9149C65.3504 61.1653 64.7424 60.5576 63.9924 60.5576Z" fill="#FF5C00"/>
<path id="Vector_22" d="M50.6604 47.3551H48.0259C47.2759 47.3551 46.668 47.9628 46.668 48.7124V51.6034C46.668 52.353 47.2759 52.9607 48.0259 52.9607H50.6604C51.4104 52.9607 52.0183 52.353 52.0183 51.6034V48.7124C52.0183 47.9628 51.4104 47.3551 50.6604 47.3551Z" fill="#FF5C00"/>
<path id="Vector_23" d="M30.6604 47.3551H28.0259C27.2759 47.3551 26.668 47.9628 26.668 48.7124V51.6034C26.668 52.353 27.2759 52.9607 28.0259 52.9607H30.6604C31.4104 52.9607 32.0183 52.353 32.0183 51.6034V48.7124C32.0183 47.9628 31.4104 47.3551 30.6604 47.3551Z" fill="#FF5C00"/>
<path id="Vector_24" d="M17.3244 67.2897H14.69C13.94 67.2897 13.332 67.8974 13.332 68.647V71.538C13.332 72.2876 13.94 72.8953 14.69 72.8953H17.3244C18.0744 72.8953 18.6824 72.2876 18.6824 71.538V68.647C18.6824 67.8974 18.0744 67.2897 17.3244 67.2897Z" fill="#FF5C00"/>
<path id="Vector_25" d="M30.6604 33.9564H28.0259C27.2759 33.9564 26.668 34.5641 26.668 35.3137V38.2047C26.668 38.9543 27.2759 39.562 28.0259 39.562H30.6604C31.4104 39.562 32.0183 38.9543 32.0183 38.2047V35.3137C32.0183 34.5641 31.4104 33.9564 30.6604 33.9564Z" fill="#FF5C00"/>
<path id="Vector_26" d="M63.9924 7.28979H61.358C60.608 7.28979 60 7.89747 60 8.64708V11.5381C60 12.2877 60.608 12.8954 61.358 12.8954H63.9924C64.7424 12.8954 65.3504 12.2877 65.3504 11.5381V8.64708C65.3504 7.89747 64.7424 7.28979 63.9924 7.28979Z" fill="#FF5C00"/>
<path id="Vector_27" d="M63.9924 67.2897H61.358C60.608 67.2897 60 67.8974 60 68.647V71.538C60 72.2876 60.608 72.8953 61.358 72.8953H63.9924C64.7424 72.8953 65.3504 72.2876 65.3504 71.538V68.647C65.3504 67.8974 64.7424 67.2897 63.9924 67.2897Z" fill="#FF5C00"/>
<path id="Vector_28" d="M24.0354 74.0128H21.4009C20.6509 74.0128 20.043 74.6205 20.043 75.3701V78.2611C20.043 79.0107 20.6509 79.6184 21.4009 79.6184H24.0354C24.7854 79.6184 25.3933 79.0107 25.3933 78.2611V75.3701C25.3933 74.6205 24.7854 74.0128 24.0354 74.0128Z" fill="#FF5C00"/>
<path id="Vector_29" d="M23.9924 67.4116H21.358C20.608 67.4116 20 68.0193 20 68.7689V71.6599C20 72.4095 20.608 73.0172 21.358 73.0172H23.9924C24.7424 73.0172 25.3504 72.4095 25.3504 71.6599V68.7689C25.3504 68.0193 24.7424 67.4116 23.9924 67.4116Z" fill="#FF5C00"/>
<path id="Vector_30" d="M23.9924 60.745H21.358C20.608 60.745 20 61.3527 20 62.1023V64.9933C20 65.7429 20.608 66.3506 21.358 66.3506H23.9924C24.7424 66.3506 25.3504 65.7429 25.3504 64.9933V62.1023C25.3504 61.3527 24.7424 60.745 23.9924 60.745Z" fill="#FF5C00"/>
<path id="Vector_31" d="M57.3674 74.0128H54.733C53.983 74.0128 53.375 74.6205 53.375 75.3701V78.2611C53.375 79.0107 53.983 79.6184 54.733 79.6184H57.3674C58.1174 79.6184 58.7254 79.0107 58.7254 78.2611V75.3701C58.7254 74.6205 58.1174 74.0128 57.3674 74.0128Z" fill="#FF5C00"/>
<path id="Vector_32" d="M57.3244 67.4116H54.69C53.94 67.4116 53.332 68.0193 53.332 68.7689V71.6599C53.332 72.4095 53.94 73.0172 54.69 73.0172H57.3244C58.0744 73.0172 58.6824 72.4095 58.6824 71.6599V68.7689C58.6824 68.0193 58.0744 67.4116 57.3244 67.4116Z" fill="#FF5C00"/>
<path id="Vector_33" d="M57.3244 60.745H54.69C53.94 60.745 53.332 61.3527 53.332 62.1023V64.9933C53.332 65.7429 53.94 66.3506 54.69 66.3506H57.3244C58.0744 66.3506 58.6824 65.7429 58.6824 64.9933V62.1023C58.6824 61.3527 58.0744 60.745 57.3244 60.745Z" fill="#FF5C00"/>
<path id="Vector_34" d="M37.3674 74.0128H34.733C33.983 74.0128 33.375 74.6205 33.375 75.3701V78.2611C33.375 79.0107 33.983 79.6184 34.733 79.6184H37.3674C38.1174 79.6184 38.7254 79.0107 38.7254 78.2611V75.3701C38.7254 74.6205 38.1174 74.0128 37.3674 74.0128Z" fill="#FF5C00"/>
<path id="Vector_35" d="M37.3244 67.4116H34.69C33.94 67.4116 33.332 68.0193 33.332 68.7689V71.6599C33.332 72.4095 33.94 73.0172 34.69 73.0172H37.3244C38.0744 73.0172 38.6824 72.4095 38.6824 71.6599V68.7689C38.6824 68.0193 38.0744 67.4116 37.3244 67.4116Z" fill="#FF5C00"/>
<path id="Vector_36" d="M37.3244 60.745H34.69C33.94 60.745 33.332 61.3527 33.332 62.1023V64.9933C33.332 65.7429 33.94 66.3506 34.69 66.3506H37.3244C38.0744 66.3506 38.6824 65.7429 38.6824 64.9933V62.1023C38.6824 61.3527 38.0744 60.745 37.3244 60.745Z" fill="#FF5C00"/>
<path id="Vector_37" d="M37.3674 54.0782H34.733C33.983 54.0782 33.375 54.6859 33.375 55.4355V58.3266C33.375 59.0762 33.983 59.6838 34.733 59.6838H37.3674C38.1174 59.6838 38.7254 59.0762 38.7254 58.3266V55.4355C38.7254 54.6859 38.1174 54.0782 37.3674 54.0782Z" fill="#FF5C00"/>
<path id="Vector_38" d="M37.3674 40.745H34.733C33.983 40.745 33.375 41.3527 33.375 42.1023V44.9933C33.375 45.7429 33.983 46.3506 34.733 46.3506H37.3674C38.1174 46.3506 38.7254 45.7429 38.7254 44.9933V42.1023C38.7254 41.3527 38.1174 40.745 37.3674 40.745Z" fill="#FF5C00"/>
<path id="Vector_39" d="M37.3244 34.0782H34.69C33.94 34.0782 33.332 34.6859 33.332 35.4355V38.3266C33.332 39.0762 33.94 39.6838 34.69 39.6838H37.3244C38.0744 39.6838 38.6824 39.0762 38.6824 38.3266V35.4355C38.6824 34.6859 38.0744 34.0782 37.3244 34.0782Z" fill="#FF5C00"/>
<path id="Vector_40" d="M23.9924 27.2897H21.358C20.608 27.2897 20 27.8974 20 28.647V31.538C20 32.2876 20.608 32.8953 21.358 32.8953H23.9924C24.7424 32.8953 25.3504 32.2876 25.3504 31.538V28.647C25.3504 27.8974 24.7424 27.2897 23.9924 27.2897Z" fill="#FF5C00"/>
<path id="Vector_41" d="M57.3244 27.2897H54.69C53.94 27.2897 53.332 27.8974 53.332 28.647V31.538C53.332 32.2876 53.94 32.8953 54.69 32.8953H57.3244C58.0744 32.8953 58.6824 32.2876 58.6824 31.538V28.647C58.6824 27.8974 58.0744 27.2897 57.3244 27.2897Z" fill="#FF5C00"/>
<path id="Vector_42" d="M24.0354 0.744873H21.4009C20.6509 0.744873 20.043 1.35255 20.043 2.10216V4.99318C20.043 5.74279 20.6509 6.35046 21.4009 6.35046H24.0354C24.7854 6.35046 25.3933 5.74279 25.3933 4.99318V2.10216C25.3933 1.35255 24.7854 0.744873 24.0354 0.744873Z" fill="#FF5C00"/>
<path id="Vector_43" d="M17.3244 7.28979H14.69C13.94 7.28979 13.332 7.89747 13.332 8.64708V11.5381C13.332 12.2877 13.94 12.8954 14.69 12.8954H17.3244C18.0744 12.8954 18.6824 12.2877 18.6824 11.5381V8.64708C18.6824 7.89747 18.0744 7.28979 17.3244 7.28979Z" fill="#FF5C00"/>
<path id="Vector_44" d="M57.3674 0.744873H54.733C53.983 0.744873 53.375 1.35255 53.375 2.10216V4.99318C53.375 5.74279 53.983 6.35046 54.733 6.35046H57.3674C58.1174 6.35046 58.7254 5.74279 58.7254 4.99318V2.10216C58.7254 1.35255 58.1174 0.744873 57.3674 0.744873Z" fill="#FF5C00"/>
<path id="Vector_45" d="M37.3674 0.744873H34.733C33.983 0.744873 33.375 1.35255 33.375 2.10216V4.99318C33.375 5.74279 33.983 6.35046 34.733 6.35046H37.3674C38.1174 6.35046 38.7254 5.74279 38.7254 4.99318V2.10216C38.7254 1.35255 38.1174 0.744873 37.3674 0.744873Z" fill="#FF5C00"/>
<path id="Vector_46" d="M17.3244 20.623H14.69C13.94 20.623 13.332 21.2307 13.332 21.9803V24.8714C13.332 25.621 13.94 26.2286 14.69 26.2286H17.3244C18.0744 26.2286 18.6824 25.621 18.6824 24.8714V21.9803C18.6824 21.2307 18.0744 20.623 17.3244 20.623Z" fill="#FF5C00"/>
<path id="Vector_47" d="M63.9924 20.623H61.358C60.608 20.623 60 21.2307 60 21.9803V24.8714C60 25.621 60.608 26.2286 61.358 26.2286H63.9924C64.7424 26.2286 65.3504 25.621 65.3504 24.8714V21.9803C65.3504 21.2307 64.7424 20.623 63.9924 20.623Z" fill="#FF5C00"/>
<path id="Vector_48" d="M57.3244 53.9564H54.69C53.94 53.9564 53.332 54.5641 53.332 55.3137V58.2047C53.332 58.9543 53.94 59.562 54.69 59.562H57.3244C58.0744 59.562 58.6824 58.9543 58.6824 58.2047V55.3137C58.6824 54.5641 58.0744 53.9564 57.3244 53.9564Z" fill="#FF5C00"/>
<path id="Vector_49" d="M23.9924 53.9564H21.358C20.608 53.9564 20 54.5641 20 55.3137V58.2047C20 58.9543 20.608 59.562 21.358 59.562H23.9924C24.7424 59.562 25.3504 58.9543 25.3504 58.2047V55.3137C25.3504 54.5641 24.7424 53.9564 23.9924 53.9564Z" fill="#FF5C00"/>
<path id="Vector_50" d="M50.6604 33.9564H48.0259C47.2759 33.9564 46.668 34.5641 46.668 35.3137V38.2047C46.668 38.9543 47.2759 39.562 48.0259 39.562H50.6604C51.4104 39.562 52.0183 38.9543 52.0183 38.2047V35.3137C52.0183 34.5641 51.4104 33.9564 50.6604 33.9564Z" fill="#FF5C00"/>
</g>
</svg>
