<svg width="23" height="22" viewBox="0 0 23 22" fill="none" xmlns="http://www.w3.org/2000/svg">
<g id="rocket_stroke only">
<mask id="mask0_467_128" style="mask-type:alpha" maskUnits="userSpaceOnUse" x="0" y="0" width="23" height="22">
<rect id="Bounding box" x="0.5" width="22" height="22" fill="#D9D9D9"/>
</mask>
<g mask="url(#mask0_467_128)">
<path id="rocket_launch" d="M5.67866 9.18889L7.46616 9.94514C7.68005 9.51736 7.90158 9.10486 8.13075 8.70764C8.35991 8.31041 8.612 7.91319 8.88699 7.51597L7.60366 7.26389L5.67866 9.18889ZM8.93283 11.091L11.5453 13.6806C12.187 13.4361 12.8745 13.0618 13.6078 12.5576C14.3412 12.0535 15.0287 11.4806 15.6703 10.8389C16.7398 9.76944 17.5762 8.58159 18.1797 7.27534C18.7832 5.9691 19.0467 4.76597 18.9703 3.66597C17.8703 3.58958 16.6634 3.85312 15.3495 4.45659C14.0356 5.06007 12.8439 5.89653 11.7745 6.96597C11.1328 7.60764 10.5599 8.29514 10.0557 9.02847C9.55158 9.7618 9.17727 10.4493 8.93283 11.091ZM13.012 9.60139C12.6606 9.25 12.4849 8.8184 12.4849 8.30659C12.4849 7.79479 12.6606 7.36319 13.012 7.0118C13.3634 6.66041 13.7988 6.48472 14.3182 6.48472C14.8377 6.48472 15.2731 6.66041 15.6245 7.0118C15.9759 7.36319 16.1516 7.79479 16.1516 8.30659C16.1516 8.8184 15.9759 9.25 15.6245 9.60139C15.2731 9.95278 14.8377 10.1285 14.3182 10.1285C13.7988 10.1285 13.3634 9.95278 13.012 9.60139ZM13.4474 16.9576L15.3724 15.0326L15.1203 13.7493C14.7231 14.0243 14.3259 14.2726 13.9287 14.4941C13.5314 14.7156 13.1189 14.9333 12.6912 15.1472L13.4474 16.9576ZM20.6203 1.99305C20.9106 3.84166 20.7311 5.64062 20.0818 7.38993C19.4325 9.13923 18.3134 10.8083 16.7245 12.3972L17.1828 14.666C17.2439 14.9715 17.2287 15.2694 17.137 15.5597C17.0453 15.85 16.8926 16.1021 16.6787 16.316L12.8287 20.166L10.9037 15.6514L6.98491 11.7326L2.47033 9.80764L6.29741 5.95764C6.5113 5.74375 6.7672 5.59097 7.06512 5.4993C7.36304 5.40764 7.66477 5.39236 7.97033 5.45347L10.2391 5.9118C11.828 4.32291 13.4932 3.2 15.2349 2.54305C16.9766 1.88611 18.7717 1.70278 20.6203 1.99305ZM4.09741 14.6431C4.63213 14.1083 5.28526 13.8371 6.05679 13.8295C6.82831 13.8219 7.48144 14.0854 8.01616 14.6201C8.55088 15.1549 8.81443 15.808 8.80679 16.5795C8.79915 17.351 8.52797 18.0042 7.99325 18.5389C7.6113 18.9208 6.97345 19.2493 6.0797 19.5243C5.18595 19.7993 3.95227 20.0437 2.37866 20.2576C2.59255 18.684 2.837 17.4503 3.112 16.5566C3.387 15.6628 3.71547 15.025 4.09741 14.6431ZM5.40366 15.9264C5.25088 16.0792 5.09811 16.358 4.94533 16.7628C4.79255 17.1677 4.68561 17.5764 4.6245 17.9889C5.037 17.9278 5.44568 17.8246 5.85054 17.6795C6.2554 17.5344 6.53422 17.3854 6.687 17.2326C6.87033 17.0493 6.96963 16.8278 6.98491 16.5681C7.00019 16.3083 6.91616 16.0868 6.73283 15.9035C6.5495 15.7201 6.32797 15.6323 6.06825 15.6399C5.80852 15.6476 5.587 15.7431 5.40366 15.9264Z" fill="white"/>
</g>
</g>
</svg>
