<svg width="16" height="16" viewBox="0 0 16 16" fill="none" xmlns="http://www.w3.org/2000/svg">
<g id="checkbox filled">
<path id="Icon" d="M7.99613 16.0009C9.09015 16.0009 10.1197 15.7918 11.0847 15.3736C12.0497 14.9605 12.9011 14.3848 13.6391 13.6465C14.377 12.9081 14.955 12.0562 15.373 11.0906C15.791 10.1251 16 9.09505 16 8.00044C16 6.90584 15.791 5.87577 15.373 4.91024C14.955 3.94472 14.377 3.09536 13.6391 2.36218C12.9011 1.62384 12.0497 1.04556 11.0847 0.627334C10.1197 0.209111 9.08757 0 7.98839 0C6.89437 0 5.86486 0.209111 4.89985 0.627334C3.94001 1.04556 3.09111 1.62384 2.35317 2.36218C1.62038 3.09536 1.04499 3.94472 0.626996 4.91024C0.208999 5.87577 0 6.90584 0 8.00044C0 9.09505 0.208999 10.1251 0.626996 11.0906C1.04499 12.0562 1.62038 12.9081 2.35317 13.6465C3.09111 14.3848 3.94259 14.9605 4.9076 15.3736C5.8726 15.7918 6.90211 16.0009 7.99613 16.0009ZM7.13691 11.8187C6.98726 11.8187 6.85309 11.7877 6.7344 11.7257C6.61571 11.6638 6.4996 11.5631 6.38607 11.4237L4.4896 9.1157C4.42251 9.02793 4.37091 8.93757 4.33478 8.84463C4.29866 8.7517 4.2806 8.65618 4.2806 8.55807C4.2806 8.36187 4.34769 8.19407 4.48186 8.05466C4.62119 7.91009 4.7889 7.8378 4.985 7.8378C5.10885 7.8378 5.2198 7.86362 5.31785 7.91525C5.4159 7.96688 5.51653 8.05724 5.61974 8.18632L7.10595 10.0761L10.3106 4.94897C10.4757 4.68048 10.6847 4.54624 10.9376 4.54624C11.1285 4.54624 11.2988 4.60819 11.4485 4.73211C11.6033 4.85603 11.6807 5.01867 11.6807 5.22004C11.6807 5.30781 11.6601 5.40075 11.6188 5.49885C11.5775 5.59179 11.531 5.67957 11.4794 5.76218L7.8568 11.4159C7.76391 11.5502 7.65554 11.6509 7.53169 11.718C7.413 11.7851 7.28141 11.8187 7.13691 11.8187Z" fill="#5EBA8B"/>
</g>
</svg>
