<svg width="21" height="23" viewBox="0 0 21 23" fill="none" xmlns="http://www.w3.org/2000/svg">
<g id="Crayon rouge" clip-path="url(#clip0_480_171)">
<path id="Vector" d="M16.3435 6.47009L13.9878 4.06274L1.13914 16.636L3.49488 19.0433L16.3435 6.47009Z" fill="#93191D"/>
<path id="Vector_2" d="M18.6988 8.87731L16.343 6.46997L3.49437 19.0432L5.85011 21.4505L18.6988 8.87731Z" fill="#E62C29"/>
<path id="Vector_3" d="M19.1565 2.95616L16.7281 3.47621C16.2329 3.58248 16.0492 4.19262 16.4034 4.55464L18.2597 6.45088C18.6139 6.81289 19.2282 6.64207 19.3446 6.14916L19.9167 3.73287C20.0256 3.27324 19.6181 2.85738 19.1565 2.95616Z" fill="#E62C29"/>
<g id="Group">
<path id="Vector_4" opacity="0.5" d="M13.9872 4.06274L13.9937 4.06946C13.9962 4.06595 13.9991 4.0632 14.0016 4.05969L13.9872 4.06274Z" fill="#FEDF97"/>
<path id="Vector_5" opacity="0.5" d="M16.3363 6.46288L16.3497 6.47653C16.3874 6.43135 16.4271 6.38753 16.4698 6.34604C16.4269 6.38809 16.382 6.4269 16.3361 6.46343L16.3363 6.46288Z" fill="#FEDF97"/>
<path id="Vector_6" d="M16.023 3.62715C16.1942 3.70945 16.3549 3.82083 16.4952 3.96462C17.146 4.62945 17.1345 5.69534 16.4696 6.34611C17.1343 5.6959 18.2004 5.70685 18.8511 6.37168C18.9914 6.51548 19.0997 6.67808 19.1784 6.85091L19.3657 6.06025L16.8177 3.45671L16.0232 3.62659L16.023 3.62715Z" fill="#FEDF97"/>
<path id="Vector_7" opacity="0.5" d="M18.6985 8.87671L18.7018 8.86213C18.6984 8.86468 18.6955 8.86743 18.6921 8.86999L18.6985 8.87671Z" fill="#FEDF97"/>
<path id="Vector_8" d="M16.4437 8.72676C17.0525 9.34871 18.0244 9.39847 18.6915 8.86972L16.349 6.47632C15.8057 7.13157 15.835 8.10481 16.4437 8.72676Z" fill="#FEDF97"/>
<path id="Vector_9" d="M16.47 6.34553C16.4271 6.38758 16.3874 6.4314 16.3499 6.47602L18.6924 8.86942C18.6959 8.86687 18.6987 8.86412 18.7022 8.86156L19.1788 6.85033C19.1 6.67751 18.992 6.51434 18.8515 6.3711C18.2013 5.70648 17.1348 5.69476 16.47 6.34553Z" fill="#FEDF97"/>
<path id="Vector_10" d="M14.0885 6.3199C14.6972 6.94185 15.6692 6.99161 16.3363 6.46287L13.9938 4.06946C13.4505 4.72471 13.4798 5.69795 14.0885 6.3199Z" fill="#FEDF97"/>
<path id="Vector_11" d="M16.4955 3.96404C16.3552 3.82024 16.1942 3.70942 16.0232 3.62656L14.0024 4.05938C13.9999 4.06289 13.997 4.06565 13.9944 4.06916L16.337 6.46256C16.3829 6.42603 16.4278 6.38722 16.4706 6.34517C17.1353 5.69496 17.147 4.62851 16.4962 3.96368L16.4955 3.96404Z" fill="#FEDF97"/>
</g>
</g>
<defs>
<clipPath id="clip0_480_171">
<rect width="22" height="13.9042" fill="white" transform="translate(0.14624 19.4021) rotate(-70.2493)"/>
</clipPath>
</defs>
</svg>
