<svg width="14" height="16" viewBox="0 0 14 16" fill="none" xmlns="http://www.w3.org/2000/svg">
<g id="livre" clip-path="url(#clip0_461_88)">
<path id="Vector" d="M12.8039 3.07775L6.13418 0.021075C6.06578 -0.0102444 5.98825 -0.00650476 5.92349 0.0299566C5.85918 0.0673529 5.81495 0.133264 5.80491 0.208056L4.1572 12.5138C4.1426 12.6241 4.2028 12.7302 4.30359 12.7709L10.8165 15.4251C10.8443 15.4363 10.8739 15.4419 10.9036 15.4419C10.9442 15.4419 10.9843 15.4311 11.0203 15.4101C11.0824 15.3732 11.1252 15.3101 11.1362 15.2376L12.9412 3.33439C12.9572 3.2264 12.9015 3.12123 12.8049 3.07729L12.8039 3.07775Z" fill="#7A2E36"/>
<path id="Vector_2" d="M3.0069 2.28258C3.0069 2.28258 3.27187 1.98108 3.53638 1.86047C3.53638 1.86047 11.5989 3.18757 12.07 3.39886L10.3635 15.5541L1.82983 14.6795L3.0069 2.28258Z" fill="#FFF8C6"/>
<path id="Vector_3" d="M12.2677 3.55402C12.2284 3.50167 12.171 3.46848 12.1071 3.46007L2.69103 2.33397C2.57017 2.32275 2.44841 2.41063 2.43062 2.54105L0.782905 14.8468C0.77424 14.9127 0.792026 14.9795 0.833071 15.0314C0.873659 15.0828 0.933402 15.1151 0.998162 15.1207L10.2578 15.8448C10.2638 15.8452 10.2697 15.8452 10.2756 15.8452C10.391 15.8452 10.4904 15.7597 10.5082 15.641L12.3128 3.73727C12.3224 3.67229 12.3064 3.60638 12.2677 3.55402Z" fill="#6F2626"/>
<path id="Vector_4" d="M13.0017 3.10672C12.9447 3.06792 12.8704 3.06652 12.8115 3.10345L12.1603 3.51387C12.1161 3.54145 12.0864 3.58726 12.0787 3.63962L10.2061 15.7911C10.1952 15.8607 10.2248 15.9304 10.2823 15.9696C10.3119 15.9897 10.3461 16.0005 10.3803 16.0005C10.4127 16.0005 10.4442 15.9916 10.4729 15.9738L11.1246 15.5634C11.1688 15.5358 11.1985 15.49 11.2062 15.4377L13.0783 3.28622C13.0893 3.21657 13.0596 3.14692 13.0022 3.10719L13.0017 3.10672Z" fill="#532222"/>
</g>
<defs>
<clipPath id="clip0_461_88">
<rect width="12.2997" height="16" fill="white" transform="translate(0.780518)"/>
</clipPath>
</defs>
</svg>
