<?xml version="1.0" encoding="UTF-8"?>
<!DOCTYPE svg PUBLIC "-//W3C//DTD SVG 1.1//EN" "http://www.w3.org/Graphics/SVG/1.1/DTD/svg11.dtd">
<svg xmlns="http://www.w3.org/2000/svg" width="160px" height="160px" viewBox="0 0 160 160">
<g><path style="opacity:0.157" fill="#fe0000" d="M 158.5,-0.5 C 158.833,-0.5 159.167,-0.5 159.5,-0.5C 159.5,-0.166667 159.5,0.166667 159.5,0.5C 159.167,0.166667 158.833,-0.166667 158.5,-0.5 Z"/></g>
<g><path style="opacity:1" fill="#8a5958" d="M 48.5,9.5 C 48.5,10.1667 48.5,10.8333 48.5,11.5C 44.3249,7.66199 39.4916,4.99532 34,3.5C 30.2775,4.27607 27.1108,5.94274 24.5,8.5C 18.9023,12.0909 13.569,16.0909 8.5,20.5C 14.6998,10.6365 23.5331,4.30315 35,1.5C 40.3435,2.75464 44.8435,5.42131 48.5,9.5 Z"/></g>
<g><path style="opacity:1" fill="#bb6363" d="M 48.5,11.5 C 50.1667,12.5 51.5,13.8333 52.5,15.5C 51.5,16.1667 50.5,16.8333 49.5,17.5C 47.4041,12.1041 43.4041,9.10409 37.5,8.5C 34.3623,7.31868 31.3623,7.31868 28.5,8.5C 21.9118,12.4195 16.2451,17.4195 11.5,23.5C 12.0722,21.7446 12.9055,20.0779 14,18.5C 17.3955,14.9349 20.8955,11.6015 24.5,8.5C 27.1108,5.94274 30.2775,4.27607 34,3.5C 39.4916,4.99532 44.3249,7.66199 48.5,11.5 Z"/></g>
<g><path style="opacity:1" fill="#9a5050" d="M 24.5,8.5 C 20.8955,11.6015 17.3955,14.9349 14,18.5C 12.9055,20.0779 12.0722,21.7446 11.5,23.5C 10.0582,24.8195 9.39151,26.4862 9.5,28.5C 8.5041,28.4142 7.67076,28.7476 7,29.5C 5.7138,32.4055 4.7138,35.4055 4,38.5C 3.50454,36.5273 3.33788,34.5273 3.5,32.5C 4.14952,30.5648 4.48285,28.5648 4.5,26.5C 5.90632,26.0269 6.57298,25.0269 6.5,23.5C 7.90632,23.0269 8.57298,22.0269 8.5,20.5C 13.569,16.0909 18.9023,12.0909 24.5,8.5 Z"/></g>
<g><path style="opacity:0.149" fill="#c6c7c9" d="M 48.5,9.5 C 50.5558,12.0494 53.2224,13.5494 56.5,14C 59.6885,21.0203 64.6885,26.187 71.5,29.5C 68.8431,29.838 66.5098,29.1713 64.5,27.5C 62.1833,24.6826 59.6833,22.0159 57,19.5C 56.51,18.2068 56.3433,16.8734 56.5,15.5C 55.1667,15.5 53.8333,15.5 52.5,15.5C 51.5,13.8333 50.1667,12.5 48.5,11.5C 48.5,10.8333 48.5,10.1667 48.5,9.5 Z"/></g>
<g><path style="opacity:1" fill="#fe9e9e" d="M 40.5,21.5 C 40.44,22.0431 40.1067,22.3764 39.5,22.5C 36.3763,19.884 32.8763,17.884 29,16.5C 24.9298,18.1143 22.0965,20.9477 20.5,25C 22.2389,29.5568 24.9056,33.3902 28.5,36.5C 22.3208,35.5059 17.9874,32.0059 15.5,26C 18.2195,20.9133 21.8862,16.58 26.5,13C 29.2893,11.3364 32.1227,11.1698 35,12.5C 37.3578,15.2223 39.1911,18.2223 40.5,21.5 Z"/></g>
<g><path style="opacity:1" fill="#d87474" d="M 37.5,8.5 C 43.4041,9.10409 47.4041,12.1041 49.5,17.5C 47.8333,18.8333 46.1667,20.1667 44.5,21.5C 45.2107,18.1362 44.044,15.8029 41,14.5C 40.074,12.3083 38.9073,10.3083 37.5,8.5 Z"/></g>
<g><path style="opacity:1" fill="#f68a8a" d="M 37.5,8.5 C 38.9073,10.3083 40.074,12.3083 41,14.5C 44.044,15.8029 45.2107,18.1362 44.5,21.5C 44.1667,22.5 43.5,23.1667 42.5,23.5C 41.8333,22.8333 41.1667,22.1667 40.5,21.5C 39.1911,18.2223 37.3578,15.2223 35,12.5C 32.1227,11.1698 29.2893,11.3364 26.5,13C 21.8862,16.58 18.2195,20.9133 15.5,26C 17.9874,32.0059 22.3208,35.5059 28.5,36.5C 27.8333,37.8333 26.8333,38.8333 25.5,39.5C 23.6916,39.5086 22.0249,39.0086 20.5,38C 18.6667,34.8333 16.1667,32.3333 13,30.5C 12.8333,29.5 12.6667,28.5 12.5,27.5C 12.9673,24.8524 14.1339,22.5191 16,20.5C 20.3373,16.5993 24.504,12.5993 28.5,8.5C 31.3623,7.31868 34.3623,7.31868 37.5,8.5 Z"/></g>
<g><path style="opacity:1" fill="#f9b8b8" d="M 40.5,21.5 C 41.1667,22.1667 41.8333,22.8333 42.5,23.5C 38.8333,27.5 35.1667,31.5 31.5,35.5C 30.391,35.5569 29.391,35.8902 28.5,36.5C 24.9056,33.3902 22.2389,29.5568 20.5,25C 22.0965,20.9477 24.9298,18.1143 29,16.5C 32.8763,17.884 36.3763,19.884 39.5,22.5C 40.1067,22.3764 40.44,22.0431 40.5,21.5 Z"/></g>
<g><path style="opacity:0.498" fill="#a99393" d="M 8.5,20.5 C 8.57298,22.0269 7.90632,23.0269 6.5,23.5C 6.42702,21.9731 7.09368,20.9731 8.5,20.5 Z"/></g>
<g><path style="opacity:0.294" fill="#c9b9b9" d="M 6.5,23.5 C 6.57298,25.0269 5.90632,26.0269 4.5,26.5C 4.42702,24.9731 5.09368,23.9731 6.5,23.5 Z"/></g>
<g><path style="opacity:1" fill="#859cb3" d="M 52.5,15.5 C 53.8333,15.5 55.1667,15.5 56.5,15.5C 56.3433,16.8734 56.51,18.2068 57,19.5C 59.6833,22.0159 62.1833,24.6826 64.5,27.5C 66.5098,29.1713 68.8431,29.838 71.5,29.5C 71.5,30.5 71.5,31.5 71.5,32.5C 70.5768,31.6971 69.5768,31.5304 68.5,32C 64.7588,35.5159 61.0921,39.0159 57.5,42.5C 56.8333,42.8333 56.1667,43.1667 55.5,43.5C 50.6499,45.6722 46.6499,49.0055 43.5,53.5C 42.6618,53.1583 42.3284,52.4916 42.5,51.5C 43.3382,51.1583 43.6716,50.4916 43.5,49.5C 44.5,49.1667 45.1667,48.5 45.5,47.5C 47.371,47.1412 48.871,46.1412 50,44.5C 51.4004,42.1591 51.9004,39.8258 51.5,37.5C 50.3349,36.4164 49.0016,35.5831 47.5,35C 48.1667,34.3333 48.8333,33.6667 49.5,33C 47.5624,32.9793 45.5624,33.146 43.5,33.5C 42.707,32.6446 43.0403,31.8113 44.5,31C 43.552,30.5172 42.552,30.3505 41.5,30.5C 42.2899,29.2058 43.2899,28.0391 44.5,27C 40.1828,29.1315 36.5162,32.2981 33.5,36.5C 33.1667,36.5 32.8333,36.5 32.5,36.5C 31.8333,36.5 31.5,36.1667 31.5,35.5C 35.1667,31.5 38.8333,27.5 42.5,23.5C 43.5,23.1667 44.1667,22.5 44.5,21.5C 46.1667,20.1667 47.8333,18.8333 49.5,17.5C 50.5,16.8333 51.5,16.1667 52.5,15.5 Z"/></g>
<g><path style="opacity:0.659" fill="#c4a7a6" d="M 4.5,26.5 C 4.48285,28.5648 4.14952,30.5648 3.5,32.5C 2.53862,34.2646 2.20528,36.2646 2.5,38.5C 1.0187,34.2115 1.68537,30.2115 4.5,26.5 Z"/></g>
<g><path style="opacity:1" fill="#d87a7a" d="M 28.5,8.5 C 24.504,12.5993 20.3373,16.5993 16,20.5C 14.1339,22.5191 12.9673,24.8524 12.5,27.5C 12.6667,28.5 12.8333,29.5 13,30.5C 16.1667,32.3333 18.6667,34.8333 20.5,38C 22.0249,39.0086 23.6916,39.5086 25.5,39.5C 25.5,40.1667 25.5,40.8333 25.5,41.5C 24.8333,41.5 24.5,41.8333 24.5,42.5C 24.1667,42.5 23.8333,42.5 23.5,42.5C 19.876,41.9483 16.5427,40.615 13.5,38.5C 10.5027,35.8379 9.16939,32.5046 9.5,28.5C 9.39151,26.4862 10.0582,24.8195 11.5,23.5C 16.2451,17.4195 21.9118,12.4195 28.5,8.5 Z"/></g>
<g><path style="opacity:1" fill="#c7931a" d="M 71.5,32.5 C 93.1667,53.5 114.5,74.8333 135.5,96.5C 136.08,98.7488 137.413,100.415 139.5,101.5C 139.5,102.833 139.5,104.167 139.5,105.5C 137.5,105.167 135.5,104.833 133.5,104.5C 133.611,103.883 133.944,103.383 134.5,103C 132.667,100.5 130.833,98 129,95.5C 112.704,79.8071 96.8703,63.8071 81.5,47.5C 75.0015,41.7051 67.6682,40.0384 59.5,42.5C 58.8333,42.5 58.1667,42.5 57.5,42.5C 61.0921,39.0159 64.7588,35.5159 68.5,32C 69.5768,31.5304 70.5768,31.6971 71.5,32.5 Z"/></g>
<g><path style="opacity:1" fill="#bc6f6f" d="M 9.5,28.5 C 9.16939,32.5046 10.5027,35.8379 13.5,38.5C 16.5427,40.615 19.876,41.9483 23.5,42.5C 22.1667,44.5 20.5,46.1667 18.5,47.5C 17.1817,44.9809 15.5151,42.6476 13.5,40.5C 12.1804,38.7299 10.6804,38.3966 9,39.5C 8.66667,38.8333 8.33333,38.1667 8,37.5C 7.24316,39.3146 6.40982,40.9812 5.5,42.5C 5.16667,41.5 4.5,40.8333 3.5,40.5C 2.66175,40.1583 2.32842,39.4916 2.5,38.5C 2.20528,36.2646 2.53862,34.2646 3.5,32.5C 3.33788,34.5273 3.50454,36.5273 4,38.5C 4.7138,35.4055 5.7138,32.4055 7,29.5C 7.67076,28.7476 8.5041,28.4142 9.5,28.5 Z"/></g>
<g><path style="opacity:1" fill="#a9bace" d="M 41.5,30.5 C 42.552,30.3505 43.552,30.5172 44.5,31C 43.0403,31.8113 42.707,32.6446 43.5,33.5C 45.5624,33.146 47.5624,32.9793 49.5,33C 48.8333,33.6667 48.1667,34.3333 47.5,35C 49.0016,35.5831 50.3349,36.4164 51.5,37.5C 51.9004,39.8258 51.4004,42.1591 50,44.5C 48.871,46.1412 47.371,47.1412 45.5,47.5C 45.631,46.7611 45.4643,46.0944 45,45.5C 44.3457,46.6956 43.8457,46.6956 43.5,45.5C 43.9767,44.5224 44.6433,43.6891 45.5,43C 43.9452,41.3542 42.2785,41.0209 40.5,42C 42.6381,40.5784 43.8047,38.745 44,36.5C 40.5373,40.6963 38.3706,40.0296 37.5,34.5C 38.5,32.8333 39.8333,31.5 41.5,30.5 Z"/></g>
<g><path style="opacity:1" fill="#9c908f" d="M 31.5,35.5 C 31.5,36.1667 31.8333,36.5 32.5,36.5C 31.0043,39.3276 28.671,40.9943 25.5,41.5C 25.5,40.8333 25.5,40.1667 25.5,39.5C 26.8333,38.8333 27.8333,37.8333 28.5,36.5C 29.391,35.8902 30.391,35.5569 31.5,35.5 Z"/></g>
<g><path style="opacity:1" fill="#bd8282" d="M 18.5,47.5 C 17.3995,48.6049 16.7329,49.9382 16.5,51.5C 14.7868,52.6354 14.1201,54.302 14.5,56.5C 11.9922,51.9636 8.99216,47.6303 5.5,43.5C 5.5,43.1667 5.5,42.8333 5.5,42.5C 6.40982,40.9812 7.24316,39.3146 8,37.5C 8.33333,38.1667 8.66667,38.8333 9,39.5C 10.6804,38.3966 12.1804,38.7299 13.5,40.5C 15.5151,42.6476 17.1817,44.9809 18.5,47.5 Z"/></g>
<g><path style="opacity:1" fill="#b6b5b4" d="M 37.5,34.5 C 38.3706,40.0296 40.5373,40.6963 44,36.5C 43.8047,38.745 42.6381,40.5784 40.5,42C 42.2785,41.0209 43.9452,41.3542 45.5,43C 44.6433,43.6891 43.9767,44.5224 43.5,45.5C 43.8457,46.6956 44.3457,46.6956 45,45.5C 45.4643,46.0944 45.631,46.7611 45.5,47.5C 45.1667,48.5 44.5,49.1667 43.5,49.5C 41.0905,48.6165 38.7571,47.4498 36.5,46C 39.3323,44.0924 38.999,43.259 35.5,43.5C 35.5668,41.5992 35.2335,39.7659 34.5,38C 34.9778,36.3576 35.9778,35.1909 37.5,34.5 Z"/></g>
<g><path style="opacity:1" fill="#d79d00" d="M 59.5,42.5 C 67.6682,40.0384 75.0015,41.7051 81.5,47.5C 96.8703,63.8071 112.704,79.8071 129,95.5C 130.833,98 132.667,100.5 134.5,103C 133.944,103.383 133.611,103.883 133.5,104.5C 132.662,104.842 132.328,105.508 132.5,106.5C 131.732,105.737 131.232,104.737 131,103.5C 113.791,86.7862 96.9572,69.9528 80.5,53C 74.7237,48.4462 68.3904,44.9462 61.5,42.5C 60.8333,42.5 60.1667,42.5 59.5,42.5 Z"/></g>
<g><path style="opacity:0.098" fill="#f1d7d7" d="M 3.5,40.5 C 4.5,40.8333 5.16667,41.5 5.5,42.5C 5.5,42.8333 5.5,43.1667 5.5,43.5C 4.09368,43.0269 3.42702,42.0269 3.5,40.5 Z"/></g>
<g><path style="opacity:1" fill="#6c6765" d="M 32.5,36.5 C 32.8333,36.5 33.1667,36.5 33.5,36.5C 33.0805,38.0936 32.4138,39.5936 31.5,41C 34.0087,45.6745 37.6753,49.1745 42.5,51.5C 42.3284,52.4916 42.6618,53.1583 43.5,53.5C 44.1667,53.5 44.8333,53.5 45.5,53.5C 45.1667,54.5 44.5,55.1667 43.5,55.5C 42.2073,54.3552 41.0407,54.6885 40,56.5C 39.51,55.2068 39.3433,53.8734 39.5,52.5C 36.402,51.2632 34.0687,49.0966 32.5,46C 31.552,45.5172 30.552,45.3505 29.5,45.5C 30.0547,41.4159 29.0547,40.7492 26.5,43.5C 25.8165,43.1373 25.1499,42.8039 24.5,42.5C 24.5,41.8333 24.8333,41.5 25.5,41.5C 28.671,40.9943 31.0043,39.3276 32.5,36.5 Z"/></g>
<g><path style="opacity:1" fill="#948e89" d="M 41.5,30.5 C 39.8333,31.5 38.5,32.8333 37.5,34.5C 35.9778,35.1909 34.9778,36.3576 34.5,38C 35.2335,39.7659 35.5668,41.5992 35.5,43.5C 38.999,43.259 39.3323,44.0924 36.5,46C 38.7571,47.4498 41.0905,48.6165 43.5,49.5C 43.6716,50.4916 43.3382,51.1583 42.5,51.5C 37.6753,49.1745 34.0087,45.6745 31.5,41C 32.4138,39.5936 33.0805,38.0936 33.5,36.5C 36.5162,32.2981 40.1828,29.1315 44.5,27C 43.2899,28.0391 42.2899,29.2058 41.5,30.5 Z"/></g>
<g><path style="opacity:1" fill="#f6b500" d="M 57.5,43.5 C 57.5,43.1667 57.5,42.8333 57.5,42.5C 58.1667,42.5 58.8333,42.5 59.5,42.5C 60.1667,42.5 60.8333,42.5 61.5,42.5C 82.5,63.8333 103.5,85.1667 124.5,106.5C 102.751,86.2532 81.4179,65.4198 60.5,44C 59.9056,43.5357 59.2389,43.369 58.5,43.5C 58.1667,43.5 57.8333,43.5 57.5,43.5 Z"/></g>
<g><path style="opacity:1" fill="#dfa300" d="M 61.5,42.5 C 68.3904,44.9462 74.7237,48.4462 80.5,53C 96.9572,69.9528 113.791,86.7862 131,103.5C 131.232,104.737 131.732,105.737 132.5,106.5C 132.5,109.5 132.5,112.5 132.5,115.5C 132.5,116.167 132.167,116.5 131.5,116.5C 130.698,115.048 130.198,113.382 130,111.5C 128.574,109.234 126.74,107.568 124.5,106.5C 103.5,85.1667 82.5,63.8333 61.5,42.5 Z"/></g>
<g><path style="opacity:1" fill="#bbb8b5" d="M 55.5,43.5 C 55.5,43.8333 55.5,44.1667 55.5,44.5C 52.1667,47.5 48.8333,50.5 45.5,53.5C 44.8333,53.5 44.1667,53.5 43.5,53.5C 46.6499,49.0055 50.6499,45.6722 55.5,43.5 Z"/></g>
<g><path style="opacity:1" fill="#4d4b4c" d="M 43.5,55.5 C 42.5,56.8333 41.5,58.1667 40.5,59.5C 39.5,59.8333 38.8333,60.5 38.5,61.5C 37.0613,63.3603 35.3947,65.027 33.5,66.5C 33.631,65.7611 33.4643,65.0944 33,64.5C 31.8293,66.6157 30.3293,67.2824 28.5,66.5C 34.067,61.8641 33.4004,58.5308 26.5,56.5C 26.5,55.5 26.5,54.5 26.5,53.5C 25.5,53.5 24.5,53.5 23.5,53.5C 23.719,52.325 23.3857,51.325 22.5,50.5C 20.1394,52.1939 18.1394,54.1939 16.5,56.5C 16.1667,56.3333 15.8333,56.1667 15.5,56C 17.3877,54.0496 18.5544,51.8829 19,49.5C 18.2917,50.3805 17.4584,51.0472 16.5,51.5C 16.7329,49.9382 17.3995,48.6049 18.5,47.5C 20.5,46.1667 22.1667,44.5 23.5,42.5C 23.8333,42.5 24.1667,42.5 24.5,42.5C 25.1499,42.8039 25.8165,43.1373 26.5,43.5C 29.0547,40.7492 30.0547,41.4159 29.5,45.5C 30.552,45.3505 31.552,45.5172 32.5,46C 34.0687,49.0966 36.402,51.2632 39.5,52.5C 39.3433,53.8734 39.51,55.2068 40,56.5C 41.0407,54.6885 42.2073,54.3552 43.5,55.5 Z"/></g>
<g><path style="opacity:1" fill="#c79812" d="M 55.5,44.5 C 51.5,50.5 46.5,55.5 40.5,59.5C 41.5,58.1667 42.5,56.8333 43.5,55.5C 44.5,55.1667 45.1667,54.5 45.5,53.5C 48.8333,50.5 52.1667,47.5 55.5,44.5 Z"/></g>
<g><path style="opacity:1" fill="#6c6e6e" d="M 33.5,66.5 C 31.5989,67.935 31.2655,69.6017 32.5,71.5C 28.3681,71.7629 26.3681,69.7629 26.5,65.5C 24.8333,61.8333 22.1667,59.1667 18.5,57.5C 16.901,57.7678 15.5676,57.4345 14.5,56.5C 14.1201,54.302 14.7868,52.6354 16.5,51.5C 17.4584,51.0472 18.2917,50.3805 19,49.5C 18.5544,51.8829 17.3877,54.0496 15.5,56C 15.8333,56.1667 16.1667,56.3333 16.5,56.5C 18.1394,54.1939 20.1394,52.1939 22.5,50.5C 23.3857,51.325 23.719,52.325 23.5,53.5C 24.5,53.5 25.5,53.5 26.5,53.5C 26.5,54.5 26.5,55.5 26.5,56.5C 33.4004,58.5308 34.067,61.8641 28.5,66.5C 30.3293,67.2824 31.8293,66.6157 33,64.5C 33.4643,65.0944 33.631,65.7611 33.5,66.5 Z"/></g>
<g><path style="opacity:0.663" fill="#bbbcbd" d="M 18.5,57.5 C 22.1667,59.1667 24.8333,61.8333 26.5,65.5C 23.5,63.1667 20.8333,60.5 18.5,57.5 Z"/></g>
<g><path style="opacity:1" fill="#efbb19" d="M 57.5,42.5 C 57.5,42.8333 57.5,43.1667 57.5,43.5C 56.8902,44.391 56.5569,45.391 56.5,46.5C 56.8333,47.8333 57.1667,49.1667 57.5,50.5C 56.1196,49.2935 54.9529,49.6269 54,51.5C 51.9747,53.278 52.1414,54.6113 54.5,55.5C 53.5,56.8333 52.5,58.1667 51.5,59.5C 50.5,60.1667 49.5,60.8333 48.5,61.5C 47.8485,60.9094 47.1818,60.2427 46.5,59.5C 44.6639,60.0276 42.9972,60.6942 41.5,61.5C 41.6287,63.2161 41.962,64.8828 42.5,66.5C 39.4138,64.9044 38.7471,62.5711 40.5,59.5C 46.5,55.5 51.5,50.5 55.5,44.5C 55.5,44.1667 55.5,43.8333 55.5,43.5C 56.1667,43.1667 56.8333,42.8333 57.5,42.5 Z"/></g>
<g><path style="opacity:1" fill="#fec512" d="M 58.5,43.5 C 59.2389,43.369 59.9056,43.5357 60.5,44C 81.4179,65.4198 102.751,86.2532 124.5,106.5C 126.74,107.568 128.574,109.234 130,111.5C 130.198,113.382 130.698,115.048 131.5,116.5C 130.942,117.79 129.942,118.623 128.5,119C 123.892,119.536 119.559,120.702 115.5,122.5C 113.293,122.451 110.96,121.617 108.5,120C 87.7181,101.386 67.7181,81.8858 48.5,61.5C 49.5,60.8333 50.5,60.1667 51.5,59.5C 65.7752,75.5051 81.1086,90.3385 97.5,104C 101.154,108.807 105.154,113.307 109.5,117.5C 113.421,119.838 117.587,120.171 122,118.5C 123.376,118.316 124.209,117.649 124.5,116.5C 127.309,116.042 127.976,114.709 126.5,112.5C 125.71,111.599 124.71,110.932 123.5,110.5C 102.197,87.8625 80.53,65.5292 58.5,43.5 Z"/></g>
<g><path style="opacity:1" fill="#fec81b" d="M 54.5,55.5 C 72.8609,74.365 91.8609,93.5317 111.5,113C 115.084,117.134 119.417,118.3 124.5,116.5C 124.209,117.649 123.376,118.316 122,118.5C 117.587,120.171 113.421,119.838 109.5,117.5C 105.154,113.307 101.154,108.807 97.5,104C 81.1086,90.3385 65.7752,75.5051 51.5,59.5C 52.5,58.1667 53.5,56.8333 54.5,55.5 Z"/></g>
<g><path style="opacity:1" fill="#fec20c" d="M 48.5,61.5 C 67.7181,81.8858 87.7181,101.386 108.5,120C 110.96,121.617 113.293,122.451 115.5,122.5C 115.5,124.5 115.5,126.5 115.5,128.5C 114.833,128.5 114.5,128.833 114.5,129.5C 112.932,130.473 111.265,130.64 109.5,130C 94.1667,114.667 78.8333,99.3333 63.5,84C 62.552,83.5172 61.552,83.3505 60.5,83.5C 60.6495,82.448 60.4828,81.448 60,80.5C 56.6819,77.8664 54.3485,74.5331 53,70.5C 49.2482,67.2308 45.4149,64.2308 41.5,61.5C 42.9972,60.6942 44.6639,60.0276 46.5,59.5C 47.1818,60.2427 47.8485,60.9094 48.5,61.5 Z"/></g>
<g><path style="opacity:1" fill="#b18314" d="M 40.5,59.5 C 38.7471,62.5711 39.4138,64.9044 42.5,66.5C 51.8333,76.5 61.5,86.1667 71.5,95.5C 84.5576,109.559 98.2243,122.892 112.5,135.5C 110.167,136.833 107.833,136.833 105.5,135.5C 106.303,134.577 106.47,133.577 106,132.5C 89.6319,115.965 73.1319,99.6316 56.5,83.5C 50.8695,77.3686 45.0362,71.3686 39,65.5C 38.51,64.2068 38.3433,62.8734 38.5,61.5C 38.8333,60.5 39.5,59.8333 40.5,59.5 Z"/></g>
<g><path style="opacity:1" fill="#fee951" d="M 57.5,43.5 C 57.8333,43.5 58.1667,43.5 58.5,43.5C 80.53,65.5292 102.197,87.8625 123.5,110.5C 123.103,111.525 122.437,111.692 121.5,111C 100.37,88.8529 78.7032,67.3529 56.5,46.5C 56.5569,45.391 56.8902,44.391 57.5,43.5 Z"/></g>
<g><path style="opacity:1" fill="#fed433" d="M 56.5,46.5 C 78.7032,67.3529 100.37,88.8529 121.5,111C 122.437,111.692 123.103,111.525 123.5,110.5C 124.71,110.932 125.71,111.599 126.5,112.5C 124.238,114.893 121.572,115.06 118.5,113C 97.574,92.576 77.2406,71.7427 57.5,50.5C 57.1667,49.1667 56.8333,47.8333 56.5,46.5 Z"/></g>
<g><path style="opacity:1" fill="#bf963d" d="M 38.5,61.5 C 38.3433,62.8734 38.51,64.2068 39,65.5C 45.0362,71.3686 50.8695,77.3686 56.5,83.5C 61.727,90.9144 67.227,98.2478 73,105.5C 75.4067,107.875 74.9067,108.875 71.5,108.5C 71.269,105.1 69.4357,103.1 66,102.5C 62.7536,96.9128 59.0869,91.5795 55,86.5C 54.5172,87.448 54.3505,88.448 54.5,89.5C 53.1667,89.5 51.8333,89.5 50.5,89.5C 44.1667,83.8333 38.1667,77.8333 32.5,71.5C 31.2655,69.6017 31.5989,67.935 33.5,66.5C 35.3947,65.027 37.0613,63.3603 38.5,61.5 Z"/></g>
<g><path style="opacity:1" fill="#dfa302" d="M 71.5,95.5 C 84.5806,107.077 97.2472,119.244 109.5,132C 111.134,132.494 112.801,132.66 114.5,132.5C 114.5,133.167 114.5,133.833 114.5,134.5C 113.833,134.5 113.5,134.833 113.5,135.5C 113.167,135.5 112.833,135.5 112.5,135.5C 98.2243,122.892 84.5576,109.559 71.5,95.5 Z"/></g>
<g><path style="opacity:0.859" fill="#c2a97f" d="M 135.5,96.5 C 137.587,97.5846 138.92,99.2512 139.5,101.5C 137.413,100.415 136.08,98.7488 135.5,96.5 Z"/></g>
<g><path style="opacity:1" fill="#fecc25" d="M 57.5,50.5 C 77.2406,71.7427 97.574,92.576 118.5,113C 121.572,115.06 124.238,114.893 126.5,112.5C 127.976,114.709 127.309,116.042 124.5,116.5C 119.417,118.3 115.084,117.134 111.5,113C 91.8609,93.5317 72.8609,74.365 54.5,55.5C 52.1414,54.6113 51.9747,53.278 54,51.5C 54.9529,49.6269 56.1196,49.2935 57.5,50.5 Z"/></g>
<g><path style="opacity:1" fill="#f8b600" d="M 41.5,61.5 C 45.4149,64.2308 49.2482,67.2308 53,70.5C 54.3485,74.5331 56.6819,77.8664 60,80.5C 60.4828,81.448 60.6495,82.448 60.5,83.5C 61.552,83.3505 62.552,83.5172 63.5,84C 78.8333,99.3333 94.1667,114.667 109.5,130C 111.265,130.64 112.932,130.473 114.5,129.5C 114.5,130.5 114.5,131.5 114.5,132.5C 112.801,132.66 111.134,132.494 109.5,132C 97.2472,119.244 84.5806,107.077 71.5,95.5C 61.5,86.1667 51.8333,76.5 42.5,66.5C 41.962,64.8828 41.6287,63.2161 41.5,61.5 Z"/></g>
<g><path style="opacity:1" fill="#cba34e" d="M 56.5,83.5 C 73.1319,99.6316 89.6319,115.965 106,132.5C 106.47,133.577 106.303,134.577 105.5,135.5C 104.325,135.281 103.325,135.614 102.5,136.5C 103.653,137.687 103.653,138.687 102.5,139.5C 100.745,138.928 99.0779,138.094 97.5,137C 81.6315,121.299 65.9649,105.465 50.5,89.5C 51.8333,89.5 53.1667,89.5 54.5,89.5C 54.3505,88.448 54.5172,87.448 55,86.5C 59.0869,91.5795 62.7536,96.9128 66,102.5C 69.4357,103.1 71.269,105.1 71.5,108.5C 74.9067,108.875 75.4067,107.875 73,105.5C 67.227,98.2478 61.727,90.9144 56.5,83.5 Z"/></g>
<g><path style="opacity:1" fill="#b09c77" d="M 139.5,101.5 C 144.401,113.532 148.735,125.866 152.5,138.5C 151.833,138.167 151.167,137.833 150.5,137.5C 146.228,127.098 142.561,116.432 139.5,105.5C 139.5,104.167 139.5,102.833 139.5,101.5 Z"/></g>
<g><path style="opacity:1" fill="#d5b87a" d="M 133.5,104.5 C 135.5,104.833 137.5,105.167 139.5,105.5C 142.561,116.432 146.228,127.098 150.5,137.5C 150.34,139.153 149.674,140.486 148.5,141.5C 148.5,139.5 148.5,137.5 148.5,135.5C 146.09,135.079 144.257,133.746 143,131.5C 139.706,126.038 136.206,120.705 132.5,115.5C 132.5,112.5 132.5,109.5 132.5,106.5C 132.328,105.508 132.662,104.842 133.5,104.5 Z"/></g>
<g><path style="opacity:1" fill="#fdde97" d="M 132.5,115.5 C 136.206,120.705 139.706,126.038 143,131.5C 144.257,133.746 146.09,135.079 148.5,135.5C 148.5,137.5 148.5,139.5 148.5,141.5C 148.5,141.833 148.5,142.167 148.5,142.5C 147.728,143.694 146.728,144.694 145.5,145.5C 139.424,141.275 133.424,136.775 127.5,132C 123.282,131.233 119.282,130.067 115.5,128.5C 115.5,126.5 115.5,124.5 115.5,122.5C 119.559,120.702 123.892,119.536 128.5,119C 129.942,118.623 130.942,117.79 131.5,116.5C 132.167,116.5 132.5,116.167 132.5,115.5 Z"/></g>
<g><path style="opacity:1" fill="#ceb37a" d="M 113.5,135.5 C 113.5,134.833 113.833,134.5 114.5,134.5C 124.251,138.875 133.918,143.542 143.5,148.5C 143.5,149.167 143.167,149.5 142.5,149.5C 132.711,145.106 123.045,140.439 113.5,135.5 Z"/></g>
<g><path style="opacity:1" fill="#a7946f" d="M 105.5,135.5 C 107.833,136.833 110.167,136.833 112.5,135.5C 112.833,135.5 113.167,135.5 113.5,135.5C 123.045,140.439 132.711,145.106 142.5,149.5C 141.833,150.5 141.167,151.5 140.5,152.5C 140.167,152.5 139.833,152.5 139.5,152.5C 138.041,152.567 136.708,152.234 135.5,151.5C 135.389,150.883 135.056,150.383 134.5,150C 127.556,147.518 120.556,145.351 113.5,143.5C 109.463,142.935 105.797,141.601 102.5,139.5C 103.653,138.687 103.653,137.687 102.5,136.5C 103.325,135.614 104.325,135.281 105.5,135.5 Z"/></g>
<g><path style="opacity:1" fill="#f3d28f" d="M 115.5,128.5 C 119.282,130.067 123.282,131.233 127.5,132C 133.424,136.775 139.424,141.275 145.5,145.5C 145.5,145.833 145.5,146.167 145.5,146.5C 145.167,147.5 144.5,148.167 143.5,148.5C 133.918,143.542 124.251,138.875 114.5,134.5C 114.5,133.833 114.5,133.167 114.5,132.5C 114.5,131.5 114.5,130.5 114.5,129.5C 114.5,128.833 114.833,128.5 115.5,128.5 Z"/></g>
<g><path style="opacity:0.694" fill="#cfc1a4" d="M 113.5,143.5 C 120.556,145.351 127.556,147.518 134.5,150C 135.056,150.383 135.389,150.883 135.5,151.5C 127.862,149.401 120.529,146.734 113.5,143.5 Z"/></g>
<g><path style="opacity:1" fill="#4d5154" d="M 148.5,142.5 C 149.912,146.325 152.079,149.658 155,152.5C 155.749,153.635 155.583,154.635 154.5,155.5C 151.265,152.66 148.265,149.66 145.5,146.5C 145.5,146.167 145.5,145.833 145.5,145.5C 146.728,144.694 147.728,143.694 148.5,142.5 Z"/></g>
<g><path style="opacity:1" fill="#24272c" d="M 150.5,137.5 C 151.167,137.833 151.833,138.167 152.5,138.5C 152.5,138.833 152.5,139.167 152.5,139.5C 154.24,145.057 155.573,150.724 156.5,156.5C 151.118,155.373 145.784,154.039 140.5,152.5C 141.167,151.5 141.833,150.5 142.5,149.5C 143.167,149.5 143.5,149.167 143.5,148.5C 144.5,148.167 145.167,147.5 145.5,146.5C 148.265,149.66 151.265,152.66 154.5,155.5C 155.583,154.635 155.749,153.635 155,152.5C 152.079,149.658 149.912,146.325 148.5,142.5C 148.5,142.167 148.5,141.833 148.5,141.5C 149.674,140.486 150.34,139.153 150.5,137.5 Z"/></g>
<g><path style="opacity:0.902" fill="#888a8c" d="M 152.5,139.5 C 155.433,144.801 157.267,150.467 158,156.5C 157.311,157.357 156.478,158.023 155.5,158.5C 149.846,157.064 144.513,155.064 139.5,152.5C 139.833,152.5 140.167,152.5 140.5,152.5C 145.784,154.039 151.118,155.373 156.5,156.5C 155.573,150.724 154.24,145.057 152.5,139.5 Z"/></g>
<g><path style="opacity:0.157" fill="#fe0000" d="M -0.5,158.5 C 0.166667,158.5 0.5,158.833 0.5,159.5C 0.166667,159.167 -0.166667,158.833 -0.5,158.5 Z"/></g>
</svg>
