<svg width="80" height="70" viewBox="0 0 80 70" fill="none" xmlns="http://www.w3.org/2000/svg">
<path d="M78.8368 43.8025C81.5302 50.3721 79.3629 57.1392 74.2253 58.8724C68.3217 60.865 63.5951 57.3599 61.6118 50.5121C59.6473 43.7287 62.75 36.5811 66.1527 35.3074C69.7626 33.9555 76.0935 37.1119 78.8368 43.8025Z" fill="#D37924"/>
<path d="M64.3332 42.1209C64.4381 42.9076 64.8052 46.4651 66.4111 49.8963C67.9225 53.1248 69.739 54.5273 70.9048 55.2831C73.1151 56.7175 75.4818 57.0052 77.313 56.8978C80.1079 53.9854 80.9023 48.8373 78.8373 43.8025C76.0948 37.1119 69.764 33.9555 66.1541 35.3074C65.5376 35.5384 64.9307 35.9644 64.3624 36.5442C64.1638 38.4045 64.1277 40.5723 64.3332 42.1209Z" fill="#F39422"/>
<path d="M74.4031 45.9017C74.3068 45.8871 74.1632 45.9086 74.146 45.8459C74.1288 45.7832 74.2045 45.7437 74.3627 45.5728C74.3807 45.553 75.1459 44.835 74.7126 43.3887C74.2449 41.8255 72.6295 41.4914 72.1206 41.4304C72.0269 41.4193 71.879 41.4141 71.7105 41.445L70.3745 41.7508L69.6911 39.3262L68.239 39.735L68.9225 42.1596L67.8229 42.4688L67.1395 40.0442L65.5628 40.4874L66.2462 42.912L63.4453 43.6996L63.8674 45.1974L65.5404 44.7577C65.6161 44.7379 65.6926 44.7818 65.7141 44.8573L67.8332 52.3777C67.8444 52.4172 67.8212 52.4575 67.7825 52.4687L66.2505 52.8998L66.511 54.5798L69.4469 53.7544L70.1304 56.179L71.6245 55.759L70.9411 53.3344L72.069 53.0175L72.7525 55.4421L74.2698 55.0153L73.5735 52.5434C73.5735 52.5434 73.9861 52.4275 74.134 52.3862C74.2819 52.345 75.3419 51.9654 75.562 51.7919C75.6264 51.7412 77.5238 50.4959 76.947 48.2482C76.426 46.2195 74.5002 45.9189 74.404 45.9034L74.4031 45.9017ZM68.227 44.0216L70.1252 43.4874C70.1252 43.4874 71.6357 43.3646 71.9684 44.5456C72.3278 45.8201 71.0296 46.4986 71.0296 46.4986L69.0798 47.0475L68.227 44.0216ZM72.3501 51.183L70.4003 51.7318L69.465 48.4131L71.3632 47.8789C71.3632 47.8789 73.6655 47.4786 74.0687 48.9087C74.5002 50.44 72.3501 51.183 72.3501 51.183Z" fill="white"/>
<path d="M6.02365 28.1916C5.92117 27.7543 7.64107 27.1052 9.33064 25.8583C12.6429 23.4144 13.0813 22.668 15.9676 20.0955C16.7647 19.3845 19.0719 17.3643 22.2943 16.2227C23.2604 15.8807 28.3146 13.7247 36.8773 16.3548C39.1633 17.0572 41.0626 18.2817 43.5662 17.4643C44.4375 17.1793 44.8021 17.2898 45.9604 16.7115C49.0742 15.1562 51.9041 15.7543 52.725 15.8844C54.664 16.1938 57.9456 16.7173 59.3996 19.3819C60.148 20.755 60.0892 22.1025 60.0575 22.6528C59.8385 26.5426 56.1936 28.5321 55.3377 28.6583C52.083 29.138 52.3591 30.7881 54.3943 30.9261C55.4949 31.001 56.5079 31.3561 58.3767 32.0499C61.6654 33.2689 63.2997 33.4401 66.9648 33.9043C68.2504 34.0664 69.5313 34.0098 70.0211 34.7149C70.4307 35.3021 70.2657 36.2904 69.8869 36.8736C68.8966 38.4017 66.0237 37.7889 63.98 37.3931C56.759 35.9948 53.1492 35.2953 50.0322 35.6937C45.0101 36.334 41.7372 39.3432 40.1894 40.7651C38.4808 42.3344 37.7017 43.4953 37.1074 45.6735C36.4172 48.2013 36.9304 49.2493 35.9297 52.0754C35.4694 53.38 34.8669 54.6903 34.6301 56.1309C34.5738 56.4709 34.364 57.1461 34.6598 57.5622C34.8997 57.8997 35.4296 57.8716 35.4531 57.8704C36.537 57.7997 36.4781 55.9894 38.1664 54.2002C38.6995 53.6348 39.2722 53.216 40.0297 53.0651C40.3174 53.0075 41.2033 52.832 41.5279 53.2461C41.8999 53.7191 41.6879 55.0649 40.0815 57.0568C36.9515 60.9358 34.9606 62.4985 32.6777 64.32C32.2545 64.6586 30.5491 64.586 29.9412 63.7121C29.0796 62.4744 31.0721 60.3678 30.0761 58.5961C29.7774 58.0644 28.9948 57.8193 27.7332 57.1704C26.0951 56.3279 25.4175 56.3329 24.2273 56.4741C23.3518 56.5771 23.3819 57.0431 22.3634 57.8105C22.2725 57.8784 20.888 58.8876 19.2331 58.4036C18.9938 58.3335 18.5528 58.1552 18.4374 57.654C18.3716 57.3648 18.2437 56.7902 18.781 56.3286C19.9976 55.2827 20.1644 55.4167 20.557 54.8988C21.2443 53.9923 20.5965 52.243 20.3655 51.315C20.1751 50.5499 20.1401 50.4156 20.0862 48.6362C20.0332 46.8656 20.4711 45.5783 20.1054 45.05C19.8108 44.6258 17.3886 45.0622 16.0612 45.0372C14.3235 45.0057 13.1846 44.975 11.2844 44.7644C11.091 44.7429 8.50457 44.2052 8.33222 43.6166C8.18661 43.1182 9.86592 42.5052 12.2456 41.1668C13.7234 40.3357 15.7925 38.1519 18.0523 35.9984C18.4815 35.5897 19.8727 34.1065 22.5696 30.7815C23.7758 29.2966 24.8214 28.4778 26.2903 27.3278C27.4476 26.4208 28.6686 25.6424 29.2223 25.3507C30.6675 24.5888 31.7221 24.0963 33.0127 23.4971C34.3135 22.8926 35.2286 22.542 35.8554 22.3404C37.211 21.9043 37.8468 21.83 39.184 21.2808C40.0855 20.9113 40.5523 20.5387 40.5074 20.1866C40.3863 19.2271 36.2299 18.6091 34.4931 18.3521C30.0996 17.7001 28.0592 18.8628 26.4024 19.6927C23.588 21.1061 24.2528 21.119 18.8056 24.7937C14.4382 27.7397 12.4391 28.4307 10.6225 28.6747C8.55525 28.9514 6.14182 28.7193 6.01629 28.1918L6.02365 28.1916Z" fill="#B68754"/>
<path d="M57.3383 25.7647C57.7306 26.493 58.3241 26.2028 60.6372 27.3726C62.481 28.3064 64.0676 29.4343 64.0676 29.4343C64.7568 29.9235 65.5184 30.2706 66.204 30.7673C66.4766 30.9649 66.8301 31.2318 67.3105 31.2724C67.3916 31.2783 68.0784 31.3261 68.3684 30.8787C68.5811 30.5498 68.5323 30.0304 68.1773 29.171C67.9706 28.673 67.1236 26.7563 64.4942 24.5488C63.6611 23.8485 62.9678 23.4117 61.5812 22.538C59.9388 21.5026 59.622 21.4619 59.3778 21.4819C57.8234 21.6054 56.5888 24.3753 57.3361 25.764L57.3383 25.7647Z" fill="#B68754"/>
<path d="M49.6883 23.6294C49.7698 24.5203 50.6767 25.1094 50.8608 25.2232C50.992 25.3034 51.8212 25.7974 52.6076 25.5029C52.8381 25.4177 53.2199 25.11 53.8331 24.4134C54.3171 23.8644 54.4414 23.6152 54.4561 23.3769C54.4994 22.6996 53.6586 22.0555 53.5607 21.9821C52.6984 21.3362 51.5964 21.3829 50.8566 21.7664C50.6946 21.8512 49.9912 22.2156 49.7554 23.0401C49.7132 23.1868 49.6622 23.3734 49.6853 23.6272L49.6883 23.6294Z" fill="white"/>
<path d="M49.6868 23.6285C49.7682 24.5194 50.6751 25.1085 50.8592 25.2223C50.9904 25.3025 51.9255 25.4696 52.2259 25.2621C52.4622 25.0994 52.671 24.8767 52.8431 24.5095C52.9792 24.2188 52.9119 24.0123 52.8574 23.773C52.7939 23.4919 52.5334 23.1504 52.4433 23.0636C52.0165 22.6528 51.3678 22.3191 51.0369 22.2729C50.8478 22.2454 49.9926 22.2168 49.7568 23.0414C49.7146 23.188 49.6636 23.3747 49.6868 23.6285Z" fill="#1A1933"/>
<path d="M54.6716 23.5542C54.7938 23.5851 54.8959 23.5316 55.0141 23.4698C55.1542 23.3965 55.3059 23.317 55.2979 23.2022C55.289 23.0823 55.1031 22.9899 54.935 22.9067C54.7261 22.8022 54.5555 22.7818 54.4197 22.7673C54.2779 22.7522 54.2071 22.7447 54.1657 22.7794C53.9909 22.9248 54.196 23.5334 54.3497 23.5571C54.3941 23.5637 54.4168 23.522 54.5111 23.5173C54.5825 23.5153 54.6213 23.5396 54.6731 23.5534L54.6716 23.5542Z" fill="#6A5544"/>
<path d="M6.02251 28.1913C6.15281 27.595 8.47765 28.29 10.344 27.8284C11.2856 27.5959 11.9103 27.5535 16.0969 24.7877C19.2334 22.7148 19.357 22.4251 21.6489 21.008C23.5673 19.8217 24.713 19.1198 26.4397 18.4411C28.0399 17.812 29.7117 17.1527 31.9944 17.1315C34.9688 17.1035 37.8355 18.1696 37.8342 18.6147C37.8335 18.9294 36.4044 18.7846 34.331 19.1631C31.748 19.6335 29.9968 20.5779 28.1599 21.5894C23.8984 23.9351 24.4088 24.953 20.378 27.3099C20.2155 27.4042 16.9893 29.2526 12.471 30.0422C11.0266 30.2941 8.9812 30.1614 7.18504 29.3329C6.9933 29.2435 5.94067 28.5819 6.02619 28.1912L6.02251 28.1913Z" fill="#6A5544"/>
<path d="M8.36297 43.668C8.38156 43.4407 10.3413 44.351 13.1314 44.12C16.1672 43.8683 18.2791 42.6756 19.7827 41.805C23.8233 39.4634 26.2349 36.1296 27.2692 34.5115C28.9112 31.9412 29.1106 30.5109 31.3387 28.0021C32.9022 26.2409 34.0784 25.5119 35.0045 25.0793C37.3752 23.9725 39.7627 24.0414 39.7984 24.1771C39.8254 24.282 38.4635 24.3755 36.8734 25.2263C36.1819 25.5957 34.9776 26.3598 33.6607 28.0737C31.503 30.8768 31.9873 32.3882 30.1244 36.0708C29.377 37.548 28.0196 40.1684 25.2945 42.3348C23.0383 44.1293 20.8171 44.8399 19.7335 45.1243C16.4806 45.9768 13.7692 45.5269 12.2576 45.2598C10.029 44.8659 8.34779 43.8805 8.36589 43.6665L8.36297 43.668Z" fill="#6A5544"/>
<path d="M53.3968 29.2781C52.1852 29.4101 50.5527 28.9832 49.7132 28.7642C49.0735 28.5969 47.7658 28.2789 46.0824 26.5898C44.6491 25.1511 43.665 24.4108 43.4578 24.6364C43.2585 24.8523 43.7638 25.793 43.8698 25.9848C44.4721 27.0718 45.239 27.6989 45.9772 28.1717C47.2209 28.9676 47.9032 29.2484 48.9223 29.4162C50.7868 29.7217 50.9928 29.7069 52.0195 29.6903C52.7324 29.6779 53.0015 29.6914 53.1708 29.4857C53.2457 29.3944 53.5395 29.263 53.3954 29.2789L53.3968 29.2781Z" fill="white"/>
</svg>
