<svg width="16" height="16" viewBox="0 0 16 16" fill="none" xmlns="http://www.w3.org/2000/svg">
<g id="Lapin qui tient un stylo">
<g id="Group 9056">
<g id="Group">
<path id="Vector" d="M12.653 25.8472L11.279 27.7403L-3.93808 16.6185C-4.59114 16.1419 -4.82015 15.3298 -4.43849 14.8038C-4.06023 14.2828 -3.21718 14.2471 -2.56412 14.7255L12.653 25.8472Z" fill="#9A1921"/>
</g>
<g id="Group_2">
<path id="Vector_2" d="M6.35997 11.8324C6.10975 12.1561 5.98398 12.5651 5.86262 12.7889C5.55901 13.3491 5.55856 13.3882 5.19846 13.9116C4.90852 14.3324 4.61859 14.7197 4.29732 14.9535C4.06079 15.1255 4.50694 13.1235 5.45133 12.2251C5.69184 11.9963 5.86042 11.5804 5.9906 11.6885C6.00384 11.6994 6.52723 11.6163 6.35997 11.8328V11.8324Z" fill="#A04C17"/>
<path id="Vector_3" d="M2.47601 15.9582C2.15386 16.1598 1.89967 16.1761 1.40276 16.4953C1.25713 16.5888 1.08061 16.7318 1.00206 16.9506C0.978671 17.016 0.937631 17.1354 0.986174 17.2598C1.02501 17.3592 1.10179 17.4132 1.12342 17.4277C1.20197 17.4813 1.24213 17.5135 1.35996 17.5258C1.52986 17.5435 1.59252 17.5381 1.6371 17.5499C1.84098 17.6043 1.14239 18.7524 0.232426 18.8323C0.102683 18.8437 -0.469682 18.8936 -0.805955 18.4905C-1.16076 18.0647 -0.998807 17.4382 -0.96924 17.3247C-0.65768 16.1203 0.923509 15.7258 1.33966 15.6218C1.48264 15.586 2.24742 15.6559 2.54706 15.6382C2.73153 15.6273 2.50337 15.9405 2.47645 15.9578L2.47601 15.9582Z" fill="#A04C17"/>
<path id="Vector_4" d="M3.80569 3.30381C4.11592 3.00964 4.5281 2.61786 5.19844 2.17796C5.73153 1.82795 6.27433 1.78209 6.72711 1.74396C7.055 1.71627 7.62737 1.70719 8.28755 1.90649C9.10838 2.15436 9.20855 2.46532 10.1644 2.9479C10.4115 3.07274 11.13 3.41776 12.0938 3.60933C12.686 3.72691 13.607 3.89897 14.6136 3.55531C14.9724 3.43274 15.6397 2.94517 15.6083 2.76358C15.592 2.66916 15.3506 2.8453 15.2676 2.8285C14.3171 2.63647 12.7875 2.73135 12.0413 2.63329C10.6203 2.44671 10.7818 1.39622 8.98349 1.01715C8.81447 0.981285 7.96893 0.812861 6.89568 1.01715C6.01484 1.18467 5.46234 1.51153 4.77655 1.91738C4.16005 2.28192 3.9063 2.53569 3.90145 2.8285C3.89968 2.9479 3.71787 3.38643 3.80569 3.30336V3.30381Z" fill="#A04C17"/>
<path id="Vector_5" d="M4.35768 4.09121C4.69748 3.99542 4.87577 3.94275 5.30118 3.93277C5.99712 3.91642 6.50682 4.11753 6.67981 4.19562C7.13082 4.39991 7.43223 4.81257 8.03461 5.63835C8.38236 6.11502 8.66611 6.56854 8.9256 6.98347C9.45075 7.82332 9.43619 7.88097 9.64801 8.1007C10.2041 8.67769 10.8682 8.86246 11.1454 8.93601C11.1454 8.93601 12.0478 9.17525 12.9167 8.91422C13.1034 8.85792 13.3033 8.73308 13.3664 8.69359C13.4869 8.61823 13.4966 8.59734 13.4966 8.58145C13.4948 8.45933 12.9044 8.4094 12.5302 8.3177C11.614 8.09253 11.0341 7.37933 10.6886 6.95487C9.99223 6.09867 10.3007 5.83219 9.61668 4.89065C9.32454 4.48843 8.78173 3.76071 7.81396 3.3939C7.20496 3.16283 6.67717 3.20369 5.62113 3.28541C4.83561 3.34624 4.52184 3.47607 4.40842 3.7194C4.35282 3.8388 4.24117 4.12525 4.35856 4.09211L4.35768 4.09121Z" fill="#A04C17"/>
<path id="Vector_6" d="M-5.67346 20.9393C-5.90735 20.2851 -6.44662 19.1847 -6.51017 18.4202C-6.6174 17.1241 -6.77671 15.3885 -5.67566 13.6675C-5.15934 12.8608 -4.36146 12.238 -2.76571 10.9923C-2.31558 10.6409 -1.59141 10.3086 -0.881795 9.63308C-0.154088 8.94032 0.214846 8.50496 0.214846 8.50496C0.49066 8.17946 0.617314 7.99333 0.650853 8.0133C0.74794 8.07095 -0.12143 9.75202 -0.572 10.7031C-2.67172 15.1348 -2.84029 18.8324 -4.88794 20.5371C-5.21406 20.8085 -5.5137 21.3864 -5.67346 20.9393Z" fill="#A04C17"/>
<path id="Vector_7" d="M13.8934 2.41686C13.0139 2.16854 12.9402 1.87935 11.4473 1.05766C10.4014 0.482024 9.87889 0.194203 9.2262 0.0743543C8.11235 -0.130388 7.20371 0.137914 6.75182 0.27683C6.1437 0.463867 4.69711 0.936451 3.91203 2.06276C3.61283 2.49222 3.57444 2.46044 2.82246 3.81283C2.6861 4.05797 2.61857 4.30403 2.47824 4.49969C1.68566 5.60193 1.57048 5.67048 1.32556 6.06135C1.03253 6.52894 1.11594 6.56118 0.56652 7.94125C0.148165 8.99266 -0.0614529 9.51836 -0.276809 9.85021C-0.729144 10.5466 -1.04556 10.612 -2.24502 11.6144C-3.39196 12.5731 -3.96522 13.0525 -4.4661 13.7834C-5.26044 14.9429 -5.51684 16.1041 -5.61878 16.589C-5.81472 17.5178 -5.81648 18.3213 -5.8156 18.7581C-5.81163 20.3951 -5.47624 21.2962 -5.84384 21.506C-6.09097 21.6467 -6.62407 21.4569 -6.94048 21.2168C-7.132 21.0711 -7.27719 20.8822 -7.36236 20.9276C-7.45063 20.9748 -7.40296 21.2354 -7.39061 21.3035C-7.30852 21.7529 -7.03448 22.0925 -6.7719 22.3449C-6.42062 22.6822 -6.05567 22.8965 -5.87208 22.9814C-5.85134 22.9909 -5.82884 23.0004 -5.80589 23.01H4.44072C4.4085 22.8624 4.23992 22.7176 4.10886 22.6055C3.59297 22.1638 2.89572 22.2296 2.67506 22.2296C2.15124 22.2296 1.76465 22.147 1.62785 21.9649C1.56651 21.8832 1.58416 21.6848 1.60578 21.6136C1.68125 21.3666 1.83879 21.1541 2.52281 20.5222C3.04664 20.0378 3.28847 19.9062 3.40586 19.5108C3.56473 18.9755 3.32819 18.2074 3.25052 18.1034C3.07179 17.8646 2.89704 17.4356 1.91161 17.5151C0.427509 17.6345 0.080205 18.7721 -0.194285 18.6214C-1.0535 18.1497 0.132719 16.7402 0.543571 16.4846C1.32688 15.9984 2.2342 16.0978 2.95617 15.8086C3.2364 15.6965 3.99941 15.3905 4.55898 14.6519C4.71873 14.4412 4.97557 13.9487 5.53956 12.9817C5.79948 12.5359 5.93099 12.3748 6.18342 12.0434C6.39745 11.7619 6.63796 11.5394 7.05808 11.3406C7.37935 11.1885 7.58367 11.0206 7.57484 10.9792C7.54483 10.8408 6.95173 10.9584 6.8264 10.9974C6.69753 11.0374 6.26109 11.2099 5.97954 11.3914C5.6287 11.618 5.54706 11.7328 5.39967 11.7869C4.58414 12.0865 4.39394 11.746 4.1905 11.5576C4.04531 11.4232 3.74831 10.8063 3.70462 10.715C3.60003 10.4976 3.44337 10.1984 3.55193 10.0182C3.66799 9.8257 3.8732 9.80028 4.05369 9.82207C4.30391 9.85248 4.29376 10.0418 4.61591 10.1694C5.00955 10.3246 5.41776 10.3242 5.7302 10.2851C6.10222 10.2384 6.26197 10.1766 6.41555 9.96688C6.49233 9.86201 6.54043 9.73808 6.57 9.2782C6.61854 8.52824 6.57088 8.36845 6.52234 7.82504C6.48394 7.39104 5.48748 5.3577 4.09782 4.79885C3.85422 4.7008 4.00427 4.22957 4.58767 3.96354C5.05589 3.75018 5.54221 3.62397 5.77389 3.61126C6.35376 3.57857 6.81051 3.56949 6.90715 3.58402C7.22886 3.6326 7.33213 3.64167 7.61897 3.7411C8.07219 3.89817 8.12471 3.99714 8.3939 4.19144C8.94906 4.59184 9.1653 4.85515 9.62028 5.77308C10.1459 6.83311 9.96671 6.94297 10.3745 7.51089C10.769 8.06065 11.2584 8.23815 11.8837 8.44108C12.5585 8.65989 13.5046 8.73208 13.5567 8.57863C13.6008 8.44834 12.8775 8.39886 12.1229 7.75422C11.5188 7.23805 11.3987 6.88668 10.9071 5.9465C10.566 5.29505 10.3189 5.0095 10.0987 4.70261C9.56291 3.95628 9.2871 3.81555 8.86345 3.54044C8.64059 3.39563 8.2646 3.18089 7.80035 3.01065C7.19929 2.79048 6.50866 2.79683 5.91643 2.88763C4.28935 3.13731 3.55105 4.68445 3.2386 4.54327C2.73552 4.31673 4.48749 2.51174 4.82729 2.27295C5.09428 2.085 6.3317 1.2102 8.38375 1.40541C8.88684 1.45307 9.24562 1.63966 9.45214 1.7527C10.0598 2.08455 10.0744 2.34876 10.6331 2.67835C11.0267 2.91033 11.3573 2.97842 11.87 3.08329C12.1083 3.13232 12.6331 3.21449 13.7081 3.25852C14.1304 3.27577 14.4243 3.22493 14.7941 3.14094C15.0898 3.07376 15.6211 2.90715 15.6096 2.76505C15.596 2.59572 14.8294 2.68198 13.8947 2.41776L13.8934 2.41686Z" fill="#F39324"/>
<path id="Vector_8" d="M5.71001 9.50982C5.88035 9.81489 5.97568 9.98513 6.16853 10.0305C6.24002 10.0473 6.27797 10.036 6.30047 10.0251C6.37152 9.99058 6.40683 9.91658 6.36535 9.84621C6.28812 9.71501 6.2996 9.69095 6.03481 9.46669C5.9898 9.42856 5.89536 9.3927 5.79916 9.39088C5.78592 9.39088 5.71266 9.38906 5.69368 9.42901C5.68044 9.45716 5.69987 9.49303 5.70957 9.51028L5.71001 9.50982Z" fill="#A04C17"/>
<path id="Vector_9" d="M1.99337 6.84205C2.09487 6.85113 2.01852 7.42677 2.24623 8.08594C2.38392 8.48453 2.57942 8.75872 2.71004 8.93895C2.90068 9.20226 3.24975 9.6467 3.52557 9.76337C3.57676 9.78516 3.68311 9.83782 3.69238 9.87641C3.69238 9.87641 3.55955 9.90591 3.4073 9.87459C3.26476 9.84508 3.13987 9.81058 3.00528 9.73023C2.49336 9.42516 2.14782 9.03565 2.02823 8.83045C1.79125 8.42324 1.78419 8.05098 1.7683 7.9048C1.74844 7.72185 1.7277 7.36548 1.88789 6.99368C1.951 6.84704 1.98101 6.84069 1.99337 6.84205Z" fill="white"/>
<path id="Vector_10" d="M3.62201 7.30306C3.4018 7.49419 3.45166 7.85464 3.46402 7.92637C3.47241 7.97767 3.53109 8.29817 3.79058 8.45751C3.86648 8.50427 4.03683 8.55012 4.36516 8.58644C4.62376 8.61504 4.71953 8.60142 4.7866 8.56057C4.97857 8.4439 4.95827 8.09161 4.95518 8.05076C4.93002 7.69212 4.66436 7.3993 4.39119 7.26992C4.33118 7.24132 4.07125 7.11829 3.79543 7.21045C3.74645 7.22679 3.68423 7.24813 3.62156 7.30261L3.62201 7.30306Z" fill="white"/>
<path id="Vector_11" d="M3.62201 7.30317C3.4018 7.4943 3.45166 7.85475 3.46402 7.92648C3.47241 7.97778 3.64319 8.26514 3.76764 8.30826C3.86561 8.34186 3.97328 8.35684 4.11141 8.33414C4.22041 8.31644 4.26057 8.25833 4.31264 8.19795C4.37354 8.12713 4.40531 7.99094 4.40796 7.95053C4.41988 7.75578 4.36031 7.51518 4.29676 7.41576C4.26057 7.35901 4.07169 7.11886 3.79588 7.21101C3.74689 7.22736 3.68467 7.2487 3.62201 7.30317Z" fill="#1A1933"/>
<path id="Vector_12" d="M4.78939 8.65273C4.80925 8.69222 4.8472 8.70993 4.89045 8.73036C4.94253 8.75442 4.99901 8.7812 5.02725 8.75668C5.05726 8.73126 5.03961 8.66317 5.02328 8.60143C5.00298 8.52425 4.96945 8.47386 4.94209 8.43391C4.9134 8.39214 4.89928 8.37126 4.88074 8.36672C4.80131 8.34675 4.68525 8.51835 4.71393 8.56465C4.72232 8.57782 4.73908 8.57601 4.76159 8.60143C4.77836 8.6205 4.78101 8.63593 4.78939 8.65227V8.65273Z" fill="#A04C17"/>
</g>
</g>
</g>
</svg>
